<svg width="106" height="52" fill="none" xmlns="http://www.w3.org/2000/svg"><circle cx="26" cy="26" r="26" fill="url(#paint0_linear)"/><path d="M40.203 21.154c-.957 0-1.768.338-2.43 1.001a3.304 3.304 0 00-1.003 2.417c0 1.37.914 2.622 2.225 3.094l-2.52 3.8h2.285l2.372-3.58h1.163v3.58h2.034V21.154h-4.126zm0 4.95c-.766 0-1.4-.693-1.4-1.532 0-.84.634-1.518 1.4-1.518h2.092v3.05h-2.092z" fill="#fff"/><path d="M62.12 31.673c1.886 0 3.551-.943 4.435-2.43l-1.753-1.017c-.487.898-1.503 1.458-2.682 1.458-1.002 0-1.812-.31-2.43-.943-.605-.633-.914-1.444-.914-2.43 0-1.003.31-1.813.913-2.447.62-.633 1.43-.942 2.431-.942 1.179 0 2.166.545 2.682 1.473l1.753-1.017c-.884-1.488-2.564-2.43-4.435-2.43-1.547 0-2.828.515-3.845 1.546-1.017 1.017-1.518 2.299-1.518 3.816 0 1.518.501 2.785 1.518 3.816 1.017 1.031 2.298 1.547 3.845 1.547zm18.61-6.424h-3.831v-4.095h-2.034v10.313H76.9v-4.273h3.83v4.273h2.019V21.154h-2.019v4.095zm19.673 4.877c1.046-1.046 1.562-2.313 1.562-3.816 0-1.503-.516-2.77-1.562-3.801-1.046-1.046-2.313-1.562-3.801-1.562s-2.755.516-3.801 1.562c-1.032 1.031-1.547 2.298-1.547 3.801 0 1.503.515 2.77 1.547 3.816 1.046 1.031 2.313 1.547 3.8 1.547 1.489 0 2.756-.516 3.802-1.547zm-6.173-1.385c-.634-.633-.958-1.444-.958-2.43 0-.988.324-1.798.958-2.432.633-.633 1.429-.957 2.372-.957.943 0 1.738.324 2.372.957.633.634.957 1.444.957 2.431 0 .987-.324 1.798-.957 2.431-.634.634-1.43.943-2.372.943-.943 0-1.739-.31-2.372-.943z" fill="#3D99E3"/><defs><linearGradient id="paint0_linear" x1="0" y1="0" x2="52" y2="52" gradientUnits="userSpaceOnUse"><stop stop-color="#5FBDF2"/><stop offset="1" stop-color="#3591E0"/></linearGradient></defs></svg>