<svg width="598" height="451" viewBox="0 0 598 451" fill="none" xmlns="http://www.w3.org/2000/svg">
<g clip-path="url(#clip0)">
<rect width="598" height="451" fill="white"/>
<g clip-path="url(#clip1)">
<path d="M471 174.07V96.5C471 83.9588 468.53 71.5403 463.73 59.9537C458.931 48.3671 451.897 37.8393 443.029 28.9713C434.161 20.1033 423.633 13.0688 412.046 8.2695C400.46 3.47018 388.041 1 375.5 1V1C350.172 1 325.881 11.0616 307.971 28.9713C290.062 46.881 280 71.1718 280 96.5V247" stroke="#03B2A5"/>
<path d="M347.89 58.4302C348.04 58.2214 348.253 58.0654 348.497 57.9846C348.741 57.9038 349.005 57.9023 349.25 57.9802C350.65 58.2502 351.98 62.4002 349.38 66.5702" fill="white"/>
<path d="M347.89 58.4302C348.04 58.2214 348.253 58.0654 348.497 57.9846C348.741 57.9038 349.005 57.9023 349.25 57.9802C350.65 58.2502 351.98 62.4002 349.38 66.5702" stroke="#1D1D1B" stroke-width="0.78" stroke-miterlimit="10" stroke-linecap="round"/>
<path d="M326.47 49.1104C326.47 49.1104 324.07 50.7704 321.2 57.1804C318.33 63.5904 316.67 75.6804 292.74 83.3704C282.5 86.6604 270.9 93.4904 271.82 104.15C272.56 112.66 280.01 123.36 297.7 123.31C314.36 123.25 330.35 91.9804 330.5 85.4604C330.65 78.9403 326.47 49.1104 326.47 49.1104Z" fill="#FFA998"/>
<path d="M355.87 98.8202C355.87 98.8202 347.5 96.0002 345.63 89.6302C344.81 86.7399 344.212 83.7914 343.84 80.8102C349.15 77.1202 351.28 68.5002 347.5 57.1802C346.879 54.2996 345.629 51.5917 343.84 49.2502C341.13 46.0702 336.21 46.9202 336.21 46.9202C336.21 46.9202 330.89 45.4502 324.63 52.7402L322.69 61.6502C323.94 69.5902 328.41 74.3102 329.58 82.6502C330.18 86.9602 325.74 93.1102 325.74 93.1102" fill="white"/>
<path d="M355.87 98.8202C355.87 98.8202 347.5 96.0002 345.63 89.6302C344.81 86.7399 344.212 83.7914 343.84 80.8102C349.15 77.1202 351.28 68.5002 347.5 57.1802C346.879 54.2996 345.629 51.5917 343.84 49.2502C341.13 46.0702 336.21 46.9202 336.21 46.9202C336.21 46.9202 330.89 45.4502 324.63 52.7402L322.69 61.6502C323.94 69.5902 328.41 74.3102 329.58 82.6502C330.18 86.9602 325.74 93.1102 325.74 93.1102" stroke="black" stroke-width="0.78" stroke-miterlimit="10"/>
<path d="M332.6 78.4004C332.6 78.4004 338.22 84.3004 343.84 80.8104" stroke="#1D1D1B" stroke-width="0.78" stroke-miterlimit="10" stroke-linecap="round"/>
<path d="M339.65 71.38L342.37 70.94C342.414 70.9327 342.456 70.9149 342.491 70.8882C342.527 70.8615 342.556 70.8267 342.576 70.7866C342.595 70.7464 342.605 70.7022 342.604 70.6576C342.603 70.613 342.591 70.5692 342.57 70.53C340.13 66.47 340 60 340 60" stroke="#1D1D1B" stroke-width="0.78" stroke-miterlimit="10" stroke-linecap="round"/>
<path d="M331.66 66.1902C332.514 66.7796 333.559 67.0265 334.587 66.8821C335.615 66.7376 336.551 66.2123 337.21 65.4102" stroke="#1D1D1B" stroke-width="0.78" stroke-miterlimit="10" stroke-linecap="round"/>
<path d="M342 64.5996C342 64.5996 345.53 66.3096 347.35 63.5996" stroke="#1D1D1B" stroke-width="0.78" stroke-miterlimit="10" stroke-linecap="round"/>
<path d="M329.84 64.38C330.493 63.0898 331.467 61.9896 332.668 61.1856C333.87 60.3816 335.259 59.9009 336.7 59.79" stroke="#1D1D1B" stroke-width="0.78" stroke-miterlimit="10" stroke-linecap="round"/>
<path d="M342 58.9996C343.15 58.8052 344.33 58.8715 345.451 59.1934C346.573 59.5153 347.608 60.0847 348.48 60.8596" stroke="#1D1D1B" stroke-width="0.78" stroke-miterlimit="10" stroke-linecap="round"/>
<path d="M337.64 75.3399C337.595 75.3399 337.552 75.322 337.52 75.2901C337.488 75.2582 337.47 75.2149 337.47 75.1699C337.47 75.1248 337.488 75.0815 337.52 75.0497C337.552 75.0178 337.595 74.9999 337.64 74.9999C338.327 74.9757 339.004 74.8302 339.64 74.5699C341.12 73.8199 341.04 72.9399 342.64 72.9399C343.187 72.924 343.73 73.0443 344.22 73.2899C344.265 73.3141 344.303 73.3484 344.333 73.3901C344.362 73.4317 344.381 73.4796 344.389 73.53C344.397 73.5804 344.393 73.6318 344.377 73.6804C344.362 73.729 344.335 73.7733 344.3 73.8099C343.344 74.763 342.113 75.3925 340.78 75.6099C339.726 75.729 338.658 75.6372 337.64 75.3399Z" fill="#F7A698"/>
<path d="M347.5 57.1802C343.09 56.7602 339.87 50.5702 339.87 50.5702C339.87 50.5702 335.4 61.3102 325 63.6302C324.36 63.7702 322.81 64.5602 322.13 64.6302C321.938 63.4227 321.834 62.2028 321.82 60.9802C321.82 48.5402 331.34 44.8202 331.34 44.8202C333.2 43.8802 346.07 42.2802 347.39 56.9102C347.417 57.0039 347.454 57.0945 347.5 57.1802Z" fill="#FFA998"/>
<path d="M324.71 63.8705C324.71 63.8705 322.46 62.1605 320.87 63.0905C319.28 64.0205 318.78 66.9305 320.37 69.6905C321.014 70.9053 322.035 71.8786 323.279 72.4645C324.523 73.0505 325.923 73.2175 327.27 72.9405" fill="white"/>
<path d="M324.71 63.8705C324.71 63.8705 322.46 62.1605 320.87 63.0905C319.28 64.0205 318.78 66.9305 320.37 69.6905C321.014 70.9053 322.035 71.8786 323.279 72.4645C324.523 73.0505 325.923 73.2175 327.27 72.9405" stroke="black" stroke-width="0.78" stroke-miterlimit="10" stroke-linecap="round"/>
<path d="M320.75 66.1695C321.426 65.9663 322.146 65.9521 322.829 66.1283C323.513 66.3046 324.136 66.6647 324.63 67.1695" fill="white"/>
<path d="M320.75 66.1695C321.426 65.9663 322.146 65.9521 322.829 66.1283C323.513 66.3046 324.136 66.6647 324.63 67.1695" stroke="#1D1D1B" stroke-width="0.78" stroke-miterlimit="10" stroke-linecap="round"/>
<path d="M324.83 71.22C323.513 69.7104 322.546 67.9277 322 66L324.83 71.22Z" fill="white"/>
<path d="M324.83 71.22C323.513 69.7104 322.546 67.9277 322 66" stroke="#1D1D1B" stroke-width="0.78" stroke-miterlimit="10" stroke-linecap="round"/>
<path d="M304.07 174C304.07 174 297.8 174.43 296.24 165.8C291.7 140.68 298.8 119.47 309.05 105.08C316.26 94.9602 323.23 99.2202 327.15 89.0802C327.189 88.9823 327.259 88.8998 327.349 88.8456C327.44 88.7914 327.545 88.7684 327.65 88.7802C329.75 89.0902 340.34 90.5102 345.05 88.7202C345.096 88.7031 345.145 88.6969 345.194 88.7019C345.243 88.7069 345.29 88.7231 345.332 88.7492C345.373 88.7753 345.408 88.8106 345.434 88.8524C345.46 88.8942 345.475 88.9413 345.48 88.9902C345.57 90.2202 346.48 93.8102 353.79 97.2802C364 102.17 367 107.68 369.06 112C380.58 135.56 383.06 175.69 383.06 175.69H366.27L358.83 137.77H358.74C358.58 139.23 357.84 145.9 356.85 150.92C354.76 161.56 358.56 189.04 358.56 189.04L304.07 174Z" fill="#03B2A5"/>
<path d="M328.87 93.14C329.422 92.1648 329.804 91.1031 330 90" stroke="#FFD798" stroke-miterlimit="10" stroke-linecap="round"/>
<path d="M333.42 90.7402L333.06 94.2302" stroke="#FFD798" stroke-miterlimit="10" stroke-linecap="round"/>
<path d="M337.42 90.7402V94.9602" stroke="#FFD798" stroke-miterlimit="10" stroke-linecap="round"/>
<path d="M341.44 90.3604C341.609 91.5601 341.921 92.7352 342.37 93.8604" stroke="#FFD798" stroke-miterlimit="10" stroke-linecap="round"/>
<path d="M344.23 90C344.23 90 344.77 92.36 345.78 93.14" stroke="#FFD798" stroke-miterlimit="10" stroke-linecap="round"/>
<path d="M329.03 138.97L333.06 136.41" stroke="#FFD798" stroke-miterlimit="10" stroke-linecap="round"/>
<path d="M330.89 142.15L334.18 139.83" stroke="#FFD798" stroke-miterlimit="10" stroke-linecap="round"/>
<path d="M332.61 145.02L335.7 142.46" stroke="#FFD798" stroke-miterlimit="10" stroke-linecap="round"/>
<path d="M334.61 147.66L337.04 145.33" stroke="#FFD798" stroke-miterlimit="10" stroke-linecap="round"/>
<path d="M348.919 114.446L342.451 116.194C341.369 116.487 340.728 117.601 341.021 118.683L345.405 134.911C345.698 135.994 346.812 136.634 347.895 136.342L354.363 134.594C355.445 134.302 356.085 133.187 355.793 132.105L351.408 115.877C351.116 114.794 350.001 114.154 348.919 114.446Z" fill="black"/>
<path d="M343.33 119.99C343.744 119.99 344.08 119.654 344.08 119.24C344.08 118.826 343.744 118.49 343.33 118.49C342.916 118.49 342.58 118.826 342.58 119.24C342.58 119.654 342.916 119.99 343.33 119.99Z" fill="white"/>
<path d="M334.18 135.83C334.18 135.83 338.8 132.65 340.43 130.33C342.06 128.01 344.95 119.92 346.36 120.2C347.53 120.44 346.36 125.67 345.93 127.44C345.917 127.489 345.92 127.541 345.937 127.589C345.953 127.637 345.984 127.679 346.024 127.71C346.065 127.741 346.113 127.76 346.164 127.763C346.215 127.767 346.266 127.755 346.31 127.73C348.066 126.834 349.722 125.755 351.25 124.51C354.31 121.6 350.55 121.02 351.01 120.2C351.47 119.38 354.47 119.43 355.4 121.29C355.744 121.224 356.1 121.266 356.419 121.411C356.738 121.557 357.004 121.797 357.18 122.1C357.495 122.82 357.575 123.621 357.41 124.39C357.774 124.429 358.119 124.568 358.41 124.79C359.18 125.41 358.69 126.88 358.54 127.25C358.53 127.267 358.525 127.286 358.525 127.305C358.525 127.324 358.53 127.343 358.54 127.36C358.63 127.45 358.79 127.82 358.67 129.36C358.41 132.77 354.95 135.76 350.06 137.62C345.813 139.43 341.682 141.501 337.69 143.82" fill="white"/>
<path d="M334.18 135.83C334.18 135.83 338.8 132.65 340.43 130.33C342.06 128.01 344.95 119.92 346.36 120.2C347.53 120.44 346.36 125.67 345.93 127.44C345.917 127.489 345.92 127.541 345.937 127.589C345.953 127.637 345.984 127.679 346.024 127.71C346.065 127.741 346.113 127.76 346.164 127.763C346.215 127.767 346.266 127.755 346.31 127.73C348.066 126.834 349.722 125.755 351.25 124.51C354.31 121.6 350.55 121.02 351.01 120.2C351.47 119.38 354.47 119.43 355.4 121.29C355.744 121.224 356.1 121.266 356.419 121.411C356.738 121.557 357.004 121.797 357.18 122.1C357.495 122.82 357.575 123.621 357.41 124.39C357.774 124.429 358.119 124.568 358.41 124.79C359.18 125.41 358.69 126.88 358.54 127.25C358.53 127.267 358.525 127.286 358.525 127.305C358.525 127.324 358.53 127.343 358.54 127.36C358.63 127.45 358.79 127.82 358.67 129.36C358.41 132.77 354.95 135.76 350.06 137.62C345.813 139.43 341.682 141.501 337.69 143.82" stroke="black" stroke-width="0.78" stroke-miterlimit="10"/>
<path d="M300.12 154.35L332.58 134.18C332.666 134.13 332.761 134.099 332.859 134.089C332.957 134.078 333.057 134.089 333.151 134.119C333.245 134.149 333.332 134.198 333.406 134.264C333.48 134.33 333.539 134.41 333.58 134.5L338.84 146.5C338.892 146.616 338.912 146.745 338.896 146.872C338.88 146.999 338.829 147.119 338.75 147.22C336.8 149.69 324.22 165.32 312.67 170.61" stroke="#FFD798" stroke-miterlimit="10"/>
<path d="M349.93 128.85C349.93 128.85 356.75 125.44 355.4 121.29L349.93 128.85Z" fill="white"/>
<path d="M349.93 128.85C349.93 128.85 356.75 125.44 355.4 121.29" stroke="black" stroke-width="0.78" stroke-miterlimit="10" stroke-linecap="round"/>
<path d="M351.75 130.29C351.75 130.29 356.99 127.53 357.41 124.39L351.75 130.29Z" fill="white"/>
<path d="M351.75 130.29C351.75 130.29 356.99 127.53 357.41 124.39" stroke="black" stroke-width="0.78" stroke-miterlimit="10" stroke-linecap="round"/>
<path d="M353.77 132.15C353.77 132.15 357.88 129.31 358.56 127.15L353.77 132.15Z" fill="white"/>
<path d="M353.77 132.15C353.77 132.15 357.88 129.31 358.56 127.15" stroke="black" stroke-width="0.78" stroke-miterlimit="10" stroke-linecap="round"/>
<path d="M324.2 69.0801C324.2 69.0801 324.25 82.9601 337.29 93.8601C337.29 93.8601 335.09 105.16 329.49 112.18C317.4 127.34 303.32 128.41 302.27 148.36C301.63 160.56 313.48 174.48 329.03 169.36C353.63 161.36 350.29 137.52 350.29 137.52" stroke="black" stroke-width="0.78" stroke-miterlimit="10"/>
<path d="M349.76 63.25C349.76 63.25 351.85 72.99 348.65 80.55C346.383 86.0864 342.401 90.7509 337.29 93.86" stroke="black" stroke-width="0.78" stroke-miterlimit="10"/>
<path d="M350.6 62.4903C350.78 63.6603 350.52 64.6803 350 64.7603C349.48 64.8403 348.9 63.9703 348.71 62.7603C348.52 61.5503 348.78 60.9303 349.3 60.8403C349.82 60.7503 350.41 61.3203 350.6 62.4903Z" fill="black"/>
<path d="M324.118 71.1797C324.99 70.9821 325.485 69.8831 325.223 68.725C324.96 67.567 324.041 66.7883 323.168 66.9859C322.295 67.1835 321.8 68.2826 322.063 69.4407C322.325 70.5987 323.245 71.3774 324.118 71.1797Z" fill="black"/>
<path d="M357 202.74V146L429 145.82V203C429 203 417 208 393 208C369 208 357 202.74 357 202.74Z" fill="white" stroke="#FFD798"/>
<path d="M436.34 191H361.34V236H436.34V191Z" fill="white"/>
<path d="M393.28 151.93C413.28 151.93 429.43 149.31 429.43 146.08C429.43 143.97 422.55 142.08 412.22 141.08V139.45H401.75V140.38C399.03 140.27 396.2 140.21 393.28 140.21C373.28 140.21 357 142.26 357 145.49C357 148.72 373.31 151.93 393.28 151.93Z" fill="white" stroke="#FFD798" stroke-width="0.91" stroke-miterlimit="10"/>
<path d="M408.47 119.12V81.8799" stroke="#03B2A5" stroke-miterlimit="10"/>
<path d="M409.87 77.58C409.822 79.2089 409.327 80.7933 408.44 82.16C407.502 80.8169 406.999 79.2182 406.999 77.58C406.999 75.9418 407.502 74.3431 408.44 73C409.327 74.3667 409.822 75.9511 409.87 77.58Z" fill="#03B2A5" stroke="#03B2A5" stroke-width="0.41" stroke-miterlimit="10"/>
<path d="M412.44 85.9996C411.369 87.2149 409.985 88.114 408.44 88.5996C408.584 86.9783 409.22 85.4395 410.261 84.1887C411.303 82.938 412.701 82.0347 414.27 81.5996C414.073 83.2057 413.44 84.7273 412.44 85.9996Z" fill="#03B2A5" stroke="#03B2A5" stroke-width="0.41" stroke-miterlimit="10"/>
<path d="M404.44 90.9996C405.511 92.2178 406.894 93.1203 408.44 93.6096C408.257 91.9911 407.631 90.4546 406.63 89.1696C405.556 87.9552 404.174 87.0534 402.63 86.5596C402.816 88.1773 403.442 89.713 404.44 90.9996Z" fill="#03B2A5" stroke="#03B2A5" stroke-width="0.41" stroke-miterlimit="10"/>
<path d="M412.35 95.7396C411.279 96.9578 409.896 97.8603 408.35 98.3496C408.493 96.7308 409.125 95.1939 410.163 93.9434C411.201 92.6929 412.595 91.7882 414.16 91.3496C413.977 92.9662 413.354 94.5017 412.36 95.7896L412.35 95.7396Z" fill="#03B2A5" stroke="#03B2A5" stroke-width="0.41" stroke-miterlimit="10"/>
<path d="M404.53 100.77C405.604 101.984 406.986 102.886 408.53 103.38C408.338 101.759 407.709 100.221 406.71 98.9301C405.641 97.7116 404.257 96.8119 402.71 96.3301C402.9 97.9484 403.53 99.4838 404.53 100.77Z" fill="#03B2A5" stroke="#03B2A5" stroke-width="0.41" stroke-miterlimit="10"/>
<path d="M412.35 104.52C411.282 105.741 409.898 106.644 408.35 107.13C408.493 105.511 409.125 103.974 410.163 102.724C411.201 101.473 412.595 100.568 414.16 100.13C413.977 101.746 413.354 103.282 412.36 104.57L412.35 104.52Z" fill="#03B2A5" stroke="#03B2A5" stroke-width="0.41" stroke-miterlimit="10"/>
<path d="M404.53 109.56C405.601 110.778 406.984 111.681 408.53 112.17C408.386 110.549 407.75 109.01 406.709 107.759C405.667 106.508 404.268 105.605 402.7 105.17C402.887 106.787 403.513 108.323 404.51 109.61L404.53 109.56Z" fill="#03B2A5" stroke="#03B2A5" stroke-width="0.41" stroke-miterlimit="10"/>
<path d="M391.34 139H380.34V143H391.34V139Z" fill="white"/>
<path d="M385.93 138.69C388.93 138.69 391.3 138.09 391.3 137.35C391.3 136.61 388.9 136 385.93 136C382.96 136 380.57 136.6 380.57 137.35C380.57 138.1 383 138.69 385.93 138.69Z" fill="white" stroke="#03B2A5" stroke-miterlimit="10" stroke-linecap="round"/>
<path d="M385.93 147.33C388.93 147.33 391.3 146.73 391.3 145.98C391.3 145.23 388.9 144.64 385.93 144.64C382.96 144.64 380.57 145.24 380.57 145.98C380.57 146.72 383 147.33 385.93 147.33Z" stroke="#03B2A5" stroke-miterlimit="10" stroke-linecap="round"/>
<path d="M380.57 146.06V137.35" stroke="#03B2A5" stroke-miterlimit="10" stroke-linecap="round"/>
<path d="M391.1 146.06V137.35" stroke="#03B2A5" stroke-miterlimit="10" stroke-linecap="round"/>
<path d="M380.57 144.6C380.151 144.62 379.732 144.552 379.34 144.4C378.752 144.174 378.246 143.775 377.889 143.255C377.532 142.736 377.341 142.12 377.34 141.49C377.349 141.067 377.442 140.651 377.613 140.264C377.785 139.878 378.032 139.53 378.34 139.24C378.641 138.947 378.998 138.719 379.39 138.57C379.782 138.42 380.201 138.352 380.62 138.37" stroke="#03B2A5" stroke-miterlimit="10" stroke-linecap="round"/>
<path d="M412.52 114.5L415.78 144.61C415.78 145.61 412.33 146.46 408.06 146.46C403.79 146.46 400.34 145.63 400.34 144.61L404 114C404.76 115.51 401.48 113 408 113C414.52 113 411.76 116 412.52 114.5Z" fill="#FFA998"/>
<path d="M419.38 166.63C421.86 166.01 434.11 179.31 434.11 179.31L445.42 223.65C446.7 223.866 447.936 224.289 449.08 224.9C454.53 227.59 456.87 233.24 454.94 237.72C449.56 250.21 436.32 226.27 437.08 225.65C435.553 221.988 433.049 218.815 429.84 216.48C417.91 207.48 416.71 190.86 416.02 186.93C415.78 181.26 416.9 167.32 419.38 166.63Z" fill="#151515"/>
<path d="M576.74 351.94C576.74 352.01 576.67 352.08 576.67 352.15C576.53 352.63 576.47 353.05 576.33 353.53C576.19 354.01 576.12 354.29 575.98 354.7C575.84 355.11 575.64 355.7 575.5 356.29C575.436 356.554 575.342 356.809 575.22 357.05C575.078 357.408 574.964 357.775 574.88 358.15C574.74 358.56 574.6 358.91 574.47 359.32C574.34 359.73 574.26 359.87 574.19 360.08C574.12 360.29 573.91 360.77 573.78 361.18C573.65 361.59 573.36 362.18 573.16 362.7C572.96 363.22 572.81 363.6 572.6 364.01C572.537 364.119 572.493 364.237 572.47 364.36C572.26 364.77 572.12 365.11 571.91 365.53C571.91 365.6 571.85 365.67 571.85 365.73C571.64 366.15 571.43 366.56 571.22 367.05C571.01 367.54 570.6 368.22 570.33 368.77C570.19 369.05 569.98 369.39 569.85 369.67C569.779 369.821 569.684 369.959 569.57 370.08C569.342 370.509 569.089 370.923 568.81 371.32C568.53 371.8 568.26 372.22 567.98 372.7C567.708 373.153 567.411 373.59 567.09 374.01C567.09 374.02 567.088 374.029 567.085 374.037C567.081 374.046 567.076 374.053 567.07 374.06C567.063 374.066 567.055 374.072 567.047 374.075C567.038 374.079 567.029 374.08 567.02 374.08L566.19 375.32C565.91 375.67 565.64 376.08 565.36 376.43C565.22 376.63 565.09 376.77 564.95 376.98C564.715 377.327 564.461 377.661 564.19 377.98C563.84 378.4 563.57 378.74 563.19 379.09C563.051 379.291 562.89 379.475 562.71 379.64C562.5 379.84 562.3 380.12 562.09 380.33C562.015 380.438 561.92 380.53 561.81 380.6C561.496 380.952 561.162 381.286 560.81 381.6C560.33 382.15 559.81 382.6 559.29 383.12C559.02 383.39 558.74 383.6 558.46 383.88C557.91 384.36 557.46 384.88 556.88 385.25C556.53 385.6 556.12 385.88 555.71 386.25C555.64 386.32 555.57 386.32 555.57 386.39C555.22 386.67 554.88 386.94 554.46 387.22C554.34 387.333 554.201 387.424 554.05 387.49C553.64 387.77 553.29 388.04 552.88 388.32C552.527 388.597 552.156 388.851 551.77 389.08L551.15 389.49C550.754 389.771 550.34 390.025 549.91 390.25C549.43 390.53 548.91 390.87 548.4 391.15C548.372 391.177 548.339 391.197 548.303 391.209C548.267 391.221 548.228 391.225 548.19 391.22C547.77 391.49 547.29 391.7 546.81 391.98C546.759 391.986 546.71 392.007 546.67 392.04C546.12 392.32 545.67 392.6 545.09 392.87C503.64 413.29 403.09 396.46 391.98 357.21C391.829 356.74 391.715 356.259 391.64 355.77C391.7 334.18 395.5 308.52 410.81 294.86C424.26 282.93 445.57 270.38 451.98 250.72C453.15 247.14 443.77 226.72 443.43 222.65L476.88 245L497.78 248.38C498.071 250.839 498.6 253.264 499.36 255.62C500.74 259.83 503.16 264.52 507.36 265.2C509.09 265.48 511.5 265.83 514.36 266.31C524.91 268.1 541.36 271.69 548.77 280.79C554.12 287.45 566.67 322.28 576.74 351.94Z" fill="white"/>
<path d="M411.22 295.58C424.36 283.92 445.01 271.67 451.93 252.78C452.375 251.544 452.485 250.212 452.25 248.92C451.02 241.92 444.14 226.92 443.84 223.37L477.22 245.78L498.12 249.16C498.411 251.622 498.94 254.05 499.7 256.41C501.08 260.61 503.5 265.3 507.7 265.99C509.43 266.27 517.65 267.68 520.48 268.16" stroke="#151515" stroke-miterlimit="10" stroke-linecap="round"/>
<path d="M439.7 168.55C423.22 194.41 437.29 233.55 472.7 248.35C495.7 258 514.97 246.14 517.87 236.14C523.25 217.93 510.08 209.93 507.04 195.86C505.39 188.13 506.15 186.76 500.84 168.55C492.6 140.27 453 147.65 439.7 168.55Z" fill="white"/>
<path d="M472.6 248.35C495.6 258 514.88 246.14 517.78 236.14C523.16 217.93 516.42 210.35 510.05 195C505.93 185.09 505.19 180.6 500.13 168.55C491.92 140.27 452.95 147.55 439.64 168.55" fill="white"/>
<path d="M516.4 240C521.5 219 515.29 214.43 510.09 199.23C506.73 189.4 506.09 184.95 502 173" stroke="#151515" stroke-miterlimit="10" stroke-linecap="round"/>
<path d="M489.89 143.09C486.79 143.64 503.96 137.64 498.89 129.09C491.23 122.75 477.51 126.47 467.58 129.44C446.75 135.57 415.44 152.54 416.06 182.06C416.41 199.06 421.51 206.48 424.61 207.06C425.99 207.33 432.2 199.47 434.41 195.47C455.16 204.02 448.89 217.75 453.92 216.85C458.34 216.02 458.75 205.06 454.68 185.68C452.89 177.12 490.68 185.33 513.68 171.68C523.68 165.74 527.68 151.68 519.81 143.12C514.51 137.51 501.27 141 489.89 143.09Z" fill="#151515"/>
<path d="M447.22 197.58C447.22 197.58 433.15 186.48 426.46 196.89C419.91 207.03 430.66 235.45 454.87 224.55" fill="white"/>
<path d="M447.22 197.58C447.22 197.58 433.15 186.48 426.46 196.89C419.91 207.03 430.66 235.45 454.87 224.55" stroke="#151515" stroke-miterlimit="10" stroke-linecap="round"/>
<path d="M467.36 198.13L477.43 193.65L482.43 191.38L484.91 190.2L486.15 189.65L486.77 189.38L487.12 189.24L487.33 189.17L487.46 189.1L487.53 189.03C487.6 189.03 487.53 189.03 487.67 188.96L487.74 188.89C487.81 188.82 487.74 188.96 487.88 188.75C487.988 188.611 488.057 188.445 488.08 188.27C488.29 188.34 487.81 186.82 487.19 186.96C486.883 186.899 486.564 186.948 486.29 187.1L486.15 187.17L485.88 187.31L485.26 187.65L484.08 188.34L481.67 189.65L476.84 192.27L467.12 197.45C467.043 197.5 466.986 197.576 466.96 197.664C466.934 197.752 466.941 197.847 466.98 197.93C466.979 197.975 466.991 198.019 467.013 198.057C467.036 198.096 467.069 198.127 467.108 198.148C467.148 198.169 467.192 198.178 467.237 198.175C467.281 198.172 467.324 198.156 467.36 198.13Z" fill="#151515"/>
<path d="M496.14 187.26L506.51 189C506.613 189.031 506.725 189.02 506.821 188.97C506.916 188.919 506.988 188.833 507.02 188.73C507.11 188.6 506.94 188.39 506.76 188.32L497.26 184.85C496.877 184.698 496.455 184.668 496.054 184.765C495.653 184.861 495.292 185.08 495.02 185.39C494.925 185.546 494.868 185.722 494.852 185.904C494.837 186.087 494.863 186.27 494.93 186.44C494.997 186.61 495.102 186.763 495.237 186.886C495.373 187.009 495.534 187.099 495.71 187.15C495.843 187.218 495.99 187.256 496.14 187.26Z" fill="#151515"/>
<path d="M491.82 187.84C492.01 187.84 502.07 211.4 504.61 217.35C504.686 217.527 504.726 217.717 504.726 217.91C504.727 218.102 504.689 218.293 504.614 218.47C504.54 218.648 504.43 218.808 504.292 218.942C504.153 219.076 503.989 219.181 503.81 219.25L496 220.09" stroke="#151515" stroke-miterlimit="10" stroke-linecap="round"/>
<path d="M431.09 206.48C433.744 205.38 436.613 204.898 439.48 205.072C442.348 205.245 445.138 206.068 447.64 207.48" stroke="#151515" stroke-miterlimit="10" stroke-linecap="round"/>
<path d="M445.7 219.1L435.36 205.24" stroke="#151515" stroke-miterlimit="10" stroke-linecap="round"/>
<path d="M436.81 188.82C436.81 188.82 449.15 222.07 454.32 214.82C459.49 207.57 449.43 180.05 449.43 180.05C449.43 180.05 436.94 189 436.81 188.82Z" fill="#151515"/>
<path d="M582.5 358.5C582.5 371 567.73 396.8 551.79 404.77C548.41 406.43 539.36 409.77 527 411.5C509.5 414 463.15 415.86 443.5 414C403.5 410.28 392.17 381.25 385.34 357C385.198 356.527 385.085 356.046 385 355.56C385.07 333.97 388.86 308.31 404.17 294.65C417.62 282.72 430.91 275.21 440.36 267.4C447.2 273.19 448.8 284.63 481.85 284.63C498.91 284.63 516.3 283.97 516.3 265.84C526.85 267.63 547.93 271.62 555.38 280.72C559.17 285.34 566.76 304.79 574.48 326.31C575.65 329.55 576.76 332.8 577.93 336.11C579.86 341.6 582.5 346 582.5 358.5Z" fill="#2963A3"/>
<path d="M586.6 236.14H559C558.231 236.149 557.483 236.391 556.855 236.834C556.226 237.276 555.747 237.899 555.48 238.62L532.38 305.8C531.76 307.66 531.89 309.94 534.38 311.18L538.24 313.04H571.7L595.07 242.21C595.63 240.42 595.21 237.52 591.28 236.28C590 235.86 587.91 236.14 586.6 236.14Z" fill="#03B2A5"/>
<path d="M533.36 327.52C533.36 327.52 539.84 290.69 546.67 280.69C553.5 270.69 557.29 264.28 562.39 265.31C566.53 266.14 558.94 280.97 555.91 286.56C555.079 288.086 554.81 289.855 555.15 291.56C555.7 294.11 556.94 297.29 559.77 297.08C564.46 296.8 573.63 252.25 580.32 248.59C587.01 244.93 577.91 286.87 577.91 286.87C577.91 286.87 589.49 251.87 593.77 250.59C597.84 249.35 595.91 262.04 595.7 263.42C595.7 263.438 595.707 263.456 595.72 263.469C595.734 263.482 595.751 263.49 595.77 263.49C596.18 263.14 596.84 262.04 597.39 268.49C597.582 272.289 597.431 276.097 596.94 279.87C596.94 279.87 601.01 306.08 578.18 323.12C555.35 340.16 557.63 347.6 557.63 347.6L533.36 327.52Z" fill="white" stroke="#151515" stroke-miterlimit="10" stroke-linecap="round"/>
<path d="M573.42 333L571.35 336.38L533.9 397.25C518.8 401.6 499.35 402.7 479.7 400.84L526.59 323.94C527.479 322.475 528.738 321.27 530.241 320.446C531.744 319.623 533.437 319.21 535.15 319.25C553.22 319.59 562.87 323.18 567.91 326.56C572.73 329.87 573.42 333 573.42 333Z" fill="#2963A3"/>
<path d="M573.42 333C573.42 333 570.53 319.9 535.15 319.28C533.44 319.257 531.753 319.676 530.253 320.498C528.753 321.32 527.491 322.516 526.59 323.97L480.52 398.97" stroke="#56A1F5" stroke-miterlimit="10" stroke-linecap="round"/>
<path d="M535.56 394.5L558.88 356.77" stroke="#56A1F5" stroke-miterlimit="10" stroke-linecap="round"/>
<path d="M587 292.28C587 292.28 595.35 271.45 595.62 263.59" stroke="#151515" stroke-miterlimit="10" stroke-linecap="round"/>
<path d="M492.7 202.91C492.7 202.91 486.79 200.91 481.4 208.64" stroke="#151515" stroke-miterlimit="10" stroke-linecap="round"/>
<path d="M507.07 197.76C507.07 197.76 503.37 196.5 499.15 199.82" stroke="#151515" stroke-miterlimit="10" stroke-linecap="round"/>
<path d="M492.81 202.79C492.81 202.79 492.81 206.92 491.27 207.63C487.97 209.17 487.73 203.27 487.73 203.27C489.366 202.732 491.102 202.568 492.81 202.79Z" fill="#151515"/>
<path d="M507.31 197.32C507.31 197.32 507.31 201.44 505.78 202.16C502.47 203.69 502.24 197.79 502.24 197.79C503.873 197.252 505.606 197.091 507.31 197.32Z" fill="#151515"/>
<path d="M590.17 240.65H562.44C561.9 240.646 561.374 240.814 560.935 241.128C560.497 241.443 560.169 241.888 560 242.4L550.69 266.4" stroke="#EFF5FB" stroke-miterlimit="10" stroke-linecap="round"/>
<path d="M472.35 219.12C464.04 214.22 455.72 194.44 452.94 183.12L443.5 204L448.19 218C452.5 233 457.24 243.73 474.91 258.64C492.3 271.35 517.7 263.52 523.91 255.05C530.12 246.58 531.36 236.05 526.64 226.73C521.92 217.41 518.09 216.16 514.4 209.4C513.17 212.68 512.07 216.34 505.49 220.87C498.91 225.4 482.75 225.25 472.35 219.12Z" fill="#151515"/>
<path d="M489.89 226C489.89 226 497 232.2 504.2 226" stroke="white" stroke-miterlimit="10" stroke-linecap="round"/>
<path d="M398.08 309.46C409.41 305.68 439.36 318.52 444.65 341.94C449.128 361.294 451.502 381.075 451.73 400.94" stroke="#56A1F5"/>
<path d="M494.69 202.94C495.865 206.395 496.08 210.104 495.31 213.67C494.55 216.67 492.93 218.53 490.8 219.01C488.67 219.49 486.15 218.51 483.8 216.26C481.124 213.593 479.164 210.295 478.1 206.67C476.925 203.213 476.711 199.501 477.48 195.93C478.24 192.93 479.86 191.08 481.99 190.6C484.12 190.12 486.64 191.09 488.99 193.34C491.662 196.014 493.622 199.315 494.69 202.94V202.94Z" stroke="#03B2A5" stroke-width="1.09"/>
<path d="M513.59 195.86C514.549 199.361 514.69 203.036 514 206.6C513.31 209.54 511.91 211.43 510.1 211.88C508.29 212.33 506.16 211.34 504.17 209.06C501.932 206.211 500.316 202.924 499.426 199.412C498.535 195.901 498.39 192.241 499 188.67C499.69 185.72 501.09 183.83 502.91 183.38C504.73 182.93 506.84 183.93 508.84 186.2C511.143 189.013 512.768 192.318 513.59 195.86Z" stroke="#03B2A5"/>
<path d="M440.53 194.74L478.58 208.62" stroke="#03B2A5"/>
<path d="M494.69 202.94L499.52 200.94" stroke="#03B2A5"/>
<path d="M513 194.74H508.64" stroke="#03B2A5"/>
<path d="M229.45 66L373.05 204.69V317.35L402 346L470 414L485 432L403.48 418.9L406.05 420.34V432L452.05 466.5L99 448V159L229.45 66Z" fill="white"/>
<path d="M388.57 263.3C388.488 263.157 388.444 262.995 388.44 262.83L388.57 263.3Z" fill="#FFA998"/>
<path d="M189 451.17C293.382 451.17 378 437.098 378 419.74C378 402.381 293.382 388.31 189 388.31C84.6182 388.31 0 402.381 0 419.74C0 437.098 84.6182 451.17 189 451.17Z" fill="#E3F5F5"/>
<path d="M49.7 393.55L52.7 418.14H58L61.33 394.22" fill="white"/>
<path d="M49.7 393.55L52.7 418.14H58L61.33 394.22" stroke="#03B2A5" stroke-miterlimit="10"/>
<path d="M109.37 402.14L112.37 426.73H117.71L121 402.81" fill="white"/>
<path d="M109.37 402.14L112.37 426.73H117.71L121 402.81" stroke="#03B2A5" stroke-miterlimit="10"/>
<path d="M297.11 391L299.88 411.58H305.21L308.45 389.11" fill="white"/>
<path d="M297.11 391L299.88 411.58H305.21L308.45 389.11" stroke="#03B2A5" stroke-miterlimit="10"/>
<path d="M88.6499 388.2L91.6499 412.78H96.9999L100.33 388.86" fill="white"/>
<path d="M88.6499 388.2L91.6499 412.78H96.9999L100.33 388.86" stroke="#03B2A5" stroke-miterlimit="10"/>
<path d="M151.07 392.31L154.07 416.88H159.4L162.72 393" fill="white"/>
<path d="M151.07 392.31L154.07 416.88H159.4L162.72 393" stroke="#03B2A5" stroke-miterlimit="10"/>
<path d="M95.63 297.49C90.83 297.31 85.82 297.21 80.63 297.21C45.33 297.21 16.71 301.82 16.71 307.51C16.71 313.2 45.36 317.8 80.66 317.8C115.96 317.8 144.58 313.2 144.58 307.51C144.58 303.8 132.41 300.51 114.16 298.74" stroke="#FFD798" stroke-width="0.91" stroke-miterlimit="10"/>
<path d="M17 307.49V407.19" stroke="#FFD798"/>
<path d="M105 298.38C110.24 298.38 114.49 297.32 114.49 296.01C114.49 294.7 110.24 293.64 105 293.64C99.76 293.64 95.52 294.7 95.52 296.01C95.52 297.32 99.78 298.38 105 298.38Z" fill="white" stroke="#03B2A5" stroke-miterlimit="10" stroke-linecap="round"/>
<path d="M105 313.57C110.24 313.57 114.49 312.51 114.49 311.2C114.49 309.89 110.24 308.83 105 308.83C99.76 308.83 95.52 309.89 95.52 311.2C95.52 312.51 99.78 313.57 105 313.57Z" stroke="#03B2A5" stroke-miterlimit="10" stroke-linecap="round"/>
<path d="M95.54 311.33V296" stroke="#03B2A5" stroke-miterlimit="10" stroke-linecap="round"/>
<path d="M114.16 311.33V296" stroke="#03B2A5" stroke-miterlimit="10" stroke-linecap="round"/>
<path d="M95.54 308.77C94.8006 308.8 94.0627 308.681 93.37 308.42C92.5051 308.094 91.737 307.553 91.1375 306.849C90.538 306.146 90.1267 305.301 89.9419 304.396C89.7571 303.49 89.805 302.552 90.081 301.67C90.3569 300.787 90.852 299.989 91.52 299.35C92.048 298.832 92.6781 298.431 93.37 298.17C94.0633 297.911 94.8002 297.789 95.54 297.81" stroke="#03B2A5" stroke-miterlimit="10" stroke-linecap="round"/>
<path d="M97.1399 270.57L88.3199 304.93C88.3199 306.72 82.2099 308.18 74.6599 308.18C67.1099 308.18 60.9999 306.72 60.9999 304.93L52.1399 270.57C53.4899 273.23 63.0399 275.29 74.6099 275.29C86.1799 275.29 95.7899 273.23 97.1399 270.57Z" fill="#FFA998"/>
<path d="M75.3799 271.46V205.94" stroke="#03B2A5" stroke-miterlimit="10"/>
<path d="M77.8699 198.38C77.7803 201.248 76.9052 204.036 75.3399 206.44C73.6923 204.075 72.8091 201.262 72.8091 198.38C72.8091 195.498 73.6923 192.685 75.3399 190.32C76.9066 192.724 77.7818 195.512 77.8699 198.38Z" fill="#03B2A5" stroke="#03B2A5" stroke-width="0.41" stroke-miterlimit="10"/>
<path d="M82.4 213.15C80.5 215.303 78.0434 216.891 75.3 217.74C75.5556 214.868 76.6801 212.142 78.5238 209.925C80.3674 207.708 82.8427 206.105 85.62 205.33C85.2822 208.182 84.1684 210.887 82.4 213.15Z" fill="#03B2A5" stroke="#03B2A5" stroke-width="0.41" stroke-miterlimit="10"/>
<path d="M68.26 222.06C70.1618 224.211 72.6178 225.799 75.36 226.65C75.1101 223.779 73.9887 221.052 72.146 218.836C70.3034 216.62 67.8275 215.02 65.05 214.25C65.3797 217.099 66.4906 219.802 68.26 222.06Z" fill="#03B2A5" stroke="#03B2A5" stroke-width="0.41" stroke-miterlimit="10"/>
<path d="M82.2499 230.33C80.3476 232.478 77.8915 234.062 75.1499 234.91C75.3991 232.043 76.5167 229.32 78.3534 227.104C80.1901 224.889 82.6587 223.286 85.4299 222.51C85.1092 225.359 84.0089 228.065 82.2499 230.33Z" fill="#03B2A5" stroke="#03B2A5" stroke-width="0.41" stroke-miterlimit="10"/>
<path d="M68.42 239.17C70.3275 241.32 72.786 242.907 75.53 243.76C75.28 240.889 74.1586 238.163 72.3159 235.947C70.4733 233.73 67.9974 232.13 65.22 231.36C65.5508 234.208 66.6577 236.909 68.42 239.17Z" fill="#03B2A5" stroke="#03B2A5" stroke-width="0.41" stroke-miterlimit="10"/>
<path d="M82.2499 245.78C80.3476 247.928 77.8915 249.513 75.1499 250.36C75.4069 247.5 76.528 244.786 78.3641 242.578C80.2003 240.371 82.6647 238.774 85.4299 238C85.1092 240.85 84.0089 243.555 82.2499 245.82V245.78Z" fill="#03B2A5" stroke="#03B2A5" stroke-width="0.41" stroke-miterlimit="10"/>
<path d="M68.42 254.64C70.3275 256.789 72.786 258.376 75.53 259.23C75.28 256.359 74.1586 253.632 72.3159 251.416C70.4733 249.2 67.9974 247.6 65.22 246.83C65.5508 249.677 66.6577 252.379 68.42 254.64Z" fill="#03B2A5" stroke="#03B2A5" stroke-width="0.41" stroke-miterlimit="10"/>
<path d="M69.6801 273.05L38.0601 215.63" stroke="#03B2A5" stroke-miterlimit="10"/>
<path d="M36.5899 207.8C37.8996 210.361 38.4807 213.232 38.2699 216.1C35.6888 214.825 33.5597 212.791 32.1689 210.27C30.7781 207.749 30.1922 204.863 30.4899 202C33.0182 203.353 35.1277 205.373 36.5899 207.84V207.8Z" fill="#03B2A5" stroke="#03B2A5" stroke-width="0.41" stroke-miterlimit="10"/>
<path d="M47.6899 218.55C47.0647 221.351 45.6808 223.925 43.6899 225.99C42.5138 223.359 42.1708 220.432 42.7071 217.6C43.2434 214.769 44.6332 212.169 46.6899 210.15C47.787 212.806 48.133 215.712 47.6899 218.55Z" fill="#03B2A5" stroke="#03B2A5" stroke-width="0.41" stroke-miterlimit="10"/>
<path d="M39.59 233.18C42.2985 234.149 45.2204 234.36 48.04 233.79C46.3645 231.463 44.0861 229.638 41.45 228.51C38.7423 227.537 35.8194 227.326 33 227.9C34.6655 230.228 36.9381 232.055 39.57 233.18H39.59Z" fill="#03B2A5" stroke="#03B2A5" stroke-width="0.41" stroke-miterlimit="10"/>
<path d="M55.8399 233.7C55.2103 236.498 53.827 239.071 51.8399 241.14C50.6594 238.51 50.3141 235.581 50.8506 232.748C51.3871 229.916 52.7795 227.316 54.8399 225.3C55.9426 227.954 56.2887 230.861 55.8399 233.7Z" fill="#03B2A5" stroke="#03B2A5" stroke-width="0.41" stroke-miterlimit="10"/>
<path d="M47.9999 248.09C50.7049 249.06 53.6236 249.271 56.4399 248.7C54.7657 246.376 52.4913 244.551 49.8599 243.42C47.1514 242.451 44.2296 242.24 41.4099 242.81C43.0854 245.137 45.3639 246.963 47.9999 248.09Z" fill="#03B2A5" stroke="#03B2A5" stroke-width="0.41" stroke-miterlimit="10"/>
<path d="M63.29 247.24C62.667 250.038 61.2827 252.609 59.29 254.67C58.1139 252.039 57.7709 249.111 58.3072 246.28C58.8435 243.448 60.2333 240.849 62.29 238.83C63.3875 241.489 63.7334 244.398 63.29 247.24Z" fill="#03B2A5" stroke="#03B2A5" stroke-width="0.41" stroke-miterlimit="10"/>
<path d="M55.4599 261.63C58.1648 262.6 61.0836 262.811 63.8999 262.24C62.2242 259.923 59.9448 258.11 57.3099 257C54.6084 256.03 51.6928 255.819 48.8799 256.39C50.5463 258.721 52.823 260.548 55.4599 261.67V261.63Z" fill="#03B2A5" stroke="#03B2A5" stroke-width="0.41" stroke-miterlimit="10"/>
<path d="M80.8799 272.68L112.51 215.26" stroke="#03B2A5" stroke-miterlimit="10"/>
<path d="M114 207.43C112.684 209.988 112.106 212.862 112.33 215.73C114.913 214.448 117.043 212.406 118.432 209.878C119.82 207.35 120.403 204.458 120.1 201.59C117.57 202.94 115.459 204.961 114 207.43Z" fill="#03B2A5" stroke="#03B2A5" stroke-width="0.41" stroke-miterlimit="10"/>
<path d="M102.87 218.18C103.497 220.977 104.881 223.547 106.87 225.611C108.053 222.981 108.4 220.051 107.864 217.218C107.327 214.385 105.933 211.785 103.87 209.771C102.773 212.429 102.427 215.338 102.87 218.18Z" fill="#03B2A5" stroke="#03B2A5" stroke-width="0.41" stroke-miterlimit="10"/>
<path d="M111 232.81C108.299 233.779 105.383 233.99 102.57 233.42C104.169 231.022 106.462 229.168 109.142 228.107C111.822 227.045 114.762 226.827 117.57 227.48C115.905 229.828 113.625 231.672 110.98 232.81H111Z" fill="#03B2A5" stroke="#03B2A5" stroke-width="0.41" stroke-miterlimit="10"/>
<path d="M94.7201 233.33C95.3456 236.127 96.7295 238.698 98.7201 240.76C99.8962 238.129 100.239 235.201 99.7029 232.37C99.1667 229.538 97.7768 226.939 95.7201 224.92C94.6227 227.579 94.2767 230.488 94.7201 233.33Z" fill="#03B2A5" stroke="#03B2A5" stroke-width="0.41" stroke-miterlimit="10"/>
<path d="M102.56 247.72C99.8552 248.69 96.9364 248.901 94.1201 248.33C95.7211 245.934 98.0148 244.084 100.695 243.026C103.375 241.968 106.314 241.753 109.12 242.41C107.46 244.746 105.191 246.583 102.56 247.72Z" fill="#03B2A5" stroke="#03B2A5" stroke-width="0.41" stroke-miterlimit="10"/>
<path d="M87.2599 246.86C87.8827 249.661 89.2669 252.236 91.2599 254.3C92.4456 251.672 92.7947 248.743 92.2599 245.91C91.7123 243.079 90.3173 240.481 88.2599 238.46C87.1578 241.114 86.8117 244.021 87.2599 246.86Z" fill="#03B2A5" stroke="#03B2A5" stroke-width="0.41" stroke-miterlimit="10"/>
<path d="M95.1099 261.26C92.4048 262.229 89.4863 262.44 86.6699 261.87C88.2709 259.474 90.5646 257.624 93.2449 256.566C95.9251 255.508 98.8643 255.293 101.67 255.95C100.002 258.287 97.7268 260.123 95.0899 261.26H95.1099Z" fill="#03B2A5" stroke="#03B2A5" stroke-width="0.41" stroke-miterlimit="10"/>
<path d="M47 348.83V394.43C46.9955 394.646 47.0705 394.855 47.2106 395.019C47.3507 395.184 47.5462 395.29 47.76 395.32L114.42 404.49C114.516 404.51 114.614 404.51 114.71 404.49L165.47 395C165.679 394.964 165.869 394.858 166.01 394.7C166.141 394.537 166.218 394.338 166.23 394.13L166.87 346.2C166.873 345.974 166.79 345.755 166.638 345.588C166.486 345.42 166.275 345.318 166.05 345.3L98.76 340.05H98.57L48.17 347.52C47.8456 347.55 47.5447 347.702 47.3276 347.945C47.1106 348.188 46.9936 348.504 47 348.83Z" fill="white" stroke="#03B2A5" stroke-miterlimit="10"/>
<path d="M138.19 310.87L229.82 309.36C229.82 309.36 238.06 294.66 237.31 281.21C237.31 281.21 225.6 240.43 241.48 230.13C244.97 227.87 252.02 232.61 257.48 230.8C258.48 230.44 326.71 231.8 326.71 231.8C326.71 231.8 347.02 223.8 353.71 243.42L310.37 388.92L243.79 399.92L189.85 391L176.37 388.78L166.32 387.17" stroke="#03B2A5" stroke-miterlimit="10"/>
<path d="M139.75 338.57C127.93 344.57 130.93 352.36 127.26 356.18C125.1 358.44 118.77 359 114.26 356.01C109.75 353.02 105.26 356.35 97.1199 360.33C88.9799 364.31 80.6399 361.84 75.4699 358.5C70.2999 355.16 71.9799 352.69 73.8099 351.86C75.6399 351.03 87.9099 351 93.9999 346.05C108.15 334.42 128 326.62 128 326.62L139.75 338.57Z" fill="#F7A698"/>
<path d="M130.42 325.45C118.61 331.45 121.61 339.24 117.94 343.05C115.78 345.32 109.45 345.88 104.94 342.89C100.43 339.9 95.9401 343.22 87.8001 347.21C79.6601 351.2 71.3201 348.72 66.1501 345.38C60.9801 342.04 62.6601 339.57 64.4901 338.74C66.3201 337.91 78.6001 337.9 84.6501 332.92C98.7801 321.3 118.59 313.48 118.59 313.48L130.42 325.45Z" fill="#F7A698"/>
<path d="M75.49 358.5C70.34 355.18 72 352.69 73.83 351.86C75.66 351.03 87.92 351 94 346.05C108.15 334.42 128 326.62 128 326.62L139.82 338.57C128 344.57 131 352.36 127.34 356.18" stroke="#FFD899" stroke-miterlimit="10" stroke-linecap="round"/>
<path d="M279.78 233.39C279.78 233.39 292.78 236.39 298.3 228.7C297.977 227.309 297.22 226.055 296.14 225.12C293.64 223.01 291.61 223.61 289.73 220.81C287.85 218.01 288.82 214.16 288.82 214.16C288.82 214.16 285.74 223.36 280.62 225.32C279.571 227.874 279.279 230.675 279.78 233.39Z" fill="#151515" stroke="#151515" stroke-miterlimit="10" stroke-linecap="round"/>
<path d="M250.82 226.87C248.9 220.39 250.7 206.23 250.7 206.23C254.295 206.561 257.92 206.163 261.357 205.058C264.794 203.953 267.972 202.164 270.7 199.8C271.32 205.08 279.98 208.8 279.98 208.8C285.56 203.65 288.39 205.89 288.39 205.89C288.216 202.209 287.323 198.597 285.76 195.26C282.22 188.47 270.88 184.99 263.24 187.66C253.16 191.19 251.11 200.74 250.82 201.84C250.17 204.34 247.99 211.13 243.39 212.24C237.73 213.61 234.39 221.29 234.39 221.29C234.39 221.29 240.68 231.55 252.12 230.68L250.82 226.87Z" fill="#151515" stroke="#151515" stroke-miterlimit="10" stroke-linecap="round"/>
<path d="M280.24 208.87C280.24 208.87 286.29 203.4 288.82 206.8C291.35 210.2 287.23 223.58 279.41 225.57" fill="white"/>
<path d="M280.24 208.87C280.24 208.87 286.29 203.4 288.82 206.8C291.35 210.2 287.23 223.58 279.41 225.57" stroke="#151515" stroke-miterlimit="10" stroke-linecap="round"/>
<path d="M261.58 237.29L260.25 247.29C260.25 247.29 266.15 253.15 282.3 246.15C279.369 239.631 278.751 232.307 280.55 225.39" fill="white"/>
<path d="M261.58 237.29L260.25 247.29C260.25 247.29 266.15 253.15 282.3 246.15C279.369 239.631 278.751 232.307 280.55 225.39" stroke="#151515" stroke-miterlimit="10" stroke-linecap="round"/>
<path d="M281.74 214.52C281.74 214.52 283.74 210.52 287.07 211.2L281.74 214.52Z" fill="white"/>
<path d="M281.74 214.52C281.74 214.52 283.74 210.52 287.07 211.2" stroke="#151515" stroke-miterlimit="10" stroke-linecap="round"/>
<path d="M282.41 220.42L285.41 211.7" stroke="#151515" stroke-miterlimit="10" stroke-linecap="round"/>
<path d="M276.33 226.12C276.33 226.12 269.09 238.12 260.68 237C245.47 235.05 250.78 204.28 250.78 204.28" fill="white"/>
<path d="M276.33 226.12C276.33 226.12 269.09 238.12 260.68 237C245.47 235.05 250.78 204.28 250.78 204.28" stroke="#151515" stroke-miterlimit="10" stroke-linecap="round"/>
<path d="M258.69 209.51C258.69 209.51 258.89 218.05 255.01 221.83C255.005 221.856 255.005 221.883 255.01 221.91C255.006 221.943 255.006 221.977 255.01 222.01C255.02 222.046 255.037 222.08 255.06 222.11L255.14 222.17L258.29 223.17" stroke="#151515" stroke-miterlimit="10" stroke-linecap="round"/>
<path d="M257.48 228.24C257.578 227.923 257.761 227.639 258.01 227.42C258.259 227.199 258.563 227.05 258.89 226.99C260.159 226.93 261.422 226.78 262.67 226.54C264.45 226.04 265.67 224.54 266.5 223.88C266.522 223.859 266.55 223.844 266.58 223.839C266.611 223.833 266.642 223.836 266.67 223.848C266.699 223.859 266.723 223.879 266.741 223.904C266.759 223.929 266.769 223.959 266.77 223.99C266.777 224.007 266.781 224.026 266.781 224.045C266.781 224.064 266.777 224.082 266.77 224.1C265.97 225.45 263.93 228.37 261.24 228.63C258.1 229 257.48 228.24 257.48 228.24Z" fill="#F7A698"/>
<path d="M262.27 214.33C262.27 214.33 265.42 212.2 269.27 215.62" stroke="#151515" stroke-miterlimit="10" stroke-linecap="round"/>
<path d="M263.09 214.35C263.09 214.35 263.17 216.45 264.56 216.61C266.67 216.88 267.56 214.39 267.56 214.39C266.644 213.89 265.601 213.667 264.56 213.75C263 214 263.09 214.35 263.09 214.35Z" fill="#151515"/>
<path d="M263.53 207.87C264.341 207.927 265.138 208.113 265.89 208.42C266.626 208.717 267.319 209.11 267.95 209.59C268.58 210.062 269.136 210.625 269.6 211.26C269.836 211.581 270.053 211.914 270.25 212.26C270.36 212.43 270.43 212.61 270.52 212.77L270.65 213.04C270.65 213.12 270.78 213.19 270.57 213.39C270.491 213.469 270.39 213.521 270.28 213.54C269.98 213.59 269.98 213.54 269.93 213.41L269.8 213.19C269.713 213.034 269.616 212.884 269.51 212.74C268.902 211.888 268.151 211.147 267.29 210.55C266.723 210.156 266.104 209.843 265.45 209.62C264.824 209.378 264.168 209.22 263.5 209.15H263.45C263.371 209.141 263.295 209.115 263.227 209.076C263.158 209.036 263.098 208.983 263.05 208.92C262.953 208.795 262.906 208.639 262.919 208.481C262.932 208.324 263.004 208.177 263.12 208.07C263.24 207.968 263.392 207.911 263.55 207.91L263.53 207.87Z" fill="#151515"/>
<path d="M251.82 214.16C252.341 213.623 253.012 213.255 253.745 213.106C254.479 212.956 255.24 213.031 255.93 213.32C256.388 213.517 256.802 213.803 257.15 214.16" stroke="#151515" stroke-miterlimit="10" stroke-linecap="round"/>
<path d="M252.5 213.5C252.5 213.5 252.55 215.5 253.75 215.7C255.53 215.93 256.02 213.79 256.02 213.79C255.513 213.429 254.92 213.208 254.3 213.15C253.679 213.099 253.057 213.221 252.5 213.5Z" fill="#151515"/>
<path d="M251 211.39C251.293 210.819 251.67 210.297 252.12 209.84C253.022 208.917 254.154 208.254 255.4 207.92C256.026 207.762 256.666 207.668 257.31 207.64C257.373 207.629 257.437 207.629 257.5 207.64C257.565 207.657 257.623 207.692 257.67 207.74C257.721 207.78 257.762 207.831 257.79 207.89C257.82 207.949 257.838 208.013 257.84 208.08C257.85 208.143 257.85 208.207 257.84 208.27C257.813 208.333 257.779 208.393 257.74 208.45C257.691 208.492 257.637 208.529 257.58 208.56C257.518 208.575 257.452 208.575 257.39 208.56H257.33C256.76 208.543 256.19 208.586 255.63 208.69C255.067 208.801 254.522 208.989 254.01 209.25C253.489 209.509 253.01 209.846 252.59 210.25C252.152 210.625 251.78 211.071 251.49 211.57C251.457 211.627 251.403 211.67 251.34 211.69C251.276 211.715 251.204 211.715 251.14 211.69C251.082 211.657 251.039 211.603 251.02 211.54C250.994 211.475 250.994 211.404 251.02 211.34L251 211.39Z" fill="#151515"/>
<path d="M164.81 240.82C164.81 240.82 157.73 237.95 158 236.17C158.27 234.39 168.74 236.17 174.73 240.17C178.157 242.348 181.41 244.789 184.46 247.47" stroke="#151515" stroke-miterlimit="10" stroke-linecap="round"/>
<path d="M161.56 247.85C161.56 247.85 157.23 247.69 155.36 246.61C152.78 245.1 148.98 241.25 147.65 241.5C145.24 241.96 148.41 248.86 157.06 252.21C162.85 254.48 168.22 251.68 171.21 251.84C174.2 252 178.91 255.54 178.91 255.54" stroke="#151515" stroke-miterlimit="10" stroke-linecap="round"/>
<path d="M147.32 241.45C147.32 241.45 145.12 239.94 145.37 238.58C145.62 237.22 149.85 238.32 154.11 242.03C155.695 243.382 157.622 244.272 159.68 244.6" stroke="#151515" stroke-miterlimit="10" stroke-linecap="round"/>
<path d="M167.67 240.87C167.67 240.87 163.14 241.24 161.22 240.57C159.81 240.07 152.36 234.72 149.13 234.34C147.04 234.1 147.61 235.34 147.61 235.34" stroke="#151515" stroke-miterlimit="10" stroke-linecap="round"/>
<path d="M145.91 237.75C145.91 237.75 144.99 236.67 145.91 235.88C146.49 235.4 149.06 235.4 154.77 239.65C159.06 242.85 160.93 242.43 160.93 242.43" stroke="#151515" stroke-miterlimit="10" stroke-linecap="round"/>
<path d="M294.31 244.64C289.98 241.4 283.07 243.73 283.07 243.73L282.36 241.85C282.335 241.785 282.297 241.726 282.247 241.677C282.196 241.629 282.136 241.592 282.07 241.57C282.004 241.555 281.936 241.555 281.87 241.57C281.8 241.575 281.731 241.595 281.67 241.63C270.21 248.49 261.67 245.18 259.82 244.33C259.778 244.316 259.732 244.316 259.69 244.33C259.644 244.32 259.596 244.32 259.55 244.33C259.507 244.347 259.469 244.375 259.44 244.41C259.409 244.445 259.385 244.486 259.37 244.53L258.61 247.36C258.577 247.494 258.495 247.611 258.38 247.689C258.266 247.767 258.127 247.799 257.99 247.78C242.87 245.78 228.15 267.49 228.15 267.49L179.7 241.7L172.21 253.7C172.21 253.7 218.98 298.85 229.3 305.7C246.83 317.35 305.09 311.97 305.09 311.97L299.22 247.69L294.31 244.64Z" fill="#FFD798" stroke="#FFD798" stroke-miterlimit="10"/>
<path d="M299.22 247.67C307.46 256.23 325.1 278.55 325.31 296.76C325.56 318.43 312.39 317.25 305.77 315.81C299.15 314.37 263.7 306.17 263.7 306.17L255.77 294.55C255.77 294.55 288.77 286.75 303.55 294.39L299.22 247.67Z" fill="#FFD798" stroke="#FFD798" stroke-miterlimit="10"/>
<path d="M187.9 278.1L182.47 236.94L224.83 243.2L229.08 292.67L258.36 304.51L257.73 308.43L226 295.84L187.9 278.1Z" fill="#FFA998"/>
<path d="M186.56 268.94L182.43 236.94L215.38 241.63" stroke="#2963A3" stroke-miterlimit="10" stroke-linecap="round"/>
<path d="M202.31 265.77C203.46 265.53 204.07 263.77 203.67 261.77C203.27 259.77 202.02 258.42 200.88 258.65C199.74 258.88 199.11 260.65 199.51 262.65C199.91 264.65 201.16 266 202.31 265.77Z" fill="white"/>
<path d="M255.15 297.51C255.15 297.51 243.29 296.26 241.79 297.75C240.29 299.24 248.53 301.49 248.53 301.49" fill="white"/>
<path d="M255.15 297.51C255.15 297.51 243.29 296.26 241.79 297.75C240.29 299.24 248.53 301.49 248.53 301.49" stroke="#151515" stroke-miterlimit="10" stroke-linecap="round"/>
<path d="M257.27 296.89C247.53 295.14 238.04 304.36 238.04 304.36L243.91 312.46L259.52 307.23L263.14 302.49" fill="white"/>
<path d="M257.27 296.89C247.53 295.14 238.04 304.36 238.04 304.36L243.91 312.46L259.52 307.23L263.14 302.49" stroke="#151515" stroke-miterlimit="10" stroke-linecap="round"/>
<path d="M239 307.09C239 307.09 244 301.74 249.49 301.74L239 307.09Z" fill="white"/>
<path d="M239 307.09C239 307.09 244 301.74 249.49 301.74" stroke="#151515" stroke-miterlimit="10" stroke-linecap="round"/>
<path d="M240.29 309.34C240.29 309.34 246.91 303.98 250.4 304.6L240.29 309.34Z" fill="white"/>
<path d="M240.29 309.34C240.29 309.34 246.91 303.98 250.4 304.6" stroke="#151515" stroke-miterlimit="10" stroke-linecap="round"/>
<path d="M186.2 276.62C197.54 276.28 228.03 292.4 242.79 310L257.79 307.09C257.79 307.09 262.32 323.79 251.13 334.42C238.9 346.06 204 345.55 183.71 320C183.71 320 179.5 323.95 164.9 334.94C149.26 346.74 137.27 352.39 137.27 352.39C122.27 348.65 112.72 328.55 112.72 328.55C102.14 324.32 100.72 315.55 100.72 315.55C100.72 315.55 150.58 274.2 166.55 273.78C166.55 273.78 175.87 274.12 178.88 277.78C178.87 277.78 180.68 276.77 186.2 276.62Z" fill="#2864A3" stroke="#2864A3" stroke-miterlimit="10"/>
<path d="M257.8 307.09C257.8 307.09 262.33 323.79 251.14 334.42" stroke="#03B2A5" stroke-miterlimit="10" stroke-linecap="round"/>
<path d="M178.87 277.78C178.87 277.78 180.71 276.78 186.2 276.62" stroke="#03B2A5" stroke-miterlimit="10" stroke-linecap="round"/>
<path d="M52.16 273.56C52.0595 273.39 52.0044 273.197 52 273L52.16 273.56Z" fill="#FFA998"/>
<path d="M97.1399 273.56L97.2999 272.96C97.2979 273.17 97.2428 273.377 97.1399 273.56Z" fill="#FFA998"/>
<path d="M249.78 340.73C249.78 340.73 251.78 311.08 257.04 304.35C261.58 298.51 266.28 299.87 271.04 300.58C275.8 301.29 316.47 317 316.47 317" fill="white"/>
<path d="M249.78 340.73C249.78 340.73 251.78 311.08 257.04 304.35C261.58 298.51 266.28 299.87 271.04 300.58C275.41 301.27 310.24 314.58 315.75 316.74C316.554 317.018 317.385 317.209 318.23 317.31C319.553 317.55 320.917 317.301 322.07 316.61C324.07 315.28 324.9 309.61 324.9 309.61" stroke="#03B2A5" stroke-miterlimit="10" stroke-linecap="round"/>
<path d="M254.39 368.67C254.39 368.67 259.85 321.03 260.6 316.14C261.89 307.72 266.26 306.14 277.42 312.33" stroke="#03B2A5" stroke-miterlimit="10"/>
<path d="M314.7 263C314.7 263 313.58 233.28 331.24 230.48" stroke="#03B2A5" stroke-miterlimit="10" stroke-linecap="round"/>
<path d="M173.54 351.69L242.46 357" stroke="#03B2A5" stroke-miterlimit="10" stroke-linecap="round"/>
<path d="M114.62 404.51V360.69" stroke="#03B2A5" stroke-miterlimit="10" stroke-linecap="round"/>
<path d="M47 395.21V347.71" stroke="#03B2A5" stroke-miterlimit="10" stroke-linecap="round"/>
<path d="M298.39 275.12L305.88 295.72C288.74 284.4 259.21 294.83 257.14 295.59" stroke="#FFA998" stroke-miterlimit="10" stroke-linecap="round"/>
<path d="M242.79 267.15C242.79 267.15 232.96 282.15 237.63 292.73" stroke="#FFA998" stroke-miterlimit="10" stroke-linecap="round"/>
<path d="M260.1 248.55C260.1 248.55 274.74 253.55 283.1 243.73" stroke="#FFA998" stroke-miterlimit="10" stroke-linecap="round"/>
<path d="M137.25 352.71C122.25 348.98 112.7 328.87 112.7 328.87C112.7 328.87 149.16 296.87 162.6 289.01" stroke="#03B2A5" stroke-miterlimit="10" stroke-linecap="round"/>
<path d="M193 309.34C193 309.34 188.25 316.94 183.26 320.92" stroke="#03B2A5" stroke-miterlimit="10" stroke-linecap="round"/>
<path d="M136.08 173.29H173.88C175.237 173.289 176.582 173.555 177.836 174.074C179.091 174.592 180.231 175.353 181.191 176.312C182.151 177.271 182.913 178.411 183.433 179.665C183.952 180.919 184.22 182.263 184.22 183.62V203.26C184.217 203.595 184.082 203.916 183.845 204.152C183.607 204.388 183.285 204.52 182.95 204.52H136.08C133.339 204.52 130.711 203.432 128.772 201.495C126.833 199.558 125.743 196.931 125.74 194.19V183.62C125.74 182.263 126.008 180.919 126.527 179.665C127.047 178.411 127.809 177.271 128.769 176.312C129.729 175.353 130.869 174.592 132.124 174.074C133.378 173.555 134.723 173.289 136.08 173.29ZM205.63 196H226.8C227.76 196 228.711 196.189 229.597 196.556C230.484 196.924 231.29 197.462 231.969 198.141C232.648 198.82 233.186 199.626 233.554 200.513C233.921 201.4 234.11 202.35 234.11 203.31V207.84C234.11 208.8 233.921 209.751 233.554 210.637C233.186 211.524 232.648 212.33 231.969 213.009C231.29 213.688 230.484 214.226 229.597 214.594C228.711 214.961 227.76 215.15 226.8 215.15H199.58C199.243 215.15 198.92 215.016 198.682 214.778C198.444 214.54 198.31 214.217 198.31 213.88V203.26C198.323 201.328 199.101 199.48 200.472 198.12C201.844 196.759 203.698 195.997 205.63 196Z" fill="#2963A3" stroke="#2963A3" stroke-width="2"/>
<path d="M142.88 191.92C144.548 191.92 145.9 190.568 145.9 188.9C145.9 187.232 144.548 185.88 142.88 185.88C141.212 185.88 139.86 187.232 139.86 188.9C139.86 190.568 141.212 191.92 142.88 191.92Z" fill="white"/>
<path d="M154.98 191.92C156.648 191.92 158 190.568 158 188.9C158 187.232 156.648 185.88 154.98 185.88C153.312 185.88 151.96 187.232 151.96 188.9C151.96 190.568 153.312 191.92 154.98 191.92Z" fill="white"/>
<path d="M167.08 191.92C168.748 191.92 170.1 190.568 170.1 188.9C170.1 187.232 168.748 185.88 167.08 185.88C165.412 185.88 164.06 187.232 164.06 188.9C164.06 190.568 165.412 191.92 167.08 191.92Z" fill="white"/>
<path d="M133.26 336.75C133.26 336.75 175.39 292.75 189.52 293.87C204.44 295.09 225.15 333.73 236.8 329.75" stroke="#03B2A5" stroke-miterlimit="10" stroke-linecap="round"/>
<path d="M207.9 207.79C209.154 207.79 210.17 206.774 210.17 205.52C210.17 204.266 209.154 203.25 207.9 203.25C206.646 203.25 205.63 204.266 205.63 205.52C205.63 206.774 206.646 207.79 207.9 207.79Z" fill="white"/>
<path d="M216.22 207.79C217.474 207.79 218.49 206.774 218.49 205.52C218.49 204.266 217.474 203.25 216.22 203.25C214.966 203.25 213.95 204.266 213.95 205.52C213.95 206.774 214.966 207.79 216.22 207.79Z" fill="white"/>
<path d="M224.53 207.79C225.784 207.79 226.8 206.774 226.8 205.52C226.8 204.266 225.784 203.25 224.53 203.25C223.276 203.25 222.26 204.266 222.26 205.52C222.26 206.774 223.276 207.79 224.53 207.79Z" fill="white"/>
<path d="M173.88 396.21C168.16 417.07 195.52 429.1 195.52 429.1C195.52 429.1 193.85 430.42 196.52 432.75C199.19 435.08 218.16 433.41 218.16 433.41C218.16 433.41 215.52 433.1 215.83 438.07C216.03 441.19 261.44 449.07 281.08 429.43C300.72 409.79 293.56 383.64 272.08 374.29C222.48 352.71 180.53 372 173.88 396.21Z" fill="#FFD899"/>
<path d="M250.71 408.25C250.71 408.25 251.71 439.03 262.71 437.09C274.39 435.03 275.5 411.74 275.5 411.74C276.01 396.54 259.5 391.09 249.5 392.31C237.3 393.82 233.8 403.52 229.8 407C225.8 410.48 222.11 414.48 215.58 415.47C208.65 416.54 208.92 422.87 209.05 424.2C209.056 424.226 209.056 424.253 209.05 424.28C209.05 424.28 209.05 424.33 209.05 424.34C209.024 424.345 208.996 424.345 208.97 424.34H208.9C207.38 423.93 198.7 421.97 195.52 428.76" stroke="#2A64A3" stroke-miterlimit="10" stroke-linecap="round"/>
<path d="M233.67 415.47C233.67 415.47 235.74 421.71 243.6 419.15" stroke="#2A64A3" stroke-miterlimit="10" stroke-linecap="round"/>
<path d="M215.57 438.15C215.57 438.15 215.82 432.15 221.62 430.8C226.02 429.8 228.49 431.29 229.45 432.09C229.62 432.224 229.818 432.316 230.03 432.36C230.243 432.42 230.468 432.42 230.68 432.36L248.4 427.53" stroke="#2A64A3" stroke-miterlimit="10" stroke-linecap="round"/>
<path d="M185.55 403.83C185.55 403.83 195.28 418.59 209.21 420.33" stroke="#2A64A3" stroke-miterlimit="10" stroke-linecap="round"/>
<path d="M209.05 424.2C209.05 424.2 211.9 427.36 215.57 426.13C221.69 424.07 221.62 415.43 217.38 415.47C211.57 415.54 208.15 419.85 209.05 424.2Z" fill="#2A64A3" stroke="#2A64A3" stroke-miterlimit="10" stroke-linecap="round"/>
<path d="M99 159L229.45 66L373.05 204.69V317.35L470 414.3" stroke="#03B1A4" stroke-miterlimit="10" stroke-linecap="round"/>
</g>
</g>
<defs>
<clipPath id="clip0">
<rect width="598" height="451" fill="white"/>
</clipPath>
<clipPath id="clip1">
<rect width="598" height="466.49" fill="white"/>
</clipPath>
</defs>
</svg>
