<?xml version="1.0" encoding="UTF-8"?> <svg xmlns="http://www.w3.org/2000/svg" width="209" height="23" viewBox="0 0 209 23" fill="none"> <g clip-path="url(#clip0_2127_69)"> <path d="M0 11.3646C0 9.18527 0 8.09558 0.278742 7.21153C0.869611 5.33753 2.33753 3.86961 4.21153 3.27874C5.09558 3 6.18527 3 8.36464 3C11.4158 3 12.9413 3 14.179 3.39024C16.8026 4.21746 18.8577 6.27254 19.6849 8.89614C20.0751 10.1338 20.0751 11.6594 20.0751 14.7105C20.0751 16.8899 20.0751 17.9796 19.7964 18.8636C19.2055 20.7376 17.7376 22.2055 15.8636 22.7964C14.9796 23.0751 13.8899 23.0751 11.7105 23.0751C8.65938 23.0751 7.13382 23.0751 5.89614 22.6849C3.27254 21.8577 1.21746 19.8026 0.390238 17.179C0 15.9413 0 14.4158 0 11.3646Z" fill="url(#paint0_linear_2127_69)"></path> <path d="M10.9108 19.2578C9.16254 19.2578 8.2884 19.2578 7.91121 18.8757C7.67351 18.6348 7.53983 18.3098 7.53906 17.9709C7.53785 17.433 8.15751 16.8143 9.39682 15.5768L12.5055 12.4728C13.7373 11.2428 14.3531 10.6279 14.8879 10.6309C15.2249 10.6328 15.5477 10.7674 15.7867 11.0058C16.166 11.3841 16.166 12.256 16.166 13.9997V17.1038C16.166 17.9115 16.166 18.3154 15.9921 18.6158C15.8799 18.8096 15.7194 18.9707 15.5263 19.0833C15.2269 19.2578 14.8244 19.2578 14.0195 19.2578H10.9108Z" fill="white"></path> <path d="M9.18291 6.82031C10.9312 6.82031 11.8053 6.82032 12.1825 7.19357C12.4202 7.42879 12.5539 7.74626 12.5547 8.07732C12.5559 8.60269 11.9362 9.20704 10.6969 10.4157L7.58825 13.4476C6.35648 14.6489 5.7406 15.2496 5.20588 15.2466C4.86885 15.2448 4.54605 15.1133 4.30701 14.8804C3.92773 14.5109 3.92773 13.6593 3.92773 11.9561V8.92428C3.92773 8.13531 3.92773 7.74082 4.10162 7.44739C4.21379 7.25809 4.37436 7.10071 4.56748 6.99075C4.86685 6.82031 5.26932 6.82031 6.07424 6.82031H9.18291Z" fill="white"></path> <path d="M26.7676 17.4601L34.1946 8.82547H27.0539V6.84375H36.9506V8.61315L29.5236 17.2478H37.0222V19.2295H26.7676V17.4601Z" fill="#0169ED"></path> <path d="M40.957 6.84375H43.1046V19.2295H40.957V6.84375Z" fill="#0169ED"></path> <path d="M53.4095 19.4947C52.2164 19.4947 51.1426 19.2175 50.1882 18.6631C49.2337 18.1087 48.482 17.3419 47.9332 16.3629C47.3963 15.3838 47.1279 14.2809 47.1279 13.0541C47.1279 11.8037 47.4023 10.689 47.9511 9.70995C48.5119 8.73089 49.2814 7.96415 50.2597 7.40974C51.25 6.85533 52.3715 6.57812 53.6243 6.57812C54.6742 6.57812 55.6227 6.77866 56.4698 7.17972C57.3169 7.56899 58.0089 8.1293 58.5458 8.86065C59.0946 9.5802 59.4525 10.4118 59.6196 11.3555H57.4004C57.1737 10.4708 56.7263 9.77484 56.0582 9.26761C55.39 8.76039 54.5728 8.50677 53.6064 8.50677C52.7712 8.50677 52.0255 8.70141 51.3693 9.09067C50.725 9.47994 50.218 10.0225 49.8481 10.7185C49.4902 11.4027 49.3112 12.1871 49.3112 13.0718C49.3112 13.9683 49.4962 14.7645 49.866 15.4605C50.2359 16.1564 50.7489 16.6991 51.4051 17.0883C52.0732 17.4776 52.8249 17.6722 53.6601 17.6722C54.71 17.6722 55.6108 17.3773 56.3624 16.7875C57.126 16.1859 57.6092 15.4015 57.812 14.4342H53.7316V12.6648H59.7091V19.2293H57.8836V17.4599C57.3825 18.1087 56.7502 18.61 55.9866 18.9639C55.2349 19.3178 54.3759 19.4947 53.4095 19.4947Z" fill="#0169ED"></path> <path d="M64.2217 6.84375H67.8009L71.4876 16.7877L75.1564 6.84375H78.682V19.2295H76.5881V8.56006L72.6867 19.2295H70.217L66.3155 8.56006V19.2295H64.2217V6.84375Z" fill="#0169ED"></path> <path d="M88.6146 19.4949C87.4931 19.4949 86.5088 19.2649 85.6617 18.8048C84.8146 18.333 84.1584 17.6724 83.6931 16.8231C83.2278 15.9738 82.9951 14.9829 82.9951 13.8505V6.84375H85.1427V13.8151C85.1427 14.9711 85.4469 15.8794 86.0554 16.54C86.6758 17.1888 87.5289 17.5132 88.6146 17.5132C89.7003 17.5132 90.5474 17.1888 91.1559 16.54C91.7763 15.8794 92.0865 14.9711 92.0865 13.8151V6.84375H94.2341V13.8505C94.2341 14.9829 94.0014 15.9738 93.5361 16.8231C93.0827 17.6724 92.4325 18.333 91.5854 18.8048C90.7383 19.2649 89.748 19.4949 88.6146 19.4949Z" fill="#0169ED"></path> <path d="M98.5469 6.84375H100.82L107.638 16.1684V6.84375H109.642V19.2295H107.388L100.605 9.88711V19.2295H98.5469V13.0366V6.84375Z" fill="#0169ED"></path> <path d="M118.06 6.84375C119.408 6.84375 120.602 7.10326 121.64 7.62229C122.678 8.12951 123.477 8.85496 124.038 9.79864C124.61 10.7305 124.897 11.8099 124.897 13.0366C124.897 14.2516 124.61 15.3309 124.038 16.2746C123.477 17.2065 122.678 17.9319 121.64 18.4509C120.602 18.97 119.408 19.2295 118.06 19.2295H114.069V13.0366V6.84375H118.06ZM118.06 17.2478C119.003 17.2478 119.826 17.0767 120.53 16.7346C121.234 16.3926 121.771 15.903 122.141 15.266C122.522 14.6291 122.713 13.8859 122.713 13.0366C122.713 12.1873 122.522 11.4442 122.141 10.8072C121.771 10.1702 121.234 9.68068 120.53 9.3386C119.826 8.99652 119.003 8.82547 118.06 8.82547H116.217V17.2478H118.06Z" fill="#0169ED"></path> <path d="M129.858 19.3886C129.477 19.3886 129.155 19.2589 128.892 18.9994C128.641 18.7399 128.516 18.4214 128.516 18.0439C128.516 17.6664 128.647 17.3538 128.91 17.1061C129.172 16.8466 129.489 16.7168 129.858 16.7168C130.24 16.7168 130.556 16.8466 130.807 17.1061C131.069 17.3538 131.201 17.6664 131.201 18.0439C131.201 18.4214 131.069 18.7399 130.807 18.9994C130.556 19.2589 130.24 19.3886 129.858 19.3886Z" fill="#0169ED"></path> <path d="M140.784 19.4947C139.555 19.4947 138.44 19.2175 137.438 18.6631C136.447 18.0969 135.666 17.3242 135.093 16.3452C134.533 15.3543 134.252 14.2514 134.252 13.0364C134.252 11.8214 134.533 10.7244 135.093 9.74534C135.666 8.75448 136.447 7.98185 137.438 7.42744C138.44 6.86124 139.555 6.57812 140.784 6.57812C142.013 6.57812 143.123 6.86124 144.113 7.42744C145.115 7.98185 145.897 8.75448 146.458 9.74534C147.03 10.7244 147.317 11.8214 147.317 13.0364C147.317 14.2514 147.03 15.3543 146.458 16.3452C145.897 17.3242 145.115 18.0969 144.113 18.6631C143.123 19.2175 142.013 19.4947 140.784 19.4947ZM140.784 17.513C141.608 17.513 142.347 17.3183 143.004 16.9291C143.672 16.5398 144.197 16.009 144.578 15.3366C144.96 14.6525 145.151 13.8857 145.151 13.0364C145.151 12.1871 144.96 11.4263 144.578 10.7539C144.197 10.0697 143.672 9.53302 143.004 9.14375C142.347 8.75449 141.608 8.55985 140.784 8.55985C139.961 8.55985 139.215 8.75449 138.547 9.14375C137.891 9.53302 137.372 10.0697 136.99 10.7539C136.62 11.4263 136.436 12.1871 136.436 13.0364C136.436 13.8857 136.62 14.6525 136.99 15.3366C137.372 16.009 137.891 16.5398 138.547 16.9291C139.215 17.3183 139.961 17.513 140.784 17.513Z" fill="#0169ED"></path> <path d="M151.34 6.84375H153.613L160.432 16.1684V6.84375H162.436V19.2295H160.181L153.399 9.88711V14.5583V19.2295H151.34V6.84375Z" fill="#0169ED"></path> <path d="M166.863 6.84375H169.011V17.2124H175.453V19.2295H166.863V6.84375Z" fill="#0169ED"></path> <path d="M178.832 6.84375H180.979V19.2295H178.832V6.84375Z" fill="#0169ED"></path> <path d="M185.407 6.84375H187.68L194.498 16.1684V6.84375H196.502V19.2295H194.248L187.465 9.88711V14.5583V19.2295H185.407V6.84375Z" fill="#0169ED"></path> <path d="M200.929 6.84375H208.709V8.71931H203.041V12.0989H207.228V13.9744H203.041V17.3539H209V19.2295H200.929V6.84375Z" fill="#0169ED"></path> </g> <defs> <linearGradient id="paint0_linear_2127_69" x1="10.0141" y1="21.3356" x2="6.84934e-07" y2="-2.35964" gradientUnits="userSpaceOnUse"> <stop stop-color="#0062DF"></stop> <stop offset="0.808174" stop-color="#01A4FF"></stop> </linearGradient> <clipPath id="clip0_2127_69"> <rect width="209" height="23" fill="white"></rect> </clipPath> </defs> </svg> 