<svg width="186" height="227" viewBox="0 0 186 227" fill="none" xmlns="http://www.w3.org/2000/svg">
<path d="M1.9375 83.3125C1.9375 103.867 10.1027 123.579 24.6367 138.113C39.1708 152.647 58.8832 160.812 79.4375 160.812C99.9918 160.812 119.704 152.647 134.238 138.113C148.772 123.579 156.938 103.867 156.938 83.3125C156.938 62.7582 148.772 43.0458 134.238 28.5117C119.704 13.9777 99.9918 5.8125 79.4375 5.8125C58.8832 5.8125 39.1708 13.9777 24.6367 28.5117C10.1027 43.0458 1.9375 62.7582 1.9375 83.3125Z" fill="#FFE500"/>
<path d="M79.4375 5.8125C64.1095 5.8125 49.1257 10.3578 36.3808 18.8736C23.636 27.3894 13.7027 39.4933 7.83687 53.6545C1.97108 67.8158 0.436321 83.3985 3.42668 98.432C6.41703 113.466 13.7982 127.275 24.6368 138.113C35.4753 148.952 49.2845 156.333 64.318 159.323C79.3516 162.314 94.9342 160.779 109.096 154.913C123.257 149.047 135.361 139.114 143.876 126.369C152.392 113.624 156.938 98.6405 156.938 83.3125C156.938 62.7582 148.772 43.0458 134.238 28.5117C119.704 13.9777 99.9918 5.8125 79.4375 5.8125ZM79.4375 149.188C65.4507 149.188 51.7779 145.04 40.1483 137.269C28.5187 129.499 19.4545 118.454 14.1019 105.532C8.74939 92.6095 7.34893 78.3903 10.0776 64.6722C12.8063 50.9541 19.5416 38.3532 29.4318 28.463C39.322 18.5728 51.9229 11.8375 65.641 9.10884C79.3591 6.38014 93.5783 7.78061 106.5 13.1331C119.423 18.4857 130.467 27.5499 138.238 39.1795C146.009 50.8092 150.156 64.4819 150.156 78.4688C150.156 97.2245 142.706 115.212 129.443 128.474C116.181 141.737 98.1933 149.188 79.4375 149.188Z" fill="#EBCB00"/>
<path d="M56.1875 21.3125C56.1875 22.0758 56.7889 22.8316 57.9573 23.5368C59.1257 24.2421 60.8383 24.8828 62.9973 25.4226C65.1562 25.9623 67.7193 26.3904 70.5401 26.6826C73.3609 26.9747 76.3843 27.125 79.4375 27.125C82.4907 27.125 85.5141 26.9747 88.3349 26.6826C91.1557 26.3904 93.7188 25.9623 95.8777 25.4226C98.0367 24.8828 99.7493 24.2421 100.918 23.5368C102.086 22.8316 102.688 22.0758 102.688 21.3125C102.688 20.5492 102.086 19.7934 100.918 19.0882C99.7493 18.3829 98.0367 17.7422 95.8777 17.2024C93.7188 16.6627 91.1557 16.2346 88.3349 15.9424C85.5141 15.6503 82.4907 15.5 79.4375 15.5C76.3843 15.5 73.3609 15.6503 70.5401 15.9424C67.7193 16.2346 65.1562 16.6627 62.9973 17.2024C60.8383 17.7422 59.1257 18.3829 57.9573 19.0882C56.7889 19.7934 56.1875 20.5492 56.1875 21.3125Z" fill="#FFF48C"/>
<path opacity="0.15" d="M17.4375 176.312C17.4375 177.854 23.9696 179.333 35.5969 180.423C47.2241 181.513 62.9941 182.125 79.4375 182.125C95.8809 182.125 111.651 181.513 123.278 180.423C134.905 179.333 141.438 177.854 141.438 176.312C141.438 174.771 134.905 173.292 123.278 172.202C111.651 171.112 95.8809 170.5 79.4375 170.5C62.9941 170.5 47.2241 171.112 35.5969 172.202C23.9696 173.292 17.4375 174.771 17.4375 176.312Z" fill="#45413C"/>
<path d="M1.9375 83.3125C1.9375 103.867 10.1027 123.579 24.6367 138.113C39.1708 152.647 58.8832 160.812 79.4375 160.812C99.9918 160.812 119.704 152.647 134.238 138.113C148.772 123.579 156.937 103.867 156.938 83.3125C156.937 62.7582 148.772 43.0458 134.238 28.5117C119.704 13.9777 99.9918 5.8125 79.4375 5.8125C58.8832 5.8125 39.1708 13.9777 24.6367 28.5117C10.1027 43.0458 1.9375 62.7582 1.9375 83.3125V83.3125Z" stroke="#45413C" stroke-width="3.875" stroke-linecap="round" stroke-linejoin="round"/>
<path d="M135.625 102.688C135.625 105.904 131.285 108.5 125.938 108.5C120.59 108.5 116.25 105.904 116.25 102.688C116.25 99.4713 120.59 96.875 125.938 96.875C131.285 96.875 135.625 99.4713 135.625 102.688Z" fill="#FFAA54"/>
<path d="M23.25 102.688C23.25 105.904 27.59 108.5 32.9375 108.5C38.285 108.5 42.625 105.904 42.625 102.688C42.625 99.4713 38.285 96.875 32.9375 96.875C27.59 96.875 23.25 99.4713 23.25 102.688Z" fill="#FFAA54"/>
<path d="M25.1875 88.1562C25.1875 86.3578 25.902 84.6329 27.1737 83.3612C28.4454 82.0895 30.1703 81.375 31.9688 81.375C33.7672 81.375 35.4921 82.0895 36.7638 83.3612C38.0356 84.6329 38.75 86.3578 38.75 88.1562" stroke="#45413C" stroke-width="3.875" stroke-linecap="round" stroke-linejoin="round"/>
<path d="M120.125 88.1562C120.125 86.3578 120.839 84.6329 122.111 83.3612C123.383 82.0895 125.108 81.375 126.906 81.375C128.705 81.375 130.43 82.0895 131.701 83.3612C132.973 84.6329 133.688 86.3578 133.688 88.1562" stroke="#45413C" stroke-width="3.875" stroke-linecap="round" stroke-linejoin="round"/>
<path d="M165.346 118.846L182.938 112.956C183.262 112.841 183.542 112.628 183.74 112.347C183.938 112.066 184.045 111.731 184.045 111.387C184.045 111.043 183.938 110.708 183.74 110.427C183.542 110.146 183.262 109.933 182.938 109.817L168.485 105.012C167.502 104.679 166.611 104.12 165.885 103.38C165.158 102.639 164.615 101.738 164.3 100.75L159.495 86.2962C159.376 85.9692 159.16 85.6862 158.876 85.4854C158.592 85.2845 158.254 85.1753 157.906 85.1724C157.562 85.1719 157.227 85.2804 156.948 85.4823C156.67 85.6842 156.462 85.9691 156.356 86.2962L151.512 100.75C151.189 101.747 150.635 102.653 149.894 103.394C149.153 104.135 148.247 104.69 147.25 105.012L132.796 109.817C132.472 109.933 132.192 110.146 131.994 110.427C131.796 110.708 131.689 111.043 131.689 111.387C131.689 111.731 131.796 112.066 131.994 112.347C132.192 112.628 132.472 112.841 132.796 112.956L147.25 117.8C148.224 118.125 149.109 118.673 149.835 119.399C150.562 120.126 151.109 121.011 151.435 121.985L156.278 136.439C156.385 136.766 156.592 137.051 156.871 137.253C157.149 137.454 157.484 137.563 157.828 137.562C158.176 137.56 158.515 137.45 158.799 137.249C159.083 137.049 159.299 136.766 159.417 136.439L165.346 118.846Z" fill="white" stroke="#45413C" stroke-width="3.875" stroke-linecap="round" stroke-linejoin="round"/>
<path d="M79.4368 141.632C115.087 141.632 119.853 126.752 117.761 114.507C117.311 112.677 116.476 110.964 115.31 109.483C114.144 108.003 112.675 106.789 111.002 105.923C109.328 105.057 107.489 104.559 105.607 104.462C103.725 104.365 101.844 104.672 100.091 105.362C93.4325 107.578 86.4538 108.678 79.4368 108.617C72.4198 108.678 65.441 107.578 58.783 105.362C57.0295 104.672 55.1487 104.365 53.2668 104.462C51.3849 104.559 49.5455 105.057 47.872 105.923C46.1985 106.789 44.7296 108.003 43.5638 109.483C42.3981 110.964 41.5624 112.677 41.113 114.507C39.0205 126.752 43.7868 141.632 79.4368 141.632Z" fill="white" stroke="#45413C" stroke-width="3.875" stroke-linecap="round" stroke-linejoin="round"/>
<path d="M118.11 117.335C112.446 119.922 106.445 121.696 100.285 122.605C93.3924 123.715 86.4189 124.247 79.4376 124.194C72.4563 124.247 65.4828 123.715 58.5901 122.605C52.4301 121.696 46.4293 119.922 40.7651 117.335" stroke="#45413C" stroke-width="3.875" stroke-linecap="round" stroke-linejoin="round"/>
<path d="M61.1482 106.136L58.5907 122.605L56.1494 138.453" stroke="#45413C" stroke-width="3.875" stroke-linecap="round" stroke-linejoin="round"/>
<path d="M79.4375 141.631V108.694" stroke="#45413C" stroke-width="3.875" stroke-linecap="round" stroke-linejoin="round"/>
<path d="M97.7661 106.136L100.285 122.605L102.726 138.453" stroke="#45413C" stroke-width="3.875" stroke-linecap="round" stroke-linejoin="round"/>
<path d="M52.8578 215.387H56.0805C55.9945 216.527 55.6781 217.539 55.1312 218.422C54.5844 219.297 53.8227 219.984 52.8461 220.484C51.8695 220.984 50.6859 221.234 49.2953 221.234C48.225 221.234 47.2602 221.047 46.4008 220.672C45.5492 220.289 44.8187 219.746 44.2094 219.043C43.6078 218.332 43.1469 217.48 42.8266 216.488C42.5062 215.488 42.3461 214.367 42.3461 213.125V211.824C42.3461 210.582 42.5102 209.461 42.8383 208.461C43.1664 207.461 43.6352 206.609 44.2445 205.906C44.8617 205.195 45.6 204.648 46.4594 204.266C47.3266 203.883 48.2953 203.691 49.3656 203.691C50.7562 203.691 51.932 203.949 52.893 204.465C53.8539 204.973 54.6 205.672 55.1312 206.562C55.6625 207.453 55.9828 208.477 56.0922 209.633H52.8695C52.807 208.914 52.6508 208.305 52.4008 207.805C52.1586 207.305 51.7914 206.926 51.2992 206.668C50.8148 206.402 50.1703 206.27 49.3656 206.27C48.7406 206.27 48.1898 206.387 47.7133 206.621C47.2445 206.855 46.8539 207.207 46.5414 207.676C46.2289 208.137 45.9945 208.715 45.8383 209.41C45.682 210.098 45.6039 210.895 45.6039 211.801V213.125C45.6039 213.992 45.6742 214.77 45.8148 215.457C45.9555 216.145 46.1742 216.727 46.4711 217.203C46.768 217.68 47.1508 218.043 47.6195 218.293C48.0883 218.543 48.6469 218.668 49.2953 218.668C50.0844 218.668 50.725 218.543 51.2172 218.293C51.7172 218.043 52.0961 217.676 52.3539 217.191C52.6195 216.707 52.7875 216.105 52.8578 215.387ZM63.257 219.594L66.6555 208.32H69.9719L64.8859 222.922C64.7687 223.234 64.6164 223.574 64.4289 223.941C64.2492 224.309 64.007 224.656 63.7023 224.984C63.3977 225.32 63.0148 225.594 62.5539 225.805C62.1008 226.016 61.55 226.121 60.9016 226.121C60.6203 226.121 60.3703 226.102 60.1516 226.062C59.9328 226.023 59.7023 225.973 59.4602 225.91V223.59C59.5383 223.598 59.6281 223.602 59.7297 223.602C59.8391 223.609 59.9328 223.613 60.0109 223.613C60.4641 223.613 60.8391 223.559 61.1359 223.449C61.4328 223.348 61.6711 223.18 61.8508 222.945C62.0383 222.719 62.1945 222.422 62.3195 222.055L63.257 219.594ZM61.5812 208.32L64.4523 217.66L64.9562 220.93L62.8234 221.316L58.2414 208.32H61.5812ZM81.1797 208.32V210.77H74.9805V208.32H81.1797ZM75.8008 208.32V221H72.6953V208.32H75.8008ZM83.5234 208.32V221H80.4062V208.32H83.5234ZM93.2312 221.234C92.2703 221.234 91.407 221.078 90.6414 220.766C89.8758 220.453 89.2234 220.02 88.6844 219.465C88.1531 218.902 87.743 218.25 87.4539 217.508C87.1727 216.758 87.032 215.953 87.032 215.094V214.625C87.032 213.648 87.1727 212.762 87.4539 211.965C87.7352 211.16 88.1336 210.469 88.6492 209.891C89.1648 209.312 89.782 208.867 90.5008 208.555C91.2195 208.242 92.0125 208.086 92.8797 208.086C93.7781 208.086 94.5711 208.238 95.2586 208.543C95.9461 208.84 96.5203 209.262 96.9812 209.809C97.4422 210.355 97.7898 211.012 98.0242 211.777C98.2586 212.535 98.3758 213.375 98.3758 214.297V215.598H88.4383V213.465H95.3289V213.23C95.3133 212.738 95.2195 212.289 95.0477 211.883C94.8758 211.469 94.6102 211.141 94.2508 210.898C93.8914 210.648 93.4266 210.523 92.8562 210.523C92.3953 210.523 91.993 210.625 91.6492 210.828C91.3133 211.023 91.032 211.305 90.8055 211.672C90.5867 212.031 90.4227 212.461 90.3133 212.961C90.2039 213.461 90.1492 214.016 90.1492 214.625V215.094C90.1492 215.625 90.2195 216.117 90.3602 216.57C90.5086 217.023 90.7234 217.418 91.0047 217.754C91.2937 218.082 91.6375 218.34 92.0359 218.527C92.4422 218.707 92.9031 218.797 93.4187 218.797C94.0672 218.797 94.6531 218.672 95.1766 218.422C95.7078 218.164 96.1687 217.785 96.5594 217.285L98.118 218.902C97.8523 219.293 97.493 219.668 97.0398 220.027C96.5945 220.387 96.0555 220.68 95.4227 220.906C94.7898 221.125 94.0594 221.234 93.2312 221.234ZM104.744 210.758V225.875H101.638V208.32H104.509L104.744 210.758ZM112.888 214.531V214.777C112.888 215.699 112.779 216.555 112.56 217.344C112.349 218.125 112.037 218.809 111.623 219.395C111.209 219.973 110.693 220.426 110.076 220.754C109.466 221.074 108.763 221.234 107.966 221.234C107.185 221.234 106.505 221.086 105.927 220.789C105.349 220.484 104.861 220.055 104.462 219.5C104.064 218.945 103.744 218.301 103.502 217.566C103.267 216.824 103.091 216.016 102.974 215.141V214.355C103.091 213.426 103.267 212.582 103.502 211.824C103.744 211.059 104.064 210.398 104.462 209.844C104.861 209.281 105.345 208.848 105.916 208.543C106.494 208.238 107.17 208.086 107.943 208.086C108.748 208.086 109.455 208.238 110.064 208.543C110.681 208.848 111.201 209.285 111.623 209.855C112.045 210.426 112.361 211.105 112.572 211.895C112.783 212.684 112.888 213.562 112.888 214.531ZM109.783 214.777V214.531C109.783 213.969 109.732 213.449 109.63 212.973C109.529 212.488 109.373 212.066 109.162 211.707C108.951 211.34 108.677 211.055 108.341 210.852C108.005 210.648 107.599 210.547 107.123 210.547C106.646 210.547 106.236 210.625 105.892 210.781C105.548 210.938 105.267 211.16 105.048 211.449C104.83 211.738 104.658 212.082 104.533 212.48C104.416 212.871 104.337 213.305 104.298 213.781V215.727C104.369 216.305 104.505 216.824 104.709 217.285C104.912 217.746 105.209 218.113 105.599 218.387C105.998 218.66 106.513 218.797 107.146 218.797C107.623 218.797 108.029 218.691 108.365 218.48C108.701 218.27 108.974 217.98 109.185 217.613C109.396 217.238 109.548 216.809 109.642 216.324C109.736 215.84 109.783 215.324 109.783 214.777Z" fill="#EBEAEC"/>
</svg>
