<svg width="186" height="226" viewBox="0 0 186 226" fill="none" xmlns="http://www.w3.org/2000/svg">
<path d="M15.5 83.3125C15.5 103.867 23.6652 123.579 38.1992 138.113C52.7333 152.647 72.4457 160.812 93 160.812C113.554 160.812 133.267 152.647 147.801 138.113C162.335 123.579 170.5 103.867 170.5 83.3125C170.5 62.7582 162.335 43.0458 147.801 28.5117C133.267 13.9777 113.554 5.8125 93 5.8125C72.4457 5.8125 52.7333 13.9777 38.1992 28.5117C23.6652 43.0458 15.5 62.7582 15.5 83.3125Z" fill="#80B996"/>
<path d="M93 5.8125C77.672 5.8125 62.6882 10.3578 49.9433 18.8736C37.1985 27.3894 27.2652 39.4933 21.3994 53.6545C15.5336 67.8158 13.9988 83.3985 16.9892 98.432C19.9795 113.466 27.3607 127.275 38.1993 138.113C49.0378 148.952 62.847 156.333 77.8805 159.323C92.9141 162.314 108.497 160.779 122.658 154.913C136.819 149.047 148.923 139.114 157.439 126.369C165.955 113.624 170.5 98.6405 170.5 83.3125C170.5 62.7582 162.335 43.0458 147.801 28.5117C133.267 13.9777 113.554 5.8125 93 5.8125ZM93 149.188C79.0132 149.188 65.3404 145.04 53.7108 137.269C42.0812 129.499 33.017 118.454 27.6644 105.532C22.3119 92.6095 20.9114 78.3903 23.6401 64.6722C26.3688 50.9541 33.1041 38.3532 42.9943 28.463C52.8845 18.5728 65.4854 11.8375 79.2035 9.10884C92.9216 6.38014 107.141 7.78061 120.063 13.1331C132.985 18.4857 144.03 27.5499 151.801 39.1795C159.571 50.8092 163.719 64.4819 163.719 78.4688C163.719 97.2245 156.268 115.212 143.006 128.474C129.743 141.737 111.756 149.188 93 149.188Z" fill="#6B9B7D"/>
<path opacity="0.15" d="M31 176.312C31 177.854 37.5321 179.333 49.1594 180.423C60.7866 181.513 76.5566 182.125 93 182.125C109.443 182.125 125.213 181.513 136.841 180.423C148.468 179.333 155 177.854 155 176.312C155 174.771 148.468 173.292 136.841 172.202C125.213 171.112 109.443 170.5 93 170.5C76.5566 170.5 60.7866 171.112 49.1594 172.202C37.5321 173.292 31 174.771 31 176.312Z" fill="#45413C"/>
<path d="M15.5 83.3125C15.5 103.867 23.6652 123.579 38.1992 138.113C52.7333 152.647 72.4457 160.812 93 160.812C113.554 160.812 133.267 152.647 147.801 138.113C162.335 123.579 170.5 103.867 170.5 83.3125C170.5 62.7582 162.335 43.0458 147.801 28.5117C133.267 13.9777 113.554 5.8125 93 5.8125C72.4457 5.8125 52.7333 13.9777 38.1992 28.5117C23.6652 43.0458 15.5 62.7582 15.5 83.3125V83.3125Z" stroke="#45413C" stroke-width="3.875" stroke-linecap="round" stroke-linejoin="round"/>
<path d="M112.375 114.235C106.64 118.067 99.8974 120.112 93 120.112C86.1026 120.112 79.3601 118.067 73.625 114.235" stroke="#45413C" stroke-width="3.875" stroke-linecap="round"/>
<path d="M56.1875 79.4375C56.1875 80.2039 55.9602 80.9531 55.5344 81.5903C55.1087 82.2276 54.5035 82.7242 53.7954 83.0175C53.0873 83.3108 52.3082 83.3876 51.5565 83.238C50.8049 83.0885 50.1144 82.7195 49.5725 82.1775C49.0305 81.6356 48.6615 80.9452 48.512 80.1935C48.3624 79.4418 48.4392 78.6627 48.7325 77.9546C49.0258 77.2465 49.5224 76.6413 50.1597 76.2156C50.7969 75.7898 51.5461 75.5625 52.3125 75.5625C53.3402 75.5625 54.3258 75.9708 55.0525 76.6975C55.7792 77.4242 56.1875 78.4098 56.1875 79.4375Z" fill="#45413C" stroke="#45413C" stroke-width="3.875" stroke-linecap="round" stroke-linejoin="round"/>
<path d="M129.812 79.4375C129.812 80.2039 130.04 80.9531 130.466 81.5903C130.891 82.2276 131.497 82.7242 132.205 83.0175C132.913 83.3108 133.692 83.3876 134.443 83.238C135.195 83.0885 135.886 82.7195 136.428 82.1775C136.969 81.6356 137.339 80.9452 137.488 80.1935C137.638 79.4418 137.561 78.6627 137.268 77.9546C136.974 77.2465 136.478 76.6413 135.84 76.2156C135.203 75.7898 134.454 75.5625 133.688 75.5625C132.66 75.5625 131.674 75.9708 130.947 76.6975C130.221 77.4242 129.812 78.4098 129.812 79.4375Z" fill="#45413C" stroke="#45413C" stroke-width="3.875" stroke-linecap="round" stroke-linejoin="round"/>
<path d="M149.188 102.688C149.188 105.904 144.847 108.5 139.5 108.5C134.153 108.5 129.812 105.904 129.812 102.688C129.812 99.4713 134.153 96.875 139.5 96.875C144.847 96.875 149.188 99.4713 149.188 102.688Z" fill="#FFAA54"/>
<path d="M36.8125 102.688C36.8125 105.904 41.1525 108.5 46.5 108.5C51.8475 108.5 56.1875 105.904 56.1875 102.688C56.1875 99.4713 51.8475 96.875 46.5 96.875C41.1525 96.875 36.8125 99.4713 36.8125 102.688Z" fill="#FFAA54"/>
<path d="M69.75 21.3125C69.75 22.8541 72.1995 24.3325 76.5598 25.4226C80.92 26.5126 86.8337 27.125 93 27.125C99.1663 27.125 105.08 26.5126 109.44 25.4226C113.8 24.3325 116.25 22.8541 116.25 21.3125C116.25 19.7709 113.8 18.2925 109.44 17.2024C105.08 16.1124 99.1663 15.5 93 15.5C86.8337 15.5 80.92 16.1124 76.5598 17.2024C72.1995 18.2925 69.75 19.7709 69.75 21.3125Z" fill="#9ADCB3"/>
<path d="M49.1992 203.938L52.6094 210.02L56.0312 203.938H59.7344L54.6719 212.398L59.8633 221H56.125L52.6094 214.801L49.1055 221H45.3555L50.5469 212.398L45.4844 203.938H49.1992ZM62.0008 214.789V214.543C62.0008 213.613 62.1336 212.758 62.3992 211.977C62.6648 211.188 63.0516 210.504 63.5594 209.926C64.0672 209.348 64.6883 208.898 65.4227 208.578C66.157 208.25 66.993 208.086 67.9305 208.086C68.8836 208.086 69.7273 208.25 70.4617 208.578C71.2039 208.898 71.8289 209.348 72.3367 209.926C72.8445 210.504 73.2313 211.188 73.4969 211.977C73.7625 212.758 73.8953 213.613 73.8953 214.543V214.789C73.8953 215.711 73.7625 216.566 73.4969 217.355C73.2313 218.137 72.8445 218.82 72.3367 219.406C71.8289 219.984 71.2078 220.434 70.4734 220.754C69.7391 221.074 68.8992 221.234 67.9539 221.234C67.0164 221.234 66.1766 221.074 65.4344 220.754C64.6922 220.434 64.0672 219.984 63.5594 219.406C63.0516 218.82 62.6648 218.137 62.3992 217.355C62.1336 216.566 62.0008 215.711 62.0008 214.789ZM65.0945 214.543V214.789C65.0945 215.344 65.1492 215.863 65.2586 216.348C65.368 216.832 65.5359 217.258 65.7625 217.625C65.9891 217.992 66.282 218.281 66.6414 218.492C67.0086 218.695 67.4461 218.797 67.9539 218.797C68.4539 218.797 68.8836 218.695 69.243 218.492C69.6023 218.281 69.8953 217.992 70.1219 217.625C70.3563 217.258 70.5281 216.832 70.6375 216.348C70.7469 215.863 70.8016 215.344 70.8016 214.789V214.543C70.8016 213.996 70.7469 213.484 70.6375 213.008C70.5281 212.523 70.3563 212.098 70.1219 211.73C69.8953 211.355 69.5984 211.062 69.2313 210.852C68.8719 210.633 68.4383 210.523 67.9305 210.523C67.4305 210.523 67.0008 210.633 66.6414 210.852C66.282 211.062 65.9891 211.355 65.7625 211.73C65.5359 212.098 65.368 212.523 65.2586 213.008C65.1492 213.484 65.0945 213.996 65.0945 214.543ZM80.4391 210.758V225.875H77.3336V208.32H80.2047L80.4391 210.758ZM88.5836 214.531V214.777C88.5836 215.699 88.4742 216.555 88.2555 217.344C88.0445 218.125 87.732 218.809 87.318 219.395C86.9039 219.973 86.3883 220.426 85.7711 220.754C85.1617 221.074 84.4586 221.234 83.6617 221.234C82.8805 221.234 82.2008 221.086 81.6227 220.789C81.0445 220.484 80.5562 220.055 80.1578 219.5C79.7594 218.945 79.4391 218.301 79.1969 217.566C78.9625 216.824 78.7867 216.016 78.6695 215.141V214.355C78.7867 213.426 78.9625 212.582 79.1969 211.824C79.4391 211.059 79.7594 210.398 80.1578 209.844C80.5562 209.281 81.0406 208.848 81.6109 208.543C82.1891 208.238 82.8648 208.086 83.6383 208.086C84.443 208.086 85.15 208.238 85.7594 208.543C86.3766 208.848 86.8961 209.285 87.318 209.855C87.7398 210.426 88.0562 211.105 88.2672 211.895C88.4781 212.684 88.5836 213.562 88.5836 214.531ZM85.4781 214.777V214.531C85.4781 213.969 85.4273 213.449 85.3258 212.973C85.2242 212.488 85.068 212.066 84.857 211.707C84.6461 211.34 84.3727 211.055 84.0367 210.852C83.7008 210.648 83.2945 210.547 82.818 210.547C82.3414 210.547 81.9312 210.625 81.5875 210.781C81.2437 210.938 80.9625 211.16 80.7437 211.449C80.525 211.738 80.3531 212.082 80.2281 212.48C80.1109 212.871 80.0328 213.305 79.9937 213.781V215.727C80.0641 216.305 80.2008 216.824 80.4039 217.285C80.607 217.746 80.9039 218.113 81.2945 218.387C81.693 218.66 82.2086 218.797 82.8414 218.797C83.318 218.797 83.7242 218.691 84.0602 218.48C84.3961 218.27 84.6695 217.98 84.8805 217.613C85.0914 217.238 85.2437 216.809 85.3375 216.324C85.4312 215.84 85.4781 215.324 85.4781 214.777ZM91.4945 214.789V214.543C91.4945 213.613 91.6273 212.758 91.893 211.977C92.1586 211.188 92.5453 210.504 93.0531 209.926C93.5609 209.348 94.182 208.898 94.9164 208.578C95.6508 208.25 96.4867 208.086 97.4242 208.086C98.3773 208.086 99.2211 208.25 99.9555 208.578C100.698 208.898 101.323 209.348 101.83 209.926C102.338 210.504 102.725 211.188 102.991 211.977C103.256 212.758 103.389 213.613 103.389 214.543V214.789C103.389 215.711 103.256 216.566 102.991 217.355C102.725 218.137 102.338 218.82 101.83 219.406C101.323 219.984 100.702 220.434 99.9672 220.754C99.2328 221.074 98.393 221.234 97.4477 221.234C96.5102 221.234 95.6703 221.074 94.9281 220.754C94.1859 220.434 93.5609 219.984 93.0531 219.406C92.5453 218.82 92.1586 218.137 91.893 217.355C91.6273 216.566 91.4945 215.711 91.4945 214.789ZM94.5883 214.543V214.789C94.5883 215.344 94.643 215.863 94.7523 216.348C94.8617 216.832 95.0297 217.258 95.2562 217.625C95.4828 217.992 95.7758 218.281 96.1352 218.492C96.5023 218.695 96.9398 218.797 97.4477 218.797C97.9477 218.797 98.3773 218.695 98.7367 218.492C99.0961 218.281 99.3891 217.992 99.6156 217.625C99.85 217.258 100.022 216.832 100.131 216.348C100.241 215.863 100.295 215.344 100.295 214.789V214.543C100.295 213.996 100.241 213.484 100.131 213.008C100.022 212.523 99.85 212.098 99.6156 211.73C99.3891 211.355 99.0922 211.062 98.725 210.852C98.3656 210.633 97.932 210.523 97.4242 210.523C96.9242 210.523 96.4945 210.633 96.1352 210.852C95.7758 211.062 95.4828 211.355 95.2562 211.73C95.0297 212.098 94.8617 212.523 94.7523 213.008C94.643 213.484 94.5883 213.996 94.5883 214.543ZM106.862 208.32H109.968V218.562H113.73V208.32H116.847V218.562H120.609V208.32H123.702V221H106.862V208.32ZM127.246 214.789V214.543C127.246 213.613 127.379 212.758 127.645 211.977C127.91 211.188 128.297 210.504 128.805 209.926C129.312 209.348 129.934 208.898 130.668 208.578C131.402 208.25 132.238 208.086 133.176 208.086C134.129 208.086 134.973 208.25 135.707 208.578C136.449 208.898 137.074 209.348 137.582 209.926C138.09 210.504 138.477 211.188 138.742 211.977C139.008 212.758 139.141 213.613 139.141 214.543V214.789C139.141 215.711 139.008 216.566 138.742 217.355C138.477 218.137 138.09 218.82 137.582 219.406C137.074 219.984 136.453 220.434 135.719 220.754C134.984 221.074 134.145 221.234 133.199 221.234C132.262 221.234 131.422 221.074 130.68 220.754C129.938 220.434 129.312 219.984 128.805 219.406C128.297 218.82 127.91 218.137 127.645 217.355C127.379 216.566 127.246 215.711 127.246 214.789ZM130.34 214.543V214.789C130.34 215.344 130.395 215.863 130.504 216.348C130.613 216.832 130.781 217.258 131.008 217.625C131.234 217.992 131.527 218.281 131.887 218.492C132.254 218.695 132.691 218.797 133.199 218.797C133.699 218.797 134.129 218.695 134.488 218.492C134.848 218.281 135.141 217.992 135.367 217.625C135.602 217.258 135.773 216.832 135.883 216.348C135.992 215.863 136.047 215.344 136.047 214.789V214.543C136.047 213.996 135.992 213.484 135.883 213.008C135.773 212.523 135.602 212.098 135.367 211.73C135.141 211.355 134.844 211.062 134.477 210.852C134.117 210.633 133.684 210.523 133.176 210.523C132.676 210.523 132.246 210.633 131.887 210.852C131.527 211.062 131.234 211.355 131.008 211.73C130.781 212.098 130.613 212.523 130.504 213.008C130.395 213.484 130.34 213.996 130.34 214.543Z" fill="#EBEAEC"/>
</svg>
