<svg width="186" height="226" viewBox="0 0 186 226" fill="none" xmlns="http://www.w3.org/2000/svg">
<path d="M15.5 83.3125C15.5 103.867 23.6652 123.579 38.1992 138.113C52.7333 152.647 72.4457 160.812 93 160.812C113.554 160.812 133.267 152.647 147.801 138.113C162.335 123.579 170.5 103.867 170.5 83.3125C170.5 62.7582 162.335 43.0458 147.801 28.5117C133.267 13.9777 113.554 5.8125 93 5.8125C72.4457 5.8125 52.7333 13.9777 38.1992 28.5117C23.6652 43.0458 15.5 62.7582 15.5 83.3125Z" fill="#EBEAEC"/>
<path d="M93 5.8125C77.672 5.8125 62.6882 10.3578 49.9433 18.8736C37.1985 27.3894 27.2652 39.4933 21.3994 53.6545C15.5336 67.8158 13.9988 83.3985 16.9892 98.432C19.9795 113.466 27.3607 127.275 38.1993 138.113C49.0378 148.952 62.847 156.333 77.8805 159.323C92.9141 162.314 108.497 160.779 122.658 154.913C136.819 149.047 148.923 139.114 157.439 126.369C165.955 113.624 170.5 98.6405 170.5 83.3125C170.5 62.7582 162.335 43.0458 147.801 28.5117C133.267 13.9777 113.554 5.8125 93 5.8125ZM93 149.188C79.0132 149.188 65.3404 145.04 53.7108 137.269C42.0812 129.499 33.017 118.454 27.6644 105.532C22.3119 92.6095 20.9114 78.3903 23.6401 64.6722C26.3688 50.9541 33.1041 38.3532 42.9943 28.463C52.8845 18.5728 65.4854 11.8375 79.2035 9.10884C92.9216 6.38014 107.141 7.78061 120.063 13.1331C132.985 18.4857 144.03 27.5499 151.801 39.1795C159.571 50.8092 163.719 64.4819 163.719 78.4688C163.719 97.2245 156.268 115.212 143.006 128.474C129.743 141.737 111.756 149.188 93 149.188Z" fill="#C7C7C7"/>
<path d="M69.75 21.3125C69.75 22.8541 72.1995 24.3325 76.5598 25.4226C80.92 26.5126 86.8337 27.125 93 27.125C99.1663 27.125 105.08 26.5126 109.44 25.4226C113.8 24.3325 116.25 22.8541 116.25 21.3125C116.25 19.7709 113.8 18.2925 109.44 17.2024C105.08 16.1124 99.1663 15.5 93 15.5C86.8337 15.5 80.92 16.1124 76.5598 17.2024C72.1995 18.2925 69.75 19.7709 69.75 21.3125Z" fill="#F7F7F7"/>
<path opacity="0.15" d="M31 176.312C31 177.854 37.5321 179.333 49.1594 180.423C60.7866 181.513 76.5566 182.125 93 182.125C109.443 182.125 125.213 181.513 136.841 180.423C148.468 179.333 155 177.854 155 176.312C155 174.771 148.468 173.292 136.841 172.202C125.213 171.112 109.443 170.5 93 170.5C76.5566 170.5 60.7866 171.112 49.1594 172.202C37.5321 173.292 31 174.771 31 176.312Z" fill="#45413C"/>
<path d="M15.5 83.3125C15.5 103.867 23.6652 123.579 38.1992 138.113C52.7333 152.647 72.4457 160.812 93 160.812C113.554 160.812 133.267 152.647 147.801 138.113C162.335 123.579 170.5 103.867 170.5 83.3125C170.5 62.7582 162.335 43.0458 147.801 28.5117C133.267 13.9777 113.554 5.8125 93 5.8125C72.4457 5.8125 52.7333 13.9777 38.1992 28.5117C23.6652 43.0458 15.5 62.7582 15.5 83.3125V83.3125Z" stroke="#45413C" stroke-width="3.875" stroke-linecap="round" stroke-linejoin="round"/>
<path d="M149.188 102.688C149.188 105.904 144.847 108.5 139.5 108.5C134.153 108.5 129.812 105.904 129.812 102.688C129.812 99.4713 134.153 96.875 139.5 96.875C144.847 96.875 149.188 99.4713 149.188 102.688Z" fill="#FFAA54"/>
<path d="M36.8125 102.688C36.8125 105.904 41.1525 108.5 46.5 108.5C51.8475 108.5 56.1875 105.904 56.1875 102.688C56.1875 99.4713 51.8475 96.875 46.5 96.875C41.1525 96.875 36.8125 99.4713 36.8125 102.688Z" fill="#FFAA54"/>
<path d="M73.625 120.125H112.375" stroke="#45413C" stroke-width="3.875" stroke-linecap="round" stroke-linejoin="round"/>
<path d="M63.9375 85.25H42.625" stroke="#45413C" stroke-width="3.875" stroke-linecap="round" stroke-linejoin="round"/>
<path d="M143.375 85.25H122.062" stroke="#45413C" stroke-width="3.875" stroke-linecap="round" stroke-linejoin="round"/>
<path d="M48.1086 203.938V221H44.8977V203.938H48.1086ZM53.4055 203.938V206.48H39.6594V203.938H53.4055ZM61.8359 218.305V212.457C61.8359 212.027 61.7617 211.656 61.6133 211.344C61.4648 211.031 61.2383 210.789 60.9336 210.617C60.6289 210.445 60.2422 210.359 59.7734 210.359C59.3594 210.359 58.9961 210.43 58.6836 210.57C58.3789 210.711 58.1445 210.91 57.9805 211.168C57.8164 211.418 57.7344 211.707 57.7344 212.035H54.6289C54.6289 211.512 54.7539 211.016 55.0039 210.547C55.2539 210.07 55.6094 209.648 56.0703 209.281C56.5391 208.906 57.0977 208.613 57.7461 208.402C58.4023 208.191 59.1367 208.086 59.9492 208.086C60.9102 208.086 61.7656 208.25 62.5156 208.578C63.2734 208.898 63.8672 209.383 64.2969 210.031C64.7344 210.68 64.9531 211.496 64.9531 212.48V218.012C64.9531 218.645 64.9922 219.188 65.0703 219.641C65.1562 220.086 65.2812 220.473 65.4453 220.801V221H62.293C62.1445 220.68 62.0312 220.273 61.9531 219.781C61.875 219.281 61.8359 218.789 61.8359 218.305ZM62.2695 213.277L62.293 215.117H60.3359C59.8516 215.117 59.4258 215.168 59.0586 215.27C58.6914 215.363 58.3906 215.504 58.1562 215.691C57.9219 215.871 57.7461 216.09 57.6289 216.348C57.5117 216.598 57.4531 216.883 57.4531 217.203C57.4531 217.516 57.5234 217.797 57.6641 218.047C57.8125 218.297 58.0234 218.496 58.2969 218.645C58.5781 218.785 58.9062 218.855 59.2812 218.855C59.8281 218.855 60.3047 218.746 60.7109 218.527C61.1172 218.301 61.4336 218.027 61.6602 217.707C61.8867 217.387 62.0078 217.082 62.0234 216.793L62.9141 218.129C62.8047 218.449 62.6406 218.789 62.4219 219.148C62.2031 219.508 61.9219 219.844 61.5781 220.156C61.2344 220.469 60.8203 220.727 60.3359 220.93C59.8516 221.133 59.2891 221.234 58.6484 221.234C57.8281 221.234 57.0937 221.07 56.4453 220.742C55.7969 220.414 55.2852 219.965 54.9102 219.395C54.5352 218.824 54.3477 218.176 54.3477 217.449C54.3477 216.777 54.4727 216.184 54.7227 215.668C54.9727 215.152 55.3437 214.719 55.8359 214.367C56.3281 214.008 56.9375 213.738 57.6641 213.559C58.3984 213.371 59.2383 213.277 60.1836 213.277H62.2695ZM72.2469 208.32V221H69.1531V208.32H72.2469ZM80.5086 208.32L74.9187 216.102H71.6258L71.2391 213.266H73.5242L76.6062 208.32H80.5086ZM76.7937 221L73.325 215.562L75.9031 213.945L80.907 221H76.7937ZM95.9047 218.797C96.3422 218.797 96.7328 218.711 97.0766 218.539C97.4203 218.367 97.6937 218.125 97.8969 217.812C98.1078 217.5 98.2211 217.137 98.2367 216.723H101.155C101.139 217.582 100.897 218.352 100.428 219.031C99.9594 219.711 99.3344 220.25 98.5531 220.648C97.7797 221.039 96.9125 221.234 95.9516 221.234C94.975 221.234 94.1234 221.07 93.3969 220.742C92.6703 220.414 92.0648 219.957 91.5805 219.371C91.1039 218.785 90.7445 218.105 90.5023 217.332C90.268 216.559 90.1508 215.73 90.1508 214.848V214.473C90.1508 213.59 90.268 212.762 90.5023 211.988C90.7445 211.215 91.1039 210.535 91.5805 209.949C92.0648 209.363 92.6703 208.906 93.3969 208.578C94.1234 208.25 94.9711 208.086 95.9398 208.086C96.9633 208.086 97.8617 208.285 98.6352 208.684C99.4164 209.082 100.026 209.645 100.463 210.371C100.909 211.098 101.139 211.953 101.155 212.938H98.2367C98.2211 212.484 98.1195 212.078 97.932 211.719C97.7445 211.359 97.4789 211.07 97.1352 210.852C96.7914 210.633 96.3734 210.523 95.8812 210.523C95.3578 210.523 94.9203 210.633 94.5687 210.852C94.225 211.07 93.9555 211.371 93.7602 211.754C93.5727 212.129 93.4398 212.551 93.3617 213.02C93.2914 213.48 93.2562 213.965 93.2562 214.473V214.848C93.2562 215.363 93.2914 215.855 93.3617 216.324C93.4398 216.793 93.5727 217.215 93.7602 217.59C93.9555 217.957 94.225 218.25 94.5687 218.469C94.9203 218.688 95.3656 218.797 95.9047 218.797ZM110.113 221.234C109.152 221.234 108.288 221.078 107.523 220.766C106.757 220.453 106.105 220.02 105.566 219.465C105.034 218.902 104.624 218.25 104.335 217.508C104.054 216.758 103.913 215.953 103.913 215.094V214.625C103.913 213.648 104.054 212.762 104.335 211.965C104.616 211.16 105.015 210.469 105.53 209.891C106.046 209.312 106.663 208.867 107.382 208.555C108.101 208.242 108.894 208.086 109.761 208.086C110.659 208.086 111.452 208.238 112.14 208.543C112.827 208.84 113.402 209.262 113.863 209.809C114.323 210.355 114.671 211.012 114.905 211.777C115.14 212.535 115.257 213.375 115.257 214.297V215.598H105.32V213.465H112.21V213.23C112.195 212.738 112.101 212.289 111.929 211.883C111.757 211.469 111.491 211.141 111.132 210.898C110.773 210.648 110.308 210.523 109.738 210.523C109.277 210.523 108.874 210.625 108.53 210.828C108.195 211.023 107.913 211.305 107.687 211.672C107.468 212.031 107.304 212.461 107.195 212.961C107.085 213.461 107.03 214.016 107.03 214.625V215.094C107.03 215.625 107.101 216.117 107.241 216.57C107.39 217.023 107.605 217.418 107.886 217.754C108.175 218.082 108.519 218.34 108.917 218.527C109.323 218.707 109.784 218.797 110.3 218.797C110.948 218.797 111.534 218.672 112.058 218.422C112.589 218.164 113.05 217.785 113.441 217.285L114.999 218.902C114.734 219.293 114.374 219.668 113.921 220.027C113.476 220.387 112.937 220.68 112.304 220.906C111.671 221.125 110.941 221.234 110.113 221.234ZM126.383 202.754H128.891C128.891 203.418 128.805 203.977 128.633 204.43C128.461 204.875 128.195 205.25 127.836 205.555C127.477 205.852 127.016 206.098 126.453 206.293C125.891 206.488 125.219 206.66 124.438 206.809C123.781 206.941 123.203 207.16 122.703 207.465C122.203 207.77 121.785 208.188 121.449 208.719C121.121 209.25 120.883 209.926 120.734 210.746C120.586 211.566 120.539 212.555 120.594 213.711V214.391L118.168 214.672V213.992C118.168 212.484 118.305 211.172 118.578 210.055C118.852 208.93 119.238 207.984 119.738 207.219C120.238 206.445 120.836 205.832 121.531 205.379C122.234 204.918 123.02 204.594 123.887 204.406C124.465 204.289 124.938 204.168 125.305 204.043C125.68 203.918 125.953 203.758 126.125 203.562C126.297 203.359 126.383 203.09 126.383 202.754ZM124.648 209.035C125.5 209.035 126.254 209.184 126.91 209.48C127.574 209.77 128.133 210.18 128.586 210.711C129.039 211.234 129.383 211.855 129.617 212.574C129.859 213.285 129.98 214.062 129.98 214.906V215.152C129.98 216.027 129.848 216.836 129.582 217.578C129.324 218.32 128.945 218.965 128.445 219.512C127.945 220.059 127.328 220.484 126.594 220.789C125.859 221.094 125.02 221.246 124.074 221.246C123.137 221.246 122.301 221.086 121.566 220.766C120.832 220.438 120.211 219.984 119.703 219.406C119.195 218.828 118.812 218.148 118.555 217.367C118.297 216.578 118.168 215.719 118.168 214.789V214.543C118.16 214.387 118.211 214.238 118.32 214.098C118.43 213.957 118.559 213.801 118.707 213.629C118.863 213.457 119.004 213.25 119.129 213.008C119.559 212.18 120.043 211.469 120.582 210.875C121.129 210.281 121.738 209.828 122.41 209.516C123.082 209.195 123.828 209.035 124.648 209.035ZM124.051 211.473C123.387 211.473 122.848 211.633 122.434 211.953C122.027 212.266 121.73 212.684 121.543 213.207C121.355 213.723 121.262 214.289 121.262 214.906V215.152C121.262 215.652 121.312 216.125 121.414 216.57C121.523 217.008 121.688 217.395 121.906 217.73C122.125 218.066 122.414 218.332 122.773 218.527C123.133 218.715 123.566 218.809 124.074 218.809C124.582 218.809 125.012 218.715 125.363 218.527C125.723 218.332 126.012 218.066 126.23 217.73C126.449 217.395 126.609 217.008 126.711 216.57C126.82 216.125 126.875 215.652 126.875 215.152V214.906C126.875 214.445 126.82 214.008 126.711 213.594C126.609 213.18 126.449 212.816 126.23 212.504C126.012 212.184 125.719 211.934 125.352 211.754C124.992 211.566 124.559 211.473 124.051 211.473ZM139.02 221.234C138.059 221.234 137.196 221.078 136.43 220.766C135.665 220.453 135.012 220.02 134.473 219.465C133.942 218.902 133.532 218.25 133.243 217.508C132.962 216.758 132.821 215.953 132.821 215.094V214.625C132.821 213.648 132.962 212.762 133.243 211.965C133.524 211.16 133.923 210.469 134.438 209.891C134.954 209.312 135.571 208.867 136.29 208.555C137.009 208.242 137.802 208.086 138.669 208.086C139.567 208.086 140.36 208.238 141.048 208.543C141.735 208.84 142.309 209.262 142.77 209.809C143.231 210.355 143.579 211.012 143.813 211.777C144.048 212.535 144.165 213.375 144.165 214.297V215.598H134.227V213.465H141.118V213.23C141.102 212.738 141.009 212.289 140.837 211.883C140.665 211.469 140.399 211.141 140.04 210.898C139.68 210.648 139.216 210.523 138.645 210.523C138.184 210.523 137.782 210.625 137.438 210.828C137.102 211.023 136.821 211.305 136.595 211.672C136.376 212.031 136.212 212.461 136.102 212.961C135.993 213.461 135.938 214.016 135.938 214.625V215.094C135.938 215.625 136.009 216.117 136.149 216.57C136.298 217.023 136.512 217.418 136.794 217.754C137.083 218.082 137.427 218.34 137.825 218.527C138.231 218.707 138.692 218.797 139.208 218.797C139.856 218.797 140.442 218.672 140.966 218.422C141.497 218.164 141.958 217.785 142.348 217.285L143.907 218.902C143.641 219.293 143.282 219.668 142.829 220.027C142.384 220.387 141.845 220.68 141.212 220.906C140.579 221.125 139.848 221.234 139.02 221.234Z" fill="#EBEAEC"/>
</svg>
