<svg width="186" height="226" viewBox="0 0 186 226" fill="none" xmlns="http://www.w3.org/2000/svg">
<path d="M16 83.5C16 104.054 24.1652 123.767 38.6992 138.301C53.2333 152.835 72.9457 161 93.5 161C114.054 161 133.767 152.835 148.301 138.301C162.835 123.767 171 104.054 171 83.5C171 62.9457 162.835 43.2333 148.301 28.6992C133.767 14.1652 114.054 6 93.5 6C72.9457 6 53.2333 14.1652 38.6992 28.6992C24.1652 43.2333 16 62.9457 16 83.5Z" fill="#E2AD9D"/>
<path d="M93 5.8125C77.672 5.8125 62.6882 10.3578 49.9433 18.8736C37.1985 27.3894 27.2652 39.4933 21.3994 53.6545C15.5336 67.8158 13.9988 83.3985 16.9892 98.432C19.9795 113.466 27.3607 127.275 38.1993 138.113C49.0378 148.952 62.847 156.333 77.8805 159.323C92.9141 162.314 108.497 160.779 122.658 154.913C136.819 149.047 148.923 139.114 157.439 126.369C165.955 113.624 170.5 98.6405 170.5 83.3125C170.5 62.7582 162.335 43.0458 147.801 28.5117C133.267 13.9777 113.554 5.8125 93 5.8125ZM93 149.188C79.0132 149.188 65.3404 145.04 53.7108 137.269C42.0812 129.499 33.017 118.454 27.6644 105.532C22.3119 92.6095 20.9114 78.3903 23.6401 64.6722C26.3688 50.9541 33.1041 38.3532 42.9943 28.463C52.8845 18.5728 65.4854 11.8375 79.2035 9.10884C92.9216 6.38014 107.141 7.78061 120.063 13.1331C132.985 18.4857 144.03 27.5499 151.801 39.1795C159.571 50.8092 163.719 64.4819 163.719 78.4688C163.719 97.2245 156.268 115.212 143.006 128.474C129.743 141.737 111.756 149.188 93 149.188Z" fill="#CA9D90"/>
<path d="M69.75 21.3125C69.75 22.8541 72.1995 24.3325 76.5598 25.4226C80.92 26.5126 86.8337 27.125 93 27.125C99.1663 27.125 105.08 26.5126 109.44 25.4226C113.8 24.3325 116.25 22.8541 116.25 21.3125C116.25 19.7709 113.8 18.2925 109.44 17.2024C105.08 16.1124 99.1663 15.5 93 15.5C86.8337 15.5 80.92 16.1124 76.5598 17.2024C72.1995 18.2925 69.75 19.7709 69.75 21.3125Z" fill="#F7C2B3"/>
<path d="M15.5 83.3125C15.5 103.867 23.6652 123.579 38.1992 138.113C52.7333 152.647 72.4457 160.812 93 160.812C113.554 160.812 133.267 152.647 147.801 138.113C162.335 123.579 170.5 103.867 170.5 83.3125C170.5 62.7582 162.335 43.0458 147.801 28.5117C133.267 13.9777 113.554 5.8125 93 5.8125C72.4457 5.8125 52.7333 13.9777 38.1992 28.5117C23.6652 43.0458 15.5 62.7582 15.5 83.3125V83.3125Z" stroke="#45413C" stroke-width="3.875" stroke-linecap="round" stroke-linejoin="round"/>
<path d="M73.625 122.063C79.3601 118.231 86.1026 116.186 93 116.186C99.8974 116.186 106.64 118.231 112.375 122.063" stroke="#45413C" stroke-width="3.875" stroke-linecap="round"/>
<path opacity="0.15" d="M31 176.312C31 177.854 37.5321 179.333 49.1594 180.423C60.7866 181.513 76.5566 182.125 93 182.125C109.443 182.125 125.213 181.513 136.841 180.423C148.468 179.333 155 177.854 155 176.312C155 174.771 148.468 173.292 136.841 172.202C125.213 171.112 109.443 170.5 93 170.5C76.5566 170.5 60.7866 171.112 49.1594 172.202C37.5321 173.292 31 174.771 31 176.312Z" fill="#45413C"/>
<path d="M58.125 83.3125C58.125 84.0789 57.8977 84.8281 57.4719 85.4653C57.0462 86.1026 56.441 86.5992 55.7329 86.8925C55.0248 87.1858 54.2457 87.2626 53.494 87.113C52.7424 86.9635 52.0519 86.5945 51.51 86.0525C50.968 85.5106 50.599 84.8202 50.4495 84.0685C50.2999 83.3168 50.3767 82.5377 50.67 81.8296C50.9633 81.1215 51.4599 80.5163 52.0972 80.0906C52.7344 79.6648 53.4836 79.4375 54.25 79.4375C55.2777 79.4375 56.2633 79.8458 56.99 80.5725C57.7167 81.2992 58.125 82.2848 58.125 83.3125Z" fill="#45413C" stroke="#45413C" stroke-width="3.875" stroke-linecap="round" stroke-linejoin="round"/>
<path d="M127.875 83.3125C127.875 84.0789 128.102 84.8281 128.528 85.4653C128.954 86.1026 129.559 86.5992 130.267 86.8925C130.975 87.1858 131.754 87.2626 132.506 87.113C133.258 86.9635 133.948 86.5945 134.49 86.0525C135.032 85.5106 135.401 84.8202 135.551 84.0685C135.7 83.3168 135.623 82.5377 135.33 81.8296C135.037 81.1215 134.54 80.5163 133.903 80.0906C133.266 79.6648 132.516 79.4375 131.75 79.4375C130.722 79.4375 129.737 79.8458 129.01 80.5725C128.283 81.2992 127.875 82.2848 127.875 83.3125Z" fill="#45413C" stroke="#45413C" stroke-width="3.875" stroke-linecap="round" stroke-linejoin="round"/>
<path d="M149.188 102.688C149.188 105.904 144.847 108.5 139.5 108.5C134.153 108.5 129.812 105.904 129.812 102.688C129.812 99.4713 134.153 96.875 139.5 96.875C144.847 96.875 149.188 99.4713 149.188 102.688Z" fill="#FFAA54"/>
<path d="M36.8125 102.688C36.8125 105.904 41.1525 108.5 46.5 108.5C51.8475 108.5 56.1875 105.904 56.1875 102.688C56.1875 99.4713 51.8475 96.875 46.5 96.875C41.1525 96.875 36.8125 99.4713 36.8125 102.688Z" fill="#FFAA54"/>
<path d="M70.7172 203.938V221H67.4945V206.48H60.2758V221H57.0531V203.938H70.7172ZM83.5187 208.32V210.77H77.3078V208.32H83.5187ZM85.8508 208.32V221H82.757V208.32H85.8508ZM76.5344 208.32H79.593L79.2531 214.648C79.1984 215.578 79.1008 216.395 78.9602 217.098C78.8195 217.793 78.632 218.391 78.3977 218.891C78.1633 219.383 77.8781 219.785 77.5422 220.098C77.2062 220.41 76.8156 220.641 76.3703 220.789C75.9328 220.93 75.4406 221 74.8937 221H73.9445L73.9094 218.504L74.3547 218.469C74.6281 218.445 74.8625 218.371 75.0578 218.246C75.2609 218.121 75.4328 217.941 75.5734 217.707C75.7219 217.473 75.843 217.172 75.9367 216.805C76.0383 216.43 76.1164 215.992 76.1711 215.492C76.2336 214.984 76.2766 214.398 76.3 213.734L76.5344 208.32ZM89.3359 214.789V214.543C89.3359 213.613 89.4688 212.758 89.7344 211.977C90 211.188 90.3867 210.504 90.8945 209.926C91.4023 209.348 92.0234 208.898 92.7578 208.578C93.4922 208.25 94.3281 208.086 95.2656 208.086C96.2188 208.086 97.0625 208.25 97.7969 208.578C98.5391 208.898 99.1641 209.348 99.6719 209.926C100.18 210.504 100.566 211.188 100.832 211.977C101.098 212.758 101.23 213.613 101.23 214.543V214.789C101.23 215.711 101.098 216.566 100.832 217.355C100.566 218.137 100.18 218.82 99.6719 219.406C99.1641 219.984 98.543 220.434 97.8086 220.754C97.0742 221.074 96.2344 221.234 95.2891 221.234C94.3516 221.234 93.5117 221.074 92.7695 220.754C92.0273 220.434 91.4023 219.984 90.8945 219.406C90.3867 218.82 90 218.137 89.7344 217.355C89.4688 216.566 89.3359 215.711 89.3359 214.789ZM92.4297 214.543V214.789C92.4297 215.344 92.4844 215.863 92.5938 216.348C92.7031 216.832 92.8711 217.258 93.0977 217.625C93.3242 217.992 93.6172 218.281 93.9766 218.492C94.3438 218.695 94.7812 218.797 95.2891 218.797C95.7891 218.797 96.2188 218.695 96.5781 218.492C96.9375 218.281 97.2305 217.992 97.457 217.625C97.6914 217.258 97.8633 216.832 97.9727 216.348C98.082 215.863 98.1367 215.344 98.1367 214.789V214.543C98.1367 213.996 98.082 213.484 97.9727 213.008C97.8633 212.523 97.6914 212.098 97.457 211.73C97.2305 211.355 96.9336 211.062 96.5664 210.852C96.207 210.633 95.7734 210.523 95.2656 210.523C94.7656 210.523 94.3359 210.633 93.9766 210.852C93.6172 211.062 93.3242 211.355 93.0977 211.73C92.8711 212.098 92.7031 212.523 92.5938 213.008C92.4844 213.484 92.4297 213.996 92.4297 214.543ZM106.848 208.32L109.11 212.352L111.407 208.32H114.77L111.044 214.531L114.923 221H111.559L109.134 216.77L106.696 221H103.333L107.2 214.531L103.497 208.32H106.848ZM116.861 214.789V214.543C116.861 213.613 116.994 212.758 117.259 211.977C117.525 211.188 117.912 210.504 118.42 209.926C118.927 209.348 119.548 208.898 120.283 208.578C121.017 208.25 121.853 208.086 122.791 208.086C123.744 208.086 124.587 208.25 125.322 208.578C126.064 208.898 126.689 209.348 127.197 209.926C127.705 210.504 128.091 211.188 128.357 211.977C128.623 212.758 128.755 213.613 128.755 214.543V214.789C128.755 215.711 128.623 216.566 128.357 217.355C128.091 218.137 127.705 218.82 127.197 219.406C126.689 219.984 126.068 220.434 125.334 220.754C124.599 221.074 123.759 221.234 122.814 221.234C121.877 221.234 121.037 221.074 120.295 220.754C119.552 220.434 118.927 219.984 118.42 219.406C117.912 218.82 117.525 218.137 117.259 217.355C116.994 216.566 116.861 215.711 116.861 214.789ZM119.955 214.543V214.789C119.955 215.344 120.009 215.863 120.119 216.348C120.228 216.832 120.396 217.258 120.623 217.625C120.849 217.992 121.142 218.281 121.502 218.492C121.869 218.695 122.306 218.797 122.814 218.797C123.314 218.797 123.744 218.695 124.103 218.492C124.462 218.281 124.755 217.992 124.982 217.625C125.216 217.258 125.388 216.832 125.498 216.348C125.607 215.863 125.662 215.344 125.662 214.789V214.543C125.662 213.996 125.607 213.484 125.498 213.008C125.388 212.523 125.216 212.098 124.982 211.73C124.755 211.355 124.459 211.062 124.091 210.852C123.732 210.633 123.298 210.523 122.791 210.523C122.291 210.523 121.861 210.633 121.502 210.852C121.142 211.062 120.849 211.355 120.623 211.73C120.396 212.098 120.228 212.523 120.119 213.008C120.009 213.484 119.955 213.996 119.955 214.543Z" fill="#EBEAEC"/>
</svg>
