<svg width="186" height="226" viewBox="0 0 186 226" fill="none" xmlns="http://www.w3.org/2000/svg">
<path d="M15.5 83.3125C15.5 103.867 23.6652 123.579 38.1992 138.113C52.7333 152.647 72.4457 160.812 93 160.812C113.554 160.812 133.267 152.647 147.801 138.113C162.335 123.579 170.5 103.867 170.5 83.3125C170.5 62.7582 162.335 43.0458 147.801 28.5117C133.267 13.9777 113.554 5.8125 93 5.8125C72.4457 5.8125 52.7333 13.9777 38.1992 28.5117C23.6652 43.0458 15.5 62.7582 15.5 83.3125Z" fill="#FF6242"/>
<path d="M93 5.8125C77.672 5.8125 62.6882 10.3578 49.9433 18.8736C37.1985 27.3894 27.2652 39.4933 21.3994 53.6545C15.5336 67.8158 13.9988 83.3985 16.9892 98.432C19.9795 113.466 27.3607 127.275 38.1993 138.113C49.0378 148.952 62.847 156.333 77.8805 159.323C92.9141 162.314 108.497 160.779 122.658 154.913C136.819 149.047 148.923 139.114 157.439 126.369C165.955 113.624 170.5 98.6405 170.5 83.3125C170.5 62.7582 162.335 43.0458 147.801 28.5117C133.267 13.9777 113.554 5.8125 93 5.8125ZM93 149.188C79.0132 149.188 65.3404 145.04 53.7108 137.269C42.0812 129.499 33.017 118.454 27.6644 105.532C22.3119 92.6095 20.9114 78.3903 23.6401 64.6722C26.3688 50.9541 33.1041 38.3532 42.9943 28.463C52.8845 18.5728 65.4854 11.8375 79.2035 9.10884C92.9216 6.38014 107.141 7.78061 120.063 13.1331C132.985 18.4857 144.03 27.5499 151.801 39.1795C159.571 50.8092 163.719 64.4819 163.719 78.4688C163.719 97.2245 156.268 115.212 143.006 128.474C129.743 141.737 111.756 149.188 93 149.188Z" fill="#E04122"/>
<path d="M69.75 21.3125C69.75 22.8541 72.1995 24.3325 76.5598 25.4226C80.92 26.5126 86.8337 27.125 93 27.125C99.1663 27.125 105.08 26.5126 109.44 25.4226C113.8 24.3325 116.25 22.8541 116.25 21.3125C116.25 19.7709 113.8 18.2925 109.44 17.2024C105.08 16.1124 99.1663 15.5 93 15.5C86.8337 15.5 80.92 16.1124 76.5598 17.2024C72.1995 18.2925 69.75 19.7709 69.75 21.3125Z" fill="#FF866E"/>
<path d="M15.5 83.3125C15.5 103.867 23.6652 123.579 38.1992 138.113C52.7333 152.647 72.4457 160.812 93 160.812C113.554 160.812 133.267 152.647 147.801 138.113C162.335 123.579 170.5 103.867 170.5 83.3125C170.5 62.7582 162.335 43.0458 147.801 28.5117C133.267 13.9777 113.554 5.8125 93 5.8125C72.4457 5.8125 52.7333 13.9777 38.1992 28.5117C23.6652 43.0458 15.5 62.7582 15.5 83.3125V83.3125Z" stroke="#45413C" stroke-width="3.875" stroke-linecap="round" stroke-linejoin="round"/>
<path d="M56.1875 87.1875C56.1875 88.2152 56.5958 89.2008 57.3225 89.9275C58.0492 90.6542 59.0348 91.0625 60.0625 91.0625C61.0902 91.0625 62.0758 90.6542 62.8025 89.9275C63.5292 89.2008 63.9375 88.2152 63.9375 87.1875C63.9375 86.1598 63.5292 85.1742 62.8025 84.4475C62.0758 83.7208 61.0902 83.3125 60.0625 83.3125C59.0348 83.3125 58.0492 83.7208 57.3225 84.4475C56.5958 85.1742 56.1875 86.1598 56.1875 87.1875Z" fill="#45413C" stroke="#45413C" stroke-width="3.875" stroke-linecap="round" stroke-linejoin="round"/>
<path d="M74.9037 81.3749C74.9037 81.3749 63.2787 63.9374 50.375 69.7499" stroke="#45413C" stroke-width="3.875" stroke-linecap="round" stroke-linejoin="round"/>
<path d="M111.096 81.3749C111.096 81.3749 122.721 63.9374 135.624 69.7499" stroke="#45413C" stroke-width="3.875" stroke-linecap="round" stroke-linejoin="round"/>
<path d="M122.062 87.1875C122.062 88.2152 122.471 89.2008 123.197 89.9275C123.924 90.6542 124.91 91.0625 125.938 91.0625C126.965 91.0625 127.951 90.6542 128.678 89.9275C129.404 89.2008 129.812 88.2152 129.812 87.1875C129.812 86.1598 129.404 85.1742 128.678 84.4475C127.951 83.7208 126.965 83.3125 125.938 83.3125C124.91 83.3125 123.924 83.7208 123.197 84.4475C122.471 85.1742 122.062 86.1598 122.062 87.1875Z" fill="#45413C" stroke="#45413C" stroke-width="3.875" stroke-linecap="round" stroke-linejoin="round"/>
<path d="M73.625 122.063C79.3601 118.231 86.1026 116.186 93 116.186C99.8974 116.186 106.64 118.231 112.375 122.063" stroke="#45413C" stroke-width="3.875" stroke-linecap="round"/>
<path d="M119.815 32.4342C119.335 34.9587 117.876 37.1908 115.756 38.6429C113.636 40.095 111.027 40.6491 108.5 40.1842" stroke="#45413C" stroke-width="3.875" stroke-linecap="round" stroke-linejoin="round"/>
<path d="M133.3 50.3755C131.993 49.5808 130.856 48.5359 129.953 47.3008C129.051 46.0657 128.401 44.6647 128.041 43.1779C127.681 41.6912 127.618 40.148 127.855 38.6368C128.093 37.1257 128.626 35.6763 129.425 34.3717" stroke="#45413C" stroke-width="3.875" stroke-linecap="round" stroke-linejoin="round"/>
<path d="M110.593 49.4833C113.311 48.0294 116.496 47.7148 119.446 48.6086C122.396 49.5024 124.871 51.5315 126.325 54.2496" stroke="#45413C" stroke-width="3.875" stroke-linecap="round" stroke-linejoin="round"/>
<path d="M149.188 104.625C149.188 107.841 144.847 110.438 139.5 110.438C134.153 110.438 129.812 107.841 129.812 104.625C129.812 101.409 134.153 98.8125 139.5 98.8125C144.847 98.8125 149.188 101.409 149.188 104.625Z" fill="#E04122"/>
<path d="M36.8125 104.625C36.8125 107.841 41.1525 110.438 46.5 110.438C51.8475 110.438 56.1875 107.841 56.1875 104.625C56.1875 101.409 51.8475 98.8125 46.5 98.8125C41.1525 98.8125 36.8125 101.409 36.8125 104.625Z" fill="#E04122"/>
<path opacity="0.15" d="M31 176.312C31 177.854 37.5321 179.333 49.1594 180.423C60.7866 181.513 76.5566 182.125 93 182.125C109.443 182.125 125.213 181.513 136.841 180.423C148.468 179.333 155 177.854 155 176.312C155 174.771 148.468 173.292 136.841 172.202C125.213 171.112 109.443 170.5 93 170.5C76.5566 170.5 60.7866 171.112 49.1594 172.202C37.5321 173.292 31 174.771 31 176.312Z" fill="#45413C"/>
<path d="M52.0391 214.941L56.3047 203.938H59.8086L53.9258 217.801C53.7305 218.246 53.5078 218.676 53.2578 219.09C53.0078 219.504 52.707 219.875 52.3555 220.203C52.0117 220.523 51.5938 220.777 51.1016 220.965C50.6172 221.152 50.0312 221.246 49.3438 221.246C49.1641 221.246 48.9492 221.238 48.6992 221.223C48.4492 221.215 48.2578 221.203 48.125 221.188V218.656C48.2188 218.68 48.3711 218.695 48.582 218.703C48.8008 218.711 48.957 218.715 49.0508 218.715C49.5039 218.715 49.8633 218.645 50.1289 218.504C50.4023 218.355 50.6172 218.156 50.7734 217.906C50.9375 217.648 51.082 217.355 51.207 217.027L52.0391 214.941ZM49.0156 203.938L53.1055 212.879L54.0664 216.359L51.6172 216.43L45.5234 203.938H49.0156ZM67.1258 216.055L61.9695 208.32H65.7898L68.6141 213.207H71.0633L70.6766 216.055H67.1258ZM68.6727 215.562L65.6023 221H61.8406L66.2352 213.945L68.6727 215.562ZM73.0086 208.32V221H69.9148V208.32H73.0086ZM80.9891 208.32L75.8211 216.055H72.2703L71.8836 213.207H74.3328L77.157 208.32H80.9891ZM77.3445 221L74.2742 215.562L76.7938 213.945L81.1766 221H77.3445ZM91.0719 218.305V212.457C91.0719 212.027 90.9977 211.656 90.8492 211.344C90.7008 211.031 90.4742 210.789 90.1695 210.617C89.8648 210.445 89.4781 210.359 89.0094 210.359C88.5953 210.359 88.232 210.43 87.9195 210.57C87.6148 210.711 87.3805 210.91 87.2164 211.168C87.0523 211.418 86.9703 211.707 86.9703 212.035H83.8648C83.8648 211.512 83.9898 211.016 84.2398 210.547C84.4898 210.07 84.8453 209.648 85.3063 209.281C85.775 208.906 86.3336 208.613 86.982 208.402C87.6383 208.191 88.3727 208.086 89.1852 208.086C90.1461 208.086 91.0016 208.25 91.7516 208.578C92.5094 208.898 93.1031 209.383 93.5328 210.031C93.9703 210.68 94.1891 211.496 94.1891 212.48V218.012C94.1891 218.645 94.2281 219.188 94.3063 219.641C94.3922 220.086 94.5172 220.473 94.6813 220.801V221H91.5289C91.3805 220.68 91.2672 220.273 91.1891 219.781C91.1109 219.281 91.0719 218.789 91.0719 218.305ZM91.5055 213.277L91.5289 215.117H89.5719C89.0875 215.117 88.6617 215.168 88.2945 215.27C87.9273 215.363 87.6266 215.504 87.3922 215.691C87.1578 215.871 86.982 216.09 86.8648 216.348C86.7477 216.598 86.6891 216.883 86.6891 217.203C86.6891 217.516 86.7594 217.797 86.9 218.047C87.0484 218.297 87.2594 218.496 87.5328 218.645C87.8141 218.785 88.1422 218.855 88.5172 218.855C89.0641 218.855 89.5406 218.746 89.9469 218.527C90.3531 218.301 90.6695 218.027 90.8961 217.707C91.1227 217.387 91.2438 217.082 91.2594 216.793L92.15 218.129C92.0406 218.449 91.8766 218.789 91.6578 219.148C91.4391 219.508 91.1578 219.844 90.8141 220.156C90.4703 220.469 90.0563 220.727 89.5719 220.93C89.0875 221.133 88.525 221.234 87.8844 221.234C87.0641 221.234 86.3297 221.07 85.6813 220.742C85.0328 220.414 84.5211 219.965 84.1461 219.395C83.7711 218.824 83.5836 218.176 83.5836 217.449C83.5836 216.777 83.7086 216.184 83.9586 215.668C84.2086 215.152 84.5797 214.719 85.0719 214.367C85.5641 214.008 86.1734 213.738 86.9 213.559C87.6344 213.371 88.4742 213.277 89.4195 213.277H91.5055ZM103.381 218.797C103.819 218.797 104.209 218.711 104.553 218.539C104.897 218.367 105.17 218.125 105.373 217.812C105.584 217.5 105.698 217.137 105.713 216.723H108.631C108.616 217.582 108.373 218.352 107.905 219.031C107.436 219.711 106.811 220.25 106.03 220.648C105.256 221.039 104.389 221.234 103.428 221.234C102.452 221.234 101.6 221.07 100.873 220.742C100.147 220.414 99.5414 219.957 99.057 219.371C98.5805 218.785 98.2211 218.105 97.9789 217.332C97.7445 216.559 97.6273 215.73 97.6273 214.848V214.473C97.6273 213.59 97.7445 212.762 97.9789 211.988C98.2211 211.215 98.5805 210.535 99.057 209.949C99.5414 209.363 100.147 208.906 100.873 208.578C101.6 208.25 102.448 208.086 103.416 208.086C104.44 208.086 105.338 208.285 106.112 208.684C106.893 209.082 107.502 209.645 107.94 210.371C108.385 211.098 108.616 211.953 108.631 212.938H105.713C105.698 212.484 105.596 212.078 105.409 211.719C105.221 211.359 104.955 211.07 104.612 210.852C104.268 210.633 103.85 210.523 103.358 210.523C102.834 210.523 102.397 210.633 102.045 210.852C101.702 211.07 101.432 211.371 101.237 211.754C101.049 212.129 100.916 212.551 100.838 213.02C100.768 213.48 100.733 213.965 100.733 214.473V214.848C100.733 215.363 100.768 215.855 100.838 216.324C100.916 216.793 101.049 217.215 101.237 217.59C101.432 217.957 101.702 218.25 102.045 218.469C102.397 218.688 102.842 218.797 103.381 218.797ZM120.554 213.523V215.949H114.05V213.523H120.554ZM115.023 208.32V221H111.917V208.32H115.023ZM122.722 208.32V221H119.605V208.32H122.722ZM126.184 214.789V214.543C126.184 213.613 126.316 212.758 126.582 211.977C126.848 211.188 127.234 210.504 127.742 209.926C128.25 209.348 128.871 208.898 129.605 208.578C130.34 208.25 131.176 208.086 132.113 208.086C133.066 208.086 133.91 208.25 134.645 208.578C135.387 208.898 136.012 209.348 136.52 209.926C137.027 210.504 137.414 211.188 137.68 211.977C137.945 212.758 138.078 213.613 138.078 214.543V214.789C138.078 215.711 137.945 216.566 137.68 217.355C137.414 218.137 137.027 218.82 136.52 219.406C136.012 219.984 135.391 220.434 134.656 220.754C133.922 221.074 133.082 221.234 132.137 221.234C131.199 221.234 130.359 221.074 129.617 220.754C128.875 220.434 128.25 219.984 127.742 219.406C127.234 218.82 126.848 218.137 126.582 217.355C126.316 216.566 126.184 215.711 126.184 214.789ZM129.277 214.543V214.789C129.277 215.344 129.332 215.863 129.441 216.348C129.551 216.832 129.719 217.258 129.945 217.625C130.172 217.992 130.465 218.281 130.824 218.492C131.191 218.695 131.629 218.797 132.137 218.797C132.637 218.797 133.066 218.695 133.426 218.492C133.785 218.281 134.078 217.992 134.305 217.625C134.539 217.258 134.711 216.832 134.82 216.348C134.93 215.863 134.984 215.344 134.984 214.789V214.543C134.984 213.996 134.93 213.484 134.82 213.008C134.711 212.523 134.539 212.098 134.305 211.73C134.078 211.355 133.781 211.062 133.414 210.852C133.055 210.633 132.621 210.523 132.113 210.523C131.613 210.523 131.184 210.633 130.824 210.852C130.465 211.062 130.172 211.355 129.945 211.73C129.719 212.098 129.551 212.523 129.441 213.008C129.332 213.484 129.277 213.996 129.277 214.543Z" fill="#EBEAEC"/>
</svg>
