<svg width="180" height="135" viewBox="0 0 180 135" fill="none" xmlns="http://www.w3.org/2000/svg">
<rect width="180" height="135" rx="11.6316" fill="#FA6E5A"/>
<g clip-path="url(#clip0_130_2249)">
<path d="M56.5015 89.206C56.5015 89.6393 53.9691 89.9887 50.847 89.9887C47.7248 89.9887 45.1924 89.6393 45.1924 89.206C45.1924 88.7726 47.7248 88.4232 50.847 88.4232C53.9691 88.4232 56.5015 88.7726 56.5015 89.206Z" fill="#FDF9E7"/>
<path d="M69.1637 96.9997C80.2311 96.9997 89.203 95.7559 89.203 94.2215C89.203 92.6871 80.2311 91.4432 69.1637 91.4432C58.0964 91.4432 49.1245 92.6871 49.1245 94.2215C49.1245 95.7559 58.0964 96.9997 69.1637 96.9997Z" fill="#F05D48"/>
<path d="M121.018 96.0492C134.191 96.0492 144.869 94.5692 144.869 92.7435C144.869 90.9178 134.191 89.4378 121.018 89.4378C107.846 89.4378 97.167 90.9178 97.167 92.7435C97.167 94.5692 107.846 96.0492 121.018 96.0492Z" fill="#F05D48"/>
<path d="M90.4225 90.4791C105.112 90.4791 117.019 88.8291 117.019 86.7938C117.019 84.7585 105.112 83.1085 90.4225 83.1085C75.7335 83.1085 63.8257 84.7585 63.8257 86.7938C63.8257 88.8291 75.7335 90.4791 90.4225 90.4791Z" fill="#F05D48"/>
<path d="M151.006 85.981C151.006 86.9216 145.498 87.6876 138.701 87.6876C131.907 87.6876 126.396 86.925 126.396 85.981C126.396 85.0404 131.903 84.2744 138.701 84.2744C145.495 84.2744 151.006 85.037 151.006 85.981Z" fill="#F05D48"/>
<path d="M44.7692 80.8212C38.4349 79.3632 32.4937 74.3811 29.3616 68.5626C26.2327 62.7441 25.0198 55.7263 26.8758 49.377C28.7285 43.0277 33.8999 37.5653 40.3208 36.1913C48.1346 34.5183 56.015 38.8586 61.9828 44.2102C64.4219 46.3972 66.7211 48.8025 69.5434 50.4554C72.369 52.1048 75.9043 52.9178 78.9166 51.6479C82.5319 50.1228 84.3879 46.1788 86.1472 42.6514C90.4789 33.964 96.1635 25.8274 103.654 19.7032C111.145 13.5756 120.551 9.56448 130.194 9.59808C136.202 9.61823 142.473 11.3685 146.658 15.7122C151.963 21.2183 152.889 29.8117 151.306 37.32C149.724 44.8283 146.022 51.6782 143.079 58.7565C140.137 65.8348 137.905 73.6253 139.481 81.1336L44.7692 80.8212Z" fill="#F05D48"/>
<path d="M84.9475 34.5115C86.7801 31.4779 88.3695 28.2428 89.0726 24.7658C89.9923 20.2171 89.2059 15.4165 86.0804 11.869C81.6753 6.87352 72.6087 4.50513 66.3977 6.99782C63.8386 8.0258 61.6161 10.1826 61.0297 12.8936C60.0334 17.4826 63.5054 21.4534 65.6579 25.1152C66.8142 27.0838 67.6772 29.3749 67.7605 31.6828C67.8371 33.8866 66.4676 35.9224 66.8008 38.1464C66.9874 39.3961 67.7338 40.5148 68.7001 41.3244C70.8127 43.0948 73.7983 43.7398 76.4473 43.0578C80.5424 42.0063 82.8949 37.9112 84.9475 34.5115Z" fill="#F05D48"/>
<path d="M75.5644 20.7815H30.0979C30.0113 20.7815 29.938 20.852 29.938 20.9427V56.9255C29.938 57.0128 30.008 57.0867 30.0979 57.0867H75.5644C75.651 57.0867 75.7244 57.0162 75.7244 56.9255V20.9427C75.7244 20.8554 75.651 20.7815 75.5644 20.7815ZM61.7795 38.7745H57.5444V34.6256H61.7795V38.7745ZM62.0994 34.6256H66.3345V38.7745H62.0994V34.6256ZM52.6729 39.097V43.2459H48.4378V39.097H52.6729ZM48.4378 38.7745V34.6256H52.6729V38.7745H48.4378V38.7745ZM52.9928 39.097H57.2279V43.2459H52.9928V39.097ZM52.9928 38.7745V34.6256H57.2279V38.7745H52.9928V38.7745ZM57.5444 34.3065V30.1576H61.7795V34.3065H57.5444V34.3065ZM57.2279 34.3065H52.9928V30.1576H57.2279V34.3065ZM52.6729 34.3065H48.4378V30.1576H52.6729V34.3065V34.3065ZM48.1179 34.3065H43.8828V30.1576H48.1179V34.3065ZM48.1179 34.6256V38.7745H43.8828V34.6256H48.1179ZM43.5663 38.7745H39.3312V34.6256H43.5663V38.7745ZM39.0113 38.7745H34.7762V34.6256H39.0113V38.7745ZM39.0113 39.097V43.2459H34.7762V39.097H39.0113ZM39.3312 39.097H43.5663V43.2459H39.3312V39.097ZM43.8828 39.097H48.1179V43.2459H43.8828V39.097ZM48.1179 43.5651V47.7139H43.8828V43.5651H48.1179ZM48.4378 43.5651H52.6729V47.7139H48.4378V43.5651ZM52.9928 43.5651H57.2279V47.7139H52.9928V43.5651ZM57.5444 43.5651H61.7795V47.7139H57.5444V43.5651ZM57.5444 43.2426V39.097H61.7795V43.2459H57.5444V43.2426ZM62.0994 39.097H66.3345V43.2459H62.0994V39.097ZM66.6511 39.097H70.8862V43.2459H66.6511V39.097ZM66.6511 38.7745V34.6256H70.8862V38.7745H66.6511V38.7745ZM66.6511 34.3065V30.1576H70.8862V34.3065H66.6511V34.3065ZM66.3345 34.3065H62.0994V30.1576H66.3345V34.3065V34.3065ZM62.0994 29.8351V25.6896H66.3345V29.8385H62.0994V29.8351ZM61.7795 29.8351H57.5444V25.6896H61.7795V29.8351ZM57.2279 29.8351H52.9928V25.6896H57.2279V29.8351ZM52.6729 29.8351H48.4378V25.6896H52.6729V29.8351V29.8351ZM48.1179 29.8351H43.8828V25.6896H48.1179V29.8351ZM43.5663 29.8351H39.3312V25.6896H43.5663V29.8351ZM43.5663 30.1576V34.3065H39.3312V30.1576H43.5663ZM39.0113 34.3065H34.7762V30.1576H39.0113V34.3065ZM34.4563 34.3065H30.2579V30.1576H34.4563V34.3065ZM34.4563 34.6256V38.7745H30.2579V34.6256H34.4563ZM34.4563 39.097V43.2459H30.2579V39.097H34.4563ZM34.4563 43.5651V47.7139H30.2579V43.5651H34.4563ZM34.7762 43.5651H39.0113V47.7139H34.7762V43.5651ZM39.3312 43.5651H43.5663V47.7139H39.3312V43.5651ZM43.5663 48.0331V52.182H39.3312V48.0331H43.5663ZM43.8828 48.0331H48.1179V52.182H43.8828V48.0331ZM48.4378 48.0331H52.6729V52.182H48.4378V48.0331ZM52.9928 48.0331H57.2279V52.182H52.9928V48.0331ZM57.5444 48.0331H61.7795V52.182H57.5444V48.0331ZM62.0994 48.0331H66.3345V52.182H62.0994V48.0331ZM62.0994 47.7139V43.5651H66.3345V47.7139H62.0994ZM66.6511 43.5651H70.8862V47.7139H66.6511V43.5651ZM71.206 43.5651H75.4045V47.7139H71.206V43.5651ZM71.206 43.2426V39.097H75.4045V43.2459H71.206V43.2426ZM71.206 38.7745V34.6256H75.4045V38.7745H71.206V38.7745ZM71.206 34.3065V30.1576H75.4045V34.3065H71.206V34.3065ZM71.206 29.8351V25.6896H75.4045V29.8385H71.206V29.8351ZM70.8862 29.8351H66.6511V25.6896H70.8862V29.8351ZM66.6511 25.3671V21.104H70.8862V25.3671H66.6511ZM66.3345 25.3671H62.0994V21.104H66.3345V25.3671V25.3671ZM61.7795 25.3671H57.5444V21.104H61.7795V25.3671ZM57.2279 25.3671H52.9928V21.104H57.2279V25.3671ZM52.6729 25.3671H48.4378V21.104H52.6729V25.3671V25.3671ZM48.1179 25.3671H43.8828V21.104H48.1179V25.3671ZM43.5663 25.3671H39.3312V21.104H43.5663V25.3671ZM39.0113 25.3671H34.7762V21.104H39.0113V25.3671ZM39.0113 25.6896V29.8385H34.7762V25.6896H39.0113ZM34.4563 29.8351H30.2579V25.6896H34.4563V29.8351ZM30.2579 48.0331H34.4563V52.182H30.2579V48.0331ZM34.7762 48.0331H39.0113V52.182H34.7762V48.0331ZM39.0113 52.5045V56.7676H34.7762V52.5045H39.0113ZM39.3312 52.5045H43.5663V56.7676H39.3312V52.5045ZM43.8828 52.5045H48.1179V56.7676H43.8828V52.5045ZM48.4378 52.5045H52.6729V56.7676H48.4378V52.5045ZM52.9928 52.5045H57.2279V56.7676H52.9928V52.5045ZM57.5444 52.5045H61.7795V56.7676H57.5444V52.5045ZM62.0994 52.5045H66.3345V56.7676H62.0994V52.5045ZM66.6511 52.5045H70.8862V56.7676H66.6511V52.5045ZM66.6511 52.182V48.0331H70.8862V52.182H66.6511ZM71.206 48.0331H75.4045V52.182H71.206V48.0331ZM75.4045 25.3671H71.206V21.104H75.4045V25.3671ZM34.4563 21.104V25.3671H30.2579V21.104H34.4563ZM30.2579 52.5045H34.4563V56.7676H30.2579V52.5045ZM71.206 56.7676V52.5045H75.4045V56.7676H71.206Z" fill="#E7DFC2"/>
<path d="M48.6904 31.0715C48.6904 31.0715 49.7067 40.2192 54.7482 41.8115L64.0247 39.1878C64.0247 39.1878 58.4868 36.6179 57.9203 31.0715H48.6904Z" fill="#FEDEA6"/>
<path d="M43.8827 39.5271C43.8827 39.5271 43.1097 49.9413 39.2711 51.7521L32.207 48.7656C32.207 48.7656 36.4255 45.8429 36.8553 39.5271H43.8827Z" fill="#F7F4E3"/>
<path d="M67.7387 23.7905L61.5605 25.6017L63.6984 33.0144L69.8766 31.2032L67.7387 23.7905Z" fill="#F7F4E3"/>
<path d="M67.4179 24.525L62.2251 26.0473L63.6057 30.8342L68.7985 29.3119L67.4179 24.525Z" fill="#FDFDFD"/>
<path d="M50.1819 46.2769L45.4292 44.9637L43.8801 50.6626L48.6328 51.9758L50.1819 46.2769Z" fill="#D2CDB8"/>
<path d="M49.6818 46.626L45.6875 45.5224L44.6862 49.206L48.6805 50.3097L49.6818 46.626Z" fill="#E7DFC2"/>
<path d="M124.782 43.4003C124.106 43.4003 123.426 43.397 122.75 43.397C122.417 43.397 122.097 43.6926 122.113 44.0386C122.13 44.388 122.393 44.6803 122.75 44.6803C123.426 44.6803 124.106 44.6836 124.782 44.6836C125.116 44.6836 125.436 44.388 125.419 44.042C125.402 43.696 125.139 43.4037 124.782 43.4003Z" fill="#CCC6AD"/>
<path d="M144.679 60.4497C138.441 54.8596 132.203 49.2729 125.966 43.6828C125.049 42.8631 123.693 44.2203 124.616 45.0434L143.329 61.8102C144.242 62.6333 145.598 61.2761 144.679 60.4497Z" fill="#CCC6AD"/>
<path d="M147.485 84.1704H145.685C144.036 83.6933 141.404 83.3876 138.435 83.3876C135.466 83.3876 132.837 83.6967 131.184 84.1704H129.385C129.301 84.6575 129.385 85.3395 129.385 85.3395C129.385 86.4178 133.437 87.2913 138.431 87.2913C143.429 87.2913 147.478 86.4178 147.478 85.3395C147.648 84.6172 147.485 84.1704 147.485 84.1704Z" fill="#CCC6AD"/>
<path d="M147.484 84.1705C147.484 85.2489 143.436 86.1257 138.441 86.1257C133.443 86.1257 129.394 85.2489 129.394 84.1705C129.394 83.0955 133.446 82.2187 138.441 82.2187C138.804 82.2187 139.16 82.2221 139.51 82.2322C139.834 82.2422 140.15 82.2523 140.463 82.2691C144.485 82.464 147.484 83.2467 147.484 84.1705Z" fill="#E7DFC2"/>
<path d="M140.463 82.2657L139.527 83.8917L139.51 83.9185V82.2321C139.83 82.2422 140.15 82.2489 140.463 82.2657Z" fill="#E7DFC2"/>
<path d="M143.32 60.8796L137.668 83.4045C137.365 84.6072 139.208 85.1211 139.511 83.9151C141.394 76.4068 143.28 68.8985 145.162 61.3902C145.465 60.1875 143.623 59.6769 143.32 60.8796Z" fill="#E7DFC2"/>
<path d="M145.098 60.0263C138.86 54.4362 132.623 48.8495 126.385 43.2594C125.469 42.4397 124.112 43.7969 125.035 44.6233L143.749 61.3902C144.662 62.2099 146.018 60.8527 145.098 60.0263Z" fill="#E7DFC2"/>
<path d="M107.063 43.3972C107.063 43.3972 112.521 34.4376 119.585 38.7075C126.65 42.9773 121.385 52.0511 121.385 52.0511L107.063 43.3972Z" fill="#E7DFC2"/>
<path d="M121.384 52.0546C120.991 52.7164 118.488 51.9605 115.413 50.3413C114.75 49.9919 114.06 49.6022 113.36 49.1789C112.661 48.7556 111.994 48.3256 111.378 47.9023C108.512 45.9303 106.673 44.0625 107.066 43.4007C107.433 42.7859 109.628 43.3973 112.417 44.7949C113.264 45.2181 114.17 45.7153 115.093 46.2764C116.016 46.834 116.876 47.4018 117.649 47.9594C120.174 49.7735 121.747 51.4364 121.384 52.0546Z" fill="#C1B894"/>
<path d="M117.642 47.9526C117.385 49.0982 116.526 50.0153 115.413 50.3378C115.13 50.4218 114.826 50.4655 114.513 50.4655C112.967 50.4655 111.677 49.3636 111.374 47.8955C111.331 47.6805 111.308 47.4554 111.308 47.227C111.308 46.2494 111.734 45.3793 112.414 44.7881C113.26 45.2113 114.167 45.7085 115.09 46.2696C116.009 46.8306 116.869 47.3983 117.642 47.9526Z" fill="#FAC978"/>
<path d="M125.329 42.3826C123.279 42.3826 123.276 45.5942 125.329 45.5942C127.378 45.5942 127.381 42.3826 125.329 42.3826Z" fill="#E7DFC2"/>
<path d="M125.329 43.3265C124.486 43.3265 124.482 44.6501 125.329 44.6501C126.175 44.6501 126.175 43.3265 125.329 43.3265Z" fill="#E7DFC2"/>
<path d="M144.065 58.9648C141.43 58.9648 141.426 63.0935 144.065 63.0935C146.701 63.0935 146.704 58.9648 144.065 58.9648Z" fill="#E7DFC2"/>
<path d="M144.065 60.1941C142.999 60.1941 142.996 61.8671 144.065 61.8671C145.131 61.8671 145.135 60.1941 144.065 60.1941Z" fill="#E7DFC2"/>
<path d="M56.4954 79.7965H45.1996C45.1996 79.7965 44.893 86.6027 48.2818 89.0147C48.5617 89.2129 48.9115 89.3171 49.2681 89.3171H50.8475H52.4269C52.7834 89.3171 53.1333 89.2129 53.4132 89.0147C56.8019 86.606 56.4954 79.7965 56.4954 79.7965Z" fill="#536969"/>
<path d="M56.502 79.7997C56.502 80.0013 54.656 80.176 52.1703 80.2196C51.7471 80.2297 51.3006 80.2331 50.8441 80.2331C50.4543 80.2331 50.0777 80.2297 49.7079 80.223C47.1322 80.186 45.1929 80.008 45.1929 79.7997C45.1929 79.6082 46.8356 79.4436 49.1048 79.3865C49.6512 79.3731 50.2377 79.3663 50.8474 79.3663C51.3273 79.3663 51.7938 79.3697 52.2369 79.3798C54.686 79.4268 56.502 79.5981 56.502 79.7997Z" fill="#405050"/>
<path d="M58.1144 81.7917C57.5146 81.0628 56.5416 80.9317 55.6586 80.962C54.8423 80.9888 54.8389 82.2721 55.6586 82.2453C56.3017 82.2251 56.9915 82.2419 57.3213 82.8869C57.6279 83.4782 57.5746 84.2475 57.2747 84.832C56.5583 86.243 54.9222 86.6327 53.4694 86.4345C53.1296 86.3874 52.833 86.7637 52.833 87.0761C52.833 87.4624 53.1262 87.6707 53.4694 87.7178C55.0355 87.9294 56.7582 87.496 57.8312 86.2631C58.8908 85.0437 59.194 83.1053 58.1144 81.7917Z" fill="#536969"/>
<path opacity="0.5" d="M54.0328 75.9599C53.1764 76.8266 52.2534 77.8177 52.2268 79.0439C52.2234 79.1816 52.2334 79.3193 52.2401 79.4604C52.2567 79.7527 52.2734 80.045 52.1768 80.3003C51.7536 80.3104 51.3071 80.3137 50.8506 80.3137C50.4607 80.3137 50.0842 80.3104 49.7144 80.3036C49.4711 80.0786 49.2645 79.7829 49.1079 79.4671C48.9446 79.1648 48.8247 78.8457 48.7514 78.5601C48.6114 78.0192 48.6014 77.4414 48.7414 76.9006C49.1046 75.4862 50.3708 74.3306 50.3441 72.8726C50.3275 71.9286 49.761 71.0888 49.1312 70.3934C48.4981 69.7013 47.7684 69.0798 47.2953 68.2668C46.4855 66.8828 46.5788 65.0048 47.5618 63.7417C48.5415 62.4786 50.3708 61.9444 51.8502 62.529C53.333 63.1168 54.3193 64.8033 54.0594 66.3856C53.8895 67.4169 53.2597 68.4718 53.6596 69.4393C53.8795 69.9667 54.3593 70.3262 54.7625 70.7327C55.3223 71.3038 55.7555 72.0529 55.7721 72.8558C55.7988 74.0786 54.8891 75.0932 54.0328 75.9599Z" fill="#54C1BB"/>
<path d="M62.1365 81.2846C62.1365 81.2846 54.9492 52.5683 58.1713 49.098C61.3935 45.6277 88.1835 44.0219 91.1191 46.7094C94.0547 49.397 93.8181 81.2476 93.8181 81.2476L62.1365 81.2846Z" fill="#54C1BB"/>
<path d="M91.1221 46.7096C91.0321 46.6289 90.9188 46.5483 90.7855 46.4744C81.8955 45.9201 66.008 47.4755 63.5723 50.0992C60.7133 53.1832 66.058 76.1683 67.2909 81.278L93.8177 81.2478C93.8177 81.2478 94.0576 49.3971 91.1221 46.7096Z" fill="#8DD1CD"/>
<path d="M99.2353 57.3822C99.2353 57.3822 104.763 74.1256 106.249 74.5421C107.735 74.9587 122.963 77.8512 122.963 77.8512L122.22 81.5969C122.22 81.5969 103.667 82.1815 99.2353 79.0169C94.8003 75.8523 99.2353 57.3822 99.2353 57.3822Z" fill="#DDBB8F"/>
<path d="M99.2353 57.3822C99.2353 57.3822 94.8003 75.8523 99.2353 79.0169C100.935 80.2296 104.703 80.8914 108.708 81.2475L109.781 75.8523L109.628 75.7583L109.515 75.2375C107.865 74.905 106.626 74.6429 106.253 74.5388C104.763 74.1256 99.2353 57.3822 99.2353 57.3822Z" fill="#405050"/>
<path d="M111.358 75.6073C110.641 76.3698 110.158 77.3172 109.888 78.3082C109.618 79.2993 109.552 80.3306 109.602 81.3519C109.608 81.4627 109.495 81.5837 109.382 81.6105C109.268 81.6374 109.148 81.6139 109.032 81.5971C108.915 81.5803 108.789 81.5736 108.689 81.6341C108.589 81.6945 108.532 81.8121 108.425 81.8558C108.289 81.9095 108.142 81.8323 108.005 81.7819C107.709 81.671 107.379 81.6945 107.062 81.671C106.746 81.6509 106.399 81.5669 106.216 81.3183C106.083 81.1402 106.063 80.9084 106.046 80.6901C105.97 79.6755 105.903 78.6005 106.379 77.6901C106.683 77.1123 107.182 76.6386 107.442 76.044C107.569 75.7551 107.632 75.4426 107.806 75.1772C107.975 74.9119 108.299 74.6968 108.619 74.7674C108.885 74.8279 109.072 75.0664 109.332 75.1403C109.568 75.2041 109.815 75.1235 110.058 75.0966C110.571 75.0395 111.031 75.2176 111.358 75.6073Z" fill="#536969"/>
<path d="M71.6753 81.2844H99.7849C98.9985 75.7817 98.2688 69.6911 98.3521 66.5332C98.4221 63.9464 99.2318 57.4224 99.2318 57.4224C98.9219 57.0529 91.9811 51.6342 86.3299 51.8021C76.7434 52.091 71.8719 58.9174 71.8719 58.9174C71.8719 58.9174 72.1951 63.98 72.4317 66.6105C72.7149 69.7414 72.1918 75.8018 71.6753 81.2844Z" fill="#F7F4E3"/>
<path d="M98.349 67.1278C98.349 66.906 98.349 66.6944 98.3556 66.4928C98.4223 64.0069 99.172 57.8961 99.232 57.4157C98.9388 57.0797 93.9439 53.1727 89.0024 52.0809L89.0458 56.8614C89.0458 56.8614 90.8851 68.2364 91.6981 81.244H99.7818C99.0454 76.0806 98.359 70.4066 98.349 67.1278Z" fill="#405050"/>
<path d="M89.6488 51.3957L94.0871 56.7204L90.795 55.7226L89.0423 56.8614L87.0464 51.8358L89.6488 51.3957Z" fill="#536969"/>
<path d="M71.6753 81.2476H84.5505C83.231 69.6106 82.8012 58.5749 82.8012 58.5749L81.355 52.5548C75.064 54.4159 71.8719 58.8806 71.8719 58.8806C71.8719 58.8806 72.1951 63.9432 72.4317 66.5736C72.7149 69.7046 72.1918 75.7617 71.6753 81.2476Z" fill="#405050"/>
<path d="M98.1258 39.3689C100.315 37.8303 101.924 35.3242 102.511 32.5325C102.697 31.649 102.784 30.7252 102.611 29.8349C102.441 28.9447 101.984 28.0914 101.278 27.6177C100.572 27.144 99.5986 27.1205 98.9555 27.6782C98.5157 26.9021 97.576 26.5527 96.763 26.7006C95.9499 26.8484 95.2302 27.3489 94.5538 27.8629C91.8915 26.6838 88.6826 27.3657 86.6067 29.5057C84.8441 29.8114 83.258 31.182 82.5482 32.9793C81.8385 34.7766 81.8285 36.846 82.2284 38.7676C82.5149 40.1383 83.0347 41.5123 84.001 42.4361C85.1639 43.5447 86.7933 43.837 88.3228 43.8135C91.8881 43.7563 95.1336 41.4719 98.1258 39.3689Z" fill="#405050"/>
<path d="M84.1715 37.1619C83.5217 43.4541 81.9023 54.5906 81.9023 54.5906C83.3152 57.1102 88.6432 56.791 88.5199 55.9478C88.4499 55.4708 88.5632 54.641 88.8398 53.8952C89.053 53.3174 89.3662 52.7866 89.7661 52.5044C89.9327 52.3868 90.2293 52.3499 90.6125 52.3465C90.6758 52.3499 90.7091 52.3465 90.7091 52.3465C92.4718 52.3599 95.8872 53.0385 97.3766 50.8885C99.2293 48.2144 99.4325 40.7699 99.2326 37.1821C99.116 35.1295 97.3666 32.2505 93.8446 31.6256C89.5395 30.8597 84.8246 30.8294 84.1715 37.1619Z" fill="#FDBCA0"/>
<path d="M84.7842 50.5928C84.7842 50.5928 86.117 52.5312 88.8393 53.8918C89.0526 53.314 89.3658 52.7832 89.7657 52.501C89.9323 52.3834 90.2288 52.3465 90.612 52.3431C90.0855 52.3297 87.4665 52.1684 84.7842 50.5928Z" fill="#F0A38B"/>
<path d="M94.8804 44.2033C95.1203 44.1999 95.3703 44.2067 95.5702 44.3578C95.7268 44.4754 95.8001 44.6703 95.7868 44.8651C95.7501 45.3085 95.3536 45.5571 94.9604 45.6512C94.8338 45.6814 94.7738 45.4866 94.9004 45.4564C95.2003 45.3858 95.5369 45.2212 95.5835 44.8785C95.6035 44.7408 95.5569 44.5997 95.4436 44.5157C95.287 44.4015 95.077 44.4082 94.8904 44.4082C94.7571 44.4116 94.7505 44.2067 94.8804 44.2033Z" fill="#3F4553"/>
<path d="M92.375 41.7577C92.3617 42.134 92.5983 42.4464 92.9049 42.4565C93.2114 42.4665 93.468 42.1709 93.4813 41.7947C93.4946 41.4184 93.2581 41.106 92.9515 41.0959C92.6449 41.0858 92.3884 41.3815 92.375 41.7577Z" fill="#3F4553"/>
<path d="M96.0665 42.117C96.0531 42.4933 96.2897 42.8057 96.5963 42.8158C96.9028 42.8258 97.1594 42.5302 97.1727 42.154C97.186 41.7777 96.9495 41.4653 96.6429 41.4552C96.3397 41.4451 96.0798 41.7408 96.0665 42.117Z" fill="#3F4553"/>
<path d="M91.4317 38.5729C92.0914 38.1597 92.9278 38.0791 93.6475 38.3982C93.7475 38.4419 93.8075 38.5561 93.7675 38.6636C93.7308 38.7644 93.6075 38.8282 93.5043 38.7845C92.9278 38.5292 92.2281 38.5561 91.6883 38.8954C91.595 38.9525 91.4783 38.9592 91.4017 38.8652C91.3384 38.7845 91.3384 38.6334 91.4317 38.5729Z" fill="#3F4553"/>
<path d="M98.459 39.2348C97.9325 38.657 97.1494 38.3546 96.373 38.4655C96.2631 38.4823 96.1798 38.573 96.1898 38.6872C96.1998 38.7947 96.2997 38.8888 96.4097 38.872C97.0328 38.7813 97.6992 38.9996 98.1291 39.4699C98.2024 39.5506 98.3157 39.5875 98.4123 39.517C98.4923 39.4632 98.5323 39.3188 98.459 39.2348Z" fill="#3F4553"/>
<path d="M90.642 43.2426C90.6187 43.5315 91.0386 43.8036 91.5784 43.8507C92.1215 43.8977 92.5813 43.7029 92.6046 43.4139C92.628 43.125 92.2081 42.8529 91.6683 42.8059C91.1252 42.7589 90.6654 42.9537 90.642 43.2426Z" fill="#FBAD8B"/>
<path d="M96.623 43.7766C96.5997 44.0655 97.0195 44.3376 97.5593 44.3846C98.1025 44.4317 98.5623 44.2368 98.5856 43.9479C98.6089 43.659 98.1891 43.3869 97.6493 43.3398C97.1062 43.2928 96.6463 43.4877 96.623 43.7766Z" fill="#FBAD8B"/>
<path d="M95.8965 47.67C95.8332 48.0261 95.6366 48.3486 95.3667 48.5871C95.3167 48.6342 95.27 48.6711 95.2167 48.7081C94.8735 48.9567 94.447 49.0776 94.0238 49.091C93.4041 49.1146 92.771 48.8995 92.3245 48.4662C92.1512 48.2982 92.0079 48.1 91.908 47.8816C91.7414 47.5356 91.6747 47.1426 91.7414 46.7663C91.778 46.5547 91.8813 46.3296 92.0812 46.2758C92.2112 46.2423 92.3378 46.2859 92.4578 46.3565C92.5211 46.3934 92.581 46.4371 92.6377 46.4774C93.1009 46.8234 93.6007 47.1392 94.1605 47.2736C94.5536 47.3677 94.9835 47.3609 95.3633 47.2165C95.49 47.1661 95.6799 46.9981 95.8198 47.0855C95.8232 47.0888 95.8232 47.0888 95.8265 47.0888C95.9731 47.203 95.9265 47.5188 95.8965 47.67Z" fill="#4E5567"/>
<path d="M95.816 47.0921C95.7893 47.1895 95.7393 47.2869 95.676 47.3675C95.5361 47.5422 95.3261 47.6565 95.1129 47.727C94.3931 47.9655 93.5768 47.7774 92.9537 47.344C92.7538 47.2029 92.5638 47.0316 92.4739 46.7998C92.4205 46.6621 92.4105 46.5042 92.4539 46.3631C92.5172 46.4 92.5772 46.4437 92.6338 46.484C93.097 46.83 93.5968 47.1458 94.1566 47.2802C94.5498 47.3743 94.9796 47.3675 95.3595 47.2231C95.4861 47.1727 95.676 47.0047 95.816 47.0921Z" fill="white"/>
<path d="M95.3669 48.5906C95.3169 48.6377 95.2703 48.6746 95.217 48.7116C94.8738 48.9602 94.4473 49.0811 94.0241 49.0945C93.4043 49.118 92.7712 48.903 92.3247 48.4697C92.1514 48.3017 92.0082 48.1035 91.9082 47.8851C92.388 47.8347 92.8778 47.828 93.361 47.865C93.9374 47.9087 94.5239 48.0195 95.017 48.3185C95.137 48.3991 95.257 48.4865 95.3669 48.5906Z" fill="#3F4553"/>
<path d="M95.7562 35.791C94.2434 36.1034 92.574 35.4349 91.6877 34.1583C91.5777 34.5447 91.2578 34.8638 90.8713 34.9747C90.4881 35.0855 90.0483 34.9814 89.7517 34.7093C89.6918 35.9523 89.3685 37.2053 88.6588 38.2199C87.9491 39.2378 86.8228 39.9936 85.5933 40.0911C84.9069 40.1448 84.1771 39.9802 83.664 39.5132C83.1875 39.0765 82.9509 38.4349 82.8076 37.8033C82.4644 36.2815 82.5677 34.6421 83.1908 33.211C83.8106 31.7799 84.9602 30.5705 86.3897 29.9658C87.7558 29.3846 89.2886 29.3712 90.7714 29.4215C92.2975 29.4753 93.8369 29.5962 95.2864 30.0834C96.4626 30.4764 97.5788 31.1281 98.4019 32.0721C98.5618 32.2569 98.8417 32.5156 98.8384 32.7742C98.835 33.0262 98.6584 33.3554 98.5485 33.5771C98.2919 34.0979 97.9254 34.5581 97.4855 34.931C96.9924 35.3576 96.3926 35.66 95.7562 35.791Z" fill="#405050"/>
<path d="M84.8108 40.1718C84.2943 39.5604 83.5446 39.0968 82.7249 39.1639C81.9152 39.2311 81.2788 39.7854 81.0722 40.5749C80.9356 41.1057 80.9789 41.6667 81.0789 42.2076C81.1822 42.7753 81.3421 43.3363 81.612 43.8436C82.1218 44.801 83.1847 45.6745 84.3277 45.2949C85.8504 44.7876 85.9537 42.8963 85.5739 41.576C85.4272 41.0855 85.1607 40.5883 84.8108 40.1718Z" fill="#FDBCA0"/>
<path d="M82.7982 40.5311C82.6582 40.4572 82.5383 40.6689 82.6749 40.7428C83.6479 41.2501 84.191 42.3419 83.9944 43.4337C83.9677 43.5882 84.201 43.652 84.2276 43.4975C84.4442 42.3049 83.8744 41.0922 82.7982 40.5311Z" fill="#F0A38B"/>
<path d="M83.9107 41.7977C83.4975 41.6263 83.041 41.5894 82.6078 41.6801C82.5445 41.6935 82.5079 41.7708 82.5245 41.8313C82.5445 41.8984 82.6078 41.9287 82.6745 41.9152C83.0677 41.8346 83.4775 41.8783 83.8507 42.0328C83.9107 42.0563 83.984 42.0059 84.0007 41.9488C84.014 41.8783 83.9707 41.8245 83.9107 41.7977Z" fill="#F0A38B"/>
<path d="M82.4176 51.3957L79.7053 52.5513L77.2896 59.4583L81.408 57.2243L82.8042 58.5748L82.4176 51.3957Z" fill="#536969"/>
<path d="M71.8754 58.882C71.8754 58.882 61.186 77.8527 63.4985 81.1012C65.8109 84.3498 86.46 87.5144 86.46 87.5144L87.3096 83.3016C87.3096 83.3016 72.2752 79.1628 71.9653 77.977L72.3452 73.2234C72.3419 73.2234 73.5814 60.5785 71.8754 58.882Z" fill="#FDBCA0"/>
<path d="M71.962 77.9754L72.3418 73.2218C72.3418 73.2218 73.5814 60.5769 71.8754 58.8771C71.8754 58.8771 61.186 77.8477 63.4985 81.0963C64.2449 82.1444 66.9105 83.1858 70.1727 84.1164L71.1823 83.7637L73.1682 78.7615C72.4585 78.4423 72.012 78.1702 71.962 77.9754Z" fill="#405050"/>
<path d="M75.5845 79.3157C73.9284 80.7972 72.8289 82.9002 72.549 85.114C72.1124 85.1208 71.7093 84.9394 71.3494 84.6908C70.9262 84.9797 70.3664 84.9158 69.8633 84.8386C69.6634 84.8083 69.4401 84.7647 69.3235 84.6001C69.2468 84.4926 69.2335 84.3548 69.2202 84.2238C69.1702 83.7065 69.1202 83.179 69.2435 82.6751C69.3635 82.1846 69.64 81.7479 69.9133 81.3213C70.3864 80.5856 70.8596 79.8465 71.3327 79.1108C71.496 78.8588 71.6593 78.6002 71.8959 78.4187C72.1324 78.234 72.4523 78.1332 72.7322 78.234C72.9055 78.2978 73.0454 78.4288 73.2087 78.5162C73.4819 78.6606 73.8018 78.6707 74.1084 78.6606C74.4149 78.6505 74.7281 78.6203 75.0247 78.7009C75.3213 78.7816 75.5212 79.01 75.5845 79.3157Z" fill="#536969"/>
<path d="M72.3781 62.0182C72.3348 66.1268 72.1782 70.2354 71.9049 74.3372C71.8283 75.5029 71.7383 76.6686 71.6417 77.8344C71.615 78.1468 72.1015 78.1367 72.1282 77.8243C72.468 73.7292 72.6913 69.6239 72.8013 65.5154C72.8312 64.3463 72.8512 63.1772 72.8646 62.0115C72.8679 61.6923 72.3814 61.7024 72.3781 62.0182Z" fill="#A1B8B8"/>
<path d="M86.4565 87.5097C86.4565 87.5097 94.6735 90.8826 95.0467 90.1939C95.4199 89.5086 91.5247 88.2051 91.5247 88.2051C91.5247 88.2051 96.986 89.3205 97.1293 88.7561C97.2725 88.195 92.0178 86.7908 92.0178 86.7908C92.0178 86.7908 98.2922 87.9464 98.3688 87.288C98.4454 86.6296 92.8342 85.3933 92.8342 85.3933C92.8342 85.3933 98.1056 85.6956 98.1422 85.2152C98.2055 84.3519 87.3062 83.297 87.3062 83.297L86.4565 87.5097Z" fill="#FDBCA0"/>
<path d="M88.0894 83.3809C88.0894 83.3809 92.2811 81.849 92.7043 82.1816C93.1275 82.5142 90.855 84.1905 90.855 84.1905L88.0894 83.3809Z" fill="#FDBCA0"/>
<path d="M75.7249 78.8759H54.0262C53.7963 78.8759 53.6597 79.064 53.723 79.2958L57.4983 93.1266C57.5616 93.3584 57.7982 93.5465 58.0281 93.5465H79.7267C79.9566 93.5465 80.0932 93.3584 80.0299 93.1266L76.2547 79.2958C76.1947 79.064 75.9548 78.8759 75.7249 78.8759Z" fill="#E7DFC2"/>
<path d="M78.3997 93.3786L75.1943 81.6408C75.141 81.4426 74.9377 81.2847 74.7444 81.2847H56.3313C56.1347 81.2847 56.0214 81.4426 56.0747 81.6408L59.2802 93.3786C59.2768 93.3719 59.3002 93.4559 59.3268 93.5432H78.4497L78.3997 93.3786Z" fill="#F7F4E3"/>
<path d="M55.6021 79.914C55.6021 80.1996 55.3722 80.428 55.0923 80.428C54.8091 80.428 54.5825 80.1962 54.5825 79.914C54.5825 79.6318 54.8124 79.4 55.0923 79.4C55.3722 79.4 55.6021 79.6318 55.6021 79.914Z" fill="#405050"/>
<path d="M55.3291 79.914C55.3291 80.045 55.2225 80.1525 55.0925 80.1525C54.9626 80.1525 54.856 80.045 54.856 79.914C54.856 79.783 54.9626 79.6755 55.0925 79.6755C55.2225 79.6755 55.3291 79.783 55.3291 79.914Z" fill="#576E6E"/>
<path d="M74.3387 81.446H55.9255C55.7289 81.446 55.6156 81.6039 55.6689 81.8021L58.8744 93.5399C58.8711 93.5264 58.9744 93.896 58.9744 93.896H78.0939L77.9973 93.5399L74.7918 81.8021C74.7352 81.6039 74.5353 81.446 74.3387 81.446Z" fill="#EBB254"/>
<path d="M77.9936 93.5399L75.931 85.9812H56.8081L58.8707 93.5399C58.8673 93.5264 58.9706 93.896 58.9706 93.896H78.0902L77.9936 93.5399Z" fill="#FEDEA6"/>
<path d="M74.3752 95.7134H55.2656L58.9809 93.896H78.0905L74.3752 95.7134Z" fill="#EBB254"/>
<path d="M98.7426 59.0955L137.698 52.5682C138.335 52.4607 138.914 52.9646 138.911 53.623L138.744 78.5432C138.741 79.0471 138.395 79.4771 137.911 79.5779L99.9088 87.5061C98.9758 87.7279 97.8662 87.1299 97.8662 85.7492V60.1437C97.8695 59.6263 98.2394 59.1829 98.7426 59.0955Z" fill="#FEDEA6"/>
<path d="M100.505 59.0248L137.698 52.8065C138.334 52.699 138.914 53.1996 138.911 53.8513L138.751 78.5834C138.747 79.0805 138.401 79.5072 137.918 79.608L100.885 87.2775C100.238 87.4119 99.6318 86.9147 99.6318 86.2462V60.0662C99.6352 59.5455 100.002 59.1088 100.505 59.0248Z" fill="#FAC978"/>
<path d="M117.315 71.9923L115.159 84.3146L126.875 81.8891L117.315 71.9923Z" fill="#EBB254"/>
<path d="M116.829 94.544L111.688 92.7837C110.865 92.5015 110.915 91.3122 111.758 91.1006L120.474 88.9002C120.628 88.8632 120.784 88.8666 120.934 88.9103L125.996 90.4354C126.832 90.6874 126.822 91.8833 125.982 92.1219L117.346 94.5574C117.176 94.6045 116.996 94.6011 116.829 94.544Z" fill="#EBB254"/>
<path d="M124.52 70.8165C124.42 70.3529 123.977 70.0539 123.514 70.1379L118.029 71.139C117.619 71.2129 117.32 71.5724 117.313 71.9923L117.083 94.6315L128.879 91.3023L124.52 70.8165ZM123.117 88.4199C121.465 88.5912 119.929 86.7872 119.685 84.3886C119.442 81.9933 120.585 79.9105 122.238 79.7425C123.89 79.5712 125.427 81.3752 125.67 83.7738C125.913 86.1691 124.77 88.2486 123.117 88.4199Z" fill="#FEDEA6"/>
<path d="M121.434 30.1675C115.853 30.1675 111.311 25.5886 111.311 19.9616C111.311 14.3346 115.853 9.75567 121.434 9.75567C127.015 9.75567 131.557 14.3346 131.557 19.9616C131.557 25.5886 127.015 30.1675 121.434 30.1675ZM121.434 12.6481C117.432 12.6481 114.177 15.9303 114.177 19.965C114.177 23.9996 117.432 27.2818 121.434 27.2818C125.436 27.2818 128.691 23.9996 128.691 19.965C128.691 15.9303 125.436 12.6481 121.434 12.6481Z" fill="#F5E2D5"/>
<path d="M117.642 22.5382L117.192 21.6882L121.028 19.6356L122.647 13.5248L123.57 13.7734L121.844 20.2907L117.642 22.5382Z" fill="#F5E2D5"/>
</g>
<path d="M66.5234 115.793H68.2681C68.1772 116.629 67.9379 117.377 67.5502 118.037C67.1625 118.698 66.6142 119.222 65.9054 119.609C65.1966 119.991 64.3121 120.182 63.252 120.182C62.4765 120.182 61.7708 120.036 61.1347 119.746C60.5046 119.455 59.9624 119.043 59.5081 118.51C59.0537 117.971 58.7023 117.325 58.4539 116.574C58.2116 115.817 58.0905 114.975 58.0905 114.048V112.73C58.0905 111.803 58.2116 110.964 58.4539 110.213C58.7023 109.456 59.0567 108.808 59.5171 108.268C59.9836 107.729 60.544 107.314 61.1983 107.024C61.8525 106.733 62.5886 106.587 63.4065 106.587C64.406 106.587 65.2511 106.775 65.9418 107.151C66.6324 107.526 67.1685 108.047 67.5502 108.714C67.9379 109.374 68.1772 110.14 68.2681 111.013H66.5234C66.4385 110.395 66.281 109.865 66.0508 109.423C65.8206 108.974 65.4935 108.629 65.0694 108.387C64.6453 108.144 64.091 108.023 63.4065 108.023C62.8188 108.023 62.3008 108.135 61.8525 108.359C61.4103 108.583 61.0377 108.902 60.7348 109.313C60.438 109.725 60.2138 110.219 60.0624 110.795C59.9109 111.37 59.8352 112.009 59.8352 112.712V114.048C59.8352 114.696 59.9018 115.305 60.0351 115.874C60.1745 116.444 60.3835 116.944 60.6621 117.374C60.9408 117.804 61.2952 118.143 61.7253 118.392C62.1555 118.634 62.6643 118.755 63.252 118.755C63.9971 118.755 64.5908 118.637 65.0331 118.401C65.4753 118.164 65.8085 117.825 66.0326 117.383C66.2629 116.941 66.4264 116.411 66.5234 115.793ZM74.411 110.168V120H72.7208V110.168H74.411ZM77.7097 110.168V111.531H69.4858V110.168H77.7097ZM85.0157 118.319V113.257C85.0157 112.87 84.937 112.533 84.7795 112.249C84.628 111.958 84.3978 111.734 84.0888 111.576C83.7799 111.419 83.3982 111.34 82.9439 111.34C82.5198 111.34 82.1472 111.413 81.8261 111.558C81.5111 111.703 81.2627 111.894 81.081 112.131C80.9053 112.367 80.8175 112.621 80.8175 112.894H79.1363C79.1363 112.542 79.2272 112.194 79.409 111.849C79.5907 111.503 79.8512 111.192 80.1905 110.913C80.5358 110.628 80.9477 110.404 81.4263 110.24C81.911 110.071 82.4501 109.986 83.0438 109.986C83.7587 109.986 84.3887 110.107 84.934 110.349C85.4852 110.592 85.9154 110.958 86.2243 111.449C86.5394 111.934 86.6969 112.542 86.6969 113.275V117.855C86.6969 118.183 86.7241 118.531 86.7786 118.9C86.8392 119.27 86.9271 119.588 87.0422 119.855V120H85.2884C85.2035 119.806 85.1369 119.549 85.0884 119.228C85.04 118.9 85.0157 118.598 85.0157 118.319ZM85.3065 114.039L85.3247 115.22H83.6254C83.1468 115.22 82.7197 115.26 82.3441 115.338C81.9685 115.411 81.6535 115.523 81.399 115.675C81.1446 115.826 80.9507 116.017 80.8175 116.247C80.6842 116.471 80.6175 116.735 80.6175 117.038C80.6175 117.347 80.6872 117.628 80.8266 117.883C80.9659 118.137 81.1749 118.34 81.4536 118.492C81.7383 118.637 82.0866 118.71 82.4986 118.71C83.0135 118.71 83.4679 118.601 83.8617 118.382C84.2554 118.164 84.5674 117.898 84.7976 117.583C85.0339 117.268 85.1611 116.962 85.1793 116.665L85.8972 117.474C85.8548 117.728 85.7397 118.01 85.5519 118.319C85.3641 118.628 85.1127 118.925 84.7976 119.209C84.4887 119.488 84.1191 119.721 83.689 119.909C83.2649 120.091 82.7864 120.182 82.2532 120.182C81.5868 120.182 81.0022 120.051 80.4994 119.791C80.0027 119.53 79.6149 119.182 79.3363 118.746C79.0636 118.304 78.9273 117.81 78.9273 117.265C78.9273 116.738 79.0303 116.274 79.2363 115.874C79.4423 115.469 79.7391 115.132 80.1268 114.866C80.5146 114.593 80.981 114.387 81.5263 114.248C82.0715 114.108 82.6803 114.039 83.3528 114.039H85.3065ZM93.2033 110.168V120H91.5131V110.168H93.2033ZM96.5019 110.168V111.531H88.278V110.168H96.5019ZM99.537 113.548H102.49C103.284 113.548 103.953 113.687 104.499 113.966C105.044 114.239 105.456 114.617 105.734 115.102C106.019 115.581 106.162 116.126 106.162 116.738C106.162 117.192 106.083 117.619 105.925 118.019C105.768 118.413 105.532 118.758 105.217 119.055C104.908 119.352 104.523 119.585 104.062 119.755C103.608 119.918 103.084 120 102.49 120H98.3103V110.168H99.9914V118.619H102.49C102.975 118.619 103.363 118.531 103.654 118.355C103.944 118.18 104.153 117.952 104.281 117.674C104.408 117.395 104.471 117.104 104.471 116.801C104.471 116.504 104.408 116.214 104.281 115.929C104.153 115.644 103.944 115.408 103.654 115.22C103.363 115.026 102.975 114.929 102.49 114.929H99.537V113.548ZM110.078 117.337L114.613 110.168H116.303V120H114.613V112.83L110.078 120H108.406V110.168H110.078V117.337Z" fill="#FFECCC"/>
<defs>
<clipPath id="clip0_130_2249">
<rect width="126" height="91" fill="white" transform="translate(26 6)"/>
</clipPath>
</defs>
</svg>
