<svg width="143" height="135" viewBox="0 0 143 135" fill="none" xmlns="http://www.w3.org/2000/svg">
<rect x="0.5" y="0.105225" width="142.348" height="134.736" rx="11.6316" fill="#FA6E5A"/>
<g clip-path="url(#clip0_130_2249)">
<path d="M47.2939 70.0708C47.2939 70.3974 45.3805 70.6607 43.0215 70.6607C40.6624 70.6607 38.749 70.3974 38.749 70.0708C38.749 69.7442 40.6624 69.481 43.0215 69.481C45.3805 69.481 47.2939 69.7442 47.2939 70.0708Z" fill="#FDF9E7"/>
<path d="M56.8614 75.9443C65.2236 75.9443 72.0025 75.0069 72.0025 73.8506C72.0025 72.6942 65.2236 71.7569 56.8614 71.7569C48.4991 71.7569 41.7202 72.6942 41.7202 73.8506C41.7202 75.0069 48.4991 75.9443 56.8614 75.9443Z" fill="#F05D48"/>
<path d="M96.0414 75.2279C105.994 75.2279 114.063 74.1126 114.063 72.7367C114.063 71.3609 105.994 70.2456 96.0414 70.2456C86.0885 70.2456 78.02 71.3609 78.02 72.7367C78.02 74.1126 86.0885 75.2279 96.0414 75.2279Z" fill="#F05D48"/>
<path d="M72.924 71.0303C84.0227 71.0303 93.0199 69.7869 93.0199 68.253C93.0199 66.7192 84.0227 65.4758 72.924 65.4758C61.8254 65.4758 52.8281 66.7192 52.8281 68.253C52.8281 69.7869 61.8254 71.0303 72.924 71.0303Z" fill="#F05D48"/>
<path d="M118.699 67.6405C118.699 68.3494 114.538 68.9266 109.402 68.9266C104.268 68.9266 100.104 68.3519 100.104 67.6405C100.104 66.9316 104.266 66.3544 109.402 66.3544C114.535 66.3544 118.699 66.9291 118.699 67.6405Z" fill="#F05D48"/>
<path d="M38.4293 63.752C33.6433 62.6533 29.1543 58.8988 26.7877 54.5139C24.4236 50.129 23.5072 44.8404 24.9096 40.0555C26.3094 35.2706 30.2168 31.1541 35.0683 30.1187C40.9722 28.8579 46.9264 32.1288 51.4355 36.1618C53.2785 37.8099 55.0156 39.6226 57.1481 40.8682C59.2831 42.1112 61.9543 42.7239 64.2303 41.7669C66.9619 40.6175 68.3642 37.6454 69.6936 34.9871C72.9665 28.4402 77.2616 22.3085 82.9213 17.6932C88.581 13.0754 95.6883 10.0526 102.974 10.0779C107.514 10.0931 112.252 11.4121 115.414 14.6856C119.422 18.835 120.122 25.311 118.926 30.9693C117.73 36.6276 114.933 41.7897 112.71 47.1239C110.487 52.4582 108.8 58.3291 109.991 63.9874L38.4293 63.752Z" fill="#F05D48"/>
<path d="M68.7869 28.8528C70.1716 26.5667 71.3726 24.1287 71.9038 21.5084C72.5987 18.0805 72.0045 14.4627 69.6429 11.7893C66.3146 8.02468 59.4641 6.23985 54.7712 8.11836C52.8376 8.89305 51.1583 10.5184 50.7152 12.5614C49.9625 16.0197 52.5858 19.0122 54.2123 21.7717C55.0859 23.2553 55.738 24.9819 55.8009 26.7211C55.8588 28.3819 54.824 29.9161 55.0758 31.5921C55.2168 32.5339 55.7807 33.3769 56.5109 33.987C58.1071 35.3212 60.3629 35.8073 62.3644 35.2934C65.4586 34.501 67.2361 31.4149 68.7869 28.8528Z" fill="#F05D48"/>
<path d="M61.6973 18.5058H27.344C27.2785 18.5058 27.2231 18.5589 27.2231 18.6273V45.7441C27.2231 45.8099 27.276 45.8656 27.344 45.8656H61.6973C61.7628 45.8656 61.8182 45.8125 61.8182 45.7441V18.6273C61.8182 18.5615 61.7628 18.5058 61.6973 18.5058ZM51.2818 32.0654H48.0819V28.9388H51.2818V32.0654ZM51.5235 28.9388H54.7235V32.0654H51.5235V28.9388ZM44.4011 32.3085V35.4351H41.2011V32.3085H44.4011ZM41.2011 32.0654V28.9388H44.4011V32.0654H41.2011ZM44.6428 32.3085H47.8427V35.4351H44.6428V32.3085ZM44.6428 32.0654V28.9388H47.8427V32.0654H44.6428ZM48.0819 28.6983V25.5717H51.2818V28.6983H48.0819ZM47.8427 28.6983H44.6428V25.5717H47.8427V28.6983ZM44.4011 28.6983H41.2011V25.5717H44.4011V28.6983ZM40.9595 28.6983H37.7595V25.5717H40.9595V28.6983ZM40.9595 28.9388V32.0654H37.7595V28.9388H40.9595ZM37.5203 32.0654H34.3204V28.9388H37.5203V32.0654ZM34.0787 32.0654H30.8788V28.9388H34.0787V32.0654ZM34.0787 32.3085V35.4351H30.8788V32.3085H34.0787ZM34.3204 32.3085H37.5203V35.4351H34.3204V32.3085ZM37.7595 32.3085H40.9595V35.4351H37.7595V32.3085ZM40.9595 35.6756V38.8022H37.7595V35.6756H40.9595ZM41.2011 35.6756H44.4011V38.8022H41.2011V35.6756ZM44.6428 35.6756H47.8427V38.8022H44.6428V35.6756ZM48.0819 35.6756H51.2818V38.8022H48.0819V35.6756ZM48.0819 35.4326V32.3085H51.2818V35.4351H48.0819V35.4326ZM51.5235 32.3085H54.7235V35.4351H51.5235V32.3085ZM54.9626 32.3085H58.1626V35.4351H54.9626V32.3085ZM54.9626 32.0654V28.9388H58.1626V32.0654H54.9626ZM54.9626 28.6983V25.5717H58.1626V28.6983H54.9626ZM54.7235 28.6983H51.5235V25.5717H54.7235V28.6983ZM51.5235 25.3287V22.2046H54.7235V25.3312H51.5235V25.3287ZM51.2818 25.3287H48.0819V22.2046H51.2818V25.3287ZM47.8427 25.3287H44.6428V22.2046H47.8427V25.3287ZM44.4011 25.3287H41.2011V22.2046H44.4011V25.3287ZM40.9595 25.3287H37.7595V22.2046H40.9595V25.3287ZM37.5203 25.3287H34.3204V22.2046H37.5203V25.3287ZM37.5203 25.5717V28.6983H34.3204V25.5717H37.5203ZM34.0787 28.6983H30.8788V25.5717H34.0787V28.6983ZM30.6371 28.6983H27.4648V25.5717H30.6371V28.6983ZM30.6371 28.9388V32.0654H27.4648V28.9388H30.6371ZM30.6371 32.3085V35.4351H27.4648V32.3085H30.6371ZM30.6371 35.6756V38.8022H27.4648V35.6756H30.6371ZM30.8788 35.6756H34.0787V38.8022H30.8788V35.6756ZM34.3204 35.6756H37.5203V38.8022H34.3204V35.6756ZM37.5203 39.0428V42.1694H34.3204V39.0428H37.5203ZM37.7595 39.0428H40.9595V42.1694H37.7595V39.0428ZM41.2011 39.0428H44.4011V42.1694H41.2011V39.0428ZM44.6428 39.0428H47.8427V42.1694H44.6428V39.0428ZM48.0819 39.0428H51.2818V42.1694H48.0819V39.0428ZM51.5235 39.0428H54.7235V42.1694H51.5235V39.0428ZM51.5235 38.8022V35.6756H54.7235V38.8022H51.5235ZM54.9626 35.6756H58.1626V38.8022H54.9626V35.6756ZM58.4043 35.6756H61.5765V38.8022H58.4043V35.6756ZM58.4043 35.4326V32.3085H61.5765V35.4351H58.4043V35.4326ZM58.4043 32.0654V28.9388H61.5765V32.0654H58.4043ZM58.4043 28.6983V25.5717H61.5765V28.6983H58.4043ZM58.4043 25.3287V22.2046H61.5765V25.3312H58.4043V25.3287ZM58.1626 25.3287H54.9626V22.2046H58.1626V25.3287ZM54.9626 21.9615V18.7488H58.1626V21.9615H54.9626ZM54.7235 21.9615H51.5235V18.7488H54.7235V21.9615ZM51.2818 21.9615H48.0819V18.7488H51.2818V21.9615ZM47.8427 21.9615H44.6428V18.7488H47.8427V21.9615ZM44.4011 21.9615H41.2011V18.7488H44.4011V21.9615ZM40.9595 21.9615H37.7595V18.7488H40.9595V21.9615ZM37.5203 21.9615H34.3204V18.7488H37.5203V21.9615ZM34.0787 21.9615H30.8788V18.7488H34.0787V21.9615ZM34.0787 22.2046V25.3312H30.8788V22.2046H34.0787ZM30.6371 25.3287H27.4648V22.2046H30.6371V25.3287ZM27.4648 39.0428H30.6371V42.1694H27.4648V39.0428ZM30.8788 39.0428H34.0787V42.1694H30.8788V39.0428ZM34.0787 42.4124V45.6251H30.8788V42.4124H34.0787ZM34.3204 42.4124H37.5203V45.6251H34.3204V42.4124ZM37.7595 42.4124H40.9595V45.6251H37.7595V42.4124ZM41.2011 42.4124H44.4011V45.6251H41.2011V42.4124ZM44.6428 42.4124H47.8427V45.6251H44.6428V42.4124ZM48.0819 42.4124H51.2818V45.6251H48.0819V42.4124ZM51.5235 42.4124H54.7235V45.6251H51.5235V42.4124ZM54.9626 42.4124H58.1626V45.6251H54.9626V42.4124ZM54.9626 42.1694V39.0428H58.1626V42.1694H54.9626ZM58.4043 39.0428H61.5765V42.1694H58.4043V39.0428ZM61.5765 21.9615H58.4043V18.7488H61.5765V21.9615ZM30.6371 18.7488V21.9615H27.4648V18.7488H30.6371ZM27.4648 42.4124H30.6371V45.6251H27.4648V42.4124ZM58.4043 45.6251V42.4124H61.5765V45.6251H58.4043Z" fill="#E7DFC2"/>
<path d="M41.3921 26.2604C41.3921 26.2604 42.16 33.1541 45.9692 34.3542L52.9783 32.3769C52.9783 32.3769 48.794 30.4402 48.366 26.2604H41.3921Z" fill="#FEDEA6"/>
<path d="M37.7594 32.6326C37.7594 32.6326 37.1753 40.4808 34.2749 41.8454L28.9375 39.5947C28.9375 39.5947 32.1248 37.3922 32.4496 32.6326H37.7594Z" fill="#F7F4E3"/>
<path d="M55.7838 20.7734L51.1157 22.1383L52.7311 27.7246L57.3991 26.3596L55.7838 20.7734Z" fill="#F7F4E3"/>
<path d="M55.5417 21.3269L51.6182 22.4741L52.6613 26.0816L56.5848 24.9344L55.5417 21.3269Z" fill="#FDFDFD"/>
<path d="M42.5188 37.7193L38.9277 36.7297L37.7573 41.0243L41.3483 42.014L42.5188 37.7193Z" fill="#D2CDB8"/>
<path d="M42.1411 37.9824L39.123 37.1506L38.3665 39.9267L41.3845 40.7584L42.1411 37.9824Z" fill="#E7DFC2"/>
<path d="M98.8853 35.5515C98.3742 35.5515 97.8606 35.5489 97.3495 35.5489C97.0977 35.5489 96.856 35.7717 96.8686 36.0325C96.8812 36.2958 97.0801 36.516 97.3495 36.516C97.8606 36.516 98.3742 36.5186 98.8853 36.5186C99.137 36.5186 99.3787 36.2958 99.3662 36.035C99.3536 35.7743 99.1547 35.554 98.8853 35.5515Z" fill="#CCC6AD"/>
<path d="M113.918 48.4C109.205 44.1872 104.492 39.9771 99.779 35.7644C99.0867 35.1466 98.062 36.1694 98.7594 36.7897L112.899 49.4253C113.588 50.0455 114.613 49.0227 113.918 48.4Z" fill="#CCC6AD"/>
<path d="M116.038 66.276H114.679C113.433 65.9165 111.444 65.6861 109.2 65.6861C106.957 65.6861 104.971 65.919 103.722 66.276H102.362C102.3 66.6431 102.362 67.157 102.362 67.157C102.362 67.9697 105.424 68.6279 109.198 68.6279C112.974 68.6279 116.033 67.9697 116.033 67.157C116.162 66.6127 116.038 66.276 116.038 66.276Z" fill="#CCC6AD"/>
<path d="M116.038 66.2761C116.038 67.0888 112.979 67.7495 109.205 67.7495C105.429 67.7495 102.37 67.0888 102.37 66.2761C102.37 65.466 105.431 64.8052 109.205 64.8052C109.479 64.8052 109.749 64.8078 110.013 64.8153C110.257 64.8229 110.497 64.8305 110.733 64.8432C113.772 64.99 116.038 65.5799 116.038 66.2761Z" fill="#E7DFC2"/>
<path d="M110.733 64.8406L110.026 66.0659L110.013 66.0862V64.8153C110.255 64.8229 110.497 64.828 110.733 64.8406Z" fill="#E7DFC2"/>
<path d="M112.891 48.7239L108.622 65.6988C108.392 66.6052 109.785 66.9925 110.014 66.0836C111.436 60.4253 112.861 54.767 114.284 49.1087C114.513 48.2024 113.121 47.8176 112.891 48.7239Z" fill="#E7DFC2"/>
<path d="M114.235 48.0809C109.522 43.8682 104.809 39.658 100.096 35.4453C99.4036 34.8276 98.3789 35.8503 99.0763 36.4731L113.215 49.1087C113.905 49.7265 114.93 48.7037 114.235 48.0809Z" fill="#E7DFC2"/>
<path d="M85.4971 35.5491C85.4971 35.5491 89.621 28.7971 94.9584 32.0149C100.296 35.2327 96.3179 42.0707 96.3179 42.0707L85.4971 35.5491Z" fill="#E7DFC2"/>
<path d="M96.3172 42.0734C96.0201 42.5721 94.1294 42.0025 91.8056 40.7822C91.3046 40.5189 90.7834 40.2252 90.2547 39.9062C89.726 39.5872 89.2225 39.2632 88.7567 38.9442C86.5915 37.4581 85.2018 36.0505 85.4989 35.5518C85.7758 35.0885 87.4349 35.5492 89.5422 36.6024C90.1817 36.9214 90.8665 37.2961 91.5639 37.7189C92.2613 38.1391 92.9108 38.567 93.4949 38.9872C95.4033 40.3543 96.5917 41.6075 96.3172 42.0734Z" fill="#C1B894"/>
<path d="M93.4902 38.9821C93.2963 39.8454 92.6467 40.5366 91.8059 40.7796C91.5918 40.8429 91.3627 40.8758 91.1261 40.8758C89.9579 40.8758 88.9836 40.0454 88.7545 38.9391C88.7217 38.777 88.7041 38.6074 88.7041 38.4353C88.7041 37.6986 89.0264 37.0428 89.54 36.5973C90.1794 36.9163 90.8642 37.291 91.5616 37.7137C92.2565 38.1365 92.9061 38.5644 93.4902 38.9821Z" fill="#FAC978"/>
<path d="M99.298 34.7845C97.7496 34.7845 97.7471 37.2048 99.298 37.2048C100.846 37.2048 100.849 34.7845 99.298 34.7845Z" fill="#E7DFC2"/>
<path d="M99.298 35.4958C98.661 35.4958 98.6585 36.4933 99.298 36.4933C99.9375 36.4933 99.9375 35.4958 99.298 35.4958Z" fill="#E7DFC2"/>
<path d="M113.455 47.2809C111.464 47.2809 111.461 50.3923 113.455 50.3923C115.446 50.3923 115.449 47.2809 113.455 47.2809Z" fill="#E7DFC2"/>
<path d="M113.455 48.2074C112.649 48.2074 112.647 49.4681 113.455 49.4681C114.26 49.4681 114.263 48.2074 113.455 48.2074Z" fill="#E7DFC2"/>
<path d="M47.2893 62.9798H38.7545C38.7545 62.9798 38.5228 68.109 41.0833 69.9267C41.2948 70.0761 41.5591 70.1546 41.8285 70.1546H43.0219H44.2152C44.4846 70.1546 44.749 70.0761 44.9605 69.9267C47.5209 68.1115 47.2893 62.9798 47.2893 62.9798Z" fill="#536969"/>
<path d="M47.2944 62.9822C47.2944 63.1341 45.8996 63.2658 44.0215 63.2987C43.7017 63.3063 43.3644 63.3088 43.0194 63.3088C42.7249 63.3088 42.4404 63.3063 42.1609 63.3012C40.2148 63.2734 38.7495 63.1392 38.7495 62.9822C38.7495 62.8379 39.9907 62.7139 41.7052 62.6708C42.1181 62.6607 42.5612 62.6556 43.022 62.6556C43.3845 62.6556 43.737 62.6582 44.0718 62.6658C45.9223 62.7012 47.2944 62.8303 47.2944 62.9822Z" fill="#405050"/>
<path d="M48.5124 64.4834C48.0593 63.9341 47.3241 63.8353 46.6569 63.8581C46.0401 63.8784 46.0376 64.8455 46.6569 64.8252C47.1428 64.81 47.664 64.8227 47.9132 65.3088C48.1449 65.7543 48.1046 66.3341 47.878 66.7746C47.3367 67.8379 46.1005 68.1316 45.0028 67.9822C44.746 67.9468 44.522 68.2303 44.522 68.4658C44.522 68.7569 44.7435 68.9139 45.0028 68.9493C46.1861 69.1088 47.4878 68.7822 48.2984 67.8531C49.0991 66.9341 49.3282 65.4733 48.5124 64.4834Z" fill="#536969"/>
<path opacity="0.5" d="M45.4288 60.0885C44.7818 60.7417 44.0844 61.4886 44.0643 62.4126C44.0617 62.5164 44.0693 62.6202 44.0743 62.7266C44.0869 62.9468 44.0995 63.1671 44.0265 63.3595C43.7067 63.3671 43.3694 63.3696 43.0245 63.3696C42.7299 63.3696 42.4454 63.3671 42.1659 63.362C41.9822 63.1924 41.8261 62.9696 41.7077 62.7316C41.5844 62.5038 41.4937 62.2633 41.4383 62.0481C41.3326 61.6405 41.325 61.205 41.4308 60.7974C41.7052 59.7316 42.6619 58.8607 42.6418 57.7619C42.6292 57.0505 42.2012 56.4176 41.7254 55.8936C41.247 55.372 40.6956 54.9037 40.3381 54.291C39.7263 53.248 39.7968 51.8327 40.5395 50.8808C41.2797 49.9289 42.6619 49.5264 43.7798 49.9669C44.9001 50.4099 45.6453 51.6808 45.449 52.8733C45.3206 53.6505 44.8447 54.4454 45.1468 55.1746C45.313 55.572 45.6756 55.8429 45.9802 56.1493C46.4032 56.5796 46.7304 57.1442 46.743 57.7493C46.7632 58.6708 46.0759 59.4354 45.4288 60.0885Z" fill="#54C1BB"/>
<path d="M51.5516 64.1013C51.5516 64.1013 46.121 42.4605 48.5556 39.8453C50.9902 37.23 71.2321 36.0199 73.4502 38.0452C75.6682 40.0706 75.4895 64.0734 75.4895 64.0734L51.5516 64.1013Z" fill="#54C1BB"/>
<path d="M73.4524 38.0453C73.3844 37.9846 73.2988 37.9238 73.1981 37.8681C66.481 37.4504 54.4769 38.6226 52.6365 40.5998C50.4763 42.9239 54.5146 60.2456 55.4462 64.0963L75.4892 64.0735C75.4892 64.0735 75.6705 40.0707 73.4524 38.0453Z" fill="#8DD1CD"/>
<path d="M79.5821 46.0883C79.5821 46.0883 83.7589 58.7062 84.8818 59.0201C86.0046 59.334 97.5103 61.5138 97.5103 61.5138L96.9488 64.3366C96.9488 64.3366 82.9306 64.7771 79.5821 62.3923C76.2311 60.0075 79.5821 46.0883 79.5821 46.0883Z" fill="#DDBB8F"/>
<path d="M79.5821 46.0883C79.5821 46.0883 76.2311 60.0075 79.5821 62.3923C80.8661 63.3062 83.7136 63.805 86.7398 64.0733L87.5505 60.0075L87.4347 59.9366L87.3491 59.5442C86.1028 59.2935 85.1663 59.0961 84.8843 59.0176C83.7589 58.7062 79.5821 46.0883 79.5821 46.0883Z" fill="#405050"/>
<path d="M88.7414 59.8228C88.2001 60.3975 87.8351 61.1114 87.6312 61.8583C87.4272 62.6051 87.3769 63.3823 87.4146 64.152C87.4197 64.2355 87.3341 64.3266 87.2485 64.3469C87.1629 64.3671 87.0722 64.3494 86.9841 64.3368C86.896 64.3241 86.8003 64.319 86.7248 64.3646C86.6493 64.4102 86.6065 64.4988 86.5259 64.5317C86.4227 64.5722 86.3119 64.514 86.2087 64.476C85.9846 64.3925 85.7354 64.4102 85.4962 64.3925C85.257 64.3773 84.9952 64.314 84.8567 64.1266C84.756 63.9925 84.7409 63.8178 84.7283 63.6532C84.6704 62.8886 84.62 62.0785 84.9801 61.3924C85.2092 60.957 85.5868 60.6 85.7832 60.1519C85.8789 59.9342 85.9267 59.6987 86.0576 59.4987C86.186 59.2987 86.4302 59.1367 86.6719 59.1899C86.8733 59.2354 87.0143 59.4152 87.2107 59.4709C87.3895 59.519 87.5758 59.4582 87.7596 59.438C88.1473 59.3949 88.4947 59.5291 88.7414 59.8228Z" fill="#536969"/>
<path d="M58.7588 64.1011H79.9977C79.4035 59.9542 78.8522 55.3643 78.9151 52.9845C78.968 51.0351 79.5798 46.1186 79.5798 46.1186C79.3456 45.8401 74.1014 41.7565 69.8314 41.8831C62.5881 42.1008 58.9073 47.2452 58.9073 47.2452C58.9073 47.2452 59.1515 51.0604 59.3303 53.0428C59.5443 55.4023 59.149 59.9694 58.7588 64.1011Z" fill="#F7F4E3"/>
<path d="M78.9126 53.4326C78.9126 53.2655 78.9126 53.106 78.9176 52.9541C78.968 51.0807 79.5345 46.4755 79.5798 46.1135C79.3582 45.8604 75.5843 42.916 71.8506 42.0932L71.8833 45.6958C71.8833 45.6958 73.2731 54.268 73.8874 64.0707H79.9952C79.4388 60.1795 78.9201 55.9035 78.9126 53.4326Z" fill="#405050"/>
<path d="M72.3388 41.5768L75.6924 45.5895L73.2049 44.8376L71.8806 45.6958L70.3726 41.9085L72.3388 41.5768Z" fill="#536969"/>
<path d="M58.7588 64.0734H68.487C67.49 55.3036 67.1652 46.9871 67.1652 46.9871L66.0726 42.4503C61.3192 43.8529 58.9073 47.2175 58.9073 47.2175C58.9073 47.2175 59.1515 51.0327 59.3303 53.015C59.5443 55.3745 59.149 59.9391 58.7588 64.0734Z" fill="#405050"/>
<path d="M78.744 32.5134C80.3981 31.3539 81.6142 29.4653 82.0573 27.3614C82.1983 26.6956 82.2637 25.9994 82.1328 25.3285C82.0044 24.6576 81.6595 24.0146 81.1257 23.6576C80.592 23.3006 79.8568 23.2829 79.3709 23.7032C79.0386 23.1183 78.3286 22.8551 77.7143 22.9664C77.1 23.0778 76.5562 23.4551 76.0451 23.8424C74.0335 22.9538 71.609 23.4677 70.0405 25.0804C68.7087 25.3108 67.5103 26.3437 66.974 27.6981C66.4378 29.0526 66.4302 30.6121 66.7323 32.0602C66.9488 33.0932 67.3416 34.1286 68.0717 34.8248C68.9504 35.6603 70.1815 35.8805 71.3371 35.8628C74.031 35.8198 76.4832 34.0982 78.744 32.5134Z" fill="#405050"/>
<path d="M68.2004 30.8502C67.7094 35.592 66.4858 43.9845 66.4858 43.9845C67.5533 45.8833 71.5791 45.6428 71.4859 45.0073C71.433 44.6478 71.5186 44.0225 71.7276 43.4605C71.8887 43.025 72.1254 42.625 72.4275 42.4123C72.5534 42.3237 72.7775 42.2959 73.067 42.2934C73.1148 42.2959 73.14 42.2934 73.14 42.2934C74.4718 42.3035 77.0524 42.8149 78.1778 41.1946C79.5776 39.1794 79.7312 33.5692 79.5802 30.8654C79.492 29.3185 78.1703 27.1489 75.5091 26.678C72.2563 26.1008 68.6938 26.078 68.2004 30.8502Z" fill="#FDBCA0"/>
<path d="M68.6631 40.9718C68.6631 40.9718 69.6701 42.4326 71.7271 43.4579C71.8882 43.0224 72.1249 42.6224 72.427 42.4098C72.5529 42.3212 72.7769 42.2933 73.0665 42.2908C72.6687 42.2807 70.6898 42.1591 68.6631 40.9718Z" fill="#F0A38B"/>
<path d="M76.2921 36.1566C76.4733 36.1541 76.6622 36.1591 76.8132 36.2731C76.9316 36.3617 76.987 36.5085 76.9769 36.6553C76.9492 36.9895 76.6496 37.1769 76.3525 37.2477C76.2568 37.2705 76.2115 37.1237 76.3072 37.1009C76.5338 37.0477 76.7881 36.9237 76.8233 36.6655C76.8384 36.5617 76.8032 36.4553 76.7176 36.392C76.5992 36.306 76.4406 36.311 76.2996 36.311C76.1989 36.3136 76.1939 36.1591 76.2921 36.1566Z" fill="#3F4553"/>
<path d="M74.3988 34.3136C74.3888 34.5971 74.5675 34.8326 74.7992 34.8402C75.0308 34.8478 75.2246 34.625 75.2347 34.3414C75.2448 34.0579 75.066 33.8224 74.8344 33.8148C74.6028 33.8073 74.4089 34.03 74.3988 34.3136Z" fill="#3F4553"/>
<path d="M77.1879 34.5844C77.1778 34.8679 77.3566 35.1033 77.5882 35.1109C77.8198 35.1185 78.0137 34.8958 78.0238 34.6122C78.0338 34.3287 77.8551 34.0932 77.6235 34.0856C77.3944 34.078 77.198 34.3008 77.1879 34.5844Z" fill="#3F4553"/>
<path d="M73.686 31.9135C74.1845 31.6021 74.8164 31.5413 75.3602 31.7818C75.4358 31.8148 75.4811 31.9008 75.4509 31.9818C75.4232 32.0578 75.33 32.1059 75.252 32.073C74.8164 31.8806 74.2877 31.9008 73.8799 32.1565C73.8094 32.1996 73.7212 32.2046 73.6633 32.1337C73.6155 32.073 73.6155 31.9591 73.686 31.9135Z" fill="#3F4553"/>
<path d="M78.9959 32.4123C78.5981 31.9769 78.0065 31.749 77.4198 31.8326C77.3368 31.8452 77.2738 31.9136 77.2814 31.9996C77.2889 32.0807 77.3645 32.1515 77.4475 32.1389C77.9183 32.0705 78.4219 32.2351 78.7467 32.5895C78.802 32.6503 78.8877 32.6781 78.9607 32.625C79.0211 32.5845 79.0513 32.4756 78.9959 32.4123Z" fill="#3F4553"/>
<path d="M73.0896 35.4326C73.0719 35.6503 73.3892 35.8554 73.797 35.8908C74.2074 35.9263 74.5548 35.7795 74.5725 35.5617C74.5901 35.344 74.2729 35.1389 73.865 35.1035C73.4546 35.0681 73.1072 35.2149 73.0896 35.4326Z" fill="#FBAD8B"/>
<path d="M77.6086 35.835C77.591 36.0527 77.9082 36.2578 78.3161 36.2932C78.7265 36.3287 79.0739 36.1818 79.0915 35.9641C79.1091 35.7464 78.7919 35.5413 78.384 35.5059C77.9737 35.4704 77.6262 35.6173 77.6086 35.835Z" fill="#FBAD8B"/>
<path d="M77.0597 38.7691C77.0119 39.0375 76.8633 39.2805 76.6594 39.4603C76.6216 39.4957 76.5864 39.5236 76.5461 39.5514C76.2868 39.7388 75.9645 39.8299 75.6448 39.84C75.1765 39.8577 74.6981 39.6957 74.3608 39.3691C74.2298 39.2425 74.1216 39.0932 74.0461 38.9286C73.9202 38.6679 73.8698 38.3717 73.9202 38.0881C73.9479 37.9286 74.0259 37.759 74.177 37.7185C74.2752 37.6932 74.3708 37.7261 74.4615 37.7792C74.5093 37.8071 74.5546 37.84 74.5974 37.8704C74.9474 38.1311 75.325 38.3691 75.748 38.4704C76.0451 38.5413 76.3698 38.5362 76.6569 38.4274C76.7525 38.3894 76.896 38.2628 77.0018 38.3286C77.0043 38.3311 77.0043 38.3311 77.0068 38.3311C77.1176 38.4172 77.0823 38.6552 77.0597 38.7691Z" fill="#4E5567"/>
<path d="M76.9988 38.3336C76.9786 38.407 76.9409 38.4804 76.893 38.5412C76.7873 38.6728 76.6287 38.7589 76.4676 38.8121C75.9237 38.9918 75.3069 38.8501 74.8361 38.5235C74.6851 38.4171 74.5416 38.288 74.4736 38.1133C74.4333 38.0095 74.4257 37.8905 74.4585 37.7842C74.5063 37.8121 74.5516 37.845 74.5944 37.8754C74.9444 38.1361 75.322 38.3741 75.745 38.4754C76.0421 38.5463 76.3669 38.5412 76.6539 38.4323C76.7495 38.3944 76.893 38.2678 76.9988 38.3336Z" fill="white"/>
<path d="M76.6597 39.4629C76.6219 39.4983 76.5867 39.5262 76.5464 39.554C76.2871 39.7414 75.9648 39.8325 75.6451 39.8427C75.1768 39.8604 74.6985 39.6984 74.3611 39.3718C74.2302 39.2452 74.1219 39.0958 74.0464 38.9313C74.4089 38.8933 74.779 38.8882 75.1441 38.9161C75.5796 38.949 76.0227 39.0325 76.3954 39.2578C76.486 39.3186 76.5766 39.3844 76.6597 39.4629Z" fill="#3F4553"/>
<path d="M76.9535 29.817C75.8105 30.0525 74.5492 29.5487 73.8795 28.5867C73.7964 28.8778 73.5547 29.1183 73.2626 29.2018C72.9731 29.2854 72.6408 29.2069 72.4167 29.0018C72.3714 29.9386 72.1272 30.8829 71.5909 31.6474C71.0547 32.4145 70.2037 32.9842 69.2747 33.0576C68.756 33.0981 68.2047 32.974 67.817 32.6221C67.4569 32.293 67.2782 31.8095 67.1699 31.3335C66.9106 30.1867 66.9887 28.9512 67.4595 27.8727C67.9277 26.7942 68.7963 25.8828 69.8764 25.4271C70.9086 24.9891 72.0668 24.979 73.1871 25.017C74.3402 25.0575 75.5034 25.1486 76.5985 25.5157C77.4873 25.8119 78.3307 26.3031 78.9525 27.0145C79.0734 27.1537 79.2849 27.3487 79.2823 27.5436C79.2798 27.7335 79.1464 27.9816 79.0633 28.1487C78.8695 28.5411 78.5925 28.8879 78.2602 29.1689C77.8876 29.4905 77.4344 29.7183 76.9535 29.817Z" fill="#405050"/>
<path d="M68.6835 33.1184C68.2933 32.6577 67.7268 32.3083 67.1075 32.3589C66.4957 32.4095 66.0148 32.8273 65.8587 33.4222C65.7555 33.8222 65.7882 34.245 65.8637 34.6526C65.9418 35.0805 66.0626 35.5033 66.2666 35.8855C66.6518 36.6071 67.4549 37.2653 68.3184 36.9792C69.469 36.5969 69.5471 35.1716 69.26 34.1767C69.1493 33.807 68.9479 33.4323 68.6835 33.1184Z" fill="#FDBCA0"/>
<path d="M67.163 33.3892C67.0573 33.3335 66.9666 33.493 67.0698 33.5487C67.805 33.931 68.2154 34.7538 68.0668 35.5766C68.0467 35.6931 68.2229 35.7412 68.2431 35.6247C68.4067 34.726 67.9762 33.812 67.163 33.3892Z" fill="#F0A38B"/>
<path d="M68.0035 34.3437C67.6913 34.2146 67.3464 34.1867 67.0191 34.2551C66.9713 34.2652 66.9436 34.3234 66.9562 34.369C66.9713 34.4196 67.0191 34.4424 67.0695 34.4323C67.3665 34.3715 67.6762 34.4045 67.9582 34.5209C68.0035 34.5386 68.0589 34.5007 68.0715 34.4576C68.0816 34.4045 68.0488 34.3639 68.0035 34.3437Z" fill="#F0A38B"/>
<path d="M66.8756 41.5768L64.8263 42.4477L63.001 47.6528L66.1128 45.9693L67.1677 46.987L66.8756 41.5768Z" fill="#536969"/>
<path d="M58.9099 47.2187C58.9099 47.2187 50.8333 61.5151 52.5805 63.9632C54.3278 66.4113 69.9296 68.7962 69.9296 68.7962L70.5717 65.6214C70.5717 65.6214 59.212 62.5024 58.9779 61.6087L59.2649 58.0264C59.2624 58.0264 60.1989 48.4972 58.9099 47.2187Z" fill="#FDBCA0"/>
<path d="M58.9753 61.6074L59.2624 58.0251C59.2624 58.0251 60.1989 48.4959 58.9099 47.2148C58.9099 47.2148 50.8333 61.5112 52.5805 63.9593C53.1445 64.7492 55.1586 65.534 57.6234 66.2353L58.3862 65.9695L59.8867 62.1998C59.3505 61.9593 59.0131 61.7543 58.9753 61.6074Z" fill="#405050"/>
<path d="M61.7121 62.6175C60.4608 63.734 59.63 65.3188 59.4185 66.9872C59.0887 66.9922 58.784 66.8555 58.5121 66.6682C58.1924 66.8859 57.7694 66.8378 57.3893 66.7796C57.2382 66.7568 57.0695 66.7239 56.9814 66.5998C56.9235 66.5188 56.9134 66.415 56.9034 66.3163C56.8656 65.9264 56.8278 65.5289 56.921 65.1492C57.0116 64.7795 57.2206 64.4504 57.427 64.1289C57.7845 63.5745 58.142 63.0175 58.4995 62.4631C58.6229 62.2732 58.7463 62.0782 58.925 61.9415C59.1038 61.8023 59.3455 61.7263 59.557 61.8023C59.6879 61.8504 59.7936 61.9491 59.917 62.015C60.1234 62.1238 60.3651 62.1314 60.5968 62.1238C60.8284 62.1162 61.065 62.0934 61.2891 62.1542C61.5132 62.215 61.6642 62.3871 61.7121 62.6175Z" fill="#536969"/>
<path d="M59.2901 49.582C59.2574 52.6782 59.1391 55.7745 58.9326 58.8657C58.8747 59.7442 58.8067 60.6227 58.7337 61.5011C58.7136 61.7366 59.0811 61.729 59.1013 61.4935C59.3581 58.4074 59.5268 55.3137 59.6099 52.2175C59.6325 51.3365 59.6476 50.4554 59.6577 49.5769C59.6602 49.3364 59.2926 49.344 59.2901 49.582Z" fill="#A1B8B8"/>
<path d="M69.9268 68.7925C69.9268 68.7925 76.1353 71.3343 76.4173 70.8154C76.6992 70.2989 73.7561 69.3166 73.7561 69.3166C73.7561 69.3166 77.8825 70.1571 77.9908 69.7318C78.0991 69.309 74.1287 68.2508 74.1287 68.2508C74.1287 68.2508 78.8695 69.1217 78.9274 68.6255C78.9853 68.1292 74.7455 67.1976 74.7455 67.1976C74.7455 67.1976 78.7285 67.4254 78.7562 67.0634C78.804 66.4128 70.5688 65.6178 70.5688 65.6178L69.9268 68.7925Z" fill="#FDBCA0"/>
<path d="M71.1606 65.681C71.1606 65.681 74.3279 64.5266 74.6476 64.7772C74.9673 65.0279 73.2503 66.2912 73.2503 66.2912L71.1606 65.681Z" fill="#FDBCA0"/>
<path d="M61.8184 62.286H45.4234C45.2497 62.286 45.1465 62.4278 45.1943 62.6025L48.0468 73.0254C48.0947 73.2001 48.2734 73.3419 48.4471 73.3419H64.8421C65.0158 73.3419 65.119 73.2001 65.0712 73.0254L62.2187 62.6025C62.1734 62.4278 61.9921 62.286 61.8184 62.286Z" fill="#E7DFC2"/>
<path d="M63.8396 73.2154L61.4177 64.3697C61.3774 64.2203 61.2238 64.1013 61.0778 64.1013H47.1652C47.0167 64.1013 46.9311 64.2203 46.9714 64.3697L49.3933 73.2154C49.3908 73.2103 49.4085 73.2736 49.4286 73.3394H63.8774L63.8396 73.2154Z" fill="#F7F4E3"/>
<path d="M46.6142 63.0684C46.6142 63.2836 46.4404 63.4557 46.229 63.4557C46.015 63.4557 45.8438 63.281 45.8438 63.0684C45.8438 62.8557 46.0175 62.681 46.229 62.681C46.4404 62.681 46.6142 62.8557 46.6142 63.0684Z" fill="#405050"/>
<path d="M46.4078 63.0684C46.4078 63.1671 46.3272 63.2481 46.229 63.2481C46.1309 63.2481 46.0503 63.1671 46.0503 63.0684C46.0503 62.9696 46.1309 62.8886 46.229 62.8886C46.3272 62.8886 46.4078 62.9696 46.4078 63.0684Z" fill="#576E6E"/>
<path d="M60.7711 64.2229H46.8586C46.71 64.2229 46.6244 64.3419 46.6647 64.4912L49.0867 73.3369C49.0842 73.3268 49.1622 73.6053 49.1622 73.6053H63.6085L63.5355 73.3369L61.1135 64.4912C61.0707 64.3419 60.9197 64.2229 60.7711 64.2229Z" fill="#EBB254"/>
<path d="M63.5326 73.3369L61.9742 67.6406H47.5254L49.0838 73.3369C49.0813 73.3268 49.1593 73.6053 49.1593 73.6053H63.6056L63.5326 73.3369Z" fill="#FEDEA6"/>
<path d="M60.7986 74.9749H46.3599L49.167 73.6052H63.6058L60.7986 74.9749Z" fill="#EBB254"/>
<path d="M79.21 47.3795L108.644 42.4604C109.125 42.3794 109.563 42.7591 109.56 43.2553L109.434 62.0353C109.432 62.4151 109.17 62.7391 108.805 62.8151L80.0912 68.7898C79.3862 68.9569 78.5479 68.5063 78.5479 67.4658V48.1693C78.5504 47.7795 78.8298 47.4453 79.21 47.3795Z" fill="#FEDEA6"/>
<path d="M80.5415 47.3262L108.644 42.64C109.124 42.559 109.562 42.9362 109.56 43.4274L109.439 62.0656C109.437 62.4403 109.175 62.7618 108.81 62.8377L80.8285 68.6176C80.3401 68.7188 79.8818 68.3441 79.8818 67.8403V48.111C79.8844 47.7186 80.1613 47.3895 80.5415 47.3262Z" fill="#FAC978"/>
<path d="M93.2432 57.0985L91.6143 66.3847L100.466 64.5568L93.2432 57.0985Z" fill="#EBB254"/>
<path d="M92.8759 74.0936L88.9912 72.767C88.3693 72.5543 88.4071 71.6581 89.044 71.4986L95.6302 69.8404C95.746 69.8125 95.8643 69.8151 95.9776 69.848L99.8019 70.9974C100.434 71.1872 100.426 72.0885 99.7919 72.2683L93.2661 74.1037C93.1377 74.1392 93.0018 74.1366 92.8759 74.0936Z" fill="#EBB254"/>
<path d="M98.6868 56.2125C98.6113 55.8631 98.2764 55.6378 97.9265 55.7011L93.7824 56.4555C93.4727 56.5112 93.2461 56.7821 93.2411 57.0985L93.0674 74.1595L101.98 71.6506L98.6868 56.2125ZM97.6268 69.4784C96.3781 69.6076 95.2175 68.2481 95.0337 66.4404C94.8499 64.6353 95.7134 63.0657 96.9622 62.9391C98.2109 62.81 99.3716 64.1695 99.5554 65.9771C99.7392 67.7822 98.8756 69.3493 97.6268 69.4784Z" fill="#FEDEA6"/>
<path d="M96.3552 25.5792C92.1381 25.5792 88.7065 22.1285 88.7065 17.8879C88.7065 13.6474 92.1381 10.1967 96.3552 10.1967C100.572 10.1967 104.004 13.6474 104.004 17.8879C104.004 22.1285 100.572 25.5792 96.3552 25.5792ZM96.3552 12.3765C93.3315 12.3765 90.8717 14.8499 90.8717 17.8905C90.8717 20.931 93.3315 23.4044 96.3552 23.4044C99.3789 23.4044 101.839 20.931 101.839 17.8905C101.839 14.8499 99.3789 12.3765 96.3552 12.3765Z" fill="#F5E2D5"/>
<path d="M93.4903 19.8296L93.1504 19.1891L96.0482 17.6423L97.2718 13.0371L97.9692 13.2245L96.665 18.1359L93.4903 19.8296Z" fill="#F5E2D5"/>
</g>
<path d="M48.5234 110.793H50.2681C50.1772 111.629 49.9379 112.377 49.5502 113.037C49.1625 113.698 48.6142 114.222 47.9054 114.609C47.1966 114.991 46.3121 115.182 45.252 115.182C44.4765 115.182 43.7708 115.036 43.1347 114.746C42.5046 114.455 41.9624 114.043 41.5081 113.51C41.0537 112.971 40.7023 112.325 40.4539 111.574C40.2116 110.817 40.0905 109.975 40.0905 109.048V107.73C40.0905 106.803 40.2116 105.964 40.4539 105.213C40.7023 104.456 41.0567 103.808 41.5171 103.268C41.9836 102.729 42.544 102.314 43.1983 102.024C43.8525 101.733 44.5886 101.587 45.4065 101.587C46.406 101.587 47.2511 101.775 47.9418 102.151C48.6324 102.526 49.1685 103.047 49.5502 103.714C49.9379 104.374 50.1772 105.14 50.2681 106.013H48.5234C48.4385 105.395 48.281 104.865 48.0508 104.423C47.8206 103.974 47.4935 103.629 47.0694 103.387C46.6453 103.144 46.091 103.023 45.4065 103.023C44.8188 103.023 44.3008 103.135 43.8525 103.359C43.4103 103.583 43.0377 103.902 42.7348 104.313C42.438 104.725 42.2138 105.219 42.0624 105.795C41.9109 106.37 41.8352 107.009 41.8352 107.712V109.048C41.8352 109.696 41.9018 110.305 42.0351 110.874C42.1745 111.444 42.3835 111.944 42.6621 112.374C42.9408 112.804 43.2952 113.143 43.7253 113.392C44.1555 113.634 44.6643 113.755 45.252 113.755C45.9971 113.755 46.5908 113.637 47.0331 113.401C47.4753 113.164 47.8085 112.825 48.0326 112.383C48.2629 111.941 48.4264 111.411 48.5234 110.793ZM56.411 105.168V115H54.7208V105.168H56.411ZM59.7097 105.168V106.531H51.4858V105.168H59.7097ZM67.0157 113.319V108.257C67.0157 107.87 66.937 107.533 66.7795 107.249C66.628 106.958 66.3978 106.734 66.0888 106.576C65.7799 106.419 65.3982 106.34 64.9439 106.34C64.5198 106.34 64.1472 106.413 63.8261 106.558C63.5111 106.703 63.2627 106.894 63.081 107.131C62.9053 107.367 62.8175 107.621 62.8175 107.894H61.1363C61.1363 107.542 61.2272 107.194 61.409 106.849C61.5907 106.503 61.8512 106.192 62.1905 105.913C62.5358 105.628 62.9477 105.404 63.4263 105.24C63.911 105.071 64.4501 104.986 65.0438 104.986C65.7587 104.986 66.3887 105.107 66.934 105.349C67.4852 105.592 67.9154 105.958 68.2243 106.449C68.5394 106.934 68.6969 107.542 68.6969 108.275V112.855C68.6969 113.183 68.7241 113.531 68.7786 113.9C68.8392 114.27 68.9271 114.588 69.0422 114.855V115H67.2884C67.2035 114.806 67.1369 114.549 67.0884 114.228C67.04 113.9 67.0157 113.598 67.0157 113.319ZM67.3065 109.039L67.3247 110.22H65.6254C65.1468 110.22 64.7197 110.26 64.3441 110.338C63.9685 110.411 63.6535 110.523 63.399 110.675C63.1446 110.826 62.9507 111.017 62.8175 111.247C62.6842 111.471 62.6175 111.735 62.6175 112.038C62.6175 112.347 62.6872 112.628 62.8266 112.883C62.9659 113.137 63.1749 113.34 63.4536 113.492C63.7383 113.637 64.0866 113.71 64.4986 113.71C65.0135 113.71 65.4679 113.601 65.8617 113.382C66.2554 113.164 66.5674 112.898 66.7976 112.583C67.0339 112.268 67.1611 111.962 67.1793 111.665L67.8972 112.474C67.8548 112.728 67.7397 113.01 67.5519 113.319C67.3641 113.628 67.1127 113.925 66.7976 114.209C66.4887 114.488 66.1191 114.721 65.689 114.909C65.2649 115.091 64.7864 115.182 64.2532 115.182C63.5868 115.182 63.0022 115.051 62.4994 114.791C62.0027 114.53 61.6149 114.182 61.3363 113.746C61.0636 113.304 60.9273 112.81 60.9273 112.265C60.9273 111.738 61.0303 111.274 61.2363 110.874C61.4423 110.469 61.7391 110.132 62.1268 109.866C62.5146 109.593 62.981 109.387 63.5263 109.248C64.0715 109.108 64.6803 109.039 65.3528 109.039H67.3065ZM75.2033 105.168V115H73.5131V105.168H75.2033ZM78.5019 105.168V106.531H70.278V105.168H78.5019ZM81.537 108.548H84.4904C85.284 108.548 85.9534 108.687 86.4986 108.966C87.0439 109.239 87.4558 109.617 87.7345 110.102C88.0192 110.581 88.1616 111.126 88.1616 111.738C88.1616 112.192 88.0828 112.619 87.9253 113.019C87.7678 113.413 87.5315 113.758 87.2165 114.055C86.9075 114.352 86.5229 114.585 86.0624 114.755C85.6081 114.918 85.0841 115 84.4904 115H80.3103V105.168H81.9914V113.619H84.4904C84.975 113.619 85.3627 113.531 85.6535 113.355C85.9443 113.18 86.1533 112.952 86.2805 112.674C86.4078 112.395 86.4714 112.104 86.4714 111.801C86.4714 111.504 86.4078 111.214 86.2805 110.929C86.1533 110.644 85.9443 110.408 85.6535 110.22C85.3627 110.026 84.975 109.929 84.4904 109.929H81.537V108.548ZM92.0781 112.337L96.6126 105.168H98.3029V115H96.6126V107.83L92.0781 115H90.4061V105.168H92.0781V112.337Z" fill="#FFECCC"/>
<defs>
<clipPath id="clip0_130_2249">
<rect width="95.2025" height="68.5781" fill="white" transform="translate(24.2476 7.36639)"/>
</clipPath>
</defs>
</svg>
