<svg width="180" height="169" viewBox="0 0 180 169" fill="none" xmlns="http://www.w3.org/2000/svg">
<rect width="180" height="169" rx="10" fill="#8E97FD"/>
<mask id="mask0_216_2133" style="mask-type:alpha" maskUnits="userSpaceOnUse" x="0" y="0" width="180" height="169">
<rect width="180" height="169" rx="10" fill="#8E97FD"/>
</mask>
<g mask="url(#mask0_216_2133)">
<path d="M125.848 -0.305871C117.627 3.62983 110.737 9.26964 102.027 12.475C92.4385 16.0013 81.5051 16.2705 71.3301 18.539C53.511 22.5116 38.1856 32.9908 30.616 46.3803C23.0464 59.7698 23.3721 75.815 31.486 89.0016C33.8635 92.8672 36.9341 96.5447 41.126 99.278C50.1147 105.143 62.7974 105.829 74.3775 104.892C85.9576 103.955 97.5144 101.668 109.094 102.598C117.19 103.251 125.006 105.46 133.125 105.903C141.201 106.342 149.287 105.006 156.973 102.989C171.382 99.2042 185.079 92.7382 194.021 83.0151C202.963 73.292 206.481 60.0132 200.753 48.8701C195.501 38.6454 183.549 31.4932 177.03 21.7333C173.941 17.1078 172.141 11.9881 168.898 7.42905C160.477 -4.41493 139.917 -7.04119 125.848 -0.305871Z" fill="#808AFF"/>
<path d="M84.785 -1.69612C83.3799 -1.14652 81.9935 -0.526846 80.8908 0.354721C79.8208 1.21047 79.0671 2.27277 78.3366 3.3277C77.0432 5.20149 75.7498 7.38512 76.6757 9.38801C77.2852 10.7048 78.7833 11.6712 80.4396 12.1692C82.0958 12.6635 83.8964 12.7446 85.6643 12.7262C91.024 12.6708 96.3651 11.7413 101.264 10.0188C102.739 9.49867 104.191 8.90112 105.414 8.06751C106.656 7.22282 107.643 6.15314 108.392 4.99862C109.699 2.98467 110.225 0.358409 108.471 -1.43423C107.219 -2.71416 105.126 -3.24901 103.125 -3.56991C96.6861 -4.60271 90.689 -4.00885 84.785 -1.69612Z" fill="#808AFF"/>
<path d="M167.441 104.786C167.358 104.786 167.274 104.756 167.223 104.697C167.13 104.601 167.158 104.465 167.279 104.391C176.895 98.6407 184.4 90.9316 188.973 82.1012C189.759 80.5852 190.192 78.3314 189.294 76.9593C188.908 76.3691 188.303 75.9966 187.503 75.8564C186.438 75.6646 185.33 76.0076 184.372 76.347C182.367 77.0478 180.422 77.8962 178.593 78.8663C177.7 79.3384 176.816 79.8511 175.974 80.3823C175.872 80.445 175.728 80.5593 175.555 80.6921C174.709 81.345 174.02 81.8356 173.48 81.6733C173.345 81.6327 173.271 81.5147 173.313 81.4077C173.448 81.0462 173.611 80.7069 173.764 80.3786C174.118 79.6335 174.448 78.9253 174.467 78.0659C174.481 77.3835 174.29 76.904 173.899 76.6421C173.545 76.406 173.001 76.3249 172.285 76.3949C170.689 76.5536 169.205 77.2728 168.214 78.3646C168.144 78.4421 168.014 78.4753 167.902 78.4421C167.786 78.4089 167.711 78.3241 167.716 78.2245C167.748 77.6527 167.897 77.0663 168.042 76.5019C168.116 76.2105 168.19 75.9191 168.246 75.6314C169.591 68.8887 170.261 62.0095 170.228 55.1857C170.219 52.7992 169.665 47.1557 164.771 46.2336C161.747 45.6655 158.723 47.3881 156.894 49.1881C152.451 53.5738 151.404 59.6304 150.562 64.4993C150.544 64.61 150.423 64.6874 150.283 64.6874C150.143 64.6838 150.027 64.5989 150.013 64.4883C149.86 63.1604 148.92 61.8841 147.436 60.9915C145.951 60.0989 144.146 59.7263 142.49 59.9661C140.834 60.2095 139.322 61.069 138.335 62.3231C137.67 63.1678 137.316 64.1047 137.298 65.0157C137.503 65.462 137.582 65.9305 137.512 66.4026C137.498 66.5059 137.391 66.5871 137.261 66.5944C137.116 66.6018 137.009 66.5354 136.972 66.4358C136.819 66.0006 136.744 65.5506 136.744 65.0932C136.493 64.5989 136.056 64.1378 135.451 63.7579C134.064 62.88 132.096 62.5776 130.556 63.0055C127.458 63.8686 125.843 66.5686 125.364 68.8076C125.364 68.8076 125.364 68.8076 125.364 68.8113C125.341 68.9293 125.201 69.0068 125.048 68.992C124.899 68.9736 124.797 68.8592 124.82 68.7412C125.076 67.4797 124.35 66.2661 122.819 65.403C120.754 64.2374 117.897 64.0309 115.873 64.8977C111.872 66.6166 110.495 70.6039 110.043 73.647C110.03 73.7576 109.909 73.8388 109.769 73.8388C109.769 73.8388 109.764 73.8388 109.76 73.8388C109.615 73.8351 109.504 73.7466 109.494 73.6359L108.615 62.6182C108.392 59.7964 107.359 54.9791 102.976 54.4369C98.8123 53.9205 96.0022 57.8341 95.2439 59.0439C92.885 62.7952 91.6707 66.978 91.7173 71.1682C91.7359 71.349 91.7405 71.5297 91.7312 71.7105C91.7219 71.8285 91.5916 71.9133 91.4521 71.917C91.3032 71.917 91.1822 71.8211 91.1776 71.7068C91.1729 71.5334 91.1683 71.3637 91.1636 71.1904C91.038 70.0801 90.2843 68.9809 89.0653 68.1768C87.6649 67.251 85.8923 66.8748 84.3244 67.1698C82.7565 67.4649 81.3841 68.4276 80.649 69.7518C79.9185 71.076 79.9511 72.5293 80.742 73.6433C80.8071 73.7318 80.7839 73.8461 80.6862 73.9125C80.5885 73.9789 80.4442 73.9863 80.3419 73.9273C78.6903 72.9867 78.104 71.3305 77.5364 69.726C76.9083 67.9555 76.3128 66.2809 74.3774 65.7166C72.3815 65.1338 70.1529 66.3178 69.2317 67.7526C68.2268 69.3166 68.2593 71.1904 68.2873 72.8429C68.2873 72.9535 68.1896 73.0457 68.05 73.0605C67.9151 73.0789 67.7848 73.0088 67.7429 72.9056C65.3469 66.3067 60.2338 60.3718 53.3574 56.2001C50.417 54.4148 46.2856 53.3672 44.164 55.2742C43.2149 56.13 42.973 57.3767 42.852 58.5939C42.1448 65.8198 44.0663 73.3482 48.2629 79.7884C48.328 79.8843 48.2908 80.0024 48.1791 80.0651C48.0675 80.1278 47.9139 80.1167 47.8209 80.0356C46.6159 79.0101 45.2481 77.8519 43.508 77.306C41.9541 76.8191 39.7302 76.9335 38.6741 78.1064C38.1344 78.7077 37.9808 79.4823 37.9157 80.0909C37.7017 81.9794 38.0832 83.9012 39.023 85.6459C39.0788 85.7528 39.023 85.8746 38.8927 85.9262C38.7625 85.9778 38.6043 85.941 38.5298 85.8414C37.1713 83.9639 35.4406 81.8946 32.9003 80.7438C30.6252 79.7147 27.1173 79.5228 25.0934 81.1901C21.4365 84.2073 25.7215 89.2533 27.736 91.282C32.2815 95.8632 37.4365 101.06 44.6618 103.583C44.8014 103.631 44.8619 103.76 44.8014 103.871C44.7409 103.982 44.5781 104.033 44.4385 103.982C37.0876 101.414 31.8907 96.173 27.3034 91.5513C25.2004 89.4303 20.734 84.152 24.6933 80.8839C26.9125 79.0544 30.7136 79.2499 33.1702 80.3601C35.087 81.227 36.5525 82.5807 37.7436 83.9934C37.3435 82.7098 37.2085 81.3708 37.3621 80.0503C37.4365 79.3901 37.604 78.5417 38.2228 77.8519C39.4557 76.4835 41.9169 76.3359 43.7081 76.9003C44.9782 77.2986 46.0436 77.9884 46.9834 78.7224C43.2428 72.4408 41.6238 65.5026 42.303 58.557C42.4286 57.2624 42.6938 55.9345 43.75 54.9828C46.1041 52.8619 50.5519 53.9463 53.6924 55.8496C60.1872 59.789 65.1236 65.2702 67.7336 71.408C67.7708 70.1059 67.9662 68.7559 68.7385 67.5498C69.7667 65.9526 72.2838 64.6395 74.5635 65.3034C76.7688 65.9452 77.4248 67.8043 78.0668 69.6043C78.4855 70.7809 78.9136 71.9871 79.765 72.8687C79.4207 71.8322 79.5463 70.6592 80.1465 69.5711C80.9467 68.1215 82.4634 67.0629 84.1988 66.7383C85.9342 66.4137 87.8882 66.8231 89.4189 67.8338C90.2005 68.3502 90.8054 68.9772 91.2055 69.6559C91.4288 65.9084 92.6385 62.2087 94.7507 58.8448C95.5556 57.5685 98.5285 53.4447 103.06 54.0017C107.82 54.5882 108.927 59.6304 109.164 62.585L109.89 71.6699C110.625 68.9256 112.216 65.9637 115.608 64.5067C117.809 63.5624 120.902 63.7837 123.136 65.0379C124.229 65.6538 124.955 66.4358 125.257 67.2989C126.057 65.3182 127.695 63.3301 130.37 62.5887C132.106 62.1055 134.236 62.43 135.79 63.4112C136.204 63.6731 136.553 63.9682 136.823 64.2854C136.972 63.5292 137.321 62.7768 137.865 62.0833C138.931 60.7222 140.582 59.7927 142.388 59.5271C144.193 59.2616 146.156 59.6636 147.766 60.6337C148.92 61.3272 149.771 62.2382 150.222 63.2342C151.055 58.5423 152.284 53.0242 156.466 48.9041C157.401 47.9782 160.779 45.02 164.896 45.7983C167.079 46.2077 170.749 47.9746 170.777 55.1746C170.805 62.0206 170.135 68.9219 168.786 75.6867C168.726 75.9781 168.651 76.2769 168.577 76.5757C168.498 76.8892 168.414 77.2101 168.353 77.5273C169.395 76.6568 170.759 76.0888 172.21 75.9449C173.09 75.8564 173.773 75.9744 174.248 76.2917C174.778 76.6458 175.03 77.2249 175.011 78.0585C174.992 78.9954 174.643 79.7331 174.271 80.5151C174.169 80.729 174.067 80.9466 173.969 81.1716C174.355 80.9872 174.932 80.5409 175.16 80.3638C175.346 80.22 175.509 80.0946 175.616 80.0245C176.472 79.4823 177.365 78.9659 178.272 78.4864C180.129 77.5015 182.101 76.6421 184.135 75.9302C185.251 75.5392 186.442 75.2072 187.61 75.4138C188.578 75.5871 189.304 76.0335 189.769 76.7417C190.755 78.2429 190.332 80.5925 189.471 82.2487C184.86 91.1566 177.295 98.9284 167.595 104.723C167.558 104.771 167.497 104.786 167.441 104.786Z" fill="#8E97FD"/>
<path d="M145.071 105.29C144.969 105.294 144.871 105.239 144.848 105.154C143.624 101.056 142.787 96.8507 142.359 92.6531C142.242 91.5134 142.131 90.167 142.191 88.8097C142.368 84.7928 144.006 80.7796 146.932 77.198C149.64 73.882 153.483 70.9459 158.038 68.6996C158.14 68.6479 158.28 68.6738 158.345 68.7549C158.41 68.8361 158.377 68.9467 158.275 68.9984C153.771 71.2152 149.98 74.1144 147.309 77.3862C144.429 80.9124 142.815 84.8666 142.643 88.817C142.582 90.156 142.694 91.4912 142.81 92.6199C143.238 96.7991 144.071 100.989 145.285 105.069C145.313 105.165 145.239 105.257 145.122 105.279C145.099 105.286 145.085 105.29 145.071 105.29Z" fill="#565D70"/>
<path d="M158.797 67.5488C159.011 67.3976 159.267 67.2832 159.528 67.1873C160.337 66.8812 161.277 66.6931 162.129 66.9144C162.208 66.9328 162.282 66.9586 162.343 67.0066C162.398 67.0509 162.426 67.1136 162.44 67.1726C162.492 67.405 162.333 67.63 162.161 67.8181C161.635 68.3824 160.863 68.7845 160.021 68.9763C159.537 69.0869 157.811 69.3673 158.016 68.6443C158.123 68.2423 158.407 67.8218 158.797 67.5488Z" fill="#565D70"/>
<path d="M154.963 71.6324C155.978 71.555 157.001 71.6066 158.015 71.6693C158.662 71.7099 159.309 71.7578 159.955 71.8095C160.086 71.8206 160.244 71.8537 160.267 71.9533C160.295 72.064 160.128 72.1378 159.997 72.1857C159.095 72.5066 158.541 73.2406 157.718 73.6759C157.122 73.9894 156.41 74.1333 155.698 74.2107C155.103 74.2734 154.498 74.2919 153.898 74.2661C153.409 74.2439 152.902 74.1849 152.502 73.9636C152.097 73.7386 151.851 73.3476 151.841 72.9566C151.832 72.4697 152.311 72.1783 152.837 72.0197C153.516 71.8095 154.247 71.6841 154.963 71.6324Z" fill="#565D70"/>
<path d="M148.678 78.3641C149.692 78.2866 150.716 78.3383 151.73 78.401C152.377 78.4415 153.024 78.4895 153.67 78.5411C153.8 78.5522 153.959 78.5817 153.982 78.685C154.01 78.7956 153.842 78.8694 153.712 78.9174C152.81 79.2383 152.256 79.9723 151.432 80.4075C150.837 80.7211 150.125 80.8649 149.413 80.9424C148.818 81.0051 148.213 81.0235 147.613 80.9977C147.124 80.9756 146.617 80.9166 146.217 80.6953C145.812 80.4703 145.566 80.0793 145.556 79.6883C145.547 79.2014 146.026 78.91 146.552 78.7514C147.231 78.5448 147.957 78.4194 148.678 78.3641Z" fill="#565D70"/>
<path d="M145.324 84.6679C146.254 84.3433 147.25 84.1368 148.236 83.945C148.869 83.8232 149.502 83.7052 150.134 83.5945C150.26 83.5724 150.423 83.565 150.488 83.6536C150.558 83.7532 150.432 83.8638 150.325 83.9376C149.595 84.4687 149.362 85.3024 148.753 85.9183C148.311 86.3647 147.692 86.6782 147.05 86.9253C146.51 87.1319 145.943 87.3015 145.361 87.4233C144.891 87.5229 144.384 87.5929 143.914 87.4823C143.439 87.3679 143.053 87.0618 142.886 86.6893C142.681 86.2319 143.021 85.8335 143.458 85.5532C144.021 85.1954 144.663 84.8966 145.324 84.6679Z" fill="#565D70"/>
<path d="M144.919 92.4063C145.808 92.0079 146.766 91.7276 147.729 91.4583C148.344 91.2886 148.958 91.1227 149.576 90.964C149.697 90.9308 149.86 90.9087 149.935 90.9936C150.014 91.0858 149.902 91.2075 149.809 91.2923C149.148 91.8751 149.018 92.7272 148.488 93.3874C148.106 93.8669 147.525 94.2284 146.915 94.5235C146.403 94.7743 145.859 94.9846 145.296 95.1505C144.84 95.287 144.347 95.3977 143.868 95.3202C143.384 95.2428 142.956 94.9698 142.747 94.612C142.486 94.1694 142.774 93.7489 143.175 93.4354C143.691 93.0333 144.291 92.6866 144.919 92.4063Z" fill="#565D70"/>
<path d="M149.949 72.5577C149.949 72.0966 149.931 71.6319 149.828 71.1782C149.749 70.8167 149.619 70.4589 149.484 70.1085C149.051 68.965 148.553 67.781 147.488 66.9363C147.455 66.9105 147.418 66.881 147.372 66.8699C147.255 66.8367 147.13 66.9105 147.083 67.0027C147.037 67.0912 147.046 67.1945 147.041 67.2904C147.032 67.5044 146.948 67.7109 146.865 67.9138C146.646 68.4523 146.427 68.9945 146.209 69.5331C145.878 70.3446 145.548 71.1671 145.473 72.0192C145.399 72.8712 145.604 73.7676 146.26 74.4426C146.478 74.6676 146.744 74.8667 147.027 75.0401C147.297 75.2061 147.595 75.3573 147.925 75.4163C148.372 75.4975 148.86 75.3979 149.205 75.1581C149.6 74.8852 149.74 74.4389 149.796 74.0405C149.875 73.5462 149.945 73.0557 149.949 72.5577Z" fill="#565D70"/>
<path d="M144.486 77.7074C144.244 77.2869 143.984 76.8701 143.653 76.4902C143.388 76.1877 143.086 75.9074 142.779 75.6307C141.788 74.7307 140.713 73.8196 139.303 73.4028C139.257 73.3881 139.21 73.377 139.164 73.3807C139.043 73.3881 138.964 73.4987 138.968 73.5946C138.973 73.6905 139.034 73.7828 139.08 73.8713C139.182 74.0705 139.215 74.2844 139.248 74.4947C139.331 75.059 139.415 75.6197 139.499 76.184C139.624 77.0324 139.755 77.8881 140.132 78.6849C140.508 79.4853 141.169 80.2304 142.118 80.6324C142.435 80.7652 142.779 80.8574 143.132 80.9238C143.463 80.9865 143.812 81.0271 144.147 80.9718C144.593 80.898 144.989 80.6472 145.18 80.3152C145.398 79.9353 145.287 79.4853 145.133 79.1054C144.938 78.6295 144.742 78.1574 144.486 77.7074Z" fill="#565D70"/>
<path d="M139.796 85.1874C139.27 84.9883 138.731 84.8075 138.168 84.6858C137.721 84.5899 137.261 84.5309 136.8 84.4755C135.311 84.2948 133.748 84.1473 132.329 84.5493C132.282 84.5641 132.236 84.5751 132.203 84.6047C132.115 84.6747 132.147 84.7965 132.227 84.8702C132.31 84.944 132.427 84.9772 132.538 85.0251C132.776 85.1247 132.976 85.2723 133.171 85.4161C133.692 85.8034 134.213 86.1907 134.739 86.578C135.525 87.1608 136.321 87.751 137.261 88.1678C138.2 88.5846 139.308 88.8207 140.359 88.64C140.713 88.5809 141.048 88.474 141.369 88.3449C141.676 88.2231 141.969 88.0756 142.183 87.8617C142.467 87.5776 142.56 87.183 142.439 86.8325C142.295 86.4305 141.848 86.1428 141.42 85.9288C140.894 85.667 140.364 85.4014 139.796 85.1874Z" fill="#565D70"/>
<path d="M140.131 92.8968C139.605 92.6976 139.066 92.5169 138.503 92.3952C138.056 92.2992 137.596 92.2402 137.135 92.1849C135.646 92.0042 134.083 91.8566 132.664 92.2587C132.617 92.2734 132.571 92.2845 132.538 92.314C132.45 92.3841 132.482 92.5058 132.561 92.5796C132.645 92.6534 132.762 92.6865 132.873 92.7345C133.11 92.8341 133.311 92.9816 133.506 93.1255C134.027 93.5128 134.548 93.9001 135.074 94.2874C135.86 94.8702 136.656 95.4604 137.596 95.8772C138.535 96.294 139.643 96.53 140.694 96.3493C141.048 96.2903 141.383 96.1833 141.704 96.0542C142.011 95.9325 142.304 95.7849 142.518 95.571C142.802 95.287 142.895 94.8923 142.774 94.5419C142.63 94.1398 142.183 93.8521 141.755 93.6382C141.224 93.3726 140.694 93.1107 140.131 92.8968Z" fill="#565D70"/>
<path d="M137.532 87.8872C138.002 86.1794 139.491 84.1581 141.659 84.4827C143.185 84.7113 144.013 86.0208 144.464 87.2011C145.455 89.7757 145.767 92.5163 145.376 95.1906C145.45 91.6717 146.669 88.1749 148.889 85.1282C149.596 84.1544 150.591 83.1363 152.001 83.0367C153.485 82.9298 154.793 83.9626 155.197 85.0987C155.602 86.2384 155.328 87.4483 155.049 88.6102C155.891 81.849 157.761 74.3502 164.791 70.4661C166.21 69.6805 167.862 69.0718 169.592 69.0718C171.323 69.0718 173.128 69.8022 173.793 71.071C174.156 71.7608 174.161 72.5317 174.096 73.2768C173.542 79.5179 168.569 84.9253 163.33 89.6098C164.582 89.1708 165.88 88.7245 167.247 88.7098C168.615 88.695 170.09 89.2261 170.593 90.2368C171.211 91.4836 170.146 92.8778 168.82 93.7115C167.499 94.5451 165.88 95.0873 164.73 96.0721C167.14 95.6258 170.318 95.434 171.458 97.1787C171.96 97.9533 171.853 98.8828 171.625 99.7349C170.253 104.792 164.665 108.949 158.212 109.716C143.562 111.45 134.819 97.7283 137.532 87.8872Z" fill="#F2EDE4"/>
<path d="M149.423 107.533C149.409 107.533 149.395 107.533 149.381 107.529C149.297 107.511 149.251 107.441 149.274 107.378C149.376 107.097 159.542 79.2968 171.201 71.2078C171.266 71.1635 171.364 71.1672 171.42 71.2188C171.476 71.2705 171.471 71.3479 171.406 71.3922C159.817 79.4369 149.674 107.164 149.576 107.444C149.553 107.5 149.488 107.533 149.423 107.533Z" fill="#D9C9AC"/>
<path d="M150.423 104.932C150.386 104.932 150.353 104.925 150.326 104.903C139.453 97.8763 140.658 87.7622 140.667 87.6626C140.676 87.5962 140.755 87.5446 140.839 87.552C140.923 87.5593 140.988 87.6184 140.979 87.6884C140.965 87.788 139.783 97.773 150.521 104.711C150.586 104.755 150.6 104.833 150.544 104.885C150.512 104.918 150.465 104.932 150.423 104.932Z" fill="#D9C9AC"/>
<path d="M153.253 98.2416C153.192 98.2416 153.132 98.2121 153.108 98.1678C150.205 92.7124 151.987 84.8595 152.006 84.782C152.02 84.7156 152.099 84.6677 152.187 84.6824C152.271 84.6935 152.327 84.7599 152.313 84.8263C152.294 84.9037 150.531 92.6829 153.397 98.0719C153.429 98.1346 153.392 98.2084 153.313 98.2342C153.295 98.2379 153.276 98.2416 153.253 98.2416Z" fill="#D9C9AC"/>
<path d="M151.033 106.267C150.33 106.267 149.921 106.238 149.897 106.238C149.814 106.231 149.748 106.172 149.758 106.101C149.767 106.035 149.841 105.98 149.93 105.991C150.055 106.002 162.561 106.865 168.884 98.5473C168.931 98.4883 169.024 98.4699 169.098 98.5068C169.173 98.5436 169.196 98.6174 169.149 98.6764C163.855 105.64 154.308 106.267 151.033 106.267Z" fill="#D9C9AC"/>
<path d="M154.964 94.5603C154.88 94.5603 154.811 94.5087 154.806 94.4423C154.801 94.3759 154.871 94.3169 154.955 94.3132C155.029 94.3095 162.45 94.0808 167.586 90.5619C167.651 90.5176 167.749 90.5213 167.805 90.573C167.861 90.6246 167.856 90.7021 167.791 90.7463C162.571 94.3242 155.043 94.5566 154.969 94.5603C154.964 94.5603 154.964 94.5603 154.964 94.5603Z" fill="#D9C9AC"/>
<path d="M161.854 82.104C161.775 82.104 161.705 82.056 161.696 81.9896C161.691 81.9454 161.323 77.5043 163.975 73.8416C164.017 73.7826 164.115 73.7641 164.189 73.7973C164.264 73.8305 164.292 73.908 164.245 73.967C161.64 77.5597 162.003 81.9306 162.007 81.9749C162.012 82.0413 161.947 82.104 161.863 82.1077C161.863 82.104 161.858 82.104 161.854 82.104Z" fill="#D9C9AC"/>
<path d="M165.366 77.2164C165.301 77.2164 165.236 77.1832 165.218 77.1315C165.19 77.0651 165.236 76.9951 165.32 76.9766C165.376 76.9619 170.791 75.6045 172.373 74.0885C172.429 74.0368 172.527 74.0294 172.592 74.0737C172.657 74.118 172.666 74.1954 172.61 74.2471C170.968 75.8184 165.636 77.1573 165.408 77.2127C165.399 77.2127 165.385 77.2164 165.366 77.2164Z" fill="#D9C9AC"/>
<path d="M159.783 86.5518C159.388 86.5518 159.16 86.5002 159.127 86.4928C159.044 86.4707 159.002 86.4043 159.025 86.3379C159.053 86.2715 159.137 86.2346 159.22 86.2567C159.244 86.2604 161.561 86.7805 164.901 84.0841C164.962 84.0362 165.059 84.0325 165.12 84.0841C165.18 84.1321 165.18 84.2096 165.12 84.2575C162.659 86.2457 160.737 86.5518 159.783 86.5518Z" fill="#D9C9AC"/>
<path d="M151.493 93.0994C150.865 93.0994 149.357 92.8375 148.389 90.5174C148.362 90.451 148.408 90.3809 148.487 90.3625C148.571 90.3403 148.659 90.3772 148.683 90.4399C149.813 93.1437 151.632 92.8523 151.707 92.8375C151.79 92.8191 151.874 92.8633 151.893 92.9297C151.911 92.9961 151.86 93.0625 151.777 93.0773C151.763 93.081 151.66 93.0994 151.493 93.0994Z" fill="#D9C9AC"/>
<path d="M143.733 98.4367C143.728 98.4367 143.728 98.4367 143.723 98.4367C143.616 98.4293 141.039 98.2707 139.425 95.626C139.387 95.5633 139.42 95.4895 139.499 95.46C139.573 95.4305 139.671 95.4563 139.708 95.519C141.244 98.0346 143.719 98.1858 143.742 98.1895C143.826 98.1932 143.896 98.2522 143.886 98.3223C143.886 98.385 143.817 98.4367 143.733 98.4367Z" fill="#D9C9AC"/>
<path d="M146.431 101.734C146.399 101.734 146.366 101.727 146.338 101.708C146.268 101.668 146.259 101.59 146.31 101.535C146.324 101.52 147.785 99.9488 146.571 95.825C146.552 95.7586 146.603 95.6922 146.687 95.6774C146.771 95.6627 146.855 95.7033 146.873 95.7697C148.125 100.026 146.617 101.623 146.552 101.686C146.52 101.719 146.478 101.734 146.431 101.734Z" fill="#D9C9AC"/>
<path d="M156.496 105.773C156.482 105.773 156.468 105.773 156.459 105.769C156.375 105.751 156.324 105.685 156.347 105.618C156.427 105.375 158.334 99.6095 161.865 98.2779C161.944 98.2484 162.037 98.2742 162.075 98.3369C162.112 98.3996 162.079 98.4734 162 98.5029C158.604 99.7865 156.673 105.622 156.654 105.681C156.631 105.736 156.566 105.773 156.496 105.773Z" fill="#D9C9AC"/>
<path d="M164.27 104.888C164.014 104.888 163.777 104.855 163.562 104.785C162.679 104.505 162.483 103.763 162.474 103.73C162.455 103.664 162.511 103.597 162.595 103.586C162.683 103.572 162.762 103.616 162.781 103.682C162.781 103.69 162.953 104.328 163.683 104.556C164.442 104.793 165.568 104.516 166.945 103.745C167.015 103.704 167.112 103.719 167.164 103.774C167.215 103.83 167.196 103.907 167.126 103.948C166 104.571 165.047 104.888 164.27 104.888Z" fill="#D9C9AC"/>
<rect x="103.792" y="24.0697" width="8.80095" height="17.4116" rx="4.40047" fill="#FDFFFC"/>
<rect width="8.03962" height="19.5779" rx="4.01981" transform="matrix(0.817099 -0.576497 0.747891 0.663822 89.1245 29.8653)" fill="#FDFFFC"/>
<rect width="7.98603" height="19.7145" rx="3.99301" transform="matrix(0.800384 0.599488 -0.76718 0.641432 120.383 25.2301)" fill="#FDFFFC"/>
<path d="M59.1073 69.2061C55.2876 69.2061 51.5144 67.6385 47.8761 64.5364C47.583 64.2856 47.6017 63.8946 47.918 63.6622C48.2344 63.4298 48.7276 63.4446 49.0207 63.6954C52.5752 66.7274 56.2088 68.1585 59.8098 67.9483C65.4673 67.6163 69.2404 63.3339 69.2777 63.2897C69.5242 63.0093 70.0081 62.9356 70.3617 63.1311C70.7153 63.3229 70.8083 63.7101 70.5618 63.9905C70.3896 64.186 66.3187 68.8077 59.9215 69.184C59.6516 69.195 59.3771 69.2061 59.1073 69.2061Z" fill="#E9F2DE"/>
<path d="M45.8577 65.7869C45.7367 65.7869 45.6157 65.7832 45.4948 65.7721C45.0574 65.7315 44.6806 65.6246 44.3782 65.4549C43.4244 64.9127 43.3732 63.8799 43.8152 63.1828C44.006 62.8766 44.4759 62.7512 44.862 62.9061C45.2482 63.0573 45.4017 63.4299 45.211 63.736C45.0481 63.9942 45.0853 64.3336 45.29 64.4516C45.3738 64.4996 45.5041 64.5291 45.6715 64.5475C46.1787 64.5918 46.7044 64.459 47.0813 64.186C47.4581 63.9131 47.6768 63.511 47.6721 63.109C47.6675 62.9799 47.6442 62.8692 47.5977 62.7844C47.5 62.6036 47.2627 62.4561 46.9882 62.4082C46.7044 62.3602 46.3648 62.4155 46.0903 62.5594C45.7274 62.7438 45.2435 62.6627 45.0109 62.3786C44.7783 62.0909 44.8806 61.7073 45.2389 61.5229C45.8623 61.202 46.616 61.0803 47.3092 61.1983C48.0769 61.3274 48.7376 61.7516 49.0353 62.3049C49.1609 62.5373 49.2261 62.8028 49.2307 63.0905C49.2447 63.843 48.8353 64.5955 48.1327 65.1045C47.5139 65.5397 46.6858 65.7869 45.8577 65.7869Z" fill="#E9F2DE"/>
<path d="M46.7794 68.5749C46.4491 68.5749 46.142 68.4089 46.035 68.1433C45.0208 65.6203 47.2819 63.9826 47.3796 63.9125C47.7006 63.6838 48.1938 63.7097 48.4822 63.9642C48.766 64.2187 48.7428 64.606 48.4218 64.8347C48.352 64.8863 46.8213 66.0224 47.5192 67.7671C47.6494 68.0917 47.4215 68.4421 47.012 68.5454C46.9376 68.5675 46.8585 68.5749 46.7794 68.5749Z" fill="#E9F2DE"/>
<path d="M44.7549 68.9218C44.4525 68.9218 44.164 68.7816 44.0384 68.5492C43.1358 66.8894 44.6199 64.9271 44.6851 64.8459C44.9084 64.5545 45.3876 64.4623 45.7598 64.6394C46.1274 64.8164 46.2437 65.1963 46.0203 65.4877C45.704 65.9008 44.9921 67.1697 45.476 68.0587C45.6481 68.3722 45.4667 68.7373 45.0666 68.8701C44.9642 68.907 44.8572 68.9218 44.7549 68.9218Z" fill="#E9F2DE"/>
<path d="M152.606 46.2481C135.536 26.2008 108.882 41.3718 108.882 41.3718C108.882 41.3718 84.0326 24.3823 64.7852 43.1534C45.5378 61.9208 77.2958 91.3777 105.988 92.9453C134.745 93.4027 169.676 66.2991 152.606 46.2481Z" fill="#93BFA8"/>
<path d="M152.605 46.2483C143.184 35.1827 130.845 34.847 121.68 36.7687C128.78 39.0372 149.102 47.0266 146.059 63.5145C143.789 75.8306 126.895 86.2176 114.324 92.3517C140.927 88.3017 168.047 64.3887 152.605 46.2483Z" fill="#80B996"/>
<path d="M108.881 41.3758C108.881 41.3758 95.3234 32.1102 80.4819 34.8286C95.4956 37.477 103.968 43.5336 103.968 43.5336C106.099 42.475 108.881 41.3758 108.881 41.3758Z" fill="#80B996"/>
<path d="M73.2462 39.8413C70.3338 41.3094 67.9936 43.6295 67.4027 46.3258C67.3236 46.6799 67.2771 47.0525 67.426 47.3918C67.6679 47.9451 68.3983 48.2955 69.1334 48.3693C69.8685 48.443 70.6036 48.2918 71.3061 48.1074C74.7676 47.1963 77.8848 45.4701 81.4719 44.95C83.3468 44.677 85.3009 44.7434 87.1107 44.2713C88.9205 43.8028 90.6373 42.5524 90.5163 41.0475C90.3069 38.4507 85.7894 37.7683 83.1979 37.5323C79.9319 37.2372 75.954 38.4765 73.2462 39.8413Z" fill="#66A986"/>
<path d="M112.994 42.1611C112.897 42.4193 112.831 42.6996 112.929 42.9578C113.129 43.4779 113.897 43.7066 114.572 43.7988C116.242 44.0275 117.991 43.88 119.559 43.382C120.545 43.0685 121.48 42.6037 122.141 41.9435C123.253 40.8295 123.518 38.2807 121.215 37.9525C119.447 37.698 116.693 38.8488 115.344 39.6381C114.278 40.2652 113.385 41.132 112.994 42.1611Z" fill="#66A986"/>
<path d="M108.03 42.8182C107.769 43.1723 107.746 43.6555 108.072 43.9727C108.351 44.2457 108.821 44.3489 109.258 44.4153C109.705 44.4817 110.189 44.5223 110.589 44.3489C110.803 44.2567 110.97 44.1129 111.115 43.9579C111.505 43.5522 111.785 42.9915 111.487 42.5379C111.301 42.2575 110.929 42.0768 110.538 42.003C109.579 41.8149 108.546 42.1247 108.03 42.8182Z" fill="#66A986"/>
<path d="M92.1824 54.2598C92.3033 54.7615 92.3313 55.2299 92.3126 55.7279C92.2801 56.2185 92.187 56.7201 91.9498 57.2107C91.7218 57.7013 91.317 58.1845 90.7308 58.5164C90.1539 58.8558 89.4514 59.0107 88.786 59.0439C88.4464 59.0623 88.0928 59.0365 87.7392 58.9701C87.3856 58.8964 87.0367 58.7636 86.7436 58.5791C86.1434 58.2066 85.8177 57.6828 85.6456 57.1885C85.306 56.1853 85.3571 55.2262 85.5619 54.2598C85.6084 54.0422 85.8689 53.8947 86.1434 53.9315C86.404 53.9684 86.5854 54.1565 86.5621 54.3631L86.5575 54.3889C86.5063 54.802 86.4877 55.2557 86.5203 55.6799C86.5528 56.1078 86.6226 56.532 86.7808 56.9119C86.939 57.2881 87.167 57.6201 87.4973 57.8119C87.6601 57.9078 87.8416 57.9779 88.0463 58.0185C88.2557 58.0517 88.479 58.0701 88.7209 58.0554C89.2048 58.0332 89.6654 57.9299 90.019 57.7271C90.3865 57.5279 90.6517 57.2181 90.8471 56.8603C91.0425 56.4988 91.1449 56.0857 91.196 55.6652C91.2519 55.2484 91.2426 54.7984 91.196 54.3926L91.1914 54.3705C91.1635 54.1492 91.3682 53.9537 91.6473 53.9352C91.9032 53.9168 92.1359 54.0606 92.1824 54.2598Z" fill="#3F4553"/>
<path d="M115.11 54.3927C115.064 54.7985 115.054 55.2485 115.11 55.6653C115.157 56.0858 115.264 56.4989 115.459 56.8604C115.654 57.2219 115.92 57.528 116.287 57.7272C116.645 57.9338 117.101 58.037 117.585 58.0555C117.823 58.0702 118.051 58.0518 118.26 58.0186C118.465 57.978 118.646 57.9079 118.809 57.812C119.135 57.6202 119.367 57.2883 119.525 56.912C119.684 56.5358 119.753 56.1079 119.786 55.68C119.823 55.2559 119.8 54.8022 119.749 54.389L119.744 54.3632C119.716 54.1419 119.921 53.9464 120.2 53.928C120.465 53.9095 120.702 54.0571 120.744 54.26C120.949 55.2264 121 56.1817 120.661 57.1887C120.488 57.6829 120.158 58.2067 119.563 58.5793C119.269 58.7637 118.921 58.8965 118.567 58.9703C118.213 59.0367 117.855 59.0625 117.52 59.044C116.859 59.0145 116.157 58.8559 115.575 58.5166C114.994 58.1846 114.584 57.7014 114.356 57.2108C114.119 56.7202 114.026 56.2186 113.994 55.728C113.975 55.23 114.003 54.7616 114.124 54.26C114.175 54.0423 114.44 53.8985 114.715 53.939C114.971 53.9759 115.147 54.164 115.124 54.3669L115.11 54.3927Z" fill="#3F4553"/>
<path d="M102.903 61.4047C102.047 61.4047 101.284 61.3161 100.646 61.1981C98.6412 60.8219 97.4083 60.0805 97.3525 60.0473C97.1338 59.9108 97.0919 59.66 97.2594 59.4866C97.4316 59.3132 97.7479 59.28 97.9666 59.4128C98.1481 59.5235 102.489 62.0797 108.072 59.387C108.309 59.2727 108.621 59.3317 108.765 59.5198C108.909 59.7079 108.835 59.9551 108.598 60.0694C106.485 61.0875 104.522 61.4047 102.903 61.4047Z" fill="#3F4553"/>
<path d="M167.251 73.1827C166.139 73.1827 165.041 73.0979 163.948 72.9319C154.447 71.4749 149.213 64.249 148.994 63.9428C148.78 63.6441 148.915 63.2678 149.292 63.1018C149.669 62.9359 150.144 63.0391 150.353 63.3379C150.404 63.408 155.466 70.3794 164.255 71.722C169.758 72.563 175.583 71.0507 181.585 67.2367C181.92 67.0228 182.413 67.0671 182.683 67.3326C182.953 67.5982 182.897 67.9892 182.562 68.2031C177.347 71.5118 172.21 73.1827 167.251 73.1827Z" fill="#E9F2DE"/>
<path d="M97.0453 96.1613C96.4731 96.1613 95.9055 96.154 95.3379 96.1429C94.9052 96.1318 94.5656 95.8478 94.5795 95.5085C94.5935 95.1654 94.9471 94.9072 95.3797 94.9072C102.079 95.0511 109.202 94.3281 115.981 92.8158C116.995 92.5908 118.172 92.292 119.228 91.7941C119.694 91.5727 119.819 91.4215 119.843 91.333C119.889 91.1486 119.549 90.8609 119.094 90.6875C118.033 90.2891 116.753 90.2781 115.883 90.3002C112.831 90.385 109.844 91.0969 107.239 92.3658C106.871 92.5428 106.392 92.4543 106.164 92.1629C105.941 91.8715 106.053 91.4916 106.42 91.3109C109.254 89.9313 112.506 89.1567 115.827 89.0645C116.856 89.035 118.386 89.0571 119.754 89.5699C120.643 89.9018 121.601 90.6248 121.369 91.5654C121.206 92.2293 120.522 92.6203 120.024 92.8564C118.805 93.4318 117.447 93.7748 116.4 94.0072C110.044 95.4236 103.387 96.1613 97.0453 96.1613Z" fill="#E9F2DE"/>
<path d="M114.454 96.1799C108.108 96.1799 101.618 95.4496 95.1369 94.0074C94.0901 93.775 92.7315 93.432 91.5126 92.8565C91.0147 92.6205 90.3308 92.2295 90.168 91.5655C89.94 90.625 90.8938 89.902 91.7824 89.57C93.1502 89.0573 94.6809 89.0352 95.7091 89.0647C99.031 89.1569 102.283 89.9315 105.116 91.311C105.484 91.4881 105.6 91.8717 105.372 92.1631C105.149 92.4545 104.665 92.5467 104.298 92.366C101.692 91.1008 98.7053 90.3852 95.6533 90.3004C94.7879 90.2782 93.5085 90.2893 92.4477 90.6877C91.9871 90.861 91.6521 91.1487 91.6987 91.3295C91.7219 91.418 91.8429 91.5729 92.3081 91.7905C93.3643 92.2885 94.5413 92.5873 95.5556 92.8123C102.483 94.3541 109.415 95.0697 116.157 94.9221C116.594 94.9258 116.948 95.184 116.957 95.5234C116.966 95.8664 116.627 96.1504 116.199 96.1578C115.622 96.1726 115.036 96.1799 114.454 96.1799Z" fill="#E9F2DE"/>
<path d="M114.631 97.0503C114.482 97.3269 114.352 97.6146 114.347 97.9134C114.338 98.2122 114.473 98.5294 114.766 98.7139C115.171 98.9721 115.794 98.9204 116.217 98.677C116.641 98.4335 116.887 98.0462 117.036 97.6515C117.297 96.9728 117.306 96.2351 117.069 95.5527C116.99 95.3277 116.832 95.029 116.492 94.9921C116.176 94.9552 116.017 95.1839 115.864 95.3646C115.399 95.9068 114.957 96.4491 114.631 97.0503Z" fill="#E9F2DE"/>
<path d="M96.9519 97.0503C97.1008 97.3269 97.2311 97.6146 97.2357 97.9134C97.245 98.2122 97.1101 98.5294 96.817 98.7139C96.4122 98.9721 95.7888 98.9204 95.3654 98.677C94.942 98.4335 94.6954 98.0462 94.5466 97.6515C94.286 96.9728 94.2767 96.2351 94.514 95.5527C94.5931 95.3277 94.7513 95.029 95.0909 94.9921C95.4073 94.9552 95.5655 95.1839 95.719 95.3646C96.1842 95.9068 96.6262 96.4491 96.9519 97.0503Z" fill="#E9F2DE"/>
<path d="M106.736 112C120.218 112 131.148 110.941 131.148 109.636C131.148 108.33 120.218 107.271 106.736 107.271C93.2537 107.271 82.3242 108.33 82.3242 109.636C82.3242 110.941 93.2537 112 106.736 112Z" fill="#808AFF"/>
<path d="M74.9826 107.145C75.0849 107.149 75.1826 107.093 75.2059 107.009C76.4295 102.911 77.267 98.7056 77.695 94.508C77.8113 93.3683 77.923 92.0219 77.8625 90.6645C77.6857 86.6477 76.048 82.6345 73.1216 79.0529C70.4138 75.7369 66.5708 72.8008 62.016 70.5545C61.9137 70.5028 61.7741 70.5287 61.709 70.6098C61.6438 70.691 61.6764 70.8016 61.7788 70.8533C66.2824 73.0701 70.0742 75.9693 72.7447 79.2411C75.6246 82.7673 77.239 86.7215 77.4112 90.6719C77.4717 92.0109 77.36 93.3461 77.2437 94.4748C76.8157 98.654 75.9829 102.844 74.7686 106.924C74.7406 107.02 74.8151 107.112 74.9314 107.134C74.9547 107.141 74.9686 107.145 74.9826 107.145Z" fill="#565D70"/>
<path d="M61.2582 69.4038C61.0441 69.2526 60.7883 69.1382 60.5277 69.0423C59.7182 68.7362 58.7784 68.548 57.927 68.7693C57.8479 68.7878 57.7734 68.8136 57.7129 68.8616C57.6571 68.9058 57.6292 68.9685 57.6152 69.0275C57.5641 69.2599 57.7222 69.4849 57.8944 69.673C58.4201 70.2374 59.1924 70.6395 60.0345 70.8313C60.5184 70.9419 62.2445 71.2223 62.0398 70.4993C61.9374 70.0972 61.649 69.6767 61.2582 69.4038Z" fill="#565D70"/>
<path d="M65.0906 73.4874C64.0764 73.4099 63.0528 73.4615 62.0386 73.5243C61.3919 73.5648 60.7452 73.6128 60.0985 73.6644C59.9682 73.6755 59.81 73.7087 59.7868 73.8083C59.7589 73.9189 59.9263 73.9927 60.0566 74.0406C60.9592 74.3616 61.5129 75.0956 62.3363 75.5308C62.9319 75.8444 63.6437 75.9882 64.3555 76.0657C64.951 76.1284 65.5559 76.1468 66.156 76.121C66.6446 76.0989 67.1517 76.0398 67.5518 75.8185C67.9566 75.5935 68.2031 75.2025 68.2125 74.8116C68.2218 74.3247 67.7426 74.0333 67.2168 73.8747C66.5376 73.6644 65.8118 73.5427 65.0906 73.4874Z" fill="#565D70"/>
<path d="M71.3812 80.219C70.3669 80.1415 69.3434 80.1932 68.3291 80.2559C67.6824 80.2964 67.0357 80.3444 66.389 80.396C66.2588 80.4071 66.1006 80.4403 66.0773 80.5399C66.0494 80.6505 66.2169 80.7243 66.3471 80.7723C67.2497 81.0932 67.8034 81.8272 68.6269 82.2624C69.2224 82.576 69.9342 82.7198 70.6461 82.7973C71.2416 82.86 71.8464 82.8784 72.4466 82.8526C72.9351 82.8305 73.4422 82.7714 73.8423 82.5501C74.2471 82.3251 74.4937 81.9341 74.503 81.5432C74.5123 81.0563 74.0331 80.7649 73.5074 80.6063C72.8234 80.3997 72.0976 80.2743 71.3812 80.219Z" fill="#565D70"/>
<path d="M74.7313 86.5228C73.8008 86.1982 72.8052 85.9917 71.8188 85.7999C71.1861 85.6782 70.5533 85.5638 69.9206 85.4495C69.795 85.4273 69.6321 85.42 69.567 85.5085C69.4972 85.6081 69.6228 85.7187 69.7299 85.7925C70.4603 86.3237 70.6929 87.1573 71.3024 87.7733C71.7444 88.2196 72.3632 88.5331 73.0052 88.7802C73.5449 88.9868 74.1125 89.1565 74.6941 89.2782C75.164 89.3778 75.6711 89.4479 76.141 89.3372C76.6156 89.2229 77.0017 88.9167 77.1692 88.5442C77.3739 88.0868 77.0343 87.6884 76.5969 87.4081C76.034 87.0503 75.392 86.7515 74.7313 86.5228Z" fill="#565D70"/>
<path d="M75.1355 94.2612C74.2469 93.8628 73.2885 93.5825 72.3254 93.3132C71.7113 93.1435 71.0972 92.9776 70.4784 92.8189C70.3574 92.7858 70.1946 92.7636 70.1201 92.8485C70.041 92.9407 70.1527 93.0624 70.2458 93.1472C70.9064 93.73 71.0367 94.5821 71.5671 95.2423C71.9486 95.7218 72.5301 96.0833 73.1396 96.3784C73.6514 96.6292 74.1957 96.8395 74.7587 97.0055C75.2146 97.1419 75.7078 97.2526 76.187 97.1751C76.6709 97.0977 77.0989 96.8247 77.3083 96.4669C77.5688 96.0243 77.2804 95.6038 76.8802 95.2903C76.3638 94.8882 75.7636 94.5415 75.1355 94.2612Z" fill="#565D70"/>
<path d="M70.1064 74.416C70.1064 73.9549 70.1251 73.4902 70.2274 73.0365C70.3065 72.675 70.4368 72.3172 70.5717 71.9668C71.0044 70.8234 71.5022 69.6393 72.5676 68.7946C72.6002 68.7688 72.6374 68.7393 72.6839 68.7282C72.8002 68.6951 72.9259 68.7688 72.9724 68.861C73.0189 68.9496 73.0096 69.0528 73.0143 69.1487C73.0236 69.3627 73.1073 69.5692 73.1911 69.7721C73.4097 70.3106 73.6284 70.8529 73.8471 71.3914C74.1774 72.2029 74.5077 73.0254 74.5822 73.8775C74.6566 74.7295 74.4519 75.6259 73.7959 76.3009C73.5772 76.5259 73.312 76.725 73.0282 76.8984C72.7584 77.0644 72.4606 77.2156 72.1303 77.2746C71.6836 77.3558 71.1951 77.2562 70.8508 77.0164C70.4554 76.7435 70.3158 76.2972 70.26 75.8988C70.1809 75.4045 70.1111 74.9103 70.1064 74.416Z" fill="#565D70"/>
<path d="M75.568 79.5629C75.8099 79.1424 76.0704 78.7256 76.4008 78.3456C76.666 78.0432 76.9684 77.7629 77.2754 77.4862C78.2664 76.5862 79.3411 75.6751 80.7509 75.2583C80.7974 75.2435 80.8439 75.2325 80.8904 75.2362C81.0114 75.2436 81.0905 75.3542 81.0858 75.4501C81.0812 75.546 81.0207 75.6382 80.9742 75.7268C80.8718 75.9259 80.8393 76.1399 80.8067 76.3501C80.7229 76.9145 80.6392 77.4751 80.5555 78.0395C80.4298 78.8879 80.2996 79.7436 79.9227 80.5403C79.5459 81.3408 78.8852 82.0859 77.9361 82.4879C77.6197 82.6207 77.2754 82.7129 76.9218 82.7793C76.5915 82.842 76.2426 82.8826 75.9076 82.8273C75.461 82.7535 75.0655 82.5027 74.8747 82.1707C74.6561 81.7908 74.7677 81.3408 74.9213 80.9608C75.1213 80.485 75.3121 80.0129 75.568 79.5629Z" fill="#565D70"/>
<path d="M80.2594 87.0458C80.7851 86.8466 81.3248 86.6659 81.8877 86.5442C82.3344 86.4483 82.795 86.3893 83.2556 86.3339C84.7444 86.1532 86.3076 86.0056 87.7266 86.4077C87.7732 86.4188 87.8197 86.4335 87.8523 86.463C87.9406 86.5331 87.9081 86.6548 87.829 86.7286C87.7452 86.8024 87.6289 86.8393 87.5173 86.8835C87.28 86.9831 87.0799 87.1306 86.8845 87.2745C86.3635 87.6618 85.8424 88.0491 85.3166 88.4364C84.5304 89.0192 83.7348 89.6094 82.795 90.0262C81.8552 90.443 80.7479 90.679 79.6964 90.4983C79.3428 90.4393 79.0079 90.3323 78.6868 90.2032C78.3798 90.0815 78.0867 89.934 77.8726 89.72C77.5888 89.436 77.4958 89.0413 77.6168 88.6909C77.761 88.2889 78.2076 88.0012 78.6357 87.7872C79.166 87.5216 79.6918 87.2561 80.2594 87.0458Z" fill="#565D70"/>
<path d="M79.9283 94.7517C80.4541 94.5525 80.9937 94.3718 81.5567 94.2501C82.0033 94.1542 82.4639 94.0952 82.9245 94.0398C84.4133 93.8591 85.9766 93.7116 87.3956 94.1136C87.4421 94.1284 87.4886 94.1394 87.5212 94.1689C87.6096 94.239 87.577 94.3607 87.4979 94.4345C87.4142 94.5083 87.2979 94.5452 87.1862 94.5894C86.9489 94.689 86.7489 94.8366 86.5535 94.9804C86.0324 95.3677 85.5113 95.755 84.9856 96.1423C84.1993 96.7251 83.4037 97.3153 82.4639 97.7321C81.5241 98.1489 80.4168 98.385 79.3654 98.2042C79.0118 98.1452 78.6768 98.0382 78.3558 97.9091C78.0487 97.7874 77.7556 97.6399 77.5416 97.4259C77.2578 97.1419 77.1647 96.7472 77.2857 96.3968C77.4299 95.9948 77.8766 95.7071 78.3046 95.4931C78.8303 95.2275 79.3607 94.9657 79.9283 94.7517Z" fill="#565D70"/>
<path d="M91.317 95.2977C91.3403 95.1686 91.3589 95.0431 91.3682 94.914C91.866 89.1673 82.9053 92.3874 80.6395 95.0063C81.4397 93.7743 80.6674 92.0702 79.0669 91.5169C77.4665 90.9673 75.3682 91.6902 74.782 92.9923C75.2379 90.0636 75.6985 87.1349 76.1545 84.2061C76.3592 82.8967 76.4802 81.3844 75.2984 80.4549C73.9725 79.4184 71.5997 79.7577 70.2877 80.8053C68.9757 81.8528 68.4779 83.3688 68.1475 84.8258C66.5424 83.4795 63.067 84.6156 63.1275 86.4672C63.3275 82.7123 63.4997 78.8245 61.7131 75.3425C60.5686 73.1109 57.8794 70.9052 54.9298 71.4806C52.315 71.9896 51.0821 74.3503 50.589 76.4491C49.4538 81.2885 50.1796 86.3898 52.65 90.9046C51.9429 89.6025 49.2258 89.8533 48.3046 91.0669C47.3834 92.2841 47.7882 93.8517 48.4767 95.1612C46.7646 93.778 44.5128 92.7083 42.0702 92.6345C39.6277 92.5607 37.0502 93.6931 36.3151 95.5374C35.5753 97.3854 37.2782 99.7092 39.7207 99.7682C38.1714 99.912 37.334 101.435 37.7295 102.631C39.7114 108.624 59.7963 109.473 65.8445 108.997C74.9262 108.278 83.8172 104.77 89.1861 98.9161C90.1771 97.8317 91.0704 96.6182 91.317 95.2977Z" fill="#F2EDE4"/>
<path d="M65.6874 107.843C65.6409 107.843 65.5944 107.824 65.5618 107.791C60.565 102.479 58.1085 93.2764 56.9221 86.4969C55.638 79.1566 55.5356 72.9893 55.5356 72.9266C55.5356 72.8602 55.6054 72.8012 55.6892 72.8012C55.7729 72.8012 55.8427 72.8565 55.8474 72.9229C55.852 73.1664 56.3219 97.5478 65.813 107.643C65.8642 107.699 65.8502 107.776 65.7805 107.817C65.7525 107.835 65.72 107.843 65.6874 107.843Z" fill="#D9C9AC"/>
<path d="M62.9087 106.765C51.7799 106.765 40.9675 101.693 40.8558 101.641C40.7814 101.608 40.7581 101.531 40.8 101.472C40.8465 101.413 40.9396 101.394 41.014 101.427C41.135 101.483 53.0593 107.074 64.6952 106.47C64.779 106.47 64.8534 106.518 64.8627 106.584C64.8674 106.65 64.8022 106.709 64.7185 106.717C64.1183 106.75 63.5135 106.765 62.9087 106.765Z" fill="#D9C9AC"/>
<path d="M61.5784 101.657C61.5225 101.657 61.4667 101.631 61.4388 101.587C61.4016 101.524 61.4341 101.45 61.5086 101.421C72.7909 96.965 73.2096 81.58 73.2096 81.4251C73.2096 81.3587 73.2841 81.3034 73.3678 81.3034C73.4516 81.3034 73.5214 81.3587 73.5214 81.4288C73.5167 81.5837 73.098 97.1163 61.6482 101.642C61.6249 101.653 61.6016 101.657 61.5784 101.657Z" fill="#D9C9AC"/>
<path d="M62.2575 103.523C48.7745 103.523 39.8091 95.2205 39.7207 95.1357C39.6649 95.084 39.6742 95.0066 39.7394 94.9623C39.8045 94.9181 39.9022 94.9254 39.958 94.9771C40.0464 95.0619 49.0676 103.402 62.5552 103.273C62.639 103.273 62.7088 103.328 62.7134 103.394C62.7134 103.461 62.6436 103.52 62.5599 103.52C62.4575 103.523 62.3598 103.523 62.2575 103.523Z" fill="#D9C9AC"/>
<path d="M60.2492 98.5844C60.2352 98.5844 60.2259 98.5844 60.212 98.5807C52.219 97.0536 50.3626 91.5687 50.344 91.5171C50.3207 91.4507 50.3719 91.3843 50.4557 91.3659C50.5394 91.3474 50.6232 91.388 50.6464 91.4544C50.665 91.5097 52.4795 96.8471 60.2864 98.341C60.3702 98.3557 60.4213 98.4221 60.4027 98.4885C60.3841 98.5438 60.3236 98.5844 60.2492 98.5844Z" fill="#D9C9AC"/>
<path d="M59.5408 96.6179C59.485 96.6179 59.4291 96.5921 59.4012 96.5478C59.364 96.4851 59.3966 96.4113 59.471 96.3818C63.8164 94.674 66.273 85.5559 66.2962 85.4637C66.3148 85.3973 66.3986 85.353 66.4823 85.3678C66.5661 85.3825 66.6219 85.4489 66.6033 85.5153C66.5009 85.8952 64.0909 94.84 59.6106 96.6031C59.5873 96.6142 59.564 96.6179 59.5408 96.6179Z" fill="#D9C9AC"/>
<path d="M56.8325 85.1498C56.8 85.1498 56.7674 85.1424 56.7348 85.124C53.6037 83.2022 52.2591 77.817 52.2033 77.5883C52.1847 77.5219 52.2405 77.4555 52.3289 77.4444C52.4126 77.4297 52.4964 77.4739 52.5103 77.544C52.5243 77.5993 53.8875 83.0658 56.9256 84.9285C56.9954 84.9691 57.0047 85.0465 56.9535 85.1019C56.9256 85.1351 56.879 85.1498 56.8325 85.1498Z" fill="#D9C9AC"/>
<path d="M57.8378 90.447C57.8145 90.447 57.7913 90.4433 57.768 90.4359C57.6889 90.4064 57.6564 90.3327 57.6936 90.27C57.7308 90.2072 61.4854 83.9662 60.527 79.2301C60.513 79.1637 60.5735 79.101 60.6572 79.0899C60.741 79.0788 60.8247 79.1231 60.834 79.1932C61.8064 84.0068 58.01 90.3179 57.9727 90.3806C57.9541 90.4212 57.8983 90.447 57.8378 90.447Z" fill="#D9C9AC"/>
<path d="M63.7654 92.2286C63.7096 92.2286 63.6538 92.2027 63.6258 92.1585C63.57 92.07 62.2626 89.9417 62.1882 87.9093C62.1836 87.8429 62.2533 87.7839 62.3417 87.7839C62.4301 87.7839 62.4999 87.8355 62.4999 87.9056C62.5697 89.8863 63.891 92.0331 63.905 92.0552C63.9422 92.1179 63.9096 92.1917 63.8352 92.2212C63.8119 92.2249 63.7887 92.2286 63.7654 92.2286Z" fill="#D9C9AC"/>
<path d="M52.3107 96.8249C51.543 96.8249 50.673 96.7732 49.7984 96.611C49.7146 96.5962 49.6634 96.5298 49.682 96.4634C49.7006 96.397 49.789 96.3565 49.8681 96.3712C52.3665 96.8286 54.8975 96.3749 54.9254 96.3712C55.0092 96.3565 55.0929 96.397 55.1115 96.4634C55.1301 96.5298 55.0789 96.5962 54.9952 96.611C54.9254 96.6257 53.8042 96.8249 52.3107 96.8249Z" fill="#D9C9AC"/>
<path d="M51.198 101.656C51.1329 101.656 51.0724 101.627 51.0491 101.575C51.0352 101.549 49.8022 98.8678 48.7275 97.5399C48.681 97.4809 48.6996 97.4071 48.774 97.3702C48.8485 97.3334 48.9415 97.3518 48.9881 97.4071C50.0814 98.7571 51.291 101.38 51.3422 101.49C51.3701 101.553 51.3283 101.627 51.2492 101.649C51.2352 101.656 51.2166 101.656 51.198 101.656Z" fill="#D9C9AC"/>
<path d="M46.0761 103.678C46.0295 103.678 45.983 103.659 45.9504 103.63C45.8993 103.574 45.9086 103.497 45.9784 103.456C45.983 103.453 46.5878 103.073 46.6762 102.442C46.7414 101.962 46.4994 101.457 45.9551 100.937C45.8993 100.885 45.9086 100.808 45.9737 100.764C46.0388 100.719 46.1365 100.727 46.1924 100.778C46.7926 101.35 47.0624 101.922 46.9833 102.471C46.8809 103.209 46.197 103.633 46.1691 103.652C46.1459 103.67 46.1086 103.678 46.0761 103.678Z" fill="#D9C9AC"/>
<path d="M40.7257 98.0308C40.0371 98.0308 39.2462 97.9201 38.4274 97.5845C38.3529 97.5513 38.3203 97.4775 38.3622 97.4185C38.4041 97.3594 38.4971 97.3336 38.5716 97.3668C40.828 98.2927 42.917 97.3779 42.9403 97.3705C43.0147 97.3373 43.1124 97.3594 43.1543 97.4185C43.1962 97.4775 43.1682 97.5549 43.0938 97.5881C43.0333 97.6103 42.0656 98.0308 40.7257 98.0308Z" fill="#D9C9AC"/>
<path d="M69.0095 95.5815C68.9537 95.5815 68.8979 95.5557 68.87 95.5114C68.8513 95.4819 67.0462 92.5237 67.9395 89.5212C67.9581 89.4548 68.0465 89.4142 68.1256 89.429C68.2093 89.4437 68.2605 89.5101 68.2419 89.5765C67.3765 92.4979 69.1305 95.3749 69.1491 95.4045C69.1863 95.4672 69.1538 95.5409 69.0793 95.5704C69.0561 95.5778 69.0328 95.5815 69.0095 95.5815Z" fill="#D9C9AC"/>
<path d="M63.5138 105.08C63.4533 105.08 63.3975 105.054 63.3742 105.01C63.337 104.947 63.3696 104.873 63.4487 104.847C63.551 104.81 73.526 101.066 77.9692 93.8479C78.0064 93.7852 78.0994 93.7594 78.1785 93.7926C78.2576 93.8221 78.2902 93.8959 78.2483 93.9586C73.7586 101.258 63.6813 105.035 63.579 105.076C63.5603 105.076 63.5371 105.08 63.5138 105.08Z" fill="#D9C9AC"/>
<path d="M65.1927 107.296C65.1182 107.296 65.0531 107.252 65.0391 107.193C65.0252 107.126 65.0856 107.064 65.1694 107.053C74.7535 105.85 88.5947 93.9361 88.7343 93.818C88.7902 93.7664 88.8925 93.7627 88.953 93.8107C89.0181 93.8549 89.0228 93.9361 88.9623 93.984C88.8227 94.1057 74.9071 106.083 65.2159 107.296C65.2066 107.296 65.202 107.296 65.1927 107.296Z" fill="#D9C9AC"/>
<path d="M71.6285 100.661C71.5447 100.661 71.4749 100.609 71.4703 100.539C71.4703 100.514 71.3912 97.9353 72.6055 95.4123C72.6381 95.3496 72.7265 95.3164 72.8056 95.3422C72.8847 95.368 72.9265 95.4381 72.894 95.5008C71.6983 97.9758 71.7774 100.506 71.7774 100.532C71.7867 100.602 71.7215 100.657 71.6285 100.661C71.6331 100.661 71.6331 100.661 71.6285 100.661Z" fill="#D9C9AC"/>
<path d="M75.7132 98.7503C74.7967 98.7503 74.2198 98.588 74.1686 98.5732C74.0895 98.5511 74.0476 98.4773 74.0755 98.4146C74.1035 98.3519 74.1919 98.3187 74.2756 98.3408C74.3035 98.3482 76.8484 99.049 79.8819 97.3707C79.9517 97.3302 80.0494 97.3449 80.1005 97.4002C80.1517 97.4556 80.1331 97.533 80.0633 97.5736C78.3466 98.5253 76.7926 98.7503 75.7132 98.7503Z" fill="#D9C9AC"/>
<path d="M78.9464 103C77.5786 103 76.9459 102.52 76.9086 102.491C76.8482 102.443 76.8482 102.365 76.9086 102.313C76.9691 102.266 77.0668 102.266 77.1273 102.313C77.1413 102.325 78.4533 103.298 81.4681 102.288C81.5472 102.258 81.6402 102.291 81.6728 102.354C81.7054 102.417 81.6681 102.491 81.5891 102.516C80.5143 102.878 79.635 103 78.9464 103Z" fill="#D9C9AC"/>
<path d="M70.8145 105.691C70.7307 105.691 70.6609 105.636 70.6563 105.57C70.6563 105.5 70.633 103.869 72.0706 102.552C72.1265 102.501 72.2242 102.497 72.2893 102.541C72.3544 102.586 72.3637 102.663 72.3033 102.715C70.9447 103.958 70.9633 105.548 70.9633 105.566C70.9726 105.636 70.9029 105.691 70.8145 105.691Z" fill="#D9C9AC"/>
<path d="M51.7572 49.8551C53.5298 49.8551 53.5298 47.6715 51.7572 47.6715C49.9846 47.6752 49.9846 49.8551 51.7572 49.8551Z" fill="#8E97FD"/>
<path d="M84.0031 11.9031C85.7757 11.9031 85.7757 9.71947 84.0031 9.71947C82.2305 9.71947 82.2258 11.9031 84.0031 11.9031Z" fill="#8E97FD"/>
<path d="M150.864 33.7059C151.748 33.7059 151.753 32.6141 150.864 32.6141C149.98 32.6141 149.976 33.7059 150.864 33.7059Z" fill="#8E97FD"/>
<path d="M76.8993 25.1193C77.7833 25.1193 77.7879 24.0275 76.8993 24.0275C76.0153 24.0275 76.0153 25.1193 76.8993 25.1193Z" fill="#8E97FD"/>
<path d="M164.115 32.6146C164.999 32.6146 165.004 31.5228 164.115 31.5228C163.227 31.5228 163.227 32.6146 164.115 32.6146Z" fill="#8E97FD"/>
<path d="M74.7634 15.4402C75.6473 15.4402 75.652 14.3484 74.7634 14.3484C73.8794 14.3484 73.8747 15.4402 74.7634 15.4402Z" fill="#59D6B8"/>
<path d="M128.914 94.7483C129.798 94.7483 129.803 93.6565 128.914 93.6565C128.03 93.6565 128.03 94.7483 128.914 94.7483Z" fill="#59D6B8"/>
<path d="M178.579 53.6023C179.463 53.6023 179.467 52.5104 178.579 52.5104C177.69 52.5104 177.69 53.6023 178.579 53.6023Z" fill="#59D6B8"/>
<path d="M43.0155 27.4429C43.8995 27.4429 43.9042 26.351 43.0155 26.351C42.1315 26.351 42.1315 27.4429 43.0155 27.4429Z" fill="#59D6B8"/>
<path d="M28.2666 68.5038C29.1505 68.5038 29.1552 67.412 28.2666 67.412C27.3779 67.412 27.3779 68.5038 28.2666 68.5038Z" fill="#8ABFA3"/>
<path d="M147.702 8.64238C148.586 8.64238 148.59 7.55057 147.702 7.55057C146.818 7.55057 146.818 8.64238 147.702 8.64238Z" fill="#8E97FD"/>
<path d="M172.494 88.8979C173.378 88.8979 173.383 87.8061 172.494 87.8061C171.61 87.8061 171.61 88.8979 172.494 88.8979Z" fill="white"/>
<path d="M29.639 56.9147C29.639 56.8668 29.639 56.8188 29.639 56.7709C29.639 56.1992 29.0063 55.6533 28.2619 55.6791C27.5175 55.7049 26.8848 56.1586 26.8848 56.7709C26.8848 56.8188 26.8848 56.8668 26.8848 56.9147C26.8848 57.4865 27.5175 58.0324 28.2619 58.0066C29.011 57.9771 29.639 57.5234 29.639 56.9147Z" fill="#8E97FD"/>
<path d="M135.632 8.09666C137.405 8.09666 137.405 5.91304 135.632 5.91304C133.86 5.91304 133.855 8.09666 135.632 8.09666Z" fill="#8E97FD"/>
<path d="M45.3504 86.5263C47.123 86.5263 47.123 84.3427 45.3504 84.3427C43.5778 84.3427 43.5778 86.5263 45.3504 86.5263Z" fill="#E9F2DE"/>
<path d="M27.634 130.611L31.1326 121.769H33.15L28.4701 132.792C28.3368 133.101 28.1884 133.401 28.0248 133.691C27.8612 133.976 27.6613 134.231 27.425 134.455C27.1888 134.679 26.895 134.858 26.5436 134.991C26.1983 135.124 25.7681 135.191 25.2532 135.191C25.1078 135.191 24.9352 135.182 24.7352 135.164C24.5353 135.151 24.4051 135.136 24.3445 135.118L24.399 133.719C24.4657 133.731 24.5959 133.743 24.7898 133.755C24.9836 133.761 25.126 133.764 25.2169 133.764C25.5622 133.764 25.8348 133.694 26.0347 133.555C26.2346 133.416 26.3952 133.24 26.5163 133.028C26.6435 132.81 26.7586 132.589 26.8616 132.365L27.634 130.611ZM24.6625 121.769L28.3428 130.011L28.779 131.638L27.3069 131.747L22.6997 121.769H24.6625ZM40.6105 125.168V126.558H35.6398V125.168H40.6105ZM35.8852 125.168V135H34.2041V125.168H35.8852ZM42.1008 125.168V135H40.4106V125.168H42.1008ZM46.4808 127.058V138.78H44.7906V125.168H46.3354L46.4808 127.058ZM53.1054 130.002V130.193C53.1054 130.908 53.0206 131.571 52.8509 132.183C52.6813 132.789 52.4329 133.316 52.1058 133.764C51.7847 134.212 51.3879 134.561 50.9154 134.809C50.4428 135.058 49.9006 135.182 49.2888 135.182C48.6648 135.182 48.1135 135.079 47.6349 134.873C47.1563 134.667 46.7504 134.367 46.4172 133.973C46.084 133.579 45.8175 133.107 45.6175 132.556C45.4237 132.004 45.2904 131.383 45.2177 130.693V129.675C45.2904 128.948 45.4267 128.297 45.6266 127.721C45.8266 127.146 46.0901 126.655 46.4172 126.249C46.7504 125.837 47.1533 125.525 47.6258 125.313C48.0983 125.095 48.6436 124.986 49.2615 124.986C49.8794 124.986 50.4277 125.107 50.9063 125.349C51.3849 125.586 51.7877 125.925 52.1149 126.367C52.442 126.809 52.6874 127.34 52.8509 127.957C53.0206 128.569 53.1054 129.251 53.1054 130.002ZM51.4152 130.193V130.002C51.4152 129.511 51.3637 129.051 51.2607 128.621C51.1577 128.185 50.9972 127.803 50.7791 127.476C50.567 127.143 50.2944 126.882 49.9612 126.694C49.628 126.5 49.2312 126.404 48.7708 126.404C48.3467 126.404 47.9772 126.476 47.6622 126.622C47.3532 126.767 47.0897 126.964 46.8716 127.212C46.6535 127.455 46.4748 127.733 46.3354 128.048C46.2022 128.357 46.1022 128.678 46.0356 129.012V131.365C46.1567 131.789 46.3263 132.189 46.5444 132.565C46.7625 132.934 47.0533 133.234 47.4168 133.464C47.7803 133.688 48.2377 133.8 48.789 133.8C49.2433 133.8 49.6341 133.707 49.9612 133.519C50.2944 133.325 50.567 133.061 50.7791 132.728C50.9972 132.395 51.1577 132.013 51.2607 131.583C51.3637 131.147 51.4152 130.684 51.4152 130.193ZM61.0476 133.319V128.257C61.0476 127.87 60.9688 127.533 60.8113 127.249C60.6598 126.958 60.4296 126.734 60.1207 126.576C59.8117 126.419 59.43 126.34 58.9757 126.34C58.5516 126.34 58.179 126.413 57.858 126.558C57.5429 126.703 57.2946 126.894 57.1128 127.131C56.9371 127.367 56.8493 127.621 56.8493 127.894H55.1682C55.1682 127.542 55.259 127.194 55.4408 126.849C55.6225 126.503 55.883 126.192 56.2223 125.913C56.5676 125.628 56.9795 125.404 57.4581 125.24C57.9428 125.071 58.4819 124.986 59.0756 124.986C59.7905 124.986 60.4205 125.107 60.9658 125.349C61.5171 125.592 61.9472 125.958 62.2562 126.449C62.5712 126.934 62.7287 127.542 62.7287 128.275V132.855C62.7287 133.183 62.7559 133.531 62.8105 133.9C62.8711 134.27 62.9589 134.588 63.074 134.855V135H61.3202C61.2354 134.806 61.1687 134.549 61.1203 134.228C61.0718 133.9 61.0476 133.598 61.0476 133.319ZM61.3383 129.039L61.3565 130.22H59.6572C59.1786 130.22 58.7515 130.26 58.3759 130.338C58.0003 130.411 57.6853 130.523 57.4309 130.675C57.1764 130.826 56.9826 131.017 56.8493 131.247C56.716 131.471 56.6494 131.735 56.6494 132.038C56.6494 132.347 56.719 132.628 56.8584 132.883C56.9977 133.137 57.2067 133.34 57.4854 133.492C57.7701 133.637 58.1185 133.71 58.5304 133.71C59.0454 133.71 59.4997 133.601 59.8935 133.382C60.2873 133.164 60.5993 132.898 60.8295 132.583C61.0657 132.268 61.193 131.962 61.2111 131.665L61.929 132.474C61.8866 132.728 61.7715 133.01 61.5837 133.319C61.3959 133.628 61.1445 133.925 60.8295 134.209C60.5205 134.488 60.151 134.721 59.7208 134.909C59.2968 135.091 58.8182 135.182 58.2851 135.182C57.6187 135.182 57.0341 135.051 56.5312 134.791C56.0345 134.53 55.6468 134.182 55.3681 133.746C55.0955 133.304 54.9592 132.81 54.9592 132.265C54.9592 131.738 55.0621 131.274 55.2681 130.874C55.4741 130.469 55.7709 130.132 56.1587 129.866C56.5464 129.593 57.0129 129.387 57.5581 129.248C58.1033 129.108 58.7122 129.039 59.3846 129.039H61.3383ZM68.3536 130.72L64.6279 125.168H66.6543L69.1988 129.239H71.1616L70.9162 130.72H68.3536ZM69.2714 130.547L66.4181 135H64.2917L68.2082 129.33L69.2714 130.547ZM72.0249 125.168V135H70.3437V125.168H72.0249ZM77.7589 125.168L74.0331 130.72H71.4705L71.207 129.239H73.1789L75.7233 125.168H77.7589ZM75.9596 135L73.0971 130.547L74.1785 129.33L78.086 135H75.9596ZM86.3099 129.43V130.793H81.112V129.43H86.3099ZM81.4664 125.168V135H79.7853V125.168H81.4664ZM87.673 125.168V135H85.9827V125.168H87.673ZM94.4611 135.182C93.7765 135.182 93.1556 135.067 92.5982 134.836C92.0469 134.6 91.5714 134.27 91.1715 133.846C90.7777 133.422 90.4748 132.919 90.2628 132.337C90.0508 131.756 89.9448 131.12 89.9448 130.429V130.047C89.9448 129.248 90.0629 128.536 90.2992 127.912C90.5354 127.282 90.8565 126.749 91.2624 126.313C91.6683 125.876 92.1287 125.546 92.6436 125.322C93.1586 125.098 93.6917 124.986 94.243 124.986C94.9457 124.986 95.5515 125.107 96.0604 125.349C96.5754 125.592 96.9964 125.931 97.3235 126.367C97.6507 126.797 97.893 127.306 98.0505 127.894C98.208 128.475 98.2868 129.112 98.2868 129.802V130.556H90.9443V129.184H96.6056V129.057C96.5814 128.621 96.4905 128.197 96.333 127.785C96.1816 127.373 95.9393 127.034 95.6061 126.767C95.2729 126.5 94.8185 126.367 94.243 126.367C93.8613 126.367 93.51 126.449 93.1889 126.613C92.8678 126.77 92.5921 127.006 92.3619 127.321C92.1317 127.636 91.953 128.021 91.8258 128.475C91.6986 128.93 91.635 129.454 91.635 130.047V130.429C91.635 130.896 91.6986 131.335 91.8258 131.747C91.9591 132.153 92.1499 132.51 92.3983 132.819C92.6527 133.128 92.9587 133.37 93.3161 133.546C93.6796 133.722 94.0915 133.81 94.5519 133.81C95.1456 133.81 95.6485 133.688 96.0604 133.446C96.4724 133.204 96.8328 132.88 97.1418 132.474L98.1596 133.283C97.9475 133.604 97.6779 133.91 97.3508 134.2C97.0237 134.491 96.6208 134.727 96.1422 134.909C95.6697 135.091 95.1093 135.182 94.4611 135.182ZM106.92 129.43V130.793H101.722V129.43H106.92ZM102.076 125.168V135H100.395V125.168H102.076ZM108.283 125.168V135H106.592V125.168H108.283ZM112.808 132.337L117.343 125.168H119.033V135H117.343V127.83L112.808 135H111.136V125.168H112.808V132.337ZM123.722 130.311H125.539L122.695 135H120.877L123.722 130.311ZM125.13 125.168H129.238V135H127.557V126.531H125.13C124.652 126.531 124.261 126.613 123.958 126.776C123.655 126.934 123.434 127.14 123.295 127.394C123.155 127.648 123.086 127.912 123.086 128.185C123.086 128.451 123.149 128.709 123.276 128.957C123.404 129.199 123.604 129.399 123.876 129.557C124.149 129.714 124.5 129.793 124.93 129.793H128.011V131.174H124.93C124.367 131.174 123.867 131.099 123.431 130.947C122.995 130.796 122.625 130.587 122.322 130.32C122.019 130.047 121.789 129.729 121.632 129.366C121.474 128.996 121.395 128.597 121.395 128.166C121.395 127.736 121.477 127.34 121.641 126.976C121.81 126.613 122.053 126.294 122.368 126.022C122.689 125.749 123.08 125.54 123.54 125.395C124.006 125.243 124.537 125.168 125.13 125.168ZM29.9513 149.43V150.793H24.7534V149.43H29.9513ZM25.1078 145.168V155H23.4267V145.168H25.1078ZM31.3143 145.168V155H29.6241V145.168H31.3143ZM39.8199 153.319V148.257C39.8199 147.87 39.7412 147.533 39.5837 147.249C39.4322 146.958 39.202 146.734 38.893 146.576C38.5841 146.419 38.2024 146.34 37.7481 146.34C37.324 146.34 36.9514 146.413 36.6303 146.558C36.3153 146.703 36.0669 146.894 35.8852 147.131C35.7095 147.367 35.6217 147.621 35.6217 147.894H33.9405C33.9405 147.542 34.0314 147.194 34.2132 146.849C34.3949 146.503 34.6554 146.192 34.9947 145.913C35.34 145.628 35.7519 145.404 36.2305 145.24C36.7152 145.071 37.2543 144.986 37.848 144.986C38.5629 144.986 39.1929 145.107 39.7382 145.349C40.2894 145.592 40.7196 145.958 41.0285 146.449C41.3436 146.934 41.5011 147.542 41.5011 148.275V152.855C41.5011 153.183 41.5283 153.531 41.5828 153.9C41.6434 154.27 41.7313 154.588 41.8464 154.855V155H40.0926C40.0077 154.806 39.9411 154.549 39.8926 154.228C39.8442 153.9 39.8199 153.598 39.8199 153.319ZM40.1107 149.039L40.1289 150.22H38.4296C37.951 150.22 37.5239 150.26 37.1483 150.338C36.7727 150.411 36.4577 150.523 36.2032 150.675C35.9488 150.826 35.7549 151.017 35.6217 151.247C35.4884 151.471 35.4217 151.735 35.4217 152.038C35.4217 152.347 35.4914 152.628 35.6308 152.883C35.7701 153.137 35.9791 153.34 36.2578 153.492C36.5425 153.637 36.8908 153.71 37.3028 153.71C37.8177 153.71 38.2721 153.601 38.6659 153.382C39.0596 153.164 39.3716 152.898 39.6018 152.583C39.8381 152.268 39.9653 151.962 39.9835 151.665L40.7014 152.474C40.659 152.728 40.5439 153.01 40.3561 153.319C40.1683 153.628 39.9169 153.925 39.6018 154.209C39.2929 154.488 38.9233 154.721 38.4932 154.909C38.0691 155.091 37.5906 155.182 37.0574 155.182C36.391 155.182 35.8064 155.051 35.3036 154.791C34.8068 154.53 34.4191 154.182 34.1405 153.746C33.8678 153.304 33.7315 152.81 33.7315 152.265C33.7315 151.738 33.8345 151.274 34.0405 150.874C34.2465 150.469 34.5433 150.132 34.931 149.866C35.3188 149.593 35.7852 149.387 36.3305 149.248C36.8757 149.108 37.4845 149.039 38.157 149.039H40.1107ZM50.5337 145.168H52.2148L52.0694 148.848C52.0331 149.781 51.9271 150.587 51.7514 151.265C51.5757 151.944 51.3516 152.522 51.0789 153.001C50.8063 153.473 50.5004 153.87 50.1611 154.191C49.8279 154.512 49.4826 154.782 49.1252 155H48.2892L48.3346 153.628L48.6799 153.619C48.8798 153.382 49.0737 153.14 49.2615 152.892C49.4493 152.637 49.622 152.337 49.7795 151.992C49.937 151.641 50.0672 151.214 50.1702 150.711C50.2793 150.202 50.3489 149.581 50.3792 148.848L50.5337 145.168ZM50.9517 145.168H56.8675V155H55.1863V146.722H50.9517V145.168ZM47.9075 153.619H58.1306V157.899H56.4495V155H49.5886V157.899H47.8984L47.9075 153.619ZM61.3747 148.548H64.328C65.1216 148.548 65.7911 148.687 66.3363 148.966C66.8815 149.239 67.2935 149.617 67.5721 150.102C67.8569 150.581 67.9992 151.126 67.9992 151.738C67.9992 152.192 67.9205 152.619 67.763 153.019C67.6055 153.413 67.3692 153.758 67.0542 154.055C66.7452 154.352 66.3605 154.585 65.9001 154.755C65.4457 154.918 64.9217 155 64.328 155H60.1479V145.168H61.8291V153.619H64.328C64.8127 153.619 65.2004 153.531 65.4912 153.355C65.782 153.18 65.991 152.952 66.1182 152.674C66.2454 152.395 66.309 152.104 66.309 151.801C66.309 151.504 66.2454 151.214 66.1182 150.929C65.991 150.644 65.782 150.408 65.4912 150.22C65.2004 150.026 64.8127 149.929 64.328 149.929H61.3747V148.548ZM71.4978 145.168V155H69.8167V145.168H71.4978ZM75.5779 145.168L77.7316 148.748L79.9125 145.168H81.8844L78.6676 150.02L81.9844 155H80.0397L77.7679 151.311L75.4962 155H73.5424L76.8501 150.02L73.6424 145.168H75.5779ZM89.4722 153.319V148.257C89.4722 147.87 89.3935 147.533 89.236 147.249C89.0845 146.958 88.8543 146.734 88.5453 146.576C88.2364 146.419 87.8547 146.34 87.4003 146.34C86.9763 146.34 86.6037 146.413 86.2826 146.558C85.9676 146.703 85.7192 146.894 85.5375 147.131C85.3618 147.367 85.274 147.621 85.274 147.894H83.5928C83.5928 147.542 83.6837 147.194 83.8654 146.849C84.0472 146.503 84.3077 146.192 84.6469 145.913C84.9922 145.628 85.4042 145.404 85.8828 145.24C86.3674 145.071 86.9066 144.986 87.5003 144.986C88.2152 144.986 88.8452 145.107 89.3904 145.349C89.9417 145.592 90.3719 145.958 90.6808 146.449C90.9958 146.934 91.1533 147.542 91.1533 148.275V152.855C91.1533 153.183 91.1806 153.531 91.2351 153.9C91.2957 154.27 91.3836 154.588 91.4987 154.855V155H89.7448C89.66 154.806 89.5934 154.549 89.5449 154.228C89.4965 153.9 89.4722 153.598 89.4722 153.319ZM89.763 149.039L89.7812 150.22H88.0819C87.6033 150.22 87.1762 150.26 86.8006 150.338C86.425 150.411 86.11 150.523 85.8555 150.675C85.6011 150.826 85.4072 151.017 85.274 151.247C85.1407 151.471 85.074 151.735 85.074 152.038C85.074 152.347 85.1437 152.628 85.283 152.883C85.4224 153.137 85.6314 153.34 85.9101 153.492C86.1948 153.637 86.5431 153.71 86.9551 153.71C87.47 153.71 87.9244 153.601 88.3182 153.382C88.7119 153.164 89.0239 152.898 89.2541 152.583C89.4904 152.268 89.6176 151.962 89.6358 151.665L90.3537 152.474C90.3113 152.728 90.1962 153.01 90.0084 153.319C89.8206 153.628 89.5692 153.925 89.2541 154.209C88.9452 154.488 88.5756 154.721 88.1455 154.909C87.7214 155.091 87.2428 155.182 86.7097 155.182C86.0433 155.182 85.4587 155.051 84.9559 154.791C84.4591 154.53 84.0714 154.182 83.7927 153.746C83.5201 153.304 83.3838 152.81 83.3838 152.265C83.3838 151.738 83.4868 151.274 83.6928 150.874C83.8988 150.469 84.1956 150.132 84.5833 149.866C84.971 149.593 85.4375 149.387 85.9827 149.248C86.528 149.108 87.1368 149.039 87.8093 149.039H89.763ZM100.468 149.43V150.793H95.2698V149.43H100.468ZM95.6242 145.168V155H93.9431V145.168H95.6242ZM101.831 145.168V155H100.141V145.168H101.831ZM106.356 152.337L110.891 145.168H112.581V155H110.891V147.83L106.356 155H104.684V145.168H106.356V152.337ZM119.36 155.182C118.675 155.182 118.054 155.067 117.497 154.836C116.946 154.6 116.47 154.27 116.07 153.846C115.677 153.422 115.374 152.919 115.162 152.337C114.95 151.756 114.844 151.12 114.844 150.429V150.047C114.844 149.248 114.962 148.536 115.198 147.912C115.434 147.282 115.755 146.749 116.161 146.313C116.567 145.876 117.028 145.546 117.542 145.322C118.057 145.098 118.591 144.986 119.142 144.986C119.845 144.986 120.45 145.107 120.959 145.349C121.474 145.592 121.895 145.931 122.222 146.367C122.55 146.797 122.792 147.306 122.949 147.894C123.107 148.475 123.186 149.112 123.186 149.802V150.556H115.843V149.184H121.504V149.057C121.48 148.621 121.389 148.197 121.232 147.785C121.08 147.373 120.838 147.034 120.505 146.767C120.172 146.5 119.717 146.367 119.142 146.367C118.76 146.367 118.409 146.449 118.088 146.613C117.767 146.77 117.491 147.006 117.261 147.321C117.031 147.636 116.852 148.021 116.725 148.475C116.597 148.93 116.534 149.454 116.534 150.047V150.429C116.534 150.896 116.597 151.335 116.725 151.747C116.858 152.153 117.049 152.51 117.297 152.819C117.552 153.128 117.858 153.37 118.215 153.546C118.578 153.722 118.99 153.81 119.451 153.81C120.044 153.81 120.547 153.688 120.959 153.446C121.371 153.204 121.732 152.88 122.041 152.474L123.058 153.283C122.846 153.604 122.577 153.91 122.25 154.2C121.922 154.491 121.52 154.727 121.041 154.909C120.569 155.091 120.008 155.182 119.36 155.182Z" fill="#FFECCC"/>
</g>
</svg>
