<svg width="180" height="169" viewBox="0 0 180 169" fill="none" xmlns="http://www.w3.org/2000/svg">
<rect width="180" height="169" rx="11.6316" fill="#D9A5B5"/>
<g clip-path="url(#clip0_130_2685)">
<path d="M96.4076 13.7433C95.9118 11.8457 93.2685 11.8018 91.3582 12.2012C82.44 14.0631 72.4672 17.3113 63.7831 20.079C58.6337 21.7867 53.6247 23.923 48.824 26.4602C47.3772 27.2248 45.7108 28.7653 46.523 30.1922C47.1092 31.223 48.5544 31.2457 49.7299 31.1223C62.0602 29.8253 74.2096 26.7995 85.7179 22.1601C88.9603 20.8533 92.2076 19.3826 94.83 17.0629C95.794 16.2058 96.7354 14.9949 96.4076 13.7433Z" fill="#D196A8"/>
<path d="M142.737 83.4283C142.881 86.0483 142.546 88.8306 141.271 91.3792C141.247 91.4279 141.221 91.4766 141.195 91.5253C141.182 91.5529 141.167 91.5789 141.153 91.6065C141.072 91.7623 140.987 91.9181 140.896 92.0707C140.452 92.8369 139.916 93.5771 139.275 94.28C138.48 95.1517 137.495 95.9374 136.372 96.6452C136.229 96.7361 136.086 96.8237 135.939 96.9098C135.616 97.103 135.282 97.2896 134.938 97.4698C128.094 101.07 117.516 102.382 111.595 102.853C110.127 102.879 108.661 102.963 107.201 103.103H107.195H107.193C104.647 103.345 102.116 103.754 99.6247 104.33C91.0648 106.305 83.025 110.2 74.4377 112.055C66.7547 113.716 58.077 113.445 51.6536 109.143C50.3036 108.239 49.225 106.977 48.4967 105.52C47.6683 103.861 46.974 102.384 46.2587 100.988C46.1473 100.77 46.0358 100.556 45.9228 100.341C45.905 100.309 45.8889 100.276 45.8711 100.244C44.9862 98.5802 44.0271 97.0056 42.7127 95.3384C42.5157 95.0884 42.3106 94.8352 42.0958 94.5803L42.0942 94.5787C41.9876 94.4505 41.8778 94.3206 41.7632 94.1891C41.7293 94.1485 41.6938 94.108 41.6582 94.0674C41.3288 93.6908 40.98 93.3077 40.6086 92.9165C39.3233 91.5643 37.9378 90.3111 36.6057 89.0043C36.4878 88.8891 36.3699 88.7722 36.252 88.6553C36.1584 88.5628 36.0663 88.4686 35.9727 88.3745C35.6126 88.0108 35.259 87.6407 34.9134 87.2625C28.5464 80.271 25.6512 70.2292 27.3128 60.8969C28.9743 51.5662 35.154 43.1575 43.5394 38.82C45.0799 38.023 46.672 37.3639 48.3013 36.8039C48.5161 36.7292 48.7309 36.6578 48.9472 36.5864C54.3437 34.8267 60.1165 34.0979 65.7326 33.0622C77.136 30.9633 88.2859 27.4781 98.8625 22.7072C100.623 21.9134 102.373 21.0823 104.128 20.2544C104.343 20.1521 104.559 20.0515 104.774 19.9508C110.414 17.2983 116.1 14.7449 122.207 13.6962C124.833 13.2466 127.547 13.0859 130.142 13.6849C137.045 15.2822 141.905 22.4296 141.907 29.551C141.91 37.687 136.612 45.1477 136.767 53.282C136.822 56.1747 137.567 58.9619 138.689 61.6306C139.743 64.1419 141.132 66.5476 142.595 68.8381C142.689 68.9842 142.782 69.1286 142.877 69.2747C143.867 70.812 144.897 72.333 145.895 73.8687L142.543 81.456C142.635 82.0988 142.701 82.7579 142.737 83.4283Z" fill="#D196A8"/>
<path d="M141.271 91.3791C141.246 91.4278 141.221 91.4765 141.195 91.5252L67.1535 99.132L67.0954 99.1385L41.7631 94.189C41.7292 94.1485 41.6937 94.1079 41.6581 94.0673C41.3287 93.6907 40.9799 93.3076 40.6086 92.9164C39.3232 91.5642 37.9378 90.311 36.6056 89.0042C36.4877 88.889 36.3698 88.7721 36.252 88.6552L102.93 85.4444L133.891 83.9542L141.642 83.4932L142.737 83.4282C142.881 86.0482 142.546 88.8305 141.271 91.3791Z" fill="#B29EEF"/>
<path d="M104.775 19.951V64.4326C104.775 64.6112 104.63 64.7573 104.452 64.7573C104.273 64.7573 104.129 64.6112 104.129 64.4326V20.2545C104.344 20.1523 104.561 20.0516 104.775 19.951Z" fill="#D9A5B5"/>
<path d="M141.152 91.6065C141.072 91.7623 140.986 91.9181 140.896 92.0707C140.452 92.8369 139.915 93.5771 139.274 94.28C138.48 95.1517 137.495 95.9374 136.371 96.6452C136.229 96.7361 136.085 96.8237 135.938 96.9098L77.2695 103.687L68.0396 104.754L67.8797 101.804L67.7603 99.6109L67.7748 99.6093L72.6303 99.0801L141.152 91.6065Z" fill="white"/>
<path d="M48.9472 36.5864V83.6296C48.9472 83.8098 48.8035 83.9543 48.6242 83.9543C48.4466 83.9543 48.3013 83.8098 48.3013 83.6296V36.8039C48.516 36.7293 48.7308 36.6578 48.9472 36.5864Z" fill="#D9A5B5"/>
<path d="M73.7557 59.4197C72.8595 57.6617 71.1188 56.5254 68.5594 56.0189C68.5578 56.0173 68.5562 56.0173 68.553 56.0173C66.9834 55.7056 65.1071 55.6293 62.9256 55.7916C52.8657 56.5432 45.4652 58.535 40.931 61.7102C37.8355 63.8789 36.5276 67.9225 37.7532 71.5457L43.3645 88.1375L43.555 88.7024L58.1507 87.67L61.5482 87.4297L61.6176 87.4248L61.6612 87.3713C61.6628 87.368 61.6757 87.3534 61.6984 87.3258C62.1198 86.8161 65.9613 82.115 69.2909 76.5617C74.027 68.666 75.5287 62.8984 73.7557 59.4197ZM61.4578 87.1099L49.8897 87.9297L44.5739 88.3047H44.5723L43.7811 88.3615L43.7019 88.1261L38.0584 71.4402C36.8796 67.955 38.1375 64.0623 41.1167 61.9764C44.4641 59.6307 49.4052 57.9376 55.8546 56.9198C55.8659 56.9182 55.8788 56.9166 55.8933 56.9133C58.0732 56.5708 60.4275 56.3062 62.9498 56.1163C63.691 56.0611 64.3966 56.0335 65.0667 56.0335C69.4492 56.0335 72.2701 57.2185 73.4683 59.569C77.4745 67.4307 62.3895 85.9785 61.4578 87.1099Z" fill="#FEECD6"/>
<path d="M44.6488 88.532L38.8874 71.4922C37.6844 67.9356 38.9407 63.9893 42.0055 61.8433C45.5676 59.3483 52.0654 56.8387 63.9193 55.954C90.2931 53.985 62.5193 87.2675 62.5193 87.2675L44.6488 88.532Z" fill="#FEECD6"/>
<path d="M92.8731 28.0852C92.999 27.5852 93.0281 27.1307 93.0184 26.6843C93.0071 26.2395 92.9506 25.7947 92.9183 25.3093C92.8747 25.0058 92.8069 24.7039 92.7148 24.4084C92.3515 23.2218 91.6281 22.1196 90.6867 21.3144C88.8039 19.7057 86.2461 19.1132 83.7772 19.0321C80.0761 18.9087 76.0651 20.0141 73.8577 23.0026C71.9733 25.5512 71.7472 28.9179 70.893 31.9746C69.4898 37.002 66.291 41.354 62.6223 45.0486C60.473 47.2141 58.0138 49.4202 57.4486 52.4265C56.8947 55.3761 58.432 58.4603 60.7944 60.2947C61.655 60.9635 62.632 61.4992 63.688 61.7621C64.7618 62.03 65.8922 62.0089 66.9821 61.8222C70.3279 61.2492 73.2005 59.1924 76.0296 57.3094C76.3122 57.1211 76.598 56.9328 76.8822 56.725C78.9361 55.1715 79.0976 52.4119 80.7124 50.464C80.9949 50.0776 81.2856 49.8049 81.5795 49.6231C85.3951 49.49 91.6927 47.3797 92.6793 52.7885C92.7826 53.0872 92.886 53.3843 93.0006 53.6684C93.4608 54.803 94.1003 55.7332 95.5374 55.8062C95.7861 55.8257 96.038 55.8338 96.2915 55.8306C97.5558 55.8127 98.8363 55.4865 99.7132 54.5969C100.645 53.6521 100.95 52.2447 100.96 50.9153C100.974 49.0631 100.49 47.2093 99.5727 45.6038C99.219 44.9837 98.8073 44.4074 98.3584 43.8572C98.1339 43.5828 97.9014 43.3133 97.6608 43.0552C94.2763 40.7242 92.0156 36.8283 92.471 32.632C92.4758 32.2262 92.4936 31.822 92.521 31.4146C92.605 30.1971 92.7826 28.9683 92.9732 27.7573L92.8731 28.0852Z" fill="#3F4553"/>
<path d="M91.3262 28.7507C90.564 31.0281 91.5555 33.3787 93.0023 35.1481C94.8044 37.3525 97.1329 38.9807 98.6798 41.4156C100.227 43.8522 101.473 46.943 100.844 49.8795C100.585 51.0872 99.9248 51.5791 98.7848 51.8908C97.8272 52.1521 96.9359 52.4313 96.1107 53.0076C95.9202 53.1407 96.101 53.4573 96.2948 53.3225C97.2523 52.6537 98.2858 52.4638 99.3644 52.1018C100.039 51.8745 100.593 51.5044 100.915 50.847C102.003 48.6166 101.149 45.5518 100.194 43.4431C98.9947 40.7907 97.1619 38.8005 95.0918 36.8136C92.9749 34.7828 90.6189 32.0119 91.6782 28.8481C91.7525 28.624 91.4005 28.5283 91.3262 28.7507Z" fill="#4E5567"/>
<path d="M79.1479 47.5842L81.0211 46.206L83.4174 45.0697L90.779 47.5842L93.9229 81.042L85.7975 83.0954L80.1959 66.132L79.1479 47.5842Z" fill="white"/>
<path d="M94.1067 42.8133C97.1618 43.4269 100.043 45.1623 101.659 47.8959C103.34 50.7383 103.369 54.4556 101.507 57.2152C101.376 57.41 101.69 57.5935 101.82 57.4003C103.705 54.605 103.716 50.8487 102.093 47.9251C100.469 44.9967 97.4202 43.1088 94.2019 42.4627C93.9743 42.414 93.8774 42.7663 94.1067 42.8133Z" fill="#4E5567"/>
<path d="M69.3611 38.4873C66.9728 40.3784 64.6864 42.3962 62.3014 44.2922C60.4202 45.7872 58.3113 47.1167 56.9904 49.1864C54.3794 53.2771 56.2751 58.3256 59.8728 61.0787C61.8928 62.6257 64.6331 63.8545 67.1892 63.0672C67.4121 62.9991 67.3168 62.6452 67.0923 62.715C64.7477 63.4373 62.2432 62.3595 60.3491 60.9813C58.4647 59.6112 56.9388 57.6665 56.3591 55.3744C55.7955 53.144 56.2557 50.774 57.6105 48.9234C58.9249 47.1281 60.8416 45.9155 62.5581 44.5519C64.9431 42.6575 67.2296 40.6381 69.6178 38.747C69.8019 38.6009 69.5435 38.3428 69.3611 38.4873Z" fill="#4E5567"/>
<path d="M100.886 90.2819L76.4609 89.6926C76.4609 89.0319 76.955 88.4784 77.609 88.4086L102.835 85.6701L100.886 90.2819Z" fill="#400F58"/>
<path d="M73.0146 29.5363C72.7271 32.3592 72.141 35.187 70.9299 37.7664C69.7285 40.3263 67.8393 42.323 65.9096 44.3391C64.1851 46.141 62.4492 48.0435 61.6063 50.4443C60.9023 52.4443 61.0509 54.613 61.9923 56.509C62.9337 58.4034 64.6566 59.7881 66.8252 59.7426C67.0594 59.7377 67.0594 59.3725 66.8252 59.3774C64.6275 59.4228 62.9773 57.9034 62.1408 55.9603C61.1397 53.6341 61.4562 51.1635 62.6688 48.9785C63.9025 46.7562 65.8015 45.016 67.5196 43.1817C69.165 41.4253 70.5763 39.5471 71.5274 37.3167C72.5802 34.8477 73.1082 32.1985 73.3779 29.5363C73.4005 29.3025 73.0372 29.3041 73.0146 29.5363Z" fill="#4E5567"/>
<path d="M91.1129 36.2943C91.0983 39.4516 93.6916 41.5294 95.6196 43.6689C96.7596 44.9351 97.7785 46.4042 97.8884 48.1638C97.9965 49.8975 97.2796 51.5825 96.0088 52.7431C95.836 52.9022 96.0928 53.1587 96.2655 53.0012C98.5407 50.9234 98.8152 47.6103 97.1714 45.0617C95.3128 42.1787 91.4584 40.1171 91.4762 36.2943C91.4778 36.0589 91.1145 36.0589 91.1129 36.2943Z" fill="#4E5567"/>
<path d="M89.7344 47.2612C90.4368 48.766 89.8167 50.5338 90.0541 52.1798C91.4363 61.7784 91.0924 71.6058 91.2409 81.2807C91.2635 82.7498 91.3265 84.3406 92.2453 85.485C92.4197 85.7025 92.6329 85.9054 92.8993 85.9899C93.1092 86.0564 93.3353 86.0434 93.5565 86.0304C96.6778 85.8405 99.7991 85.6506 102.92 85.4607C101.906 79.435 100.892 73.4077 99.8782 67.382C102.313 70.4192 104.747 73.4564 107.182 76.4936C108.212 73.7827 109.241 71.0717 110.271 68.3592C110.394 68.0346 110.519 67.6937 110.473 67.3495C110.431 67.0443 110.258 66.7765 110.088 66.52C107.71 62.9212 105.212 59.4035 102.585 55.9832C100.991 53.907 99.3228 51.8422 97.2042 50.313C95.0098 48.7254 92.3115 47.8862 89.7344 47.2612Z" fill="#FB7C85"/>
<path d="M101.67 84.1944C101.675 84.4038 101.515 84.5808 101.342 84.696C101.024 84.9054 100.642 84.985 100.265 85.0369C98.5618 85.269 96.7937 84.9963 95.2371 84.2642C95.87 85.1213 96.5014 85.9768 97.1344 86.8339C97.2184 86.9475 97.3072 87.0839 97.27 87.2203C97.241 87.3306 97.1392 87.4021 97.044 87.4621C96.9148 87.5417 96.7791 87.6131 96.6419 87.6764C95.912 88.0173 95.0853 88.1472 94.2876 88.04C92.5856 87.8111 91.1469 86.5644 89.4433 86.3372C88.5827 86.2203 87.7107 86.3745 86.842 86.4248C85.9732 86.4735 85.048 86.4021 84.3375 85.8989C84.1663 85.7788 84.0064 85.6294 83.9289 85.4346C83.7303 84.9444 84.1066 84.4282 84.4117 83.9964C84.507 83.8616 84.5958 83.7237 84.6798 83.5824C85.1206 82.852 85.421 82.0387 85.5615 81.1962C86.4996 81.1394 87.6897 80.8212 88.5956 80.5761C89.9148 80.2206 91.3342 79.6735 92.5889 80.2141C92.8811 80.3407 93.1476 80.5209 93.4124 80.6995C95.6052 82.1815 97.9983 83.6652 100.642 83.6636C101.073 83.6636 101.662 83.761 101.67 84.1944Z" fill="#FFB9A3"/>
<path d="M96.6419 87.6765C95.912 88.0174 95.0853 88.1473 94.2876 88.0402C92.5856 87.8113 91.1469 86.5646 89.4433 86.3373C88.5827 86.2204 87.7107 86.3747 86.842 86.425C85.9732 86.4737 85.048 86.4023 84.3375 85.899C84.1663 85.7789 84.0064 85.6296 83.9289 85.4348C83.7303 84.9445 84.1066 84.4283 84.4117 83.9965C84.507 83.8618 84.5958 83.7238 84.6798 83.5826C85.2999 84.0306 86.5965 84.5793 89.0687 84.2725C92.9845 83.7855 92.1771 86.0581 94.9625 86.8698C95.8587 87.1311 96.3658 87.4136 96.6419 87.6765Z" fill="#FF9B8D"/>
<path d="M92.1675 23.6762C90.5043 18.2723 84.2407 17.0434 79.3625 18.2934C77.005 18.8972 74.7831 20.1553 73.2313 22.0643C71.3986 24.319 70.6719 27.2247 70.2489 30.046C69.9728 31.8852 69.829 33.7488 69.4027 35.562C69.1541 36.6204 68.5986 37.5538 68.2224 38.5684C68.14 38.7891 68.492 38.8849 68.5728 38.6658C68.8553 37.9028 69.2719 37.195 69.54 36.4305C69.9453 35.2779 70.0858 34.0036 70.2473 32.7975C70.63 29.9373 70.9222 26.9942 72.2043 24.3661C74.4634 19.7365 79.7016 17.722 84.6153 18.321C87.9143 18.7219 90.795 20.4572 91.8155 23.7736C91.8866 23.9976 92.237 23.9019 92.1675 23.6762Z" fill="#4E5567"/>
<path d="M80.2281 32.098C78.5455 31.5883 77.7042 32.2733 77.5024 33.4664C77.2989 34.6579 78.376 35.8949 79.5774 35.8527C79.6936 37.3234 79.9019 38.8087 80.4929 40.1593C81.0823 41.5099 82.0964 42.7257 83.4528 43.2874C84.9642 43.9156 86.8114 43.625 88.0613 42.565C88.5618 42.1397 88.9639 41.6105 89.3434 41.0732C90.5028 39.4304 91.5087 37.6367 91.9496 35.6709C92.3904 33.7051 92.216 31.5428 91.1551 29.8335C91.0405 29.6484 90.9064 29.4618 90.7127 29.3627C90.4366 29.2215 90.1055 29.2897 89.8068 29.3676C86.5805 30.2215 83.5626 32.1077 80.2281 32.098Z" fill="#FFB9A3"/>
<path d="M92.7392 24.944C92.9798 25.8027 93.222 26.6777 93.1881 27.5689C93.1542 28.4601 92.7957 29.3854 92.0594 29.8837C91.4716 30.2814 90.732 30.3577 90.0619 30.5866C88.7039 31.0492 87.6543 32.1174 86.595 33.0897C85.5923 34.0101 84.3328 34.9273 83.0022 34.6595C81.7782 34.4127 80.9693 33.2423 80.4703 32.0914C80.2022 31.4745 79.9826 30.7895 80.1393 30.1353C80.2297 29.7587 80.4396 29.4211 80.6721 29.1126C82.0108 27.3465 84.1826 26.3741 86.3641 26.0365C88.5473 25.6988 90.7724 25.9261 92.9685 26.155L92.7392 24.944Z" fill="#3F4553"/>
<path d="M80.5005 32.1581C80.9721 34.942 84.137 36.3251 86.4622 34.6872C87.5667 33.9096 88.2788 32.7262 89.2428 31.7993C90.2666 30.8156 92.0525 30.3903 92.3367 28.8141C92.3787 28.5836 92.0283 28.4862 91.9863 28.7167C91.7311 30.1241 90.0986 30.5299 89.1508 31.3854C88.387 32.0753 87.7976 32.9324 87.079 33.6677C86.1199 34.6498 84.883 35.2699 83.4878 34.9648C82.0669 34.6531 81.0883 33.4681 80.8493 32.0607C80.8122 31.8302 80.4618 31.9292 80.5005 32.1581Z" fill="#4E5567"/>
<path d="M141.271 91.3791C141.246 91.4278 141.221 91.4765 141.195 91.5252C141.182 91.5528 141.167 91.5788 141.153 91.6064C141.072 91.7622 140.986 91.9181 140.896 92.0707L72.6307 99.0801L67.7735 99.5784L67.7751 99.6093L67.8801 101.804L68.0222 104.789L77.2699 103.687L136.371 96.6451C136.229 96.736 136.086 96.8237 135.939 96.9097C135.616 97.1029 135.281 97.2896 134.938 97.4697L67.7541 105.474C67.7428 105.476 67.7299 105.477 67.717 105.477C67.6411 105.477 67.5668 105.45 67.5087 105.4C67.4393 105.343 67.3989 105.258 67.3941 105.167L67.1147 99.3024C67.1115 99.2408 67.126 99.1823 67.1535 99.132C67.2019 99.0411 67.2939 98.9745 67.4037 98.9632L141.271 91.3791Z" fill="#6737C3"/>
<path d="M67.7542 99.3496C67.7236 99.5038 67.5879 99.6109 67.4378 99.6109C67.4168 99.6109 67.3958 99.6093 67.3748 99.6061L67.16 99.5639L42.4058 94.642V94.6404L42.0958 94.5803L42.0942 94.5787C41.9537 94.4099 41.8084 94.2395 41.6582 94.0674C41.7212 93.944 41.86 93.871 42.0054 93.9002L67.4991 98.9681C67.6751 99.0038 67.7882 99.1743 67.7542 99.3496Z" fill="#6737C3"/>
<path d="M68.0336 105.219C68.0013 105.372 67.8673 105.477 67.7171 105.477C67.6961 105.477 67.6735 105.474 67.6509 105.471L46.2586 100.987C46.1472 100.77 46.0358 100.556 45.9228 100.341C45.905 100.309 45.8889 100.276 45.8711 100.244L67.3635 104.747L67.7833 104.835C67.9577 104.872 68.0691 105.044 68.0336 105.219Z" fill="#6737C3"/>
<path d="M58.429 87.9816C58.4339 88.1602 58.295 88.3112 58.1158 88.316L36.6056 89.0043C36.3925 88.7965 36.1826 88.5871 35.9727 88.3745L43.365 88.1375L43.7025 88.1261L44.505 88.1018L49.8902 87.9297L55.8713 87.7381L58.0964 87.6667C58.1158 87.6667 58.1335 87.6667 58.1513 87.67C58.3031 87.6911 58.4226 87.8209 58.429 87.9816Z" fill="#6737C3"/>
<path d="M124.147 47.8329C124.367 46.8995 123.793 45.9634 122.865 45.742C121.936 45.5206 121.005 46.0978 120.785 47.0312C120.565 47.9645 121.139 48.9007 122.067 49.1221C122.996 49.3435 123.927 48.7663 124.147 47.8329Z" fill="#D9A5B5"/>
<path d="M122.467 51.1492C120.429 51.1492 118.771 49.4821 118.771 47.4335C118.771 45.3849 120.429 43.7178 122.467 43.7178C124.505 43.7178 126.163 45.3849 126.163 47.4335C126.164 49.4821 124.506 51.1492 122.467 51.1492ZM122.467 43.8785C120.518 43.8785 118.932 45.4726 118.932 47.4319C118.932 49.3912 120.518 50.9853 122.467 50.9853C124.416 50.9853 126.001 49.3912 126.001 47.4319C126.003 45.4726 124.417 43.8785 122.467 43.8785Z" fill="#D9A5B5"/>
<path d="M99.3358 28.4975C99.6926 28.4975 99.9817 28.2068 99.9817 27.8482C99.9817 27.4896 99.6926 27.1989 99.3358 27.1989C98.9791 27.1989 98.6899 27.4896 98.6899 27.8482C98.6899 28.2068 98.9791 28.4975 99.3358 28.4975Z" fill="#D9A5B5"/>
<path d="M37.6843 55.2738C36.3666 55.2738 35.2944 54.1959 35.2944 52.8713C35.2944 51.5467 36.3666 50.4688 37.6843 50.4688C39.0019 50.4688 40.0741 51.5467 40.0741 52.8713C40.0741 54.1959 39.0019 55.2738 37.6843 55.2738ZM37.6843 50.7935C36.5443 50.7935 35.6174 51.7252 35.6174 52.8713C35.6174 54.0173 36.5443 54.9491 37.6843 54.9491C38.8243 54.9491 39.7512 54.0173 39.7512 52.8713C39.7512 51.7252 38.8243 50.7935 37.6843 50.7935Z" fill="#D9A5B5"/>
<path d="M57.8381 27.1989C57.8381 27.7411 57.4005 28.181 56.8612 28.181C56.3219 28.181 55.8843 27.7411 55.8843 27.1989C55.8843 26.6567 56.3219 26.2168 56.8612 26.2168C57.4021 26.2184 57.8381 26.6567 57.8381 27.1989Z" fill="#D9A5B5"/>
<path d="M149.053 66.7278L145.896 73.8687L142.544 81.456L141.642 83.4932L139.096 89.2543L100.888 90.2818L102.93 85.4444L111.8 64.4422C112.283 63.301 113.362 62.5283 114.592 62.4406C119.005 62.1322 129.852 61.4602 138.689 61.6306C141.612 61.6858 144.317 61.8351 146.493 62.1192C147.262 62.2199 147.919 62.5754 148.407 63.0835C149.298 64.0055 149.627 65.4291 149.053 66.7278Z" fill="#FEECD6"/>
<path d="M99.6973 90.3403L99.397 90.2218L101.44 85.0094L110.311 63.7961C110.82 62.5819 111.942 61.7686 113.24 61.6761C117.54 61.3725 128.498 60.6859 137.352 60.8579C140.509 60.918 143.139 61.0852 145.174 61.353C145.95 61.4553 146.645 61.8092 147.182 62.3757C148.169 63.4065 148.435 64.921 147.859 66.2343L140.449 83.1653L140.153 83.0338L147.564 66.1028C148.087 64.9113 147.844 63.5364 146.948 62.5997C146.461 62.0868 145.832 61.767 145.13 61.6744C143.108 61.4082 140.488 61.2426 137.344 61.1826C128.503 61.0105 117.557 61.6972 113.261 62.0007C112.086 62.0851 111.068 62.8221 110.607 63.9227L101.737 85.1327L99.6973 90.3403Z" fill="#FEECD6"/>
<path d="M128.985 77.2652C130.576 75.7933 131.072 73.7339 130.093 72.6654C129.115 71.5969 127.032 71.9239 125.442 73.3958C123.851 74.8677 123.355 76.9271 124.334 77.9956C125.312 79.0641 127.395 78.7371 128.985 77.2652Z" fill="#B29EEF"/>
<path d="M100.356 67.9405C99.5969 66.4308 98.5909 65.0494 97.9886 63.4618C97.8788 63.1712 97.4105 63.2978 97.5219 63.5916C98.142 65.2214 99.1593 66.637 99.9392 68.1872C100.078 68.4664 100.496 68.2197 100.356 67.9405Z" fill="white"/>
<path d="M93.7143 82.8716C94.7284 85.1393 98.1614 85.524 100.264 85.2789C100.571 85.2432 100.574 84.7562 100.264 84.7919C98.3277 85.0176 95.0756 84.7367 94.1326 82.6265C94.005 82.3408 93.5868 82.5891 93.7143 82.8716Z" fill="white"/>
<path d="M85.7973 80.9478C85.5341 76.5178 85.1191 72.0976 84.5523 67.6968C84.0937 64.1321 83.661 60.5511 82.7971 57.0561C82.3659 55.3127 81.8266 53.5952 81.1387 51.9346C80.488 50.3616 79.4255 48.6458 80.0859 46.891C78.3549 48.1409 77.2149 48.6523 75.2303 49.4315C73.6317 50.0597 71.9718 50.5239 70.3877 51.1895C69.4673 51.5758 68.5646 52.0352 67.8138 52.6943C66.9644 53.4394 66.3411 54.4069 65.7582 55.376C65.0994 56.4717 64.4745 57.5902 63.9384 58.7524C63.0777 60.6176 62.4512 62.5802 61.7358 64.5054C60.457 67.9436 58.889 71.2697 57.1742 74.5114C56.0923 76.5568 54.9297 78.633 54.6261 80.93C54.3225 83.2269 55.0992 85.8404 57.1015 86.9865C58.0155 87.5092 59.086 87.678 60.1356 87.7575C67.8009 88.3338 75.0672 87.2754 83.7304 86.144C83.9678 86.1131 83.5092 86.2349 83.7304 86.144C83.9855 86.0401 84.1325 85.7787 84.2536 85.5304C84.9528 84.0954 85.6956 82.5451 85.7973 80.9478Z" fill="#FB7C85"/>
<path d="M73.2879 67.882C72.1027 70.864 71.1258 73.9206 70.3571 77.0374C70.3249 77.1688 70.3991 77.2971 70.5267 77.3377C74.6056 78.6233 78.8943 78.8035 83.0636 79.6525C83.6304 79.7678 85.3905 79.922 85.5181 80.5567C85.6069 81.0015 85.4147 81.6151 85.3243 82.0469C85.0078 83.5646 84.4652 85.1425 83.4076 86.3032C83.1977 86.5337 83.5384 86.8794 83.7499 86.6473C84.8447 85.4444 85.4341 83.8357 85.7716 82.2644C85.954 81.417 86.3836 80.1898 85.397 79.7402C84.3474 79.2613 83.0071 79.133 81.8784 78.9382C80.6577 78.7272 79.4304 78.5584 78.2032 78.3863C75.6568 78.0292 73.1135 77.6445 70.6543 76.8685C70.7108 76.9676 70.7673 77.0682 70.8238 77.1688C71.5908 74.0505 72.5694 70.9954 73.7546 68.0134C73.8692 67.7212 73.401 67.5946 73.2879 67.882Z" fill="white"/>
<path d="M70.557 76.867C69.2168 77.0699 67.9363 77.4547 66.701 78.0098C66.4168 78.1381 66.6623 78.5569 66.9448 78.4303C68.143 77.8913 69.388 77.5326 70.6862 77.3362C70.993 77.2907 70.8622 76.82 70.557 76.867Z" fill="white"/>
<path d="M87.2921 51.8405C86.1553 52.2545 84.8958 52.1279 83.7089 51.8892C82.5318 51.6522 81.2594 51.2269 80.6554 50.1831C79.8933 48.8699 80.5085 47.2304 80.8718 45.7548C81.3385 43.8701 81.3563 41.8751 80.9267 39.9823L85.3899 40.8475L86.9045 41.1414C86.8642 43.0974 87.3615 45.0616 88.3288 46.7596C88.4208 46.9203 88.5161 47.0794 88.6097 47.2401C88.9617 47.8358 89.3008 48.4446 89.3364 49.1264C89.4009 50.3406 88.4305 51.4266 87.2921 51.8405Z" fill="#FFB9A3"/>
<path d="M88.6104 47.24C84.433 46.9316 82.8409 44.0113 82.3145 42.6087C82.66 42.8863 83.0411 43.1168 83.4529 43.2873C84.5993 43.7629 85.938 43.711 87.0618 43.198C87.2734 44.4479 87.7029 45.6589 88.3294 46.7595C88.4214 46.9202 88.5167 47.0793 88.6104 47.24Z" fill="#FF9B8D"/>
<mask id="path-44-inside-1_130_2685" fill="white">
<path d="M122.467 35.6419C117.354 35.6419 113.195 31.4603 113.195 26.3209C113.195 21.1815 117.354 16.9999 122.467 16.9999C127.579 16.9999 131.739 21.1815 131.739 26.3209C131.739 31.4603 127.581 35.6419 122.467 35.6419ZM122.467 17.1623C117.443 17.1623 113.356 21.2708 113.356 26.3209C113.356 31.371 117.443 35.4796 122.467 35.4796C127.49 35.4796 131.577 31.371 131.577 26.3209C131.577 21.2708 127.49 17.1623 122.467 17.1623Z"/>
</mask>
<path d="M122.467 35.6419C117.354 35.6419 113.195 31.4603 113.195 26.3209C113.195 21.1815 117.354 16.9999 122.467 16.9999C127.579 16.9999 131.739 21.1815 131.739 26.3209C131.739 31.4603 127.581 35.6419 122.467 35.6419ZM122.467 17.1623C117.443 17.1623 113.356 21.2708 113.356 26.3209C113.356 31.371 117.443 35.4796 122.467 35.4796C127.49 35.4796 131.577 31.371 131.577 26.3209C131.577 21.2708 127.49 17.1623 122.467 17.1623Z" fill="#F9F7F1"/>
<path d="M122.467 29.8261C120.595 29.8261 119.011 28.2773 119.011 26.3209H107.379C107.379 34.6433 114.114 41.4577 122.467 41.4577V29.8261ZM119.011 26.3209C119.011 24.3645 120.595 22.8157 122.467 22.8157V11.1841C114.114 11.1841 107.379 17.9986 107.379 26.3209H119.011ZM122.467 22.8157C124.338 22.8157 125.923 24.3645 125.923 26.3209H137.554C137.554 17.9986 130.82 11.1841 122.467 11.1841V22.8157ZM125.923 26.3209C125.923 28.2779 124.339 29.8261 122.467 29.8261V41.4577C130.822 41.4577 137.554 34.6426 137.554 26.3209H125.923ZM122.467 11.3465C114.202 11.3465 107.541 18.0878 107.541 26.3209H119.172C119.172 24.4538 120.684 22.978 122.467 22.978V11.3465ZM107.541 26.3209C107.541 34.554 114.202 41.2953 122.467 41.2953V29.6638C120.684 29.6638 119.172 28.188 119.172 26.3209H107.541ZM122.467 41.2953C130.731 41.2953 137.393 34.554 137.393 26.3209H125.761C125.761 28.188 124.249 29.6638 122.467 29.6638V41.2953ZM137.393 26.3209C137.393 18.0878 130.731 11.3465 122.467 11.3465V22.978C124.249 22.978 125.761 24.4538 125.761 26.3209H137.393Z" fill="#F9F7F1" mask="url(#path-44-inside-1_130_2685)"/>
<mask id="path-46-inside-2_130_2685" fill="white">
<path d="M122.37 26.4151L123.587 19.2239L123.747 19.2515L122.567 26.2268C124.114 26.0304 126.373 25.7252 126.529 25.6489L126.558 25.7106L126.571 25.7122L126.631 25.6522L126.652 25.7398C126.633 25.7983 126.605 25.8794 122.479 26.4005L122.37 26.4151Z"/>
</mask>
<path d="M122.37 26.4151L123.587 19.2239L123.747 19.2515L122.567 26.2268C124.114 26.0304 126.373 25.7252 126.529 25.6489L126.558 25.7106L126.571 25.7122L126.631 25.6522L126.652 25.7398C126.633 25.7983 126.605 25.8794 122.479 26.4005L122.37 26.4151Z" fill="#F9F7F1"/>
<path d="M122.37 26.4151L116.635 25.4443L115.319 33.2203L123.137 32.1801L122.37 26.4151ZM123.587 19.2239L124.576 13.4929L118.827 12.5004L117.853 18.2531L123.587 19.2239ZM123.747 19.2515L129.481 20.2219L130.448 14.5065L124.736 13.5205L123.747 19.2515ZM122.567 26.2268L116.832 25.2564L115.525 32.9834L123.299 31.9963L122.567 26.2268ZM126.529 25.6489L131.79 23.17L129.279 17.8404L123.982 20.4204L126.529 25.6489ZM126.558 25.7106L121.297 28.1895L122.66 31.0823L125.833 31.481L126.558 25.7106ZM126.571 25.7122L125.846 31.4826L128.68 31.8388L130.694 29.8137L126.571 25.7122ZM126.631 25.6522L132.287 24.2977L129.859 14.1602L122.508 21.5507L126.631 25.6522ZM126.652 25.7398L132.172 27.5702L132.694 25.9971L132.308 24.3853L126.652 25.7398ZM122.479 26.4005L121.751 20.6306L121.732 20.633L121.712 20.6355L122.479 26.4005ZM128.104 27.3859L129.321 20.1947L117.853 18.2531L116.635 25.4443L128.104 27.3859ZM122.598 24.9549L122.758 24.9825L124.736 13.5205L124.576 13.4929L122.598 24.9549ZM118.013 18.2811L116.832 25.2564L128.301 27.1972L129.481 20.2219L118.013 18.2811ZM123.299 31.9963C124.089 31.896 125.071 31.7667 125.887 31.6509C126.289 31.5937 126.684 31.5353 127.005 31.4825C127.159 31.4572 127.344 31.4254 127.523 31.3894C127.608 31.3723 127.747 31.3434 127.906 31.3031C127.909 31.3023 128.465 31.175 129.076 30.8774L123.982 20.4204C124.355 20.239 124.661 20.1414 124.754 20.1119C124.887 20.0696 124.993 20.0421 125.046 20.0285C125.154 20.0012 125.226 19.9869 125.232 19.9858C125.251 19.9819 125.222 19.988 125.118 20.005C124.923 20.0371 124.627 20.0815 124.252 20.1347C123.512 20.2397 122.591 20.3612 121.834 20.4573L123.299 31.9963ZM121.268 28.1278L121.297 28.1895L131.819 23.2317L131.79 23.17L121.268 28.1278ZM125.833 31.481L125.846 31.4826L127.296 19.9418L127.283 19.9402L125.833 31.481ZM130.694 29.8137L130.754 29.7536L122.508 21.5507L122.448 21.6108L130.694 29.8137ZM120.975 27.0066L120.996 27.0943L132.308 24.3853L132.287 24.2977L120.975 27.0066ZM121.132 23.9094C121.121 23.9429 121.28 23.4159 121.612 22.8407C121.981 22.2031 122.442 21.6863 122.927 21.2843C123.372 20.9162 123.783 20.6883 124.049 20.5577C124.32 20.4247 124.546 20.3409 124.682 20.2942C124.941 20.2053 125.127 20.1649 125.143 20.1612C125.183 20.1525 125.175 20.1552 125.094 20.1695C124.727 20.2343 123.821 20.3691 121.751 20.6306L123.208 32.1705C125.264 31.9108 126.434 31.7445 127.117 31.6238C127.37 31.5791 127.914 31.483 128.462 31.2946C128.691 31.216 129.513 30.9328 130.346 30.243C130.842 29.8321 131.309 29.3071 131.682 28.6616C131.857 28.36 131.976 28.0906 132.057 27.8874C132.096 27.7892 132.125 27.7077 132.143 27.6547C132.153 27.6281 132.16 27.6064 132.165 27.5926C132.167 27.5857 132.169 27.58 132.17 27.5764C132.171 27.5749 132.171 27.5728 132.172 27.572C132.172 27.5712 132.172 27.5704 132.172 27.5702L121.132 23.9094ZM121.712 20.6355L121.603 20.6501L123.137 32.1801L123.247 32.1655L121.712 20.6355Z" fill="#F9F7F1" mask="url(#path-46-inside-2_130_2685)"/>
<path d="M153.832 39.166C153.459 38.0524 152.994 36.9226 152.133 36.1272C150.499 34.6159 147.788 34.7831 145.971 36.0688C144.155 37.3544 143.116 39.5004 142.574 41.6643C142.076 45.1105 142.202 47.552 143.236 51.1784C143.74 52.9446 144.515 54.6977 145.868 55.9347C147.221 57.1716 149.247 57.7869 150.936 57.084C152.548 56.4136 153.517 54.7432 154.105 53.0939C155.694 48.6396 155.332 43.6496 153.832 39.166Z" fill="#D196A8"/>
<path d="M71.7686 66.7895C72.0479 67.0135 72.2514 67.3106 72.5178 67.5476C72.7713 67.7732 73.0652 67.9437 73.3591 68.1109C73.632 68.2651 73.8758 67.8447 73.6029 67.6905C73.3155 67.5281 73.0249 67.3658 72.7859 67.1353C72.5533 66.9096 72.3644 66.6483 72.1109 66.4454C71.8687 66.2522 71.5248 66.5947 71.7686 66.7895Z" fill="white"/>
<path d="M97.9731 63.689C98.3073 63.2117 98.6303 62.7263 98.9419 62.2345C99.1099 61.9699 98.6916 61.7248 98.5237 61.9894C98.212 62.4812 97.8891 62.9666 97.5548 63.4438C97.3756 63.7003 97.7954 63.9438 97.9731 63.689Z" fill="white"/>
<path d="M79.5432 36.0166C79.737 38.3996 80.3102 41.7534 82.5434 43.0894C83.5607 43.6981 84.9236 44.1331 86.112 43.9351C87.3183 43.7338 88.1967 42.8361 88.9298 41.9206C89.0751 41.7388 88.82 41.479 88.673 41.6625C87.9819 42.5261 87.1762 43.3832 86.0378 43.5682C84.8703 43.7582 83.4638 43.2906 82.4998 42.6316C80.5912 41.3264 80.0826 38.1562 79.9082 36.0183C79.8872 35.7829 79.5239 35.7813 79.5432 36.0166Z" fill="#FF9B8D"/>
<path d="M71.1854 93.3693H64.0805L62.5981 83.6929H72.8244L71.1854 93.3693Z" fill="white"/>
<path d="M67.6232 94.569C69.5905 94.569 71.1853 94.0319 71.1853 93.3693C71.1853 92.7068 69.5905 92.1697 67.6232 92.1697C65.6559 92.1697 64.061 92.7068 64.061 93.3693C64.061 94.0319 65.6559 94.569 67.6232 94.569Z" fill="white"/>
<path d="M67.7121 84.8925C70.5364 84.8925 72.826 84.3554 72.826 83.6928C72.826 83.0303 70.5364 82.4932 67.7121 82.4932C64.8877 82.4932 62.5981 83.0303 62.5981 83.6928C62.5981 84.3554 64.8877 84.8925 67.7121 84.8925Z" fill="white"/>
<path d="M67.7122 84.6912C70.0613 84.6912 71.9655 84.2442 71.9655 83.6929C71.9655 83.1415 70.0613 82.6945 67.7122 82.6945C65.3632 82.6945 63.459 83.1415 63.459 83.6929C63.459 84.2442 65.3632 84.6912 67.7122 84.6912Z" fill="#400F58"/>
<path d="M63.2686 84.7187C61.5893 84.9557 59.9083 85.1927 58.229 85.4313C57.8479 85.4849 57.7898 86.0092 58.0158 86.2446C59.1688 87.4605 60.3185 88.6796 61.4762 89.8905C62.4742 90.9359 63.5011 91.9391 64.7558 92.668C65.2967 92.9829 65.7844 92.1421 65.2451 91.8271C63.9791 91.0902 62.9715 90.0529 61.9687 88.9977C60.8788 87.8517 59.7904 86.7024 58.7021 85.5547C58.631 85.8258 58.56 86.0969 58.4889 86.368C60.1683 86.131 61.8492 85.894 63.5286 85.6553C64.1406 85.5709 63.879 84.6327 63.2686 84.7187Z" fill="white"/>
<path d="M66.3976 83.6685C66.2458 83.4802 66.1037 83.2789 65.9826 83.0679C65.7985 82.7513 65.7598 82.7042 65.8825 82.3455C66.0052 81.9851 66.291 81.8715 66.4961 81.5761C66.7173 81.2595 66.7948 80.878 66.5526 80.5501C66.2733 80.1735 65.7017 80.0778 65.2705 80.1329C65.1672 80.1459 65.0687 80.1784 64.9702 80.206C64.6553 80.292 64.0805 80.2287 63.8657 79.917C63.5444 79.4512 64.3614 78.7645 64.6698 78.4869C64.8442 78.3295 64.5875 78.0714 64.4131 78.2288C63.9319 78.6622 63.378 79.1103 63.4782 79.8278C63.5589 80.4073 63.9335 80.7806 64.5197 80.7125C64.9573 80.6605 66.8207 80.0924 66.2087 81.3066C66.0198 81.6816 65.5644 81.8147 65.4191 82.2205C65.2059 82.8163 65.8002 83.5029 66.1409 83.9266C66.2878 84.11 66.5429 83.8503 66.3976 83.6685Z" fill="white"/>
<path d="M68.0046 83.0339C67.8092 82.8115 67.4992 82.5047 67.4588 82.1882C67.3765 81.5388 67.8254 81.521 68.1209 81.2418C68.2726 81.0989 68.3792 80.9626 68.4002 80.7515C68.4664 80.0551 67.672 79.9837 67.2311 79.7321C65.9248 78.9854 66.5723 77.5845 67.1859 76.6462C67.6106 75.9985 67.9836 75.3735 67.9352 74.5716C67.9206 74.3379 67.5573 74.3363 67.5718 74.5716C67.6816 76.3459 65.1142 77.7143 66.4819 79.5454C66.7112 79.8522 66.9808 80.0146 67.3232 80.1639C67.7818 80.3652 68.0353 80.6688 67.6316 81.1428C67.5428 81.2466 67.3894 81.2921 67.2941 81.4057C66.7612 82.0437 67.3054 82.792 67.7462 83.292C67.9029 83.4673 68.1596 83.2092 68.0046 83.0339Z" fill="white"/>
<path d="M69.4995 83.3163C69.3639 83.0241 69.1734 82.6945 69.4785 82.4186C69.5609 82.3455 69.6836 82.3228 69.7789 82.2741C69.9694 82.1751 70.1131 82.0566 70.181 81.8456C70.3198 81.4138 70.0373 81.0209 69.6319 80.9008C69.4075 80.8342 69.3106 81.1865 69.5351 81.2531C69.8193 81.3375 69.9759 81.6913 69.6917 81.9121C69.6255 81.9641 69.4672 82.0046 69.3865 82.0517C69.2509 82.128 69.1314 82.214 69.0506 82.3504C68.8246 82.7238 69.02 83.1474 69.1847 83.5029C69.2848 83.7123 69.598 83.5273 69.4995 83.3163Z" fill="white"/>
</g>
<path d="M34.5955 127.967V128.803C34.5955 129.796 34.4713 130.687 34.2229 131.474C33.9745 132.262 33.6171 132.931 33.1506 133.482C32.6842 134.034 32.1238 134.455 31.4695 134.746C30.8213 135.036 30.0943 135.182 29.2886 135.182C28.5071 135.182 27.7892 135.036 27.1349 134.746C26.4867 134.455 25.9233 134.034 25.4447 133.482C24.9722 132.931 24.6057 132.262 24.3452 131.474C24.0847 130.687 23.9544 129.796 23.9544 128.803V127.967C23.9544 126.973 24.0816 126.085 24.3361 125.304C24.5966 124.516 24.9631 123.847 25.4356 123.296C25.9082 122.738 26.4685 122.314 27.1168 122.024C27.771 121.733 28.4889 121.587 29.2704 121.587C30.0761 121.587 30.8031 121.733 31.4513 122.024C32.1056 122.314 32.666 122.738 33.1325 123.296C33.605 123.847 33.9654 124.516 34.2138 125.304C34.4683 126.085 34.5955 126.973 34.5955 127.967ZM32.8598 128.803V127.948C32.8598 127.161 32.7781 126.464 32.6145 125.858C32.457 125.253 32.2237 124.744 31.9148 124.332C31.6058 123.92 31.2272 123.608 30.7789 123.396C30.3366 123.184 29.8338 123.078 29.2704 123.078C28.7252 123.078 28.2314 123.184 27.7892 123.396C27.353 123.608 26.9774 123.92 26.6624 124.332C26.3534 124.744 26.1141 125.253 25.9445 125.858C25.7749 126.464 25.6901 127.161 25.6901 127.948V128.803C25.6901 129.596 25.7749 130.299 25.9445 130.911C26.1141 131.517 26.3565 132.029 26.6715 132.447C26.9926 132.858 27.3712 133.17 27.8074 133.382C28.2496 133.595 28.7434 133.701 29.2886 133.701C29.858 133.701 30.3639 133.595 30.8061 133.382C31.2484 133.17 31.621 132.858 31.9239 132.447C32.2328 132.029 32.4661 131.517 32.6236 130.911C32.7811 130.299 32.8598 129.596 32.8598 128.803ZM43.2737 120.888H44.655C44.655 121.481 44.5641 121.954 44.3824 122.305C44.2006 122.651 43.9522 122.917 43.6372 123.105C43.3283 123.293 42.9769 123.435 42.5831 123.532C42.1954 123.629 41.7925 123.723 41.3745 123.814C40.8535 123.923 40.3689 124.095 39.9206 124.332C39.4783 124.562 39.0967 124.889 38.7756 125.313C38.4606 125.737 38.2273 126.288 38.0759 126.967C37.9305 127.645 37.8911 128.485 37.9577 129.484V130.32H36.5765V129.484C36.5765 128.363 36.6825 127.385 36.8945 126.549C37.1126 125.713 37.4186 125.007 37.8124 124.432C38.2061 123.856 38.6726 123.399 39.2118 123.059C39.757 122.72 40.3568 122.487 41.011 122.36C41.4836 122.269 41.8895 122.172 42.2287 122.069C42.568 121.96 42.8254 121.815 43.0011 121.633C43.1829 121.451 43.2737 121.203 43.2737 120.888ZM41.2836 125.731C41.9258 125.731 42.4983 125.843 43.0011 126.067C43.5039 126.291 43.931 126.603 44.2824 127.003C44.6338 127.403 44.9003 127.876 45.0821 128.421C45.2699 128.96 45.3638 129.548 45.3638 130.184V130.384C45.3638 131.068 45.2638 131.704 45.0639 132.292C44.8701 132.874 44.5823 133.382 44.2006 133.819C43.825 134.249 43.3646 134.585 42.8194 134.827C42.2802 135.07 41.6653 135.191 40.9747 135.191C40.2841 135.191 39.6661 135.07 39.1209 134.827C38.5817 134.585 38.1213 134.249 37.7397 133.819C37.358 133.382 37.0672 132.874 36.8673 132.292C36.6734 131.704 36.5765 131.068 36.5765 130.384V130.184C36.5765 130.032 36.6038 129.884 36.6583 129.739C36.7128 129.593 36.7794 129.445 36.8582 129.293C36.943 129.142 37.0187 128.981 37.0854 128.812C37.3095 128.266 37.6155 127.761 38.0032 127.294C38.397 126.828 38.8665 126.452 39.4117 126.167C39.963 125.876 40.587 125.731 41.2836 125.731ZM40.9565 127.103C40.3386 127.103 39.8297 127.246 39.4299 127.53C39.0361 127.815 38.7423 128.194 38.5484 128.666C38.3546 129.133 38.2576 129.639 38.2576 130.184V130.384C38.2576 130.844 38.3121 131.28 38.4212 131.692C38.5302 132.104 38.6938 132.471 38.9119 132.792C39.136 133.107 39.4178 133.355 39.757 133.537C40.1023 133.719 40.5082 133.81 40.9747 133.81C41.4412 133.81 41.844 133.719 42.1833 133.537C42.5225 133.355 42.8012 133.107 43.0193 132.792C43.2374 132.471 43.401 132.104 43.51 131.692C43.6191 131.28 43.6736 130.844 43.6736 130.384V130.184C43.6736 129.772 43.6191 129.381 43.51 129.012C43.401 128.642 43.2344 128.315 43.0102 128.03C42.7921 127.745 42.5104 127.521 42.1651 127.358C41.8258 127.188 41.423 127.103 40.9565 127.103ZM51.2068 133.801C51.6067 133.801 51.9762 133.719 52.3155 133.555C52.6547 133.392 52.9334 133.167 53.1515 132.883C53.3696 132.592 53.4938 132.262 53.5241 131.892H55.1234C55.0931 132.474 54.8962 133.016 54.5327 133.519C54.1753 134.016 53.7058 134.418 53.1242 134.727C52.5426 135.03 51.9035 135.182 51.2068 135.182C50.4677 135.182 49.8226 135.052 49.2713 134.791C48.726 134.531 48.2717 134.173 47.9082 133.719C47.5508 133.264 47.2812 132.743 47.0994 132.156C46.9238 131.562 46.8359 130.935 46.8359 130.275V129.893C46.8359 129.233 46.9238 128.609 47.0994 128.021C47.2812 127.427 47.5508 126.903 47.9082 126.449C48.2717 125.995 48.726 125.637 49.2713 125.377C49.8226 125.116 50.4677 124.986 51.2068 124.986C51.9762 124.986 52.6487 125.143 53.2242 125.458C53.7997 125.767 54.251 126.192 54.5782 126.731C54.9114 127.264 55.0931 127.87 55.1234 128.548H53.5241C53.4938 128.142 53.3787 127.776 53.1788 127.449C52.9849 127.121 52.7183 126.861 52.3791 126.667C52.0459 126.467 51.6551 126.367 51.2068 126.367C50.6919 126.367 50.2587 126.47 49.9074 126.676C49.5621 126.876 49.2864 127.149 49.0804 127.494C48.8805 127.833 48.7351 128.212 48.6443 128.63C48.5594 129.042 48.517 129.463 48.517 129.893V130.275C48.517 130.705 48.5594 131.129 48.6443 131.547C48.7291 131.965 48.8714 132.344 49.0714 132.683C49.2773 133.022 49.553 133.295 49.8983 133.501C50.2497 133.701 50.6858 133.801 51.2068 133.801ZM59.776 133.982L62.5113 125.168H64.3105L60.3667 136.518C60.2758 136.76 60.1547 137.02 60.0032 137.299C59.8578 137.584 59.67 137.853 59.4398 138.108C59.2096 138.362 58.9309 138.568 58.6038 138.726C58.2827 138.889 57.898 138.971 57.4497 138.971C57.3164 138.971 57.1468 138.953 56.9408 138.917C56.7349 138.88 56.5895 138.85 56.5047 138.826L56.4956 137.463C56.544 137.469 56.6198 137.475 56.7227 137.481C56.8318 137.493 56.9075 137.499 56.9499 137.499C57.3316 137.499 57.6557 137.447 57.9223 137.344C58.1888 137.248 58.413 137.081 58.5947 136.845C58.7825 136.614 58.943 136.296 59.0763 135.891L59.776 133.982ZM57.7678 125.168L60.3213 132.801L60.7575 134.573L59.5489 135.191L55.9322 125.168H57.7678ZM68.8087 130.72L65.0829 125.168H67.1094L69.6538 129.239H71.6166L71.3713 130.72H68.8087ZM69.7265 130.547L66.8731 135H64.7467L68.6633 129.33L69.7265 130.547ZM72.4799 125.168V135H70.7988V125.168H72.4799ZM78.2139 125.168L74.4882 130.72H71.9256L71.6621 129.239H73.634L76.1784 125.168H78.2139ZM76.4146 135L73.5522 130.547L74.6336 129.33L78.541 135H76.4146ZM81.8669 125.168H83.5481L83.4027 128.848C83.3663 129.781 83.2603 130.587 83.0846 131.265C82.9089 131.944 82.6848 132.522 82.4122 133.001C82.1396 133.473 81.8336 133.87 81.4944 134.191C81.1612 134.512 80.8159 134.782 80.4584 135H79.6224L79.6678 133.628L80.0132 133.619C80.2131 133.382 80.4069 133.14 80.5947 132.892C80.7825 132.637 80.9552 132.337 81.1127 131.992C81.2702 131.641 81.4005 131.214 81.5035 130.711C81.6125 130.202 81.6822 129.581 81.7125 128.848L81.8669 125.168ZM82.285 125.168H88.2007V135H86.5196V126.722H82.285V125.168ZM79.2407 133.619H89.4638V137.899H87.7827V135H80.9219V137.899H79.2317L79.2407 133.619ZM95.4068 135.182C94.7222 135.182 94.1013 135.067 93.5439 134.836C92.9927 134.6 92.5171 134.27 92.1173 133.846C91.7235 133.422 91.4206 132.919 91.2085 132.337C90.9965 131.756 90.8905 131.12 90.8905 130.429V130.048C90.8905 129.248 91.0086 128.536 91.2449 127.912C91.4812 127.282 91.8022 126.749 92.2081 126.313C92.614 125.876 93.0744 125.546 93.5894 125.322C94.1043 125.098 94.6374 124.986 95.1887 124.986C95.8915 124.986 96.4973 125.107 97.0062 125.349C97.5211 125.592 97.9421 125.931 98.2693 126.367C98.5964 126.797 98.8387 127.306 98.9962 127.894C99.1538 128.475 99.2325 129.112 99.2325 129.802V130.556H91.8901V129.184H97.5514V129.057C97.5272 128.621 97.4363 128.197 97.2788 127.785C97.1273 127.373 96.885 127.034 96.5518 126.767C96.2186 126.5 95.7642 126.367 95.1887 126.367C94.8071 126.367 94.4557 126.449 94.1346 126.613C93.8135 126.77 93.5379 127.006 93.3077 127.321C93.0775 127.636 92.8988 128.021 92.7715 128.475C92.6443 128.93 92.5807 129.454 92.5807 130.048V130.429C92.5807 130.896 92.6443 131.335 92.7715 131.747C92.9048 132.153 93.0956 132.51 93.344 132.819C93.5985 133.128 93.9044 133.37 94.2618 133.546C94.6253 133.722 95.0373 133.81 95.4977 133.81C96.0914 133.81 96.5942 133.688 97.0062 133.446C97.4181 133.204 97.7786 132.88 98.0875 132.474L99.1053 133.283C98.8933 133.604 98.6237 133.91 98.2965 134.2C97.9694 134.491 97.5665 134.727 97.0879 134.909C96.6154 135.091 96.055 135.182 95.4068 135.182ZM107.865 129.43V130.793H102.667V129.43H107.865ZM103.022 125.168V135H101.341V125.168H103.022ZM109.228 125.168V135H107.538V125.168H109.228ZM113.754 132.337L118.288 125.168H119.979V135H118.288V127.83L113.754 135H112.082V125.168H113.754V132.337ZM124.667 130.311H126.485L123.641 135H121.823L124.667 130.311ZM126.076 125.168H130.183V135H128.502V126.531H126.076C125.597 126.531 125.207 126.613 124.904 126.776C124.601 126.934 124.38 127.14 124.24 127.394C124.101 127.648 124.031 127.912 124.031 128.185C124.031 128.451 124.095 128.709 124.222 128.957C124.349 129.199 124.549 129.399 124.822 129.557C125.095 129.714 125.446 129.793 125.876 129.793H128.957V131.174H125.876C125.313 131.174 124.813 131.099 124.377 130.947C123.941 130.796 123.571 130.587 123.268 130.32C122.965 130.048 122.735 129.729 122.577 129.366C122.42 128.996 122.341 128.597 122.341 128.166C122.341 127.736 122.423 127.34 122.587 126.976C122.756 126.613 122.998 126.295 123.314 126.022C123.635 125.749 124.025 125.54 124.486 125.395C124.952 125.243 125.482 125.168 126.076 125.168ZM30.7062 145.168V146.558H25.7355V145.168H30.7062ZM25.9809 145.168V155H24.2997V145.168H25.9809ZM32.1965 145.168V155H30.5063V145.168H32.1965ZM34.4501 150.193V149.984C34.4501 149.275 34.5531 148.618 34.7591 148.012C34.965 147.4 35.2619 146.87 35.6496 146.422C36.0373 145.967 36.5068 145.616 37.0581 145.368C37.6094 145.113 38.2273 144.986 38.9119 144.986C39.6025 144.986 40.2235 145.113 40.7748 145.368C41.3321 145.616 41.8046 145.967 42.1924 146.422C42.5861 146.87 42.886 147.4 43.092 148.012C43.298 148.618 43.401 149.275 43.401 149.984V150.193C43.401 150.902 43.298 151.559 43.092 152.165C42.886 152.771 42.5861 153.301 42.1924 153.755C41.8046 154.203 41.3351 154.555 40.7839 154.809C40.2386 155.058 39.6207 155.182 38.9301 155.182C38.2394 155.182 37.6185 155.058 37.0672 154.809C36.5159 154.555 36.0434 154.203 35.6496 153.755C35.2619 153.301 34.965 152.771 34.7591 152.165C34.5531 151.559 34.4501 150.902 34.4501 150.193ZM36.1312 149.984V150.193C36.1312 150.684 36.1888 151.147 36.3039 151.583C36.419 152.013 36.5916 152.395 36.8218 152.728C37.0581 153.061 37.3519 153.325 37.7033 153.519C38.0547 153.707 38.4636 153.801 38.9301 153.801C39.3905 153.801 39.7934 153.707 40.1387 153.519C40.49 153.325 40.7808 153.061 41.011 152.728C41.2412 152.395 41.4139 152.013 41.529 151.583C41.6502 151.147 41.7107 150.684 41.7107 150.193V149.984C41.7107 149.499 41.6502 149.042 41.529 148.612C41.4139 148.176 41.2382 147.791 41.0019 147.458C40.7717 147.118 40.4809 146.852 40.1296 146.658C39.7843 146.464 39.3784 146.367 38.9119 146.367C38.4515 146.367 38.0456 146.464 37.6942 146.658C37.3489 146.852 37.0581 147.118 36.8218 147.458C36.5916 147.791 36.419 148.176 36.3039 148.612C36.1888 149.042 36.1312 149.499 36.1312 149.984ZM54.1329 145.168V155H52.4427V145.168H54.1329ZM57.4315 145.168V146.531H49.2077V145.168H57.4315ZM62.4386 155.182C61.754 155.182 61.1331 155.067 60.5757 154.836C60.0244 154.6 59.5489 154.27 59.149 153.846C58.7552 153.422 58.4523 152.919 58.2403 152.337C58.0283 151.756 57.9223 151.12 57.9223 150.429V150.048C57.9223 149.248 58.0404 148.536 58.2767 147.912C58.5129 147.282 58.834 146.749 59.2399 146.313C59.6458 145.876 60.1062 145.546 60.6211 145.322C61.1361 145.098 61.6692 144.986 62.2205 144.986C62.9232 144.986 63.529 145.107 64.0379 145.349C64.5529 145.592 64.9739 145.931 65.301 146.367C65.6282 146.797 65.8705 147.306 66.028 147.894C66.1855 148.475 66.2643 149.112 66.2643 149.802V150.556H58.9218V149.184H64.5831V149.057C64.5589 148.621 64.468 148.197 64.3105 147.785C64.1591 147.373 63.9168 147.034 63.5836 146.767C63.2504 146.5 62.796 146.367 62.2205 146.367C61.8388 146.367 61.4875 146.449 61.1664 146.613C60.8453 146.77 60.5696 147.006 60.3394 147.321C60.1092 147.636 59.9305 148.021 59.8033 148.475C59.6761 148.93 59.6125 149.454 59.6125 150.048V150.429C59.6125 150.896 59.6761 151.335 59.8033 151.747C59.9366 152.153 60.1274 152.51 60.3758 152.819C60.6302 153.128 60.9362 153.37 61.2936 153.546C61.6571 153.722 62.069 153.81 62.5294 153.81C63.1231 153.81 63.626 153.688 64.0379 153.446C64.4499 153.204 64.8103 152.88 65.1193 152.474L66.1371 153.283C65.925 153.604 65.6554 153.91 65.3283 154.2C65.0012 154.491 64.5983 154.727 64.1197 154.909C63.6472 155.091 63.0868 155.182 62.4386 155.182ZM73.8793 152.765L77.2234 145.168H78.8409L74.4609 155H73.2977L68.9359 145.168H70.5534L73.8793 152.765ZM70.0627 145.168V155H68.3816V145.168H70.0627ZM77.6414 155V145.168H79.3316V155H77.6414ZM87.8372 153.319V148.257C87.8372 147.87 87.7585 147.533 87.6009 147.249C87.4495 146.958 87.2193 146.734 86.9103 146.576C86.6014 146.419 86.2197 146.34 85.7653 146.34C85.3413 146.34 84.9687 146.413 84.6476 146.558C84.3326 146.703 84.0842 146.894 83.9025 147.131C83.7268 147.367 83.6389 147.621 83.6389 147.894H81.9578C81.9578 147.542 82.0487 147.194 82.2304 146.849C82.4122 146.504 82.6727 146.192 83.0119 145.913C83.3572 145.628 83.7692 145.404 84.2478 145.24C84.7324 145.071 85.2716 144.986 85.8653 144.986C86.5802 144.986 87.2102 145.107 87.7554 145.349C88.3067 145.592 88.7368 145.958 89.0458 146.449C89.3608 146.934 89.5183 147.542 89.5183 148.276V152.855C89.5183 153.183 89.5456 153.531 89.6001 153.9C89.6607 154.27 89.7485 154.588 89.8636 154.855V155H88.1098C88.025 154.806 87.9584 154.549 87.9099 154.228C87.8614 153.9 87.8372 153.598 87.8372 153.319ZM88.128 149.039L88.1462 150.22H86.4469C85.9683 150.22 85.5412 150.26 85.1656 150.338C84.79 150.411 84.475 150.523 84.2205 150.675C83.9661 150.826 83.7722 151.017 83.6389 151.247C83.5057 151.471 83.439 151.735 83.439 152.038C83.439 152.347 83.5087 152.628 83.648 152.883C83.7874 153.137 83.9964 153.34 84.275 153.492C84.5598 153.637 84.9081 153.71 85.3201 153.71C85.835 153.71 86.2894 153.601 86.6831 153.382C87.0769 153.164 87.3889 152.898 87.6191 152.583C87.8554 152.268 87.9826 151.962 88.0008 151.665L88.7187 152.474C88.6763 152.728 88.5612 153.01 88.3734 153.319C88.1855 153.628 87.9341 153.925 87.6191 154.209C87.3102 154.488 86.9406 154.721 86.5105 154.909C86.0864 155.091 85.6078 155.182 85.0747 155.182C84.4083 155.182 83.8237 155.052 83.3209 154.791C82.8241 154.531 82.4364 154.182 82.1577 153.746C81.8851 153.304 81.7488 152.81 81.7488 152.265C81.7488 151.738 81.8518 151.274 82.0578 150.874C82.2637 150.469 82.5606 150.132 82.9483 149.866C83.336 149.593 83.8025 149.387 84.3477 149.248C84.893 149.108 85.5018 149.039 86.1743 149.039H88.128ZM97.8149 152.765L101.159 145.168H102.777L98.3965 155H97.2333L92.8715 145.168H94.489L97.8149 152.765ZM93.9983 145.168V155H92.3172V145.168H93.9983ZM101.577 155V145.168H103.267V155H101.577Z" fill="#FFECCC"/>
<defs>
<clipPath id="clip0_130_2685">
<rect width="128.287" height="101" fill="white" transform="translate(26.8506 12)"/>
</clipPath>
</defs>
</svg>
