<svg width="143" height="170" viewBox="0 0 143 170" fill="none" xmlns="http://www.w3.org/2000/svg">
<rect width="142.348" height="169.428" rx="11.6316" fill="#D9A5B5"/>
<g clip-path="url(#clip0_130_2685)">
<path d="M76.1281 14.8283C75.7101 13.2329 73.4812 13.1961 71.8704 13.5318C64.3504 15.0971 55.9413 17.8279 48.6187 20.1547C44.2766 21.5904 40.053 23.3863 36.005 25.5193C34.785 26.1621 33.3799 27.4572 34.0647 28.6568C34.559 29.5234 35.7776 29.5425 36.7688 29.4388C47.1659 28.3484 57.4104 25.8046 67.1144 21.9042C69.8485 20.8057 72.5866 19.5692 74.7978 17.6191C75.6107 16.8985 76.4045 15.8804 76.1281 14.8283Z" fill="#D196A8"/>
<path d="M115.194 73.4123C115.315 75.6149 115.033 77.954 113.957 80.0966C113.937 80.1375 113.915 80.1785 113.893 80.2194C113.883 80.2426 113.87 80.2645 113.858 80.2877C113.79 80.4187 113.718 80.5497 113.642 80.678C113.267 81.3221 112.815 81.9444 112.274 82.5353C111.605 83.2682 110.774 83.9287 109.826 84.5237C109.707 84.6001 109.585 84.6738 109.461 84.7461C109.189 84.9085 108.907 85.0655 108.617 85.217C102.847 88.2439 93.9272 89.3466 88.9342 89.7423C87.6966 89.7642 86.4603 89.8351 85.2294 89.9525H85.2239H85.2226C83.0753 90.1558 80.9417 90.4997 78.8408 90.9842C71.6231 92.6451 64.8438 95.919 57.6029 97.4788C51.1245 98.8749 43.8073 98.647 38.3909 95.0305C37.2526 94.2704 36.3431 93.21 35.729 91.9845C35.0305 90.5898 34.4451 89.3479 33.8419 88.1743C33.7479 87.9914 33.654 87.8113 33.5587 87.6311C33.5437 87.6038 33.5301 87.5765 33.5151 87.5492C32.769 86.1504 31.9602 84.8267 30.8518 83.4251C30.6857 83.215 30.5128 83.0021 30.3317 82.7878L30.3304 82.7864C30.2405 82.6786 30.1479 82.5694 30.0512 82.4589C30.0226 82.4248 29.9927 82.3907 29.9627 82.3566C29.685 82.0399 29.3909 81.7179 29.0777 81.389C27.9939 80.2522 26.8256 79.1986 25.7023 78.1C25.6029 78.0031 25.5035 77.9049 25.4042 77.8066C25.3252 77.7288 25.2476 77.6497 25.1686 77.5705C24.865 77.2648 24.5668 76.9537 24.2754 76.6357C18.9067 70.7579 16.4654 62.3159 17.8664 54.4702C19.2675 46.6259 24.4783 39.5567 31.549 35.9102C32.8479 35.2402 34.1904 34.6861 35.5643 34.2153C35.7454 34.1525 35.9265 34.0924 36.1089 34.0324C40.6593 32.553 45.527 31.9403 50.2626 31.0696C59.8781 29.3051 69.2798 26.375 78.1982 22.3642C79.6823 21.6968 81.1582 20.9981 82.6383 20.3021C82.8194 20.2161 83.0018 20.1315 83.1829 20.0469C87.9389 17.817 92.7331 15.6703 97.8826 14.7887C100.096 14.4107 102.385 14.2756 104.573 14.7791C110.394 16.122 114.493 22.1308 114.494 28.1178C114.497 34.9577 110.029 41.2298 110.16 48.0684C110.206 50.5003 110.834 52.8435 111.78 55.087C112.669 57.1982 113.84 59.2207 115.074 61.1463C115.153 61.2691 115.232 61.3906 115.312 61.5134C116.147 62.8058 117.016 64.0845 117.857 65.3755L115.03 71.7542C115.108 72.2946 115.164 72.8487 115.194 73.4123Z" fill="#D196A8"/>
<path d="M113.958 80.0965C113.937 80.1375 113.915 80.1784 113.894 80.2194L51.4609 86.6144L51.4119 86.6198L30.0514 82.4588C30.0228 82.4247 29.9928 82.3906 29.9629 82.3565C29.6851 82.0399 29.391 81.7178 29.0778 81.3889C27.994 80.2521 26.8258 79.1986 25.7025 78.1C25.6031 78.0031 25.5037 77.9048 25.4043 77.8066L81.6281 75.1072L107.735 73.8544L114.271 73.4668L115.194 73.4122C115.315 75.6149 115.033 77.954 113.958 80.0965Z" fill="#B29EEF"/>
<path d="M83.1833 20.047V57.4426C83.1833 57.5927 83.0608 57.7155 82.911 57.7155C82.7599 57.7155 82.6387 57.5927 82.6387 57.4426V20.3022C82.8198 20.2162 83.0022 20.1316 83.1833 20.047Z" fill="#D9A5B5"/>
<path d="M113.857 80.2877C113.789 80.4187 113.717 80.5497 113.641 80.678C113.267 81.3221 112.814 81.9444 112.274 82.5353C111.604 83.2682 110.773 83.9287 109.826 84.5237C109.706 84.6001 109.585 84.6738 109.461 84.7461L59.9905 90.4438L52.2077 91.3404L52.0729 88.8607L51.9722 87.017L51.9844 87.0156L56.0787 86.5707L113.857 80.2877Z" fill="white"/>
<path d="M36.1086 34.0324V73.5815C36.1086 73.733 35.9874 73.8545 35.8363 73.8545C35.6865 73.8545 35.564 73.733 35.564 73.5815V34.2153C35.7451 34.1525 35.9261 34.0925 36.1086 34.0324Z" fill="#D9A5B5"/>
<path d="M57.0278 53.2283C56.2722 51.7503 54.8044 50.795 52.6463 50.3693C52.6449 50.3679 52.6435 50.3679 52.6408 50.3679C51.3174 50.1059 49.7352 50.0417 47.8957 50.1782C39.413 50.8101 33.1729 52.4845 29.3496 55.1539C26.7394 56.9771 25.6366 60.3766 26.67 63.4226L31.4015 77.3713L31.5622 77.8462L43.8695 76.9782L46.7343 76.7763L46.7928 76.7722L46.8296 76.7271C46.8309 76.7244 46.8418 76.7121 46.8609 76.6889C47.2163 76.2604 50.4555 72.3082 53.2631 67.6396C57.2566 61.0017 58.5229 56.1529 57.0278 53.2283ZM46.658 76.5074L36.9037 77.1966L32.4213 77.5118H32.42L31.7528 77.5596L31.6861 77.3617L26.9273 63.3339C25.9334 60.4039 26.9941 57.1314 29.5062 55.3777C32.3287 53.4057 36.4952 51.9823 41.9333 51.1267C41.9429 51.1253 41.9538 51.1239 41.966 51.1212C43.8041 50.8333 45.7893 50.6108 47.9161 50.4511C48.5411 50.4047 49.1361 50.3815 49.7012 50.3815C53.3965 50.3815 55.7752 51.3778 56.7855 53.3539C60.1636 59.9631 47.4437 75.5562 46.658 76.5074Z" fill="#FEECD6"/>
<path d="M32.4843 77.703L27.6262 63.3777C26.6118 60.3876 27.6711 57.07 30.2554 55.2659C33.2591 53.1683 38.7381 51.0585 48.7335 50.3147C70.9722 48.6593 47.553 76.6399 47.553 76.6399L32.4843 77.703Z" fill="#FEECD6"/>
<path d="M73.1479 26.8854C73.2541 26.4651 73.2787 26.083 73.2705 25.7077C73.261 25.3338 73.2133 24.9598 73.1861 24.5518C73.1493 24.2966 73.0921 24.0428 73.0145 23.7944C72.7082 22.7968 72.0982 21.8702 71.3044 21.1933C69.7168 19.8408 67.56 19.3427 65.4781 19.2745C62.3574 19.1708 58.9752 20.1001 57.1139 22.6126C55.525 24.7551 55.3344 27.5855 54.6141 30.1553C53.4309 34.3818 50.7336 38.0405 47.6401 41.1466C45.8278 42.9671 43.7541 44.8217 43.2775 47.3492C42.8105 49.8288 44.1067 52.4218 46.0987 53.9639C46.8245 54.5261 47.6482 54.9765 48.5387 55.1976C49.4442 55.4228 50.3973 55.405 51.3163 55.2481C54.1375 54.7663 56.5598 53.0373 58.9453 51.4542C59.1836 51.2959 59.4246 51.1376 59.6642 50.9629C61.3961 49.6569 61.5323 47.3369 62.8939 45.6992C63.1321 45.3744 63.3772 45.1452 63.625 44.9923C66.8425 44.8804 72.1526 43.1063 72.9846 47.6535C73.0717 47.9046 73.1588 48.1544 73.2555 48.3932C73.6436 49.3471 74.1827 50.1291 75.3946 50.1905C75.6042 50.2069 75.8166 50.2137 76.0304 50.211C77.0965 50.1959 78.1763 49.9216 78.9156 49.1738C79.7012 48.3795 79.9586 47.1963 79.9668 46.0786C79.979 44.5215 79.5705 42.963 78.7971 41.6133C78.499 41.092 78.1518 40.6075 77.7732 40.1449C77.584 39.9143 77.3879 39.6877 77.185 39.4707C74.3312 37.511 72.4249 34.2357 72.8089 30.708C72.813 30.3668 72.828 30.027 72.8511 29.6845C72.9219 28.6609 73.0717 27.6278 73.2324 26.6098L73.1479 26.8854Z" fill="#3F4553"/>
<path d="M71.8434 27.4449C71.2008 29.3596 72.0368 31.3357 73.2568 32.8232C74.7763 34.6765 76.7397 36.0453 78.0441 38.0923C79.3485 40.1407 80.3996 42.7391 79.8686 45.2079C79.6508 46.2232 79.0939 46.6367 78.1326 46.8988C77.3252 47.1185 76.5736 47.3532 75.8778 47.8377C75.7172 47.9496 75.8696 48.2157 76.033 48.1024C76.8405 47.5402 77.7119 47.3805 78.6214 47.0762C79.1906 46.8851 79.6576 46.574 79.9285 46.0213C80.8462 44.1461 80.126 41.5696 79.3213 39.7968C78.3096 37.5669 76.7642 35.8938 75.0187 34.2234C73.2336 32.5161 71.2471 30.1866 72.1403 27.5268C72.2029 27.3385 71.9061 27.2579 71.8434 27.4449Z" fill="#4E5567"/>
<path d="M61.5747 43.2782L63.1541 42.1196L65.1747 41.1643L71.3822 43.2782L74.0332 71.4061L67.1817 73.1325L62.4584 58.8713L61.5747 43.2782Z" fill="white"/>
<path d="M74.1877 39.2674C76.7638 39.7832 79.1929 41.2421 80.5558 43.5403C81.9732 45.9299 81.9977 49.055 80.4278 51.375C80.3175 51.5388 80.5817 51.693 80.692 51.5306C82.2809 49.1806 82.2905 46.0227 80.9221 43.5648C79.5523 41.1029 76.9817 39.5158 74.268 38.9726C74.076 38.9317 73.9943 39.2278 74.1877 39.2674Z" fill="#4E5567"/>
<path d="M53.322 35.6305C51.3082 37.2203 49.3802 38.9167 47.3692 40.5106C45.7829 41.7675 44.0047 42.8852 42.8909 44.6252C40.6892 48.0643 42.2877 52.3085 45.3213 54.623C47.0247 55.9236 49.3353 56.9567 51.4907 56.2948C51.6786 56.2375 51.5982 55.94 51.409 55.9986C49.432 56.6059 47.3201 55.6998 45.723 54.5411C44.134 53.3893 42.8473 51.7544 42.3585 49.8275C41.8833 47.9524 42.2714 45.9599 43.4138 44.4041C44.5221 42.8948 46.1383 41.8753 47.5857 40.729C49.5967 39.1364 51.5247 37.4387 53.5385 35.8488C53.6937 35.726 53.4759 35.509 53.322 35.6305Z" fill="#4E5567"/>
<path d="M79.9044 79.1741L59.3091 78.6787C59.3091 78.1233 59.7257 77.6579 60.2772 77.5992L81.5478 75.297L79.9044 79.1741Z" fill="#400F58"/>
<path d="M56.403 28.1054C56.1606 30.4786 55.6664 32.8559 54.6452 35.0244C53.6322 37.1766 52.0391 38.8551 50.412 40.5501C48.9578 42.0649 47.4941 43.6644 46.7834 45.6828C46.1897 47.3641 46.315 49.1873 47.1088 50.7813C47.9026 52.3739 49.3554 53.538 51.184 53.4998C51.3815 53.4957 51.3815 53.1886 51.184 53.1927C49.3309 53.2309 47.9394 51.9536 47.2341 50.32C46.3899 48.3644 46.6568 46.2873 47.6793 44.4504C48.7196 42.5821 50.3208 41.1192 51.7695 39.5771C53.157 38.1005 54.347 36.5215 55.149 34.6464C56.0367 32.5707 56.4819 30.3435 56.7093 28.1054C56.7284 27.9089 56.422 27.9102 56.403 28.1054Z" fill="#4E5567"/>
<path d="M71.6636 33.7868C71.6514 36.4412 73.8381 38.188 75.4638 39.9867C76.4251 41.0511 77.2842 42.2862 77.3768 43.7655C77.468 45.223 76.8635 46.6396 75.7919 47.6153C75.6463 47.7491 75.8627 47.9647 76.0084 47.8323C77.9269 46.0855 78.1584 43.3002 76.7723 41.1576C75.2051 38.7339 71.955 37.0007 71.97 33.7868C71.9713 33.5889 71.665 33.5889 71.6636 33.7868Z" fill="#4E5567"/>
<path d="M70.501 43.0067C71.0933 44.2718 70.5704 45.7579 70.7706 47.1417C71.9361 55.2112 71.6461 63.4732 71.7713 71.6068C71.7904 72.8418 71.8435 74.1792 72.6182 75.1414C72.7653 75.3242 72.945 75.4948 73.1697 75.5658C73.3467 75.6217 73.5373 75.6108 73.7238 75.5999C76.3558 75.4402 78.9877 75.2806 81.6196 75.1209C80.7646 70.0551 79.9095 64.988 79.0544 59.9222C81.1077 62.4756 83.1596 65.0289 85.2129 67.5823C86.0815 65.3032 86.9489 63.0242 87.8176 60.7437C87.921 60.4708 88.0272 60.1842 87.9878 59.8949C87.9524 59.6383 87.8067 59.4132 87.6637 59.1975C85.6581 56.172 83.5517 53.2147 81.3364 50.3392C79.9926 48.5938 78.586 46.8579 76.7997 45.5723C74.9493 44.2377 72.6741 43.5321 70.501 43.0067Z" fill="#FB7C85"/>
<path d="M80.5655 74.0564C80.5696 74.2324 80.4348 74.3812 80.2891 74.4781C80.0209 74.6541 79.6982 74.721 79.3809 74.7647C77.9445 74.9598 76.4535 74.7305 75.141 74.1151C75.6747 74.8356 76.2071 75.5548 76.7408 76.2754C76.8116 76.3709 76.8865 76.4855 76.8552 76.6002C76.8307 76.693 76.7449 76.753 76.6646 76.8035C76.5556 76.8704 76.4413 76.9304 76.3255 76.9837C75.7101 77.2703 75.013 77.3794 74.3403 77.2894C72.9052 77.0969 71.6921 76.0488 70.2556 75.8578C69.5299 75.7595 68.7946 75.8892 68.0621 75.9315C67.3296 75.9724 66.5494 75.9124 65.9503 75.4893C65.806 75.3883 65.6712 75.2628 65.6058 75.099C65.4383 74.6869 65.7556 74.2529 66.0129 73.8899C66.0932 73.7766 66.1681 73.6606 66.2389 73.5419C66.6106 72.9278 66.8639 72.244 66.9824 71.5358C67.7734 71.488 68.7769 71.2205 69.5408 71.0145C70.6532 70.7156 71.85 70.2557 72.908 70.7101C73.1544 70.8166 73.3791 70.968 73.6024 71.1182C75.4514 72.3641 77.4693 73.6115 79.6982 73.6101C80.0617 73.6101 80.5587 73.692 80.5655 74.0564Z" fill="#FFB9A3"/>
<path d="M76.3255 76.9838C75.7101 77.2704 75.013 77.3795 74.3403 77.2895C72.9052 77.0971 71.6921 76.049 70.2556 75.8579C69.5299 75.7596 68.7946 75.8893 68.0621 75.9316C67.3296 75.9725 66.5494 75.9125 65.9503 75.4894C65.806 75.3884 65.6712 75.2629 65.6058 75.0991C65.4383 74.687 65.7556 74.253 66.0129 73.89C66.0932 73.7767 66.1681 73.6607 66.2389 73.542C66.7618 73.9187 67.8551 74.3799 69.9397 74.122C73.2416 73.7126 72.5608 75.6232 74.9095 76.3055C75.6652 76.5252 76.0927 76.7627 76.3255 76.9838Z" fill="#FF9B8D"/>
<path d="M72.5529 23.1788C71.1505 18.6357 65.8689 17.6027 61.7556 18.6535C59.7677 19.1612 57.8941 20.2188 56.5856 21.8237C55.0402 23.7193 54.4275 26.1621 54.0708 28.5339C53.838 30.0801 53.7168 31.6468 53.3573 33.1712C53.1476 34.061 52.6793 34.8457 52.362 35.6986C52.2926 35.8842 52.5894 35.9647 52.6575 35.7805C52.8958 35.1391 53.247 34.5441 53.4731 33.9013C53.8148 32.9324 53.9333 31.8611 54.0694 30.8471C54.3921 28.4425 54.6386 25.9683 55.7197 23.7588C57.6245 19.8667 62.0415 18.1731 66.1848 18.6767C68.9665 19.0138 71.3956 20.4726 72.2561 23.2607C72.316 23.4491 72.6115 23.3685 72.5529 23.1788Z" fill="#4E5567"/>
<path d="M62.4853 30.259C61.0666 29.8305 60.3572 30.4064 60.187 31.4095C60.0154 32.4112 60.9236 33.4511 61.9366 33.4156C62.0346 34.652 62.2103 35.9007 62.7086 37.0361C63.2056 38.1716 64.0607 39.1937 65.2044 39.6659C66.4788 40.1941 68.0365 39.9498 69.0904 39.0586C69.5124 38.7011 69.8515 38.2562 70.1714 37.8045C71.1491 36.4234 71.9973 34.9154 72.369 33.2627C72.7407 31.6101 72.5937 29.7923 71.6991 28.3553C71.6025 28.1997 71.4895 28.0427 71.3261 27.9595C71.0932 27.8408 70.8141 27.8981 70.5622 27.9636C67.8418 28.6814 65.297 30.2672 62.4853 30.259Z" fill="#FFB9A3"/>
<path d="M73.0348 24.2447C73.2377 24.9666 73.4419 25.7022 73.4133 26.4514C73.3847 27.2006 73.0824 27.9785 72.4616 28.3975C71.9659 28.7318 71.3423 28.796 70.7773 28.9884C69.6322 29.3773 68.7472 30.2753 67.854 31.0928C67.0084 31.8666 65.9464 32.6376 64.8244 32.4124C63.7924 32.205 63.1102 31.2211 62.6895 30.2535C62.4635 29.7349 62.2783 29.159 62.4104 28.609C62.4866 28.2924 62.6636 28.0085 62.8597 27.7492C63.9884 26.2645 65.8198 25.447 67.6593 25.1631C69.5001 24.8793 71.3764 25.0703 73.2281 25.2628L73.0348 24.2447Z" fill="#3F4553"/>
<path d="M62.7154 30.3095C63.113 32.65 65.7817 33.8127 67.7424 32.4357C68.6737 31.782 69.2741 30.7872 70.087 30.0079C70.9503 29.1809 72.4562 28.8233 72.6958 27.4982C72.7312 27.3044 72.4357 27.2226 72.4003 27.4163C72.1852 28.5995 70.8086 28.9407 70.0094 29.6599C69.3654 30.2399 68.8684 30.9605 68.2625 31.5787C67.4537 32.4043 66.4107 32.9256 65.2343 32.6691C64.0361 32.4071 63.211 31.4108 63.0095 30.2276C62.9782 30.0338 62.6827 30.1171 62.7154 30.3095Z" fill="#4E5567"/>
<path d="M113.957 80.0965C113.937 80.1375 113.915 80.1784 113.893 80.2194C113.883 80.2426 113.87 80.2644 113.858 80.2876C113.79 80.4186 113.718 80.5496 113.642 80.6779L56.0793 86.5707L51.9836 86.9897L51.985 87.0156L52.0735 88.8607L52.1933 91.3704L59.9911 90.4437L109.826 84.5236C109.707 84.6001 109.585 84.6738 109.461 84.7461C109.189 84.9085 108.907 85.0654 108.617 85.2169L51.9673 91.9463C51.9578 91.9476 51.9469 91.949 51.936 91.949C51.872 91.949 51.8094 91.9258 51.7603 91.8835C51.7018 91.8357 51.6677 91.7648 51.6637 91.6883L51.4281 86.7577C51.4254 86.7058 51.4376 86.6567 51.4608 86.6144C51.5016 86.5379 51.5792 86.482 51.6718 86.4724L113.957 80.0965Z" fill="#6737C3"/>
<path d="M51.9669 86.7973C51.9411 86.9269 51.8267 87.017 51.7001 87.017C51.6824 87.017 51.6647 87.0156 51.647 87.0129L51.4659 86.9774L30.5928 82.8397V82.8383L30.3314 82.7878L30.33 82.7864C30.2116 82.6445 30.089 82.5012 29.9624 82.3565C30.0155 82.2528 30.1326 82.1914 30.2551 82.216L51.7518 86.4766C51.9002 86.5066 51.9955 86.6499 51.9669 86.7973Z" fill="#6737C3"/>
<path d="M52.2029 91.732C52.1756 91.8603 52.0626 91.949 51.936 91.949C51.9183 91.949 51.8992 91.9462 51.8802 91.9435L33.8419 88.1742C33.748 87.9913 33.654 87.8112 33.5587 87.6311C33.5437 87.6038 33.5301 87.5765 33.5151 87.5492L51.6378 91.3349L51.9918 91.4086C52.1389 91.4399 52.2328 91.5846 52.2029 91.732Z" fill="#6737C3"/>
<path d="M44.104 77.2403C44.1081 77.3904 43.991 77.5173 43.8398 77.5214L25.7022 78.1001C25.5225 77.9254 25.3455 77.7493 25.1685 77.5705L31.4018 77.3713L31.6864 77.3617L32.3631 77.3413L36.9039 77.1966L41.9472 77.0356L43.8235 76.9755C43.8398 76.9755 43.8548 76.9755 43.8698 76.9783C43.9978 76.996 44.0985 77.1052 44.104 77.2403Z" fill="#6737C3"/>
<path d="M99.518 43.4873C99.7037 42.7026 99.2196 41.9156 98.4367 41.7294C97.6538 41.5433 96.8686 42.0285 96.6829 42.8132C96.4972 43.5979 96.9813 44.3849 97.7642 44.571C98.5471 44.7572 99.3323 44.2719 99.518 43.4873Z" fill="#D9A5B5"/>
<path d="M98.101 46.2753C96.3827 46.2753 94.9844 44.8737 94.9844 43.1515C94.9844 41.4292 96.3827 40.0276 98.101 40.0276C99.8194 40.0276 101.218 41.4292 101.218 43.1515C101.219 44.8737 99.8207 46.2753 98.101 46.2753ZM98.101 40.1628C96.4576 40.1628 95.1205 41.5029 95.1205 43.1501C95.1205 44.7973 96.4576 46.1374 98.101 46.1374C99.7445 46.1374 101.082 44.7973 101.082 43.1501C101.083 41.5029 99.7458 40.1628 98.101 40.1628Z" fill="#D9A5B5"/>
<path d="M78.5969 27.2321C78.8977 27.2321 79.1415 26.9877 79.1415 26.6862C79.1415 26.3847 78.8977 26.1404 78.5969 26.1404C78.2961 26.1404 78.0522 26.3847 78.0522 26.6862C78.0522 26.9877 78.2961 27.2321 78.5969 27.2321Z" fill="#D9A5B5"/>
<path d="M26.6118 49.7429C25.5008 49.7429 24.5967 48.8367 24.5967 47.7231C24.5967 46.6095 25.5008 45.7033 26.6118 45.7033C27.7229 45.7033 28.627 46.6095 28.627 47.7231C28.627 48.8367 27.7229 49.7429 26.6118 49.7429ZM26.6118 45.9763C25.6505 45.9763 24.869 46.7596 24.869 47.7231C24.869 48.6866 25.6505 49.4699 26.6118 49.4699C27.5731 49.4699 28.3546 48.6866 28.3546 47.7231C28.3546 46.7596 27.5731 45.9763 26.6118 45.9763Z" fill="#D9A5B5"/>
<path d="M43.6055 26.1403C43.6055 26.5962 43.2365 26.966 42.7818 26.966C42.327 26.966 41.958 26.5962 41.958 26.1403C41.958 25.6845 42.327 25.3147 42.7818 25.3147C43.2379 25.3161 43.6055 25.6845 43.6055 26.1403Z" fill="#D9A5B5"/>
<path d="M120.519 59.3722L117.857 65.3755L115.031 71.7541L114.271 73.4668L112.124 78.3102L79.9058 79.174L81.6282 75.1072L89.1073 57.4507C89.5145 56.4913 90.424 55.8417 91.4615 55.768C95.1827 55.5087 104.328 54.9437 111.78 55.087C114.245 55.1334 116.526 55.259 118.361 55.4978C119.009 55.5824 119.563 55.8813 119.974 56.3084C120.726 57.0836 121.004 58.2804 120.519 59.3722Z" fill="#FEECD6"/>
<path d="M78.9022 79.2232L78.6489 79.1236L80.3713 74.7415L87.8519 56.9075C88.2808 55.8867 89.2271 55.203 90.3218 55.1252C93.9477 54.87 103.187 54.2928 110.653 54.4374C113.315 54.4879 115.533 54.6285 117.248 54.8537C117.903 54.9396 118.489 55.2371 118.942 55.7134C119.774 56.58 119.999 57.8533 119.513 58.9573L113.264 73.1912L113.015 73.0806L119.264 58.8468C119.705 57.8451 119.501 56.6892 118.745 55.9018C118.334 55.4705 117.804 55.2017 117.212 55.1239C115.507 54.9001 113.297 54.7609 110.646 54.7104C103.191 54.5657 93.9613 55.143 90.3395 55.3982C89.3483 55.4691 88.4905 56.0887 88.101 57.014L80.6219 74.8452L78.9022 79.2232Z" fill="#FEECD6"/>
<path d="M103.597 68.2309C104.938 66.9935 105.357 65.2622 104.531 64.3639C103.706 63.4656 101.95 63.7405 100.609 64.9779C99.2683 66.2153 98.85 67.9467 99.6751 68.8449C100.5 69.7432 102.256 69.4683 103.597 68.2309Z" fill="#B29EEF"/>
<path d="M79.4572 60.3917C78.8172 59.1225 77.9689 57.9612 77.4611 56.6265C77.3685 56.3822 76.9736 56.4886 77.0676 56.7357C77.5904 58.1058 78.4482 59.2959 79.1059 60.5992C79.223 60.8339 79.5756 60.6264 79.4572 60.3917Z" fill="white"/>
<path d="M73.8571 72.9443C74.7122 74.8507 77.6069 75.1742 79.3797 74.9681C79.6384 74.9381 79.6411 74.5287 79.3797 74.5587C77.7471 74.7484 75.0049 74.5123 74.2097 72.7382C74.1022 72.498 73.7495 72.7068 73.8571 72.9443Z" fill="white"/>
<path d="M67.1814 71.3269C66.9594 67.6027 66.6095 63.8866 66.1316 60.1869C65.7449 57.19 65.38 54.1794 64.6515 51.2412C64.288 49.7755 63.8332 48.3317 63.2532 46.9356C62.7045 45.6132 61.8085 44.1707 62.3654 42.6955C60.9058 43.7463 59.9445 44.1762 58.2712 44.8312C56.9232 45.3594 55.5235 45.7497 54.1878 46.3092C53.4117 46.634 52.6505 47.0202 52.0174 47.5743C51.3012 48.2007 50.7756 49.014 50.2841 49.8288C49.7286 50.7499 49.2017 51.6902 48.7496 52.6674C48.0239 54.2354 47.4956 55.8853 46.8924 57.5039C45.814 60.3943 44.4919 63.1906 43.0459 65.9159C42.1337 67.6354 41.1533 69.3809 40.8974 71.3119C40.6414 73.243 41.2963 75.4402 42.9847 76.4036C43.7553 76.8431 44.6581 76.985 45.5431 77.0519C52.0065 77.5364 58.1336 76.6466 65.4385 75.6954C65.6387 75.6694 65.252 75.7718 65.4385 75.6954C65.6537 75.608 65.7776 75.3883 65.8797 75.1795C66.4692 73.9731 67.0956 72.6698 67.1814 71.3269Z" fill="#FB7C85"/>
<path d="M56.6329 60.3425C55.6335 62.8495 54.8097 65.4192 54.1616 68.0395C54.1344 68.15 54.197 68.2578 54.3046 68.2919C57.744 69.3728 61.3603 69.5243 64.8759 70.238C65.3538 70.3349 66.838 70.4645 66.9455 70.9981C67.0204 71.3721 66.8584 71.8879 66.7821 72.2509C66.5153 73.5269 66.0578 74.8534 65.1659 75.8292C64.9889 76.023 65.2762 76.3137 65.4546 76.1185C66.3777 75.1073 66.8747 73.7548 67.1593 72.4338C67.3132 71.7214 67.6753 70.6897 66.8434 70.3117C65.9584 69.9091 64.8283 69.8013 63.8765 69.6375C62.8472 69.4601 61.8124 69.3182 60.7776 69.1735C58.6303 68.8733 56.4858 68.5498 54.4122 67.8975C54.4598 67.9808 54.5075 68.0654 54.5551 68.15C55.2019 65.5284 56.027 62.96 57.0264 60.4531C57.1231 60.2074 56.7282 60.101 56.6329 60.3425Z" fill="white"/>
<path d="M54.3306 67.8962C53.2005 68.0668 52.1208 68.3903 51.0792 68.857C50.8395 68.9648 51.0465 69.3169 51.2848 69.2105C52.295 68.7574 53.3448 68.4558 54.4395 68.2906C54.6982 68.2524 54.588 67.8567 54.3306 67.8962Z" fill="white"/>
<path d="M68.442 46.8565C67.4835 47.2045 66.4215 47.0981 65.4207 46.8975C64.4281 46.6982 63.3552 46.3407 62.8459 45.4632C62.2033 44.3591 62.722 42.9808 63.0284 41.7402C63.4219 40.1558 63.4369 38.4786 63.0747 36.8873L66.8381 37.6147L68.1153 37.8617C68.0812 39.5062 68.5006 41.1575 69.3162 42.585C69.3938 42.7201 69.4741 42.8538 69.5531 42.9889C69.8499 43.4898 70.1359 44.0016 70.1658 44.5747C70.2203 45.5955 69.402 46.5085 68.442 46.8565Z" fill="#FFB9A3"/>
<path d="M69.5534 42.9889C66.031 42.7296 64.6885 40.2745 64.2446 39.0954C64.536 39.3287 64.8573 39.5225 65.2045 39.6658C66.1713 40.0657 67.3 40.022 68.2477 39.5908C68.426 40.6416 68.7882 41.6597 69.3165 42.5849C69.3941 42.72 69.4745 42.8538 69.5534 42.9889Z" fill="#FF9B8D"/>
<mask id="path-44-inside-1_130_2685" fill="white">
<path d="M98.1009 33.2383C93.7901 33.2383 90.2827 29.7228 90.2827 25.4022C90.2827 21.0815 93.7901 17.566 98.1009 17.566C102.412 17.566 105.919 21.0815 105.919 25.4022C105.919 29.7228 102.413 33.2383 98.1009 33.2383ZM98.1009 17.7025C93.865 17.7025 90.4189 21.1566 90.4189 25.4022C90.4189 29.6477 93.865 33.1018 98.1009 33.1018C102.337 33.1018 105.783 29.6477 105.783 25.4022C105.783 21.1566 102.337 17.7025 98.1009 17.7025Z"/>
</mask>
<path d="M98.1009 33.2383C93.7901 33.2383 90.2827 29.7228 90.2827 25.4022C90.2827 21.0815 93.7901 17.566 98.1009 17.566C102.412 17.566 105.919 21.0815 105.919 25.4022C105.919 29.7228 102.413 33.2383 98.1009 33.2383ZM98.1009 17.7025C93.865 17.7025 90.4189 21.1566 90.4189 25.4022C90.4189 29.6477 93.865 33.1018 98.1009 33.1018C102.337 33.1018 105.783 29.6477 105.783 25.4022C105.783 21.1566 102.337 17.7025 98.1009 17.7025Z" fill="#F9F7F1"/>
<path d="M98.1009 27.4225C97.0147 27.4225 96.0985 26.5234 96.0985 25.4022H84.4669C84.4669 32.9222 90.5656 39.0541 98.1009 39.0541V27.4225ZM96.0985 25.4022C96.0985 24.2809 97.0147 23.3818 98.1009 23.3818V11.7502C90.5656 11.7502 84.4669 17.8821 84.4669 25.4022H96.0985ZM98.1009 23.3818C99.1872 23.3818 100.103 24.2809 100.103 25.4022H111.735C111.735 17.8821 105.636 11.7502 98.1009 11.7502V23.3818ZM100.103 25.4022C100.103 26.5241 99.1879 27.4225 98.1009 27.4225V39.0541C105.638 39.0541 111.735 32.9216 111.735 25.4022H100.103ZM98.1009 11.8867C90.6405 11.8867 84.6031 17.9572 84.6031 25.4022H96.2347C96.2347 24.356 97.0896 23.5183 98.1009 23.5183V11.8867ZM84.6031 25.4022C84.6031 32.8472 90.6405 38.9176 98.1009 38.9176V27.286C97.0896 27.286 96.2347 26.4483 96.2347 25.4022H84.6031ZM98.1009 38.9176C105.561 38.9176 111.599 32.8472 111.599 25.4022H99.9672C99.9672 26.4483 99.1123 27.286 98.1009 27.286V38.9176ZM111.599 25.4022C111.599 17.9572 105.561 11.8867 98.1009 11.8867V23.5183C99.1123 23.5183 99.9672 24.356 99.9672 25.4022H111.599Z" fill="#F9F7F1" mask="url(#path-44-inside-1_130_2685)"/>
<mask id="path-46-inside-2_130_2685" fill="white">
<path d="M98.0195 25.4814L99.0462 19.4357L99.181 19.4589L98.1856 25.323C99.49 25.1579 101.395 24.9014 101.527 24.8372L101.551 24.8891L101.562 24.8904L101.613 24.8399L101.63 24.9136C101.614 24.9628 101.591 25.031 98.1121 25.4691L98.0195 25.4814Z"/>
</mask>
<path d="M98.0195 25.4814L99.0462 19.4357L99.181 19.4589L98.1856 25.323C99.49 25.1579 101.395 24.9014 101.527 24.8372L101.551 24.8891L101.562 24.8904L101.613 24.8399L101.63 24.9136C101.614 24.9628 101.591 25.031 98.1121 25.4691L98.0195 25.4814Z" fill="#F9F7F1"/>
<path d="M98.0195 25.4814L92.2858 24.5077L90.9653 32.2839L98.7844 31.2466L98.0195 25.4814ZM99.0462 19.4357L100.033 13.7042L94.2883 12.7155L93.3125 18.4621L99.0462 19.4357ZM99.181 19.4589L104.915 20.4321L105.886 14.7116L100.167 13.7274L99.181 19.4589ZM98.1856 25.323L92.4519 24.3499L91.1403 32.0772L98.9161 31.0928L98.1856 25.323ZM101.527 24.8372L106.785 22.3523L104.274 17.0379L98.9863 19.6057L101.527 24.8372ZM101.551 24.8891L96.2933 27.374L97.6584 30.2626L100.828 30.6597L101.551 24.8891ZM101.562 24.8904L100.839 30.6611L103.667 31.0154L105.679 28.9981L101.562 24.8904ZM101.613 24.8399L107.268 23.4816L104.839 13.3716L97.4956 20.7323L101.613 24.8399ZM101.63 24.9136L107.149 26.749L107.674 25.1716L107.285 23.5553L101.63 24.9136ZM98.1121 25.4691L97.3855 19.6989L97.3664 19.7013L97.3473 19.7038L98.1121 25.4691ZM103.753 26.455L104.78 20.4094L93.3125 18.4621L92.2858 24.5077L103.753 26.455ZM98.0597 25.1672L98.1945 25.1904L100.167 13.7274L100.033 13.7042L98.0597 25.1672ZM93.4472 18.4857L92.4519 24.3499L103.919 26.2962L104.915 20.4321L93.4472 18.4857ZM98.9161 31.0928C99.5845 31.0082 100.417 30.8988 101.111 30.8007C101.453 30.7523 101.793 30.7021 102.073 30.6562C102.207 30.6342 102.375 30.6055 102.541 30.5722C102.62 30.5564 102.753 30.5288 102.908 30.4898C102.985 30.4703 103.11 30.4373 103.259 30.3901C103.368 30.3556 103.687 30.2537 104.068 30.0687L98.9863 19.6057C99.1943 19.5047 99.3685 19.4357 99.4774 19.3949C99.5931 19.3515 99.6905 19.3193 99.7597 19.2975C99.8943 19.255 100.001 19.2271 100.056 19.2131C100.168 19.185 100.245 19.1696 100.257 19.1672C100.288 19.1609 100.275 19.1641 100.192 19.1777C100.037 19.2031 99.795 19.2394 99.481 19.2838C98.8632 19.3713 98.0912 19.4728 97.4552 19.5533L98.9161 31.0928ZM96.2688 27.3221L96.2933 27.374L106.81 22.4041L106.785 22.3523L96.2688 27.3221ZM100.828 30.6597L100.839 30.6611L102.285 19.1198L102.274 19.1184L100.828 30.6597ZM105.679 28.9981L105.73 28.9476L97.4956 20.7323L97.4452 20.7828L105.679 28.9981ZM95.9578 26.1982L95.9755 26.2719L107.285 23.5553L107.268 23.4816L95.9578 26.1982ZM96.1118 23.0783C96.101 23.111 96.2608 22.5827 96.5951 22.0062C96.9654 21.3675 97.4279 20.8506 97.9145 20.4489C98.36 20.081 98.773 19.8532 99.0401 19.7224C99.3121 19.5892 99.5399 19.505 99.6783 19.4576C99.9418 19.3673 100.135 19.3249 100.163 19.3187C100.214 19.3074 100.222 19.3071 100.161 19.3178C99.8764 19.368 99.1322 19.4789 97.3855 19.6989L98.8387 31.2393C100.571 31.0212 101.578 30.8789 102.178 30.7731C102.39 30.7358 102.912 30.6452 103.448 30.4615C103.67 30.3853 104.489 30.1048 105.32 29.4184C105.816 29.0092 106.284 28.4854 106.658 27.8401C106.833 27.5386 106.953 27.2691 107.034 27.0659C107.073 26.9676 107.102 26.8862 107.12 26.8332C107.13 26.8066 107.137 26.7849 107.142 26.7712C107.144 26.7643 107.146 26.7586 107.147 26.755C107.147 26.7536 107.148 26.7515 107.148 26.7507C107.149 26.7499 107.149 26.7491 107.149 26.749L96.1118 23.0783ZM97.3473 19.7038L97.2547 19.7161L98.7844 31.2466L98.877 31.2343L97.3473 19.7038Z" fill="#F9F7F1" mask="url(#path-46-inside-2_130_2685)"/>
<path d="M124.548 36.201C124.234 35.2648 123.842 34.315 123.116 33.6463C121.738 32.3757 119.452 32.5163 117.92 33.5971C116.388 34.678 115.513 36.4821 115.055 38.3013C114.636 41.1985 114.742 43.2511 115.614 46.2998C116.038 47.7846 116.692 49.2585 117.833 50.2984C118.974 51.3383 120.683 51.8555 122.107 51.2646C123.466 50.701 124.283 49.2967 124.778 47.9102C126.118 44.1654 125.813 39.9703 124.548 36.201Z" fill="#D196A8"/>
<path d="M55.3522 59.4241C55.5877 59.6124 55.7593 59.8622 55.9839 60.0614C56.1977 60.2511 56.4455 60.3944 56.6933 60.535C56.9234 60.6646 57.129 60.3112 56.8989 60.1815C56.6566 60.0451 56.4115 59.9086 56.21 59.7148C56.0139 59.5251 55.8546 59.3054 55.6408 59.1348C55.4366 58.9724 55.1466 59.2603 55.3522 59.4241Z" fill="white"/>
<path d="M77.448 56.8175C77.7299 56.4163 78.0022 56.0082 78.265 55.5947C78.4066 55.3723 78.0539 55.1662 77.9123 55.3886C77.6495 55.8021 77.3772 56.2102 77.0954 56.6114C76.9442 56.827 77.2982 57.0317 77.448 56.8175Z" fill="white"/>
<path d="M61.9079 33.5534C62.0712 35.5568 62.5546 38.3763 64.4377 39.4994C65.2955 40.0112 66.4446 40.3769 67.4468 40.2104C68.4639 40.0412 69.2046 39.2865 69.8227 38.5168C69.9453 38.364 69.7301 38.1456 69.6062 38.2999C69.0235 39.0259 68.3441 39.7464 67.3841 39.902C66.3997 40.0617 65.2138 39.6687 64.4009 39.1146C62.7915 38.0174 62.3626 35.3521 62.2156 33.5548C62.1979 33.3569 61.8915 33.3555 61.9079 33.5534Z" fill="#FF9B8D"/>
<path d="M54.8605 81.7697H48.8696L47.6196 73.6347H56.2425L54.8605 81.7697Z" fill="white"/>
<path d="M51.8567 82.7782C53.5156 82.7782 54.8603 82.3267 54.8603 81.7697C54.8603 81.2127 53.5156 80.7612 51.8567 80.7612C50.1978 80.7612 48.853 81.2127 48.853 81.7697C48.853 82.3267 50.1978 82.7782 51.8567 82.7782Z" fill="white"/>
<path d="M51.9318 74.6432C54.3133 74.6432 56.2439 74.1917 56.2439 73.6347C56.2439 73.0777 54.3133 72.6262 51.9318 72.6262C49.5502 72.6262 47.6196 73.0777 47.6196 73.6347C47.6196 74.1917 49.5502 74.6432 51.9318 74.6432Z" fill="white"/>
<path d="M51.9316 74.474C53.9123 74.474 55.518 74.0983 55.518 73.6347C55.518 73.1712 53.9123 72.7954 51.9316 72.7954C49.9509 72.7954 48.3452 73.1712 48.3452 73.6347C48.3452 74.0983 49.9509 74.474 51.9316 74.474Z" fill="#400F58"/>
<path d="M48.1845 74.4971C46.7685 74.6964 45.3511 74.8956 43.935 75.0962C43.6137 75.1413 43.5647 75.5821 43.7553 75.78C44.7275 76.8021 45.6969 77.827 46.6732 78.8451C47.5146 79.724 48.3806 80.5673 49.4385 81.1801C49.8947 81.4449 50.3059 80.7379 49.8511 80.4732C48.7836 79.8536 47.934 78.9816 47.0885 78.0945C46.1694 77.131 45.2517 76.1648 44.334 75.2C44.2741 75.4279 44.2142 75.6558 44.1542 75.8837C45.5703 75.6844 46.9877 75.4852 48.4037 75.2846C48.9198 75.2136 48.6992 74.4248 48.1845 74.4971Z" fill="white"/>
<path d="M50.8233 73.6142C50.6953 73.4559 50.5755 73.2867 50.4734 73.1093C50.3181 72.8432 50.2855 72.8036 50.3889 72.502C50.4924 72.199 50.7334 72.1035 50.9063 71.8551C51.0929 71.589 51.1582 71.2683 50.954 70.9926C50.7184 70.676 50.2364 70.5955 49.8729 70.6419C49.7858 70.6528 49.7027 70.6801 49.6196 70.7033C49.3541 70.7756 48.8694 70.7224 48.6883 70.4604C48.4174 70.0687 49.1063 69.4914 49.3664 69.2581C49.5134 69.1257 49.297 68.9087 49.1499 69.0411C48.7442 69.4055 48.2771 69.7821 48.3615 70.3853C48.4296 70.8725 48.7455 71.1864 49.2398 71.1291C49.6088 71.0854 51.18 70.6078 50.664 71.6286C50.5047 71.9438 50.1207 72.0557 49.9982 72.3969C49.8184 72.8977 50.3195 73.475 50.6068 73.8312C50.7307 73.9854 50.9458 73.7671 50.8233 73.6142Z" fill="white"/>
<path d="M52.1784 73.0807C52.0136 72.8938 51.7522 72.6358 51.7181 72.3697C51.6487 71.8238 52.0272 71.8088 52.2764 71.5741C52.4044 71.454 52.4943 71.3394 52.512 71.162C52.5678 70.5765 51.8979 70.5164 51.5262 70.3049C50.4246 69.6772 50.9706 68.4994 51.488 67.7106C51.8461 67.1661 52.1607 66.6407 52.1198 65.9665C52.1076 65.77 51.8012 65.7686 51.8135 65.9665C51.906 67.4581 49.7411 68.6086 50.8944 70.148C51.0877 70.4059 51.3151 70.5424 51.6038 70.6679C51.9905 70.8372 52.2042 71.0924 51.8638 71.4908C51.789 71.5782 51.6596 71.6164 51.5793 71.7119C51.1299 72.2483 51.5888 72.8774 51.9605 73.2977C52.0926 73.4451 52.3091 73.2281 52.1784 73.0807Z" fill="white"/>
<path d="M53.439 73.3181C53.3246 73.0724 53.1639 72.7954 53.4213 72.5634C53.4907 72.502 53.5942 72.4829 53.6745 72.442C53.8352 72.3587 53.9564 72.2591 54.0136 72.0817C54.1307 71.7187 53.8924 71.3884 53.5506 71.2874C53.3614 71.2315 53.2797 71.5276 53.4689 71.5836C53.7086 71.6545 53.8406 71.952 53.601 72.1376C53.5452 72.1813 53.4117 72.2154 53.3437 72.255C53.2293 72.3191 53.1285 72.3915 53.0605 72.5061C52.8698 72.82 53.0346 73.1762 53.1735 73.475C53.2579 73.6511 53.522 73.4955 53.439 73.3181Z" fill="white"/>
</g>
<path d="M27.0398 127.954V128.79C27.0398 129.784 26.9156 130.674 26.6673 131.462C26.4189 132.249 26.0614 132.919 25.595 133.47C25.1285 134.021 24.5681 134.442 23.9138 134.733C23.2656 135.024 22.5387 135.169 21.7329 135.169C20.9514 135.169 20.2335 135.024 19.5793 134.733C18.931 134.442 18.3676 134.021 17.8891 133.47C17.4165 132.919 17.05 132.249 16.7895 131.462C16.529 130.674 16.3988 129.784 16.3988 128.79V127.954C16.3988 126.961 16.526 126.073 16.7804 125.292C17.0409 124.504 17.4074 123.835 17.88 123.283C18.3525 122.726 18.9129 122.302 19.5611 122.011C20.2154 121.72 20.9333 121.575 21.7147 121.575C22.5205 121.575 23.2475 121.72 23.8957 122.011C24.5499 122.302 25.1103 122.726 25.5768 123.283C26.0493 123.835 26.4098 124.504 26.6582 125.292C26.9126 126.073 27.0398 126.961 27.0398 127.954ZM25.3042 128.79V127.936C25.3042 127.148 25.2224 126.452 25.0588 125.846C24.9013 125.24 24.6681 124.731 24.3591 124.319C24.0502 123.907 23.6715 123.595 23.2232 123.383C22.781 123.171 22.2782 123.065 21.7147 123.065C21.1695 123.065 20.6758 123.171 20.2335 123.383C19.7974 123.595 19.4218 123.907 19.1067 124.319C18.7978 124.731 18.5585 125.24 18.3888 125.846C18.2192 126.452 18.1344 127.148 18.1344 127.936V128.79C18.1344 129.584 18.2192 130.286 18.3888 130.898C18.5585 131.504 18.8008 132.016 19.1158 132.434C19.4369 132.846 19.8155 133.158 20.2517 133.37C20.694 133.582 21.1877 133.688 21.7329 133.688C22.3024 133.688 22.8082 133.582 23.2505 133.37C23.6927 133.158 24.0653 132.846 24.3682 132.434C24.6772 132.016 24.9104 131.504 25.0679 130.898C25.2254 130.286 25.3042 129.584 25.3042 128.79ZM35.7181 120.875H37.0993C37.0993 121.469 37.0085 121.941 36.8267 122.293C36.645 122.638 36.3966 122.905 36.0816 123.092C35.7726 123.28 35.4212 123.423 35.0274 123.52C34.6397 123.616 34.2369 123.71 33.8189 123.801C33.2979 123.91 32.8132 124.083 32.3649 124.319C31.9227 124.549 31.541 124.877 31.2199 125.301C30.9049 125.725 30.6717 126.276 30.5202 126.954C30.3748 127.633 30.3354 128.472 30.4021 129.472V130.308H29.0208V129.472C29.0208 128.351 29.1268 127.372 29.3389 126.536C29.557 125.7 29.8629 124.995 30.2567 124.419C30.6505 123.844 31.1169 123.386 31.6561 123.047C32.2013 122.708 32.8011 122.475 33.4554 122.347C33.9279 122.256 34.3338 122.159 34.673 122.056C35.0123 121.947 35.2698 121.802 35.4455 121.62C35.6272 121.439 35.7181 121.19 35.7181 120.875ZM33.728 125.719C34.3701 125.719 34.9426 125.831 35.4455 126.055C35.9483 126.279 36.3754 126.591 36.7267 126.991C37.0781 127.391 37.3447 127.863 37.5264 128.408C37.7142 128.948 37.8081 129.535 37.8081 130.171V130.371C37.8081 131.056 37.7082 131.692 37.5082 132.28C37.3144 132.861 37.0266 133.37 36.645 133.806C36.2694 134.236 35.8089 134.573 35.2637 134.815C34.7245 135.057 34.1096 135.178 33.419 135.178C32.7284 135.178 32.1105 135.057 31.5652 134.815C31.0261 134.573 30.5657 134.236 30.184 133.806C29.8023 133.37 29.5115 132.861 29.3116 132.28C29.1178 131.692 29.0208 131.056 29.0208 130.371V130.171C29.0208 130.02 29.0481 129.871 29.1026 129.726C29.1571 129.581 29.2238 129.432 29.3025 129.281C29.3873 129.129 29.4631 128.969 29.5297 128.799C29.7539 128.254 30.0598 127.748 30.4475 127.282C30.8413 126.815 31.3108 126.44 31.856 126.155C32.4073 125.864 33.0313 125.719 33.728 125.719ZM33.4008 127.091C32.7829 127.091 32.274 127.233 31.8742 127.518C31.4804 127.803 31.1866 128.181 30.9927 128.654C30.7989 129.12 30.702 129.626 30.702 130.171V130.371C30.702 130.832 30.7565 131.268 30.8655 131.68C30.9746 132.092 31.1381 132.458 31.3562 132.779C31.5804 133.094 31.8621 133.343 32.2013 133.524C32.5467 133.706 32.9525 133.797 33.419 133.797C33.8855 133.797 34.2884 133.706 34.6276 133.524C34.9669 133.343 35.2455 133.094 35.4636 132.779C35.6817 132.458 35.8453 132.092 35.9543 131.68C36.0634 131.268 36.1179 130.832 36.1179 130.371V130.171C36.1179 129.759 36.0634 129.369 35.9543 128.999C35.8453 128.63 35.6787 128.302 35.4545 128.018C35.2365 127.733 34.9548 127.509 34.6094 127.345C34.2702 127.176 33.8673 127.091 33.4008 127.091ZM43.6512 133.788C44.051 133.788 44.4206 133.706 44.7598 133.543C45.0991 133.379 45.3777 133.155 45.5958 132.87C45.8139 132.579 45.9381 132.249 45.9684 131.88H47.5677C47.5374 132.461 47.3406 133.004 46.9771 133.506C46.6196 134.003 46.1501 134.406 45.5686 134.715C44.987 135.018 44.3479 135.169 43.6512 135.169C42.9121 135.169 42.2669 135.039 41.7156 134.779C41.1704 134.518 40.716 134.161 40.3525 133.706C39.9951 133.252 39.7255 132.731 39.5438 132.143C39.3681 131.55 39.2802 130.923 39.2802 130.262V129.881C39.2802 129.22 39.3681 128.596 39.5438 128.009C39.7255 127.415 39.9951 126.891 40.3525 126.437C40.716 125.982 41.1704 125.625 41.7156 125.364C42.2669 125.104 42.9121 124.973 43.6512 124.973C44.4206 124.973 45.093 125.131 45.6685 125.446C46.244 125.755 46.6954 126.179 47.0225 126.718C47.3557 127.251 47.5374 127.857 47.5677 128.536H45.9684C45.9381 128.13 45.823 127.763 45.6231 127.436C45.4292 127.109 45.1627 126.848 44.8234 126.655C44.4902 126.455 44.0995 126.355 43.6512 126.355C43.1362 126.355 42.7031 126.458 42.3517 126.664C42.0064 126.864 41.7307 127.136 41.5248 127.482C41.3249 127.821 41.1795 128.199 41.0886 128.617C41.0038 129.029 40.9614 129.45 40.9614 129.881V130.262C40.9614 130.692 41.0038 131.116 41.0886 131.534C41.1734 131.952 41.3158 132.331 41.5157 132.67C41.7217 133.01 41.9973 133.282 42.3426 133.488C42.694 133.688 43.1302 133.788 43.6512 133.788ZM52.2204 133.97L54.9556 125.155H56.7549L52.811 136.505C52.7202 136.747 52.599 137.008 52.4476 137.287C52.3022 137.571 52.1144 137.841 51.8841 138.095C51.6539 138.35 51.3753 138.556 51.0481 138.713C50.727 138.877 50.3424 138.959 49.8941 138.959C49.7608 138.959 49.5912 138.94 49.3852 138.904C49.1792 138.868 49.0338 138.837 48.949 138.813L48.9399 137.45C48.9884 137.456 49.0641 137.462 49.1671 137.468C49.2761 137.48 49.3519 137.487 49.3943 137.487C49.7759 137.487 50.1 137.435 50.3666 137.332C50.6331 137.235 50.8573 137.068 51.039 136.832C51.2268 136.602 51.3874 136.284 51.5207 135.878L52.2204 133.97ZM50.2121 125.155L52.7656 132.788L53.2018 134.56L51.9932 135.178L48.3765 125.155H50.2121ZM61.253 130.707L57.5273 125.155H59.5537L62.0981 129.226H64.061L63.8156 130.707H61.253ZM62.1708 130.535L59.3174 134.988H57.1911L61.1076 129.317L62.1708 130.535ZM64.9242 125.155V134.988H63.2431V125.155H64.9242ZM70.6582 125.155L66.9325 130.707H64.3699L64.1064 129.226H66.0783L68.6227 125.155H70.6582ZM68.859 134.988L65.9965 130.535L67.0779 129.317L70.9854 134.988H68.859ZM74.3113 125.155H75.9924L75.847 128.836C75.8107 129.768 75.7046 130.574 75.529 131.253C75.3533 131.931 75.1291 132.51 74.8565 132.988C74.5839 133.461 74.278 133.858 73.9387 134.179C73.6055 134.5 73.2602 134.769 72.9028 134.988H72.0667L72.1122 133.615L72.4575 133.606C72.6574 133.37 72.8513 133.128 73.0391 132.879C73.2269 132.625 73.3995 132.325 73.557 131.98C73.7146 131.628 73.8448 131.201 73.9478 130.698C74.0568 130.19 74.1265 129.569 74.1568 128.836L74.3113 125.155ZM74.7293 125.155H80.645V134.988H78.9639V126.709H74.7293V125.155ZM71.6851 133.606H81.9081V137.886H80.227V134.988H73.3662V137.886H71.676L71.6851 133.606ZM87.8512 135.169C87.1666 135.169 86.5456 135.054 85.9883 134.824C85.437 134.588 84.9614 134.258 84.5616 133.833C84.1678 133.409 83.8649 132.907 83.6529 132.325C83.4408 131.743 83.3348 131.107 83.3348 130.417V130.035C83.3348 129.235 83.453 128.524 83.6892 127.9C83.9255 127.269 84.2466 126.736 84.6525 126.3C85.0584 125.864 85.5188 125.534 86.0337 125.31C86.5487 125.086 87.0818 124.973 87.6331 124.973C88.3358 124.973 88.9416 125.095 89.4505 125.337C89.9654 125.579 90.3865 125.919 90.7136 126.355C91.0407 126.785 91.2831 127.294 91.4406 127.881C91.5981 128.463 91.6768 129.099 91.6768 129.79V130.544H84.3344V129.172H89.9957V129.045C89.9715 128.608 89.8806 128.184 89.7231 127.772C89.5717 127.36 89.3293 127.021 88.9961 126.755C88.6629 126.488 88.2086 126.355 87.6331 126.355C87.2514 126.355 86.9 126.437 86.5789 126.6C86.2579 126.758 85.9822 126.994 85.752 127.309C85.5218 127.624 85.3431 128.009 85.2159 128.463C85.0887 128.917 85.025 129.441 85.025 130.035V130.417C85.025 130.883 85.0887 131.322 85.2159 131.734C85.3492 132.14 85.54 132.498 85.7884 132.807C86.0428 133.116 86.3487 133.358 86.7062 133.534C87.0697 133.709 87.4816 133.797 87.942 133.797C88.5357 133.797 89.0385 133.676 89.4505 133.434C89.8624 133.191 90.2229 132.867 90.5319 132.461L91.5496 133.27C91.3376 133.591 91.068 133.897 90.7409 134.188C90.4137 134.479 90.0109 134.715 89.5323 134.897C89.0597 135.078 88.4994 135.169 87.8512 135.169ZM100.31 129.417V130.78H95.1118V129.417H100.31ZM95.4662 125.155V134.988H93.7851V125.155H95.4662ZM101.673 125.155V134.988H99.9825V125.155H101.673ZM106.198 132.325L110.733 125.155H112.423V134.988H110.733V127.818L106.198 134.988H104.526V125.155H106.198V132.325ZM117.112 130.299H118.929L116.085 134.988H114.268L117.112 130.299ZM118.52 125.155H122.628V134.988H120.947V126.518H118.52C118.042 126.518 117.651 126.6 117.348 126.764C117.045 126.921 116.824 127.127 116.685 127.382C116.545 127.636 116.476 127.9 116.476 128.172C116.476 128.439 116.539 128.696 116.667 128.945C116.794 129.187 116.994 129.387 117.266 129.544C117.539 129.702 117.89 129.781 118.32 129.781H121.401V131.162H118.32C117.757 131.162 117.257 131.086 116.821 130.935C116.385 130.783 116.015 130.574 115.712 130.308C115.41 130.035 115.179 129.717 115.022 129.353C114.864 128.984 114.786 128.584 114.786 128.154C114.786 127.724 114.867 127.327 115.031 126.964C115.201 126.6 115.443 126.282 115.758 126.009C116.079 125.737 116.47 125.528 116.93 125.382C117.397 125.231 117.927 125.155 118.52 125.155ZM23.1505 145.155V146.546H18.1798V145.155H23.1505ZM18.4252 145.155V154.988H16.7441V145.155H18.4252ZM24.6408 145.155V154.988H22.9506V145.155H24.6408ZM26.8944 150.18V149.971C26.8944 149.263 26.9974 148.605 27.2034 148C27.4094 147.388 27.7062 146.858 28.0939 146.409C28.4817 145.955 28.9512 145.604 29.5025 145.355C30.0537 145.101 30.6717 144.973 31.3562 144.973C32.0469 144.973 32.6678 145.101 33.2191 145.355C33.7764 145.604 34.249 145.955 34.6367 146.409C35.0305 146.858 35.3304 147.388 35.5363 148C35.7423 148.605 35.8453 149.263 35.8453 149.971V150.18C35.8453 150.889 35.7423 151.547 35.5363 152.152C35.3304 152.758 35.0305 153.288 34.6367 153.743C34.249 154.191 33.7795 154.542 33.2282 154.797C32.683 155.045 32.065 155.169 31.3744 155.169C30.6838 155.169 30.0628 155.045 29.5115 154.797C28.9603 154.542 28.4877 154.191 28.0939 153.743C27.7062 153.288 27.4094 152.758 27.2034 152.152C26.9974 151.547 26.8944 150.889 26.8944 150.18ZM28.5756 149.971V150.18C28.5756 150.671 28.6331 151.135 28.7482 151.571C28.8633 152.001 29.036 152.383 29.2662 152.716C29.5025 153.049 29.7963 153.312 30.1476 153.506C30.499 153.694 30.9079 153.788 31.3744 153.788C31.8348 153.788 32.2377 153.694 32.583 153.506C32.9344 153.312 33.2252 153.049 33.4554 152.716C33.6856 152.383 33.8582 152.001 33.9733 151.571C34.0945 151.135 34.1551 150.671 34.1551 150.18V149.971C34.1551 149.487 34.0945 149.029 33.9733 148.599C33.8582 148.163 33.6825 147.778 33.4463 147.445C33.2161 147.106 32.9253 146.839 32.5739 146.646C32.2286 146.452 31.8227 146.355 31.3562 146.355C30.8958 146.355 30.4899 146.452 30.1386 146.646C29.7932 146.839 29.5025 147.106 29.2662 147.445C29.036 147.778 28.8633 148.163 28.7482 148.599C28.6331 149.029 28.5756 149.487 28.5756 149.971ZM46.5772 145.155V154.988H44.887V145.155H46.5772ZM49.8759 145.155V146.518H41.652V145.155H49.8759ZM54.8829 155.169C54.1983 155.169 53.5774 155.054 53.02 154.824C52.4688 154.588 51.9932 154.258 51.5934 153.833C51.1996 153.409 50.8967 152.907 50.6846 152.325C50.4726 151.743 50.3666 151.107 50.3666 150.417V150.035C50.3666 149.235 50.4847 148.524 50.721 147.9C50.9573 147.269 51.2783 146.736 51.6842 146.3C52.0901 145.864 52.5505 145.534 53.0655 145.31C53.5804 145.086 54.1135 144.973 54.6648 144.973C55.3676 144.973 55.9734 145.095 56.4823 145.337C56.9972 145.579 57.4182 145.919 57.7454 146.355C58.0725 146.785 58.3148 147.294 58.4723 147.881C58.6299 148.463 58.7086 149.099 58.7086 149.79V150.544H51.3662V149.172H57.0275V149.045C57.0032 148.608 56.9124 148.184 56.7549 147.772C56.6034 147.36 56.3611 147.021 56.0279 146.755C55.6947 146.488 55.2403 146.355 54.6648 146.355C54.2832 146.355 53.9318 146.437 53.6107 146.6C53.2896 146.758 53.014 146.994 52.7838 147.309C52.5536 147.624 52.3749 148.009 52.2476 148.463C52.1204 148.917 52.0568 149.441 52.0568 150.035V150.417C52.0568 150.883 52.1204 151.322 52.2476 151.734C52.3809 152.14 52.5717 152.498 52.8201 152.807C53.0746 153.116 53.3805 153.358 53.7379 153.534C54.1014 153.709 54.5134 153.797 54.9738 153.797C55.5675 153.797 56.0703 153.676 56.4823 153.434C56.8942 153.191 57.2547 152.867 57.5636 152.461L58.5814 153.27C58.3694 153.591 58.0998 153.897 57.7726 154.188C57.4455 154.479 57.0426 154.715 56.564 154.897C56.0915 155.078 55.5311 155.169 54.8829 155.169ZM66.3237 152.752L69.6677 145.155H71.2852L66.9052 154.988H65.7421L61.3802 145.155H62.9977L66.3237 152.752ZM62.507 145.155V154.988H60.8259V145.155H62.507ZM70.0857 154.988V145.155H71.776V154.988H70.0857ZM80.2815 153.306V148.245C80.2815 147.857 80.2028 147.521 80.0453 147.236C79.8938 146.945 79.6636 146.721 79.3547 146.564C79.0457 146.406 78.664 146.327 78.2097 146.327C77.7856 146.327 77.413 146.4 77.0919 146.546C76.7769 146.691 76.5285 146.882 76.3468 147.118C76.1711 147.354 76.0833 147.609 76.0833 147.881H74.4021C74.4021 147.53 74.493 147.182 74.6748 146.836C74.8565 146.491 75.117 146.179 75.4563 145.9C75.8016 145.616 76.2135 145.391 76.6921 145.228C77.1768 145.058 77.7159 144.973 78.3096 144.973C79.0245 144.973 79.6545 145.095 80.1998 145.337C80.751 145.579 81.1812 145.946 81.4901 146.437C81.8052 146.921 81.9627 147.53 81.9627 148.263V152.843C81.9627 153.17 81.9899 153.518 82.0445 153.888C82.105 154.258 82.1929 154.576 82.308 154.842V154.988H80.5542C80.4693 154.794 80.4027 154.536 80.3542 154.215C80.3058 153.888 80.2815 153.585 80.2815 153.306ZM80.5723 149.026L80.5905 150.208H78.8912C78.4126 150.208 77.9855 150.247 77.6099 150.326C77.2343 150.399 76.9193 150.511 76.6649 150.662C76.4104 150.813 76.2166 151.004 76.0833 151.235C75.95 151.459 75.8834 151.722 75.8834 152.025C75.8834 152.334 75.953 152.616 76.0924 152.87C76.2317 153.125 76.4407 153.328 76.7194 153.479C77.0041 153.624 77.3524 153.697 77.7644 153.697C78.2793 153.697 78.7337 153.588 79.1275 153.37C79.5213 153.152 79.8332 152.885 80.0635 152.57C80.2997 152.255 80.4269 151.949 80.4451 151.653L81.163 152.461C81.1206 152.716 81.0055 152.997 80.8177 153.306C80.6299 153.615 80.3785 153.912 80.0635 154.197C79.7545 154.476 79.3849 154.709 78.9548 154.897C78.5307 155.078 78.0522 155.169 77.519 155.169C76.8527 155.169 76.268 155.039 75.7652 154.779C75.2685 154.518 74.8807 154.17 74.6021 153.734C74.3294 153.291 74.1931 152.798 74.1931 152.252C74.1931 151.725 74.2961 151.262 74.5021 150.862C74.7081 150.456 75.0049 150.12 75.3926 149.853C75.7804 149.581 76.2468 149.375 76.7921 149.235C77.3373 149.096 77.9461 149.026 78.6186 149.026H80.5723ZM90.2593 152.752L93.6033 145.155H95.2208L90.8408 154.988H89.6777L85.3158 145.155H86.9334L90.2593 152.752ZM86.4426 145.155V154.988H84.7615V145.155H86.4426ZM94.0213 154.988V145.155H95.7116V154.988H94.0213Z" fill="#FFECCC"/>
<defs>
<clipPath id="clip0_130_2685">
<rect width="108.174" height="84.9105" fill="white" transform="translate(17.4766 13.3627)"/>
</clipPath>
</defs>
</svg>
