<svg width="180" height="169" viewBox="0 0 180 169" fill="none" xmlns="http://www.w3.org/2000/svg">
<rect width="180" height="169" rx="11.6316" fill="#FFCF86"/>
<path fill-rule="evenodd" clip-rule="evenodd" d="M63.9951 36.7803C65.9582 41.0515 69.9534 42.5476 73.399 41.8156C76.1064 41.2402 79.6309 35.935 79.5064 33.4849C79.1342 26.1357 70.4796 12.135 65.7697 11.205C61.9643 13.9445 60.886 30.0133 63.9951 36.7803Z" fill="#FEDEA6"/>
<path d="M71.709 42.1793C70.4446 42.1793 69.1864 41.8945 68.0477 41.3397C66.2128 40.4452 64.7476 38.8942 63.8098 36.8535C62.3569 33.6908 61.6964 28.1797 62.0882 22.4696C62.3963 17.9686 63.4931 12.6062 65.6459 11.0552L65.7199 11.0014L65.8111 11.0197C70.6295 11.9714 79.3309 26.0316 79.708 33.4746C79.8386 36.0506 76.239 41.4026 73.4441 41.9974C72.8735 42.1198 72.2906 42.1793 71.709 42.1793ZM65.8209 11.4075C64.145 12.708 62.8732 16.9357 62.4924 22.4937C62.1055 28.1489 62.7525 33.5947 64.1819 36.706C65.8431 40.3205 68.9449 41.7984 71.7472 41.7984C72.2993 41.7984 72.839 41.7412 73.3554 41.6314C75.9494 41.0801 79.4283 35.8939 79.3063 33.4918C79.1362 30.1231 77.1374 24.9655 74.0911 20.0298C71.1039 15.1902 67.9479 11.9039 65.8209 11.4075Z" fill="#F5C371"/>
<path d="M65.9007 11.1422L65.5068 11.2267L73.1386 41.838L73.5324 41.7535L65.9007 11.1422Z" fill="#F9CF88"/>
<path d="M68.7714 22.9511L68.4448 22.7292C68.4695 22.6983 70.9119 19.5985 72.5546 17.5521L72.8787 17.7763C71.2373 19.8215 68.796 22.9202 68.7714 22.9511Z" fill="#F9CF88"/>
<path d="M73.6512 19.1663L68.8696 24.3803L69.1774 24.6235L73.959 19.4095L73.6512 19.1663Z" fill="#F9CF88"/>
<path d="M62.2261 26.584L62.0283 26.9112L70.597 31.3745L70.7948 31.0473L62.2261 26.584Z" fill="#F9CF88"/>
<path d="M78.6814 29.9004L71.8618 36.3488L72.1503 36.6116L78.9699 30.1632L78.6814 29.9004Z" fill="#F9CF88"/>
<path d="M62.6491 31.7398L62.5073 32.0911L71.5864 35.2469L71.7281 34.8956L62.6491 31.7398Z" fill="#F9CF88"/>
<path d="M67.6975 19.8684C66.9951 19.2736 65.1442 17.6974 63.1367 15.8958L63.4177 15.6259C65.4214 17.4228 67.2699 18.9968 67.9711 19.5904L67.6975 19.8684Z" fill="#F9CF88"/>
<path fill-rule="evenodd" clip-rule="evenodd" d="M64.4651 32.7253C63.7244 32.0287 62.9185 31.3299 62.062 30.6367C54.1136 24.2037 41.8532 18.2797 37.3392 19.6157C34.9694 24.9232 44.637 43.6251 52.7481 49.3432C57.8684 52.952 63.3548 52.2611 66.6993 49.4084C67.26 48.9303 67.7603 48.3904 68.1892 47.8013C70.3174 44.873 70.6711 40.6945 67.8047 36.5C66.9765 35.2853 65.8317 34.0099 64.4651 32.7253Z" fill="#FEDEA6"/>
<path d="M60.0392 51.9923C57.508 51.9923 54.9534 51.1322 52.6268 49.493C48.8547 46.8336 44.3727 41.0537 40.9321 34.4068C38.2283 29.1851 35.8155 22.5394 37.1525 19.5436L37.1883 19.4636L37.2782 19.4373C39.4459 18.7956 43.4324 19.7221 48.5022 22.0452C53.2639 24.2277 58.2548 27.3081 62.1946 30.496C63.0646 31.2006 63.8767 31.9064 64.6087 32.5938C66.0333 33.9321 67.1658 35.2121 67.9766 36.3982C70.6298 40.2816 70.7715 44.5825 68.3574 47.9054C67.9224 48.5047 67.4098 49.0572 66.8367 49.5456C65.0819 51.0418 62.7959 51.9088 60.3966 51.9866C60.2783 51.99 60.1588 51.9923 60.0392 51.9923ZM37.4914 19.769C36.4821 22.2214 37.9326 27.7485 41.2956 34.2444C44.7104 40.8398 49.1467 46.5682 52.8708 49.1933C58.0835 52.8674 63.5033 51.8791 66.5632 49.27C67.114 48.7998 67.6045 48.2702 68.0222 47.696C70.3439 44.5013 70.1985 40.3537 67.6353 36.5996C66.8404 35.4363 65.7252 34.1769 64.3216 32.858C63.597 32.1774 62.7922 31.4774 61.9296 30.7797C54.3471 24.6418 42.0831 18.5382 37.4914 19.769Z" fill="#F5C371"/>
<path d="M37.4887 19.4889L37.1904 19.7421L66.5528 49.5361L66.851 49.2828L37.4887 19.4889Z" fill="#F5C371"/>
<path d="M39.63 31.4157L39.6152 31.0405C43.1446 30.9158 48.4596 30.7728 48.5126 30.7717L48.5237 31.1469C48.4707 31.1492 43.1582 31.2921 39.63 31.4157Z" fill="#F5C371"/>
<path d="M50.0926 32.3928L40.6626 33.2956L40.7041 33.6688L50.1341 32.766L50.0926 32.3928Z" fill="#F5C371"/>
<path d="M57.5001 27.4195L56.3511 39.0913L56.7536 39.1254L57.9026 27.4536L57.5001 27.4195Z" fill="#F5C371"/>
<path d="M61.5685 44.0534L49.2456 46.06L49.3155 46.4296L61.6383 44.4229L61.5685 44.0534Z" fill="#F5C371"/>
<path d="M63.0657 31.5943L60.0557 42.8163L60.4479 42.907L63.4579 31.685L63.0657 31.5943Z" fill="#F5C371"/>
<path d="M45.3353 27.959C45.169 26.8357 44.718 23.8686 44.1289 20.596L44.5282 20.5343C45.1185 23.8114 45.5707 26.7831 45.7371 27.9086L45.3353 27.959Z" fill="#F5C371"/>
<path fill-rule="evenodd" clip-rule="evenodd" d="M129.397 93.6073C124.49 92.6991 120.906 94.917 119.612 97.9699C118.595 100.369 121.323 106.064 123.572 107.352C130.317 111.216 147.653 112.489 151.139 109.404C150.851 104.943 137.171 95.0451 129.397 93.6073Z" fill="#FEDEA6"/>
<path d="M142.347 111.319C135.83 111.319 127.656 109.913 123.466 107.512C121.103 106.158 118.374 100.378 119.424 97.9013C120.107 96.2908 121.397 94.9536 123.056 94.1381C124.887 93.2367 127.093 92.9908 129.438 93.4243C133.071 94.0957 138.344 96.7026 143.201 100.226C147.03 103.003 151.179 106.87 151.343 109.396L151.349 109.483L151.281 109.543C149.9 110.76 146.452 111.319 142.347 111.319ZM127.247 93.5913C123.423 93.5913 120.801 95.6754 119.799 98.0386C118.825 100.338 121.472 105.93 123.677 107.193C126.769 108.963 132.483 110.344 138.593 110.797C144.585 111.241 149.288 110.678 150.93 109.328C150.719 107.309 147.678 103.949 142.951 100.52C138.141 97.0309 132.932 94.4526 129.358 93.7915C128.62 93.6542 127.915 93.5913 127.247 93.5913Z" fill="#F5C371"/>
<path d="M119.743 97.7602L119.596 98.1096L151.123 109.546L151.27 109.197L119.743 97.7602Z" fill="#F5C371"/>
<path d="M141.28 111.14C140.389 108.728 139.012 105.109 138.998 105.072L139.379 104.947C139.392 104.984 140.77 108.604 141.662 111.019L141.28 111.14Z" fill="#F5C371"/>
<path d="M137.669 104.336L137.279 104.435L139.216 111.041L139.606 110.943L137.669 104.336Z" fill="#F5C371"/>
<path d="M139.283 97.6749L130.477 101.72L130.656 102.056L139.462 98.0112L139.283 97.6749Z" fill="#F5C371"/>
<path d="M125.341 99.8775L124.945 99.9501L126.829 108.816L127.226 108.743L125.341 99.8775Z" fill="#F5C371"/>
<path d="M134.41 95.1096L126.479 100.285L126.711 100.592L134.643 95.4166L134.41 95.1096Z" fill="#F5C371"/>
<path d="M142.438 106.354L142.346 105.989C143.274 105.786 145.726 105.257 148.453 104.737L148.534 105.104C145.813 105.623 143.365 106.152 142.438 106.354Z" fill="#F5C371"/>
<path fill-rule="evenodd" clip-rule="evenodd" d="M128.535 88.0813C124.312 90.5714 123.37 94.4731 124.707 97.5112C125.759 99.8972 131.969 102.266 134.554 101.755C142.306 100.223 155.787 90.0258 156.012 85.5602C152.483 82.5188 135.225 84.1362 128.535 88.0813Z" fill="#FEDEA6"/>
<path d="M133.734 102.013C130.735 102.013 125.503 99.8115 124.521 97.5822C123.816 95.9796 123.754 94.1861 124.345 92.5321C124.998 90.7065 126.409 89.1131 128.428 87.9235C131.554 86.0796 137.307 84.5823 143.44 84.015C148.276 83.5677 154.154 83.7027 156.151 85.4231L156.22 85.4825L156.215 85.5695C155.984 90.1369 142.448 100.387 134.597 101.938C134.338 101.989 134.048 102.013 133.734 102.013ZM148.071 84.1625C146.66 84.1625 145.117 84.2369 143.479 84.3879C137.405 84.9495 131.721 86.4262 128.645 88.2404C124.367 90.7625 123.68 94.6791 124.896 97.4403C125.903 99.7269 131.979 102.072 134.513 101.571C138.066 100.868 143.225 98.2021 147.98 94.6116C152.642 91.0908 155.624 87.6673 155.806 85.6392C154.604 84.6784 151.8 84.1625 148.071 84.1625Z" fill="#F5C371"/>
<path d="M155.943 85.3205L124.639 97.2724L124.792 97.6193L156.096 85.6674L155.943 85.3205Z" fill="#F5C371"/>
<path d="M150.178 93.1361C147.738 91.9636 144.049 90.2307 144.012 90.2124L144.194 89.8773C144.231 89.8944 147.922 91.6285 150.363 92.8021L150.178 93.1361Z" fill="#F5C371"/>
<path d="M142.507 90.5383L142.298 90.8596L148.616 94.3947L148.824 94.0734L142.507 90.5383Z" fill="#F5C371"/>
<path d="M138.704 84.6754L135.347 93.2463L135.727 93.3745L139.084 84.8036L138.704 84.6754Z" fill="#F5C371"/>
<path d="M130.266 95.2158L130.034 95.5226L137.994 100.724L138.227 100.417L130.266 95.2158Z" fill="#F5C371"/>
<path d="M133.276 85.9598L131.392 94.7865L131.789 94.8594L133.672 86.0327L133.276 85.9598Z" fill="#F5C371"/>
<path d="M147.453 88.9335L147.114 88.7288C147.633 87.9876 149.012 86.0327 150.598 83.9063L150.93 84.1202C149.348 86.2432 147.971 88.1935 147.453 88.9335Z" fill="#F5C371"/>
<path fill-rule="evenodd" clip-rule="evenodd" d="M78.65 47.7499C43.8999 36.0348 26.4875 43.2698 22.4386 67.0904C18.3897 90.9111 42.7861 113.826 78.6502 118.492C107.378 122.229 136.567 105.425 141.393 65.7734C146.22 26.122 113.4 59.4651 78.65 47.7499Z" fill="#F5C371"/>
<path fill-rule="evenodd" clip-rule="evenodd" d="M74.2788 47.5073C73.9608 47.5587 73.6441 47.6159 73.3274 47.6754C72.5153 47.8264 71.7057 47.9911 70.8997 48.1673C69.7697 48.4143 68.6458 48.6843 67.5306 48.9817C66.2588 49.3203 64.9969 49.6943 63.7547 50.1187C62.4263 50.5728 61.104 51.0875 59.8507 51.7006C59.8249 51.7132 59.794 51.704 59.7805 51.68C59.7669 51.656 59.7768 51.6274 59.8027 51.6148C61.0596 50.9983 62.3856 50.4824 63.719 50.0272C64.9624 49.6028 66.228 49.2276 67.501 48.8879C68.6175 48.5905 69.7438 48.3194 70.8751 48.0723C71.6823 47.8962 72.4931 47.7303 73.3065 47.5805C73.6232 47.5221 73.9411 47.4638 74.2603 47.4123C74.2886 47.4078 74.3157 47.4249 74.3207 47.4512C74.3268 47.4775 74.3071 47.5027 74.2788 47.5073Z" fill="white"/>
<path d="M59.8268 51.7316C59.7985 51.7316 59.7714 51.7179 59.7566 51.6927C59.7467 51.6755 59.7443 51.6561 59.7504 51.6366C59.7566 51.6183 59.7701 51.6023 59.7886 51.5932C60.9224 51.0373 62.204 50.518 63.7086 50.0044C64.8843 49.6029 66.1228 49.23 67.4931 48.8651C68.5751 48.5768 69.7113 48.3023 70.8684 48.0495C71.6978 47.8688 72.5161 47.7029 73.301 47.5577C73.5882 47.5039 73.9234 47.4433 74.2549 47.3895C74.2758 47.3861 74.2968 47.3907 74.314 47.4021C74.3313 47.4135 74.3424 47.4307 74.3461 47.449C74.3497 47.4685 74.3448 47.4879 74.3325 47.5039C74.3202 47.5199 74.3017 47.5302 74.282 47.5337C73.9554 47.5863 73.6202 47.648 73.3318 47.7007C72.5481 47.8459 71.7323 48.0106 70.9054 48.1925C69.752 48.4442 68.6182 48.7187 67.5375 49.0069C66.1696 49.3718 64.936 49.7436 63.7641 50.1428C62.2668 50.6541 60.9914 51.1711 59.8638 51.7236C59.8527 51.7282 59.8392 51.7316 59.8268 51.7316ZM74.2696 47.4364C74.2684 47.4364 74.2672 47.4364 74.2647 47.4364C73.9332 47.4902 73.5993 47.5508 73.3121 47.6046C72.5284 47.7498 71.7113 47.9157 70.882 48.0964C69.7261 48.3492 68.5911 48.6237 67.5091 48.912C66.14 49.2769 64.9028 49.6498 63.7284 50.0501C62.2262 50.5637 60.9458 51.0819 59.8145 51.6366C59.8083 51.6389 59.8047 51.6446 59.8022 51.6504C59.7997 51.6561 59.801 51.663 59.8034 51.6687C59.8096 51.6801 59.8256 51.6847 59.8379 51.6778C60.968 51.1242 62.2459 50.606 63.7456 50.0936C64.9188 49.6932 66.1536 49.3215 67.5227 48.9566C68.6047 48.6684 69.7384 48.3938 70.8931 48.1422C71.7212 47.9615 72.5382 47.7956 73.322 47.6503C73.6104 47.5966 73.9455 47.5359 74.2733 47.4822C74.2795 47.481 74.2857 47.4776 74.2894 47.473C74.2931 47.4685 74.2943 47.4616 74.2931 47.4559C74.2918 47.4502 74.2881 47.4444 74.2832 47.441C74.2795 47.4376 74.2746 47.4364 74.2696 47.4364Z" fill="white"/>
<path fill-rule="evenodd" clip-rule="evenodd" d="M105.558 36.9095C108.283 32.5137 110.119 27.9051 110.685 26.4055C110.867 24.6909 107.778 19.221 107.778 19.221C105.074 19.3537 95.6811 19.7483 91.6145 19.0803C91.6145 19.0803 89.0784 17.7157 87.0943 19.2508C85.1103 20.7858 88.5275 22.9008 88.5275 22.9008L74.2695 47.4592C82.3536 56.1913 89.262 51.4158 89.262 51.4158L91.3199 45.6851C96.0311 47.5507 100.285 44.2095 103.614 39.7703C104.201 38.9044 104.877 37.8966 105.558 36.9095Z" fill="#FDBCA0"/>
<path fill-rule="evenodd" clip-rule="evenodd" d="M95.7846 109.169L91.9077 114.075L109.399 114.143C105.505 111.211 95.7846 109.169 95.7846 109.169Z" fill="#FDBCA0"/>
<path fill-rule="evenodd" clip-rule="evenodd" d="M105.558 36.9095C104.953 37.8863 104.304 38.8518 103.615 39.7714C101.626 42.7065 101.022 44.6968 101.022 45.5158C101.022 46.3348 101.467 48.9828 101.467 48.9828L106.681 48.8799C106.681 48.8799 106.681 46.2662 107.121 44.9702C107.562 43.6742 110.354 32.5549 109.472 32.4176C109.267 32.3856 108.95 32.6075 108.556 33.0021C108.57 33.0101 108.238 33.343 108.043 33.5649C107.315 34.417 106.431 35.6467 105.558 36.9095Z" fill="#FDBCA0"/>
<path fill-rule="evenodd" clip-rule="evenodd" d="M87.9396 10.8607C78.3854 15.9085 59.8267 51.6572 59.8267 51.6572C65.5077 48.873 74.2695 47.4593 74.2695 47.4593L88.5275 22.9008C88.5275 22.9008 85.1102 20.7858 87.0943 19.2508C89.0783 17.7158 91.6144 19.0804 91.6144 19.0804C95.6811 19.7484 105.074 19.3526 107.778 19.2211C107.778 19.2211 110.867 24.6909 110.685 26.4056C110.118 27.9052 108.283 32.5149 105.558 36.9095C107.185 34.5544 108.852 32.3216 109.473 32.4176C110.356 32.5538 107.562 43.6743 107.122 44.9702C106.681 46.2662 106.682 48.8799 106.682 48.8799L107.784 48.8582C107.784 48.8582 108.326 53.5319 108.975 60.2155C109.28 63.3404 109.606 66.9058 109.913 70.6371C110.961 69.38 113.256 66.4094 113.37 64.4122C113.517 61.8203 116.162 40.5355 114.987 26.0739C113.81 11.611 107.122 12.6348 107.122 12.6348C107.122 12.6348 97.4938 5.81287 87.9396 10.8607Z" fill="#3F4553"/>
<path fill-rule="evenodd" clip-rule="evenodd" d="M103.614 39.7714C100.286 44.2107 96.0319 47.5519 91.3207 45.6863L89.2627 51.4169C89.2627 51.4169 97.7251 54.3177 99.6315 58.1371C100.291 52.6203 100.875 48.9954 100.875 48.9954L101.468 48.984C101.468 48.984 101.023 46.3348 101.023 45.517C101.022 44.6968 101.624 42.7065 103.614 39.7714Z" fill="#3F4553"/>
<path fill-rule="evenodd" clip-rule="evenodd" d="M56.299 96.5018C54.8326 96.3805 53.3279 96.2821 51.7875 96.2078C52.7696 95.2206 54.1597 92.7042 55.636 89.6295C55.832 91.7182 56.1363 94.8409 56.299 96.5018ZM57.2196 53.2242C52.2213 57.0447 29.5847 89.7897 37.5221 105.889C37.5221 105.889 43.696 111.62 91.9082 114.076L95.7851 109.17L96.7599 107.937C96.7599 107.937 93.5053 105.822 87.2537 103.377C87.2537 103.377 88.8471 100.129 90.703 96.2352C90.703 96.2352 97.3489 107.665 103.375 110.802C95.3698 103.573 97.7938 73.5115 99.6324 58.1382C97.7273 54.3189 89.2637 51.4181 89.2637 51.4181C89.2637 51.4181 82.3553 56.1937 74.2712 47.4615C74.2712 47.4615 65.5094 48.8753 59.8284 51.6595C58.845 52.1387 57.9553 52.6615 57.2196 53.2242Z" fill="#63A6DC"/>
<path fill-rule="evenodd" clip-rule="evenodd" d="M99.6306 58.1371C97.792 73.5105 95.368 103.572 103.373 110.801C103.373 110.801 109.399 115.439 110.869 101.797C111.595 95.0583 110.851 82.0653 109.912 70.6383C109.605 66.907 109.278 63.3416 108.974 60.2166C108.325 53.5331 107.782 48.8594 107.782 48.8594L106.681 48.8811L101.467 48.9841L100.874 48.9955C100.874 48.9955 100.29 52.6203 99.6306 58.1371Z" fill="#63A6DC"/>
<path fill-rule="evenodd" clip-rule="evenodd" d="M92.1054 67.6732C92.3568 68.4899 92.6058 69.3066 92.8535 70.1245C93.392 71.9031 93.9244 73.6841 94.4432 75.4685C94.9213 77.1077 95.3921 78.7514 95.8271 80.4008C95.9848 81.0013 96.1401 81.6064 96.2744 82.2126C96.32 82.4208 96.3644 82.6301 96.3989 82.8395C96.4198 82.9676 96.4433 83.1106 96.4433 83.241C96.4433 83.3794 96.3853 83.5715 96.3459 83.7054C96.267 83.9685 96.1709 84.2293 96.0736 84.4866C95.7741 85.277 95.4377 86.0606 95.1 86.8372C94.649 87.8724 94.1844 88.9019 93.7136 89.929C93.185 91.0843 92.6477 92.2362 92.1079 93.3858C91.6581 94.3432 91.2046 95.2994 90.7486 96.2545C90.7376 96.2785 90.7067 96.29 90.6796 96.2797C90.6538 96.2694 90.6414 96.2408 90.6525 96.2156C91.1073 95.2605 91.5607 94.3043 92.0106 93.3469C92.5515 92.1973 93.0876 91.0454 93.6163 89.8902C94.0858 88.863 94.5516 87.8347 95.0014 86.7995C95.3391 86.0239 95.6743 85.2416 95.9737 84.4534C96.0711 84.1984 96.166 83.9387 96.2436 83.6791C96.2806 83.5567 96.3373 83.3691 96.3373 83.241C96.3373 83.1163 96.3151 82.9779 96.2941 82.8543C96.2596 82.6462 96.2153 82.438 96.1697 82.2321C96.0366 81.627 95.8813 81.0242 95.7236 80.4237C95.2898 78.7754 94.8178 77.1317 94.3409 75.4937C93.8209 73.7104 93.2897 71.9295 92.7512 70.1508C92.5035 69.3329 92.2558 68.5162 92.0032 67.6995C91.9958 67.6743 92.0118 67.6469 92.0389 67.64C92.0697 67.6332 92.098 67.648 92.1054 67.6732Z" fill="#A7D1F3"/>
<path d="M90.7017 96.3074C90.6906 96.3074 90.6808 96.3051 90.6697 96.3005C90.6303 96.2845 90.6118 96.241 90.629 96.2033C91.1121 95.1909 91.5557 94.253 91.987 93.3345C92.5859 92.0591 93.1121 90.929 93.5928 89.8789C94.1461 88.6699 94.5872 87.6873 94.9779 86.7894C95.286 86.0813 95.6409 85.2578 95.9489 84.4445C96.0414 84.1997 96.1387 83.9366 96.2188 83.6712C96.2558 83.5477 96.3112 83.3635 96.3112 83.24C96.3112 83.1153 96.2878 82.9723 96.2681 82.8568C96.2311 82.6361 96.1855 82.4187 96.1449 82.2357C96.0093 81.6249 95.8504 81.0061 95.6988 80.4284C95.2601 78.7618 94.7745 77.0735 94.3161 75.4984C93.8404 73.8639 93.3204 72.1161 92.7264 70.1555C92.4923 69.3823 92.2397 68.5495 91.9784 67.7054C91.9723 67.6871 91.9747 67.6665 91.9858 67.6493C91.9957 67.6322 92.0129 67.6196 92.0326 67.6139C92.0524 67.6082 92.0745 67.6104 92.093 67.6207C92.1115 67.6299 92.1251 67.6459 92.1312 67.6642C92.3974 68.5255 92.6587 69.3868 92.8792 70.1155C93.472 72.0737 93.992 73.8215 94.4689 75.4595C94.9286 77.0358 95.4141 78.7252 95.8528 80.393C96.0056 80.9718 96.1646 81.5929 96.3002 82.2048C96.3408 82.3901 96.3876 82.6097 96.4246 82.8328C96.4431 82.946 96.469 83.1016 96.469 83.2377C96.469 83.3807 96.4098 83.5774 96.3704 83.7078C96.2891 83.9778 96.1917 84.2432 96.0981 84.4902C95.7887 85.3069 95.4326 86.1328 95.1245 86.842C94.7339 87.7411 94.2927 88.7236 93.7382 89.9338C93.2551 90.9873 92.7301 92.1186 92.1312 93.3917C91.6999 94.3079 91.2563 95.247 90.772 96.2604C90.7609 96.2913 90.7325 96.3074 90.7017 96.3074ZM92.0561 67.6631C92.0536 67.6631 92.0511 67.6631 92.0487 67.6642C92.0425 67.6665 92.0363 67.6699 92.0339 67.6756C92.0302 67.6814 92.0302 67.6871 92.0314 67.6928C92.2927 68.5381 92.5453 69.3697 92.7794 70.1441C93.3734 72.1046 93.8934 73.8524 94.3691 75.487C94.8275 77.0621 95.3131 78.7504 95.7518 80.4181C95.9033 80.9958 96.0635 81.6146 96.1979 82.2266C96.2385 82.4107 96.2854 82.628 96.3223 82.85C96.3421 82.9666 96.3655 83.1107 96.3655 83.24C96.3655 83.3704 96.3088 83.558 96.2718 83.6827C96.1905 83.9515 96.0931 84.2157 96.0007 84.4616C95.6914 85.2761 95.3365 86.1008 95.0284 86.8088C94.6378 87.7079 94.1966 88.6893 93.6433 89.8995C93.1614 90.9507 92.6365 92.0808 92.0376 93.3562C91.6063 94.2747 91.1614 95.2127 90.6796 96.225C90.6734 96.2364 90.6796 96.2502 90.6919 96.2559C90.7042 96.2605 90.719 96.2559 90.7252 96.2444C91.2082 95.231 91.6531 94.2919 92.0832 93.3757C92.6808 92.1037 93.207 90.9724 93.6889 89.9189C94.2434 88.7088 94.6834 87.7262 95.0752 86.8271C95.3833 86.1179 95.7394 85.2932 96.0488 84.4777C96.1424 84.2317 96.2398 83.9663 96.3211 83.6987C96.3593 83.5706 96.4172 83.3784 96.4172 83.2411C96.4172 83.1085 96.3913 82.9552 96.3729 82.8442C96.3359 82.6223 96.2891 82.4027 96.2484 82.2185C96.1128 81.6066 95.9539 80.9866 95.8011 80.4078C95.3624 78.7401 94.8768 77.0518 94.4172 75.4756C93.9403 73.8387 93.4202 72.0909 92.8275 70.1326C92.6069 69.404 92.3456 68.5427 92.0795 67.6814C92.0782 67.6756 92.0733 67.6711 92.0671 67.6676C92.0647 67.6642 92.0597 67.6631 92.0561 67.6631Z" fill="#A7D1F3"/>
<path fill-rule="evenodd" clip-rule="evenodd" d="M51.9002 96.1644C57.4198 96.4309 62.9221 97.0395 68.3444 98.03C73.6236 98.9943 78.8462 100.323 83.8889 102.068C85.7632 102.716 87.6167 103.423 89.4356 104.195C90.7961 104.773 92.1393 105.388 93.4554 106.05C94.2885 106.468 95.1129 106.905 95.9176 107.37C96.2096 107.539 96.5066 107.713 96.7888 107.896C96.8012 107.904 96.8086 107.914 96.8098 107.928C96.8123 107.941 96.8086 107.953 96.7999 107.964L91.9495 114.105C91.9323 114.126 91.9002 114.131 91.8768 114.115C91.8534 114.099 91.8485 114.069 91.8657 114.047L96.6853 107.947C96.4179 107.776 96.1382 107.611 95.8621 107.452C95.0599 106.989 94.2367 106.552 93.4061 106.134C92.0925 105.474 90.7505 104.86 89.3924 104.283C87.576 103.511 85.725 102.806 83.8531 102.158C78.8154 100.416 73.5977 99.0892 68.3246 98.125C62.8741 97.1287 57.3434 96.519 51.7942 96.2559C51.7881 96.2571 51.7819 96.2559 51.7758 96.2548C50.2095 96.1804 48.6432 96.1335 47.0757 96.1141C47.0473 96.1141 47.0239 96.0912 47.0239 96.0649C47.0239 96.0386 47.0486 96.0169 47.0769 96.0169C48.6407 96.0363 50.2033 96.0832 51.7659 96.1575C51.9816 95.9379 52.1763 95.6897 52.3562 95.4449C52.6002 95.1109 52.8269 94.7632 53.0438 94.4132C53.6045 93.5061 54.1123 92.5602 54.5966 91.6165C55.1881 90.4635 55.7488 89.2956 56.2922 88.122C56.885 86.8432 57.4592 85.5564 58.0212 84.265C59.3065 81.3127 60.5339 78.3353 61.7255 75.3487C62.2727 73.9749 62.8174 72.5989 63.3436 71.2182C63.3534 71.1931 63.383 71.1793 63.4101 71.1885C63.4372 71.1976 63.452 71.2251 63.4422 71.2503C62.916 72.6309 62.3725 74.0081 61.8241 75.3818C60.6325 78.3696 59.4051 81.347 58.1198 84.3016C57.5578 85.593 56.9836 86.8809 56.3896 88.1598C55.8449 89.3334 55.2842 90.5024 54.6927 91.6565C54.2071 92.6025 53.6982 93.5507 53.1362 94.4601C52.9181 94.8124 52.6914 95.1624 52.4449 95.4987C52.2761 95.7263 52.0962 95.9562 51.9002 96.1644Z" fill="#A7D1F3"/>
<path fill-rule="evenodd" clip-rule="evenodd" d="M91.6032 19.128C91.5983 19.1268 91.5933 19.1257 91.5884 19.1222C91.4553 19.0502 91.3013 18.9873 91.1608 18.9324C90.8157 18.7985 90.451 18.6967 90.0837 18.635C89.0116 18.4542 87.9802 18.6304 87.1286 19.2892C86.77 19.5672 86.5199 19.9184 86.526 20.3645C86.5322 20.8128 86.7959 21.2487 87.083 21.5952C87.3578 21.9281 87.6943 22.2312 88.0418 22.4977C88.2045 22.6236 88.3807 22.7517 88.5569 22.8603C88.5803 22.8752 88.5877 22.9049 88.5717 22.9278C88.5557 22.9496 88.5236 22.9564 88.499 22.9415C88.3191 22.8306 88.1404 22.7002 87.9752 22.5721C87.6216 22.2999 87.2802 21.9922 87.0005 21.6536C86.3252 20.838 86.1157 19.947 87.0621 19.2137C87.937 18.5366 89.0005 18.3536 90.1022 18.5389C90.4769 18.6018 90.849 18.7059 91.2015 18.842C91.3444 18.8969 91.4985 18.961 91.634 19.033C92.1368 19.1154 92.6457 19.1714 93.1535 19.216C93.7598 19.2698 94.3685 19.3064 94.9761 19.3339C96.3526 19.3956 97.734 19.4128 99.1117 19.4093C101.258 19.4048 103.409 19.351 105.554 19.2687C106.291 19.2401 107.029 19.2103 107.766 19.1737C107.774 19.1726 107.78 19.1714 107.787 19.1726C108.031 19.16 108.274 19.1474 108.517 19.1337C108.545 19.1325 108.57 19.152 108.572 19.1794C108.574 19.2057 108.553 19.2286 108.523 19.2309C108.304 19.2435 108.083 19.2549 107.864 19.2664C108.061 19.6175 108.251 19.9733 108.438 20.329C108.871 21.1514 109.285 21.9841 109.664 22.8283C109.961 23.4895 110.246 24.17 110.465 24.8564C110.578 25.2121 110.718 25.6914 110.744 26.1077C110.771 26.0345 110.798 25.9602 110.824 25.887C110.832 25.8618 110.862 25.8481 110.889 25.8561C110.916 25.8641 110.931 25.8915 110.922 25.9167C110.863 26.0848 110.8 26.253 110.736 26.42C110.736 26.4211 110.736 26.4211 110.735 26.4223C110.731 26.4314 110.724 26.4394 110.715 26.4452C110.705 26.4509 110.694 26.4543 110.682 26.4532C110.677 26.4532 110.672 26.452 110.668 26.4497C110.659 26.4463 110.65 26.4394 110.644 26.4314C110.638 26.4223 110.634 26.412 110.635 26.4005C110.657 26.1878 110.628 25.9522 110.59 25.7417C110.537 25.4534 110.455 25.1652 110.365 24.8849C110.146 24.2021 109.864 23.5238 109.568 22.8661C109.19 22.023 108.776 21.1915 108.344 20.3713C108.151 20.003 107.954 19.6347 107.75 19.2721C107.021 19.3087 106.289 19.3384 105.559 19.3659C103.413 19.4482 101.261 19.502 99.113 19.5066C97.734 19.51 96.3501 19.4928 94.9724 19.4311C94.3624 19.4036 93.7524 19.367 93.1448 19.3133C92.631 19.2675 92.1158 19.2115 91.6081 19.128C91.6044 19.128 91.6044 19.128 91.6032 19.128Z" fill="white"/>
<path d="M110.684 26.4788C110.682 26.4788 110.679 26.4788 110.676 26.4788C110.668 26.4776 110.661 26.4765 110.655 26.4742C110.64 26.4685 110.626 26.4593 110.618 26.4456C110.608 26.4319 110.603 26.4147 110.605 26.3987C110.624 26.2237 110.609 26.0155 110.56 25.7467C110.513 25.4951 110.443 25.224 110.337 24.8934C110.149 24.3077 109.904 23.6866 109.541 22.8779C109.193 22.1058 108.794 21.2903 108.318 20.3843C108.16 20.0846 107.952 19.6923 107.732 19.3C107.103 19.3309 106.432 19.3594 105.558 19.3938C103.192 19.4841 101.082 19.5299 99.1103 19.5345C97.5071 19.5379 96.1909 19.5139 94.9685 19.459C94.2907 19.4281 93.693 19.3903 93.1397 19.3411C92.5396 19.2885 92.0503 19.229 91.6005 19.1558H91.5968C91.5894 19.1547 91.5808 19.1513 91.5746 19.1478C91.4305 19.0701 91.2629 19.0026 91.1495 18.9591C90.7983 18.823 90.4372 18.7235 90.0774 18.6628C88.9523 18.473 87.9381 18.6972 87.1445 19.3114C86.7452 19.6202 86.5455 19.9748 86.5517 20.3672C86.5566 20.7389 86.7427 21.1473 87.1025 21.5831C87.3502 21.8828 87.6719 22.1848 88.0576 22.4822C88.256 22.6343 88.4187 22.7498 88.5702 22.8436C88.5875 22.8539 88.5998 22.8711 88.6035 22.8905C88.6072 22.91 88.6035 22.9294 88.5924 22.9454C88.5678 22.9786 88.5185 22.9877 88.4828 22.966C88.3262 22.8688 88.1587 22.751 87.9566 22.5954C87.561 22.2911 87.2319 21.9811 86.9769 21.6723C86.1771 20.7058 86.1993 19.8502 87.0422 19.1982C87.8728 18.5553 88.9313 18.3208 90.1045 18.5176C90.4754 18.5805 90.8476 18.6823 91.2086 18.823C91.3886 18.8928 91.5266 18.9534 91.64 19.014C92.0811 19.0861 92.563 19.1444 93.1533 19.1959C93.7016 19.2439 94.2981 19.2828 94.9746 19.3126C96.1934 19.3675 97.5071 19.3903 99.1078 19.388C101.077 19.3835 103.184 19.3377 105.549 19.2474C106.436 19.213 107.118 19.1844 107.761 19.1524C107.766 19.1501 107.777 19.1501 107.787 19.1513C108.025 19.1387 108.268 19.1261 108.512 19.1124C108.533 19.1112 108.554 19.1181 108.568 19.1307C108.584 19.1433 108.594 19.1616 108.595 19.181C108.598 19.221 108.565 19.2565 108.522 19.2588C108.316 19.2702 108.11 19.2817 107.903 19.292C108.067 19.5848 108.239 19.9051 108.457 20.3214C108.934 21.2285 109.335 22.0463 109.684 22.823C110.05 23.6374 110.297 24.2643 110.486 24.8534C110.583 25.1565 110.711 25.5911 110.755 25.9892C110.767 25.9537 110.78 25.9183 110.793 25.8828C110.799 25.8645 110.814 25.8496 110.832 25.8405C110.851 25.8313 110.873 25.8302 110.893 25.8359C110.912 25.8416 110.928 25.8554 110.938 25.8725C110.948 25.8897 110.949 25.9103 110.943 25.9286C110.883 26.099 110.819 26.2706 110.757 26.4319C110.75 26.449 110.74 26.4605 110.725 26.4696C110.715 26.4742 110.7 26.4788 110.684 26.4788ZM107.764 19.2462L107.772 19.2611C107.997 19.6591 108.207 20.0583 108.368 20.3615C108.843 21.2674 109.244 22.0841 109.591 22.8573C109.956 23.6683 110.201 24.2917 110.39 24.8785C110.496 25.2114 110.567 25.4848 110.614 25.7387C110.665 26.0132 110.679 26.2237 110.661 26.4044C110.661 26.4101 110.662 26.4147 110.665 26.4193C110.667 26.4239 110.672 26.4261 110.677 26.4284L110.684 26.4296C110.692 26.4296 110.697 26.4284 110.7 26.4261C110.705 26.4239 110.708 26.4193 110.71 26.4147C110.772 26.2523 110.836 26.0818 110.896 25.9103C110.899 25.9045 110.897 25.8977 110.895 25.892C110.893 25.8862 110.886 25.8817 110.88 25.8805C110.874 25.8782 110.867 25.8794 110.86 25.8817C110.854 25.884 110.849 25.8897 110.848 25.8954C110.822 25.9697 110.795 26.043 110.768 26.1173L110.724 26.2374L110.716 26.1104C110.69 25.6872 110.545 25.1965 110.439 24.8648C110.25 24.2769 110.004 23.6523 109.639 22.839C109.291 22.0635 108.89 21.2468 108.414 20.3409C108.188 19.9085 108.01 19.5802 107.841 19.2782L107.822 19.2439L107.863 19.2416C108.083 19.2302 108.303 19.2188 108.523 19.2062C108.536 19.205 108.547 19.1947 108.546 19.181C108.546 19.1753 108.543 19.1696 108.538 19.165C108.533 19.1604 108.526 19.1581 108.519 19.1593C108.276 19.173 108.032 19.1856 107.79 19.1982C107.781 19.197 107.777 19.197 107.775 19.1982C107.127 19.2313 106.445 19.2599 105.557 19.2942C103.191 19.3846 101.083 19.4304 99.1128 19.4349C97.5107 19.4384 96.1959 19.4144 94.9759 19.3594C94.2981 19.3286 93.7016 19.2908 93.152 19.2416C92.558 19.189 92.075 19.1307 91.6301 19.0586L91.6215 19.0552C91.5093 18.9957 91.3725 18.9351 91.1926 18.8653C90.834 18.7269 90.4668 18.6251 90.0996 18.5633C88.9424 18.3677 87.8986 18.5999 87.0816 19.2325C86.0501 20.0309 86.4815 20.9803 87.0237 21.6369C87.2763 21.9423 87.6029 22.25 87.9948 22.5519C88.1956 22.7063 88.362 22.8242 88.516 22.9191C88.5271 22.926 88.5431 22.9237 88.5505 22.9122C88.5542 22.9065 88.5555 22.9008 88.5542 22.8951C88.553 22.8894 88.5493 22.8836 88.5431 22.8802C88.3903 22.7853 88.2252 22.6697 88.0256 22.5153C87.6361 22.2156 87.312 21.9102 87.0619 21.6083C86.6934 21.1633 86.5049 20.7446 86.4999 20.3626C86.4938 19.9554 86.7008 19.5871 87.1124 19.2679C87.9183 18.6445 88.9473 18.4169 90.0897 18.6091C90.4532 18.6697 90.818 18.7715 91.1729 18.9088C91.2875 18.9534 91.4576 19.0209 91.6042 19.1009C91.6067 19.1021 91.6092 19.1032 91.6116 19.1032C92.0614 19.1776 92.5482 19.2359 93.1471 19.2885C93.6992 19.3366 94.2969 19.3755 94.9734 19.4063C96.1946 19.4613 97.5107 19.4853 99.1128 19.4818C101.084 19.4773 103.193 19.4315 105.558 19.3411C106.439 19.308 107.114 19.2782 107.748 19.2474L107.764 19.2462Z" fill="#F0A38B"/>
<path fill-rule="evenodd" clip-rule="evenodd" d="M99.5953 57.9587C99.8443 55.8906 100.114 53.8248 100.409 51.7625C100.541 50.8371 100.675 49.9106 100.824 48.9875C100.828 48.9635 100.849 48.9463 100.875 48.9463L101.407 48.936C101.307 48.3412 101.216 47.743 101.133 47.1459C101.091 46.8371 101.051 46.5271 101.019 46.2182C100.994 45.9883 100.969 45.747 100.969 45.5159C100.969 45.2402 101.029 44.9417 101.096 44.6752C101.204 44.2497 101.355 43.8287 101.523 43.4204C101.756 42.8576 102.028 42.3074 102.322 41.771C102.703 41.0789 103.123 40.4041 103.57 39.7463C103.584 39.7235 103.618 39.7166 103.641 39.7315C103.666 39.7452 103.673 39.7761 103.657 39.7978C103.213 40.4532 102.794 41.1247 102.415 41.8144C102.122 42.3486 101.85 42.8954 101.619 43.4547C101.452 43.8585 101.302 44.276 101.196 44.6969C101.131 44.9566 101.072 45.2483 101.072 45.5159C101.072 45.7435 101.096 45.9815 101.12 46.2079C101.152 46.5168 101.192 46.8256 101.234 47.1333C101.317 47.7338 101.408 48.3355 101.509 48.9337L107.779 48.8102C107.806 48.8102 107.83 48.8285 107.832 48.8537C107.955 49.9163 108.071 50.9801 108.186 52.0439C108.48 54.7651 108.759 57.4886 109.024 60.2121C109.362 63.6837 109.676 67.1587 109.962 70.6337C109.964 70.66 109.942 70.684 109.914 70.6852C109.885 70.6875 109.859 70.6669 109.858 70.6406C109.572 67.1655 109.258 63.6917 108.92 60.2201C108.655 57.4966 108.377 54.7731 108.082 52.0519C107.969 51.003 107.854 49.954 107.734 48.9063L100.916 49.0413C100.77 49.9506 100.638 50.8634 100.508 51.7739C100.208 53.8866 99.9318 56.0027 99.6779 58.1211C99.6828 58.1349 99.6804 58.1486 99.673 58.16C99.6422 58.414 99.6126 58.669 99.583 58.923C99.1899 62.2744 98.8498 65.6328 98.5725 68.9946C98.2558 72.8356 98.0217 76.6858 97.9058 80.5371C97.8109 83.717 97.7974 86.9038 97.9157 90.0837C97.9724 91.5936 98.0599 93.1046 98.1893 94.6111C98.3113 96.0248 98.469 97.4364 98.681 98.8399C98.8744 100.124 99.1135 101.406 99.4204 102.671C99.6927 103.795 100.021 104.915 100.436 106.003C101.078 107.686 102.011 109.505 103.407 110.767C103.428 110.785 103.428 110.816 103.408 110.835C103.388 110.855 103.355 110.855 103.334 110.837C101.926 109.565 100.985 107.734 100.337 106.036C99.9207 104.945 99.5917 103.821 99.3181 102.692C99.0112 101.424 98.7722 100.14 98.5774 98.8536C98.3655 97.4478 98.2065 96.034 98.0858 94.6191C97.9564 93.1115 97.8689 91.5993 97.8122 90.0883C97.6926 86.9072 97.7074 83.7182 97.8023 80.536C97.9169 76.6835 98.1523 72.8322 98.469 68.9888C98.7463 65.6259 99.0852 62.2664 99.4795 58.9138C99.5103 58.6553 99.5411 58.3968 99.5719 58.1383C98.8288 56.6662 97.1516 55.4056 95.7259 54.5192C94.358 53.6681 92.8718 52.9361 91.377 52.2978C90.873 52.0828 90.3628 51.8769 89.8489 51.6824C89.648 51.6069 89.4459 51.5314 89.2426 51.4616C89.2155 51.4525 89.2019 51.425 89.2118 51.3999L91.2599 45.6966C91.0788 45.4953 90.9062 45.2746 90.7436 45.0618C90.2987 44.4796 89.8908 43.8676 89.5174 43.2419C88.3048 41.2093 87.436 38.9788 87.0047 36.6888C86.9998 36.6625 87.0183 36.6374 87.0466 36.6328C87.0749 36.6282 87.1021 36.6454 87.107 36.6717C87.5371 38.9502 88.4022 41.1716 89.6086 43.1939C89.9795 43.815 90.385 44.4247 90.8286 45.0046C90.995 45.2219 91.1724 45.4496 91.3585 45.6532C91.3647 45.66 91.3684 45.6669 91.3696 45.6749C91.3708 45.6829 91.3708 45.6909 91.3684 45.7001L89.3264 51.3861C89.5149 51.4513 89.7023 51.5211 89.8883 51.592C90.4034 51.7865 90.9149 51.9935 91.4213 52.2086C92.9223 52.8491 94.4134 53.5835 95.785 54.4368C97.1849 55.3084 98.8116 56.5277 99.5953 57.9587Z" fill="#F0A38B"/>
<path d="M103.373 110.874C103.352 110.874 103.332 110.867 103.317 110.854C102.118 109.77 101.136 108.198 100.314 106.044C99.9297 105.035 99.5957 103.94 99.295 102.698C99.0079 101.512 98.7651 100.255 98.5544 98.857C98.3535 97.5256 98.1921 96.1404 98.0615 94.6202C97.937 93.1778 97.8483 91.6954 97.7879 90.0882C97.677 87.1383 97.6733 84.0133 97.778 80.5348C97.8865 76.894 98.1046 73.117 98.4447 68.9865C98.7134 65.7243 99.0535 62.3339 99.4552 58.9115C99.4848 58.6553 99.5156 58.3991 99.5464 58.1428C98.9475 56.9624 97.6585 55.7511 95.7139 54.5397C94.4594 53.7585 93.0373 53.0333 91.3687 52.3207C90.8524 52.0999 90.3385 51.8929 89.8419 51.7064C89.6595 51.6378 89.4463 51.5577 89.2368 51.4856C89.1962 51.4719 89.1752 51.4296 89.19 51.3918L91.2332 45.7012C91.0545 45.5022 90.8832 45.2826 90.7242 45.0755C90.2991 44.5196 89.8863 43.9065 89.4968 43.2534C88.2559 41.1739 87.4105 38.9662 86.9817 36.6923C86.978 36.6728 86.9829 36.6534 86.9952 36.6373C87.0075 36.6213 87.026 36.611 87.0457 36.6076C87.0889 36.6007 87.1295 36.6271 87.1369 36.6671C87.5621 38.9239 88.4025 41.1167 89.6349 43.1813C90.0218 43.8299 90.4309 44.4373 90.8536 44.9897C91.0188 45.2059 91.1974 45.4335 91.3823 45.6371C91.3909 45.6463 91.3971 45.6577 91.3995 45.6703C91.402 45.6829 91.402 45.6966 91.3971 45.7081L89.3637 51.3713C89.5338 51.4307 89.7026 51.4937 89.9023 51.568C90.4001 51.7556 90.9165 51.9638 91.4353 52.1857C93.1112 52.9006 94.5407 53.6304 95.8026 54.4162C97.6597 55.5715 98.9303 56.7336 99.5797 57.8729C99.8311 55.7865 100.102 53.7299 100.383 51.759C100.503 50.9194 100.643 49.9449 100.798 48.984C100.805 48.9486 100.837 48.9223 100.875 48.9211L101.376 48.9108C101.279 48.3298 101.189 47.7373 101.108 47.1482C101.056 46.7764 101.022 46.4905 100.993 46.2194C100.971 46.0123 100.944 45.7538 100.944 45.5148C100.944 45.2814 100.985 45.0126 101.071 44.6683C101.167 44.2851 101.307 43.8745 101.498 43.4101C101.715 42.885 101.978 42.344 102.299 41.7584C102.661 41.0995 103.07 40.4372 103.548 39.7315C103.559 39.7154 103.576 39.704 103.597 39.6994C103.618 39.6949 103.639 39.6983 103.656 39.7086C103.675 39.7189 103.687 39.7349 103.691 39.7543C103.696 39.7738 103.692 39.7932 103.681 39.8092C103.205 40.5104 102.8 41.1693 102.44 41.8247C102.121 42.4069 101.861 42.9422 101.645 43.4627C101.457 43.9202 101.319 44.3252 101.224 44.7015C101.14 45.0355 101.1 45.294 101.1 45.5148C101.1 45.747 101.126 45.9906 101.148 46.2045C101.177 46.4722 101.213 46.757 101.263 47.1287C101.344 47.7224 101.436 48.3206 101.534 48.9074L107.781 48.7839C107.821 48.7827 107.857 48.8113 107.861 48.8491C107.989 49.9586 108.111 51.0773 108.215 52.0393C108.5 54.6861 108.783 57.4348 109.053 60.2086C109.401 63.7992 109.717 67.3051 109.99 70.6314C109.992 70.6508 109.985 70.6703 109.972 70.6851C109.958 70.7 109.939 70.7092 109.918 70.7103C109.897 70.7115 109.876 70.7057 109.86 70.6931C109.844 70.6806 109.834 70.6623 109.833 70.6428C109.559 67.3154 109.244 63.8095 108.895 60.2224C108.625 57.4462 108.343 54.6987 108.057 52.0553C107.956 51.115 107.836 50.0215 107.711 48.9337L100.941 49.0676C100.791 50.0055 100.653 50.9583 100.537 51.7796C100.246 53.8202 99.9666 55.9535 99.7066 58.1211C99.7103 58.1371 99.7091 58.1543 99.7005 58.1692C99.6697 58.4219 99.6401 58.6747 99.6105 58.9275C99.2088 62.3499 98.8687 65.738 98.6 68.998C98.2599 73.1261 98.043 76.9008 97.9345 80.5394C97.831 84.0144 97.8347 87.1371 97.9444 90.0837C98.0048 91.6885 98.0935 93.1698 98.218 94.6099C98.3486 96.1266 98.5088 97.5095 98.7097 98.8376C98.9204 100.231 99.1619 101.483 99.4478 102.666C99.7473 103.903 100.08 104.991 100.462 105.995C101.264 108.097 102.261 109.696 103.427 110.748C103.442 110.762 103.45 110.78 103.45 110.8C103.45 110.819 103.443 110.838 103.428 110.853C103.415 110.866 103.395 110.874 103.373 110.874C103.374 110.874 103.374 110.874 103.373 110.874ZM87.0568 36.6579C87.0556 36.6579 87.0544 36.6579 87.0519 36.6579C87.0458 36.6591 87.0396 36.6625 87.0359 36.6671C87.0322 36.6728 87.031 36.6785 87.0322 36.6842C87.4598 38.9525 88.304 41.1544 89.5424 43.2293C89.9306 43.8802 90.3434 44.4922 90.7674 45.0469C90.9276 45.2574 91.1013 45.4793 91.2825 45.6806L91.2923 45.6909L91.2874 45.7046L89.2393 51.4079C89.2344 51.4204 89.2417 51.433 89.2541 51.4376C89.4648 51.5097 89.678 51.5897 89.8604 51.6584C90.357 51.846 90.8721 52.053 91.3897 52.2738C93.0619 52.9864 94.4853 53.7139 95.7435 54.4963C97.7004 55.7145 98.9968 56.9349 99.5982 58.1257L99.6019 58.1326L99.6007 58.1394C99.5698 58.3979 99.539 58.6564 99.5082 58.9149C99.1065 62.3373 98.7664 65.7266 98.4977 68.9888C98.1576 73.1181 97.9395 76.8951 97.831 80.5348C97.7275 84.0121 97.7312 87.136 97.8409 90.0848C97.9013 91.6919 97.9912 93.1732 98.1145 94.6156C98.2451 96.1335 98.4053 97.5187 98.6062 98.849C98.8169 100.246 99.0584 101.5 99.3468 102.685C99.6475 103.925 99.9802 105.019 100.365 106.025C101.183 108.171 102.161 109.738 103.354 110.816C103.359 110.821 103.364 110.825 103.373 110.823C103.379 110.823 103.386 110.821 103.39 110.816C103.395 110.811 103.397 110.806 103.397 110.799C103.397 110.793 103.395 110.786 103.39 110.783C102.202 109.71 101.229 108.148 100.413 106.009C100.03 105.004 99.6968 103.913 99.3961 102.675C99.109 101.491 98.8674 100.238 98.6567 98.8421C98.4558 97.513 98.2956 96.1289 98.165 94.611C98.0418 93.1698 97.9518 91.6885 97.8914 90.0825C97.7805 87.1348 97.7768 84.011 97.8816 80.5348C97.99 76.8962 98.2081 73.1204 98.5482 68.9911C98.8169 65.73 99.157 62.3419 99.5587 58.9184C99.5883 58.6644 99.6191 58.4094 99.6487 58.1554L99.6524 58.1451C99.6561 58.1394 99.6573 58.1325 99.6549 58.1268L99.6536 58.1223L99.6549 58.1165C99.9149 55.9467 100.195 53.8111 100.485 51.7693C100.604 50.9423 100.742 49.9803 100.893 49.0355L100.897 49.0149H100.919L107.761 48.88L107.764 48.9028C107.89 49.9998 108.01 51.1013 108.112 52.0484C108.398 54.6919 108.68 57.4405 108.95 60.2166C109.299 63.8038 109.615 67.3108 109.888 70.6382C109.888 70.644 109.892 70.6497 109.897 70.6543C109.902 70.6588 109.908 70.66 109.915 70.66C109.921 70.66 109.928 70.6565 109.932 70.652C109.937 70.6474 109.939 70.6417 109.939 70.6348C109.665 67.3097 109.35 63.8026 109.001 60.2132C108.731 57.4394 108.449 54.6919 108.163 52.045C108.059 51.083 107.937 49.9643 107.809 48.8548C107.808 48.8422 107.797 48.8353 107.783 48.8342L101.489 48.9589L101.485 48.9372C101.385 48.3435 101.293 47.7373 101.21 47.1356C101.158 46.7638 101.124 46.4779 101.095 46.2102C101.073 45.994 101.047 45.7492 101.047 45.5148C101.047 45.2894 101.087 45.0275 101.172 44.69C101.267 44.3114 101.406 43.9042 101.596 43.4444C101.811 42.9228 102.073 42.3852 102.393 41.8018C102.753 41.1464 103.16 40.4853 103.637 39.7829C103.64 39.7772 103.641 39.7715 103.64 39.7658C103.639 39.7601 103.635 39.7543 103.629 39.7509C103.623 39.7475 103.617 39.7463 103.611 39.7475C103.604 39.7486 103.598 39.752 103.595 39.7578C103.118 40.4624 102.71 41.1235 102.349 41.7801C102.027 42.3646 101.766 42.9034 101.55 43.4272C101.359 43.8882 101.22 44.2977 101.124 44.6786C101.038 45.0195 100.998 45.2848 100.998 45.5136C100.998 45.7504 101.025 46.0066 101.047 46.2136C101.076 46.4836 101.111 46.7696 101.162 47.1413C101.245 47.7395 101.336 48.3412 101.434 48.9314L101.439 48.96L100.876 48.9715C100.864 48.9715 100.854 48.9795 100.851 48.9909C100.696 49.9517 100.556 50.9263 100.436 51.7659C100.152 53.7619 99.8779 55.846 99.6228 57.961L99.613 58.0445L99.5723 57.9701C98.9389 56.816 97.661 55.6344 95.7718 54.4597C94.5124 53.675 93.0854 52.9475 91.4119 52.2337C90.8931 52.013 90.3779 51.8048 89.8801 51.6172C89.6718 51.5383 89.4968 51.4731 89.3194 51.4124L89.2947 51.4044L89.3034 51.3816L91.3441 45.6932C91.3453 45.6898 91.3453 45.6852 91.3453 45.6818C91.3441 45.6783 91.3429 45.6749 91.3404 45.6715C91.1543 45.4667 90.9744 45.2379 90.8093 45.0206C90.3866 44.467 89.975 43.8573 89.588 43.2076C88.3532 41.1372 87.5103 38.9399 87.084 36.6774C87.0803 36.6659 87.0692 36.6579 87.0568 36.6579Z" fill="#A7D1F3"/>
<path fill-rule="evenodd" clip-rule="evenodd" d="M105.885 25.8177C105.957 25.9962 106.045 26.1758 106.131 26.3485C106.319 26.7214 106.532 27.0931 106.778 27.4363C106.925 27.641 107.086 27.8412 107.27 28.0185C107.29 28.0379 107.288 28.0688 107.269 28.0871C107.248 28.1054 107.214 28.1054 107.195 28.086C107.007 27.9041 106.841 27.6994 106.692 27.49C106.443 27.1423 106.227 26.7671 106.038 26.3897C105.95 26.2147 105.863 26.0328 105.787 25.8521C105.778 25.8269 105.791 25.7994 105.817 25.7891C105.844 25.78 105.874 25.7926 105.885 25.8177Z" fill="#3F4553"/>
<path d="M107.232 28.1935C107.231 28.1935 107.23 28.1935 107.228 28.1935C107.188 28.1924 107.149 28.1775 107.121 28.15C106.949 27.9819 106.78 27.784 106.607 27.5415C106.376 27.2178 106.159 26.8541 105.945 26.4286C105.835 26.2089 105.757 26.0408 105.693 25.8841C105.678 25.8486 105.679 25.8097 105.697 25.7754C105.714 25.7411 105.743 25.7148 105.782 25.7011C105.82 25.6873 105.862 25.6885 105.899 25.7045C105.936 25.7205 105.964 25.748 105.979 25.7834C106.04 25.9333 106.116 26.0957 106.223 26.3084C106.43 26.7214 106.639 27.0725 106.862 27.3837C107.026 27.6113 107.183 27.7977 107.343 27.9533C107.401 28.0105 107.4 28.1009 107.338 28.1546C107.31 28.1798 107.273 28.1935 107.232 28.1935Z" fill="#3F4553"/>
<path fill-rule="evenodd" clip-rule="evenodd" d="M99.3775 23.8092C99.5624 23.8446 99.7484 23.8767 99.9345 23.9076C100.337 23.975 100.744 24.0357 101.15 24.0837C101.415 24.1146 101.682 24.1409 101.949 24.1558C102.159 24.1672 102.386 24.1729 102.594 24.1501C102.622 24.1466 102.648 24.1661 102.652 24.1924C102.655 24.2187 102.635 24.2427 102.606 24.2461C102.392 24.2702 102.159 24.2633 101.943 24.2519C101.673 24.2381 101.403 24.2107 101.136 24.1798C100.728 24.1318 100.32 24.0711 99.9148 24.0036C99.7287 23.9728 99.5414 23.9407 99.3553 23.9053C99.327 23.8996 99.3085 23.8744 99.3147 23.8481C99.3221 23.8206 99.3504 23.8035 99.3775 23.8092Z" fill="#3F4553"/>
<path d="M102.278 24.3559C102.16 24.3559 102.045 24.3513 101.94 24.3456C101.698 24.333 101.44 24.309 101.125 24.2724C100.749 24.2278 100.349 24.1706 99.8992 24.0951C99.7439 24.0688 99.5406 24.0345 99.3372 23.9956C99.2547 23.9796 99.2017 23.9041 99.2177 23.8274C99.2263 23.7897 99.2497 23.7576 99.2842 23.7371C99.3187 23.7165 99.3594 23.7096 99.3988 23.7165C99.5911 23.7531 99.787 23.7862 99.9534 23.8148C100.397 23.8892 100.793 23.9464 101.164 23.9899C101.472 24.0265 101.723 24.0493 101.957 24.0608C102.152 24.0711 102.379 24.0791 102.584 24.0562C102.625 24.0516 102.664 24.0619 102.698 24.0859C102.73 24.11 102.751 24.1431 102.756 24.1809C102.766 24.2587 102.705 24.3296 102.621 24.3387C102.507 24.3513 102.391 24.3559 102.278 24.3559Z" fill="#3F4553"/>
<path fill-rule="evenodd" clip-rule="evenodd" d="M105.152 30.7109C105.156 30.8481 105.172 30.9923 105.19 31.1272C105.23 31.4178 105.296 31.714 105.404 31.9897C105.497 32.2288 105.633 32.4793 105.834 32.6554C105.855 32.6737 105.856 32.7046 105.836 32.724C105.816 32.7435 105.783 32.7446 105.762 32.7263C105.548 32.5387 105.405 32.2779 105.305 32.0229C105.195 31.7415 105.128 31.4372 105.087 31.1398C105.067 31.0014 105.051 30.8538 105.047 30.7132C105.046 30.6868 105.07 30.664 105.098 30.664C105.128 30.6628 105.151 30.6846 105.152 30.7109Z" fill="#3F4553"/>
<path d="M105.798 32.8328C105.76 32.8328 105.723 32.8203 105.694 32.7939C105.498 32.6224 105.335 32.373 105.211 32.055C105.108 31.7931 105.033 31.4888 104.986 31.1525C104.963 30.9798 104.949 30.8414 104.947 30.7167C104.946 30.679 104.96 30.6424 104.989 30.6149C105.017 30.5875 105.055 30.5714 105.096 30.5714C105.137 30.5692 105.176 30.584 105.206 30.6103C105.235 30.6366 105.252 30.6721 105.254 30.7098C105.256 30.8242 105.268 30.9535 105.291 31.1171C105.334 31.4339 105.404 31.7164 105.499 31.9589C105.606 32.2357 105.743 32.4474 105.903 32.5881C105.965 32.6418 105.967 32.7322 105.909 32.7894C105.88 32.818 105.839 32.8328 105.798 32.8328Z" fill="#3F4553"/>
<path fill-rule="evenodd" clip-rule="evenodd" d="M96.6813 27.3996C96.7824 27.4706 96.897 27.538 97.0054 27.5998C97.284 27.7577 97.5785 27.8972 97.8792 28.015C98.7837 28.3719 99.777 28.5503 100.76 28.4474C100.789 28.444 100.815 28.4634 100.818 28.4897C100.822 28.516 100.801 28.54 100.773 28.5435C99.772 28.6487 98.7615 28.468 97.8397 28.1042C97.5341 27.9841 97.2359 27.8423 96.9525 27.6822C96.8415 27.6193 96.7232 27.5495 96.6197 27.4763C96.5963 27.4603 96.5926 27.4294 96.6099 27.4088C96.6259 27.3871 96.6579 27.3836 96.6813 27.3996Z" fill="#3F4553"/>
<path d="M100.204 28.6658C99.4154 28.6658 98.5946 28.5046 97.7986 28.19C97.4831 28.0653 97.1812 27.9212 96.899 27.7611C96.793 27.7004 96.6685 27.6284 96.5576 27.5506C96.4898 27.5025 96.4775 27.4133 96.528 27.3516C96.5527 27.3218 96.5884 27.3024 96.6291 27.2967C96.6698 27.2909 96.7104 27.3012 96.7425 27.3241C96.8423 27.395 96.9581 27.4625 97.0579 27.5186C97.3266 27.6707 97.6162 27.8091 97.9181 27.9281C98.8633 28.3009 99.8417 28.4485 100.747 28.3536C100.788 28.349 100.828 28.3604 100.86 28.3833C100.892 28.4073 100.911 28.4405 100.916 28.4782C100.926 28.556 100.866 28.6269 100.782 28.6361C100.592 28.6567 100.399 28.6658 100.204 28.6658Z" fill="#3F4553"/>
<path fill-rule="evenodd" clip-rule="evenodd" d="M95.3482 38.4113C95.5639 38.5051 95.8152 38.727 95.9668 38.8906C96.4437 39.4042 96.7136 40.0733 96.8467 40.7322C96.8516 40.7585 96.8331 40.7837 96.8048 40.7882C96.7764 40.7928 96.7493 40.7757 96.7444 40.7493C96.6138 40.1076 96.3525 39.4534 95.8879 38.9535C95.7672 38.8231 95.6292 38.7007 95.4788 38.6C95.4271 38.5657 95.363 38.5246 95.3051 38.4994C95.2792 38.4879 95.2681 38.4594 95.2804 38.4353C95.2903 38.4102 95.3223 38.3999 95.3482 38.4113Z" fill="#3F4553"/>
<path d="M96.7966 40.8821C96.7239 40.8821 96.6598 40.8341 96.6463 40.7666C96.5009 40.0517 96.2125 39.4455 95.812 39.0142C95.6863 38.8793 95.5544 38.7649 95.4201 38.6745C95.3782 38.6459 95.3154 38.6059 95.2624 38.583C95.2254 38.567 95.1971 38.5384 95.1835 38.5029C95.17 38.4675 95.1712 38.4286 95.1885 38.3943C95.2057 38.36 95.2365 38.3336 95.2747 38.3211C95.3129 38.3085 95.3548 38.3096 95.3918 38.3256C95.621 38.4251 95.8785 38.6505 96.0437 38.8278C96.4848 39.3036 96.7892 39.9373 96.947 40.7129C96.9544 40.7506 96.9457 40.7883 96.9235 40.8192C96.9001 40.8501 96.8656 40.8718 96.825 40.8787C96.8151 40.8821 96.8052 40.8821 96.7966 40.8821ZM95.3462 38.4137C95.3462 38.4137 95.3474 38.4137 95.3462 38.4137C95.3474 38.4137 95.3462 38.4137 95.3462 38.4137Z" fill="#3F4553"/>
<path fill-rule="evenodd" clip-rule="evenodd" d="M102.871 32.6362C102.625 33.3728 102.366 34.1095 102.095 34.8392C101.914 35.3277 101.725 35.8218 101.513 36.2988C101.441 36.4624 101.363 36.6316 101.272 36.7861C101.235 36.849 101.151 36.992 101.063 37.0011C100.814 37.0263 100.559 36.9336 100.351 36.8147C99.9494 36.5859 99.5982 36.205 99.3259 35.855C99.3086 35.8332 99.3148 35.8035 99.3369 35.7875C99.3604 35.7715 99.3924 35.7772 99.4097 35.7978C99.6734 36.1364 100.017 36.5104 100.405 36.7312C100.594 36.8375 100.827 36.9268 101.051 36.9039C101.088 36.8924 101.173 36.7506 101.192 36.7186C101.28 36.5653 101.355 36.3994 101.427 36.2382C101.635 35.7692 101.819 35.2842 101.998 34.8049C102.269 34.0763 102.526 33.3408 102.773 32.6053C102.781 32.5801 102.811 32.5653 102.838 32.5733C102.865 32.5836 102.88 32.611 102.871 32.6362Z" fill="#3F4553"/>
<path d="M100.981 37.1006C100.769 37.1006 100.535 37.0308 100.299 36.897C99.9523 36.7002 99.6073 36.3777 99.2437 35.9121C99.2203 35.8812 99.2105 35.8435 99.2166 35.8069C99.2228 35.7691 99.245 35.736 99.2783 35.7142C99.3473 35.6685 99.4422 35.6822 99.4927 35.7463C99.8266 36.1741 100.152 36.4795 100.459 36.6545C100.601 36.7346 100.809 36.8261 101.01 36.8158C101.032 36.7895 101.071 36.7323 101.102 36.6774C101.191 36.5241 101.267 36.3537 101.334 36.2061C101.548 35.7211 101.739 35.2144 101.902 34.7786C102.166 34.0682 102.427 33.3293 102.676 32.5812C102.688 32.5446 102.714 32.5149 102.751 32.4977C102.787 32.4794 102.829 32.476 102.868 32.4874C102.906 32.4989 102.938 32.5229 102.958 32.5572C102.978 32.5904 102.981 32.6293 102.969 32.6659C102.719 33.4162 102.456 34.1586 102.191 34.8712C102.025 35.3208 101.828 35.8412 101.607 36.3365C101.535 36.4989 101.456 36.6716 101.361 36.8329C101.283 36.9633 101.197 37.0834 101.076 37.096C101.044 37.0983 101.013 37.1006 100.981 37.1006Z" fill="#3F4553"/>
<path d="M32.9405 137.573V139H22.9265V137.573H32.9405ZM23.2082 137.573V142.253H21.4725L21.4634 137.573H23.2082ZM34.4672 137.573L34.449 142.244H32.7134V137.573H34.4672ZM31.2231 125.769V127.205H25.4255V125.769H31.2231ZM32.7315 125.769V139H30.9868V125.769H32.7315ZM24.8257 125.769H26.5795L26.3069 131.094C26.2706 131.894 26.1948 132.633 26.0797 133.311C25.9646 133.984 25.8223 134.599 25.6526 135.156C25.483 135.713 25.2891 136.213 25.0711 136.656C24.853 137.092 24.6197 137.47 24.3713 137.791C24.123 138.106 23.8625 138.367 23.5898 138.573C23.3233 138.773 23.0537 138.915 22.7811 139H21.9814V137.573H22.5448C22.7023 137.404 22.881 137.158 23.081 136.837C23.2869 136.516 23.4899 136.101 23.6898 135.592C23.8958 135.077 24.0745 134.45 24.2259 133.711C24.3835 132.972 24.4895 132.1 24.544 131.094L24.8257 125.769ZM42.9455 133.43V134.793H37.7476V133.43H42.9455ZM38.102 129.168V139H36.4209V129.168H38.102ZM44.3086 129.168V139H42.6184V129.168H44.3086ZM51.0967 139.182C50.4121 139.182 49.7912 139.067 49.2338 138.836C48.6825 138.6 48.207 138.27 47.8071 137.846C47.4134 137.422 47.1105 136.919 46.8984 136.337C46.6864 135.756 46.5804 135.12 46.5804 134.429V134.047C46.5804 133.248 46.6985 132.536 46.9348 131.912C47.171 131.282 47.4921 130.749 47.898 130.313C48.3039 129.876 48.7643 129.546 49.2793 129.322C49.7942 129.098 50.3273 128.986 50.8786 128.986C51.5813 128.986 52.1872 129.107 52.696 129.349C53.211 129.592 53.632 129.931 53.9592 130.367C54.2863 130.797 54.5286 131.306 54.6861 131.894C54.8436 132.475 54.9224 133.112 54.9224 133.802V134.556H47.58V133.184H53.2413V133.057C53.217 132.621 53.1262 132.197 52.9687 131.785C52.8172 131.373 52.5749 131.034 52.2417 130.767C51.9085 130.5 51.4541 130.367 50.8786 130.367C50.4969 130.367 50.1456 130.449 49.8245 130.613C49.5034 130.77 49.2278 131.006 48.9976 131.321C48.7674 131.636 48.5886 132.021 48.4614 132.475C48.3342 132.93 48.2706 133.454 48.2706 134.047V134.429C48.2706 134.896 48.3342 135.335 48.4614 135.747C48.5947 136.153 48.7855 136.51 49.0339 136.819C49.2884 137.128 49.5943 137.37 49.9517 137.546C50.3152 137.722 50.7272 137.81 51.1876 137.81C51.7813 137.81 52.2841 137.688 52.696 137.446C53.108 137.204 53.4685 136.88 53.7774 136.474L54.7952 137.283C54.5831 137.604 54.3136 137.91 53.9864 138.2C53.6593 138.491 53.2564 138.727 52.7778 138.909C52.3053 139.091 51.7449 139.182 51.0967 139.182ZM61.5015 134.675H58.2756L58.2574 133.33H60.8927C61.4137 133.33 61.8468 133.278 62.1921 133.175C62.5435 133.072 62.807 132.918 62.9827 132.712C63.1584 132.506 63.2462 132.251 63.2462 131.948C63.2462 131.712 63.1947 131.506 63.0918 131.33C62.9948 131.149 62.8464 131 62.6465 130.885C62.4466 130.764 62.1982 130.676 61.9013 130.622C61.6106 130.561 61.2683 130.531 60.8745 130.531H58.7208V139H57.0397V129.168H60.8745C61.4985 129.168 62.0589 129.222 62.5556 129.331C63.0584 129.44 63.4855 129.607 63.8369 129.831C64.1943 130.049 64.467 130.328 64.6548 130.667C64.8426 131.006 64.9365 131.406 64.9365 131.867C64.9365 132.163 64.8759 132.445 64.7547 132.712C64.6336 132.978 64.4548 133.215 64.2186 133.42C63.9823 133.626 63.6915 133.796 63.3462 133.929C63.0009 134.057 62.6041 134.138 62.1558 134.175L61.5015 134.675ZM61.5015 139H57.6667L58.5027 137.637H61.5015C61.968 137.637 62.3557 137.579 62.6647 137.464C62.9736 137.343 63.2038 137.173 63.3553 136.955C63.5128 136.731 63.5916 136.465 63.5916 136.156C63.5916 135.847 63.5128 135.583 63.3553 135.365C63.2038 135.141 62.9736 134.971 62.6647 134.856C62.3557 134.735 61.968 134.675 61.5015 134.675H58.948L58.9662 133.33H62.1558L62.7646 133.838C63.3038 133.881 63.7612 134.014 64.1368 134.238C64.5124 134.462 64.7971 134.747 64.991 135.093C65.1848 135.432 65.2818 135.801 65.2818 136.201C65.2818 136.662 65.1939 137.067 65.0182 137.419C64.8486 137.77 64.6002 138.064 64.2731 138.3C63.946 138.53 63.5491 138.706 63.0827 138.827C62.6162 138.942 62.0891 139 61.5015 139ZM74.2054 133.43V134.793H69.0075V133.43H74.2054ZM69.3619 129.168V139H67.6808V129.168H69.3619ZM75.5684 129.168V139H73.8782V129.168H75.5684ZM80.0939 136.337L84.6283 129.168H86.3186V139H84.6283V131.83L80.0939 139H78.4218V129.168H80.0939V136.337ZM90.844 129.168V139H89.1628V129.168H90.844ZM97.2959 129.168L92.6341 134.802H90.2806L90.0261 133.33H91.9526L95.2512 129.168H97.2959ZM95.4875 139L91.8708 134.547L92.9522 133.33L97.623 139H95.4875ZM28.9513 153.43V154.793H23.7534V153.43H28.9513ZM24.1078 149.168V159H22.4267V149.168H24.1078ZM30.3143 149.168V159H28.6241V149.168H30.3143ZM38.8199 157.319V152.257C38.8199 151.87 38.7412 151.533 38.5837 151.249C38.4322 150.958 38.202 150.734 37.893 150.576C37.5841 150.419 37.2024 150.34 36.7481 150.34C36.324 150.34 35.9514 150.413 35.6303 150.558C35.3153 150.703 35.0669 150.894 34.8852 151.131C34.7095 151.367 34.6217 151.621 34.6217 151.894H32.9405C32.9405 151.542 33.0314 151.194 33.2132 150.849C33.3949 150.503 33.6554 150.192 33.9947 149.913C34.34 149.628 34.7519 149.404 35.2305 149.24C35.7152 149.071 36.2543 148.986 36.848 148.986C37.5629 148.986 38.1929 149.107 38.7382 149.349C39.2894 149.592 39.7196 149.958 40.0285 150.449C40.3436 150.934 40.5011 151.542 40.5011 152.275V156.855C40.5011 157.183 40.5283 157.531 40.5828 157.9C40.6434 158.27 40.7313 158.588 40.8464 158.855V159H39.0926C39.0077 158.806 38.9411 158.549 38.8926 158.228C38.8442 157.9 38.8199 157.598 38.8199 157.319ZM39.1107 153.039L39.1289 154.22H37.4296C36.951 154.22 36.5239 154.26 36.1483 154.338C35.7727 154.411 35.4577 154.523 35.2032 154.675C34.9488 154.826 34.7549 155.017 34.6217 155.247C34.4884 155.471 34.4217 155.735 34.4217 156.038C34.4217 156.347 34.4914 156.628 34.6308 156.883C34.7701 157.137 34.9791 157.34 35.2578 157.492C35.5425 157.637 35.8908 157.71 36.3028 157.71C36.8177 157.71 37.2721 157.601 37.6659 157.382C38.0596 157.164 38.3716 156.898 38.6018 156.583C38.8381 156.268 38.9653 155.962 38.9835 155.665L39.7014 156.474C39.659 156.728 39.5439 157.01 39.3561 157.319C39.1683 157.628 38.9169 157.925 38.6018 158.209C38.2929 158.488 37.9233 158.721 37.4932 158.909C37.0691 159.091 36.5906 159.182 36.0574 159.182C35.391 159.182 34.8064 159.051 34.3036 158.791C33.8068 158.53 33.4191 158.182 33.1405 157.746C32.8678 157.304 32.7315 156.81 32.7315 156.265C32.7315 155.738 32.8345 155.274 33.0405 154.874C33.2465 154.469 33.5433 154.132 33.931 153.866C34.3188 153.593 34.7852 153.387 35.3305 153.248C35.8757 153.108 36.4845 153.039 37.157 153.039H39.1107ZM47.0802 157.8C47.48 157.8 47.8496 157.719 48.1888 157.555C48.5281 157.392 48.8067 157.167 49.0248 156.883C49.2429 156.592 49.3671 156.262 49.3974 155.892H50.9967C50.9665 156.474 50.7696 157.016 50.4061 157.519C50.0486 158.016 49.5791 158.418 48.9976 158.727C48.416 159.03 47.7769 159.182 47.0802 159.182C46.3411 159.182 45.6959 159.051 45.1446 158.791C44.5994 158.53 44.145 158.173 43.7815 157.719C43.4241 157.264 43.1545 156.743 42.9728 156.156C42.7971 155.562 42.7092 154.935 42.7092 154.275V153.893C42.7092 153.233 42.7971 152.609 42.9728 152.021C43.1545 151.427 43.4241 150.903 43.7815 150.449C44.145 149.995 44.5994 149.637 45.1446 149.377C45.6959 149.116 46.3411 148.986 47.0802 148.986C47.8496 148.986 48.522 149.143 49.0975 149.458C49.673 149.767 50.1244 150.192 50.4515 150.731C50.7847 151.264 50.9665 151.87 50.9967 152.548H49.3974C49.3671 152.142 49.252 151.776 49.0521 151.449C48.8582 151.121 48.5917 150.861 48.2524 150.667C47.9192 150.467 47.5285 150.367 47.0802 150.367C46.5652 150.367 46.1321 150.47 45.7807 150.676C45.4354 150.876 45.1598 151.149 44.9538 151.494C44.7539 151.833 44.6085 152.212 44.5176 152.63C44.4328 153.042 44.3904 153.463 44.3904 153.893V154.275C44.3904 154.705 44.4328 155.129 44.5176 155.547C44.6024 155.965 44.7448 156.344 44.9447 156.683C45.1507 157.022 45.4263 157.295 45.7716 157.501C46.123 157.701 46.5592 157.8 47.0802 157.8ZM56.8943 149.168V159H55.2041V149.168H56.8943ZM60.193 149.168V150.531H51.9691V149.168H60.193ZM63.5279 151.058V162.78H61.8377V149.168H63.3826L63.5279 151.058ZM70.1525 154.002V154.193C70.1525 154.908 70.0677 155.571 69.8981 156.183C69.7284 156.789 69.48 157.316 69.1529 157.764C68.8318 158.212 68.435 158.561 67.9625 158.809C67.49 159.058 66.9477 159.182 66.3359 159.182C65.7119 159.182 65.1606 159.079 64.682 158.873C64.2034 158.667 63.7975 158.367 63.4643 157.973C63.1311 157.579 62.8646 157.107 62.6647 156.556C62.4708 156.004 62.3375 155.383 62.2648 154.693V153.675C62.3375 152.948 62.4738 152.297 62.6738 151.721C62.8737 151.146 63.1372 150.655 63.4643 150.249C63.7975 149.837 64.2004 149.525 64.6729 149.313C65.1455 149.095 65.6907 148.986 66.3086 148.986C66.9265 148.986 67.4748 149.107 67.9534 149.349C68.432 149.586 68.8349 149.925 69.162 150.367C69.4891 150.809 69.7345 151.34 69.8981 151.957C70.0677 152.569 70.1525 153.251 70.1525 154.002ZM68.4623 154.193V154.002C68.4623 153.511 68.4108 153.051 68.3078 152.621C68.2048 152.185 68.0443 151.803 67.8262 151.476C67.6141 151.143 67.3415 150.882 67.0083 150.694C66.6751 150.5 66.2783 150.404 65.8179 150.404C65.3938 150.404 65.0243 150.476 64.7093 150.622C64.4003 150.767 64.1368 150.964 63.9187 151.212C63.7006 151.455 63.5219 151.733 63.3826 152.048C63.2493 152.357 63.1493 152.678 63.0827 153.012V155.365C63.2038 155.789 63.3735 156.189 63.5916 156.565C63.8096 156.934 64.1004 157.234 64.4639 157.464C64.8274 157.688 65.2848 157.8 65.8361 157.8C66.2904 157.8 66.6812 157.707 67.0083 157.519C67.3415 157.325 67.6141 157.061 67.8262 156.728C68.0443 156.395 68.2048 156.013 68.3078 155.583C68.4108 155.147 68.4623 154.684 68.4623 154.193ZM71.8518 154.193V153.984C71.8518 153.275 71.9548 152.618 72.1608 152.012C72.3667 151.4 72.6636 150.87 73.0513 150.422C73.439 149.967 73.9085 149.616 74.4598 149.368C75.0111 149.113 75.629 148.986 76.3136 148.986C77.0042 148.986 77.6252 149.113 78.1765 149.368C78.7338 149.616 79.2063 149.967 79.5941 150.422C79.9878 150.87 80.2877 151.4 80.4937 152.012C80.6997 152.618 80.8026 153.275 80.8026 153.984V154.193C80.8026 154.902 80.6997 155.559 80.4937 156.165C80.2877 156.771 79.9878 157.301 79.5941 157.755C79.2063 158.203 78.7368 158.555 78.1855 158.809C77.6403 159.058 77.0224 159.182 76.3318 159.182C75.6411 159.182 75.0202 159.058 74.4689 158.809C73.9176 158.555 73.4451 158.203 73.0513 157.755C72.6636 157.301 72.3667 156.771 72.1608 156.165C71.9548 155.559 71.8518 154.902 71.8518 154.193ZM73.5329 153.984V154.193C73.5329 154.684 73.5905 155.147 73.7056 155.583C73.8207 156.013 73.9933 156.395 74.2235 156.728C74.4598 157.061 74.7536 157.325 75.105 157.519C75.4564 157.707 75.8653 157.8 76.3318 157.8C76.7922 157.8 77.195 157.707 77.5404 157.519C77.8917 157.325 78.1825 157.061 78.4127 156.728C78.6429 156.395 78.8156 156.013 78.9307 155.583C79.0519 155.147 79.1124 154.684 79.1124 154.193V153.984C79.1124 153.499 79.0519 153.042 78.9307 152.612C78.8156 152.176 78.6399 151.791 78.4036 151.458C78.1734 151.118 77.8826 150.852 77.5313 150.658C77.186 150.464 76.7801 150.367 76.3136 150.367C75.8532 150.367 75.4473 150.464 75.0959 150.658C74.7506 150.852 74.4598 151.118 74.2235 151.458C73.9933 151.791 73.8207 152.176 73.7056 152.612C73.5905 153.042 73.5329 153.499 73.5329 153.984ZM86.991 159.182C86.3064 159.182 85.6855 159.067 85.1281 158.836C84.5769 158.6 84.1013 158.27 83.7015 157.846C83.3077 157.422 83.0048 156.919 82.7927 156.337C82.5807 155.756 82.4747 155.12 82.4747 154.429V154.047C82.4747 153.248 82.5928 152.536 82.8291 151.912C83.0654 151.282 83.3864 150.749 83.7923 150.313C84.1982 149.876 84.6586 149.546 85.1736 149.322C85.6885 149.098 86.2216 148.986 86.7729 148.986C87.4757 148.986 88.0815 149.107 88.5904 149.349C89.1053 149.592 89.5263 149.931 89.8535 150.367C90.1806 150.797 90.4229 151.306 90.5804 151.894C90.738 152.475 90.8167 153.112 90.8167 153.802V154.556H83.4743V153.184H89.1356V153.057C89.1114 152.621 89.0205 152.197 88.863 151.785C88.7115 151.373 88.4692 151.034 88.136 150.767C87.8028 150.5 87.3484 150.367 86.7729 150.367C86.3913 150.367 86.0399 150.449 85.7188 150.613C85.3977 150.77 85.1221 151.006 84.8919 151.321C84.6617 151.636 84.483 152.021 84.3557 152.475C84.2285 152.93 84.1649 153.454 84.1649 154.047V154.429C84.1649 154.896 84.2285 155.335 84.3557 155.747C84.489 156.153 84.6798 156.51 84.9282 156.819C85.1827 157.128 85.4886 157.37 85.846 157.546C86.2095 157.722 86.6215 157.81 87.0819 157.81C87.6756 157.81 88.1784 157.688 88.5904 157.446C89.0023 157.204 89.3628 156.88 89.6717 156.474L90.6895 157.283C90.4775 157.604 90.2079 157.91 89.8807 158.2C89.5536 158.491 89.1507 158.727 88.6721 158.909C88.1996 159.091 87.6392 159.182 86.991 159.182ZM99.4495 153.43V154.793H94.2517V153.43H99.4495ZM94.6061 149.168V159H92.9249V149.168H94.6061ZM100.813 149.168V159H99.1224V149.168H100.813ZM105.338 156.337L109.873 149.168H111.563V159H109.873V151.83L105.338 159H103.666V149.168H105.338V156.337ZM116.252 154.311H118.069L115.225 159H113.407L116.252 154.311ZM117.66 149.168H121.768V159H120.086V150.531H117.66C117.182 150.531 116.791 150.613 116.488 150.776C116.185 150.934 115.964 151.14 115.825 151.394C115.685 151.648 115.616 151.912 115.616 152.185C115.616 152.451 115.679 152.709 115.806 152.957C115.934 153.199 116.134 153.399 116.406 153.557C116.679 153.714 117.03 153.793 117.46 153.793H120.541V155.174H117.46C116.897 155.174 116.397 155.099 115.961 154.947C115.525 154.796 115.155 154.587 114.852 154.32C114.549 154.047 114.319 153.729 114.162 153.366C114.004 152.996 113.925 152.597 113.925 152.166C113.925 151.736 114.007 151.34 114.171 150.976C114.34 150.613 114.583 150.294 114.898 150.022C115.219 149.749 115.61 149.54 116.07 149.395C116.536 149.243 117.067 149.168 117.66 149.168Z" fill="#3F414E"/>
</svg>
