<svg width="143" height="170" viewBox="0 0 143 170" fill="none" xmlns="http://www.w3.org/2000/svg">
<rect width="142.348" height="169.428" rx="11.6316" fill="#FFCF86"/>
<path fill-rule="evenodd" clip-rule="evenodd" d="M51.0327 36.9736C52.6735 40.7975 56.0127 42.137 58.8926 41.4816C61.1555 40.9665 64.1013 36.2168 63.9973 34.0233C63.6863 27.4436 56.4526 14.909 52.5159 14.0765C49.3353 16.5291 48.434 30.9152 51.0327 36.9736Z" fill="#FEDEA6"/>
<path d="M57.4798 41.8072C56.4231 41.8072 55.3714 41.5522 54.4197 41.0556C52.886 40.2547 51.6614 38.8661 50.8775 37.0392C49.6632 34.2076 49.1111 29.2736 49.4386 24.1615C49.6961 20.1318 50.6128 15.331 52.4122 13.9423L52.474 13.8942L52.5503 13.9106C56.5776 14.7626 63.8504 27.3504 64.1656 34.0141C64.2748 36.3203 61.2661 41.1119 58.9301 41.6444C58.4532 41.754 57.966 41.8072 57.4798 41.8072ZM52.5585 14.2577C51.1577 15.4221 50.0947 19.2071 49.7765 24.183C49.453 29.246 49.9938 34.1216 51.1886 36.9071C52.577 40.1431 55.1696 41.4662 57.5118 41.4662C57.9732 41.4662 58.4244 41.415 58.8559 41.3167C61.0241 40.8231 63.9318 36.18 63.8298 34.0294C63.6877 31.0135 62.017 26.396 59.4708 21.9772C56.9741 17.6443 54.3363 14.7022 52.5585 14.2577Z" fill="#F5C371"/>
<path d="M52.6251 14.0202L52.2959 14.0959L58.6747 41.5017L59.0038 41.426L52.6251 14.0202Z" fill="#F9CF88"/>
<path d="M55.0244 24.5925L54.7515 24.3939C54.7721 24.3662 56.8135 21.591 58.1865 19.7589L58.4574 19.9597C57.0854 21.7907 55.045 24.5649 55.0244 24.5925Z" fill="#F9CF88"/>
<path d="M59.103 21.2041L55.1064 25.8721L55.3637 26.0898L59.3602 21.4218L59.103 21.2041Z" fill="#F9CF88"/>
<path d="M49.554 27.8451L49.3887 28.138L56.5505 32.1339L56.7159 31.841L49.554 27.8451Z" fill="#F9CF88"/>
<path d="M63.3079 30.8142L57.6079 36.5873L57.849 36.8226L63.549 31.0495L63.3079 30.8142Z" fill="#F9CF88"/>
<path d="M49.9075 32.4609L49.7891 32.7754L57.3775 35.6008L57.496 35.2862L49.9075 32.4609Z" fill="#F9CF88"/>
<path d="M54.127 21.8326C53.5399 21.3001 51.9928 19.889 50.3149 18.276L50.5498 18.0344C52.2246 19.6432 53.7696 21.0523 54.3556 21.5838L54.127 21.8326Z" fill="#F9CF88"/>
<path fill-rule="evenodd" clip-rule="evenodd" d="M51.4249 33.3432C50.8059 32.7196 50.1323 32.0939 49.4164 31.4733C42.7729 25.7139 32.5254 20.4103 28.7525 21.6064C26.7719 26.3581 34.8522 43.1016 41.6317 48.2209C45.9113 51.4518 50.4969 50.8333 53.2923 48.2793C53.761 47.8512 54.1791 47.3679 54.5376 46.8405C56.3164 44.2189 56.612 40.4779 54.2162 36.7227C53.5241 35.6351 52.5672 34.4933 51.4249 33.3432Z" fill="#FEDEA6"/>
<path d="M47.7261 50.5926C45.6105 50.5926 43.4753 49.8226 41.5307 48.3551C38.3778 45.9741 34.6317 40.7995 31.756 34.8486C29.4962 30.1738 27.4794 24.2239 28.597 21.5419L28.6268 21.4702L28.702 21.4466C30.5138 20.8721 33.8458 21.7016 38.0833 23.7815C42.0632 25.7354 46.2347 28.4933 49.5276 31.3473C50.2548 31.9782 50.9335 32.61 51.5454 33.2255C52.736 34.4236 53.6826 35.5696 54.3604 36.6315C56.5779 40.1082 56.6964 43.9587 54.6786 46.9337C54.315 47.4703 53.8866 47.9649 53.4076 48.4022C51.9409 49.7416 50.0302 50.5179 48.0248 50.5875C47.9259 50.5906 47.826 50.5926 47.7261 50.5926ZM28.8802 21.7436C28.0366 23.9392 29.249 28.8875 32.0598 34.7032C34.914 40.608 38.622 45.7365 41.7346 48.0868C46.0915 51.3761 50.6215 50.4913 53.1789 48.1554C53.6394 47.7345 54.0493 47.2603 54.3985 46.7462C56.339 43.886 56.2174 40.1728 54.075 36.8118C53.4107 35.7703 52.4785 34.6428 51.3054 33.462C50.6997 32.8527 50.0271 32.226 49.3061 31.6013C42.9686 26.1062 32.718 20.6417 28.8802 21.7436Z" fill="#F5C371"/>
<path d="M28.8777 21.4928L28.6284 21.7196L53.17 48.3936L53.4193 48.1669L28.8777 21.4928Z" fill="#F5C371"/>
<path d="M30.6676 32.1707L30.6553 31.8348C33.6052 31.7232 38.0476 31.5952 38.0919 31.5942L38.1011 31.9301C38.0569 31.9321 33.6165 32.0601 30.6676 32.1707Z" fill="#F5C371"/>
<path d="M39.4126 33.0455L31.5308 33.8538L31.5654 34.1879L39.4472 33.3796L39.4126 33.0455Z" fill="#F5C371"/>
<path d="M45.6034 28.593L44.6431 39.0425L44.9795 39.0731L45.9399 28.6235L45.6034 28.593Z" fill="#F5C371"/>
<path d="M49.0038 43.485L38.7041 45.2815L38.7625 45.6124L49.0622 43.8159L49.0038 43.485Z" fill="#F5C371"/>
<path d="M50.2551 32.3307L47.7393 42.3775L48.0671 42.4587L50.583 32.4118L50.2551 32.3307Z" fill="#F5C371"/>
<path d="M35.4366 29.076C35.2975 28.0704 34.9206 25.4139 34.4282 22.4841L34.7619 22.4288C35.2553 25.3627 35.6333 28.0233 35.7724 29.0309L35.4366 29.076Z" fill="#F5C371"/>
<path fill-rule="evenodd" clip-rule="evenodd" d="M105.697 87.8499C101.595 87.0367 98.599 89.0224 97.5175 91.7556C96.6678 93.9031 98.9482 99.002 100.828 100.155C106.465 103.614 120.955 104.754 123.869 101.992C123.628 97.9984 112.194 89.1371 105.697 87.8499Z" fill="#FEDEA6"/>
<path d="M116.52 103.707C111.073 103.707 104.241 102.448 100.739 100.298C98.7638 99.086 96.4834 93.9113 97.3609 91.6942C97.9315 90.2523 99.01 89.0552 100.396 88.325C101.927 87.5181 103.771 87.2979 105.731 87.686C108.767 88.2872 113.175 90.621 117.234 93.7751C120.434 96.2616 123.902 99.724 124.039 101.985L124.044 102.063L123.987 102.117C122.833 103.207 119.951 103.707 116.52 103.707ZM103.899 87.8355C100.703 87.8355 98.5114 89.7014 97.674 91.8171C96.8603 93.8755 99.0728 98.8822 100.915 100.013C103.5 101.598 108.276 102.834 113.383 103.24C118.39 103.637 122.322 103.133 123.694 101.925C123.518 100.117 120.976 97.1085 117.025 94.0383C113.005 90.9149 108.651 88.6067 105.664 88.0148C105.047 87.8919 104.458 87.8355 103.899 87.8355Z" fill="#F5C371"/>
<path d="M97.6279 91.5678L97.5049 91.8807L123.856 102.12L123.979 101.807L97.6279 91.5678Z" fill="#F5C371"/>
<path d="M115.629 103.547C114.885 101.387 113.733 98.1469 113.722 98.1141L114.04 98.0025C114.051 98.0352 115.203 101.276 115.949 103.438L115.629 103.547Z" fill="#F5C371"/>
<path d="M112.611 97.4554L112.285 97.5436L113.904 103.458L114.23 103.37L112.611 97.4554Z" fill="#F5C371"/>
<path d="M113.959 91.4915L106.599 95.1126L106.748 95.4137L114.109 91.7925L113.959 91.4915Z" fill="#F5C371"/>
<path d="M102.307 93.4635L101.975 93.5285L103.55 101.466L103.882 101.401L102.307 93.4635Z" fill="#F5C371"/>
<path d="M109.886 89.1948L103.257 93.828L103.452 94.1028L110.081 89.4696L109.886 89.1948Z" fill="#F5C371"/>
<path d="M116.597 99.2621L116.52 98.9354C117.295 98.7531 119.345 98.28 121.624 97.8141L121.692 98.1428C119.418 98.6077 117.371 99.0808 116.597 99.2621Z" fill="#F5C371"/>
<path fill-rule="evenodd" clip-rule="evenodd" d="M104.976 82.9025C101.447 85.1319 100.66 88.625 101.777 91.3449C102.656 93.4811 107.847 95.6019 110.007 95.1442C116.487 93.773 127.754 84.6434 127.942 80.6454C124.992 77.9224 110.568 79.3705 104.976 82.9025Z" fill="#FEDEA6"/>
<path d="M109.322 95.3757C106.815 95.3757 102.443 93.4044 101.622 91.4085C101.032 89.9737 100.98 88.368 101.474 86.8872C102.02 85.2528 103.2 83.8263 104.887 82.7612C107.5 81.1104 112.308 79.7699 117.434 79.262C121.476 78.8616 126.389 78.9824 128.059 80.5226L128.116 80.5759L128.112 80.6537C127.919 84.7428 116.605 93.9195 110.043 95.3081C109.827 95.3542 109.585 95.3757 109.322 95.3757ZM121.305 79.3941C120.126 79.3941 118.836 79.4607 117.467 79.5958C112.39 80.0987 107.639 81.4207 105.068 83.0449C101.493 85.303 100.918 88.8094 101.935 91.2815C102.776 93.3286 107.855 95.4279 109.973 94.9794C112.942 94.3506 117.255 91.9635 121.229 88.749C125.125 85.5969 127.618 82.5318 127.77 80.7162C126.765 79.8559 124.422 79.3941 121.305 79.3941Z" fill="#F5C371"/>
<path d="M127.884 80.4308L101.72 91.1311L101.848 91.4417L128.013 80.7414L127.884 80.4308Z" fill="#F5C371"/>
<path d="M123.066 87.428C121.027 86.3783 117.943 84.8268 117.912 84.8104L118.065 84.5104C118.095 84.5258 121.18 86.0782 123.221 87.1289L123.066 87.428Z" fill="#F5C371"/>
<path d="M116.654 85.1022L116.48 85.3898L121.76 88.5548L121.935 88.2671L116.654 85.1022Z" fill="#F5C371"/>
<path d="M113.476 79.8533L110.67 87.5266L110.987 87.6414L113.794 79.9681L113.476 79.8533Z" fill="#F5C371"/>
<path d="M106.423 89.2899L106.229 89.5645L112.883 94.2212L113.077 93.9466L106.423 89.2899Z" fill="#F5C371"/>
<path d="M108.939 81.0031L107.365 88.9055L107.696 88.9708L109.271 81.0684L108.939 81.0031Z" fill="#F5C371"/>
<path d="M120.788 83.6655L120.505 83.4822C120.939 82.8186 122.091 81.0685 123.417 79.1647L123.695 79.3562C122.372 81.2569 121.222 83.0029 120.788 83.6655Z" fill="#F5C371"/>
<path fill-rule="evenodd" clip-rule="evenodd" d="M63.2813 46.7945C34.2365 36.3061 19.6828 42.7835 16.2987 64.1097C12.9145 85.4359 33.3056 105.951 63.2815 110.128C87.2926 113.474 111.689 98.4298 115.723 62.9306C119.757 27.4313 92.3261 57.2829 63.2813 46.7945Z" fill="#F5C371"/>
<path fill-rule="evenodd" clip-rule="evenodd" d="M59.6279 46.5776C59.3622 46.6237 59.0975 46.6749 58.8327 46.7282C58.154 46.8633 57.4773 47.0108 56.8036 47.1685C55.8591 47.3897 54.9198 47.6314 53.9876 47.8976C52.9247 48.2008 51.87 48.5356 50.8317 48.9156C49.7214 49.3221 48.6162 49.7829 47.5687 50.3318C47.547 50.3431 47.5213 50.3349 47.51 50.3134C47.4986 50.2919 47.5069 50.2663 47.5285 50.255C48.5791 49.7031 49.6874 49.2412 50.8018 48.8336C51.8411 48.4537 52.8989 48.1178 53.9629 47.8137C54.8961 47.5474 55.8375 47.3047 56.783 47.0835C57.4577 46.9258 58.1354 46.7773 58.8152 46.6432C59.0799 46.5909 59.3457 46.5387 59.6125 46.4926C59.6361 46.4885 59.6588 46.5039 59.6629 46.5274C59.6681 46.551 59.6516 46.5735 59.6279 46.5776Z" fill="white"/>
<path d="M47.5486 50.3592C47.5249 50.3592 47.5023 50.3469 47.4899 50.3244C47.4817 50.309 47.4796 50.2916 47.4847 50.2742C47.4899 50.2578 47.5012 50.2435 47.5167 50.2353C48.4643 49.7376 49.5355 49.2727 50.7931 48.8129C51.7757 48.4534 52.8109 48.1196 53.9562 47.7929C54.8606 47.5348 55.8102 47.289 56.7774 47.0627C57.4706 46.9009 58.1545 46.7524 58.8106 46.6224C59.0506 46.5742 59.3308 46.52 59.6078 46.4718C59.6253 46.4688 59.6429 46.4729 59.6573 46.4831C59.6717 46.4933 59.681 46.5087 59.6841 46.5251C59.6871 46.5425 59.683 46.5599 59.6727 46.5742C59.6624 46.5886 59.647 46.5978 59.6305 46.6009C59.3575 46.648 59.0774 46.7033 58.8364 46.7504C58.1813 46.8804 57.4994 47.0279 56.8083 47.1907C55.8442 47.416 54.8966 47.6618 53.9933 47.9199C52.85 48.2466 51.819 48.5794 50.8394 48.9368C49.588 49.3945 48.522 49.8574 47.5795 50.352C47.5702 50.3561 47.5589 50.3592 47.5486 50.3592ZM59.6202 46.5138C59.6192 46.5138 59.6181 46.5138 59.6161 46.5138C59.339 46.562 59.0599 46.6162 58.8199 46.6644C58.1648 46.7944 57.4819 46.9429 56.7887 47.1047C55.8226 47.331 54.874 47.5768 53.9696 47.8349C52.8253 48.1616 51.7912 48.4954 50.8096 48.8538C49.554 49.3136 48.4838 49.7775 47.5383 50.2742C47.5332 50.2763 47.5301 50.2814 47.528 50.2865C47.5259 50.2916 47.527 50.2978 47.529 50.3029C47.5342 50.3131 47.5476 50.3172 47.5579 50.3111C48.5024 49.8154 49.5705 49.3515 50.824 48.8927C51.8046 48.5343 52.8366 48.2015 53.9809 47.8748C54.8853 47.6167 55.8329 47.371 56.798 47.1457C57.4902 46.9839 58.173 46.8354 58.8281 46.7053C59.0691 46.6572 59.3493 46.6029 59.6233 46.5548C59.6284 46.5538 59.6336 46.5507 59.6367 46.5466C59.6398 46.5425 59.6408 46.5364 59.6398 46.5312C59.6387 46.5261 59.6356 46.521 59.6315 46.5179C59.6284 46.5149 59.6243 46.5138 59.6202 46.5138Z" fill="white"/>
<path fill-rule="evenodd" clip-rule="evenodd" d="M85.7718 37.0892C88.0492 33.1537 89.5838 29.0278 90.0566 27.6852C90.2091 26.1501 87.6268 21.2531 87.6268 21.2531C85.367 21.3718 77.5164 21.7252 74.1174 21.1271C74.1174 21.1271 71.9976 19.9054 70.3393 21.2797C68.681 22.654 71.5372 24.5475 71.5372 24.5475L59.6201 46.5342C66.3769 54.352 72.1511 50.0765 72.1511 50.0765L73.8712 44.9459C77.8089 46.6161 81.3644 43.6248 84.1465 39.6504C84.6378 38.8752 85.2022 37.973 85.7718 37.0892Z" fill="#FDBCA0"/>
<path fill-rule="evenodd" clip-rule="evenodd" d="M77.6027 101.782L74.3623 106.174L88.9821 106.235C85.7273 103.61 77.6027 101.782 77.6027 101.782Z" fill="#FDBCA0"/>
<path fill-rule="evenodd" clip-rule="evenodd" d="M85.7719 37.0893C85.2662 37.9638 84.7234 38.8281 84.1476 39.6515C82.4852 42.2792 81.9805 44.0611 81.9805 44.7943C81.9805 45.5276 82.3523 47.8983 82.3523 47.8983L86.7102 47.8061C86.7102 47.8061 86.7102 45.4661 87.0779 44.3059C87.4467 43.1456 89.7807 33.1906 89.0432 33.0677C88.8722 33.0391 88.6065 33.2377 88.2779 33.591C88.2892 33.5982 88.0121 33.8962 87.8484 34.0949C87.2407 34.8578 86.5011 35.9587 85.7719 37.0893Z" fill="#FDBCA0"/>
<path fill-rule="evenodd" clip-rule="evenodd" d="M71.0457 13.7682C63.0601 18.2874 47.5483 50.2926 47.5483 50.2926C52.2966 47.8 59.6199 46.5343 59.6199 46.5343L71.537 24.5475C71.537 24.5475 68.6809 22.654 70.3391 21.2797C71.9974 19.9054 74.1172 21.1272 74.1172 21.1272C77.5162 21.7252 85.3668 21.3709 87.6267 21.2531C87.6267 21.2531 90.2089 26.1502 90.0564 27.6853C89.5826 29.0278 88.049 33.1548 85.7716 37.0893C87.1312 34.9807 88.5248 32.9818 89.0439 33.0678C89.7814 33.1896 87.4464 43.1456 87.0787 44.3059C86.71 45.4662 86.711 47.8062 86.711 47.8062L87.6318 47.7867C87.6318 47.7867 88.085 51.9711 88.6278 57.9547C88.8822 60.7524 89.1552 63.9445 89.4117 67.285C90.2872 66.1595 92.206 63.5 92.3008 61.712C92.4234 59.3915 94.6348 40.3356 93.6522 27.3883C92.6685 14.44 87.0787 15.3565 87.0787 15.3565C87.0787 15.3565 79.0313 9.24899 71.0457 13.7682Z" fill="#3F4553"/>
<path fill-rule="evenodd" clip-rule="evenodd" d="M84.1473 39.6515C81.3652 43.6259 77.8097 46.6172 73.872 44.9469L72.1519 50.0775C72.1519 50.0775 79.2249 52.6746 80.8183 56.0939C81.3693 51.1548 81.8576 47.9096 81.8576 47.9096L82.353 47.8993C82.353 47.8993 81.9812 45.5276 81.9812 44.7954C81.9801 44.0611 82.4838 42.2792 84.1473 39.6515Z" fill="#3F4553"/>
<path fill-rule="evenodd" clip-rule="evenodd" d="M44.5995 90.4412C43.3738 90.3326 42.1162 90.2445 40.8287 90.178C41.6496 89.2942 42.8114 87.0413 44.0454 84.2886C44.2091 86.1585 44.4635 88.9542 44.5995 90.4412ZM45.3689 51.6956C41.1912 55.1159 22.2712 84.4319 28.9054 98.8457C28.9054 98.8457 34.0657 103.976 74.3624 106.175L77.6028 101.783L78.4175 100.679C78.4175 100.679 75.6973 98.7853 70.4721 96.5968C70.4721 96.5968 71.8039 93.6885 73.355 90.2026C73.355 90.2026 78.9098 100.435 83.9465 103.244C77.2557 96.772 79.2817 69.8584 80.8184 56.095C79.226 52.6756 72.152 50.0786 72.152 50.0786C72.152 50.0786 66.3778 54.354 59.621 46.5363C59.621 46.5363 52.2977 47.802 47.5494 50.2946C46.7275 50.7237 45.9838 51.1917 45.3689 51.6956Z" fill="#63A6DC"/>
<path fill-rule="evenodd" clip-rule="evenodd" d="M80.8177 56.094C79.281 69.8575 77.255 96.771 83.9458 103.243C83.9458 103.243 88.9825 107.396 90.2113 95.1817C90.818 89.1489 90.1959 77.5165 89.411 67.286C89.1545 63.9455 88.8816 60.7535 88.6272 57.9558C88.0844 51.9721 87.6312 47.7878 87.6312 47.7878L86.7104 47.8072L82.3524 47.8994L81.857 47.9096C81.857 47.9096 81.3688 51.1549 80.8177 56.094Z" fill="#63A6DC"/>
<path fill-rule="evenodd" clip-rule="evenodd" d="M74.5274 64.6316C74.7375 65.3628 74.9455 66.094 75.1526 66.8262C75.6027 68.4186 76.0477 70.0131 76.4813 71.6106C76.8809 73.0781 77.2744 74.5497 77.638 76.0264C77.7698 76.5641 77.8996 77.1058 78.0119 77.6486C78.05 77.8349 78.0871 78.0223 78.1159 78.2097C78.1334 78.3244 78.153 78.4524 78.153 78.5692C78.153 78.6931 78.1046 78.8651 78.0716 78.985C78.0057 79.2205 77.9254 79.454 77.844 79.6844C77.5937 80.392 77.3125 81.0935 77.0303 81.7889C76.6533 82.7156 76.265 83.6373 75.8715 84.5569C75.4297 85.5912 74.9806 86.6225 74.5294 87.6516C74.1535 88.5088 73.7744 89.3649 73.3933 90.22C73.3841 90.2415 73.3583 90.2517 73.3356 90.2425C73.314 90.2333 73.3037 90.2077 73.313 90.1852C73.6931 89.3301 74.0721 88.474 74.4481 87.6168C74.9002 86.5876 75.3483 85.5564 75.7902 84.5221C76.1826 83.6025 76.5719 82.6818 76.9479 81.7551C77.2301 81.0607 77.5103 80.3603 77.7606 79.6547C77.8419 79.4263 77.9212 79.1939 77.9861 78.9614C78.017 78.8518 78.0644 78.6839 78.0644 78.5692C78.0644 78.4576 78.0459 78.3337 78.0284 78.2231C77.9995 78.0367 77.9624 77.8503 77.9243 77.666C77.8131 77.1242 77.6833 76.5845 77.5515 76.0469C77.1889 74.5712 76.7944 73.0996 76.3958 71.6332C75.9611 70.0367 75.5172 68.4422 75.0671 66.8498C74.8601 66.1176 74.653 65.3864 74.4419 64.6552C74.4357 64.6327 74.4491 64.6081 74.4717 64.6019C74.4975 64.5958 74.5212 64.6091 74.5274 64.6316Z" fill="#A7D1F3"/>
<path d="M73.3543 90.2671C73.345 90.2671 73.3368 90.2651 73.3275 90.261C73.2945 90.2466 73.2791 90.2077 73.2935 90.1739C73.6973 89.2676 74.0681 88.4279 74.4285 87.6056C74.9291 86.4637 75.3689 85.452 75.7706 84.5119C76.2331 83.4294 76.6018 82.5497 76.9283 81.7458C77.1858 81.1119 77.4825 80.3746 77.74 79.6465C77.8172 79.4274 77.8986 79.1918 77.9656 78.9542C77.9965 78.8436 78.0428 78.6788 78.0428 78.5682C78.0428 78.4565 78.0232 78.3285 78.0068 78.2251C77.9759 78.0275 77.9377 77.8329 77.9038 77.669C77.7905 77.1222 77.6576 76.5682 77.5309 76.051C77.1642 74.5589 76.7584 73.0474 76.3752 71.6373C75.9777 70.1739 75.543 68.6091 75.0465 66.8538C74.8508 66.1616 74.6397 65.416 74.4213 64.6603C74.4162 64.6439 74.4183 64.6255 74.4275 64.6101C74.4358 64.5947 74.4502 64.5835 74.4667 64.5784C74.4831 64.5732 74.5017 64.5753 74.5171 64.5845C74.5326 64.5927 74.5439 64.607 74.5491 64.6234C74.7715 65.3945 74.9899 66.1657 75.1743 66.818C75.6697 68.5712 76.1044 70.136 76.503 71.6024C76.8871 73.0136 77.293 74.5262 77.6596 76.0193C77.7874 76.5374 77.9202 77.0935 78.0335 77.6414C78.0675 77.8073 78.1067 78.0039 78.1376 78.2036C78.153 78.305 78.1746 78.4443 78.1746 78.5661C78.1746 78.6941 78.1252 78.8703 78.0922 78.987C78.0243 79.2287 77.9429 79.4663 77.8646 79.6875C77.6061 80.4187 77.3084 81.158 77.0509 81.793C76.7244 82.5979 76.3557 83.4775 75.8922 84.561C75.4884 85.5042 75.0496 86.517 74.5491 87.6568C74.1886 88.4771 73.8178 89.3178 73.413 90.2251C73.4037 90.2528 73.38 90.2671 73.3543 90.2671ZM74.4862 64.6224C74.4842 64.6224 74.4821 64.6224 74.48 64.6234C74.4749 64.6255 74.4697 64.6285 74.4677 64.6336C74.4646 64.6388 74.4646 64.6439 74.4656 64.649C74.684 65.4058 74.8951 66.1503 75.0908 66.8436C75.5873 68.5988 76.022 70.1636 76.4195 71.627C76.8027 73.0372 77.2085 74.5487 77.5752 76.0418C77.7019 76.5589 77.8358 77.113 77.948 77.6608C77.982 77.8257 78.0212 78.0203 78.0521 78.219C78.0686 78.3234 78.0881 78.4524 78.0881 78.5682C78.0881 78.6849 78.0407 78.8528 78.0098 78.9645C77.9419 79.2051 77.8605 79.4417 77.7832 79.6619C77.5247 80.391 77.2281 81.1294 76.9706 81.7633C76.6441 82.5682 76.2753 83.4468 75.8129 84.5303C75.4101 85.4714 74.9714 86.4832 74.4708 87.625C74.1103 88.4474 73.7385 89.2871 73.3357 90.1934C73.3306 90.2036 73.3357 90.2159 73.346 90.221C73.3563 90.2251 73.3687 90.221 73.3738 90.2108C73.7776 89.3035 74.1494 88.4627 74.5089 87.6424C75.0084 86.5037 75.4482 85.4909 75.851 84.5477C76.3145 83.4642 76.6822 82.5846 77.0097 81.7796C77.2672 81.1447 77.5649 80.4064 77.8234 79.6762C77.9017 79.456 77.9831 79.2184 78.051 78.9788C78.083 78.8641 78.1314 78.6921 78.1314 78.5692C78.1314 78.4504 78.1098 78.3132 78.0943 78.2138C78.0634 78.0152 78.0243 77.8185 77.9903 77.6537C77.877 77.1058 77.7441 76.5507 77.6164 76.0326C77.2497 74.5395 76.8439 73.0279 76.4597 71.6168C76.0611 70.1513 75.6264 68.5866 75.131 66.8334C74.9466 66.181 74.7283 65.4099 74.5058 64.6388C74.5048 64.6337 74.5006 64.6296 74.4955 64.6265C74.4934 64.6234 74.4893 64.6224 74.4862 64.6224Z" fill="#A7D1F3"/>
<path fill-rule="evenodd" clip-rule="evenodd" d="M40.9234 90.1392C45.5367 90.3778 50.1357 90.9226 54.6677 91.8094C59.0802 92.6727 63.4454 93.8627 67.6601 95.4244C69.2267 96.005 70.7759 96.6379 72.2961 97.3292C73.4333 97.8463 74.556 98.3973 75.656 98.9892C76.3523 99.364 77.0414 99.7552 77.7139 100.171C77.9581 100.323 78.2063 100.478 78.4422 100.642C78.4525 100.649 78.4586 100.658 78.4597 100.671C78.4617 100.683 78.4586 100.693 78.4514 100.703L74.3973 106.201C74.3829 106.22 74.3561 106.224 74.3366 106.21C74.317 106.196 74.3129 106.169 74.3273 106.149L78.3556 100.688C78.1321 100.534 77.8983 100.387 77.6676 100.245C76.9971 99.8299 76.309 99.4387 75.6148 99.065C74.5168 98.4741 73.3952 97.9241 72.2601 97.408C70.7419 96.7168 69.1948 96.0849 67.6302 95.5053C63.4196 93.9456 59.0586 92.7577 54.6512 91.8944C50.0955 91.0025 45.4729 90.4566 40.8348 90.2211C40.8296 90.2221 40.8245 90.2211 40.8193 90.2201C39.5102 90.1535 38.2011 90.1115 36.8909 90.0941C36.8672 90.0941 36.8477 90.0736 36.8477 90.0501C36.8477 90.0265 36.8683 90.0071 36.8919 90.0071C38.199 90.0245 39.5051 90.0665 40.8111 90.133C40.9913 89.9364 41.1541 89.7142 41.3045 89.495C41.5084 89.196 41.6979 88.8847 41.8792 88.5713C42.3479 87.7592 42.7722 86.9123 43.177 86.0675C43.6714 85.0352 44.1401 83.9897 44.5943 82.939C45.0897 81.7941 45.5697 80.642 46.0394 79.4858C47.1137 76.8427 48.1395 74.177 49.1356 71.5032C49.5929 70.2733 50.0481 69.0413 50.4879 67.8053C50.4962 67.7828 50.5209 67.7705 50.5436 67.7787C50.5662 67.7869 50.5786 67.8114 50.5704 67.834C50.1305 69.07 49.6763 70.303 49.218 71.5329C48.2219 74.2078 47.1961 76.8734 46.1218 79.5186C45.6521 80.6748 45.1721 81.8279 44.6757 82.9728C44.2204 84.0235 43.7517 85.07 43.2573 86.1033C42.8515 86.9502 42.4261 87.7992 41.9565 88.6133C41.7741 88.9287 41.5846 89.2421 41.3786 89.5432C41.2375 89.747 41.0871 89.9528 40.9234 90.1392Z" fill="#A7D1F3"/>
<path fill-rule="evenodd" clip-rule="evenodd" d="M74.108 21.17C74.1039 21.169 74.0998 21.168 74.0956 21.1649C73.9844 21.1004 73.8556 21.0441 73.7382 20.9949C73.4498 20.8751 73.1449 20.784 72.838 20.7287C71.9419 20.5669 71.0798 20.7246 70.3681 21.3144C70.0683 21.5633 69.8592 21.8777 69.8644 22.2771C69.8695 22.6785 70.09 23.0687 70.33 23.379C70.5596 23.677 70.8408 23.9483 71.1313 24.187C71.2673 24.2996 71.4145 24.4143 71.5618 24.5116C71.5814 24.5249 71.5876 24.5515 71.5742 24.572C71.5608 24.5915 71.534 24.5976 71.5134 24.5843C71.363 24.485 71.2137 24.3682 71.0757 24.2535C70.7801 24.0098 70.4948 23.7343 70.2609 23.4312C69.6965 22.701 69.5214 21.9033 70.3124 21.2469C71.0437 20.6406 71.9326 20.4768 72.8535 20.6427C73.1666 20.699 73.4776 20.7922 73.7722 20.914C73.8917 20.9632 74.0204 21.0205 74.1337 21.0851C74.554 21.1588 74.9794 21.209 75.4037 21.2489C75.9105 21.297 76.4193 21.3298 76.9271 21.3544C78.0776 21.4097 79.2322 21.425 80.3838 21.422C82.178 21.4179 83.9754 21.3697 85.7686 21.296C86.3846 21.2704 87.0015 21.2438 87.6175 21.211C87.6237 21.21 87.6288 21.209 87.635 21.21C87.8389 21.1987 88.0418 21.1875 88.2447 21.1752C88.2684 21.1741 88.289 21.1916 88.2911 21.2161C88.2921 21.2397 88.2746 21.2602 88.2499 21.2622C88.0666 21.2735 87.8822 21.2837 87.6988 21.294C87.8636 21.6083 88.0223 21.9268 88.1788 22.2453C88.5404 22.9816 88.8864 23.7271 89.2037 24.4829C89.4519 25.0748 89.6898 25.6841 89.8732 26.2986C89.9679 26.6171 90.0843 27.0462 90.1059 27.4189C90.1286 27.3534 90.1513 27.2868 90.1729 27.2213C90.1801 27.1987 90.2048 27.1864 90.2275 27.1936C90.2501 27.2008 90.2625 27.2254 90.2553 27.2479C90.2059 27.3984 90.1533 27.549 90.0998 27.6985C90.0998 27.6995 90.0998 27.6995 90.0987 27.7005C90.0956 27.7087 90.0895 27.7159 90.0823 27.721C90.074 27.7261 90.0647 27.7292 90.0544 27.7282C90.0503 27.7282 90.0462 27.7272 90.0431 27.7251C90.0349 27.722 90.0277 27.7159 90.0225 27.7087C90.0174 27.7005 90.0143 27.6913 90.0153 27.6811C90.0338 27.4906 90.0091 27.2796 89.9772 27.0912C89.9329 26.8331 89.8649 26.5751 89.7897 26.3242C89.6064 25.7128 89.3705 25.1055 89.1233 24.5167C88.8071 23.762 88.461 23.0175 88.1005 22.2832C87.9388 21.9535 87.774 21.6237 87.6041 21.2991C86.9943 21.3319 86.3825 21.3585 85.7727 21.3831C83.9785 21.4568 82.1801 21.5049 80.3848 21.509C79.2322 21.5121 78.0756 21.4967 76.924 21.4414C76.4142 21.4168 75.9043 21.3841 75.3965 21.3359C74.967 21.295 74.5365 21.2448 74.1121 21.17C74.109 21.17 74.109 21.17 74.108 21.17Z" fill="white"/>
<path d="M90.0565 27.7508C90.0544 27.7508 90.0524 27.7508 90.0493 27.7508C90.0431 27.7498 90.0369 27.7487 90.0318 27.7467C90.0194 27.7416 90.0081 27.7334 90.0009 27.7211C89.9926 27.7088 89.9885 27.6934 89.9906 27.6791C90.006 27.5224 89.9937 27.336 89.9525 27.0954C89.9133 26.8701 89.8546 26.6274 89.766 26.3314C89.6095 25.8071 89.4045 25.251 89.1007 24.527C88.8102 23.8358 88.4765 23.1056 88.0789 22.2946C87.9471 22.0262 87.773 21.675 87.5886 21.3237C87.0633 21.3514 86.502 21.377 85.7717 21.4077C83.7941 21.4886 82.0307 21.5296 80.3827 21.5337C79.0427 21.5367 77.9427 21.5152 76.9209 21.4661C76.3544 21.4384 75.8549 21.4046 75.3924 21.3606C74.8908 21.3135 74.4819 21.2602 74.1059 21.1947H74.1028C74.0966 21.1937 74.0894 21.1906 74.0843 21.1875C73.9638 21.1179 73.8237 21.0575 73.7289 21.0186C73.4354 20.8967 73.1336 20.8076 72.8328 20.7533C71.8924 20.5833 71.0448 20.7841 70.3814 21.334C70.0477 21.6105 69.8809 21.9279 69.886 22.2792C69.8901 22.612 70.0457 22.9776 70.3464 23.3678C70.5534 23.6361 70.8223 23.9064 71.1447 24.1727C71.3105 24.3089 71.4465 24.4123 71.5731 24.4963C71.5876 24.5055 71.5979 24.5209 71.601 24.5383C71.6041 24.5557 71.601 24.5731 71.5917 24.5874C71.5711 24.6171 71.5299 24.6253 71.5 24.6059C71.3692 24.5188 71.2291 24.4134 71.0602 24.2741C70.7296 24.0017 70.4546 23.7242 70.2414 23.4477C69.5729 22.5823 69.5914 21.8163 70.2959 21.2326C70.9902 20.6571 71.8749 20.4471 72.8555 20.6233C73.1655 20.6796 73.4766 20.7707 73.7784 20.8967C73.9288 20.9592 74.0441 21.0134 74.1389 21.0677C74.5076 21.1322 74.9103 21.1845 75.4037 21.2305C75.8621 21.2736 76.3606 21.3084 76.9261 21.335C77.9447 21.3842 79.0427 21.4046 80.3807 21.4026C82.0266 21.3985 83.7879 21.3575 85.7645 21.2766C86.5061 21.2459 87.0757 21.2203 87.6133 21.1916C87.6175 21.1896 87.6267 21.1896 87.635 21.1906C87.8338 21.1793 88.0367 21.1681 88.2406 21.1558C88.2581 21.1548 88.2756 21.1609 88.288 21.1722C88.3014 21.1834 88.3096 21.1998 88.3106 21.2172C88.3127 21.2531 88.2849 21.2848 88.2488 21.2869C88.0768 21.2971 87.9048 21.3074 87.7318 21.3166C87.8688 21.5787 88.013 21.8655 88.1953 22.2382C88.5939 23.0503 88.9286 23.7825 89.2201 24.4779C89.526 25.207 89.7331 25.7682 89.8907 26.2956C89.972 26.567 90.0792 26.9561 90.1152 27.3125C90.1255 27.2807 90.1368 27.249 90.1471 27.2173C90.1523 27.2009 90.1646 27.1876 90.1801 27.1794C90.1955 27.1712 90.2141 27.1701 90.2306 27.1753C90.247 27.1804 90.2604 27.1927 90.2687 27.208C90.2769 27.2234 90.2779 27.2418 90.2728 27.2582C90.2223 27.4108 90.1688 27.5644 90.1173 27.7088C90.1111 27.7242 90.1028 27.7344 90.0905 27.7426C90.0822 27.7467 90.0699 27.7508 90.0565 27.7508ZM87.6154 21.2756L87.6226 21.2889C87.8101 21.6453 87.9862 22.0027 88.1201 22.2741C88.5177 23.0851 88.8524 23.8163 89.1429 24.5086C89.4478 25.2347 89.6527 25.7928 89.8103 26.3181C89.8989 26.6161 89.9586 26.8609 89.9978 27.0882C90.04 27.334 90.0524 27.5224 90.0369 27.6842C90.0369 27.6893 90.038 27.6934 90.04 27.6975C90.0421 27.7016 90.0462 27.7037 90.0503 27.7057L90.0565 27.7068C90.0627 27.7068 90.0668 27.7057 90.0699 27.7037C90.074 27.7016 90.0761 27.6975 90.0781 27.6934C90.1296 27.548 90.1832 27.3954 90.2337 27.2418C90.2357 27.2367 90.2347 27.2306 90.2326 27.2254C90.2306 27.2203 90.2254 27.2162 90.2203 27.2152C90.2151 27.2132 90.2089 27.2142 90.2038 27.2162C90.1986 27.2183 90.1945 27.2234 90.1935 27.2285C90.1719 27.2951 90.1492 27.3606 90.1265 27.4272L90.0895 27.5347L90.0833 27.421C90.0616 27.0421 89.9401 26.6028 89.8515 26.3058C89.6939 25.7795 89.4879 25.2203 89.1831 24.4922C88.8916 23.7979 88.5568 23.0667 88.1592 22.2556C87.9697 21.8685 87.8214 21.5746 87.6803 21.3043L87.6638 21.2736L87.6988 21.2715C87.8822 21.2613 88.0665 21.251 88.2499 21.2398C88.2612 21.2387 88.2705 21.2295 88.2694 21.2172C88.2694 21.2121 88.2664 21.207 88.2622 21.2029C88.2581 21.1988 88.253 21.1968 88.2468 21.1978C88.0439 21.2101 87.8399 21.2213 87.637 21.2326C87.6298 21.2316 87.6267 21.2316 87.6247 21.2326C87.0829 21.2623 86.5133 21.2879 85.7707 21.3186C83.7931 21.3995 82.0318 21.4405 80.3848 21.4446C79.0458 21.4477 77.9468 21.4261 76.9271 21.377C76.3606 21.3493 75.8621 21.3155 75.4027 21.2715C74.9062 21.2244 74.5025 21.1722 74.1306 21.1077L74.1234 21.1046C74.0297 21.0513 73.9154 20.9971 73.765 20.9346C73.4653 20.8107 73.1583 20.7195 72.8514 20.6642C71.8842 20.4891 71.0118 20.697 70.3289 21.2633C69.4668 21.9781 69.8273 22.8281 70.2805 23.4159C70.4916 23.6893 70.7646 23.9648 71.0921 24.2352C71.26 24.3734 71.3991 24.4789 71.5278 24.5639C71.5371 24.57 71.5505 24.568 71.5567 24.5577C71.5598 24.5526 71.5608 24.5475 71.5598 24.5424C71.5587 24.5373 71.5556 24.5321 71.5505 24.5291C71.4228 24.4441 71.2848 24.3406 71.1179 24.2024C70.7924 23.9341 70.5215 23.6607 70.3124 23.3903C70.0045 22.9919 69.8469 22.6171 69.8427 22.2751C69.8376 21.9105 70.0106 21.5808 70.3547 21.2951C71.0283 20.7369 71.8883 20.5332 72.8431 20.7052C73.147 20.7595 73.4519 20.8506 73.7485 20.9735C73.8443 21.0134 73.9864 21.0739 74.109 21.1455C74.1111 21.1466 74.1131 21.1476 74.1152 21.1476C74.4911 21.2142 74.898 21.2664 75.3986 21.3135C75.86 21.3565 76.3596 21.3913 76.925 21.419C77.9458 21.4681 79.0458 21.4896 80.3848 21.4866C82.0328 21.4825 83.7951 21.4415 85.7717 21.3606C86.5081 21.3309 87.0726 21.3043 87.602 21.2766L87.6154 21.2756Z" fill="#F0A38B"/>
<path fill-rule="evenodd" clip-rule="evenodd" d="M80.7878 55.9346C80.9959 54.0831 81.2215 52.2336 81.4676 50.3872C81.5779 49.5588 81.6901 48.7293 81.8148 47.9028C81.8178 47.8813 81.8354 47.866 81.857 47.866L82.302 47.8568C82.2185 47.3242 82.1423 46.7887 82.0733 46.2541C82.0383 45.9776 82.0043 45.7001 81.9775 45.4236C81.9569 45.2177 81.9363 45.0017 81.9363 44.7948C81.9363 44.548 81.9857 44.2807 82.0424 44.0421C82.132 43.6611 82.2587 43.2843 82.3988 42.9187C82.5934 42.4149 82.8211 41.9223 83.0672 41.442C83.3855 40.8224 83.7367 40.2182 84.1096 39.6294C84.122 39.6089 84.1498 39.6028 84.1693 39.6161C84.1899 39.6284 84.1961 39.656 84.1827 39.6755C83.8119 40.2623 83.4617 40.8634 83.1445 41.4809C82.8993 41.9591 82.6727 42.4487 82.4791 42.9494C82.3401 43.3109 82.2144 43.6847 82.1258 44.0616C82.0712 44.294 82.0218 44.5552 82.0218 44.7948C82.0218 44.9986 82.0424 45.2116 82.062 45.4144C82.0887 45.6909 82.1227 45.9673 82.1577 46.2428C82.2268 46.7805 82.303 47.3191 82.3874 47.8547L87.6281 47.7441C87.6507 47.7441 87.6703 47.7605 87.6724 47.783C87.7754 48.7344 87.8722 49.6868 87.968 50.6391C88.2141 53.0754 88.4469 55.5137 88.6684 57.952C88.9506 61.0601 89.2133 64.1712 89.4522 67.2823C89.4543 67.3059 89.4357 67.3274 89.412 67.3284C89.3883 67.3304 89.3667 67.312 89.3657 67.2885C89.1267 64.1773 88.8641 61.0672 88.5819 57.9592C88.3604 55.5209 88.1276 53.0826 87.8815 50.6463C87.7867 49.7072 87.6909 48.7682 87.59 47.8301L81.892 47.951C81.7694 48.7651 81.6592 49.5823 81.5511 50.3975C81.2998 52.2889 81.069 54.1834 80.8569 56.08C80.861 56.0923 80.8589 56.1046 80.8527 56.1148C80.827 56.3422 80.8023 56.5706 80.7775 56.7979C80.449 59.7984 80.1647 62.8051 79.933 65.8148C79.6682 69.2536 79.4725 72.7006 79.3757 76.1487C79.2964 78.9956 79.2851 81.8487 79.384 84.6956C79.4313 86.0473 79.5045 87.4001 79.6126 88.7488C79.7146 90.0146 79.8464 91.2783 80.0236 92.5348C80.1853 93.6848 80.3851 94.8318 80.6416 95.9644C80.8692 96.9711 81.1432 97.9736 81.4903 98.9475C82.0269 100.455 82.8066 102.083 83.9736 103.213C83.9911 103.229 83.9911 103.257 83.9747 103.274C83.9582 103.292 83.9304 103.292 83.9129 103.275C82.7356 102.136 81.9497 100.498 81.4079 98.9772C81.0598 98.0003 80.7848 96.9946 80.5561 95.9839C80.2996 94.8482 80.0998 93.6992 79.9371 92.5471C79.7599 91.2885 79.627 90.0228 79.5261 88.756C79.4179 87.4063 79.3448 86.0524 79.2974 84.6997C79.1975 81.8517 79.2099 78.9966 79.2892 76.1477C79.385 72.6986 79.5817 69.2506 79.8464 65.8097C80.0782 62.7989 80.3614 59.7912 80.691 56.7897C80.7168 56.5583 80.7425 56.3268 80.7683 56.0954C80.1472 54.7774 78.7454 53.6489 77.5536 52.8552C76.4103 52.0933 75.1682 51.4379 73.9188 50.8665C73.4975 50.674 73.0711 50.4896 72.6416 50.3155C72.4737 50.248 72.3048 50.1804 72.1348 50.1179C72.1122 50.1097 72.1008 50.0851 72.1091 50.0626L73.8209 44.9566C73.6695 44.7764 73.5253 44.5787 73.3894 44.3882C73.0175 43.867 72.6766 43.3191 72.3645 42.7589C71.351 40.9392 70.6248 38.9422 70.2643 36.8921C70.2602 36.8685 70.2757 36.846 70.2994 36.8419C70.323 36.8378 70.3457 36.8531 70.3498 36.8767C70.7093 38.9166 71.4324 40.9054 72.4407 42.7159C72.7508 43.272 73.0896 43.8178 73.4604 44.337C73.5995 44.5316 73.7478 44.7354 73.9033 44.9177C73.9085 44.9238 73.9116 44.93 73.9126 44.9371C73.9136 44.9443 73.9136 44.9515 73.9116 44.9597L72.2049 50.0503C72.3624 50.1087 72.519 50.1711 72.6745 50.2346C73.1051 50.4087 73.5325 50.5941 73.9559 50.7866C75.2104 51.3601 76.4567 52.0175 77.6031 52.7815C78.7732 53.5618 80.1328 54.6535 80.7878 55.9346Z" fill="#F0A38B"/>
<path d="M83.9452 103.309C83.9277 103.309 83.9112 103.302 83.8988 103.29C82.8966 102.32 82.0757 100.912 81.3887 98.984C81.0673 98.0808 80.7882 97.1007 80.5369 95.9886C80.2969 94.9266 80.094 93.8012 79.9179 92.5498C79.75 91.3578 79.6151 90.1176 79.5059 88.7566C79.4018 87.4653 79.3277 86.1381 79.2772 84.6993C79.1845 82.0582 79.1814 79.2604 79.269 76.1463C79.3596 72.8866 79.5419 69.5052 79.8262 65.8073C80.0507 62.8866 80.335 59.8513 80.6708 56.7873C80.6955 56.5579 80.7213 56.3285 80.747 56.0991C80.2464 55.0423 79.1691 53.9578 77.5437 52.8733C76.4952 52.1738 75.3066 51.5246 73.9119 50.8866C73.4804 50.6889 73.0509 50.5036 72.6358 50.3367C72.4833 50.2752 72.3051 50.2035 72.13 50.139C72.0961 50.1267 72.0785 50.0888 72.0909 50.055L73.7986 44.9603C73.6493 44.7821 73.5061 44.5855 73.3733 44.4001C73.0179 43.9024 72.6729 43.3535 72.3474 42.7688C71.3102 40.907 70.6036 38.9306 70.2451 36.8947C70.2421 36.8773 70.2462 36.8599 70.2565 36.8456C70.2668 36.8313 70.2822 36.822 70.2987 36.819C70.3348 36.8128 70.3687 36.8364 70.3749 36.8722C70.7303 38.8927 71.4327 40.8558 72.4627 42.7043C72.7862 43.2849 73.1281 43.8287 73.4814 44.3233C73.6194 44.5169 73.7688 44.7207 73.9233 44.903C73.9305 44.9112 73.9356 44.9214 73.9377 44.9327C73.9398 44.9439 73.9398 44.9562 73.9356 44.9665L72.2361 50.0366C72.3783 50.0899 72.5194 50.1462 72.6862 50.2128C73.1024 50.3807 73.5339 50.5671 73.9676 50.7657C75.3684 51.4058 76.5632 52.0591 77.6179 52.7627C79.1701 53.797 80.232 54.8374 80.7748 55.8574C80.985 53.9895 81.2115 52.1482 81.4464 50.3838C81.5463 49.6321 81.6637 48.7596 81.7935 47.8994C81.7986 47.8676 81.8254 47.8441 81.8574 47.8431L82.2766 47.8338C82.1952 47.3136 82.12 46.7831 82.052 46.2558C82.0088 45.9229 81.9799 45.6669 81.9562 45.4242C81.9377 45.2389 81.915 45.0074 81.915 44.7934C81.915 44.5845 81.949 44.3438 82.0211 44.0356C82.1015 43.6925 82.2189 43.3249 82.3785 42.9091C82.5598 42.4391 82.7792 41.9547 83.048 41.4303C83.3498 40.8405 83.6918 40.2475 84.0914 39.6157C84.1007 39.6014 84.1151 39.5911 84.1326 39.587C84.1501 39.5829 84.1676 39.586 84.1821 39.5952C84.1975 39.6044 84.2078 39.6188 84.2109 39.6362C84.215 39.6536 84.2119 39.671 84.2027 39.6853C83.8051 40.3131 83.4662 40.903 83.1655 41.4897C82.8987 42.011 82.6814 42.4903 82.5011 42.9562C82.3435 43.3658 82.2282 43.7284 82.1488 44.0653C82.0788 44.3643 82.0458 44.5957 82.0458 44.7934C82.0458 45.0013 82.0675 45.2194 82.086 45.4109C82.1097 45.6505 82.1396 45.9055 82.1818 46.2383C82.2498 46.7698 82.326 47.3054 82.4084 47.8308L87.6295 47.7202C87.6635 47.7191 87.6933 47.7447 87.6964 47.7785C87.8035 48.7719 87.9055 49.7734 87.992 50.6347C88.231 53.0044 88.4669 55.4652 88.6924 57.9486C88.9839 61.1631 89.2476 64.3019 89.4763 67.2799C89.4773 67.2973 89.4721 67.3147 89.4608 67.328C89.4495 67.3413 89.433 67.3495 89.4155 67.3505C89.398 67.3516 89.3805 67.3464 89.3671 67.3352C89.3537 67.3239 89.3455 67.3075 89.3444 67.2901C89.1158 64.3111 88.8521 61.1723 88.5606 57.9609C88.335 55.4754 88.0992 53.0156 87.8602 50.649C87.7757 49.8072 87.6758 48.8282 87.5708 47.8543L81.913 47.9741C81.7873 48.8139 81.672 49.6669 81.5751 50.4022C81.3321 52.2291 81.0982 54.139 80.8809 56.0796C80.884 56.094 80.883 56.1093 80.8758 56.1226C80.85 56.349 80.8253 56.5753 80.8006 56.8016C80.4648 59.8656 80.1805 62.8989 79.956 65.8175C79.6717 69.5134 79.4904 72.8928 79.3998 76.1503C79.3133 79.2615 79.3163 82.0572 79.408 84.6952C79.4585 86.1319 79.5327 87.4581 79.6367 88.7474C79.7459 90.1053 79.8798 91.3434 80.0477 92.5324C80.2238 93.7797 80.4257 94.901 80.6646 95.9599C80.9149 97.0669 81.193 98.0419 81.5123 98.94C82.1828 100.822 83.0161 102.254 83.9905 103.196C84.0028 103.208 84.0101 103.225 84.0101 103.242C84.0101 103.259 84.0039 103.276 83.9915 103.289C83.9802 103.301 83.9637 103.309 83.9452 103.309C83.9462 103.309 83.9462 103.309 83.9452 103.309ZM70.308 36.864C70.3069 36.864 70.3059 36.864 70.3039 36.864C70.2987 36.8651 70.2936 36.8681 70.2905 36.8722C70.2874 36.8773 70.2863 36.8825 70.2874 36.8876C70.6448 38.9183 71.3503 40.8896 72.3855 42.7473C72.7099 43.33 73.055 43.8779 73.4093 44.3745C73.5432 44.563 73.6884 44.7616 73.8398 44.9419L73.8481 44.9511L73.844 44.9634L72.1321 50.0694C72.128 50.0806 72.1342 50.0919 72.1445 50.096C72.3206 50.1605 72.4988 50.2322 72.6512 50.2937C73.0663 50.4616 73.4969 50.647 73.9295 50.8446C75.3272 51.4826 76.5168 52.1339 77.5684 52.8344C79.2041 53.925 80.2876 55.0177 80.7903 56.0837L80.7934 56.0899L80.7923 56.096C80.7666 56.3275 80.7408 56.5589 80.7151 56.7903C80.3793 59.8544 80.095 62.8887 79.8705 65.8093C79.5862 69.5062 79.4039 72.8877 79.3133 76.1463C79.2267 79.2594 79.2298 82.0561 79.3215 84.6962C79.372 86.135 79.4472 87.4612 79.5502 88.7525C79.6593 90.1115 79.7932 91.3516 79.9611 92.5426C80.1373 93.793 80.3391 94.9164 80.5802 95.9773C80.8315 97.0874 81.1096 98.0664 81.4309 98.9676C82.1149 100.889 82.9327 102.292 83.9297 103.256C83.9338 103.261 83.938 103.265 83.9452 103.263C83.9503 103.263 83.9565 103.261 83.9596 103.256C83.9637 103.252 83.9658 103.247 83.9658 103.241C83.9658 103.236 83.9637 103.23 83.9596 103.227C82.9667 102.266 82.153 100.868 81.4711 98.9533C81.1508 98.0531 80.8727 97.0762 80.6214 95.9681C80.3814 94.9082 80.1795 93.7858 80.0034 92.5365C79.8355 91.3465 79.7016 90.1074 79.5924 88.7484C79.4894 87.4581 79.4142 86.1319 79.3637 84.6941C79.271 82.0551 79.2679 79.2584 79.3555 76.1463C79.4461 72.8887 79.6284 69.5082 79.9127 65.8114C80.1373 62.8917 80.4215 59.8584 80.7573 56.7934C80.782 56.5661 80.8078 56.3377 80.8325 56.1104L80.8356 56.1011C80.8387 56.096 80.8397 56.0899 80.8377 56.0848L80.8366 56.0807L80.8377 56.0755C81.055 54.1329 81.2888 52.221 81.5319 50.393C81.6308 49.6526 81.7461 48.7913 81.8728 47.9455L81.8759 47.927H81.8944L87.613 47.8062L87.6151 47.8267C87.7211 48.8088 87.8211 49.7949 87.9065 50.6429C88.1455 53.0095 88.3814 55.4703 88.6069 57.9557C88.8984 61.1672 89.1621 64.307 89.3908 67.286C89.3908 67.2911 89.3939 67.2963 89.398 67.3004C89.4021 67.3045 89.4073 67.3055 89.4134 67.3055C89.4186 67.3055 89.4237 67.3024 89.4279 67.2983C89.432 67.2942 89.433 67.2891 89.433 67.2829C89.2043 64.306 88.9407 61.1662 88.6492 57.9527C88.4236 55.4693 88.1877 53.0095 87.9488 50.6398C87.8623 49.7785 87.7603 48.777 87.6532 47.7837C87.6521 47.7724 87.6429 47.7663 87.6315 47.7652L82.3703 47.8769L82.3672 47.8574C82.2838 47.3259 82.2065 46.7831 82.1375 46.2445C82.0943 45.9117 82.0654 45.6557 82.0417 45.416C82.0232 45.2225 82.0016 45.0033 82.0016 44.7934C82.0016 44.5916 82.0345 44.3571 82.1056 44.055C82.1849 43.7161 82.3013 43.3515 82.4599 42.9398C82.6402 42.4728 82.8585 41.9915 83.1263 41.4693C83.4271 40.8825 83.767 40.2906 84.1656 39.6618C84.1687 39.6567 84.1697 39.6515 84.1687 39.6464C84.1677 39.6413 84.1646 39.6362 84.1594 39.6331C84.1543 39.63 84.1491 39.629 84.144 39.63C84.1388 39.6311 84.1337 39.6341 84.1306 39.6392C83.732 40.2701 83.391 40.862 83.0892 41.4498C82.8204 41.9731 82.602 42.4554 82.4218 42.9245C82.2621 43.3372 82.1458 43.7038 82.0654 44.0448C81.9933 44.35 81.9604 44.5875 81.9604 44.7924C81.9604 45.0043 81.983 45.2337 82.0016 45.4191C82.0252 45.6608 82.0551 45.9168 82.0973 46.2496C82.1664 46.7852 82.2426 47.3239 82.325 47.8523L82.3291 47.8779L81.8584 47.8881C81.8481 47.8881 81.8399 47.8953 81.8378 47.9055C81.708 48.7657 81.5906 49.6383 81.4907 50.3899C81.2528 52.1769 81.0241 54.0428 80.8109 55.9363L80.8026 56.011L80.7687 55.9445C80.2392 54.9112 79.1711 53.8533 77.5921 52.8016C76.5395 52.0991 75.3467 51.4478 73.948 50.8088C73.5144 50.6111 73.0838 50.4247 72.6677 50.2568C72.4936 50.1861 72.3474 50.1278 72.1991 50.0735L72.1785 50.0663L72.1857 50.0458L73.8913 44.9531C73.8924 44.9501 73.8924 44.946 73.8924 44.9429C73.8913 44.9398 73.8903 44.9368 73.8883 44.9337C73.7327 44.7504 73.5823 44.5456 73.4443 44.351C73.091 43.8553 72.747 43.3095 72.4236 42.7278C71.3915 40.8743 70.687 38.907 70.3306 36.8814C70.3275 36.8712 70.3183 36.864 70.308 36.864Z" fill="#A7D1F3"/>
<path fill-rule="evenodd" clip-rule="evenodd" d="M86.0445 27.159C86.1053 27.3188 86.1784 27.4795 86.2505 27.6342C86.4071 27.968 86.5853 28.3008 86.7913 28.6081C86.9138 28.7914 87.0488 28.9706 87.2022 29.1293C87.2187 29.1467 87.2177 29.1744 87.2012 29.1908C87.1837 29.2071 87.1559 29.2071 87.1394 29.1897C86.9828 29.0269 86.8438 28.8436 86.7192 28.6562C86.5111 28.3449 86.3309 28.009 86.1722 27.671C86.0991 27.5144 86.026 27.3515 85.9631 27.1897C85.9549 27.1672 85.9662 27.1426 85.9879 27.1334C86.0105 27.1252 86.0352 27.1365 86.0445 27.159Z" fill="#3F4553"/>
<path d="M87.1705 29.286C87.1695 29.286 87.1685 29.286 87.1674 29.286C87.1334 29.285 87.1015 29.2716 87.0778 29.2471C86.9336 29.0965 86.7925 28.9194 86.6483 28.7023C86.4547 28.4124 86.2734 28.0868 86.0952 27.7058C86.0025 27.5092 85.9376 27.3587 85.884 27.2184C85.8717 27.1866 85.8727 27.1518 85.8871 27.1211C85.9016 27.0904 85.9263 27.0668 85.9582 27.0545C85.9901 27.0422 86.0252 27.0433 86.0561 27.0576C86.087 27.0719 86.1106 27.0965 86.123 27.1283C86.1745 27.2624 86.2373 27.4078 86.3269 27.5983C86.5 27.968 86.6751 28.2824 86.8615 28.5609C86.9985 28.7647 87.1293 28.9316 87.2632 29.0709C87.3116 29.1221 87.3106 29.203 87.2591 29.2512C87.2354 29.2737 87.2045 29.286 87.1705 29.286Z" fill="#3F4553"/>
<path fill-rule="evenodd" clip-rule="evenodd" d="M80.6063 25.3608C80.7608 25.3925 80.9163 25.4212 81.0718 25.4488C81.4086 25.5093 81.7485 25.5635 82.0874 25.6065C82.3088 25.6342 82.5324 25.6578 82.7559 25.6711C82.931 25.6813 83.1205 25.6864 83.2946 25.6659C83.3182 25.6629 83.3399 25.6803 83.343 25.7038C83.3461 25.7274 83.3285 25.7489 83.3049 25.752C83.1256 25.7735 82.931 25.7673 82.7507 25.7571C82.5251 25.7448 82.2996 25.7202 82.0761 25.6926C81.7351 25.6496 81.3942 25.5953 81.0553 25.5349C80.8998 25.5072 80.7432 25.4785 80.5877 25.4468C80.564 25.4417 80.5486 25.4191 80.5537 25.3956C80.5599 25.371 80.5836 25.3556 80.6063 25.3608Z" fill="#3F4553"/>
<path d="M83.0301 25.8502C82.9322 25.8502 82.8354 25.8461 82.7479 25.841C82.546 25.8297 82.3297 25.8082 82.067 25.7755C81.7529 25.7355 81.4181 25.6843 81.0422 25.6167C80.9124 25.5932 80.7425 25.5624 80.5725 25.5276C80.5035 25.5133 80.4592 25.4457 80.4726 25.3771C80.4798 25.3433 80.4994 25.3146 80.5282 25.2962C80.5571 25.2778 80.591 25.2716 80.624 25.2778C80.7847 25.3105 80.9485 25.3402 81.0875 25.3658C81.4583 25.4324 81.7889 25.4836 82.099 25.5225C82.3565 25.5553 82.5666 25.5758 82.7623 25.586C82.925 25.5952 83.1145 25.6024 83.2866 25.5819C83.3205 25.5778 83.3535 25.587 83.3813 25.6085C83.4081 25.63 83.4256 25.6597 83.4297 25.6935C83.438 25.7632 83.3875 25.8267 83.3175 25.8349C83.2217 25.8461 83.1248 25.8502 83.0301 25.8502Z" fill="#3F4553"/>
<path fill-rule="evenodd" clip-rule="evenodd" d="M85.4323 31.5397C85.4354 31.6626 85.4488 31.7916 85.4642 31.9125C85.4972 32.1726 85.5528 32.4378 85.6424 32.6846C85.7207 32.8987 85.834 33.1229 86.0019 33.2806C86.0194 33.297 86.0205 33.3247 86.004 33.3421C85.9875 33.3595 85.9597 33.3605 85.9422 33.3441C85.7629 33.1762 85.6435 32.9427 85.56 32.7143C85.4684 32.4624 85.4117 32.19 85.3777 31.9237C85.3612 31.7998 85.3479 31.6677 85.3448 31.5418C85.3437 31.5182 85.3633 31.4977 85.387 31.4977C85.4117 31.4967 85.4313 31.5162 85.4323 31.5397Z" fill="#3F4553"/>
<path d="M85.9725 33.4395C85.9406 33.4395 85.9097 33.4282 85.885 33.4047C85.7212 33.2511 85.5852 33.0278 85.4812 32.7431C85.3957 32.5086 85.3329 32.2362 85.2938 31.9351C85.2742 31.7805 85.2629 31.6566 85.2608 31.545C85.2598 31.5112 85.2721 31.4784 85.2958 31.4538C85.3195 31.4292 85.3514 31.4149 85.3854 31.4149C85.4194 31.4128 85.4524 31.4262 85.4771 31.4497C85.5018 31.4733 85.5162 31.505 85.5173 31.5388C85.5193 31.6412 85.5296 31.7569 85.5482 31.9034C85.5842 32.187 85.6429 32.44 85.7222 32.6571C85.8118 32.9049 85.9262 33.0944 86.0601 33.2203C86.1116 33.2685 86.1136 33.3494 86.0652 33.4006C86.0405 33.4262 86.0065 33.4395 85.9725 33.4395Z" fill="#3F4553"/>
<path fill-rule="evenodd" clip-rule="evenodd" d="M78.3519 28.5752C78.4364 28.6387 78.5322 28.6992 78.6228 28.7545C78.8556 28.8958 79.1018 29.0207 79.3531 29.1262C80.1091 29.4457 80.9393 29.6054 81.7613 29.5133C81.7849 29.5102 81.8066 29.5276 81.8097 29.5512C81.8128 29.5747 81.7952 29.5962 81.7716 29.5993C80.9352 29.6935 80.0906 29.5317 79.3201 29.2061C79.0647 29.0985 78.8154 28.9716 78.5785 28.8282C78.4858 28.7719 78.3869 28.7094 78.3004 28.6439C78.2809 28.6295 78.2778 28.6019 78.2922 28.5834C78.3056 28.564 78.3324 28.5609 78.3519 28.5752Z" fill="#3F4553"/>
<path d="M81.2966 29.7088C80.6374 29.7088 79.9514 29.5645 79.286 29.2828C79.0224 29.1712 78.77 29.0422 78.5342 28.8988C78.4456 28.8445 78.3415 28.78 78.2488 28.7104C78.1922 28.6674 78.1819 28.5875 78.2241 28.5322C78.2447 28.5056 78.2746 28.4882 78.3086 28.483C78.3426 28.4779 78.3766 28.4871 78.4033 28.5076C78.4868 28.5711 78.5836 28.6315 78.667 28.6817C78.8916 28.8179 79.1336 28.9418 79.386 29.0483C80.176 29.3822 80.9938 29.5143 81.7508 29.4293C81.7848 29.4252 81.8178 29.4354 81.8446 29.4559C81.8713 29.4774 81.8878 29.5071 81.8919 29.5409C81.9002 29.6105 81.8497 29.674 81.7797 29.6822C81.6211 29.7007 81.4593 29.7088 81.2966 29.7088Z" fill="#3F4553"/>
<path fill-rule="evenodd" clip-rule="evenodd" d="M77.2381 38.4338C77.4183 38.5178 77.6285 38.7164 77.7552 38.8629C78.1538 39.3227 78.3793 39.9218 78.4906 40.5116C78.4947 40.5352 78.4792 40.5577 78.4555 40.5618C78.4319 40.5659 78.4092 40.5506 78.4051 40.527C78.2959 39.9525 78.0775 39.3667 77.6892 38.9192C77.5883 38.8025 77.4729 38.6929 77.3473 38.6028C77.304 38.5721 77.2505 38.5352 77.2021 38.5127C77.1804 38.5024 77.1712 38.4768 77.1815 38.4553C77.1897 38.4328 77.2165 38.4236 77.2381 38.4338Z" fill="#3F4553"/>
<path d="M78.4487 40.6459C78.388 40.6459 78.3344 40.6029 78.3231 40.5425C78.2015 39.9024 77.9605 39.3597 77.6258 38.9736C77.5207 38.8527 77.4105 38.7503 77.2982 38.6694C77.2632 38.6438 77.2107 38.608 77.1664 38.5875C77.1355 38.5732 77.1118 38.5476 77.1005 38.5158C77.0891 38.4841 77.0902 38.4493 77.1046 38.4185C77.119 38.3878 77.1448 38.3643 77.1767 38.353C77.2086 38.3417 77.2436 38.3428 77.2745 38.3571C77.4661 38.4462 77.6814 38.6479 77.8194 38.8067C78.1881 39.2327 78.4425 39.8 78.5744 40.4943C78.5806 40.5281 78.5734 40.5619 78.5548 40.5896C78.5352 40.6172 78.5064 40.6367 78.4724 40.6428C78.4642 40.6459 78.4559 40.6459 78.4487 40.6459ZM77.2364 38.4359C77.2364 38.4359 77.2375 38.4359 77.2364 38.4359C77.2375 38.4359 77.2364 38.4359 77.2364 38.4359Z" fill="#3F4553"/>
<path fill-rule="evenodd" clip-rule="evenodd" d="M83.5263 33.2634C83.3203 33.9229 83.104 34.5824 82.8774 35.2358C82.726 35.6731 82.5684 36.1155 82.3912 36.5425C82.3305 36.6889 82.2656 36.8405 82.1894 36.9787C82.1585 37.0351 82.0884 37.1631 82.0153 37.1713C81.8072 37.1938 81.594 37.1109 81.42 37.0044C81.0842 36.7995 80.7906 36.4585 80.563 36.1452C80.5486 36.1257 80.5537 36.0991 80.5723 36.0847C80.5918 36.0704 80.6186 36.0755 80.633 36.094C80.8535 36.3971 81.1408 36.7319 81.4653 36.9296C81.6229 37.0248 81.8175 37.1047 82.005 37.0842C82.0359 37.074 82.107 36.947 82.1224 36.9183C82.1966 36.7811 82.2594 36.6326 82.3191 36.4882C82.4932 36.0684 82.6467 35.6341 82.796 35.2051C83.0226 34.5527 83.2379 33.8943 83.4439 33.2358C83.4511 33.2132 83.4758 33.1999 83.4985 33.2071C83.5211 33.2163 83.5335 33.2409 83.5263 33.2634Z" fill="#3F4553"/>
<path d="M81.9467 37.2603C81.7695 37.2603 81.5738 37.1979 81.376 37.078C81.0866 36.9019 80.7982 36.6131 80.4944 36.1963C80.4748 36.1687 80.4666 36.1349 80.4717 36.1021C80.4769 36.0683 80.4954 36.0386 80.5232 36.0192C80.5809 35.9782 80.6602 35.9905 80.7024 36.0478C80.9816 36.4308 81.2535 36.7043 81.51 36.8609C81.6284 36.9326 81.8025 37.0145 81.9704 37.0053C81.9889 36.9818 82.0219 36.9306 82.0476 36.8814C82.1218 36.7442 82.1856 36.5916 82.2412 36.4595C82.4205 36.0253 82.5801 35.5716 82.7161 35.1815C82.9365 34.5455 83.1549 33.884 83.3629 33.2142C83.3732 33.1815 83.3948 33.1548 83.4257 33.1395C83.4556 33.1231 83.4906 33.12 83.5236 33.1303C83.5555 33.1405 83.5823 33.162 83.5988 33.1927C83.6153 33.2224 83.6184 33.2572 83.6081 33.29C83.399 33.9618 83.1796 34.6264 82.9581 35.2644C82.8191 35.6669 82.6543 36.1328 82.4699 36.5762C82.4091 36.7217 82.3432 36.8763 82.2639 37.0207C82.199 37.1374 82.1269 37.245 82.026 37.2562C81.9992 37.2583 81.9734 37.2603 81.9467 37.2603Z" fill="#3F4553"/>
<path d="M28.9239 134.237V135.664H18.9099V134.237H28.9239ZM19.1916 134.237V138.917H17.4559L17.4468 134.237H19.1916ZM30.4506 134.237L30.4324 138.908H28.6968V134.237H30.4506ZM27.2065 122.433V123.868H21.4088V122.433H27.2065ZM28.7149 122.433V135.664H26.9702V122.433H28.7149ZM20.8091 122.433H22.5629L22.2903 127.758C22.254 128.557 22.1782 129.296 22.0631 129.975C21.948 130.647 21.8057 131.262 21.636 131.82C21.4664 132.377 21.2725 132.877 21.0544 133.319C20.8364 133.755 20.6031 134.134 20.3547 134.455C20.1064 134.77 19.8459 135.03 19.5732 135.236C19.3067 135.436 19.0371 135.579 18.7645 135.664H17.9648V134.237H18.5282C18.6857 134.067 18.8644 133.822 19.0644 133.501C19.2703 133.18 19.4733 132.765 19.6732 132.256C19.8792 131.741 20.0579 131.114 20.2093 130.375C20.3669 129.636 20.4729 128.763 20.5274 127.758L20.8091 122.433ZM38.9289 130.093V131.456H33.731V130.093H38.9289ZM34.0854 125.831V135.664H32.4043V125.831H34.0854ZM40.292 125.831V135.664H38.6018V125.831H40.292ZM47.0801 135.845C46.3955 135.845 45.7746 135.73 45.2172 135.5C44.6659 135.264 44.1904 134.934 43.7905 134.509C43.3968 134.085 43.0939 133.583 42.8818 133.001C42.6698 132.419 42.5638 131.783 42.5638 131.093V130.711C42.5638 129.911 42.6819 129.2 42.9182 128.576C43.1544 127.945 43.4755 127.412 43.8814 126.976C44.2873 126.54 44.7477 126.21 45.2627 125.986C45.7776 125.762 46.3107 125.649 46.862 125.649C47.5647 125.649 48.1706 125.771 48.6794 126.013C49.1944 126.255 49.6154 126.595 49.9426 127.031C50.2697 127.461 50.512 127.97 50.6695 128.557C50.827 129.139 50.9058 129.775 50.9058 130.466V131.22H43.5634V129.848H49.2247V129.721C49.2004 129.284 49.1096 128.86 48.9521 128.448C48.8006 128.036 48.5583 127.697 48.2251 127.431C47.8919 127.164 47.4375 127.031 46.862 127.031C46.4803 127.031 46.129 127.112 45.8079 127.276C45.4868 127.434 45.2112 127.67 44.981 127.985C44.7508 128.3 44.572 128.685 44.4448 129.139C44.3176 129.593 44.254 130.117 44.254 130.711V131.093C44.254 131.559 44.3176 131.998 44.4448 132.41C44.5781 132.816 44.7689 133.174 45.0173 133.483C45.2718 133.792 45.5777 134.034 45.9351 134.21C46.2986 134.385 46.7106 134.473 47.171 134.473C47.7647 134.473 48.2675 134.352 48.6794 134.11C49.0914 133.867 49.4518 133.543 49.7608 133.137L50.7786 133.946C50.5665 134.267 50.297 134.573 49.9698 134.864C49.6427 135.155 49.2398 135.391 48.7612 135.573C48.2887 135.754 47.7283 135.845 47.0801 135.845ZM57.4849 131.338H54.259L54.2408 129.993H56.8761C57.3971 129.993 57.8302 129.942 58.1755 129.839C58.5269 129.736 58.7904 129.581 58.9661 129.375C59.1418 129.169 59.2296 128.915 59.2296 128.612C59.2296 128.376 59.1781 128.17 59.0752 127.994C58.9782 127.812 58.8298 127.664 58.6299 127.549C58.43 127.428 58.1816 127.34 57.8847 127.285C57.594 127.225 57.2517 127.194 56.8579 127.194H54.7042V135.664H53.0231V125.831H56.8579C57.4819 125.831 58.0423 125.886 58.539 125.995C59.0418 126.104 59.4689 126.27 59.8203 126.495C60.1777 126.713 60.4504 126.991 60.6382 127.331C60.826 127.67 60.9199 128.07 60.9199 128.53C60.9199 128.827 60.8593 129.109 60.7381 129.375C60.6169 129.642 60.4382 129.878 60.202 130.084C59.9657 130.29 59.6749 130.46 59.3296 130.593C58.9843 130.72 58.5875 130.802 58.1392 130.838L57.4849 131.338ZM57.4849 135.664H53.6501L54.4861 134.3H57.4849C57.9514 134.3 58.3391 134.243 58.6481 134.128C58.957 134.007 59.1872 133.837 59.3387 133.619C59.4962 133.395 59.575 133.128 59.575 132.819C59.575 132.51 59.4962 132.247 59.3387 132.029C59.1872 131.804 58.957 131.635 58.6481 131.52C58.3391 131.399 57.9514 131.338 57.4849 131.338H54.9314L54.9496 129.993H58.1392L58.748 130.502C59.2872 130.544 59.7446 130.678 60.1202 130.902C60.4958 131.126 60.7805 131.411 60.9744 131.756C61.1682 132.095 61.2652 132.465 61.2652 132.865C61.2652 133.325 61.1773 133.731 61.0016 134.082C60.832 134.434 60.5836 134.728 60.2565 134.964C59.9294 135.194 59.5325 135.37 59.0661 135.491C58.5996 135.606 58.0725 135.664 57.4849 135.664ZM70.1888 130.093V131.456H64.9909V130.093H70.1888ZM65.3453 125.831V135.664H63.6642V125.831H65.3453ZM71.5518 125.831V135.664H69.8616V125.831H71.5518ZM76.0773 133.001L80.6117 125.831H82.302V135.664H80.6117V128.494L76.0773 135.664H74.4052V125.831H76.0773V133.001ZM86.8274 125.831V135.664H85.1462V125.831H86.8274ZM93.2793 125.831L88.6175 131.465H86.264L86.0095 129.993H87.936L91.2346 125.831H93.2793ZM91.4709 135.664L87.8542 131.211L88.9356 129.993L93.6064 135.664H91.4709ZM24.9347 150.093V151.456H19.7368V150.093H24.9347ZM20.0912 145.831V155.664H18.4101V145.831H20.0912ZM26.2977 145.831V155.664H24.6075V145.831H26.2977ZM34.8033 153.982V148.921C34.8033 148.533 34.7246 148.197 34.5671 147.912C34.4156 147.621 34.1854 147.397 33.8764 147.24C33.5675 147.082 33.1858 147.003 32.7315 147.003C32.3074 147.003 31.9348 147.076 31.6137 147.222C31.2987 147.367 31.0503 147.558 30.8686 147.794C30.6929 148.03 30.6051 148.285 30.6051 148.557H28.9239C28.9239 148.206 29.0148 147.858 29.1966 147.512C29.3783 147.167 29.6388 146.855 29.978 146.576C30.3234 146.292 30.7353 146.067 31.2139 145.904C31.6986 145.734 32.2377 145.649 32.8314 145.649C33.5463 145.649 34.1763 145.771 34.7216 146.013C35.2728 146.255 35.703 146.622 36.0119 147.112C36.3269 147.597 36.4845 148.206 36.4845 148.939V153.519C36.4845 153.846 36.5117 154.194 36.5662 154.564C36.6268 154.934 36.7147 155.252 36.8298 155.518V155.664H35.0759C34.9911 155.47 34.9245 155.212 34.876 154.891C34.8276 154.564 34.8033 154.261 34.8033 153.982ZM35.0941 149.702L35.1123 150.884H33.413C32.9344 150.884 32.5073 150.923 32.1317 151.002C31.7561 151.074 31.4411 151.187 31.1866 151.338C30.9322 151.489 30.7383 151.68 30.6051 151.911C30.4718 152.135 30.4051 152.398 30.4051 152.701C30.4051 153.01 30.4748 153.292 30.6142 153.546C30.7535 153.801 30.9625 154.004 31.2412 154.155C31.5259 154.3 31.8742 154.373 32.2862 154.373C32.8011 154.373 33.2555 154.264 33.6493 154.046C34.043 153.828 34.355 153.561 34.5852 153.246C34.8215 152.931 34.9487 152.625 34.9669 152.329L35.6848 153.137C35.6424 153.392 35.5273 153.673 35.3395 153.982C35.1517 154.291 34.9003 154.588 34.5852 154.873C34.2763 155.152 33.9067 155.385 33.4766 155.573C33.0525 155.754 32.5739 155.845 32.0408 155.845C31.3744 155.845 30.7898 155.715 30.287 155.455C29.7902 155.194 29.4025 154.846 29.1239 154.409C28.8512 153.967 28.7149 153.474 28.7149 152.928C28.7149 152.401 28.8179 151.938 29.0239 151.538C29.2299 151.132 29.5267 150.796 29.9144 150.529C30.3022 150.257 30.7686 150.051 31.3139 149.911C31.8591 149.772 32.4679 149.702 33.1404 149.702H35.0941ZM43.0636 154.464C43.4634 154.464 43.833 154.382 44.1722 154.219C44.5115 154.055 44.7901 153.831 45.0082 153.546C45.2263 153.255 45.3505 152.925 45.3808 152.556H46.9801C46.9498 153.137 46.753 153.679 46.3895 154.182C46.032 154.679 45.5625 155.082 44.981 155.391C44.3994 155.694 43.7603 155.845 43.0636 155.845C42.3245 155.845 41.6793 155.715 41.128 155.455C40.5828 155.194 40.1284 154.837 39.7649 154.382C39.4075 153.928 39.1379 153.407 38.9562 152.819C38.7805 152.226 38.6926 151.599 38.6926 150.938V150.557C38.6926 149.896 38.7805 149.272 38.9562 148.685C39.1379 148.091 39.4075 147.567 39.7649 147.112C40.1284 146.658 40.5828 146.301 41.128 146.04C41.6793 145.78 42.3245 145.649 43.0636 145.649C43.833 145.649 44.5054 145.807 45.0809 146.122C45.6564 146.431 46.1078 146.855 46.4349 147.394C46.7681 147.927 46.9498 148.533 46.9801 149.212H45.3808C45.3505 148.806 45.2354 148.439 45.0355 148.112C44.8416 147.785 44.5751 147.524 44.2358 147.331C43.9026 147.131 43.5119 147.031 43.0636 147.031C42.5486 147.031 42.1155 147.134 41.7641 147.34C41.4188 147.54 41.1431 147.812 40.9372 148.158C40.7373 148.497 40.5919 148.875 40.501 149.293C40.4162 149.705 40.3738 150.126 40.3738 150.557V150.938C40.3738 151.368 40.4162 151.792 40.501 152.21C40.5858 152.628 40.7282 153.007 40.9281 153.346C41.1341 153.686 41.4097 153.958 41.755 154.164C42.1064 154.364 42.5426 154.464 43.0636 154.464ZM52.8777 145.831V155.664H51.1875V145.831H52.8777ZM56.1764 145.831V147.194H47.9525V145.831H56.1764ZM59.5113 147.721V159.444H57.8211V145.831H59.3659L59.5113 147.721ZM66.1359 150.666V150.856C66.1359 151.571 66.0511 152.235 65.8814 152.846C65.7118 153.452 65.4634 153.979 65.1363 154.428C64.8152 154.876 64.4184 155.224 63.9459 155.473C63.4733 155.721 62.9311 155.845 62.3193 155.845C61.6953 155.845 61.144 155.742 60.6654 155.536C60.1868 155.33 59.7809 155.03 59.4477 154.637C59.1145 154.243 58.848 153.77 58.6481 153.219C58.4542 152.668 58.3209 152.047 58.2482 151.356V150.338C58.3209 149.611 58.4572 148.96 58.6572 148.385C58.8571 147.809 59.1206 147.318 59.4477 146.913C59.7809 146.501 60.1838 146.189 60.6563 145.977C61.1289 145.759 61.6741 145.649 62.292 145.649C62.9099 145.649 63.4582 145.771 63.9368 146.013C64.4154 146.249 64.8182 146.588 65.1454 147.031C65.4725 147.473 65.7179 148.003 65.8814 148.621C66.0511 149.233 66.1359 149.914 66.1359 150.666ZM64.4457 150.856V150.666C64.4457 150.175 64.3942 149.714 64.2912 149.284C64.1882 148.848 64.0277 148.466 63.8096 148.139C63.5975 147.806 63.3249 147.546 62.9917 147.358C62.6585 147.164 62.2617 147.067 61.8013 147.067C61.3772 147.067 61.0077 147.14 60.6927 147.285C60.3837 147.431 60.1202 147.627 59.9021 147.876C59.684 148.118 59.5053 148.397 59.3659 148.712C59.2327 149.021 59.1327 149.342 59.0661 149.675V152.029C59.1872 152.453 59.3569 152.853 59.575 153.228C59.793 153.598 60.0838 153.898 60.4473 154.128C60.8108 154.352 61.2682 154.464 61.8195 154.464C62.2738 154.464 62.6646 154.37 62.9917 154.182C63.3249 153.988 63.5975 153.725 63.8096 153.392C64.0277 153.059 64.1882 152.677 64.2912 152.247C64.3942 151.811 64.4457 151.347 64.4457 150.856ZM67.8352 150.856V150.647C67.8352 149.939 67.9382 149.281 68.1442 148.675C68.3501 148.064 68.647 147.534 69.0347 147.085C69.4224 146.631 69.8919 146.279 70.4432 146.031C70.9945 145.777 71.6124 145.649 72.297 145.649C72.9876 145.649 73.6086 145.777 74.1599 146.031C74.7172 146.279 75.1897 146.631 75.5775 147.085C75.9712 147.534 76.2711 148.064 76.4771 148.675C76.6831 149.281 76.786 149.939 76.786 150.647V150.856C76.786 151.565 76.6831 152.223 76.4771 152.828C76.2711 153.434 75.9712 153.964 75.5775 154.419C75.1897 154.867 74.7202 155.218 74.1689 155.473C73.6237 155.721 73.0058 155.845 72.3152 155.845C71.6245 155.845 71.0036 155.721 70.4523 155.473C69.901 155.218 69.4285 154.867 69.0347 154.419C68.647 153.964 68.3501 153.434 68.1442 152.828C67.9382 152.223 67.8352 151.565 67.8352 150.856ZM69.5163 150.647V150.856C69.5163 151.347 69.5739 151.811 69.689 152.247C69.8041 152.677 69.9767 153.059 70.2069 153.392C70.4432 153.725 70.737 153.988 71.0884 154.182C71.4398 154.37 71.8487 154.464 72.3152 154.464C72.7756 154.464 73.1784 154.37 73.5238 154.182C73.8751 153.988 74.1659 153.725 74.3961 153.392C74.6263 153.059 74.799 152.677 74.9141 152.247C75.0353 151.811 75.0958 151.347 75.0958 150.856V150.647C75.0958 150.163 75.0353 149.705 74.9141 149.275C74.799 148.839 74.6233 148.454 74.387 148.121C74.1568 147.782 73.866 147.515 73.5147 147.321C73.1694 147.128 72.7635 147.031 72.297 147.031C71.8366 147.031 71.4307 147.128 71.0793 147.321C70.734 147.515 70.4432 147.782 70.2069 148.121C69.9767 148.454 69.8041 148.839 69.689 149.275C69.5739 149.705 69.5163 150.163 69.5163 150.647ZM82.9744 155.845C82.2898 155.845 81.6689 155.73 81.1115 155.5C80.5603 155.264 80.0847 154.934 79.6849 154.509C79.2911 154.085 78.9882 153.583 78.7761 153.001C78.5641 152.419 78.4581 151.783 78.4581 151.093V150.711C78.4581 149.911 78.5762 149.2 78.8125 148.576C79.0488 147.945 79.3698 147.412 79.7757 146.976C80.1816 146.54 80.642 146.21 81.157 145.986C81.6719 145.762 82.205 145.649 82.7563 145.649C83.4591 145.649 84.0649 145.771 84.5738 146.013C85.0887 146.255 85.5097 146.595 85.8369 147.031C86.164 147.461 86.4063 147.97 86.5638 148.557C86.7214 149.139 86.8001 149.775 86.8001 150.466V151.22H79.4577V149.848H85.119V149.721C85.0948 149.284 85.0039 148.86 84.8464 148.448C84.6949 148.036 84.4526 147.697 84.1194 147.431C83.7862 147.164 83.3318 147.031 82.7563 147.031C82.3747 147.031 82.0233 147.112 81.7022 147.276C81.3811 147.434 81.1055 147.67 80.8753 147.985C80.6451 148.3 80.4664 148.685 80.3391 149.139C80.2119 149.593 80.1483 150.117 80.1483 150.711V151.093C80.1483 151.559 80.2119 151.998 80.3391 152.41C80.4724 152.816 80.6632 153.174 80.9116 153.483C81.1661 153.792 81.472 154.034 81.8294 154.21C82.1929 154.385 82.6049 154.473 83.0653 154.473C83.659 154.473 84.1618 154.352 84.5738 154.11C84.9857 153.867 85.3462 153.543 85.6551 153.137L86.6729 153.946C86.4609 154.267 86.1913 154.573 85.8641 154.864C85.537 155.155 85.1341 155.391 84.6555 155.573C84.183 155.754 83.6226 155.845 82.9744 155.845ZM95.4329 150.093V151.456H90.2351V150.093H95.4329ZM90.5895 145.831V155.664H88.9083V145.831H90.5895ZM96.796 145.831V155.664H95.1058V145.831H96.796ZM101.321 153.001L105.856 145.831H107.546V155.664H105.856V148.494L101.321 155.664H99.6494V145.831H101.321V153.001ZM112.235 150.975H114.053L111.208 155.664H109.391L112.235 150.975ZM113.644 145.831H117.751V155.664H116.07V147.194H113.644C113.165 147.194 112.774 147.276 112.471 147.44C112.168 147.597 111.947 147.803 111.808 148.058C111.669 148.312 111.599 148.576 111.599 148.848C111.599 149.115 111.663 149.372 111.79 149.621C111.917 149.863 112.117 150.063 112.39 150.22C112.662 150.378 113.014 150.457 113.444 150.457H116.524V151.838H113.444C112.88 151.838 112.38 151.762 111.944 151.611C111.508 151.459 111.139 151.25 110.836 150.984C110.533 150.711 110.303 150.393 110.145 150.029C109.988 149.66 109.909 149.26 109.909 148.83C109.909 148.4 109.991 148.003 110.154 147.64C110.324 147.276 110.566 146.958 110.881 146.685C111.202 146.413 111.593 146.204 112.053 146.058C112.52 145.907 113.05 145.831 113.644 145.831Z" fill="#3F414E"/>
</svg>
