<svg width="30" height="30" viewBox="0 0 30 30" fill="none" xmlns="http://www.w3.org/2000/svg">
<path d="M15.0058 29.9997C15.0058 29.9997 15.002 29.9997 14.9934 29.9997C14.4924 29.9997 -1.35605 29.919 0.0940311 20.9424C0.103521 20.8799 0.11396 20.8174 0.125348 20.754C0.147175 20.6349 0.172799 20.5138 0.201269 20.3908C0.255362 20.1583 0.310405 19.9267 0.366396 19.6942C0.402458 19.5462 0.438521 19.3982 0.475532 19.2512C0.509696 19.1147 0.54386 18.9783 0.578974 18.8409C0.612189 18.7112 0.645404 18.5815 0.679568 18.4527C0.680517 18.4479 0.682415 18.444 0.683364 18.4392C0.746948 18.1971 0.812429 17.9549 0.880758 17.7138C0.889299 17.6811 0.89784 17.6484 0.90733 17.6158C1.40176 15.8487 1.9873 14.1075 2.70475 12.4221C3.48768 10.5859 4.4737 8.93506 5.61915 7.30827C7.28371 4.94544 9.251 2.35968 11.7535 0.855885C12.7196 0.274546 13.8679 -0.0905927 15.0001 0.0189489C16.1322 -0.0905927 17.2796 0.274546 18.2457 0.855885C20.7482 2.35968 22.7155 4.94544 24.3801 7.30827C25.5255 8.93506 26.5115 10.5859 27.2935 12.4221C28.1818 14.5044 28.866 16.6722 29.4269 18.8697C29.4857 19.0974 29.5427 19.3261 29.5987 19.5548C29.6005 19.5596 29.6015 19.5644 29.6024 19.5692C29.6347 19.7019 29.667 19.8345 29.6983 19.9671C29.7125 20.0276 29.7277 20.0872 29.741 20.1477C29.7609 20.2284 29.779 20.3101 29.7979 20.3908C31.9977 29.9161 15.5173 29.9997 15.0058 29.9997Z" fill="url(#paint0_radial_226_356)"/>
<circle cx="19.0001" cy="8.00006" r="2" fill="#D7D9FF"/>
<path d="M15.0055 29.9998C15.0055 29.9998 15.0017 29.9998 14.9932 29.9998C14.4921 29.9998 -1.3563 29.9191 0.093787 20.9424C0.103277 20.88 0.113716 20.8175 0.125104 20.7541C0.146931 20.6349 0.172555 20.5139 0.201025 20.3909C0.255118 20.1583 0.310161 19.9268 0.366152 19.6942C0.402214 19.5462 0.438276 19.3983 0.475288 19.2512C0.509452 19.1148 0.543616 18.9784 0.578729 18.8409C0.611945 18.7112 0.64516 18.5815 0.679324 18.4527C0.680273 18.4479 0.682171 18.4441 0.68312 18.4393C0.746704 18.1971 0.812185 17.955 0.880514 17.7138C0.915627 17.6869 0.951689 17.66 0.986802 17.6331C2.65705 16.3686 4.60726 14.6486 5.12352 13.1842C6.70172 8.71027 9.83819 11.2614 11.1127 12.5644C11.5179 12.9785 12.15 13.0612 12.6406 12.7566C13.3021 12.3453 14.2217 11.5516 15.1299 10.0363C15.8074 8.90629 17.2148 8.45947 18.3906 9.03313C20.2915 9.96135 23.4953 12.3367 28.7538 18.0847C28.9967 18.3509 29.2217 18.6123 29.4266 18.8698C29.4855 19.0975 29.5424 19.3262 29.5984 19.5549C29.6003 19.5597 29.6013 19.5645 29.6022 19.5693C29.6345 19.7019 29.6667 19.8345 29.6981 19.9671C29.7123 20.0276 29.7275 20.0872 29.7408 20.1478C29.7607 20.2285 29.7787 20.3101 29.7977 20.3909C31.9975 29.9162 15.517 29.9998 15.0055 29.9998Z" fill="#8589EB"/>
<path opacity="0.15" d="M15.0055 30C15.0055 30 15.0017 30 14.9932 30C14.4921 30 -1.3563 29.9193 0.093787 20.9426C0.103277 20.8802 0.113716 20.8177 0.125104 20.7543C0.146931 20.6352 0.172555 20.5141 0.201025 20.3911C0.255118 20.1586 0.310161 19.927 0.366152 19.6944C0.402214 19.5465 0.438276 19.3985 0.475288 19.2515C1.23734 19.0929 2.07152 19.1986 2.70071 20.0183C2.76334 20.099 2.82598 20.1787 2.89051 20.2566C3.22171 20.6563 3.58423 21.0109 3.98851 21.2838C4.27701 21.4788 4.58639 21.6326 4.92138 21.7315C5.51926 21.9093 6.19875 21.9131 6.98073 21.671C7.95916 21.3693 9.09891 20.6822 10.4446 19.4667C14.4798 15.822 20.151 18.4722 22.0045 20.9023C23.166 22.4243 25.5898 22.0976 27.1775 21.6335C27.4612 21.5509 27.7412 21.4577 28.0136 21.3491C28.2736 21.2453 28.5279 21.1291 28.7728 20.9945C28.8259 20.9657 28.8791 20.9359 28.9313 20.9052C29.0755 20.8206 29.216 20.7303 29.3536 20.6323C29.4798 20.542 29.6069 20.442 29.6791 20.3036C29.7056 20.2546 29.7237 20.2018 29.7408 20.148C29.7607 20.2287 29.7787 20.3104 29.7977 20.3911C31.9975 29.9164 15.517 30 15.0055 30Z" fill="white"/>
<path opacity="0.15" d="M15.0055 30.0001C15.0055 30.0001 15.0017 30.0001 14.9932 30.0001C14.4921 30.0001 -1.3563 29.9194 0.093787 20.9427C0.103277 20.8802 0.113716 20.8178 0.125104 20.7544C0.146931 20.6352 0.172555 20.5141 0.201025 20.3911C0.255118 20.1586 0.310161 19.927 0.366152 19.6945C0.402214 19.5465 0.438276 19.3985 0.475288 19.2515C0.509452 19.1151 0.543616 18.9786 0.578729 18.8412C0.611945 18.7115 0.64516 18.5818 0.679324 18.453C0.680273 18.4482 0.682171 18.4444 0.68312 18.4396C0.746704 18.1974 0.812185 17.9553 0.880514 17.7141C0.889055 17.6814 0.897596 17.6488 0.907086 17.6161C0.933658 17.6219 0.96023 17.6276 0.986802 17.6334C1.3683 17.7227 1.74791 17.8967 2.11422 18.184C2.70071 18.6442 3.25303 19.3947 3.71994 20.5507C3.79871 20.7448 3.87558 20.9513 3.94865 21.1695C3.96194 21.2079 3.97428 21.2454 3.98851 21.2838C4.40512 22.4744 5.09885 23.7226 6.27752 24.2366C6.39329 24.2876 6.51477 24.3308 6.64004 24.3664C8.17078 24.7997 9.91031 23.9541 11.0985 23.025C11.4809 22.7261 11.8349 22.3888 12.2363 22.1179C14.9173 20.3066 18.2388 23.0413 19.8502 25.039C19.9252 25.1322 19.9992 25.2264 20.0723 25.3205C20.3475 25.677 20.6303 25.9586 20.9188 26.1709C23.4593 28.0533 26.4031 24.6671 28.3391 21.6826C28.4909 21.45 28.6352 21.2194 28.7728 20.9946C28.9863 20.6477 29.1827 20.3133 29.3612 20.0001C29.4371 19.8665 29.5092 19.7368 29.5785 19.6128C29.5861 19.5984 29.5946 19.584 29.6022 19.5696C29.6345 19.7022 29.6667 19.8348 29.6981 19.9674C29.7123 20.0279 29.7275 20.0875 29.7408 20.148C29.7607 20.2288 29.7787 20.3104 29.7977 20.3911C31.9975 29.9165 15.517 30.0001 15.0055 30.0001Z" fill="white"/>
<path opacity="0.15" d="M15.0055 30C15.0055 30 15.0017 30 14.9932 30C14.4921 30 -1.3563 29.9193 0.093787 20.9426C0.797001 20.5256 1.8447 20.075 2.89051 20.2566C3.16952 20.3056 3.44853 20.3988 3.71994 20.5506C4.1451 20.787 4.55412 21.1646 4.92138 21.7315C5.13017 22.0534 5.32566 22.4368 5.50313 22.8894C5.69483 23.3814 5.95201 23.8464 6.27752 24.2366C6.79472 24.8573 7.48465 25.2878 8.36059 25.3368C9.75657 25.4146 11.0311 24.6719 12.1386 23.9079C14.6572 22.1716 16.803 25.3176 19.3586 25.9642C19.9015 26.1017 20.4215 26.166 20.9188 26.1708C23.7677 26.2006 25.8593 24.2635 27.0693 22.7232C27.4945 22.1822 27.8114 21.6902 28.0136 21.3491C28.1891 21.0531 28.2793 20.8715 28.2793 20.8715C28.2793 20.8715 28.6959 20.1634 29.3612 20C29.383 19.9933 29.4058 19.9885 29.4285 19.9846C29.5149 19.9683 29.6051 19.9625 29.6981 19.9673C29.7123 20.0279 29.7275 20.0874 29.7408 20.148C29.7607 20.2287 29.7787 20.3104 29.7977 20.3911C31.9975 29.9164 15.517 30 15.0055 30Z" fill="white"/>
<path opacity="0.15" d="M15.0055 30.0001C15.0055 30.0001 15.0017 30.0001 14.9932 30.0001C14.4921 30.0001 -1.3563 29.9194 0.093787 20.9427C0.103277 20.8802 0.113716 20.8178 0.125104 20.7544C0.146931 20.6352 0.172555 20.5141 0.201025 20.3912C0.255118 20.1586 0.310161 19.927 0.366152 19.6945C0.402214 19.5465 0.438276 19.3985 0.475288 19.2515C0.509452 19.1151 0.543616 18.9786 0.578729 18.8412C0.611945 18.7115 0.64516 18.5818 0.679324 18.453C0.680273 18.4482 0.682171 18.4444 0.68312 18.4396C1.15003 18.306 1.63592 18.2099 2.11422 18.184C3.42385 18.1119 4.67369 18.5645 5.31332 20.199C5.63599 21.0244 6.22057 21.451 6.98073 21.6711C7.39355 21.7912 7.85761 21.8498 8.36059 21.8776C9.75657 21.9555 10.8887 20.9379 12.1386 20.4488C17.9351 18.1811 19.4592 21.844 21.9209 22.7934C24.2204 23.6803 25.8878 23.4016 27.0693 22.7232C27.5799 22.4302 27.9993 22.0631 28.3391 21.6826C28.5725 21.4231 28.768 21.157 28.9313 20.9052C29.1571 20.5545 29.3204 20.2307 29.4285 19.9847C29.5016 19.8204 29.551 19.6916 29.5785 19.6128C29.587 19.5888 29.5937 19.5696 29.5984 19.5552C29.6003 19.56 29.6013 19.5648 29.6022 19.5696C29.6345 19.7022 29.6667 19.8348 29.6981 19.9674C29.7123 20.0279 29.7275 20.0875 29.7408 20.148C29.7607 20.2288 29.7787 20.3104 29.7977 20.3912C31.9975 29.9165 15.517 30.0001 15.0055 30.0001Z" fill="white"/>
<defs>
<radialGradient id="paint0_radial_226_356" cx="0" cy="0" r="1" gradientUnits="userSpaceOnUse" gradientTransform="translate(14.9999 14.9998) scale(14.9075 15.0942)">
<stop offset="2.23767e-07" stop-color="#8485E0"/>
<stop offset="1" stop-color="#7680FC"/>
</radialGradient>
</defs>
</svg>
