<svg width="180" height="135" viewBox="0 0 180 135" fill="none" xmlns="http://www.w3.org/2000/svg">
<rect width="180" height="135" rx="11.6316" fill="#8E97FD"/>
<mask id="mask0_130_1903" style="mask-type:alpha" maskUnits="userSpaceOnUse" x="0" y="0" width="180" height="135">
<rect width="179.56" height="135" rx="11.6316" fill="#FA6E5A"/>
</mask>
<g mask="url(#mask0_130_1903)">
<path d="M37.2375 33.3158C11.2223 36.8235 4.59093 24.8388 0 17.9695V-25H89.7782V53.4851H73.965C65.4633 45.0081 63.2528 29.808 37.2375 33.3158Z" fill="#808AFF"/>
<path d="M142.319 33.3157C168.334 36.8235 174.966 24.8388 179.557 17.9695V-25H89.7784V53.4851H105.592C114.093 45.0081 116.304 29.808 142.319 33.3157Z" fill="#808AFF"/>
<g clip-path="url(#clip0_130_1903)">
<path d="M142.433 24.8356H139.586V38.4504H142.433V24.8356Z" fill="#9BA3FF"/>
<path d="M146.895 29.412H144.048V38.4502H146.895V29.412Z" fill="#9BA3FF"/>
<path d="M151.363 33.7252H148.516V38.4503H151.363V33.7252Z" fill="#9BA3FF"/>
</g>
<g clip-path="url(#clip1_130_1903)">
<path d="M87.882 108.927C103.901 108.927 116.887 106.775 116.887 104.122C116.887 101.468 103.901 99.3164 87.882 99.3164C71.8629 99.3164 58.877 101.468 58.877 104.122C58.877 106.775 71.8629 108.927 87.882 108.927Z" fill="#808AFF"/>
</g>
<path d="M82.9906 41.7788C82.9906 41.7788 81.8543 53.7442 86.561 53.564C91.6099 53.368 90.2518 41.7788 90.2518 41.7788C89.5919 39.9109 89.3291 38.8031 89.6248 36.8437H83.4944C83.7901 38.8031 83.6477 39.9109 82.9906 41.7788Z" fill="#FDBCA0"/>
<path d="M83.6171 39.1582C84.3125 39.3568 85.0134 39.5397 85.739 39.5972C86.4263 39.652 87.1327 39.6102 87.8172 39.5397C88.3867 39.4796 88.9945 39.3829 89.564 39.2027C89.4737 38.492 89.4873 37.7605 89.627 36.8409H83.4966C83.6307 37.7422 83.6718 38.4633 83.6171 39.1582Z" fill="#F0A38B"/>
<path d="M86.5609 38.4766C88.3105 38.4766 89.9944 37.8182 91.2265 36.6322C92.6941 35.2214 93.8441 33.6486 94.1808 31.8016C94.6134 29.4294 93.7729 27.0598 91.9384 25.1527H81.1807C79.3463 27.0572 78.5057 29.4294 78.9383 31.8016C79.2751 33.6486 80.4278 35.2214 81.8926 36.6322C83.1275 37.8156 84.8114 38.4766 86.5609 38.4766Z" fill="#FDBCA0"/>
<path d="M87.0944 43.174C86.8726 43.4066 86.6645 43.66 86.4674 43.9134C86.2292 43.7566 86.0402 43.5659 85.8322 43.37C85.813 43.3517 85.7747 43.37 85.7829 43.3961C85.9006 43.7044 86.147 43.9552 86.3989 44.1694C86.4537 44.2138 86.5304 44.2191 86.5851 44.1694C86.8507 43.9212 87.1108 43.6312 87.3162 43.3334C87.4038 43.2106 87.2012 43.0617 87.0944 43.174Z" fill="#DF8370"/>
<path d="M93.0142 42.7167C91.3796 42.85 89.7669 43.1034 88.1761 43.49C88.0803 43.5136 88.1214 43.652 88.2172 43.6311C89.7998 43.2967 91.3988 43.0694 93.0142 42.9649C93.1839 42.9545 93.1812 42.7037 93.0142 42.7167Z" fill="#DF8370"/>
<path d="M80.1048 42.7168C81.7393 42.85 83.352 43.1034 84.9428 43.4901C85.0387 43.5136 84.9976 43.6521 84.9018 43.6312C83.3192 43.2967 81.7202 43.0695 80.1048 42.965C79.9377 42.9545 79.9377 42.7037 80.1048 42.7168Z" fill="#DF8370"/>
<path d="M80.3866 21.2078C78.1004 22.4566 76.4904 24.4238 76.463 27.0677C76.4357 30.0486 80.2415 34.7956 80.1895 34.6781C78.9245 31.7781 78.5932 27.7862 81.7501 25.7876C82.065 25.589 82.4593 25.4741 82.7413 25.2416C82.7331 23.6662 81.8213 22.1405 80.3866 21.2078Z" fill="#3F4553"/>
<path d="M92.5098 21.2078C94.796 22.4566 96.406 24.4238 96.4333 27.0677C96.4607 30.0486 94.5907 32.7004 92.7288 34.9524C93.2025 33.9701 94.3004 27.7836 91.1435 25.7876C90.8286 25.589 90.4344 25.4741 90.1523 25.2416C90.1633 23.6662 91.0778 22.1405 92.5098 21.2078Z" fill="#424495"/>
<path d="M125.336 19.6298C123.589 18.8017 121.55 18.624 119.649 18.9924C118.729 19.17 117.859 19.4809 117.029 19.9015C116.479 20.1785 115.92 20.5756 115.28 20.6226C114.502 20.6775 113.82 20.1942 113.243 19.7657C111.446 18.4333 109.62 17.2655 107.309 16.9442C106.192 16.7874 104.944 16.9024 104.078 17.5555C103.191 16.4373 101.869 15.6405 100.412 15.3479C98.4846 14.9612 96.6529 15.5125 95.1388 16.6202C94.2845 16.2205 92.7896 15.6457 92.6006 15.5961C86.9056 14.1017 79.1296 17.8925 80.1372 24.2854C81.0024 29.7795 88.2937 32.3189 93.3454 31.1903C94.4351 33.1575 97.0472 33.6147 99.0596 32.5906C99.2129 32.703 99.3663 32.8153 99.5223 32.925C102.734 35.1718 106.471 36.6322 110.507 35.9686C112.041 35.7152 113.475 35.1875 114.795 34.4299C116.049 35.3286 117.7 35.6133 119.22 34.9184C120.35 34.4037 121.109 33.4528 121.38 32.3764C121.399 32.3764 121.418 32.3764 121.437 32.3764C124.794 32.3372 128.354 30.7462 129.211 27.3891C129.991 24.3376 128.255 21.0119 125.336 19.6298Z" fill="#4E5567"/>
<path d="M110.074 18.6345C111.178 19.494 111.832 20.6722 111.145 21.9707C110.586 23.0287 109.582 23.7994 108.851 24.7373C107.994 25.8346 107.846 27.2428 109.25 28.0448C110.633 28.8338 112.366 27.8515 113.519 27.1069C114.943 26.1847 116.47 23.5173 117.697 22.373C123.146 17.2916 128.556 22.7231 128.578 22.7414C127.872 21.4194 126.744 20.2986 125.336 19.6298C123.589 18.8017 121.549 18.624 119.649 18.9924C118.729 19.17 117.859 19.4809 117.029 19.9015C116.479 20.1785 115.92 20.5756 115.279 20.6226C114.502 20.6775 113.82 20.1941 113.242 19.7657C111.446 18.4333 109.62 17.2655 107.309 16.9441C106.217 16.7926 104.998 16.9023 104.136 17.5189C106.017 16.8214 108.566 17.4562 110.074 18.6345Z" fill="#3F4553"/>
<path d="M124.586 31.5144C123.253 31.6633 122.004 31.5927 120.777 31.0729C120.249 32.3817 119.167 33.7037 117.64 33.9101C116.613 34.0485 115.4 33.7429 115.189 32.7057C107.972 38.3122 99.8809 32.0578 99.1005 30.8848C96.8499 32.2851 94.0133 30.5765 93.1727 28.3898C91.4587 29.0246 89.4819 28.8287 87.8172 28.1468C84.715 26.8797 82.9955 23.3868 84.0798 20.304C84.9833 17.7411 87.3901 15.9881 90.0569 15.2749C84.8574 15.2461 79.2746 18.8096 80.1371 24.2855C81.0023 29.7797 88.2909 32.319 93.3452 31.1904C94.435 33.1577 97.047 33.6149 99.0595 32.5907C99.2128 32.7031 99.3661 32.8154 99.5222 32.9251C102.734 35.1719 106.471 36.6323 110.507 35.9687C112.04 35.7153 113.475 35.1876 114.795 34.43C116.049 35.3287 117.7 35.6134 119.219 34.9185C120.35 34.4038 121.109 33.4529 121.38 32.3765C121.399 32.3765 121.418 32.3765 121.437 32.3765C123.039 32.3582 124.685 31.9846 126.064 31.2374C125.58 31.3759 125.076 31.4595 124.586 31.5144Z" fill="#3F4553"/>
<path d="M84.6382 33.202C83.6799 33.3535 82.1219 33.4031 81.2376 32.4992C81.0623 32.3189 80.8241 32.5227 81.0432 32.703C81.0788 32.7317 81.1144 32.7578 81.15 32.784C81.0459 32.8127 80.9364 32.8258 80.8214 32.8179C80.8187 32.8179 80.8187 32.8205 80.8214 32.8232C80.961 32.8676 81.1034 32.8806 81.243 32.8545C81.2458 32.8571 81.2485 32.8597 81.2513 32.8597C81.1308 32.9355 80.9857 32.9668 80.8433 33.0113C80.8406 33.0113 80.8406 33.0139 80.8433 33.0165C81.0185 33.0322 81.202 33.0113 81.3471 32.9224C81.3635 32.9329 81.3799 32.9381 81.3964 32.9486C81.2869 33.0295 81.1636 33.0896 81.024 33.121C81.0103 33.1236 81.0131 33.1445 81.0267 33.1445C81.2047 33.1523 81.3745 33.1105 81.5168 33.0165C81.547 33.0322 81.5798 33.0452 81.6099 33.0609C81.5086 33.1314 81.4046 33.1941 81.2869 33.2464C81.2759 33.2516 81.2814 33.2699 81.2923 33.2699C81.4484 33.2751 81.5853 33.1994 81.7085 33.1105C81.7468 33.1288 81.7852 33.1419 81.8262 33.1576C81.7742 33.2072 81.714 33.2542 81.6565 33.3013C81.6483 33.3091 81.6565 33.3195 81.6674 33.3195C81.766 33.296 81.8564 33.2568 81.933 33.202C82.8119 33.5468 83.8414 33.5573 84.7231 33.2542C84.8161 33.2177 84.745 33.1863 84.6382 33.202Z" fill="#3F4553"/>
<path d="M88.5731 33.202C89.5314 33.3535 91.0893 33.4032 91.9737 32.4992C92.1489 32.319 92.3871 32.5227 92.1681 32.703C92.1325 32.7317 92.0969 32.7579 92.0613 32.784C92.1681 32.8127 92.2749 32.8258 92.3899 32.818C92.3926 32.818 92.3926 32.8206 92.3899 32.8232C92.2502 32.8676 92.1079 32.8807 91.9682 32.8545C91.9655 32.8571 91.9627 32.8598 91.96 32.8598C92.0805 32.9355 92.2256 32.9669 92.368 33.0113C92.3707 33.0113 92.3707 33.0139 92.368 33.0165C92.1927 33.0322 92.0093 33.0113 91.8642 32.9225C91.8477 32.9329 91.8313 32.9381 91.8149 32.9486C91.9244 33.0296 92.0476 33.0897 92.1873 33.121C92.2009 33.1236 92.1982 33.1445 92.1845 33.1445C92.0065 33.1524 91.8368 33.1106 91.6944 33.0165C91.6643 33.0322 91.6314 33.0452 91.6013 33.0609C91.7026 33.1315 91.8067 33.1942 91.9244 33.2464C91.9354 33.2516 91.9299 33.2699 91.9189 33.2699C91.7629 33.2752 91.626 33.1994 91.5028 33.1106C91.4644 33.1289 91.4261 33.1419 91.3878 33.1576C91.4398 33.2072 91.5 33.2543 91.5575 33.3013C91.5657 33.3091 91.5575 33.3196 91.5466 33.3196C91.448 33.2961 91.3576 33.2569 91.281 33.202C90.4021 33.5469 89.3726 33.5573 88.4882 33.2543C88.3978 33.2177 88.4663 33.1863 88.5731 33.202Z" fill="#3F4553"/>
<path d="M87.2094 35.1066C86.7603 35.3287 86.314 35.4175 85.8513 35.151C85.8184 35.1327 85.7801 35.1771 85.8102 35.2033C86.2072 35.5403 86.9136 35.6265 87.3107 35.232C87.3764 35.1641 87.2942 35.0648 87.2094 35.1066Z" fill="#3F4553"/>
<path d="M88.2362 36.6479C87.6749 36.8073 87.1218 36.8674 86.5742 36.8439C86.0266 36.8674 85.4736 36.8073 84.9123 36.6479C84.8986 36.6427 84.8876 36.6662 84.9013 36.6714C85.4407 36.8909 86.0075 37.0084 86.5742 37.0215C87.141 37.0084 87.7078 36.8909 88.2472 36.6714C88.2609 36.6662 88.2499 36.6453 88.2362 36.6479Z" fill="#3F4553"/>
<path d="M84.0007 34.4821C83.9542 34.4612 83.9049 34.4429 83.8556 34.4299C83.2286 34.2757 82.4866 33.9831 81.8322 34.0902C81.3695 34.166 81.2627 34.7016 81.5256 35.0177C81.8076 35.3573 82.3607 35.454 82.7878 35.4853C83.2177 35.5167 83.8912 35.5611 84.2116 35.2397C84.5018 34.9498 84.3047 34.6232 84.0007 34.4821Z" fill="#FBAD8B"/>
<path d="M89.1256 34.4822C89.1722 34.4613 89.2214 34.443 89.2707 34.4299C89.8977 34.2758 90.6397 33.9832 91.2941 34.0903C91.7568 34.1661 91.8636 34.7016 91.6008 35.0177C91.3188 35.3574 90.7657 35.454 90.3386 35.4854C89.9087 35.5167 89.2351 35.5611 88.9148 35.2398C88.6246 34.9498 88.8244 34.6232 89.1256 34.4822Z" fill="#FBAD8B"/>
<path d="M78.2925 30.5711C77.6436 30.4796 76.9481 30.7357 77.0659 31.4698C77.159 32.055 77.8188 32.6376 78.8264 32.4626C78.5526 31.8564 78.3637 31.219 78.2925 30.5711Z" fill="#F9CDB9"/>
<path d="M77.6645 31.1459C77.8425 31.0048 78.119 30.9421 78.3573 30.9787C78.3436 30.9082 78.3354 30.835 78.3244 30.7645C77.9986 30.7357 77.6153 30.8638 77.4291 31.0884C77.1388 31.4411 77.3579 31.833 77.6782 32.0734C77.7248 32.1099 77.7905 32.0525 77.7467 32.008C77.5139 31.7729 77.3524 31.3941 77.6645 31.1459Z" fill="#F8C4AB"/>
<path d="M78.4863 31.5377C78.3165 31.3914 78.0948 31.3104 77.8401 31.3209C77.7826 31.3235 77.7607 31.4149 77.8264 31.4228C78.0592 31.4541 78.259 31.5691 78.3823 31.7467C78.2399 31.8199 78.1358 31.9792 78.2809 32.1099C78.3959 32.2144 78.5657 32.2379 78.7272 32.2222C78.6369 31.9975 78.552 31.7702 78.4863 31.5377Z" fill="#F8C4AB"/>
<path d="M78.2348 32.2928C78.2321 32.2901 78.2266 32.2928 78.2293 32.2954C78.3334 32.5409 78.4812 33.1157 78.1253 33.2333C77.8871 33.3116 77.8652 33.019 77.9008 32.8649C77.9336 32.7238 78.0158 32.5775 78.0842 32.4521C78.0842 32.4521 77.9199 32.4182 77.7694 32.345C77.564 32.5122 77.4901 32.7604 77.5257 33.0217C77.5585 33.2594 77.7173 33.5207 77.9994 33.5285C78.2512 33.5363 78.432 33.3299 78.4703 33.1105C78.5141 32.8257 78.3936 32.5253 78.2348 32.2928Z" fill="#FDCA27"/>
<path d="M130.629 77.2858C129.09 75.538 125.761 75.3969 123.576 75.1801C117.008 74.527 110.272 74.6889 103.701 75.1958C100.429 75.4492 97.1734 75.828 93.9316 76.327C91.5851 76.6901 88.9648 76.9436 86.6211 77.6594C84.2773 76.9436 81.657 76.6875 79.3106 76.327C76.0715 75.8254 72.8133 75.4466 69.5413 75.1958C62.9701 74.6889 56.2319 74.527 49.6661 75.1801C47.4839 75.3969 44.1518 75.538 42.613 77.2858C41.1262 78.9735 42.9607 81.0191 44.3735 82.0929C46.3257 83.5768 48.8036 84.3083 51.1693 84.9484C54.14 85.7478 57.1792 86.2912 60.2348 86.704C73.9112 88.5432 81.3367 87.1873 88.4857 87.1037C88.7595 87.4355 89.0168 87.7803 89.2523 88.1383C96.4998 88.1827 105.809 87.6314 113.005 86.704C116.063 86.3095 119.099 85.7504 122.07 84.9484C124.438 84.3109 126.914 83.5794 128.866 82.0929C130.279 81.0191 132.113 78.9735 130.629 77.2858Z" fill="#93BFA8"/>
<path d="M120.925 78.4954C121.153 78.2185 122.53 77.8763 123.072 77.6464C120.517 77.8423 117.952 78.1349 115.403 78.3857C110.554 78.8612 105.699 80.0865 101.105 81.62C98.9063 82.3542 96.7131 83.1249 94.5282 83.8982C92.7978 84.5095 91.0865 85.1783 89.4629 86.0117C89.712 85.9386 89.9612 85.8654 90.2104 85.7949C92.8005 85.0686 103.356 79.6214 122.9 78.95C122.448 78.856 120.838 78.6026 120.925 78.4954Z" fill="#66A986"/>
<path d="M52.6041 78.1114C52.3769 77.8344 50.9996 77.4922 50.4575 77.2623C53.0121 77.4582 55.5776 77.7508 58.1267 78.0016C62.9757 78.4771 67.8302 79.7024 72.4246 81.236C74.6232 81.9701 76.8164 82.7408 79.0013 83.5141C80.7317 84.1254 82.443 84.7942 84.0666 85.6276C83.8175 85.5545 83.5683 85.4813 83.3191 85.4108C80.729 84.6845 70.174 79.2374 50.63 78.5659C51.079 78.4719 52.689 78.2185 52.6041 78.1114Z" fill="#66A986"/>
<path d="M93.228 83.8878C92.1273 83.4672 90.9636 83.4567 89.8931 83.893C88.0641 84.6428 85.8217 83.4933 83.9215 83.6997C82.1719 83.8904 81.1068 85.7897 82.4457 87.0019C82.7688 87.2945 86.0161 88.4179 91.1608 86.1294C91.7248 85.8786 92.2751 85.7349 92.9131 85.7427C93.061 85.7453 93.2006 85.8786 93.3567 85.8629C93.6907 85.8237 93.9645 85.7662 94.1507 85.4579C94.5888 84.7317 93.8577 84.1282 93.228 83.8878Z" fill="#FDB597"/>
<path d="M80.3869 87.7412C81.3151 87.0385 82.4295 86.7093 83.5822 86.8373C85.559 87.0567 87.3634 85.3429 89.2471 85.0216C90.9803 84.7264 92.5711 86.2547 91.6511 87.7856C91.4293 88.154 88.653 90.116 83.0373 89.327C82.4213 89.2408 81.8518 89.2539 81.2439 89.4341C81.1043 89.4759 81.0085 89.6431 80.8524 89.6693C80.5211 89.7241 80.2418 89.7424 79.9707 89.4994C79.3355 88.9221 79.8557 88.1436 80.3869 87.7412Z" fill="#FDBCA0"/>
<path d="M117.7 44.8225C117.067 45.1334 116.402 45.4835 115.78 45.81C116.109 45.554 117.932 43.7827 118.642 43.3464C118.718 43.2994 118.537 42.5809 116.673 44.0021C116.117 44.4254 115.46 44.8538 114.937 45.3163C115.602 44.1119 116.158 42.8918 117.029 41.7893C117.064 41.7449 117.053 41.6953 117.023 41.6613C116.845 41.5281 116.399 41.6796 116.199 41.8834C115.843 42.2439 114.491 43.639 113.834 45.1099C113.845 44.6056 113.798 43.7879 113.423 43.6207C113.187 43.5136 112.796 43.6547 112.544 43.673C112.048 43.7069 111.4 43.7749 110.937 43.5868C110.868 43.5606 110.696 43.5397 110.759 43.7566C110.97 44.4672 112.01 44.556 112.656 44.7128C112.875 45.2196 112.259 46.0504 111.87 46.3012C111.238 46.7113 110.315 46.309 110.474 45.5044C110.614 44.7964 111.057 44.475 110.666 43.7801C110.537 43.5502 109.984 43.3412 110.107 43.7122C110.425 44.6605 109.513 45.4573 109.395 46.3743C109.302 47.1006 109.705 47.7459 110.11 48.3285C110.085 48.3886 110.066 48.4487 110.044 48.5062C109.494 49.4153 109.067 50.3741 108.757 51.3773C109.464 51.5994 111.539 51.4583 111.531 51.4426C111.539 51.4583 111.78 50.0528 112.333 49.4597C112.938 48.8092 113.699 48.3076 114.428 47.7955C115.958 46.7166 117.513 45.6689 119.091 44.6501C119.181 44.5952 119.107 44.1302 117.7 44.8225Z" fill="#FDBCA0"/>
<path d="M55.7085 44.8224C56.341 45.1333 57.0063 45.4834 57.6279 45.81C57.2993 45.5539 55.4758 43.7826 54.7666 43.3463C54.69 43.2993 54.8707 42.5809 56.7353 44.0021C57.2911 44.4253 57.9482 44.8538 58.4712 45.3162C57.8058 44.1118 57.25 42.8918 56.3793 41.7893C56.3437 41.7449 56.3547 41.6952 56.3848 41.6613C56.5628 41.528 57.0091 41.6796 57.2089 41.8833C57.5649 42.2439 58.9175 43.639 59.5746 45.1098C59.5636 44.6056 59.6102 43.7879 59.9853 43.6207C60.2208 43.5136 60.6123 43.6546 60.8642 43.6729C61.3598 43.7069 62.0087 43.7748 62.4714 43.5867C62.5399 43.5606 62.7123 43.5397 62.6494 43.7565C62.4385 44.4671 61.3981 44.556 60.7519 44.7127C60.5329 45.2195 61.1489 46.0503 61.5377 46.3011C62.1702 46.7113 63.0929 46.309 62.9341 45.5043C62.7945 44.7963 62.3509 44.475 62.7425 43.78C62.8712 43.5501 63.4242 43.3411 63.301 43.7121C62.9834 44.6605 63.8952 45.4573 64.0129 46.3743C64.106 47.1006 63.7035 47.7459 63.2983 48.3284C63.3229 48.3885 63.3421 48.4486 63.364 48.5061C63.9143 49.4153 64.3415 50.3741 64.6509 51.3773C63.9445 51.5993 61.869 51.4583 61.8773 51.4426C61.869 51.4583 61.6281 50.0527 61.075 49.4597C60.4699 48.8092 59.7087 48.3075 58.9804 47.7955C57.4499 46.7165 55.8947 45.6689 54.3176 44.65C54.2272 44.5951 54.3012 44.1301 55.7085 44.8224Z" fill="#FDBCA0"/>
<path d="M108.019 50.4524C106.992 52.9788 103.51 62.3055 102.056 66.2609C101.19 64.1447 98.8522 54.9565 96.8836 44.2895C96.2703 40.9742 92.3522 41.447 90.2549 41.7788C90.1043 44.0047 87.8399 50.1755 86.6243 50.1886C85.4086 50.1755 82.9991 44.441 82.9937 41.7788C80.8991 41.447 76.9783 40.9742 76.3649 44.2895C74.3936 54.9565 72.058 64.1474 71.1928 66.2609C69.7362 62.3055 66.2562 52.9788 65.2294 50.4524C63.9125 51.0455 62.4558 51.3721 61.002 51.453C62.1273 54.3085 65.8428 74.5296 71.3188 74.5296C73.6926 74.5296 75.1958 72.1234 77.6162 63.2095C77.7367 64.6986 77.7778 67.5593 77.7175 70.5664C77.6737 72.7321 76.1048 75.235 74.0048 74.7516C73.5804 74.655 73.0273 74.9606 73.553 75.504C73.6954 75.653 73.8788 75.7627 74.0677 75.8463C77.4218 77.3616 77.5532 79.6266 79.5328 80.946C80.7293 81.7428 82.2024 81.9936 83.607 82.2653C85.1293 82.5579 86.6982 82.7773 88.2479 82.5553C90.8244 82.1869 92.8259 80.5436 94.9588 79.2583C96.1498 78.5398 97.36 77.9651 98.7591 77.7691C102.36 77.2649 102.121 74.8405 101.368 74.8901C98.8468 75.0547 95.5255 71.9876 95.5064 68.6122C95.4927 66.3654 95.5392 64.372 95.6323 63.2095C98.0527 72.1234 99.5559 74.5296 101.93 74.5296C107.406 74.5296 111.121 54.3085 112.247 51.453C110.793 51.3721 109.336 51.0429 108.019 50.4524Z" fill="#F2EDE4"/>
<path d="M93.5313 59.2827C93.5039 59.301 93.482 59.3193 93.4601 59.3376C93.0138 59.753 92.6661 60.252 92.228 60.6752C91.7899 61.0958 91.2232 61.4485 90.6016 61.4459C89.1094 61.4381 88.362 59.7295 87.4639 58.8595C86.0839 57.5271 84.745 60.5629 83.7183 61.1585C82.6641 61.7699 81.9495 61.4015 81.1719 60.6778C80.6955 60.2337 80.2903 59.7347 79.8495 59.2592C79.7345 59.1338 79.4716 59.2671 79.5428 59.429C80.0575 60.6099 81.2212 62.5693 82.7572 62.6007C83.6991 62.619 84.4712 62.1043 85.09 61.4721C85.3939 61.1612 86.2318 59.4917 86.7766 59.7112C86.8779 59.753 86.9491 59.8392 87.0176 59.9228C87.2886 60.2624 87.5405 60.6204 87.8308 60.9443C87.9814 61.1115 88.4167 61.3884 88.4167 61.6184C89.0328 62.2166 89.8788 62.6869 90.7522 62.585C91.6448 62.4805 92.3512 61.8143 92.8687 61.1115C93.2356 60.6125 93.545 60.0743 93.7887 59.51C93.8243 59.429 93.8544 59.3272 93.7914 59.2618C93.723 59.1939 93.6189 59.2253 93.5313 59.2827Z" fill="#D9C9AC"/>
<g clip-path="url(#clip2_130_1903)">
<path d="M143.782 72.8518L153.152 69.86L148.455 56.726L139.084 59.7178C138.717 59.8345 138.518 60.2105 138.645 60.5573L142.893 72.4337C143.016 72.7805 143.414 72.9685 143.782 72.8518Z" fill="#3F4553"/>
<path d="M143.789 72.5925L153.393 69.5262L148.867 56.8751L139.263 59.9415C139.027 60.016 138.9 60.2591 138.978 60.486L143.212 72.3235C143.295 72.5472 143.552 72.6671 143.789 72.5925Z" fill="#DDDDE3"/>
<path d="M143.991 72.5278L153.595 69.4615L149.069 56.8104L139.465 59.8768C139.229 59.9513 139.102 60.1944 139.181 60.4213L143.415 72.2588C143.497 72.4825 143.754 72.6056 143.991 72.5278Z" fill="#E2E5FF"/>
<path d="M144.509 72.6184L153.879 69.6266L149.182 56.4958L139.812 59.4876C139.445 59.6043 139.246 59.9803 139.373 60.3271L143.621 72.2035C143.744 72.5504 144.142 72.7351 144.509 72.6184Z" fill="#4E5567"/>
<path d="M148.657 56.6636L148.456 56.728L153.153 69.8621L153.355 69.7978L148.657 56.6636Z" fill="#3F4553"/>
<path d="M149.996 66.9234L150.205 66.5021L150.644 66.716L147.213 57.1248C147.151 56.9562 146.997 56.9692 146.818 57.0275C146.64 57.0859 146.506 57.1637 146.568 57.3322L149.996 66.9234Z" fill="#93BFA8"/>
<path d="M128.942 60.146L135.249 53.0821L133.974 52.0665L127.667 59.1304L128.942 60.146Z" fill="#3F4553"/>
<path d="M127.666 59.1281L128.938 60.1426L127.099 61.0988C127.038 61.1313 126.955 61.0632 126.976 61.0016L127.666 59.1281Z" fill="#F2EDE4"/>
<path d="M127.103 61.1019L127.601 60.8426L127.169 60.4958L126.983 61.0015C126.959 61.063 127.042 61.1311 127.103 61.1019Z" fill="#3F4553"/>
<path d="M128.519 59.8096L134.826 52.7456L134.393 52.4008L128.086 59.4648L128.519 59.8096Z" fill="#4E5567"/>
</g>
<g clip-path="url(#clip3_130_1903)">
<path d="M59.2995 -7.99998C51.1703 -7.99998 44.5845 -1.72636 44.5845 6.01743C44.5845 13.7568 51.1703 20.0348 59.2995 20.0348C67.424 20.0348 74.0145 13.7612 74.0145 6.01743C74.0098 -1.72636 67.424 -7.99998 59.2995 -7.99998ZM59.2995 17.664C52.5468 17.664 47.0733 12.45 47.0733 6.01743C47.0733 -0.415125 52.5468 -5.62916 59.2995 -5.62916C66.0522 -5.62916 71.5257 -0.415125 71.5257 6.01743C71.5257 12.45 66.0522 17.664 59.2995 17.664Z" fill="#808AFF"/>
<path d="M70.5804 10.5079C73.1854 4.57348 70.2471 -2.24898 64.0173 -4.73054C57.7876 -7.21209 50.6256 -4.41302 48.0206 1.52135C45.4155 7.45573 48.3539 14.2782 54.5836 16.7597C60.8133 19.2413 67.9753 16.4422 70.5804 10.5079Z" fill="#AEB4FC"/>
<path d="M70.4266 6.03893C70.4266 5.22216 69.0918 5.21775 69.0918 6.03893C69.0918 6.86011 70.4266 6.86011 70.4266 6.03893Z" fill="#808AFF"/>
<path d="M59.2708 16.6173C60.1282 16.6173 60.1328 15.3458 59.2708 15.3458C58.4134 15.3458 58.4087 16.6173 59.2708 16.6173Z" fill="#808AFF"/>
<path d="M48.1675 5.99101C48.1675 6.80777 49.5023 6.81218 49.5023 5.99101C49.5023 5.17424 48.1675 5.16983 48.1675 5.99101Z" fill="#808AFF"/>
<path d="M64.5549 9.42122C64.4761 9.42122 64.3973 9.40356 64.3278 9.35941L59.0674 6.37933C58.933 6.30428 58.8496 6.163 58.8496 6.01289V-1.99579C58.8496 -2.22978 59.0489 -2.41962 59.2945 -2.41962C59.5402 -2.41962 59.7395 -2.22978 59.7395 -1.99579V5.77449L64.782 8.63095C64.9952 8.75015 65.0647 9.01063 64.9349 9.21372C64.8561 9.34617 64.7078 9.42122 64.5549 9.42122Z" fill="#808AFF"/>
</g>
<path d="M29.9734 34.7716L29.6798 33.185L27.9772 33.4614C27.7071 32.7207 27.2668 32.0684 26.6973 31.5377L27.6954 30.2054L26.298 29.2823L25.3058 30.609C24.5895 30.2773 23.7911 30.0949 22.9573 30.1004L22.6579 28.4918L20.9729 28.7682L21.2664 30.3713C20.4797 30.6256 19.7869 31.0402 19.2233 31.5764L17.8083 30.6366L16.8278 31.9523L18.2369 32.8865C17.8846 33.5609 17.6909 34.3127 17.6968 35.0977L16 35.3741L16.2936 36.9607L17.9962 36.6843C18.2663 37.425 18.7066 38.0773 19.2761 38.608L18.278 39.9403L19.6754 40.8634L20.6676 39.5367C21.3839 39.8684 22.1823 40.0508 23.0161 40.0453L23.3155 41.6539L25.0005 41.3775L24.707 39.7744C25.4937 39.5201 26.1865 39.1055 26.7501 38.5693L28.1651 39.5091L29.1456 38.1934L27.7365 37.2592C28.0888 36.5848 28.2825 35.8329 28.2766 35.048L29.9734 34.7716ZM23.2568 36.5461C22.3937 36.6898 21.5717 36.1425 21.4191 35.3299C21.2664 34.5173 21.8477 33.7434 22.7108 33.5996C23.5738 33.4559 24.3958 34.0032 24.5484 34.8158C24.7011 35.6284 24.1257 36.4023 23.2568 36.5461Z" fill="#9BA3FF"/>
<path d="M46.0371 31.5707V29.5751H43.8941C43.7356 28.6132 43.3422 27.7287 42.7668 26.9659L44.2875 25.5341L42.7903 24.1245L41.2755 25.5507C40.4712 25.0034 39.5377 24.622 38.5161 24.4617V22.4329H36.3966V24.4506C35.375 24.5999 34.4298 24.9703 33.6254 25.512L32.1048 24.0803L30.6076 25.4899L32.1224 26.9161C31.5411 27.6735 31.136 28.5524 30.9658 29.5143H28.811V31.5099H30.954C31.1125 32.4718 31.5059 33.3562 32.0813 34.1191L30.5606 35.5509L32.0578 36.9605L33.5726 35.5343C34.3769 36.0816 35.3104 36.463 36.332 36.6233V38.6521H38.4515V36.6344C39.4731 36.4851 40.4125 36.1147 41.2227 35.573L42.7433 37.0047L44.2405 35.5951L42.7257 34.1689C43.307 33.4115 43.7121 32.5326 43.8823 31.5707H46.0371V31.5707ZM37.4241 32.3999C36.3379 32.3999 35.4513 31.5707 35.4513 30.5425C35.4513 29.5198 36.332 28.6851 37.4241 28.6851C38.5102 28.6851 39.3968 29.5143 39.3968 30.5425C39.3909 31.5652 38.5102 32.3999 37.4241 32.3999Z" fill="#AEB4FC"/>
<g opacity="0.3">
<path d="M145.468 16.7445L129.722 13.3733C129.567 13.3412 129.469 13.1943 129.506 13.0474L131.488 4.63806C131.522 4.49114 131.676 4.39764 131.83 4.43237L147.576 7.80624C147.731 7.8383 147.829 7.98522 147.792 8.13214L145.807 16.5414C145.773 16.6857 145.622 16.7792 145.468 16.7445Z" fill="#ECECEC"/>
<path d="M129.767 13.1756C129.725 13.1676 129.699 13.1276 129.711 13.0902L131.696 4.68085C131.705 4.64078 131.747 4.61674 131.786 4.62742L147.532 8.0013C147.574 8.00931 147.599 8.04938 147.588 8.08678L145.602 16.4961C145.594 16.5362 145.552 16.5602 145.513 16.5495L129.767 13.1756Z" fill="#F5F4F5"/>
<path d="M145.36 7.32907L134.05 4.90619L134.004 5.10165L145.314 7.52453L145.36 7.32907Z" fill="#706F6E"/>
<path d="M132.95 6.11537L132.428 6.00317C132.364 5.98982 132.322 5.92838 132.336 5.86427L132.417 5.51432C132.431 5.45288 132.496 5.41281 132.563 5.42617L133.084 5.53836C133.149 5.55172 133.191 5.61316 133.177 5.67727L133.096 6.02722C133.079 6.08866 133.014 6.12873 132.95 6.11537Z" fill="#585857"/>
<path d="M132.45 5.90441C132.442 5.90173 132.436 5.89372 132.439 5.88571L132.52 5.53576C132.523 5.52775 132.531 5.52241 132.54 5.52508L133.061 5.63727C133.07 5.63995 133.075 5.64796 133.072 5.65597L132.991 6.00592C132.988 6.01393 132.98 6.01927 132.972 6.0166L132.45 5.90441Z" fill="#5E5E5D"/>
<path d="M133.905 6.31849L133.384 6.20629C133.319 6.19294 133.277 6.13149 133.291 6.06738L133.373 5.71744C133.387 5.656 133.451 5.61593 133.518 5.62929L134.04 5.74148C134.105 5.75484 134.147 5.81628 134.133 5.88039L134.051 6.23033C134.034 6.29445 133.97 6.33184 133.905 6.31849Z" fill="#585857"/>
<path d="M133.406 6.10988C133.397 6.10721 133.391 6.09919 133.394 6.09118L133.476 5.74124C133.478 5.73322 133.487 5.72788 133.495 5.73055L134.017 5.84275C134.025 5.84542 134.031 5.85343 134.028 5.86145L133.947 6.21139C133.944 6.2194 133.936 6.22475 133.927 6.22208L133.406 6.10988Z" fill="#5E5E5D"/>
<path d="M134.862 6.52411L134.34 6.41192C134.276 6.39856 134.234 6.33712 134.248 6.27301L134.329 5.92307C134.343 5.86163 134.408 5.82156 134.475 5.83491L134.997 5.94711C135.061 5.96047 135.103 6.02191 135.089 6.08602L135.008 6.43596C134.991 6.4974 134.926 6.53747 134.862 6.52411Z" fill="#585857"/>
<path d="M134.362 6.313C134.354 6.31033 134.348 6.30231 134.351 6.2943L134.432 5.94436C134.435 5.93634 134.443 5.931 134.452 5.93367L134.973 6.04587C134.982 6.04854 134.987 6.05655 134.985 6.06457L134.903 6.41451C134.9 6.42252 134.892 6.42786 134.884 6.42519L134.362 6.313Z" fill="#5E5E5D"/>
<path d="M135.818 6.72693L135.296 6.61473C135.232 6.60137 135.19 6.53993 135.204 6.47582L135.285 6.12588C135.299 6.06444 135.364 6.02437 135.431 6.03773L135.953 6.14992C136.017 6.16328 136.059 6.22472 136.045 6.28883L135.964 6.63877C135.947 6.70288 135.883 6.74295 135.818 6.72693Z" fill="#585857"/>
<path d="M135.32 6.51863C135.311 6.51595 135.306 6.50794 135.308 6.49993L135.39 6.14998C135.392 6.14197 135.401 6.13663 135.409 6.1393L135.931 6.25149C135.939 6.25417 135.945 6.26218 135.942 6.27019L135.861 6.62014C135.858 6.62815 135.85 6.63349 135.841 6.63082L135.32 6.51863Z" fill="#5E5E5D"/>
<path d="M136.771 6.93271L136.25 6.82051C136.185 6.80715 136.143 6.74571 136.157 6.6816L136.238 6.33166C136.252 6.27022 136.317 6.23015 136.384 6.24351L136.906 6.3557C136.97 6.36906 137.012 6.4305 136.998 6.49461L136.917 6.84455C136.903 6.90866 136.838 6.94606 136.771 6.93271Z" fill="#585857"/>
<path d="M136.275 6.72441C136.267 6.72174 136.261 6.71373 136.264 6.70571L136.345 6.35577C136.348 6.34776 136.356 6.34241 136.365 6.34509L136.886 6.45728C136.895 6.45995 136.9 6.46797 136.898 6.47598L136.816 6.82592C136.814 6.83394 136.805 6.83928 136.797 6.83661L136.275 6.72441Z" fill="#5E5E5D"/>
<path d="M137.727 7.13834L137.206 7.02615C137.141 7.01279 137.099 6.95135 137.113 6.88724L137.194 6.5373C137.208 6.47586 137.273 6.43579 137.34 6.44914L137.862 6.56134C137.926 6.57469 137.968 6.63613 137.954 6.70025L137.873 7.05019C137.859 7.11163 137.794 7.1517 137.727 7.13834Z" fill="#585857"/>
<path d="M137.232 6.92735C137.223 6.92468 137.218 6.91666 137.22 6.90865L137.302 6.5587C137.305 6.55069 137.313 6.54535 137.321 6.54802L137.843 6.66021C137.851 6.66289 137.857 6.6709 137.854 6.67891L137.773 7.02886C137.77 7.03687 137.762 7.04221 137.753 7.03954L137.232 6.92735Z" fill="#5E5E5D"/>
<path d="M138.685 7.34142L138.163 7.22923C138.099 7.21587 138.057 7.15443 138.071 7.09032L138.152 6.74037C138.166 6.67893 138.23 6.63886 138.298 6.65222L138.819 6.76442C138.884 6.77777 138.926 6.83921 138.912 6.90332L138.831 7.25327C138.817 7.31738 138.749 7.35745 138.685 7.34142Z" fill="#585857"/>
<path d="M138.188 7.13313C138.179 7.13046 138.174 7.12244 138.177 7.11443L138.258 6.76448C138.261 6.75647 138.269 6.75113 138.277 6.7538L138.799 6.86599C138.807 6.86867 138.813 6.87668 138.81 6.88469L138.729 7.23464C138.726 7.24265 138.718 7.24799 138.709 7.24532L138.188 7.13313Z" fill="#5E5E5D"/>
<path d="M139.64 7.5472L139.119 7.43501C139.054 7.42165 139.012 7.36021 139.026 7.2961L139.107 6.94615C139.121 6.88471 139.186 6.84464 139.253 6.858L139.775 6.9702C139.839 6.98355 139.881 7.04499 139.867 7.1091L139.786 7.45905C139.769 7.52316 139.705 7.56056 139.64 7.5472Z" fill="#585857"/>
<path d="M139.144 7.33879C139.135 7.33611 139.13 7.3281 139.133 7.32009L139.214 6.97014C139.217 6.96213 139.225 6.95679 139.234 6.95946L139.755 7.07165C139.764 7.07433 139.769 7.08234 139.766 7.09035L139.685 7.4403C139.682 7.44831 139.674 7.45365 139.665 7.45098L139.144 7.33879Z" fill="#5E5E5D"/>
<path d="M140.597 7.75284L140.075 7.64064C140.011 7.62728 139.969 7.56584 139.983 7.50173L140.064 7.15179C140.078 7.09035 140.143 7.05028 140.21 7.06364L140.731 7.17583C140.796 7.18919 140.838 7.25063 140.824 7.31474L140.743 7.66468C140.726 7.72612 140.661 7.76619 140.597 7.75284Z" fill="#585857"/>
<path d="M140.097 7.54187C140.089 7.5392 140.083 7.53119 140.086 7.52317L140.168 7.17323C140.17 7.16522 140.179 7.15987 140.187 7.16254L140.709 7.27474C140.717 7.27741 140.723 7.28542 140.72 7.29344L140.639 7.64338C140.636 7.6514 140.627 7.65674 140.619 7.65407L140.097 7.54187Z" fill="#5E5E5D"/>
<path d="M141.553 7.95595L141.031 7.84376C140.967 7.8304 140.925 7.76896 140.939 7.70485L141.02 7.35491C141.034 7.29347 141.099 7.2534 141.166 7.26675L141.687 7.37895C141.752 7.39231 141.794 7.45375 141.78 7.51786L141.699 7.8678C141.682 7.93191 141.617 7.97198 141.553 7.95595Z" fill="#585857"/>
<path d="M141.053 7.74765C141.045 7.74498 141.039 7.73697 141.042 7.72895L141.124 7.37901C141.126 7.371 141.135 7.36565 141.143 7.36832L141.665 7.48052C141.673 7.48319 141.679 7.4912 141.676 7.49922L141.595 7.84916C141.592 7.85718 141.583 7.86252 141.575 7.85985L141.053 7.74765Z" fill="#5E5E5D"/>
<path d="M142.509 8.16158L141.987 8.04939C141.923 8.03603 141.881 7.97459 141.895 7.91048L141.976 7.56053C141.99 7.49909 142.055 7.45902 142.122 7.47238L142.644 7.58458C142.708 7.59793 142.75 7.65937 142.736 7.72348L142.655 8.07343C142.638 8.13754 142.573 8.17494 142.509 8.16158Z" fill="#585857"/>
<path d="M142.01 7.95313C142.001 7.95046 141.995 7.94245 141.998 7.93443L142.08 7.58449C142.082 7.57648 142.091 7.57114 142.099 7.57381L142.621 7.686C142.629 7.68867 142.635 7.69669 142.632 7.7047L142.551 8.05464C142.548 8.06266 142.54 8.068 142.531 8.06533L142.01 7.95313Z" fill="#5E5E5D"/>
<path d="M143.465 8.36736L142.944 8.25517C142.879 8.24181 142.837 8.18037 142.851 8.11626L142.933 7.76631C142.947 7.70487 143.011 7.6648 143.078 7.67816L143.6 7.79036C143.665 7.80371 143.707 7.86515 143.693 7.92926L143.611 8.27921C143.594 8.34065 143.53 8.38072 143.465 8.36736Z" fill="#585857"/>
<path d="M142.966 8.1561C142.958 8.15343 142.952 8.14541 142.955 8.1374L143.036 7.78746C143.039 7.77944 143.047 7.7741 143.056 7.77677L143.577 7.88897C143.586 7.89164 143.591 7.89965 143.589 7.90767L143.507 8.25761C143.504 8.26562 143.496 8.27097 143.488 8.26829L142.966 8.1561Z" fill="#5E5E5D"/>
<path d="M144.422 8.57017L143.9 8.45798C143.835 8.44462 143.793 8.38318 143.807 8.31907L143.889 7.96913C143.903 7.90769 143.967 7.86762 144.035 7.88097L144.556 7.99317C144.621 8.00653 144.663 8.06797 144.649 8.13208L144.567 8.48202C144.551 8.54613 144.486 8.5862 144.422 8.57017Z" fill="#585857"/>
<path d="M143.922 8.36188C143.914 8.35921 143.908 8.35119 143.911 8.34318L143.992 7.99324C143.995 7.98522 144.003 7.97988 144.012 7.98255L144.533 8.09475C144.542 8.09742 144.547 8.10543 144.545 8.11345L144.463 8.46339C144.461 8.4714 144.452 8.47675 144.444 8.47407L143.922 8.36188Z" fill="#5E5E5D"/>
<path d="M145.378 8.77581L144.856 8.66361C144.791 8.65026 144.749 8.58882 144.763 8.5247L144.845 8.17476C144.859 8.11332 144.923 8.07325 144.991 8.08661L145.512 8.1988C145.577 8.21216 145.619 8.2736 145.605 8.33771L145.523 8.68765C145.507 8.75177 145.442 8.78917 145.378 8.77581Z" fill="#585857"/>
<path d="M144.878 8.56766C144.87 8.56499 144.864 8.55697 144.867 8.54896L144.948 8.19902C144.951 8.191 144.959 8.18566 144.968 8.18833L145.489 8.30053C145.498 8.3032 145.504 8.31121 145.501 8.31923L145.419 8.66917C145.417 8.67718 145.408 8.68253 145.4 8.67985L144.878 8.56766Z" fill="#5E5E5D"/>
<path d="M146.332 8.98159L145.81 8.86939C145.746 8.85604 145.704 8.7946 145.718 8.73048L145.799 8.38054C145.813 8.3191 145.877 8.27903 145.945 8.29239L146.466 8.40458C146.531 8.41794 146.573 8.47938 146.559 8.54349L146.477 8.89343C146.463 8.95487 146.399 8.99495 146.332 8.98159Z" fill="#585857"/>
<path d="M145.835 8.77062C145.827 8.76795 145.821 8.75994 145.824 8.75193L145.905 8.40198C145.908 8.39397 145.917 8.38863 145.925 8.3913L146.447 8.50349C146.455 8.50616 146.461 8.51418 146.458 8.52219L146.376 8.87213C146.374 8.88015 146.365 8.88549 146.357 8.88282L145.835 8.77062Z" fill="#5E5E5D"/>
<path d="M132.416 6.1235L133.061 6.26241C133.134 6.27844 133.182 6.34789 133.165 6.42002L133.022 7.02374C133.005 7.09319 132.932 7.1386 132.857 7.12257L132.212 6.98366C132.139 6.96764 132.091 6.89818 132.108 6.82606L132.251 6.22234C132.268 6.15289 132.341 6.10747 132.416 6.1235Z" fill="#585857"/>
<path d="M132.237 6.88451C132.22 6.88184 132.209 6.86314 132.212 6.84711L132.355 6.24339C132.358 6.22736 132.377 6.21668 132.394 6.21935L133.039 6.35826C133.056 6.36093 133.067 6.37963 133.064 6.39566L132.921 6.99937C132.919 7.0154 132.899 7.02609 132.882 7.02342L132.237 6.88451Z" fill="#5E5E5D"/>
<path d="M133.518 6.36098L134.163 6.49989C134.236 6.51592 134.283 6.58538 134.267 6.6575L134.124 7.26122C134.107 7.33067 134.034 7.37608 133.958 7.36006L133.313 7.22115C133.24 7.20512 133.193 7.13567 133.209 7.06354L133.352 6.45982C133.369 6.3877 133.442 6.34496 133.518 6.36098Z" fill="#585857"/>
<path d="M133.339 7.12228C133.322 7.11961 133.311 7.10091 133.314 7.08489L133.457 6.48117C133.46 6.46514 133.479 6.45446 133.496 6.45713L134.141 6.59604C134.158 6.59871 134.169 6.61741 134.166 6.63343L134.023 7.23715C134.021 7.25318 134.001 7.26386 133.984 7.26119L133.339 7.12228Z" fill="#5E5E5D"/>
<path d="M134.62 6.59623L135.265 6.73513C135.338 6.75116 135.386 6.82062 135.369 6.89274L135.226 7.49646C135.209 7.56591 135.136 7.61133 135.061 7.5953L134.416 7.45639C134.343 7.44036 134.295 7.37091 134.312 7.29878L134.455 6.69507C134.472 6.62561 134.548 6.5802 134.62 6.59623Z" fill="#585857"/>
<path d="M134.441 7.35736C134.424 7.35468 134.413 7.33598 134.416 7.31996L134.559 6.71624C134.562 6.70021 134.581 6.68953 134.598 6.6922L135.243 6.83111C135.26 6.83378 135.271 6.85248 135.268 6.8685L135.125 7.47222C135.123 7.48825 135.103 7.49893 135.086 7.49626L134.441 7.35736Z" fill="#5E5E5D"/>
<path d="M135.723 6.83133L136.368 6.97024C136.441 6.98627 136.489 7.05572 136.472 7.12785L136.329 7.73157C136.312 7.80102 136.239 7.84643 136.163 7.83041L135.518 7.6915C135.445 7.67547 135.398 7.60602 135.415 7.53389L135.558 6.93017C135.574 6.86072 135.65 6.81531 135.723 6.83133Z" fill="#585857"/>
<path d="M135.543 7.59512C135.526 7.59245 135.515 7.57375 135.518 7.55773L135.661 6.95401C135.664 6.93798 135.683 6.9273 135.7 6.92997L136.345 7.06887C136.362 7.07155 136.373 7.09025 136.371 7.10627L136.227 7.70999C136.225 7.72602 136.205 7.7367 136.188 7.73403L135.543 7.59512Z" fill="#5E5E5D"/>
<path d="M136.825 7.06908L137.47 7.20799C137.543 7.22402 137.591 7.29347 137.574 7.3656L137.431 7.96932C137.414 8.03877 137.341 8.08418 137.265 8.06816L136.62 7.92925C136.547 7.91322 136.5 7.84377 136.517 7.77164L136.66 7.16792C136.679 7.0958 136.752 7.05306 136.825 7.06908Z" fill="#585857"/>
<path d="M136.645 7.83023C136.628 7.82756 136.617 7.80886 136.62 7.79283L136.763 7.18912C136.765 7.17309 136.785 7.1624 136.802 7.16507L137.447 7.30398C137.464 7.30665 137.475 7.32535 137.472 7.34138L137.329 7.9451C137.326 7.96113 137.307 7.97181 137.29 7.96914L136.645 7.83023Z" fill="#5E5E5D"/>
<path d="M137.927 7.30418L138.572 7.44309C138.644 7.45912 138.692 7.52857 138.675 7.6007L138.532 8.20441C138.515 8.27387 138.443 8.31928 138.367 8.30325L137.722 8.16435C137.649 8.14832 137.601 8.07886 137.618 8.00674L137.761 7.40302C137.781 7.33357 137.854 7.28815 137.927 7.30418Z" fill="#585857"/>
<path d="M137.747 8.06546C137.73 8.06279 137.719 8.04409 137.722 8.02806L137.865 7.42435C137.867 7.40832 137.887 7.39763 137.904 7.4003L138.549 7.53921C138.566 7.54188 138.577 7.56058 138.574 7.57661L138.431 8.18033C138.428 8.19636 138.409 8.20704 138.392 8.20437L137.747 8.06546Z" fill="#5E5E5D"/>
<path d="M139.03 7.54166L139.675 7.68057C139.748 7.6966 139.795 7.76605 139.778 7.83818L139.635 8.4419C139.619 8.51135 139.546 8.55676 139.47 8.54074L138.825 8.40183C138.752 8.3858 138.704 8.31635 138.721 8.24422L138.864 7.6405C138.884 7.56838 138.957 7.52564 139.03 7.54166Z" fill="#585857"/>
<path d="M138.849 8.30311C138.833 8.30044 138.821 8.28174 138.824 8.26571L138.967 7.66199C138.97 7.64597 138.99 7.63528 139.006 7.63795L139.651 7.77686C139.668 7.77953 139.679 7.79823 139.677 7.81426L139.534 8.41798C139.531 8.434 139.511 8.44469 139.494 8.44202L138.849 8.30311Z" fill="#5E5E5D"/>
<path d="M140.134 7.77706L140.779 7.91597C140.852 7.93199 140.899 8.00145 140.882 8.07357L140.739 8.67729C140.723 8.74675 140.65 8.79216 140.574 8.77613L139.929 8.63722C139.856 8.62119 139.808 8.55174 139.825 8.47962L139.968 7.8759C139.985 7.80644 140.058 7.76103 140.134 7.77706Z" fill="#585857"/>
<path d="M139.951 8.53834C139.935 8.53567 139.923 8.51697 139.926 8.50094L140.069 7.89722C140.072 7.8812 140.092 7.87051 140.108 7.87318L140.753 8.01209C140.77 8.01476 140.782 8.03346 140.779 8.04949L140.636 8.65321C140.633 8.66923 140.613 8.67992 140.596 8.67725L139.951 8.53834Z" fill="#5E5E5D"/>
<path d="M141.236 8.01186L141.881 8.15077C141.954 8.1668 142.001 8.23625 141.984 8.30838L141.841 8.91209C141.825 8.98155 141.752 9.02696 141.676 9.01093L141.031 8.87202C140.958 8.856 140.91 8.78654 140.927 8.71442L141.07 8.1107C141.087 8.04124 141.16 7.99583 141.236 8.01186Z" fill="#585857"/>
<path d="M141.056 8.77583C141.04 8.77316 141.028 8.75446 141.031 8.73844L141.174 8.13472C141.177 8.11869 141.197 8.10801 141.213 8.11068L141.858 8.24959C141.875 8.25226 141.886 8.27096 141.884 8.28698L141.741 8.8907C141.738 8.90673 141.718 8.91741 141.701 8.91474L141.056 8.77583Z" fill="#5E5E5D"/>
<path d="M142.338 8.24976L142.983 8.38867C143.056 8.4047 143.103 8.47415 143.086 8.54628L142.943 9.15C142.927 9.21945 142.854 9.26486 142.778 9.24884L142.133 9.10993C142.06 9.0939 142.012 9.02445 142.029 8.95232L142.172 8.3486C142.189 8.27648 142.262 8.23374 142.338 8.24976Z" fill="#585857"/>
<path d="M142.158 9.01119C142.142 9.00851 142.13 8.98982 142.133 8.97379L142.276 8.37007C142.279 8.35404 142.299 8.34336 142.316 8.34603L142.96 8.48494C142.977 8.48761 142.989 8.50631 142.986 8.52234L142.843 9.12605C142.84 9.14208 142.82 9.15277 142.803 9.15009L142.158 9.01119Z" fill="#5E5E5D"/>
<path d="M143.44 8.48474L144.085 8.62365C144.158 8.63967 144.206 8.70913 144.189 8.78125L144.046 9.38497C144.029 9.45443 143.956 9.49984 143.881 9.48381L143.238 9.3449C143.166 9.32887 143.118 9.25942 143.135 9.18729L143.278 8.58358C143.292 8.51412 143.365 8.46871 143.44 8.48474Z" fill="#585857"/>
<path d="M143.261 9.24614C143.244 9.24347 143.232 9.22477 143.235 9.20874L143.378 8.60502C143.381 8.589 143.401 8.57831 143.418 8.58098L144.063 8.71989C144.079 8.72256 144.091 8.74126 144.088 8.75729L143.942 9.36101C143.939 9.37704 143.92 9.38772 143.903 9.38505L143.261 9.24614Z" fill="#5E5E5D"/>
<path d="M144.541 8.72264L145.186 8.86155C145.259 8.87758 145.307 8.94703 145.29 9.01916L145.147 9.62287C145.13 9.69233 145.057 9.73774 144.982 9.72171L144.337 9.58281C144.264 9.56678 144.216 9.49732 144.233 9.4252L144.376 8.82148C144.393 8.74935 144.468 8.70661 144.541 8.72264Z" fill="#585857"/>
<path d="M144.363 9.48391C144.346 9.48124 144.335 9.46254 144.337 9.44651L144.48 8.8428C144.483 8.82677 144.503 8.81608 144.52 8.81875L145.165 8.95766C145.181 8.96033 145.193 8.97903 145.19 8.99506L145.047 9.59878C145.044 9.61481 145.024 9.62549 145.008 9.62282L144.363 9.48391Z" fill="#5E5E5D"/>
<path d="M145.644 8.95759L146.289 9.09649C146.362 9.11252 146.409 9.18197 146.393 9.2541L146.25 9.85782C146.233 9.92727 146.16 9.97268 146.084 9.95666L145.439 9.81775C145.366 9.80172 145.319 9.73227 145.335 9.66014L145.481 9.05642C145.495 8.98697 145.571 8.94156 145.644 8.95759Z" fill="#585857"/>
<path d="M145.465 9.71901C145.448 9.71634 145.437 9.69764 145.439 9.68161L145.582 9.07789C145.585 9.06187 145.605 9.05118 145.622 9.05385L146.267 9.19276C146.283 9.19543 146.295 9.21413 146.292 9.23016L146.149 9.83388C146.146 9.84991 146.126 9.86059 146.11 9.85792L145.465 9.71901Z" fill="#5E5E5D"/>
<path d="M132.184 7.10109L132.829 7.24C132.902 7.25603 132.949 7.32548 132.933 7.39761L132.79 8.00133C132.773 8.07078 132.7 8.11619 132.624 8.10017L131.979 7.96126C131.906 7.94523 131.859 7.87578 131.875 7.80365L132.021 7.19993C132.038 7.13048 132.111 7.08507 132.184 7.10109Z" fill="#585857"/>
<path d="M132.004 7.86237C131.987 7.8597 131.976 7.841 131.978 7.82498L132.121 7.22126C132.124 7.20523 132.144 7.19455 132.161 7.19722L132.806 7.33612C132.823 7.3388 132.834 7.3575 132.831 7.37352L132.688 7.97724C132.685 7.99327 132.666 8.00395 132.649 8.00128L132.004 7.86237Z" fill="#5E5E5D"/>
<path d="M133.288 7.33884L133.933 7.47775C134.006 7.49378 134.054 7.56324 134.037 7.63536L133.894 8.23908C133.877 8.30853 133.804 8.35394 133.729 8.33792L133.084 8.19901C133.011 8.18298 132.963 8.11353 132.98 8.0414L133.123 7.43768C133.14 7.36556 133.213 7.32282 133.288 7.33884Z" fill="#585857"/>
<path d="M133.106 8.10014C133.089 8.09747 133.078 8.07877 133.081 8.06275L133.224 7.45903C133.227 7.443 133.246 7.43232 133.263 7.43499L133.908 7.5739C133.925 7.57657 133.936 7.59527 133.933 7.61129L133.79 8.21501C133.788 8.23104 133.768 8.24172 133.751 8.23905L133.106 8.10014Z" fill="#5E5E5D"/>
<path d="M134.39 7.57394L135.035 7.71285C135.108 7.72888 135.156 7.79833 135.139 7.87046L134.996 8.47417C134.979 8.54363 134.906 8.58904 134.831 8.57301L134.186 8.4341C134.113 8.41808 134.065 8.34862 134.082 8.2765L134.225 7.67278C134.242 7.60333 134.315 7.55791 134.39 7.57394Z" fill="#585857"/>
<path d="M134.211 8.33522C134.194 8.33255 134.183 8.31385 134.186 8.29782L134.329 7.69411C134.332 7.67808 134.351 7.66739 134.368 7.67006L135.013 7.80897C135.03 7.81164 135.041 7.83034 135.038 7.84637L134.895 8.45009C134.893 8.46612 134.873 8.4768 134.856 8.47413L134.211 8.33522Z" fill="#5E5E5D"/>
<path d="M135.493 7.80905L136.137 7.94796C136.21 7.96398 136.258 8.03344 136.241 8.10556L136.098 8.70928C136.081 8.77874 136.009 8.82415 135.933 8.80812L135.288 8.66921C135.215 8.65318 135.167 8.58373 135.184 8.51161L135.327 7.90789C135.344 7.83843 135.417 7.79302 135.493 7.80905Z" fill="#585857"/>
<path d="M135.313 8.57033C135.296 8.56766 135.285 8.54896 135.288 8.53293L135.431 7.92921C135.433 7.91319 135.453 7.9025 135.47 7.90517L136.115 8.04408C136.132 8.04675 136.143 8.06545 136.14 8.08148L135.997 8.6852C135.994 8.70122 135.975 8.71191 135.958 8.70924L135.313 8.57033Z" fill="#5E5E5D"/>
<path d="M136.595 8.04668L137.24 8.18558C137.313 8.20161 137.361 8.27107 137.344 8.34319L137.201 8.94691C137.184 9.01636 137.111 9.06178 137.035 9.04575L136.39 8.90684C136.317 8.89081 136.27 8.82136 136.287 8.74923L136.43 8.14552C136.446 8.07339 136.522 8.03065 136.595 8.04668Z" fill="#585857"/>
<path d="M136.416 8.8081C136.399 8.80543 136.388 8.78673 136.391 8.7707L136.534 8.16698C136.536 8.15096 136.556 8.14027 136.573 8.14294L137.218 8.28185C137.235 8.28452 137.246 8.30322 137.243 8.31925L137.1 8.92297C137.097 8.93899 137.078 8.94968 137.061 8.94701L136.416 8.8081Z" fill="#5E5E5D"/>
<path d="M137.697 8.28162L138.342 8.42053C138.415 8.43656 138.463 8.50601 138.446 8.57814L138.303 9.18186C138.286 9.25131 138.213 9.29672 138.137 9.28069L137.492 9.14179C137.419 9.12576 137.372 9.0563 137.389 8.98418L137.532 8.38046C137.548 8.31101 137.624 8.26559 137.697 8.28162Z" fill="#585857"/>
<path d="M137.517 9.04305C137.501 9.04038 137.489 9.02168 137.492 9.00566L137.635 8.40194C137.638 8.38591 137.658 8.37522 137.674 8.3779L138.319 8.5168C138.336 8.51948 138.347 8.53818 138.345 8.5542L138.202 9.15792C138.199 9.17395 138.179 9.18463 138.162 9.18196L137.517 9.04305Z" fill="#5E5E5D"/>
<path d="M138.799 8.51952L139.444 8.65843C139.517 8.67446 139.564 8.74391 139.547 8.81604L139.404 9.41976C139.388 9.48921 139.315 9.53462 139.239 9.5186L138.594 9.37969C138.521 9.36366 138.473 9.29421 138.49 9.22208L138.633 8.61836C138.653 8.54624 138.726 8.5035 138.799 8.51952Z" fill="#585857"/>
<path d="M138.619 9.28082C138.603 9.27815 138.591 9.25945 138.594 9.24343L138.737 8.63971C138.74 8.62368 138.76 8.613 138.776 8.61567L139.421 8.75457C139.438 8.75725 139.449 8.77595 139.447 8.79197L139.304 9.39569C139.301 9.41172 139.281 9.4224 139.264 9.41973L138.619 9.28082Z" fill="#5E5E5D"/>
<path d="M139.901 8.7545L140.546 8.89341C140.619 8.90943 140.667 8.97889 140.65 9.05101L140.507 9.65473C140.49 9.72419 140.417 9.7696 140.341 9.75357L139.696 9.61466C139.624 9.59863 139.576 9.52918 139.593 9.45705L139.736 8.85334C139.755 8.78388 139.828 8.73847 139.901 8.7545Z" fill="#585857"/>
<path d="M139.721 9.5159C139.704 9.51323 139.693 9.49453 139.696 9.4785L139.839 8.87479C139.842 8.85876 139.861 8.84807 139.878 8.85074L140.523 8.98965C140.54 8.99232 140.551 9.01102 140.548 9.02705L140.405 9.63077C140.402 9.6468 140.383 9.65748 140.366 9.65481L139.721 9.5159Z" fill="#5E5E5D"/>
<path d="M141.003 8.98973L141.648 9.12864C141.721 9.14466 141.769 9.21412 141.752 9.28624L141.609 9.88996C141.592 9.95942 141.519 10.0048 141.444 9.9888L140.799 9.84989C140.726 9.83386 140.678 9.76441 140.695 9.69228L140.838 9.08857C140.857 9.01911 140.93 8.9737 141.003 8.98973Z" fill="#585857"/>
<path d="M140.823 9.751C140.806 9.74833 140.795 9.72963 140.798 9.7136L140.941 9.10988C140.944 9.09386 140.963 9.08317 140.98 9.08584L141.625 9.22475C141.642 9.22742 141.653 9.24612 141.65 9.26215L141.507 9.86587C141.504 9.88189 141.485 9.89258 141.468 9.88991L140.823 9.751Z" fill="#5E5E5D"/>
<path d="M142.105 9.22748L142.75 9.36639C142.823 9.38241 142.871 9.45187 142.854 9.52399L142.711 10.1277C142.694 10.1972 142.621 10.2426 142.546 10.2266L141.901 10.0876C141.828 10.0716 141.78 10.0022 141.797 9.93003L141.94 9.32632C141.959 9.25419 142.032 9.21145 142.105 9.22748Z" fill="#585857"/>
<path d="M141.926 9.98877C141.909 9.9861 141.898 9.9674 141.9 9.95137L142.043 9.34766C142.046 9.33163 142.066 9.32094 142.083 9.32361L142.728 9.46252C142.744 9.46519 142.756 9.48389 142.753 9.49992L142.61 10.1036C142.607 10.1197 142.587 10.1304 142.571 10.1277L141.926 9.98877Z" fill="#5E5E5D"/>
<path d="M143.21 9.46257L143.855 9.60148C143.928 9.6175 143.975 9.68696 143.959 9.75908L143.816 10.3628C143.799 10.4323 143.726 10.4777 143.65 10.4616L143.005 10.3227C142.932 10.3067 142.885 10.2372 142.901 10.1651L143.044 9.56141C143.061 9.49195 143.134 9.44654 143.21 9.46257Z" fill="#585857"/>
<path d="M143.028 10.2239C143.011 10.2212 143 10.2025 143.002 10.1865L143.145 9.58276C143.148 9.56673 143.168 9.55605 143.185 9.55872L143.83 9.69763C143.846 9.7003 143.858 9.719 143.855 9.73503L143.712 10.3387C143.709 10.3548 143.689 10.3655 143.673 10.3628L143.028 10.2239Z" fill="#5E5E5D"/>
<path d="M144.312 9.7002L144.957 9.83911C145.03 9.85514 145.077 9.92459 145.061 9.99672L144.918 10.6004C144.901 10.6699 144.828 10.7153 144.752 10.6993L144.107 10.5604C144.034 10.5443 143.987 10.4749 144.003 10.4028L144.146 9.79904C144.163 9.72692 144.236 9.68418 144.312 9.7002Z" fill="#585857"/>
<path d="M144.133 10.4616C144.116 10.459 144.105 10.4403 144.108 10.4242L144.251 9.82053C144.254 9.8045 144.273 9.79382 144.29 9.79649L144.935 9.9354C144.952 9.93807 144.963 9.95677 144.96 9.9728L144.817 10.5765C144.815 10.5925 144.795 10.6032 144.778 10.6006L144.133 10.4616Z" fill="#5E5E5D"/>
<path d="M145.414 9.93544L146.059 10.0744C146.132 10.0904 146.179 10.1598 146.163 10.232L146.02 10.8357C146.003 10.9051 145.93 10.9505 145.854 10.9345L145.209 10.7956C145.136 10.7796 145.089 10.7101 145.105 10.638L145.248 10.0343C145.265 9.96483 145.338 9.91942 145.414 9.93544Z" fill="#585857"/>
<path d="M145.235 10.6967C145.218 10.6941 145.207 10.6754 145.209 10.6593L145.352 10.0556C145.355 10.0396 145.375 10.0289 145.392 10.0316L146.037 10.1705C146.053 10.1731 146.065 10.1918 146.062 10.2079L145.919 10.8116C145.916 10.8276 145.896 10.8383 145.88 10.8356L145.235 10.6967Z" fill="#5E5E5D"/>
<path d="M131.953 8.07866L132.598 8.21756C132.671 8.23359 132.719 8.30305 132.702 8.37517L132.559 8.97889C132.542 9.04834 132.469 9.09376 132.394 9.07773L131.749 8.93882C131.676 8.92279 131.628 8.85334 131.645 8.78121L131.788 8.17749C131.808 8.10804 131.881 8.06263 131.953 8.07866Z" fill="#585857"/>
<path d="M131.775 8.83994C131.758 8.83726 131.747 8.81857 131.749 8.80254L131.892 8.19882C131.895 8.18279 131.915 8.17211 131.932 8.17478L132.577 8.31369C132.594 8.31636 132.605 8.33506 132.602 8.35109L132.459 8.9548C132.456 8.97083 132.436 8.98152 132.42 8.97884L131.775 8.83994Z" fill="#5E5E5D"/>
<path d="M133.056 8.31367L133.701 8.45258C133.774 8.46861 133.822 8.53806 133.805 8.61019L133.662 9.2139C133.645 9.28336 133.572 9.32877 133.496 9.31274L132.851 9.17383C132.778 9.15781 132.731 9.08835 132.748 9.01623L132.891 8.41251C132.91 8.34305 132.983 8.30031 133.056 8.31367Z" fill="#585857"/>
<path d="M132.876 9.07801C132.859 9.07534 132.848 9.05664 132.851 9.04061L132.994 8.4369C132.997 8.42087 133.016 8.41018 133.033 8.41285L133.678 8.55176C133.695 8.55443 133.706 8.57313 133.704 8.58916L133.56 9.19288C133.558 9.20891 133.538 9.21959 133.521 9.21692L132.876 9.07801Z" fill="#5E5E5D"/>
<path d="M134.158 8.55153L134.803 8.69044C134.875 8.70647 134.923 8.77592 134.906 8.84805L134.763 9.45177C134.746 9.52122 134.674 9.56663 134.598 9.55061L133.953 9.4117C133.88 9.39567 133.832 9.32621 133.849 9.25409L133.992 8.65037C134.012 8.58092 134.085 8.53551 134.158 8.55153Z" fill="#585857"/>
<path d="M133.978 9.31281C133.961 9.31014 133.95 9.29144 133.953 9.27542L134.096 8.6717C134.099 8.65567 134.119 8.64499 134.135 8.64766L134.78 8.78656C134.797 8.78924 134.808 8.80794 134.806 8.82396L134.663 9.42768C134.66 9.44371 134.64 9.45439 134.623 9.45172L133.978 9.31281Z" fill="#5E5E5D"/>
<path d="M135.263 8.78661L135.908 8.92552C135.981 8.94155 136.029 9.011 136.012 9.08313L135.869 9.68684C135.852 9.7563 135.779 9.80171 135.703 9.78568L135.058 9.64677C134.985 9.63075 134.938 9.56129 134.955 9.48917L135.098 8.88545C135.114 8.816 135.187 8.77058 135.263 8.78661Z" fill="#585857"/>
<path d="M135.081 9.54791C135.064 9.54524 135.053 9.52654 135.056 9.51052L135.199 8.9068C135.201 8.89077 135.221 8.88008 135.238 8.88276L135.883 9.02166C135.9 9.02434 135.911 9.04304 135.908 9.05906L135.765 9.66278C135.762 9.67881 135.743 9.68949 135.726 9.68682L135.081 9.54791Z" fill="#5E5E5D"/>
<path d="M136.365 9.02451L137.01 9.16342C137.082 9.17945 137.13 9.2489 137.113 9.32103L136.97 9.92475C136.953 9.9942 136.881 10.0396 136.805 10.0236L136.16 9.88468C136.087 9.86865 136.039 9.79919 136.056 9.72707L136.199 9.12335C136.216 9.05123 136.289 9.00849 136.365 9.02451Z" fill="#585857"/>
<path d="M136.185 9.78569C136.169 9.78302 136.157 9.76432 136.16 9.74829L136.303 9.14458C136.306 9.12855 136.326 9.11786 136.342 9.12053L136.987 9.25944C137.004 9.26211 137.015 9.28081 137.013 9.29684L136.87 9.90056C136.867 9.91659 136.847 9.92727 136.83 9.9246L136.185 9.78569Z" fill="#5E5E5D"/>
<path d="M137.467 9.25949L138.112 9.3984C138.185 9.41442 138.232 9.48388 138.215 9.556L138.072 10.1597C138.056 10.2292 137.983 10.2746 137.907 10.2586L137.262 10.1197C137.189 10.1036 137.141 10.0342 137.158 9.96204L137.301 9.35833C137.318 9.28887 137.391 9.24346 137.467 9.25949Z" fill="#585857"/>
<path d="M137.287 10.0208C137.27 10.0181 137.259 9.9994 137.262 9.98337L137.405 9.37965C137.407 9.36362 137.427 9.35294 137.444 9.35561L138.089 9.49452C138.106 9.49719 138.117 9.51589 138.114 9.53192L137.971 10.1356C137.968 10.1517 137.949 10.1623 137.932 10.1597L137.287 10.0208Z" fill="#5E5E5D"/>
<path d="M138.57 9.4945L139.215 9.63341C139.288 9.64944 139.335 9.71889 139.318 9.79102L139.175 10.3947C139.159 10.4642 139.086 10.5096 139.01 10.4936L138.365 10.3547C138.292 10.3386 138.244 10.2692 138.261 10.1971L138.404 9.59334C138.421 9.52389 138.494 9.48115 138.57 9.4945Z" fill="#585857"/>
<path d="M138.389 10.2585C138.373 10.2559 138.361 10.2372 138.364 10.2211L138.507 9.61742C138.51 9.60139 138.53 9.59071 138.546 9.59338L139.191 9.73229C139.208 9.73496 139.219 9.75366 139.217 9.76969L139.074 10.3734C139.071 10.3894 139.051 10.4001 139.034 10.3974L138.389 10.2585Z" fill="#5E5E5D"/>
<path d="M139.671 9.73219L140.316 9.8711C140.389 9.88713 140.436 9.95658 140.419 10.0287L140.276 10.6324C140.26 10.7019 140.187 10.7473 140.111 10.7313L139.466 10.5924C139.393 10.5763 139.345 10.5069 139.362 10.4347L139.505 9.83103C139.522 9.75891 139.598 9.71617 139.671 9.73219Z" fill="#585857"/>
<path d="M139.492 10.4936C139.475 10.491 139.464 10.4723 139.467 10.4562L139.61 9.85252C139.613 9.83649 139.632 9.82581 139.649 9.82848L140.294 9.96739C140.311 9.97006 140.322 9.98876 140.319 10.0048L140.176 10.6085C140.173 10.6245 140.154 10.6352 140.137 10.6325L139.492 10.4936Z" fill="#5E5E5D"/>
<path d="M140.773 9.96731L141.418 10.1062C141.491 10.1222 141.538 10.1917 141.522 10.2638L141.379 10.8675C141.362 10.937 141.289 10.9824 141.213 10.9664L140.568 10.8275C140.495 10.8114 140.447 10.742 140.464 10.6699L140.607 10.0662C140.624 9.9967 140.7 9.95128 140.773 9.96731Z" fill="#585857"/>
<path d="M140.594 10.7286C140.577 10.7259 140.566 10.7072 140.569 10.6912L140.712 10.0875C140.715 10.0714 140.734 10.0608 140.751 10.0634L141.396 10.2023C141.413 10.205 141.424 10.2237 141.421 10.2397L141.275 10.8435C141.273 10.8595 141.253 10.8702 141.236 10.8675L140.594 10.7286Z" fill="#5E5E5D"/>
<path d="M141.875 10.2051L142.52 10.344C142.593 10.36 142.641 10.4295 142.624 10.5016L142.481 11.1053C142.464 11.1748 142.391 11.2202 142.316 11.2041L141.671 11.0652C141.598 11.0492 141.55 10.9798 141.567 10.9076L141.71 10.3039C141.73 10.2318 141.802 10.189 141.875 10.2051Z" fill="#585857"/>
<path d="M141.695 10.9664C141.678 10.9637 141.667 10.9477 141.67 10.929L141.813 10.3252C141.816 10.3092 141.835 10.2985 141.852 10.3012L142.497 10.4401C142.514 10.4428 142.525 10.4615 142.522 10.4775L142.379 11.0812C142.377 11.0973 142.357 11.1079 142.34 11.1053L141.695 10.9664Z" fill="#5E5E5D"/>
<path d="M142.977 10.4402L143.622 10.5791C143.695 10.5951 143.743 10.6646 143.726 10.7367L143.583 11.3404C143.566 11.4098 143.493 11.4553 143.418 11.4392L142.773 11.3003C142.7 11.2843 142.652 11.2148 142.669 11.1427L142.812 10.539C142.832 10.4695 142.904 10.4241 142.977 10.4402Z" fill="#585857"/>
<path d="M142.798 11.2014C142.781 11.1988 142.77 11.1801 142.773 11.164L142.916 10.5603C142.919 10.5443 142.938 10.5336 142.955 10.5363L143.6 10.6752C143.617 10.6779 143.628 10.6966 143.625 10.7126L143.482 11.3163C143.48 11.3323 143.46 11.343 143.443 11.3403L142.798 11.2014Z" fill="#5E5E5D"/>
<path d="M144.079 10.6753L144.724 10.8142C144.797 10.8302 144.845 10.8997 144.828 10.9718L144.685 11.5755C144.668 11.645 144.595 11.6904 144.52 11.6743L143.875 11.5354C143.802 11.5194 143.754 11.4499 143.771 11.3778L143.914 10.7741C143.934 10.7047 144.007 10.6592 144.079 10.6753Z" fill="#585857"/>
<path d="M143.899 11.4392C143.882 11.4365 143.871 11.4178 143.874 11.4018L144.017 10.7981C144.02 10.7821 144.039 10.7714 144.056 10.7741L144.701 10.913C144.718 10.9156 144.729 10.9343 144.726 10.9504L144.583 11.5514C144.581 11.5674 144.561 11.5781 144.544 11.5754L143.899 11.4392Z" fill="#5E5E5D"/>
<path d="M145.184 10.913L145.829 11.0519C145.902 11.068 145.95 11.1374 145.933 11.2095L145.79 11.8133C145.773 11.8827 145.7 11.9281 145.625 11.9121L144.98 11.7732C144.907 11.7572 144.859 11.6877 144.876 11.6156L145.019 11.0119C145.036 10.9397 145.109 10.897 145.184 10.913Z" fill="#585857"/>
<path d="M145.002 11.6743C144.985 11.6716 144.974 11.6529 144.977 11.6369L145.12 11.0332C145.122 11.0172 145.142 11.0065 145.159 11.0092L145.804 11.1481C145.821 11.1507 145.832 11.1694 145.829 11.1855L145.686 11.7892C145.683 11.8052 145.664 11.8159 145.647 11.8132L145.002 11.6743Z" fill="#5E5E5D"/>
<path d="M131.724 9.05652L132.369 9.19543C132.442 9.21146 132.49 9.28091 132.473 9.35304L132.33 9.95676C132.313 10.0262 132.24 10.0716 132.164 10.0556L131.519 9.91669C131.446 9.90066 131.399 9.83121 131.415 9.75908L131.559 9.15536C131.575 9.08591 131.651 9.0405 131.724 9.05652Z" fill="#585857"/>
<path d="M131.544 9.8178C131.527 9.81512 131.516 9.79643 131.518 9.7804L131.662 9.17668C131.664 9.16065 131.684 9.14997 131.701 9.15264L132.346 9.29155C132.363 9.29422 132.374 9.31292 132.371 9.32895L132.228 9.93266C132.225 9.94869 132.206 9.95938 132.189 9.9567L131.544 9.8178Z" fill="#5E5E5D"/>
<path d="M132.826 9.29162L133.471 9.43053C133.544 9.44656 133.592 9.51601 133.575 9.58814L133.432 10.1919C133.415 10.2613 133.342 10.3067 133.266 10.2907L132.621 10.1518C132.548 10.1358 132.501 10.0663 132.518 9.99418L132.661 9.39046C132.677 9.32101 132.753 9.2756 132.826 9.29162Z" fill="#585857"/>
<path d="M132.646 10.0529C132.629 10.0502 132.618 10.0315 132.621 10.0155L132.764 9.41179C132.767 9.39576 132.786 9.38507 132.803 9.38775L133.448 9.52665C133.465 9.52933 133.476 9.54802 133.474 9.56405L133.331 10.1678C133.328 10.1838 133.308 10.1945 133.291 10.1918L132.646 10.0529Z" fill="#5E5E5D"/>
<path d="M133.929 9.52938L134.574 9.66829C134.646 9.68432 134.694 9.75377 134.677 9.8259L134.534 10.4296C134.517 10.4991 134.445 10.5445 134.369 10.5285L133.724 10.3895C133.651 10.3735 133.603 10.3041 133.62 10.2319L133.766 9.62822C133.783 9.55609 133.856 9.51335 133.929 9.52938Z" fill="#585857"/>
<path d="M133.749 10.2905C133.732 10.2879 133.721 10.2692 133.724 10.2531L133.867 9.64941C133.869 9.63338 133.889 9.6227 133.906 9.62537L134.551 9.76428C134.568 9.76695 134.579 9.78565 134.576 9.80168L134.433 10.4054C134.43 10.4214 134.411 10.4321 134.394 10.4294L133.749 10.2905Z" fill="#5E5E5D"/>
<path d="M135.03 9.76447L135.675 9.90338C135.748 9.91941 135.795 9.98886 135.778 10.061L135.635 10.6647C135.619 10.7342 135.546 10.7796 135.47 10.7635L134.825 10.6246C134.752 10.6086 134.704 10.5392 134.721 10.467L134.864 9.86331C134.884 9.79386 134.957 9.74844 135.03 9.76447Z" fill="#585857"/>
<path d="M134.851 10.5258C134.834 10.5231 134.823 10.5044 134.826 10.4884L134.969 9.88467C134.971 9.86864 134.991 9.85795 135.008 9.86062L135.653 9.99953C135.67 10.0022 135.681 10.0209 135.678 10.0369L135.535 10.6406C135.532 10.6567 135.513 10.6674 135.496 10.6647L134.851 10.5258Z" fill="#5E5E5D"/>
<path d="M140.083 10.8463L136.126 9.99944C136.053 9.98342 135.983 10.0262 135.966 10.0956L135.812 10.7447C135.801 10.7928 135.831 10.8409 135.882 10.8516L139.875 11.7064C139.948 11.7224 140.024 11.677 140.041 11.6076L140.184 11.0039C140.203 10.9344 140.158 10.8623 140.083 10.8463Z" fill="#585857"/>
<path d="M135.921 10.7554L136.073 10.1169C136.076 10.1036 136.092 10.0929 136.106 10.0982L140.063 10.945C140.08 10.9477 140.091 10.9664 140.089 10.9824L139.945 11.5862C139.943 11.6022 139.923 11.6129 139.906 11.6102L135.921 10.7554Z" fill="#5E5E5D"/>
<path d="M140.543 10.9452L141.188 11.0841C141.261 11.1001 141.309 11.1696 141.292 11.2417L141.149 11.8454C141.132 11.9149 141.059 11.9603 140.984 11.9443L140.339 11.8053C140.266 11.7893 140.218 11.7199 140.235 11.6477L140.378 11.044C140.395 10.9746 140.468 10.9292 140.543 10.9452Z" fill="#585857"/>
<path d="M140.364 11.7065C140.347 11.7038 140.336 11.6851 140.338 11.6691L140.481 11.0653C140.484 11.0493 140.504 11.0386 140.521 11.0413L141.166 11.1802C141.182 11.1829 141.194 11.2016 141.191 11.2176L141.048 11.8213C141.045 11.8374 141.025 11.848 141.009 11.8454L140.364 11.7065Z" fill="#5E5E5D"/>
<path d="M141.645 11.1829L142.29 11.3218C142.363 11.3379 142.411 11.4073 142.394 11.4794L142.251 12.0832C142.234 12.1526 142.161 12.198 142.086 12.182L141.441 12.0431C141.368 12.0271 141.32 11.9576 141.337 11.8855L141.48 11.2818C141.497 11.2096 141.572 11.1669 141.645 11.1829Z" fill="#585857"/>
<path d="M141.466 11.9442C141.449 11.9416 141.438 11.9229 141.44 11.9068L141.583 11.3031C141.586 11.2871 141.606 11.2764 141.623 11.2791L142.268 11.418C142.284 11.4207 142.296 11.4394 142.293 11.4554L142.15 12.0591C142.147 12.0751 142.127 12.0858 142.111 12.0831L141.466 11.9442Z" fill="#5E5E5D"/>
<path d="M142.747 11.418L143.392 11.5569C143.465 11.573 143.512 11.6424 143.496 11.7145L143.353 12.3183C143.336 12.3877 143.263 12.4331 143.187 12.4171L142.542 12.2782C142.469 12.2622 142.422 12.1927 142.438 12.1206L142.581 11.5169C142.598 11.4474 142.674 11.402 142.747 11.418Z" fill="#585857"/>
<path d="M142.568 12.1793C142.551 12.1766 142.54 12.1579 142.542 12.1419L142.685 11.5382C142.688 11.5222 142.708 11.5115 142.725 11.5141L143.37 11.6531C143.387 11.6557 143.398 11.6744 143.395 11.6905L143.252 12.2942C143.249 12.3102 143.232 12.3209 143.213 12.3182L142.568 12.1793Z" fill="#5E5E5D"/>
<path d="M143.849 11.6528L144.494 11.7917C144.567 11.8078 144.615 11.8772 144.598 11.9493L144.455 12.5531C144.438 12.6225 144.365 12.6679 144.29 12.6519L143.645 12.513C143.572 12.497 143.524 12.4275 143.541 12.3554L143.684 11.7517C143.704 11.6822 143.777 11.6368 143.849 11.6528Z" fill="#585857"/>
<path d="M143.67 12.4144C143.653 12.4117 143.642 12.393 143.645 12.377L143.788 11.7733C143.791 11.7573 143.81 11.7466 143.827 11.7493L144.472 11.8882C144.489 11.8908 144.5 11.9095 144.497 11.9256L144.354 12.5293C144.352 12.5453 144.332 12.556 144.315 12.5533L143.67 12.4144Z" fill="#5E5E5D"/>
<path d="M144.952 11.8907L145.596 12.0296C145.669 12.0457 145.717 12.1151 145.7 12.1872L145.557 12.791C145.54 12.8604 145.467 12.9058 145.392 12.8898L144.747 12.7509C144.674 12.7349 144.626 12.6654 144.643 12.5933L144.786 11.9896C144.806 11.9174 144.879 11.8747 144.952 11.8907Z" fill="#585857"/>
<path d="M144.772 12.6522C144.755 12.6495 144.744 12.6308 144.747 12.6148L144.89 12.0111C144.893 11.995 144.912 11.9843 144.929 11.987L145.574 12.1259C145.591 12.1286 145.602 12.1473 145.6 12.1633L145.456 12.767C145.454 12.7831 145.434 12.7938 145.417 12.7911L144.772 12.6522Z" fill="#5E5E5D"/>
<path d="M139.884 12.5505L136.648 11.8586C136.502 11.8266 136.356 11.9147 136.325 12.0536L135.936 13.7018C135.902 13.8407 135.995 13.9796 136.14 14.009L139.376 14.7009C139.522 14.7329 139.668 14.6448 139.699 14.5059L140.089 12.8577C140.122 12.7188 140.03 12.5825 139.884 12.5505Z" fill="#EDEDED"/>
<path d="M139.909 12.4516L136.673 11.7597C136.471 11.717 136.269 11.8372 136.225 12.0295L135.835 13.6777C135.79 13.87 135.916 14.0624 136.118 14.1051L139.354 14.797C139.556 14.8397 139.758 14.7195 139.803 14.5272L140.193 12.879C140.237 12.6867 140.111 12.497 139.909 12.4516ZM139.702 14.5058C139.668 14.6447 139.525 14.7329 139.379 14.7008L136.143 14.009C135.997 13.9769 135.905 13.8407 135.938 13.7018L136.328 12.0536C136.362 11.9146 136.505 11.8265 136.651 11.8585L139.887 12.5504C140.033 12.5825 140.125 12.7187 140.092 12.8576L139.702 14.5058Z" fill="#9D9B9B"/>
<path d="M136.129 12.8896L135.939 13.7017C135.905 13.8406 135.997 13.9795 136.143 14.0089L139.379 14.7008C139.525 14.7328 139.671 14.6447 139.702 14.5058L139.893 13.6937L136.129 12.8896Z" fill="#DFDFDE"/>
<path d="M137.997 13.2879L136.129 12.8872L135.939 13.6993C135.905 13.8382 135.997 13.9771 136.143 14.0065L137.747 14.3511L137.997 13.2879Z" fill="#D9D9DA"/>
<path d="M147.649 7.81966L131.76 4.4164C131.668 4.39503 131.603 4.31222 131.612 4.22139L133.275 -4.43901C133.297 -4.67676 133.532 -4.83971 133.776 -4.78629L149.96 -1.31892C150.204 -1.26549 150.344 -1.0224 150.257 -0.79801L147.871 7.70479C147.837 7.79027 147.744 7.84103 147.649 7.81966Z" fill="#E3E1E1"/>
<path d="M132.304 3.58552L133.838 -3.72587C133.861 -3.95026 134.082 -4.1052 134.312 -4.05444L149.144 -0.878248C149.374 -0.830165 149.506 -0.59776 149.424 -0.386726L147.529 6.84453C147.461 7.02083 147.268 7.11967 147.074 7.0796L132.61 3.98088C132.416 3.94081 132.287 3.76984 132.304 3.58552Z" fill="#C7C7C6"/>
<path d="M132.411 3.59626L133.944 -3.72047C133.961 -3.88342 134.121 -3.99562 134.289 -3.95822L149.127 -0.779354C149.292 -0.744627 149.39 -0.576334 149.331 -0.424069L147.43 6.81253C147.382 6.94075 147.242 7.01288 147.102 6.98349L132.629 3.88209C132.492 3.85271 132.397 3.72983 132.411 3.59626Z" fill="#C6E6F2"/>
<path opacity="0.24" d="M132.64 2.8963C132.915 2.42615 133.291 1.98271 133.706 1.61407C134.783 0.660413 136.283 0.134164 137.696 -0.154339C139.362 -0.496267 141.227 -1.19615 142.921 -1.05457C145.271 -0.862237 146.861 -0.520309 149.087 0.208961L149.331 -0.424141C149.39 -0.576406 149.295 -0.744699 149.126 -0.779426L134.289 -3.95829C134.124 -3.99302 133.961 -3.88082 133.944 -3.72055L132.436 3.33173C132.486 3.17412 132.567 3.02186 132.64 2.8963Z" fill="#B6E0ED"/>
<path d="M145.346 7.32805L134.04 4.90517L134.045 4.72352L145.444 7.1651L145.346 7.32805Z" fill="#585857"/>
</g>
<path d="M41.0599 57.3807C40.3058 54.3441 37.1183 52.4714 33.9478 53.1926C30.7731 53.9139 28.8152 56.9627 29.5692 59.9951C30.1005 62.126 31.8314 63.6832 33.9136 64.1709C34.0335 64.4741 34.2563 66.3141 34.6548 66.9041C34.8347 67.1705 35.0618 67.2156 35.4088 67.1459C35.6873 68.0925 36.8526 68.9613 37.8123 68.8752C38.485 68.8138 38.9734 68.3712 39.1919 67.777C39.3633 67.3139 39.5004 66.7812 39.586 66.2649C40.0488 66.2526 40.2715 66.2075 40.2501 65.7936C40.2116 65.0765 39.3975 63.1013 39.3675 62.7981C40.8456 61.4581 41.5654 59.4173 41.0599 57.3807Z" fill="#FDFFFC"/>
<path d="M37.9884 57.1759C37.8984 56.8686 37.5814 56.6637 37.2472 56.7415C36.9345 56.8112 36.6988 57.1431 36.7931 57.4505C36.8488 57.639 36.9945 57.7906 37.1701 57.8602C37.0416 58.6552 36.8788 59.4379 36.8102 60.2411C36.746 60.9869 36.6817 61.7164 36.5103 62.4417C35.5806 61.1099 34.6552 59.7822 33.6312 58.5159C33.914 58.2577 33.6998 57.6799 33.2242 57.7865C32.663 57.9135 32.8686 58.7495 33.4342 58.6225C33.4384 58.6225 33.4427 58.6184 33.447 58.6143C34.5095 60.0526 35.5506 61.5115 36.4161 63.0687C36.5103 63.2367 36.7674 63.1998 36.8274 63.0277C37.1101 62.2245 37.1915 61.4049 37.2515 60.5648C37.3201 59.6592 37.5043 58.77 37.5814 57.8684C37.8685 57.7783 38.0741 57.4668 37.9884 57.1759Z" fill="#AEB4FC"/>
<path d="M30.8541 52.2258C29.6588 51.6603 28.4591 51.0907 27.2638 50.5211C27.0153 50.4063 26.7882 50.7465 27.0367 50.8735C28.2021 51.4882 29.3717 52.0988 30.5371 52.7134C30.8798 52.8937 31.1968 52.3897 30.8541 52.2258Z" fill="#808AFF"/>
<path d="M33.1037 47.882C33.0052 47.673 32.7224 47.8246 32.7438 48.0131C32.8895 49.1933 33.3479 50.3981 33.7078 51.5373C33.7978 51.8159 34.2476 51.7217 34.1748 51.4307C33.8792 50.2587 33.6221 48.9843 33.1037 47.882Z" fill="#808AFF"/>
<path d="M38.6742 47.5378C38.3657 47.796 38.1772 48.2057 37.9844 48.55C37.7831 48.9106 37.6031 49.2794 37.4317 49.6523C37.2946 49.9555 37.8216 50.1154 37.9544 49.8039C38.113 49.4228 38.2843 49.054 38.4814 48.6893C38.6485 48.3738 38.8927 48.0664 38.9912 47.7263C39.0469 47.5419 38.8156 47.4149 38.6742 47.5378Z" fill="#808AFF"/>
</g>
<path d="M38.09 106.769H39.7893L44.1239 117.556L48.4494 106.769H50.1578L44.7782 120H43.4515L38.09 106.769ZM37.5357 106.769H39.0351L39.2805 114.838V120H37.5357V106.769ZM49.2037 106.769H50.703V120H48.9583V114.838L49.2037 106.769ZM57.6093 120.182C56.9247 120.182 56.3038 120.067 55.7464 119.836C55.1951 119.6 54.7196 119.27 54.3197 118.846C53.926 118.422 53.623 117.919 53.411 117.337C53.199 116.756 53.093 116.12 53.093 115.429V115.047C53.093 114.248 53.2111 113.536 53.4474 112.912C53.6836 112.282 54.0047 111.749 54.4106 111.313C54.8165 110.876 55.2769 110.546 55.7919 110.322C56.3068 110.098 56.8399 109.986 57.3912 109.986C58.0939 109.986 58.6997 110.107 59.2086 110.349C59.7236 110.592 60.1446 110.931 60.4717 111.367C60.7989 111.797 61.0412 112.306 61.1987 112.894C61.3562 113.475 61.435 114.112 61.435 114.802V115.556H54.0926V114.184H59.7539V114.057C59.7296 113.621 59.6388 113.197 59.4812 112.785C59.3298 112.373 59.0875 112.034 58.7543 111.767C58.4211 111.5 57.9667 111.367 57.3912 111.367C57.0095 111.367 56.6582 111.449 56.3371 111.613C56.016 111.77 55.7404 112.006 55.5101 112.321C55.2799 112.636 55.1012 113.021 54.974 113.475C54.8468 113.93 54.7832 114.454 54.7832 115.047V115.429C54.7832 115.896 54.8468 116.335 54.974 116.747C55.1073 117.153 55.2981 117.51 55.5465 117.819C55.8009 118.128 56.1069 118.37 56.4643 118.546C56.8278 118.722 57.2397 118.81 57.7002 118.81C58.2939 118.81 58.7967 118.688 59.2086 118.446C59.6206 118.204 59.981 117.88 60.29 117.474L61.3078 118.283C61.0957 118.604 60.8261 118.91 60.499 119.2C60.1719 119.491 59.769 119.727 59.2904 119.909C58.8179 120.091 58.2575 120.182 57.6093 120.182ZM65.1698 110.168H66.8509L66.7055 113.848C66.6692 114.781 66.5632 115.587 66.3875 116.265C66.2118 116.944 65.9877 117.522 65.715 118.001C65.4424 118.473 65.1365 118.87 64.7972 119.191C64.464 119.512 64.1187 119.782 63.7613 120H62.9253L62.9707 118.628L63.316 118.619C63.5159 118.382 63.7098 118.14 63.8976 117.892C64.0854 117.637 64.2581 117.337 64.4156 116.992C64.5731 116.641 64.7033 116.214 64.8063 115.711C64.9154 115.202 64.985 114.581 65.0153 113.848L65.1698 110.168ZM65.5878 110.168H71.5036V120H69.8224V111.722H65.5878V110.168ZM62.5436 118.619H72.7667V122.899H71.0856V120H64.2247V122.899H62.5345L62.5436 118.619ZM76.447 117.337L80.9815 110.168H82.6717V120H80.9815V112.83L76.447 120H74.7749V110.168H76.447V117.337ZM89.378 110.168V120H87.6878V110.168H89.378ZM92.6767 110.168V111.531H84.4528V110.168H92.6767ZM99.9827 118.319V113.257C99.9827 112.87 99.904 112.533 99.7465 112.249C99.595 111.958 99.3648 111.734 99.0559 111.576C98.7469 111.419 98.3652 111.34 97.9109 111.34C97.4868 111.34 97.1142 111.413 96.7932 111.558C96.4781 111.703 96.2297 111.894 96.048 112.131C95.8723 112.367 95.7845 112.621 95.7845 112.894H94.1033C94.1033 112.542 94.1942 112.194 94.376 111.849C94.5577 111.503 94.8182 111.192 95.1575 110.913C95.5028 110.628 95.9147 110.404 96.3933 110.24C96.878 110.071 97.4171 109.986 98.0108 109.986C98.7257 109.986 99.3557 110.107 99.901 110.349C100.452 110.592 100.882 110.958 101.191 111.449C101.506 111.934 101.664 112.542 101.664 113.275V117.855C101.664 118.183 101.691 118.531 101.746 118.9C101.806 119.27 101.894 119.588 102.009 119.855V120H100.255C100.171 119.806 100.104 119.549 100.055 119.228C100.007 118.9 99.9827 118.598 99.9827 118.319ZM100.274 114.039L100.292 115.22H98.5924C98.1138 115.22 97.6867 115.26 97.3111 115.338C96.9355 115.411 96.6205 115.523 96.3661 115.675C96.1116 115.826 95.9178 116.017 95.7845 116.247C95.6512 116.471 95.5846 116.735 95.5846 117.038C95.5846 117.347 95.6542 117.628 95.7936 117.883C95.9329 118.137 96.1419 118.34 96.4206 118.492C96.7053 118.637 97.0536 118.71 97.4656 118.71C97.9805 118.71 98.4349 118.601 98.8287 118.382C99.2225 118.164 99.5344 117.898 99.7647 117.583C100.001 117.268 100.128 116.962 100.146 116.665L100.864 117.474C100.822 117.728 100.707 118.01 100.519 118.319C100.331 118.628 100.08 118.925 99.7647 119.209C99.4557 119.488 99.0861 119.721 98.656 119.909C98.232 120.091 97.7534 120.182 97.2202 120.182C96.5539 120.182 95.9692 120.051 95.4664 119.791C94.9697 119.53 94.5819 119.182 94.3033 118.746C94.0307 118.304 93.8943 117.81 93.8943 117.265C93.8943 116.738 93.9973 116.274 94.2033 115.874C94.4093 115.469 94.7061 115.132 95.0939 114.866C95.4816 114.593 95.948 114.387 96.4933 114.248C97.0385 114.108 97.6473 114.039 98.3198 114.039H100.274ZM104.454 120V110.168H106.135V118.619H110.66V110.168H112.35V120H104.454ZM113.514 118.619L113.35 122.917H111.851V120H110.569V118.619H113.514ZM117.157 117.337L121.692 110.168H123.382V120H121.692V112.83L117.157 120H115.485V110.168H117.157V117.337ZM127.899 117.337L132.433 110.168H134.123V120H132.433V112.83L127.899 120H126.226V110.168H127.899V117.337Z" fill="#FFECCC"/>
<defs>
<clipPath id="clip0_130_1903">
<rect width="11.7702" height="13.6148" fill="white" transform="translate(139.586 24.8356)"/>
</clipPath>
<clipPath id="clip1_130_1903">
<rect width="58.01" height="9.61042" fill="white" transform="translate(58.877 99.3164)"/>
</clipPath>
<clipPath id="clip2_130_1903">
<rect width="26.9032" height="20.8226" fill="white" transform="translate(126.976 52.0651)"/>
</clipPath>
<clipPath id="clip3_130_1903">
<rect width="29.4254" height="28.0304" fill="white" transform="translate(44.5845 -8)"/>
</clipPath>
</defs>
</svg>
