<svg width="143" height="135" viewBox="0 0 143 135" fill="none" xmlns="http://www.w3.org/2000/svg">
<rect width="142.348" height="135" rx="11.6316" fill="#8E97FD"/>
<mask id="mask0_130_1903" style="mask-type:alpha" maskUnits="userSpaceOnUse" x="0" y="0" width="142" height="135">
<rect width="142" height="135" rx="11.6316" fill="#FA6E5A"/>
</mask>
<g mask="url(#mask0_130_1903)">
<path d="M10.3057 28.3886C-10.2678 31.8963 -15.512 19.9117 -19.1426 13.0424V-29.9271H51.8559V48.558H39.3505C32.6271 40.081 30.8791 24.8809 10.3057 28.3886Z" fill="#808AFF"/>
<path d="M93.4063 28.3886C113.98 31.8963 119.224 19.9116 122.854 13.0424V-29.9271H51.856V48.558H64.3614C71.0848 40.081 72.8328 24.8809 93.4063 28.3886Z" fill="#808AFF"/>
<g clip-path="url(#clip0_130_1903)">
<path d="M126.172 19.4927H123.44V33.1075H126.172V19.4927Z" fill="#9BA3FF"/>
<path d="M130.454 24.0691H127.722V33.1073H130.454V24.0691Z" fill="#9BA3FF"/>
<path d="M134.741 28.3822H132.009V33.1074H134.741V28.3822Z" fill="#9BA3FF"/>
</g>
<g clip-path="url(#clip1_130_1903)">
<path d="M73.8224 103.584C89.1951 103.584 101.657 101.432 101.657 98.7786C101.657 96.1248 89.1951 93.9734 73.8224 93.9734C58.4498 93.9734 45.9878 96.1248 45.9878 98.7786C45.9878 101.432 58.4498 103.584 73.8224 103.584Z" fill="#808AFF"/>
</g>
<path d="M69.1283 36.4359C69.1283 36.4359 68.0379 48.4013 72.5546 48.221C77.3998 48.0251 76.0965 36.4359 76.0965 36.4359C75.4633 34.5679 75.211 33.4602 75.4948 31.5008H69.6118C69.8956 33.4602 69.7589 34.5679 69.1283 36.4359Z" fill="#FDBCA0"/>
<path d="M69.7294 33.8153C70.3968 34.0139 71.0694 34.1967 71.7657 34.2542C72.4252 34.3091 73.1031 34.2673 73.76 34.1967C74.3065 34.1367 74.8898 34.04 75.4364 33.8597C75.3497 33.1491 75.3628 32.4176 75.4968 31.498H69.6138C69.7425 32.3993 69.7819 33.1204 69.7294 33.8153Z" fill="#F0A38B"/>
<path d="M72.5545 33.1337C74.2335 33.1337 75.8494 32.4753 77.0318 31.2892C78.4402 29.8785 79.5438 28.3057 79.8669 26.4586C80.2821 24.0865 79.4754 21.7169 77.715 19.8097H67.3914C65.631 21.7143 64.8243 24.0865 65.2395 26.4586C65.5627 28.3057 66.6689 29.8785 68.0746 31.2892C69.2596 32.4727 70.8755 33.1337 72.5545 33.1337Z" fill="#FDBCA0"/>
<path d="M73.0663 37.8311C72.8535 38.0636 72.6538 38.317 72.4646 38.5704C72.236 38.4137 72.0547 38.223 71.855 38.027C71.8366 38.0088 71.7998 38.027 71.8077 38.0532C71.9207 38.3614 72.1572 38.6123 72.3989 38.8265C72.4515 38.8709 72.525 38.8761 72.5776 38.8265C72.8325 38.5783 73.0821 38.2883 73.2791 37.9905C73.3632 37.8677 73.1688 37.7188 73.0663 37.8311Z" fill="#DF8370"/>
<path d="M78.7474 37.3738C77.1788 37.507 75.6312 37.7605 74.1046 38.1471C74.0126 38.1706 74.052 38.3091 74.144 38.2882C75.6627 37.9538 77.1972 37.7265 78.7474 37.622C78.9103 37.6115 78.9077 37.3607 78.7474 37.3738Z" fill="#DF8370"/>
<path d="M66.359 37.3738C67.9276 37.5071 69.4752 37.7605 71.0018 38.1471C71.0938 38.1707 71.0544 38.3091 70.9624 38.2882C69.4437 37.9538 67.9092 37.7265 66.359 37.622C66.1987 37.6116 66.1987 37.3608 66.359 37.3738Z" fill="#DF8370"/>
<path d="M66.6292 15.8649C64.4352 17.1137 62.8902 19.0809 62.8639 21.7248C62.8376 24.7057 66.4899 29.4527 66.44 29.3351C65.2261 26.4352 64.9081 22.4432 67.9377 20.4447C68.2398 20.2461 68.6182 20.1312 68.8888 19.8986C68.881 18.3233 68.006 16.7976 66.6292 15.8649Z" fill="#3F4553"/>
<path d="M78.2633 15.8649C80.4573 17.1137 82.0023 19.0809 82.0285 21.7248C82.0548 24.7057 80.2602 27.3574 78.4735 29.6094C78.928 28.6271 79.9817 22.4406 76.9521 20.4447C76.65 20.2461 76.2716 20.1312 76.001 19.8986C76.0115 18.3233 76.8891 16.7976 78.2633 15.8649Z" fill="#424495"/>
<path d="M109.765 14.2869C108.089 13.4587 106.131 13.2811 104.308 13.6495C103.425 13.8271 102.589 14.138 101.793 14.5586C101.265 14.8355 100.729 15.2326 100.114 15.2797C99.3681 15.3345 98.7139 14.8512 98.1594 14.4228C96.4358 13.0904 94.6832 11.9226 92.4656 11.6012C91.3936 11.4445 90.1954 11.5594 89.3651 12.2126C88.5138 11.0944 87.2447 10.2976 85.8468 10.005C83.997 9.61831 82.2392 10.1696 80.7862 11.2773C79.9664 10.8776 78.5318 10.3028 78.3505 10.2532C72.8852 8.75879 65.423 12.5496 66.39 18.9424C67.2203 24.4366 74.2174 26.976 79.0652 25.8474C80.1109 27.8146 82.6176 28.2718 84.5488 27.2477C84.696 27.36 84.8431 27.4724 84.9929 27.5821C88.075 29.8289 91.6616 31.2893 95.5345 30.6257C97.006 30.3723 98.3828 29.8446 99.6493 29.0869C100.853 29.9856 102.437 30.2704 103.895 29.5755C104.981 29.0608 105.708 28.1098 105.968 27.0335C105.987 27.0335 106.005 27.0335 106.024 27.0335C109.245 26.9943 112.661 25.4032 113.483 22.0461C114.232 18.9947 112.566 15.6689 109.765 14.2869Z" fill="#4E5567"/>
<path d="M95.1195 13.2915C96.1784 14.151 96.8064 15.3293 96.1469 16.6277C95.6109 17.6858 94.6466 18.4565 93.945 19.3944C93.1226 20.4917 92.9807 21.8998 94.3286 22.7019C95.6555 23.4909 97.3188 22.5085 98.425 21.764C99.7913 20.8417 101.257 18.1743 102.435 17.0301C107.663 11.9487 112.855 17.3801 112.876 17.3984C112.198 16.0765 111.116 14.9557 109.765 14.2869C108.089 13.4587 106.132 13.2811 104.308 13.6494C103.425 13.8271 102.59 14.138 101.793 14.5586C101.265 14.8355 100.729 15.2326 100.114 15.2797C99.3682 15.3345 98.714 14.8512 98.1596 14.4227C96.4359 13.0904 94.6834 11.9226 92.4657 11.6012C91.4173 11.4497 90.2481 11.5594 89.4204 12.176C91.2255 11.4784 93.6718 12.1133 95.1195 13.2915Z" fill="#3F4553"/>
<path d="M109.045 26.1714C107.766 26.3204 106.567 26.2498 105.39 25.7299C104.883 27.0388 103.845 28.3607 102.379 28.5671C101.394 28.7056 100.23 28.3999 100.027 27.3628C93.1013 32.9693 85.337 26.7148 84.5881 25.5418C82.4283 26.9421 79.7062 25.2335 78.8995 23.0468C77.2547 23.6817 75.3576 23.4858 73.7601 22.8039C70.7831 21.5368 69.133 18.0438 70.1735 14.9611C71.0406 12.3982 73.3502 10.6451 75.9094 9.93192C70.9197 9.90318 65.5622 13.4667 66.3898 18.9426C67.2201 24.4367 74.2146 26.9761 79.065 25.8475C80.1108 27.8147 82.6175 28.2719 84.5487 27.2478C84.6958 27.3601 84.843 27.4725 84.9927 27.5822C88.0748 29.829 91.6614 31.2894 95.5344 30.6258C97.0058 30.3724 98.3827 29.8447 99.6491 29.087C100.853 29.9857 102.437 30.2705 103.895 29.5756C104.98 29.0609 105.708 28.1099 105.968 27.0336C105.987 27.0336 106.005 27.0336 106.024 27.0336C107.561 27.0153 109.14 26.6417 110.464 25.8945C109.999 26.033 109.515 26.1166 109.045 26.1714Z" fill="#3F4553"/>
<path d="M70.7092 27.859C69.7895 28.0106 68.2945 28.0602 67.4458 27.1563C67.2776 26.976 67.049 27.1798 67.2592 27.36C67.2934 27.3888 67.3275 27.4149 67.3617 27.441C67.2619 27.4698 67.1568 27.4828 67.0464 27.475C67.0438 27.475 67.0438 27.4776 67.0464 27.4802C67.1804 27.5246 67.317 27.5377 67.451 27.5116C67.4537 27.5142 67.4563 27.5168 67.4589 27.5168C67.3433 27.5926 67.2041 27.6239 67.0674 27.6683C67.0648 27.6683 67.0648 27.6709 67.0674 27.6736C67.2356 27.6892 67.4116 27.6683 67.5509 27.5795C67.5667 27.5899 67.5824 27.5952 67.5982 27.6056C67.4931 27.6866 67.3748 27.7467 67.2408 27.7781C67.2277 27.7807 67.2303 27.8016 67.2435 27.8016C67.4143 27.8094 67.5772 27.7676 67.7138 27.6736C67.7427 27.6892 67.7742 27.7023 67.8031 27.718C67.7059 27.7885 67.6061 27.8512 67.4931 27.9035C67.4826 27.9087 67.4878 27.927 67.4983 27.927C67.6481 27.9322 67.7795 27.8564 67.8977 27.7676C67.9345 27.7859 67.9713 27.799 68.0107 27.8146C67.9608 27.8643 67.903 27.9113 67.8478 27.9583C67.8399 27.9662 67.8478 27.9766 67.8583 27.9766C67.9529 27.9531 68.0396 27.9139 68.1132 27.859C68.9566 28.2039 69.9446 28.2143 70.7906 27.9113C70.88 27.8747 70.8117 27.8434 70.7092 27.859Z" fill="#3F4553"/>
<path d="M74.4854 27.8591C75.4051 28.0106 76.9001 28.0602 77.7488 27.1563C77.917 26.976 78.1456 27.1798 77.9354 27.3601C77.9012 27.3888 77.8671 27.4149 77.8329 27.4411C77.9354 27.4698 78.0379 27.4829 78.1482 27.475C78.1508 27.475 78.1508 27.4776 78.1482 27.4803C78.0142 27.5247 77.8776 27.5377 77.7436 27.5116C77.741 27.5142 77.7383 27.5168 77.7357 27.5168C77.8513 27.5926 77.9906 27.6239 78.1272 27.6684C78.1298 27.6684 78.1298 27.671 78.1272 27.6736C77.959 27.6893 77.783 27.6684 77.6437 27.5795C77.628 27.59 77.6122 27.5952 77.5964 27.6057C77.7015 27.6866 77.8198 27.7467 77.9538 27.7781C77.9669 27.7807 77.9643 27.8016 77.9512 27.8016C77.7804 27.8094 77.6175 27.7676 77.4808 27.6736C77.4519 27.6893 77.4204 27.7023 77.3915 27.718C77.4887 27.7885 77.5886 27.8512 77.7015 27.9035C77.7121 27.9087 77.7068 27.927 77.6963 27.927C77.5465 27.9322 77.4151 27.8565 77.2969 27.7676C77.2601 27.7859 77.2233 27.799 77.1865 27.8147C77.2365 27.8643 77.2943 27.9113 77.3495 27.9583C77.3573 27.9662 77.3495 27.9766 77.3389 27.9766C77.2443 27.9531 77.1576 27.9139 77.0841 27.8591C76.2406 28.2039 75.2527 28.2144 74.404 27.9113C74.3173 27.8747 74.383 27.8434 74.4854 27.8591Z" fill="#3F4553"/>
<path d="M73.1769 29.7637C72.746 29.9857 72.3177 30.0746 71.8736 29.8081C71.8421 29.7898 71.8053 29.8342 71.8342 29.8603C72.2152 30.1973 72.8931 30.2836 73.2741 29.8891C73.3371 29.8211 73.2583 29.7219 73.1769 29.7637Z" fill="#3F4553"/>
<path d="M74.1619 31.305C73.6233 31.4643 73.0925 31.5244 72.567 31.5009C72.0415 31.5244 71.5108 31.4643 70.9721 31.305C70.959 31.2998 70.9485 31.3233 70.9616 31.3285C71.4792 31.5479 72.0231 31.6655 72.567 31.6786C73.1109 31.6655 73.6548 31.5479 74.1724 31.3285C74.1856 31.3233 74.1751 31.3024 74.1619 31.305Z" fill="#3F4553"/>
<path d="M70.0973 29.1392C70.0527 29.1183 70.0054 29.1 69.9581 29.0869C69.3564 28.9328 68.6443 28.6402 68.0163 28.7473C67.5723 28.8231 67.4698 29.3586 67.722 29.6748C67.9927 30.0144 68.5234 30.111 68.9333 30.1424C69.3459 30.1737 69.9922 30.2182 70.2996 29.8968C70.5782 29.6068 70.389 29.2803 70.0973 29.1392Z" fill="#FBAD8B"/>
<path d="M75.0157 29.1392C75.0604 29.1183 75.1077 29.1 75.155 29.087C75.7567 28.9328 76.4687 28.6402 77.0967 28.7474C77.5408 28.8231 77.6432 29.3587 77.391 29.6748C77.1204 30.0144 76.5896 30.1111 76.1797 30.1424C75.7672 30.1738 75.1208 30.2182 74.8134 29.8969C74.5349 29.6069 74.7267 29.2803 75.0157 29.1392Z" fill="#FBAD8B"/>
<path d="M64.6194 25.2281C63.9967 25.1367 63.3293 25.3927 63.4423 26.1269C63.5316 26.7121 64.1649 27.2947 65.1318 27.1196C64.869 26.5135 64.6877 25.8761 64.6194 25.2281Z" fill="#F9CDB9"/>
<path d="M64.0172 25.803C64.188 25.6619 64.4534 25.5992 64.682 25.6358C64.6689 25.5652 64.661 25.4921 64.6505 25.4215C64.3378 25.3928 63.9699 25.5208 63.7913 25.7455C63.5128 26.0982 63.723 26.4901 64.0304 26.7304C64.075 26.767 64.1381 26.7095 64.0961 26.6651C63.8727 26.43 63.7177 26.0512 64.0172 25.803Z" fill="#F8C4AB"/>
<path d="M64.8057 26.1948C64.6428 26.0485 64.43 25.9675 64.1856 25.9779C64.1304 25.9806 64.1094 26.072 64.1725 26.0798C64.3958 26.1112 64.5876 26.2261 64.7059 26.4038C64.5692 26.4769 64.4694 26.6363 64.6086 26.7669C64.719 26.8714 64.8819 26.8949 65.0369 26.8793C64.9502 26.6546 64.8688 26.4273 64.8057 26.1948Z" fill="#F8C4AB"/>
<path d="M64.5643 26.9498C64.5616 26.9472 64.5564 26.9498 64.559 26.9524C64.6588 27.198 64.8007 27.7728 64.4592 27.8903C64.2306 27.9687 64.2095 27.6761 64.2437 27.522C64.2752 27.3809 64.3541 27.2346 64.4197 27.1092C64.4197 27.1092 64.2621 27.0752 64.1176 27.0021C63.9205 27.1693 63.8496 27.4175 63.8837 27.6787C63.9153 27.9165 64.0677 28.1777 64.3383 28.1856C64.58 28.1934 64.7534 27.987 64.7902 27.7675C64.8323 27.4828 64.7167 27.1823 64.5643 26.9498Z" fill="#FDCA27"/>
<path d="M114.844 71.9429C113.368 70.1951 110.173 70.054 108.076 69.8372C101.772 69.184 95.3087 69.346 89.0026 69.8528C85.8627 70.1063 82.7386 70.4851 79.6276 70.9841C77.3758 71.3472 74.8613 71.6006 72.6121 72.3165C70.3629 71.6006 67.8484 71.3446 65.5966 70.9841C62.4882 70.4825 59.3614 70.1036 56.2215 69.8528C49.9155 69.346 43.4491 69.184 37.1483 69.8372C35.0542 70.054 31.8565 70.1951 30.3798 71.9429C28.953 73.6306 30.7135 75.6762 32.0693 76.7499C33.9427 78.2338 36.3206 78.9654 38.5908 79.6054C41.4417 80.4049 44.3582 80.9483 47.2906 81.361C60.4151 83.2003 67.541 81.8444 74.4014 81.7608C74.6642 82.0926 74.9112 82.4374 75.1371 82.7953C82.0922 82.8397 91.0258 82.2885 97.931 81.361C100.866 80.9666 103.78 80.4075 106.631 79.6054C108.904 78.968 111.279 78.2365 113.152 76.7499C114.508 75.6762 116.269 73.6306 114.844 71.9429Z" fill="#93BFA8"/>
<path d="M105.532 73.1525C105.75 72.8756 107.072 72.5333 107.592 72.3034C105.141 72.4994 102.679 72.792 100.233 73.0428C95.5792 73.5183 90.9206 74.7435 86.5116 76.2771C84.4017 77.0112 82.2971 77.7819 80.2003 78.5552C78.5397 79.1666 76.8975 79.8354 75.3394 80.6688C75.5785 80.5956 75.8176 80.5225 76.0567 80.4519C78.5423 79.7256 88.6714 74.2785 107.427 73.6071C106.993 73.513 105.448 73.2596 105.532 73.1525Z" fill="#66A986"/>
<path d="M39.9677 72.7684C39.7496 72.4915 38.428 72.1493 37.9077 71.9194C40.3592 72.1153 42.8212 72.4079 45.2674 72.6587C49.9208 73.1342 54.5794 74.3595 58.9884 75.893C61.0983 76.6271 63.203 77.3978 65.2997 78.1712C66.9603 78.7825 68.6025 79.4513 70.1607 80.2847C69.9216 80.2115 69.6824 80.1384 69.4433 80.0679C66.9577 79.3416 56.8286 73.8944 38.0732 73.223C38.5042 73.129 40.0492 72.8756 39.9677 72.7684Z" fill="#66A986"/>
<path d="M78.9521 78.5449C77.8959 78.1243 76.7792 78.1138 75.7518 78.5501C73.9966 79.2999 71.8447 78.1504 70.0212 78.3568C68.3422 78.5475 67.3201 80.4468 68.6049 81.659C68.915 81.9516 72.0312 83.075 76.9684 80.7864C77.5096 80.5356 78.0378 80.3919 78.65 80.3998C78.7919 80.4024 78.9259 80.5356 79.0756 80.52C79.3962 80.4808 79.659 80.4233 79.8376 80.115C80.258 79.3887 79.5565 78.7852 78.9521 78.5449Z" fill="#FDB597"/>
<path d="M66.6293 82.3983C67.5201 81.6955 68.5895 81.3663 69.6957 81.4944C71.5927 81.7138 73.3243 80 75.132 79.6787C76.7952 79.3834 78.3218 80.9118 77.439 82.4427C77.2262 82.8111 74.5618 84.7731 69.1728 83.9841C68.5816 83.8979 68.0351 83.9109 67.4517 84.0912C67.3177 84.133 67.2258 84.3002 67.076 84.3263C66.7581 84.3812 66.4901 84.3995 66.2299 84.1565C65.6203 83.5791 66.1196 82.8006 66.6293 82.3983Z" fill="#FDBCA0"/>
<path d="M102.436 39.4796C101.83 39.7904 101.191 40.1405 100.595 40.4671C100.91 40.2111 102.66 38.4398 103.34 38.0035C103.414 37.9564 103.241 37.238 101.451 38.6592C100.918 39.0824 100.287 39.5109 99.7853 39.9733C100.424 38.7689 100.957 37.5489 101.793 36.4464C101.827 36.402 101.816 36.3523 101.787 36.3184C101.617 36.1851 101.188 36.3367 100.997 36.5405C100.655 36.901 99.357 38.2961 98.7264 39.7669C98.7369 39.2627 98.6923 38.445 98.3323 38.2778C98.1063 38.1707 97.7306 38.3117 97.4889 38.33C97.0133 38.364 96.3905 38.4319 95.9465 38.2438C95.8808 38.2177 95.7153 38.1968 95.7757 38.4136C95.978 39.1242 96.9765 39.2131 97.5966 39.3698C97.8068 39.8767 97.2156 40.7074 96.8425 40.9582C96.2355 41.3684 95.35 40.9661 95.5024 40.1614C95.6364 39.4534 96.0621 39.1321 95.6864 38.4372C95.5629 38.2072 95.0321 37.9982 95.1504 38.3692C95.4551 39.3176 94.5802 40.1144 94.4672 41.0314C94.3779 41.7577 94.7641 42.403 95.153 42.9856C95.1293 43.0457 95.1109 43.1057 95.0899 43.1632C94.5618 44.0724 94.1519 45.0312 93.855 46.0344C94.5329 46.2565 96.5246 46.1154 96.5167 46.0997C96.5246 46.1154 96.7558 44.7098 97.2865 44.1168C97.8672 43.4663 98.5977 42.9647 99.2966 42.4526C100.765 41.3736 102.258 40.326 103.771 39.3071C103.858 39.2523 103.787 38.7872 102.436 39.4796Z" fill="#FDBCA0"/>
<path d="M42.9472 39.4795C43.5542 39.7904 44.1927 40.1405 44.7891 40.467C44.4738 40.211 42.7239 38.4397 42.0434 38.0034C41.9698 37.9564 42.1432 37.2379 43.9326 38.6592C44.4659 39.0824 45.0966 39.5108 45.5984 39.9733C44.9599 38.7689 44.4265 37.5488 43.591 36.4463C43.5568 36.4019 43.5673 36.3523 43.5962 36.3183C43.767 36.1851 44.1953 36.3366 44.3871 36.5404C44.7287 36.9009 46.0267 38.296 46.6573 39.7669C46.6468 39.2627 46.6915 38.4449 47.0514 38.2777C47.2774 38.1706 47.6531 38.3117 47.8949 38.33C48.3705 38.3639 48.9932 38.4319 49.4372 38.2438C49.5029 38.2176 49.6685 38.1967 49.608 38.4136C49.4057 39.1242 48.4072 39.213 47.7871 39.3698C47.5769 39.8766 48.1681 40.7074 48.5412 40.9582C49.1482 41.3684 50.0337 40.966 49.8813 40.1614C49.7473 39.4534 49.3216 39.132 49.6974 38.4371C49.8209 38.2072 50.3516 37.9982 50.2334 38.3692C49.9286 39.3175 50.8035 40.1143 50.9165 41.0313C51.0059 41.7576 50.6196 42.4029 50.2307 42.9855C50.2544 43.0456 50.2728 43.1057 50.2938 43.1632C50.8219 44.0723 51.2318 45.0311 51.5287 46.0343C50.8508 46.2564 48.8592 46.1153 48.8671 46.0997C48.8592 46.1153 48.628 44.7098 48.0972 44.1167C47.5165 43.4662 46.7861 42.9646 46.0871 42.4526C44.6183 41.3736 43.1259 40.326 41.6124 39.3071C41.5257 39.2522 41.5967 38.7872 42.9472 39.4795Z" fill="#FDBCA0"/>
<path d="M93.1463 45.1095C92.161 47.6358 88.8188 56.9626 87.4236 60.918C86.5933 58.8018 84.3493 49.6135 82.4602 38.9465C81.8716 35.6312 78.1116 36.1041 76.0989 36.4359C75.9544 38.6618 73.7814 44.8326 72.6148 44.8456C71.4482 44.8326 69.1359 39.0981 69.1307 36.4359C67.1206 36.1041 63.358 35.6312 62.7694 38.9465C60.8776 49.6135 58.6363 58.8044 57.806 60.918C56.4082 56.9626 53.0686 47.6358 52.0833 45.1095C50.8194 45.7026 49.4216 46.0291 48.0264 46.1101C49.1063 48.9656 52.6718 69.1866 57.9269 69.1866C60.205 69.1866 61.6475 66.7805 63.9702 57.8665C64.0858 59.3557 64.1252 62.2164 64.0674 65.2234C64.0254 67.3892 62.5198 69.892 60.5045 69.4087C60.0972 69.312 59.5665 69.6177 60.071 70.1611C60.2076 70.31 60.3836 70.4198 60.5649 70.5034C63.7837 72.0186 63.9098 74.2837 65.8095 75.603C66.9577 76.3998 68.3713 76.6506 69.7193 76.9224C71.1802 77.215 72.6857 77.4344 74.1729 77.2123C76.6454 76.844 78.5662 75.2007 80.613 73.9153C81.756 73.1969 82.9173 72.6221 84.26 72.4262C87.7152 71.922 87.4866 69.4975 86.764 69.5472C84.3441 69.7118 81.1569 66.6446 81.1385 63.2692C81.1254 61.0225 81.17 59.0291 81.2594 57.8665C83.5821 66.7805 85.0246 69.1866 87.3027 69.1866C92.5578 69.1866 96.1233 48.9656 97.2032 46.1101C95.808 46.0291 94.4102 45.6999 93.1463 45.1095Z" fill="#F2EDE4"/>
<path d="M79.2437 53.9398C79.2175 53.9581 79.1964 53.9764 79.1754 53.9947C78.7471 54.4101 78.4134 54.9091 77.993 55.3323C77.5726 55.7529 77.0287 56.1056 76.4323 56.103C75.0003 56.0952 74.2829 54.3866 73.4211 53.5166C72.0968 52.1842 70.812 55.22 69.8266 55.8156C68.815 56.4269 68.1293 56.0586 67.383 55.3349C66.9259 54.8908 66.537 54.3918 66.1139 53.9163C66.0036 53.7909 65.7513 53.9241 65.8197 54.0861C66.3136 55.267 67.4303 57.2264 68.9044 57.2577C69.8083 57.276 70.5492 56.7614 71.143 56.1291C71.4347 55.8182 72.2387 54.1488 72.7616 54.3683C72.8588 54.4101 72.9271 54.4963 72.9928 54.5799C73.253 54.9195 73.4947 55.2774 73.7732 55.6014C73.9177 55.7686 74.3355 56.0455 74.3355 56.2754C74.9267 56.8737 75.7386 57.3439 76.5768 57.2421C77.4334 57.1376 78.1113 56.4714 78.6079 55.7686C78.96 55.2696 79.2569 54.7314 79.4907 54.1671C79.5249 54.0861 79.5538 53.9842 79.4933 53.9189C79.4277 53.851 79.3278 53.8823 79.2437 53.9398Z" fill="#D9C9AC"/>
<g clip-path="url(#clip2_130_1903)">
<path d="M127.466 67.5089L136.458 64.5171L131.95 51.3831L122.958 54.3749C122.606 54.4915 122.415 54.8675 122.537 55.2144L126.613 67.0908C126.732 67.4376 127.114 67.6256 127.466 67.5089Z" fill="#3F4553"/>
<path d="M127.473 67.2496L136.689 64.1833L132.346 51.5322L123.13 54.5985C122.903 54.6731 122.781 54.9162 122.856 55.1431L126.92 66.9806C126.999 67.2042 127.246 67.3242 127.473 67.2496Z" fill="#DDDDE3"/>
<path d="M127.667 67.1849L136.883 64.1186L132.54 51.4675L123.324 54.5338C123.097 54.6084 122.975 54.8515 123.051 55.0784L127.114 66.9159C127.193 67.1395 127.44 67.2627 127.667 67.1849Z" fill="#E2E5FF"/>
<path d="M128.164 67.2755L137.156 64.2837L132.649 51.1529L123.656 54.1447C123.304 54.2614 123.113 54.6374 123.235 54.9842L127.311 66.8606C127.43 67.2074 127.812 67.3922 128.164 67.2755Z" fill="#4E5567"/>
<path d="M132.145 51.3207L131.951 51.385L136.459 64.5192L136.652 64.4549L132.145 51.3207Z" fill="#3F4553"/>
<path d="M133.43 61.5805L133.63 61.1591L134.052 61.3731L130.759 51.7818C130.7 51.6133 130.552 51.6263 130.381 51.6846C130.209 51.7429 130.081 51.8207 130.14 51.9893L133.43 61.5805Z" fill="#93BFA8"/>
<path d="M113.225 54.8031L119.277 47.7391L118.054 46.7235L112.002 53.7875L113.225 54.8031Z" fill="#3F4553"/>
<path d="M112 53.7852L113.222 54.7997L111.457 55.7559C111.398 55.7883 111.319 55.7203 111.339 55.6587L112 53.7852Z" fill="#F2EDE4"/>
<path d="M111.461 55.759L111.938 55.4997L111.523 55.1529L111.345 55.6585C111.322 55.7201 111.401 55.7882 111.461 55.759Z" fill="#3F4553"/>
<path d="M112.82 54.4666L118.872 47.4027L118.456 47.0579L112.404 54.1218L112.82 54.4666Z" fill="#4E5567"/>
</g>
<g clip-path="url(#clip3_130_1903)">
<path d="M46.3932 -13.3429C38.5921 -13.3429 32.272 -7.06929 32.272 0.674496C32.272 8.41387 38.5921 14.6919 46.3932 14.6919C54.1899 14.6919 60.5144 8.41829 60.5144 0.674496C60.51 -7.06929 54.1899 -13.3429 46.3932 -13.3429ZM46.3932 12.3211C39.913 12.3211 34.6604 7.10705 34.6604 0.674496C34.6604 -5.75806 39.913 -10.9721 46.3932 -10.9721C52.8734 -10.9721 58.1261 -5.75806 58.1261 0.674496C58.1261 7.10705 52.8734 12.3211 46.3932 12.3211Z" fill="#808AFF"/>
<path d="M57.219 5.16493C59.7189 -0.769452 56.8991 -7.59191 50.9208 -10.0735C44.9424 -12.555 38.0694 -9.75596 35.5695 -3.82158C33.0696 2.1128 35.8894 8.93526 41.8677 11.4168C47.846 13.8984 54.719 11.0993 57.219 5.16493Z" fill="#AEB4FC"/>
<path d="M57.0714 0.695994C57.0714 -0.12077 55.7905 -0.125185 55.7905 0.695994C55.7905 1.51717 57.0714 1.51717 57.0714 0.695994Z" fill="#808AFF"/>
<path d="M46.3658 11.2744C47.1887 11.2744 47.1931 10.0029 46.3658 10.0029C45.543 10.0029 45.5386 11.2744 46.3658 11.2744Z" fill="#808AFF"/>
<path d="M35.7104 0.648072C35.7104 1.46483 36.9914 1.46925 36.9914 0.648072C36.9914 -0.16869 35.7104 -0.173105 35.7104 0.648072Z" fill="#808AFF"/>
<path d="M51.437 4.07829C51.3613 4.07829 51.2857 4.06063 51.219 4.01648L46.171 1.0364C46.042 0.961345 45.9619 0.820067 45.9619 0.669959V-7.33872C45.9619 -7.57272 46.1532 -7.76256 46.3889 -7.76256C46.6246 -7.76256 46.8159 -7.57272 46.8159 -7.33872V0.431554L51.6549 3.28801C51.8595 3.40722 51.9262 3.6677 51.8017 3.87079C51.7261 4.00323 51.5837 4.07829 51.437 4.07829Z" fill="#808AFF"/>
</g>
<path d="M18.2504 29.4286L17.9687 27.8421L16.3347 28.1185C16.0755 27.3777 15.653 26.7254 15.1065 26.1948L16.0643 24.8625L14.7233 23.9393L13.7711 25.266C13.0838 24.9344 12.3175 24.7519 11.5174 24.7575L11.2301 23.1488L9.61304 23.4252L9.89476 25.0283C9.13977 25.2826 8.47492 25.6972 7.93403 26.2334L6.57617 25.2937L5.63525 26.6094L6.98748 27.5436C6.64942 28.218 6.46349 28.9698 6.46912 29.7548L4.84082 30.0312L5.12253 31.6177L6.75647 31.3413C7.01565 32.0821 7.43822 32.7344 7.98474 33.2651L7.02692 34.5973L8.36787 35.5205L9.32006 34.1938C10.0074 34.5255 10.7737 34.7079 11.5738 34.7023L11.8611 36.311L13.4782 36.0346L13.1964 34.4315C13.9514 34.1772 14.6163 33.7626 15.1572 33.2264L16.515 34.1661L17.4559 32.8505L16.1037 31.9162C16.4418 31.2418 16.6277 30.49 16.6221 29.705L18.2504 29.4286ZM11.8048 31.2031C10.9765 31.3469 10.1877 30.7996 10.0412 29.987C9.89476 29.1743 10.4526 28.4004 11.2808 28.2567C12.109 28.113 12.8978 28.6602 13.0443 29.4729C13.1908 30.2855 12.6386 31.0594 11.8048 31.2031Z" fill="#9BA3FF"/>
<path d="M33.6657 26.2278V24.2322H31.6092C31.4571 23.2703 31.0796 22.3858 30.5274 21.6229L31.9867 20.1912L30.55 18.7815L29.0963 20.2078C28.3244 19.6605 27.4286 19.2791 26.4482 19.1188V17.09H24.4142V19.1077C23.4339 19.257 22.5268 19.6273 21.7549 20.1691L20.2956 18.7373L18.8589 20.147L20.3125 21.5732C19.7547 22.3305 19.3659 23.2095 19.2025 24.1714H17.1348V26.167H19.1913C19.3434 27.1288 19.7209 28.0133 20.2731 28.7762L18.8138 30.2079L20.2505 31.6176L21.7042 30.1913C22.4761 30.7386 23.3719 31.1201 24.3523 31.2804V33.3091H26.3862V31.2914C27.3666 31.1422 28.2681 30.7718 29.0456 30.23L30.5049 31.6618L31.9416 30.2522L30.488 28.8259C31.0458 28.0686 31.4345 27.1896 31.5979 26.2278H33.6657V26.2278ZM25.4002 27.057C24.3579 27.057 23.5071 26.2278 23.5071 25.1996C23.5071 24.1769 24.3523 23.3422 25.4002 23.3422C26.4426 23.3422 27.2933 24.1714 27.2933 25.1996C27.2877 26.2222 26.4426 27.057 25.4002 27.057Z" fill="#AEB4FC"/>
<g opacity="0.3">
<path d="M129.084 11.4016L113.973 8.03038C113.825 7.99832 113.731 7.8514 113.766 7.70448L115.669 -0.704827C115.701 -0.85175 115.849 -0.945246 115.997 -0.910519L131.108 2.46335C131.256 2.49541 131.35 2.64233 131.315 2.78925L129.409 11.1986C129.377 11.3428 129.232 11.4363 129.084 11.4016Z" fill="#ECECEC"/>
<path d="M114.017 7.8327C113.976 7.82469 113.952 7.78462 113.963 7.74722L115.868 -0.662083C115.876 -0.702153 115.917 -0.726195 115.954 -0.71551L131.065 2.65836C131.105 2.66638 131.13 2.70645 131.119 2.74385L129.213 11.1531C129.205 11.1932 129.165 11.2173 129.127 11.2066L114.017 7.8327Z" fill="#F5F4F5"/>
<path d="M128.981 1.98614L118.127 -0.436745L118.083 -0.241284L128.936 2.1816L128.981 1.98614Z" fill="#706F6E"/>
<path d="M117.071 0.772435L116.571 0.660241C116.509 0.646884 116.469 0.585444 116.482 0.521332L116.56 0.171389C116.574 0.109949 116.635 0.0698798 116.7 0.0832364L117.201 0.195431C117.263 0.208788 117.303 0.270228 117.289 0.33434L117.211 0.684283C117.195 0.745723 117.133 0.785792 117.071 0.772435Z" fill="#585857"/>
<path d="M116.592 0.561472C116.584 0.558801 116.579 0.550787 116.581 0.542773L116.659 0.19283C116.662 0.184816 116.67 0.179473 116.678 0.182145L117.179 0.294341C117.187 0.297012 117.192 0.305026 117.189 0.31304L117.111 0.662982C117.109 0.670995 117.101 0.676338 117.093 0.673667L116.592 0.561472Z" fill="#5E5E5D"/>
<path d="M117.988 0.975554L117.488 0.863358C117.426 0.850002 117.386 0.788561 117.399 0.72445L117.477 0.374508C117.491 0.313067 117.552 0.272997 117.617 0.286354L118.118 0.39855C118.179 0.411906 118.22 0.473347 118.206 0.537458L118.128 0.8874C118.112 0.951512 118.05 0.988911 117.988 0.975554Z" fill="#585857"/>
<path d="M117.509 0.766947C117.501 0.764276 117.496 0.756261 117.498 0.748247L117.576 0.398305C117.579 0.390291 117.587 0.384948 117.595 0.38762L118.096 0.499815C118.104 0.502487 118.109 0.510501 118.106 0.518515L118.028 0.868456C118.026 0.87647 118.018 0.881813 118.01 0.879142L117.509 0.766947Z" fill="#5E5E5D"/>
<path d="M118.906 1.18118L118.406 1.06899C118.344 1.05563 118.304 0.994188 118.317 0.930077L118.395 0.580135C118.409 0.518695 118.47 0.478625 118.535 0.491981L119.036 0.604177C119.097 0.617534 119.138 0.678974 119.124 0.743086L119.046 1.09303C119.03 1.15447 118.968 1.19454 118.906 1.18118Z" fill="#585857"/>
<path d="M118.427 0.970064C118.419 0.967393 118.414 0.959379 118.416 0.951365L118.494 0.601422C118.497 0.593409 118.505 0.588066 118.513 0.590737L119.014 0.702933C119.022 0.705604 119.027 0.713618 119.024 0.721632L118.946 1.07157C118.944 1.07959 118.936 1.08493 118.928 1.08226L118.427 0.970064Z" fill="#5E5E5D"/>
<path d="M119.824 1.38399L119.323 1.2718C119.261 1.25844 119.221 1.197 119.235 1.13289L119.313 0.782946C119.326 0.721506 119.388 0.681437 119.453 0.694793L119.953 0.806988C120.015 0.820345 120.055 0.881785 120.042 0.945897L119.964 1.29584C119.948 1.35995 119.886 1.40002 119.824 1.38399Z" fill="#585857"/>
<path d="M119.345 1.17569C119.337 1.17302 119.332 1.16501 119.335 1.15699L119.413 0.80705C119.415 0.799036 119.423 0.793693 119.432 0.796364L119.932 0.90856C119.94 0.911232 119.946 0.919245 119.943 0.927259L119.865 1.2772C119.862 1.28522 119.854 1.29056 119.846 1.28789L119.345 1.17569Z" fill="#5E5E5D"/>
<path d="M120.738 1.58977L120.238 1.47758C120.176 1.46422 120.136 1.40278 120.149 1.33867L120.227 0.988726C120.241 0.927286 120.302 0.887217 120.367 0.900573L120.868 1.01277C120.929 1.02612 120.97 1.08757 120.956 1.15168L120.878 1.50162C120.865 1.56573 120.803 1.60313 120.738 1.58977Z" fill="#585857"/>
<path d="M120.262 1.38148C120.254 1.37881 120.249 1.37079 120.252 1.36278L120.33 1.01284C120.332 1.00482 120.34 0.999481 120.349 1.00215L120.849 1.11435C120.857 1.11702 120.863 1.12503 120.86 1.13305L120.782 1.48299C120.779 1.491 120.771 1.49635 120.763 1.49367L120.262 1.38148Z" fill="#5E5E5D"/>
<path d="M121.656 1.79541L121.156 1.68321C121.094 1.66986 121.054 1.60842 121.067 1.54431L121.145 1.19436C121.159 1.13292 121.22 1.09285 121.285 1.10621L121.786 1.2184C121.847 1.23176 121.888 1.2932 121.874 1.35731L121.796 1.70725C121.783 1.76869 121.721 1.80877 121.656 1.79541Z" fill="#585857"/>
<path d="M121.18 1.58441C121.172 1.58174 121.167 1.57373 121.17 1.56571L121.248 1.21577C121.25 1.20776 121.258 1.20242 121.267 1.20509L121.767 1.31728C121.775 1.31995 121.781 1.32797 121.778 1.33598L121.7 1.68592C121.697 1.69394 121.689 1.69928 121.681 1.69661L121.18 1.58441Z" fill="#5E5E5D"/>
<path d="M122.575 1.99849L122.074 1.88629C122.012 1.87294 121.972 1.8115 121.985 1.74738L122.064 1.39744C122.077 1.336 122.139 1.29593 122.203 1.30929L122.704 1.42148C122.766 1.43484 122.806 1.49628 122.793 1.56039L122.715 1.91033C122.701 1.97445 122.637 2.01451 122.575 1.99849Z" fill="#585857"/>
<path d="M122.098 1.79019C122.09 1.78752 122.084 1.77951 122.087 1.77149L122.165 1.42155C122.168 1.41354 122.176 1.4082 122.184 1.41087L122.685 1.52306C122.693 1.52573 122.698 1.53375 122.695 1.54176L122.617 1.8917C122.615 1.89972 122.607 1.90506 122.598 1.90239L122.098 1.79019Z" fill="#5E5E5D"/>
<path d="M123.492 2.20427L122.991 2.09207C122.929 2.07872 122.889 2.01728 122.902 1.95316L122.981 1.60322C122.994 1.54178 123.056 1.50171 123.12 1.51507L123.621 1.62726C123.683 1.64062 123.723 1.70206 123.71 1.76617L123.632 2.11611C123.616 2.18023 123.554 2.21762 123.492 2.20427Z" fill="#585857"/>
<path d="M123.015 1.99585C123.007 1.99318 123.002 1.98517 123.005 1.97715L123.083 1.62721C123.085 1.6192 123.093 1.61385 123.101 1.61652L123.602 1.72872C123.61 1.73139 123.615 1.73941 123.613 1.74742L123.535 2.09736C123.532 2.10538 123.524 2.11072 123.516 2.10805L123.015 1.99585Z" fill="#5E5E5D"/>
<path d="M124.41 2.4099L123.909 2.29771C123.847 2.28435 123.807 2.22291 123.82 2.1588L123.899 1.80886C123.912 1.74742 123.974 1.70735 124.038 1.7207L124.539 1.8329C124.601 1.84625 124.641 1.90769 124.628 1.97181L124.55 2.32175C124.534 2.38319 124.472 2.42326 124.41 2.4099Z" fill="#585857"/>
<path d="M123.93 2.19894C123.922 2.19627 123.917 2.18825 123.92 2.18024L123.998 1.8303C124 1.82228 124.008 1.81694 124.017 1.81961L124.517 1.93181C124.525 1.93448 124.531 1.94249 124.528 1.95051L124.45 2.30045C124.447 2.30846 124.439 2.3138 124.431 2.31113L123.93 2.19894Z" fill="#5E5E5D"/>
<path d="M125.327 2.61302L124.827 2.50082C124.765 2.48747 124.724 2.42603 124.738 2.36192L124.816 2.01197C124.829 1.95053 124.891 1.91046 124.956 1.92382L125.456 2.03602C125.518 2.04937 125.559 2.11081 125.545 2.17492L125.467 2.52487C125.451 2.58898 125.389 2.62905 125.327 2.61302Z" fill="#585857"/>
<path d="M124.848 2.40472C124.84 2.40205 124.834 2.39403 124.837 2.38602L124.915 2.03608C124.918 2.02806 124.926 2.02272 124.934 2.02539L125.435 2.13759C125.443 2.14026 125.448 2.14827 125.445 2.15629L125.367 2.50623C125.365 2.51424 125.357 2.51958 125.348 2.51691L124.848 2.40472Z" fill="#5E5E5D"/>
<path d="M126.245 2.81865L125.744 2.70645C125.682 2.6931 125.642 2.63166 125.655 2.56754L125.733 2.2176C125.747 2.15616 125.809 2.11609 125.873 2.12945L126.374 2.24164C126.436 2.255 126.476 2.31644 126.463 2.38055L126.385 2.73049C126.369 2.79461 126.307 2.832 126.245 2.81865Z" fill="#585857"/>
<path d="M125.765 2.6102C125.757 2.60753 125.752 2.59952 125.755 2.5915L125.833 2.24156C125.835 2.23354 125.843 2.2282 125.851 2.23087L126.352 2.34307C126.36 2.34574 126.365 2.35375 126.363 2.36177L126.285 2.71171C126.282 2.71972 126.274 2.72507 126.266 2.7224L125.765 2.6102Z" fill="#5E5E5D"/>
<path d="M127.163 3.02443L126.662 2.91223C126.6 2.89888 126.56 2.83743 126.573 2.77332L126.651 2.42338C126.665 2.36194 126.727 2.32187 126.791 2.33523L127.292 2.44742C127.354 2.46078 127.394 2.52222 127.381 2.58633L127.303 2.93627C127.287 2.99771 127.225 3.03778 127.163 3.02443Z" fill="#585857"/>
<path d="M126.684 2.81317C126.676 2.81049 126.67 2.80248 126.673 2.79447L126.751 2.44452C126.754 2.43651 126.762 2.43117 126.77 2.43384L127.27 2.54603C127.279 2.54871 127.284 2.55672 127.281 2.56473L127.203 2.91468C127.201 2.92269 127.192 2.92803 127.184 2.92536L126.684 2.81317Z" fill="#5E5E5D"/>
<path d="M128.08 3.22724L127.58 3.11504C127.518 3.10169 127.477 3.04025 127.491 2.97614L127.569 2.62619C127.582 2.56475 127.644 2.52468 127.709 2.53804L128.209 2.65024C128.271 2.66359 128.312 2.72503 128.298 2.78914L128.22 3.13909C128.204 3.2032 128.142 3.24327 128.08 3.22724Z" fill="#585857"/>
<path d="M127.601 3.01894C127.593 3.01627 127.587 3.00826 127.59 3.00025L127.668 2.6503C127.671 2.64229 127.679 2.63695 127.687 2.63962L128.187 2.75181C128.196 2.75448 128.201 2.7625 128.198 2.77051L128.12 3.12046C128.118 3.12847 128.109 3.13381 128.101 3.13114L127.601 3.01894Z" fill="#5E5E5D"/>
<path d="M128.998 3.43288L128.497 3.32068C128.435 3.30732 128.395 3.24588 128.408 3.18177L128.486 2.83183C128.5 2.77039 128.562 2.73032 128.626 2.74367L129.127 2.85587C129.189 2.86923 129.229 2.93067 129.216 2.99478L129.138 3.34472C129.121 3.40883 129.06 3.44623 128.998 3.43288Z" fill="#585857"/>
<path d="M128.519 3.22473C128.511 3.22205 128.505 3.21404 128.508 3.20603L128.586 2.85608C128.589 2.84807 128.597 2.84273 128.605 2.8454L129.105 2.95759C129.114 2.96026 129.119 2.96828 129.116 2.97629L129.038 3.32624C129.035 3.33425 129.027 3.33959 129.019 3.33692L128.519 3.22473Z" fill="#5E5E5D"/>
<path d="M129.913 3.63865L129.413 3.52646C129.351 3.5131 129.31 3.45166 129.324 3.38755L129.402 3.03761C129.415 2.97617 129.477 2.9361 129.542 2.94945L130.042 3.06165C130.104 3.07501 130.145 3.13645 130.131 3.20056L130.053 3.5505C130.04 3.61194 129.978 3.65201 129.913 3.63865Z" fill="#585857"/>
<path d="M129.437 3.42769C129.429 3.42502 129.423 3.41701 129.426 3.40899L129.504 3.05905C129.507 3.05103 129.515 3.04569 129.523 3.04836L130.023 3.16056C130.031 3.16323 130.037 3.17124 130.034 3.17926L129.956 3.5292C129.953 3.53721 129.945 3.54256 129.937 3.53989L129.437 3.42769Z" fill="#5E5E5D"/>
<path d="M116.56 0.780568L117.178 0.919477C117.248 0.935505 117.294 1.00496 117.278 1.07708L117.141 1.6808C117.125 1.75026 117.055 1.79567 116.982 1.77964L116.363 1.64073C116.293 1.6247 116.247 1.55525 116.264 1.48312L116.401 0.879406C116.417 0.809952 116.487 0.76454 116.56 0.780568Z" fill="#585857"/>
<path d="M116.387 1.54157C116.371 1.5389 116.361 1.5202 116.363 1.50418L116.5 0.900458C116.503 0.88443 116.522 0.873745 116.538 0.876416L117.157 1.01532C117.173 1.018 117.184 1.0367 117.181 1.05272L117.044 1.65644C117.041 1.67247 117.023 1.68315 117.006 1.68048L116.387 1.54157Z" fill="#5E5E5D"/>
<path d="M117.617 1.01805L118.236 1.15696C118.306 1.17299 118.351 1.24244 118.335 1.31457L118.198 1.91828C118.182 1.98774 118.112 2.03315 118.039 2.01712L117.42 1.87822C117.35 1.86219 117.304 1.79273 117.321 1.72061L117.458 1.11689C117.474 1.04476 117.544 1.00202 117.617 1.01805Z" fill="#585857"/>
<path d="M117.445 1.77935C117.429 1.77668 117.418 1.75798 117.421 1.74195L117.558 1.13824C117.561 1.12221 117.58 1.11152 117.596 1.11419L118.215 1.2531C118.231 1.25577 118.242 1.27447 118.239 1.2905L118.102 1.89422C118.099 1.91025 118.08 1.92093 118.064 1.91826L117.445 1.77935Z" fill="#5E5E5D"/>
<path d="M118.675 1.25329L119.294 1.3922C119.364 1.40823 119.409 1.47768 119.393 1.54981L119.256 2.15353C119.24 2.22298 119.17 2.26839 119.097 2.25236L118.478 2.11346C118.408 2.09743 118.363 2.02797 118.379 1.95585L118.516 1.35213C118.532 1.28268 118.605 1.23727 118.675 1.25329Z" fill="#585857"/>
<path d="M118.503 2.01442C118.487 2.01175 118.476 1.99305 118.478 1.97702L118.616 1.37331C118.618 1.35728 118.637 1.34659 118.653 1.34926L119.272 1.48817C119.288 1.49084 119.299 1.50954 119.297 1.52557L119.159 2.12929C119.157 2.14532 119.138 2.156 119.122 2.15333L118.503 2.01442Z" fill="#5E5E5D"/>
<path d="M119.732 1.4884L120.351 1.62731C120.421 1.64334 120.467 1.71279 120.451 1.78492L120.314 2.38863C120.298 2.45809 120.228 2.5035 120.155 2.48747L119.536 2.34856C119.466 2.33254 119.42 2.26308 119.436 2.19096L119.574 1.58724C119.59 1.51779 119.662 1.47237 119.732 1.4884Z" fill="#585857"/>
<path d="M119.56 2.25219C119.544 2.24952 119.533 2.23082 119.536 2.21479L119.673 1.61108C119.676 1.59505 119.695 1.58436 119.711 1.58703L120.33 1.72594C120.346 1.72861 120.357 1.74731 120.354 1.76334L120.217 2.36706C120.214 2.38309 120.195 2.39377 120.179 2.3911L119.56 2.25219Z" fill="#5E5E5D"/>
<path d="M120.79 1.72615L121.409 1.86506C121.479 1.88109 121.525 1.95054 121.509 2.02267L121.371 2.62638C121.355 2.69584 121.285 2.74125 121.212 2.72522L120.594 2.58631C120.524 2.57029 120.478 2.50083 120.494 2.42871L120.631 1.82499C120.65 1.75286 120.72 1.71012 120.79 1.72615Z" fill="#585857"/>
<path d="M120.617 2.4873C120.601 2.48463 120.59 2.46593 120.593 2.4499L120.73 1.84618C120.733 1.83015 120.752 1.81947 120.768 1.82214L121.387 1.96105C121.403 1.96372 121.414 1.98242 121.411 1.99845L121.274 2.60217C121.271 2.61819 121.253 2.62888 121.236 2.62621L120.617 2.4873Z" fill="#5E5E5D"/>
<path d="M121.848 1.96125L122.467 2.10016C122.537 2.11618 122.582 2.18564 122.566 2.25776L122.429 2.86148C122.413 2.93093 122.343 2.97635 122.27 2.96032L121.651 2.82141C121.581 2.80538 121.535 2.73593 121.552 2.6638L121.689 2.06009C121.708 1.99063 121.778 1.94522 121.848 1.96125Z" fill="#585857"/>
<path d="M121.675 2.72253C121.659 2.71986 121.648 2.70116 121.651 2.68513L121.788 2.08141C121.791 2.06538 121.81 2.0547 121.826 2.05737L122.445 2.19628C122.461 2.19895 122.472 2.21765 122.469 2.23368L122.332 2.8374C122.329 2.85342 122.31 2.86411 122.294 2.86144L121.675 2.72253Z" fill="#5E5E5D"/>
<path d="M122.906 2.19873L123.525 2.33764C123.595 2.35367 123.64 2.42312 123.624 2.49525L123.487 3.09896C123.471 3.16842 123.401 3.21383 123.328 3.1978L122.709 3.05889C122.639 3.04287 122.594 2.97341 122.61 2.90129L122.747 2.29757C122.766 2.22544 122.836 2.1827 122.906 2.19873Z" fill="#585857"/>
<path d="M122.733 2.96018C122.716 2.95751 122.706 2.93881 122.708 2.92278L122.846 2.31906C122.848 2.30303 122.867 2.29235 122.883 2.29502L123.502 2.43393C123.518 2.4366 123.529 2.4553 123.527 2.47133L123.389 3.07504C123.387 3.09107 123.368 3.10176 123.352 3.09909L122.733 2.96018Z" fill="#5E5E5D"/>
<path d="M123.965 2.43412L124.584 2.57303C124.654 2.58906 124.7 2.65852 124.684 2.73064L124.547 3.33436C124.53 3.40381 124.46 3.44923 124.388 3.4332L123.769 3.29429C123.699 3.27826 123.653 3.20881 123.669 3.13668L123.807 2.53296C123.823 2.46351 123.893 2.4181 123.965 2.43412Z" fill="#585857"/>
<path d="M123.791 3.1954C123.775 3.19273 123.764 3.17403 123.767 3.15801L123.904 2.55429C123.906 2.53826 123.925 2.52758 123.941 2.53025L124.56 2.66916C124.577 2.67183 124.587 2.69053 124.585 2.70655L124.447 3.31027C124.445 3.3263 124.426 3.33698 124.41 3.33431L123.791 3.1954Z" fill="#5E5E5D"/>
<path d="M125.023 2.66893L125.642 2.80784C125.712 2.82386 125.758 2.89332 125.741 2.96544L125.604 3.56916C125.588 3.63861 125.518 3.68403 125.445 3.668L124.826 3.52909C124.756 3.51306 124.711 3.44361 124.727 3.37148L124.864 2.76777C124.88 2.69831 124.95 2.6529 125.023 2.66893Z" fill="#585857"/>
<path d="M124.851 3.4329C124.835 3.43023 124.824 3.41153 124.827 3.3955L124.964 2.79178C124.967 2.77576 124.986 2.76507 125.002 2.76774L125.621 2.90665C125.637 2.90932 125.648 2.92802 125.645 2.94405L125.508 3.54777C125.505 3.5638 125.486 3.57448 125.47 3.57181L124.851 3.4329Z" fill="#5E5E5D"/>
<path d="M126.081 2.90683L126.699 3.04574C126.769 3.06177 126.815 3.13122 126.799 3.20335L126.662 3.80706C126.646 3.87652 126.576 3.92193 126.503 3.9059L125.884 3.76699C125.814 3.75097 125.768 3.68151 125.784 3.60939L125.922 3.00567C125.938 2.93354 126.008 2.8908 126.081 2.90683Z" fill="#585857"/>
<path d="M125.908 3.66825C125.892 3.66558 125.882 3.64688 125.884 3.63085L126.021 3.02714C126.024 3.01111 126.043 3.00042 126.059 3.00309L126.678 3.142C126.694 3.14467 126.705 3.16337 126.702 3.1794L126.565 3.78312C126.562 3.79915 126.544 3.80983 126.527 3.80716L125.908 3.66825Z" fill="#5E5E5D"/>
<path d="M127.139 3.1418L127.758 3.28071C127.828 3.29674 127.874 3.3662 127.857 3.43832L127.72 4.04204C127.704 4.11149 127.634 4.1569 127.561 4.14088L126.945 4.00197C126.875 3.98594 126.829 3.91649 126.846 3.84436L126.983 3.24064C126.996 3.17119 127.066 3.12578 127.139 3.1418Z" fill="#585857"/>
<path d="M126.966 3.90321C126.95 3.90054 126.939 3.88184 126.942 3.86581L127.079 3.26209C127.082 3.24606 127.101 3.23538 127.117 3.23805L127.736 3.37696C127.752 3.37963 127.763 3.39833 127.76 3.41436L127.62 4.01807C127.617 4.0341 127.598 4.04479 127.582 4.04212L126.966 3.90321Z" fill="#5E5E5D"/>
<path d="M128.195 3.37971L128.814 3.51862C128.884 3.53464 128.93 3.6041 128.914 3.67622L128.777 4.27994C128.76 4.34939 128.69 4.39481 128.618 4.37878L127.999 4.23987C127.929 4.22384 127.883 4.15439 127.899 4.08226L128.036 3.47855C128.053 3.40642 128.125 3.36368 128.195 3.37971Z" fill="#585857"/>
<path d="M128.024 4.14098C128.008 4.13831 127.997 4.11961 127.999 4.10358L128.137 3.49986C128.139 3.48383 128.158 3.47315 128.174 3.47582L128.793 3.61473C128.809 3.6174 128.82 3.6361 128.818 3.65213L128.68 4.25584C128.678 4.27187 128.659 4.28256 128.643 4.27989L128.024 4.14098Z" fill="#5E5E5D"/>
<path d="M129.253 3.61465L129.872 3.75356C129.942 3.76959 129.988 3.83904 129.972 3.91117L129.835 4.51488C129.819 4.58434 129.749 4.62975 129.676 4.61372L129.057 4.47481C128.987 4.45879 128.941 4.38933 128.957 4.31721L129.097 3.71349C129.111 3.64404 129.183 3.59862 129.253 3.61465Z" fill="#585857"/>
<path d="M129.081 4.37608C129.065 4.37341 129.054 4.35471 129.057 4.33868L129.194 3.73496C129.197 3.71893 129.216 3.70825 129.232 3.71092L129.851 3.84983C129.867 3.8525 129.878 3.8712 129.875 3.88723L129.738 4.49094C129.735 4.50697 129.716 4.51766 129.7 4.51499L129.081 4.37608Z" fill="#5E5E5D"/>
<path d="M116.336 1.75816L116.955 1.89707C117.025 1.9131 117.071 1.98255 117.055 2.05468L116.918 2.65839C116.902 2.72785 116.832 2.77326 116.759 2.75723L116.14 2.61832C116.07 2.6023 116.024 2.53284 116.04 2.46072L116.18 1.857C116.196 1.78754 116.266 1.74213 116.336 1.75816Z" fill="#585857"/>
<path d="M116.164 2.51944C116.148 2.51677 116.137 2.49807 116.14 2.48204L116.277 1.87833C116.28 1.8623 116.298 1.85161 116.314 1.85428L116.933 1.99319C116.95 1.99586 116.96 2.01456 116.958 2.03059L116.82 2.63431C116.818 2.65034 116.799 2.66102 116.783 2.65835L116.164 2.51944Z" fill="#5E5E5D"/>
<path d="M117.396 1.99591L118.015 2.13482C118.085 2.15085 118.131 2.2203 118.115 2.29243L117.978 2.89614C117.962 2.9656 117.892 3.01101 117.819 2.99498L117.2 2.85607C117.13 2.84005 117.084 2.77059 117.1 2.69847L117.238 2.09475C117.254 2.02262 117.324 1.97988 117.396 1.99591Z" fill="#585857"/>
<path d="M117.221 2.75721C117.205 2.75454 117.194 2.73584 117.197 2.71981L117.334 2.1161C117.337 2.10007 117.356 2.08938 117.372 2.09205L117.991 2.23096C118.007 2.23363 118.018 2.25233 118.015 2.26836L117.878 2.87208C117.875 2.88811 117.857 2.89879 117.84 2.89612L117.221 2.75721Z" fill="#5E5E5D"/>
<path d="M118.454 2.23101L119.073 2.36992C119.143 2.38594 119.189 2.4554 119.173 2.52752L119.035 3.13124C119.019 3.2007 118.949 3.24611 118.877 3.23008L118.258 3.09117C118.188 3.07514 118.142 3.00569 118.158 2.93356L118.295 2.32985C118.311 2.26039 118.381 2.21498 118.454 2.23101Z" fill="#585857"/>
<path d="M118.282 2.99229C118.266 2.98962 118.255 2.97092 118.258 2.95489L118.395 2.35117C118.398 2.33514 118.417 2.32446 118.433 2.32713L119.052 2.46604C119.068 2.46871 119.079 2.48741 119.076 2.50344L118.939 3.10716C118.936 3.12318 118.917 3.13387 118.901 3.1312L118.282 2.99229Z" fill="#5E5E5D"/>
<path d="M119.512 2.46611L120.131 2.60502C120.201 2.62105 120.246 2.69051 120.23 2.76263L120.093 3.36635C120.077 3.4358 120.007 3.48122 119.934 3.46519L119.315 3.32628C119.245 3.31025 119.2 3.2408 119.216 3.16867L119.353 2.56495C119.369 2.4955 119.439 2.45009 119.512 2.46611Z" fill="#585857"/>
<path d="M119.339 3.2274C119.323 3.22472 119.312 3.20603 119.315 3.19L119.452 2.58628C119.455 2.57025 119.474 2.55957 119.49 2.56224L120.109 2.70115C120.125 2.70382 120.136 2.72252 120.133 2.73854L119.996 3.34226C119.993 3.35829 119.974 3.36898 119.958 3.3663L119.339 3.2274Z" fill="#5E5E5D"/>
<path d="M120.57 2.70374L121.189 2.84265C121.259 2.85868 121.304 2.92813 121.288 3.00026L121.151 3.60398C121.135 3.67343 121.065 3.71884 120.992 3.70281L120.373 3.56391C120.303 3.54788 120.258 3.47842 120.274 3.4063L120.411 2.80258C120.427 2.73046 120.5 2.68772 120.57 2.70374Z" fill="#585857"/>
<path d="M120.397 3.46517C120.381 3.46249 120.37 3.4438 120.373 3.42777L120.51 2.82405C120.513 2.80802 120.532 2.79734 120.548 2.80001L121.167 2.93892C121.183 2.94159 121.194 2.96029 121.191 2.97631L121.054 3.58003C121.051 3.59606 121.032 3.60675 121.016 3.60407L120.397 3.46517Z" fill="#5E5E5D"/>
<path d="M121.627 2.93869L122.246 3.0776C122.316 3.09362 122.362 3.16308 122.346 3.2352L122.209 3.83892C122.193 3.90838 122.123 3.95379 122.05 3.93776L121.431 3.79885C121.361 3.78282 121.315 3.71337 121.331 3.64124L121.469 3.03753C121.485 2.96807 121.557 2.92266 121.627 2.93869Z" fill="#585857"/>
<path d="M121.455 3.70012C121.439 3.69745 121.428 3.67875 121.431 3.66272L121.568 3.059C121.571 3.04298 121.589 3.03229 121.606 3.03496L122.224 3.17387C122.241 3.17654 122.251 3.19524 122.249 3.21127L122.111 3.81499C122.109 3.83102 122.09 3.8417 122.074 3.83903L121.455 3.70012Z" fill="#5E5E5D"/>
<path d="M122.684 3.17659L123.303 3.3155C123.373 3.33153 123.419 3.40098 123.403 3.47311L123.265 4.07682C123.249 4.14628 123.179 4.19169 123.107 4.17566L122.488 4.03675C122.418 4.02073 122.372 3.95127 122.388 3.87915L122.525 3.27543C122.544 3.2033 122.614 3.16056 122.684 3.17659Z" fill="#585857"/>
<path d="M122.512 3.93789C122.496 3.93522 122.486 3.91652 122.488 3.90049L122.625 3.29677C122.628 3.28075 122.647 3.27006 122.663 3.27273L123.282 3.41164C123.298 3.41431 123.309 3.43301 123.306 3.44904L123.169 4.05276C123.166 4.06879 123.148 4.07947 123.131 4.0768L122.512 3.93789Z" fill="#5E5E5D"/>
<path d="M123.742 3.41156L124.361 3.55047C124.431 3.5665 124.477 3.63596 124.461 3.70808L124.323 4.3118C124.307 4.38125 124.237 4.42667 124.165 4.41064L123.546 4.27173C123.476 4.2557 123.43 4.18625 123.446 4.11412L123.583 3.5104C123.602 3.44095 123.672 3.39554 123.742 3.41156Z" fill="#585857"/>
<path d="M123.57 4.17297C123.553 4.1703 123.543 4.1516 123.545 4.13557L123.683 3.53185C123.685 3.51582 123.704 3.50514 123.72 3.50781L124.339 3.64672C124.355 3.64939 124.366 3.66809 124.363 3.68412L124.226 4.28783C124.223 4.30386 124.205 4.31455 124.189 4.31188L123.57 4.17297Z" fill="#5E5E5D"/>
<path d="M124.8 3.64679L125.419 3.7857C125.489 3.80173 125.534 3.87118 125.518 3.94331L125.381 4.54703C125.365 4.61648 125.295 4.66189 125.222 4.64587L124.603 4.50696C124.533 4.49093 124.488 4.42148 124.504 4.34935L124.641 3.74563C124.66 3.67618 124.73 3.63077 124.8 3.64679Z" fill="#585857"/>
<path d="M124.627 4.40807C124.611 4.4054 124.6 4.3867 124.603 4.37067L124.74 3.76695C124.743 3.75092 124.762 3.74024 124.778 3.74291L125.397 3.88182C125.413 3.88449 125.424 3.90319 125.421 3.91922L125.284 4.52293C125.281 4.53896 125.262 4.54965 125.246 4.54698L124.627 4.40807Z" fill="#5E5E5D"/>
<path d="M125.857 3.88454L126.476 4.02345C126.546 4.03948 126.592 4.10894 126.576 4.18106L126.439 4.78478C126.423 4.85423 126.353 4.89965 126.28 4.88362L125.661 4.74471C125.591 4.72868 125.545 4.65923 125.561 4.5871L125.699 3.98338C125.717 3.91126 125.787 3.86852 125.857 3.88454Z" fill="#585857"/>
<path d="M125.685 4.64584C125.669 4.64317 125.658 4.62447 125.661 4.60844L125.798 4.00472C125.801 3.98869 125.819 3.97801 125.835 3.98068L126.454 4.11959C126.471 4.12226 126.481 4.14096 126.479 4.15699L126.341 4.7607C126.339 4.77673 126.32 4.78742 126.304 4.78475L125.685 4.64584Z" fill="#5E5E5D"/>
<path d="M126.917 4.11963L127.536 4.25854C127.606 4.27457 127.652 4.34402 127.636 4.41615L127.499 5.01987C127.483 5.08932 127.413 5.13473 127.34 5.11871L126.721 4.9798C126.651 4.96377 126.605 4.89431 126.621 4.82219L126.759 4.21847C126.775 4.14902 126.845 4.10361 126.917 4.11963Z" fill="#585857"/>
<path d="M126.742 4.88094C126.726 4.87827 126.715 4.85957 126.718 4.84355L126.855 4.23983C126.858 4.2238 126.877 4.21312 126.893 4.21579L127.512 4.35469C127.528 4.35737 127.539 4.37607 127.536 4.39209L127.399 4.99581C127.396 5.01184 127.378 5.02252 127.361 5.01985L126.742 4.88094Z" fill="#5E5E5D"/>
<path d="M127.975 4.35727L128.594 4.49618C128.664 4.51221 128.71 4.58166 128.694 4.65379L128.556 5.2575C128.54 5.32696 128.47 5.37237 128.398 5.35634L127.779 5.21743C127.709 5.20141 127.663 5.13195 127.679 5.05983L127.816 4.45611C127.832 4.38398 127.902 4.34124 127.975 4.35727Z" fill="#585857"/>
<path d="M127.803 5.11871C127.787 5.11604 127.777 5.09734 127.779 5.08132L127.916 4.4776C127.919 4.46157 127.938 4.45089 127.954 4.45356L128.573 4.59247C128.589 4.59514 128.6 4.61384 128.597 4.62986L128.46 5.23358C128.457 5.24961 128.439 5.26029 128.422 5.25762L127.803 5.11871Z" fill="#5E5E5D"/>
<path d="M129.033 4.59251L129.652 4.73142C129.722 4.74745 129.767 4.8169 129.751 4.88903L129.614 5.49274C129.598 5.5622 129.528 5.60761 129.455 5.59158L128.836 5.45267C128.766 5.43665 128.72 5.36719 128.737 5.29507L128.874 4.69135C128.89 4.6219 128.96 4.57648 129.033 4.59251Z" fill="#585857"/>
<path d="M128.861 5.35379C128.844 5.35112 128.834 5.33242 128.836 5.31639L128.974 4.71268C128.976 4.69665 128.995 4.68596 129.011 4.68863L129.63 4.82754C129.646 4.83021 129.657 4.84891 129.654 4.86494L129.517 5.46866C129.515 5.48469 129.496 5.49537 129.48 5.4927L128.861 5.35379Z" fill="#5E5E5D"/>
<path d="M116.116 2.73572L116.735 2.87463C116.805 2.89066 116.85 2.96011 116.834 3.03224L116.697 3.63596C116.681 3.70541 116.611 3.75082 116.538 3.73479L115.919 3.59589C115.849 3.57986 115.804 3.5104 115.82 3.43828L115.957 2.83456C115.976 2.76511 116.046 2.71969 116.116 2.73572Z" fill="#585857"/>
<path d="M115.944 3.497C115.927 3.49433 115.917 3.47563 115.919 3.4596L116.057 2.85589C116.059 2.83986 116.078 2.82917 116.094 2.83185L116.713 2.97075C116.729 2.97343 116.74 2.99212 116.737 3.00815L116.6 3.61187C116.598 3.6279 116.579 3.63858 116.563 3.63591L115.944 3.497Z" fill="#5E5E5D"/>
<path d="M117.173 2.97074L117.792 3.10964C117.862 3.12567 117.908 3.19513 117.892 3.26725L117.755 3.87097C117.738 3.94042 117.668 3.98584 117.596 3.96981L116.977 3.8309C116.907 3.81487 116.861 3.74542 116.877 3.67329L117.015 3.06958C117.033 3.00012 117.103 2.95738 117.173 2.97074Z" fill="#585857"/>
<path d="M117.001 3.73508C116.985 3.73241 116.974 3.71371 116.976 3.69768L117.114 3.09396C117.116 3.07793 117.135 3.06725 117.151 3.06992L117.77 3.20883C117.787 3.2115 117.797 3.2302 117.795 3.24623L117.657 3.84994C117.655 3.86597 117.636 3.87666 117.62 3.87399L117.001 3.73508Z" fill="#5E5E5D"/>
<path d="M118.23 3.2086L118.849 3.34751C118.919 3.36354 118.965 3.43299 118.949 3.50512L118.812 4.10883C118.796 4.17829 118.726 4.2237 118.653 4.20767L118.034 4.06876C117.964 4.05274 117.918 3.98328 117.934 3.91116L118.072 3.30744C118.09 3.23798 118.16 3.19257 118.23 3.2086Z" fill="#585857"/>
<path d="M118.058 3.96988C118.042 3.96721 118.031 3.94851 118.034 3.93248L118.171 3.32876C118.174 3.31274 118.193 3.30205 118.209 3.30472L118.828 3.44363C118.844 3.4463 118.855 3.465 118.852 3.48103L118.715 4.08475C118.712 4.10077 118.693 4.11146 118.677 4.10879L118.058 3.96988Z" fill="#5E5E5D"/>
<path d="M119.291 3.44368L119.91 3.58259C119.98 3.59861 120.026 3.66807 120.009 3.74019L119.872 4.34391C119.856 4.41337 119.786 4.45878 119.713 4.44275L119.095 4.30384C119.025 4.28781 118.979 4.21836 118.995 4.14623L119.132 3.54252C119.148 3.47306 119.218 3.42765 119.291 3.44368Z" fill="#585857"/>
<path d="M119.116 4.20498C119.1 4.20231 119.09 4.18361 119.092 4.16758L119.229 3.56386C119.232 3.54784 119.251 3.53715 119.267 3.53982L119.886 3.67873C119.902 3.6814 119.913 3.7001 119.91 3.71613L119.773 4.31985C119.77 4.33588 119.752 4.34656 119.735 4.34389L119.116 4.20498Z" fill="#5E5E5D"/>
<path d="M120.349 3.68158L120.968 3.82049C121.038 3.83652 121.083 3.90597 121.067 3.97809L120.93 4.58181C120.914 4.65127 120.844 4.69668 120.771 4.68065L120.152 4.54174C120.082 4.52571 120.036 4.45626 120.053 4.38414L120.19 3.78042C120.206 3.70829 120.276 3.66555 120.349 3.68158Z" fill="#585857"/>
<path d="M120.176 4.44276C120.16 4.44009 120.15 4.42139 120.152 4.40536L120.29 3.80164C120.292 3.78561 120.311 3.77493 120.327 3.7776L120.946 3.91651C120.962 3.91918 120.973 3.93788 120.97 3.95391L120.833 4.55763C120.83 4.57365 120.812 4.58434 120.795 4.58167L120.176 4.44276Z" fill="#5E5E5D"/>
<path d="M121.406 3.91655L122.025 4.05546C122.095 4.07149 122.141 4.14095 122.125 4.21307L121.987 4.81679C121.971 4.88624 121.901 4.93166 121.829 4.91563L121.21 4.77672C121.14 4.76069 121.094 4.69124 121.11 4.61911L121.247 4.01539C121.264 3.94594 121.334 3.90053 121.406 3.91655Z" fill="#585857"/>
<path d="M121.234 4.67784C121.217 4.67516 121.207 4.65647 121.209 4.64044L121.347 4.03672C121.349 4.02069 121.368 4.01001 121.384 4.01268L122.003 4.15159C122.019 4.15426 122.03 4.17296 122.027 4.18898L121.89 4.7927C121.888 4.80873 121.869 4.81942 121.853 4.81674L121.234 4.67784Z" fill="#5E5E5D"/>
<path d="M122.464 4.15157L123.083 4.29048C123.153 4.30651 123.199 4.37596 123.183 4.44809L123.046 5.0518C123.029 5.12126 122.959 5.16667 122.887 5.15064L122.268 5.01173C122.198 4.99571 122.152 4.92625 122.168 4.85413L122.306 4.25041C122.322 4.18095 122.392 4.13821 122.464 4.15157Z" fill="#585857"/>
<path d="M122.291 4.91561C122.275 4.91293 122.264 4.89424 122.267 4.87821L122.404 4.27449C122.407 4.25846 122.426 4.24778 122.442 4.25045L123.061 4.38936C123.077 4.39203 123.088 4.41073 123.085 4.42675L122.948 5.03047C122.945 5.0465 122.926 5.05719 122.91 5.05451L122.291 4.91561Z" fill="#5E5E5D"/>
<path d="M123.521 4.38926L124.14 4.52817C124.21 4.5442 124.256 4.61365 124.24 4.68578L124.103 5.28949C124.087 5.35895 124.017 5.40436 123.944 5.38833L123.325 5.24942C123.255 5.2334 123.209 5.16394 123.225 5.09182L123.363 4.4881C123.379 4.41597 123.451 4.37323 123.521 4.38926Z" fill="#585857"/>
<path d="M123.349 5.15071C123.333 5.14803 123.322 5.12933 123.325 5.11331L123.462 4.50959C123.465 4.49356 123.484 4.48288 123.5 4.48555L124.119 4.62446C124.135 4.62713 124.146 4.64583 124.143 4.66185L124.006 5.26557C124.003 5.2816 123.984 5.29228 123.968 5.28961L123.349 5.15071Z" fill="#5E5E5D"/>
<path d="M124.579 4.62438L125.198 4.76329C125.267 4.77932 125.313 4.84877 125.297 4.9209L125.16 5.52461C125.144 5.59407 125.074 5.63948 125.001 5.62345L124.382 5.48454C124.312 5.46852 124.266 5.39906 124.283 5.32694L124.42 4.72322C124.436 4.65376 124.509 4.60835 124.579 4.62438Z" fill="#585857"/>
<path d="M124.407 5.38566C124.391 5.38299 124.38 5.36429 124.383 5.34826L124.52 4.74454C124.523 4.72852 124.542 4.71783 124.558 4.7205L125.177 4.85941C125.193 4.86208 125.204 4.88078 125.201 4.89681L125.061 5.50053C125.058 5.51655 125.039 5.52724 125.023 5.52457L124.407 5.38566Z" fill="#5E5E5D"/>
<path d="M125.637 4.86214L126.256 5.00105C126.326 5.01707 126.371 5.08653 126.355 5.15865L126.218 5.76237C126.202 5.83182 126.132 5.87724 126.059 5.86121L125.44 5.7223C125.37 5.70627 125.325 5.63682 125.341 5.56469L125.478 4.96098C125.497 4.88885 125.567 4.84611 125.637 4.86214Z" fill="#585857"/>
<path d="M125.464 5.62343C125.448 5.62076 125.437 5.60473 125.44 5.58603L125.577 4.98231C125.58 4.96629 125.599 4.9556 125.615 4.95827L126.234 5.09718C126.25 5.09985 126.261 5.11855 126.258 5.13458L126.121 5.7383C126.118 5.75432 126.099 5.76501 126.083 5.76234L125.464 5.62343Z" fill="#5E5E5D"/>
<path d="M126.694 5.09723L127.313 5.23613C127.383 5.25216 127.429 5.32162 127.413 5.39374L127.276 5.99746C127.259 6.06691 127.189 6.11233 127.117 6.0963L126.498 5.95739C126.428 5.94136 126.382 5.87191 126.398 5.79978L126.536 5.19606C126.554 5.12661 126.624 5.0812 126.694 5.09723Z" fill="#585857"/>
<path d="M126.522 5.85851C126.506 5.85583 126.495 5.83714 126.498 5.82111L126.635 5.21739C126.638 5.20136 126.657 5.19068 126.673 5.19335L127.292 5.33226C127.308 5.33493 127.319 5.35363 127.316 5.36966L127.179 5.97337C127.176 5.9894 127.157 6.00009 127.141 5.99741L126.522 5.85851Z" fill="#5E5E5D"/>
<path d="M127.752 5.33233L128.371 5.47124C128.441 5.48727 128.487 5.55672 128.47 5.62885L128.333 6.23257C128.317 6.30202 128.247 6.34743 128.174 6.33141L127.555 6.1925C127.485 6.17647 127.44 6.10702 127.456 6.03489L127.593 5.43117C127.612 5.36172 127.682 5.31631 127.752 5.33233Z" fill="#585857"/>
<path d="M127.579 6.09628C127.563 6.0936 127.552 6.07491 127.555 6.05888L127.692 5.45516C127.695 5.43913 127.714 5.42845 127.73 5.43112L128.349 5.57003C128.365 5.5727 128.376 5.5914 128.373 5.60743L128.236 6.20847C128.233 6.2245 128.214 6.23519 128.198 6.23251L127.579 6.09628Z" fill="#5E5E5D"/>
<path d="M128.812 5.57008L129.431 5.70899C129.501 5.72502 129.547 5.79447 129.531 5.8666L129.394 6.47032C129.378 6.53977 129.308 6.58518 129.235 6.56916L128.616 6.43025C128.546 6.41422 128.5 6.34476 128.516 6.27264L128.654 5.66892C128.67 5.5968 128.74 5.55406 128.812 5.57008Z" fill="#585857"/>
<path d="M128.637 6.33138C128.621 6.32871 128.61 6.31001 128.613 6.29399L128.75 5.69027C128.753 5.67424 128.771 5.66356 128.788 5.66623L129.407 5.80513C129.423 5.80781 129.434 5.82651 129.431 5.84253L129.294 6.44625C129.291 6.46228 129.272 6.47296 129.256 6.47029L128.637 6.33138Z" fill="#5E5E5D"/>
<path d="M115.895 3.71359L116.514 3.8525C116.584 3.86853 116.63 3.93798 116.613 4.01011L116.476 4.61382C116.46 4.68328 116.39 4.72869 116.317 4.71266L115.699 4.57375C115.629 4.55773 115.583 4.48827 115.599 4.41615L115.736 3.81243C115.752 3.74297 115.825 3.69756 115.895 3.71359Z" fill="#585857"/>
<path d="M115.722 4.47486C115.706 4.47219 115.695 4.45349 115.698 4.43746L115.835 3.83375C115.838 3.81772 115.857 3.80703 115.873 3.8097L116.492 3.94861C116.508 3.95128 116.519 3.96998 116.516 3.98601L116.379 4.58973C116.376 4.60576 116.357 4.61644 116.341 4.61377L115.722 4.47486Z" fill="#5E5E5D"/>
<path d="M116.953 3.94869L117.572 4.0876C117.642 4.10362 117.687 4.17308 117.671 4.2452L117.534 4.84892C117.518 4.91838 117.448 4.96379 117.375 4.94776L116.756 4.80885C116.686 4.79282 116.64 4.72337 116.657 4.65124L116.794 4.04753C116.81 3.97807 116.883 3.93266 116.953 3.94869Z" fill="#585857"/>
<path d="M116.78 4.70997C116.764 4.7073 116.754 4.6886 116.756 4.67257L116.894 4.06885C116.896 4.05283 116.915 4.04214 116.931 4.04481L117.55 4.18372C117.566 4.18639 117.577 4.20509 117.574 4.22112L117.437 4.82484C117.434 4.84087 117.416 4.85155 117.399 4.84888L116.78 4.70997Z" fill="#5E5E5D"/>
<path d="M118.011 4.18645L118.63 4.32536C118.7 4.34138 118.745 4.41084 118.729 4.48296L118.592 5.08668C118.576 5.15613 118.506 5.20155 118.433 5.18552L117.814 5.04661C117.744 5.03058 117.699 4.96113 117.715 4.889L117.855 4.28529C117.871 4.21316 117.941 4.17042 118.011 4.18645Z" fill="#585857"/>
<path d="M117.838 4.94759C117.822 4.94492 117.811 4.92622 117.814 4.9102L117.951 4.30648C117.954 4.29045 117.973 4.27977 117.989 4.28244L118.608 4.42134C118.624 4.42402 118.635 4.44272 118.632 4.45874L118.495 5.06246C118.492 5.07849 118.473 5.08917 118.457 5.0865L117.838 4.94759Z" fill="#5E5E5D"/>
<path d="M119.067 4.42154L119.686 4.56044C119.756 4.57647 119.802 4.64593 119.786 4.71805L119.649 5.32177C119.632 5.39122 119.562 5.43664 119.49 5.42061L118.871 5.2817C118.801 5.26567 118.755 5.19622 118.771 5.12409L118.909 4.52038C118.927 4.45092 118.997 4.40551 119.067 4.42154Z" fill="#585857"/>
<path d="M118.896 5.18285C118.88 5.18018 118.869 5.16148 118.872 5.14545L119.009 4.54173C119.011 4.5257 119.03 4.51502 119.046 4.51769L119.665 4.6566C119.682 4.65927 119.692 4.67797 119.69 4.694L119.552 5.29771C119.55 5.31374 119.531 5.32443 119.515 5.32176L118.896 5.18285Z" fill="#5E5E5D"/>
<path d="M123.917 5.50332L120.12 4.65651C120.05 4.64048 119.982 4.68322 119.966 4.75268L119.818 5.40181C119.807 5.44989 119.837 5.49797 119.885 5.50866L123.718 6.36348C123.788 6.37951 123.86 6.3341 123.876 6.26464L124.014 5.66093C124.032 5.59147 123.989 5.51935 123.917 5.50332Z" fill="#585857"/>
<path d="M119.923 5.41245L120.069 4.774C120.071 4.76065 120.087 4.74996 120.101 4.7553L123.898 5.60211C123.914 5.60478 123.925 5.62348 123.922 5.63951L123.785 6.24323C123.782 6.25926 123.764 6.26994 123.747 6.26727L119.923 5.41245Z" fill="#5E5E5D"/>
<path d="M124.358 5.60225L124.977 5.74115C125.047 5.75718 125.093 5.82664 125.077 5.89876L124.94 6.50248C124.923 6.57193 124.854 6.61735 124.781 6.60132L124.162 6.46241C124.092 6.44638 124.046 6.37693 124.062 6.3048L124.2 5.70108C124.216 5.63163 124.286 5.58622 124.358 5.60225Z" fill="#585857"/>
<path d="M124.186 6.36353C124.17 6.36085 124.159 6.34216 124.162 6.32613L124.299 5.72241C124.301 5.70638 124.32 5.6957 124.336 5.69837L124.955 5.83728C124.972 5.83995 124.982 5.85865 124.98 5.87468L124.842 6.47839C124.84 6.49442 124.821 6.50511 124.805 6.50243L124.186 6.36353Z" fill="#5E5E5D"/>
<path d="M125.416 5.84L126.035 5.97891C126.105 5.99493 126.151 6.06439 126.134 6.13651L125.997 6.74023C125.981 6.80968 125.911 6.8551 125.838 6.83907L125.22 6.70016C125.15 6.68413 125.104 6.61468 125.12 6.54255L125.257 5.93883C125.273 5.86671 125.346 5.82397 125.416 5.84Z" fill="#585857"/>
<path d="M125.243 6.6013C125.227 6.59862 125.216 6.57993 125.219 6.5639L125.356 5.96018C125.359 5.94415 125.378 5.93347 125.394 5.93614L126.013 6.07505C126.029 6.07772 126.04 6.09642 126.037 6.11245L125.9 6.71616C125.897 6.73219 125.878 6.74288 125.862 6.7402L125.243 6.6013Z" fill="#5E5E5D"/>
<path d="M126.474 6.07509L127.093 6.214C127.163 6.23003 127.208 6.29948 127.192 6.37161L127.055 6.97533C127.039 7.04478 126.969 7.09019 126.896 7.07417L126.277 6.93526C126.207 6.91923 126.161 6.84978 126.178 6.77765L126.315 6.17393C126.331 6.10448 126.404 6.05907 126.474 6.07509Z" fill="#585857"/>
<path d="M126.301 6.83637C126.285 6.8337 126.274 6.815 126.277 6.79897L126.414 6.19526C126.417 6.17923 126.436 6.16854 126.452 6.17122L127.071 6.31012C127.087 6.3128 127.098 6.33149 127.095 6.34752L126.958 6.95124C126.955 6.96727 126.939 6.97795 126.92 6.97528L126.301 6.83637Z" fill="#5E5E5D"/>
<path d="M127.531 6.3099L128.15 6.4488C128.22 6.46483 128.266 6.53429 128.25 6.60641L128.112 7.21013C128.096 7.27958 128.026 7.325 127.954 7.30897L127.335 7.17006C127.265 7.15403 127.219 7.08458 127.235 7.01245L127.372 6.40873C127.391 6.33928 127.461 6.29387 127.531 6.3099Z" fill="#585857"/>
<path d="M127.359 7.07148C127.343 7.06881 127.332 7.05011 127.335 7.03408L127.472 6.43037C127.475 6.41434 127.494 6.40365 127.51 6.40632L128.129 6.54523C128.145 6.5479 128.156 6.5666 128.153 6.58263L128.016 7.18635C128.013 7.20238 127.994 7.21306 127.978 7.21039L127.359 7.07148Z" fill="#5E5E5D"/>
<path d="M128.589 6.5478L129.208 6.68671C129.278 6.70273 129.323 6.77219 129.307 6.84431L129.17 7.44803C129.154 7.51748 129.084 7.5629 129.011 7.54687L128.392 7.40796C128.322 7.39193 128.277 7.32248 128.293 7.25035L128.43 6.64664C128.449 6.57451 128.519 6.53177 128.589 6.5478Z" fill="#585857"/>
<path d="M128.417 7.30924C128.401 7.30657 128.39 7.28787 128.393 7.27184L128.53 6.66813C128.532 6.6521 128.551 6.64141 128.567 6.64409L129.186 6.78299C129.203 6.78566 129.213 6.80436 129.211 6.82039L129.073 7.42411C129.071 7.44014 129.052 7.45082 129.036 7.44815L128.417 7.30924Z" fill="#5E5E5D"/>
<path d="M123.726 7.20754L120.62 6.51567C120.48 6.48362 120.34 6.57177 120.311 6.71068L119.937 8.35888C119.905 8.49779 119.993 8.6367 120.133 8.66608L123.239 9.35795C123.379 9.39001 123.519 9.30186 123.548 9.16295L123.922 7.51474C123.955 7.37584 123.866 7.2396 123.726 7.20754Z" fill="#EDEDED"/>
<path d="M123.75 7.10865L120.645 6.41677C120.451 6.37403 120.257 6.49424 120.214 6.68658L119.84 8.33478C119.797 8.52712 119.918 8.71945 120.112 8.76219L123.218 9.45406C123.411 9.4968 123.605 9.37659 123.648 9.18426L124.022 7.53606C124.065 7.34372 123.944 7.15406 123.75 7.10865ZM123.551 9.16289C123.519 9.3018 123.382 9.38995 123.242 9.35789L120.136 8.66602C119.996 8.63397 119.908 8.49773 119.94 8.35882L120.314 6.71062C120.346 6.57171 120.483 6.48356 120.623 6.51561L123.729 7.20749C123.869 7.23954 123.958 7.37578 123.925 7.51469L123.551 9.16289Z" fill="#9D9B9B"/>
<path d="M120.123 7.54669L119.94 8.35877C119.907 8.49768 119.996 8.63659 120.136 8.66597L123.242 9.35784C123.382 9.3899 123.522 9.30175 123.551 9.16284L123.734 8.35076L120.123 7.54669Z" fill="#DFDFDE"/>
<path d="M121.915 7.94499L120.123 7.5443L119.94 8.35638C119.907 8.49529 119.996 8.63419 120.136 8.66358L121.676 9.00818L121.915 7.94499Z" fill="#D9D9DA"/>
<path d="M131.178 2.47672L115.93 -0.926533C115.841 -0.947903 115.779 -1.03072 115.787 -1.12154L117.383 -9.78195C117.405 -10.0197 117.631 -10.1826 117.865 -10.1292L133.395 -6.66185C133.629 -6.60842 133.764 -6.36533 133.68 -6.14094L131.39 2.36186C131.358 2.44734 131.269 2.49809 131.178 2.47672Z" fill="#E3E1E1"/>
<path d="M116.452 -1.75741L117.924 -9.06881C117.946 -9.2932 118.158 -9.44813 118.379 -9.39738L132.612 -6.22118C132.833 -6.1731 132.959 -5.94069 132.881 -5.72966L131.062 1.50159C130.998 1.6779 130.812 1.77674 130.626 1.73667L116.745 -1.36206C116.56 -1.40213 116.436 -1.57309 116.452 -1.75741Z" fill="#C7C7C6"/>
<path d="M116.554 -1.74667L118.026 -9.06341C118.042 -9.22636 118.196 -9.33855 118.357 -9.30115L132.596 -6.12229C132.754 -6.08756 132.849 -5.91927 132.792 -5.767L130.968 1.46959C130.922 1.59782 130.787 1.66994 130.653 1.64056L116.764 -1.46084C116.632 -1.49022 116.541 -1.6131 116.554 -1.74667Z" fill="#C6E6F2"/>
<path d="M128.968 1.98512L118.117 -0.437766L118.123 -0.619415L129.062 1.82217L128.968 1.98512Z" fill="#585857"/>
</g>
<path d="M28.8895 52.0377C28.1659 49.0012 25.1069 47.1285 22.0644 47.8497C19.0178 48.5709 17.1389 51.6197 17.8625 54.6522C18.3723 56.7831 20.0334 58.3403 22.0315 58.8279C22.1467 59.1312 22.3605 60.9711 22.7428 61.5612C22.9155 61.8276 23.1334 61.8727 23.4665 61.803C23.7337 62.7496 24.852 63.6183 25.773 63.5323C26.4185 63.4708 26.8872 63.0283 27.0969 62.4341C27.2613 61.971 27.3929 61.4383 27.4751 60.9219C27.9192 60.9096 28.133 60.8646 28.1124 60.4507C28.0754 59.7336 27.2942 57.7584 27.2655 57.4551C28.6839 56.1151 29.3746 54.0744 28.8895 52.0377Z" fill="#FDFFFC"/>
<path d="M25.942 51.833C25.8556 51.5256 25.5514 51.3207 25.2307 51.3986C24.9306 51.4683 24.7044 51.8002 24.7949 52.1075C24.8483 52.296 24.9881 52.4476 25.1567 52.5173C25.0333 53.3123 24.8771 54.095 24.8113 54.8982C24.7497 55.644 24.688 56.3734 24.5235 57.0987C23.6313 55.7669 22.7433 54.4392 21.7606 53.173C22.032 52.9148 21.8264 52.337 21.37 52.4435C20.8314 52.5706 21.0288 53.4066 21.5715 53.2795C21.5756 53.2795 21.5797 53.2754 21.5838 53.2713C22.6035 54.7097 23.6025 56.1685 24.4331 57.7257C24.5235 57.8937 24.7702 57.8569 24.8278 57.6847C25.0991 56.8816 25.1772 56.062 25.2348 55.2219C25.3006 54.3163 25.4774 53.427 25.5514 52.5255C25.8269 52.4354 26.0242 52.1239 25.942 51.833Z" fill="#AEB4FC"/>
<path d="M19.0956 46.8829C17.9485 46.3174 16.7973 45.7477 15.6502 45.1781C15.4117 45.0634 15.1938 45.4035 15.4323 45.5306C16.5506 46.1452 17.6731 46.7558 18.7914 47.3705C19.1203 47.5508 19.4245 47.0468 19.0956 46.8829Z" fill="#808AFF"/>
<path d="M21.2542 42.539C21.1596 42.33 20.8883 42.4817 20.9088 42.6702C21.0486 43.8503 21.4885 45.0551 21.8339 46.1943C21.9202 46.473 22.3519 46.3787 22.2821 46.0878C21.9984 44.9158 21.7517 43.6414 21.2542 42.539Z" fill="#808AFF"/>
<path d="M26.5997 42.1949C26.3037 42.453 26.1228 42.8628 25.9378 43.207C25.7445 43.5677 25.5719 43.9365 25.4074 44.3094C25.2758 44.6126 25.7815 44.7724 25.909 44.461C26.0611 44.0799 26.2256 43.7111 26.4147 43.3464C26.5751 43.0308 26.8094 42.7235 26.904 42.3834C26.9574 42.199 26.7354 42.0719 26.5997 42.1949Z" fill="#808AFF"/>
</g>
<path d="M21.09 106.99H22.7893L27.1239 117.776L31.4494 106.99H33.1578L27.7782 120.221H26.4515L21.09 106.99ZM20.5357 106.99H22.0351L22.2805 115.059V120.221H20.5357V106.99ZM32.2037 106.99H33.703V120.221H31.9583V115.059L32.2037 106.99ZM40.6093 120.402C39.9247 120.402 39.3038 120.287 38.7464 120.057C38.1951 119.821 37.7196 119.491 37.3197 119.067C36.926 118.642 36.623 118.14 36.411 117.558C36.199 116.976 36.093 116.34 36.093 115.65V115.268C36.093 114.468 36.2111 113.757 36.4474 113.133C36.6836 112.503 37.0047 111.969 37.4106 111.533C37.8165 111.097 38.2769 110.767 38.7919 110.543C39.3068 110.319 39.8399 110.207 40.3912 110.207C41.0939 110.207 41.6997 110.328 42.2086 110.57C42.7236 110.812 43.1446 111.152 43.4717 111.588C43.7989 112.018 44.0412 112.527 44.1987 113.114C44.3562 113.696 44.435 114.332 44.435 115.023V115.777H37.0926V114.405H42.7539V114.278C42.7296 113.841 42.6388 113.417 42.4812 113.005C42.3298 112.593 42.0875 112.254 41.7543 111.988C41.4211 111.721 40.9667 111.588 40.3912 111.588C40.0095 111.588 39.6582 111.67 39.3371 111.833C39.016 111.991 38.7404 112.227 38.5101 112.542C38.2799 112.857 38.1012 113.242 37.974 113.696C37.8468 114.15 37.7832 114.674 37.7832 115.268V115.65C37.7832 116.116 37.8468 116.555 37.974 116.967C38.1073 117.373 38.2981 117.731 38.5465 118.04C38.8009 118.349 39.1069 118.591 39.4643 118.767C39.8278 118.942 40.2397 119.03 40.7002 119.03C41.2939 119.03 41.7967 118.909 42.2086 118.667C42.6206 118.424 42.981 118.1 43.29 117.694L44.3078 118.503C44.0957 118.824 43.8261 119.13 43.499 119.421C43.1719 119.712 42.769 119.948 42.2904 120.13C41.8179 120.311 41.2575 120.402 40.6093 120.402ZM48.1698 110.388H49.8509L49.7055 114.069C49.6692 115.002 49.5632 115.807 49.3875 116.486C49.2118 117.164 48.9877 117.743 48.715 118.221C48.4424 118.694 48.1365 119.091 47.7972 119.412C47.464 119.733 47.1187 120.002 46.7613 120.221H45.9253L45.9707 118.848L46.316 118.839C46.5159 118.603 46.7098 118.361 46.8976 118.112C47.0854 117.858 47.2581 117.558 47.4156 117.213C47.5731 116.861 47.7033 116.434 47.8063 115.931C47.9154 115.423 47.985 114.802 48.0153 114.069L48.1698 110.388ZM48.5878 110.388H54.5036V120.221H52.8224V111.942H48.5878V110.388ZM45.5436 118.839H55.7667V123.119H54.0856V120.221H47.2247V123.119H45.5345L45.5436 118.839ZM59.447 117.558L63.9815 110.388H65.6717V120.221H63.9815V113.051L59.447 120.221H57.7749V110.388H59.447V117.558ZM72.378 110.388V120.221H70.6878V110.388H72.378ZM75.6767 110.388V111.751H67.4528V110.388H75.6767ZM82.9827 118.539V113.478C82.9827 113.09 82.904 112.754 82.7465 112.469C82.595 112.178 82.3648 111.954 82.0559 111.797C81.7469 111.639 81.3652 111.561 80.9109 111.561C80.4868 111.561 80.1142 111.633 79.7932 111.779C79.4781 111.924 79.2297 112.115 79.048 112.351C78.8723 112.587 78.7845 112.842 78.7845 113.114H77.1033C77.1033 112.763 77.1942 112.415 77.376 112.069C77.5577 111.724 77.8182 111.412 78.1575 111.133C78.5028 110.849 78.9147 110.625 79.3933 110.461C79.878 110.291 80.4171 110.207 81.0108 110.207C81.7257 110.207 82.3557 110.328 82.901 110.57C83.4523 110.812 83.8824 111.179 84.1913 111.67C84.5064 112.154 84.6639 112.763 84.6639 113.496V118.076C84.6639 118.403 84.6911 118.751 84.7457 119.121C84.8062 119.491 84.8941 119.809 85.0092 120.075V120.221H83.2554C83.1705 120.027 83.1039 119.769 83.0554 119.448C83.007 119.121 82.9827 118.818 82.9827 118.539ZM83.2735 114.259L83.2917 115.441H81.5924C81.1138 115.441 80.6867 115.48 80.3111 115.559C79.9355 115.632 79.6205 115.744 79.3661 115.895C79.1116 116.047 78.9178 116.237 78.7845 116.468C78.6512 116.692 78.5846 116.955 78.5846 117.258C78.5846 117.567 78.6542 117.849 78.7936 118.103C78.9329 118.358 79.1419 118.561 79.4206 118.712C79.7053 118.858 80.0536 118.93 80.4656 118.93C80.9805 118.93 81.4349 118.821 81.8287 118.603C82.2225 118.385 82.5344 118.118 82.7647 117.803C83.0009 117.488 83.1281 117.182 83.1463 116.886L83.8642 117.694C83.8218 117.949 83.7067 118.23 83.5189 118.539C83.3311 118.848 83.0797 119.145 82.7647 119.43C82.4557 119.709 82.0861 119.942 81.656 120.13C81.232 120.311 80.7534 120.402 80.2202 120.402C79.5539 120.402 78.9692 120.272 78.4664 120.012C77.9697 119.751 77.5819 119.403 77.3033 118.967C77.0307 118.524 76.8943 118.031 76.8943 117.485C76.8943 116.958 76.9973 116.495 77.2033 116.095C77.4093 115.689 77.7061 115.353 78.0939 115.086C78.4816 114.814 78.948 114.608 79.4933 114.468C80.0385 114.329 80.6473 114.259 81.3198 114.259H83.2735ZM87.4536 120.221V110.388H89.1348V118.839H93.6602V110.388H95.3504V120.221H87.4536ZM96.5135 118.839L96.35 123.138H94.8506V120.221H93.5693V118.839H96.5135ZM100.157 117.558L104.692 110.388H106.382V120.221H104.692V113.051L100.157 120.221H98.4855V110.388H100.157V117.558ZM110.899 117.558L115.433 110.388H117.123V120.221H115.433V113.051L110.899 120.221H109.226V110.388H110.899V117.558Z" fill="#FFECCC"/>
<defs>
<clipPath id="clip0_130_1903">
<rect width="11.2952" height="13.6148" fill="white" transform="translate(123.44 19.4927)"/>
</clipPath>
<clipPath id="clip1_130_1903">
<rect width="55.6693" height="9.61042" fill="white" transform="translate(45.9878 93.9734)"/>
</clipPath>
<clipPath id="clip2_130_1903">
<rect width="25.8176" height="20.8226" fill="white" transform="translate(111.338 46.7222)"/>
</clipPath>
<clipPath id="clip3_130_1903">
<rect width="28.238" height="28.0304" fill="white" transform="translate(32.272 -13.3429)"/>
</clipPath>
</defs>
</svg>
