<svg width="180" height="135" viewBox="0 0 180 135" fill="none" xmlns="http://www.w3.org/2000/svg">
<rect width="180" height="135" rx="10" fill="#FFC97E"/>
<mask id="mask0_216_1831" style="mask-type:alpha" maskUnits="userSpaceOnUse" x="0" y="0" width="180" height="135">
<rect width="180" height="135" rx="10" fill="#FFC97E"/>
</mask>
<g mask="url(#mask0_216_1831)">
<path d="M154.881 -14.0372C154.881 -14.0372 132.329 -26.8732 105.807 -18.1088C79.2817 -9.34644 61.8759 14.6463 47.2435 33.7316C32.6089 52.8201 34.1539 75.3062 50.3283 88.4512C66.5027 101.596 81.8123 89.539 107.454 93.6056C133.095 97.6722 139.229 102.464 163.237 92.5557C187.245 82.6477 197.795 50.6201 186.083 23.2764C174.367 -4.06936 154.881 -14.0372 154.881 -14.0372Z" fill="#F1B869"/>
<path d="M88.1412 73.2379C87.092 73.6297 85.9204 73.1329 85.5302 72.1337L77.6368 51.9206C77.2981 51.0532 76.286 50.6241 75.3784 50.963C74.4707 51.3019 74.0087 52.2814 74.3474 53.1488L80.2397 68.2375C80.5866 69.1257 80.1132 70.1293 79.1837 70.4764C78.2543 70.8234 77.2173 70.3838 76.8705 69.4956L73.6175 61.1654C73.3668 60.5235 72.619 60.2064 71.9473 60.4572C71.2756 60.708 70.9343 61.4318 71.1849 62.0737L72.3948 65.1719L69.7154 66.1724L69.5799 65.8254L71.8963 64.9605L70.8219 62.2092C70.4967 61.3766 70.9405 60.4357 71.8118 60.1103C72.6832 59.7849 73.6554 60.1971 73.9805 61.0298L77.2335 69.36C77.5059 70.0574 78.3185 70.4019 79.0483 70.1294C79.778 69.8569 80.149 69.0705 79.8766 68.3731L73.9844 53.2844C73.5711 52.2262 74.1355 51.0295 75.2429 50.6161C76.3502 50.2026 77.5866 50.7268 77.9999 51.785L85.8933 71.9981C86.2089 72.8065 87.1562 73.2081 88.0058 72.8909C88.8517 72.5751 89.2841 71.6583 88.9684 70.8499L79.3381 46.1889C78.8368 44.9052 79.5218 43.4528 80.8651 42.9512C82.2085 42.4496 83.7091 43.0859 84.2104 44.3696L93.796 68.9161C94.1347 69.7835 95.1468 70.2126 96.0545 69.8737C96.9621 69.5347 97.4241 68.5552 97.0854 67.6879L89.4467 48.127C88.9671 46.8988 89.6225 45.5092 90.9078 45.0292C92.193 44.5493 93.6288 45.1581 94.1085 46.3863L99.7433 60.8158C100.037 61.5687 100.92 61.9429 101.708 61.6487C102.495 61.3545 102.898 60.5005 102.604 59.7476L99.5409 51.9031C99.1873 50.9976 99.6698 49.9747 100.617 49.6208C101.565 49.267 102.626 49.7138 102.979 50.6193L103.91 53.0028L106.589 52.0023L106.725 52.3493L103.682 53.4853L102.616 50.7549C102.337 50.0402 101.501 49.6885 100.753 49.9678C100.005 50.247 99.6262 51.0563 99.904 51.7675L102.967 59.612C103.336 60.5557 102.831 61.6269 101.843 61.9956C100.856 62.3644 99.7488 61.8951 99.3802 60.9514L93.7454 46.5219C93.3403 45.4845 92.1288 44.9709 91.0432 45.3762C89.9577 45.7815 89.4047 46.954 89.8098 47.9914L97.4485 67.5523C97.8617 68.6105 97.2973 69.8071 96.1899 70.2206C95.0826 70.6341 93.8462 70.1099 93.433 69.0517L83.8473 44.5052C83.4206 43.4123 82.1443 42.8711 81.0006 43.2982C79.857 43.7252 79.2744 44.9604 79.7012 46.0533L89.3315 70.7143C89.7253 71.7122 89.1905 72.8461 88.1412 73.2379Z" fill="#FEDEA5"/>
<path d="M123.177 60.1545C122.128 60.5463 120.956 60.0496 120.566 59.0504L112.672 38.8372C112.334 37.9698 111.322 37.5407 110.414 37.8797C109.506 38.2186 109.044 39.1981 109.383 40.0654L115.275 55.1542C115.622 56.0424 115.149 57.046 114.219 57.393C113.29 57.7401 112.253 57.3004 111.906 56.4122L108.653 48.082C108.402 47.4402 107.655 47.1231 106.983 47.3739C106.311 47.6247 105.97 48.3485 106.221 48.9903L107.43 52.0886L104.751 53.089L104.616 52.7421L106.932 51.8772L105.858 49.1259C105.532 48.2932 105.976 47.3523 106.847 47.027C107.719 46.7016 108.691 47.1138 109.016 47.9465L112.269 56.2767C112.542 56.974 113.354 57.3186 114.084 57.0461C114.814 56.7736 115.185 55.9871 114.912 55.2897L109.02 40.201C108.607 39.1428 109.171 37.9462 110.279 37.5327C111.386 37.1192 112.622 37.6435 113.035 38.7016L120.929 58.9148C121.245 59.7232 122.192 60.1248 123.041 59.8076C123.887 59.4917 124.32 58.5749 124.004 57.7666L114.374 33.1055C113.872 31.8218 114.557 30.3695 115.901 29.8679C117.244 29.3663 118.745 30.0025 119.246 31.2862L128.832 55.8328C129.17 56.7001 130.182 57.1292 131.09 56.7903C131.998 56.4514 132.46 55.4719 132.121 54.6045L124.482 35.0436C124.003 33.8155 124.658 32.4258 125.943 31.9459C127.229 31.466 128.664 32.0748 129.144 33.303L134.779 47.7325C135.073 48.4854 135.955 48.8595 136.743 48.5654C137.531 48.2712 137.934 47.4171 137.64 46.6643L134.577 38.8198C134.223 37.9142 134.705 36.8913 135.657 36.5361C136.604 36.1823 137.661 36.6304 138.015 37.536L138.946 39.9195L141.625 38.919L141.76 39.266L138.718 40.402L137.652 37.6715C137.373 36.9568 136.54 36.6038 135.792 36.8831C135.044 37.1623 134.662 37.973 134.94 38.6842L138.003 46.5287C138.371 47.4724 137.866 48.5436 136.879 48.9123C135.891 49.281 134.784 48.8118 134.416 47.8681L128.781 33.4385C128.376 32.4012 127.164 31.8875 126.079 32.2929C124.993 32.6982 124.44 33.8707 124.845 34.9081L132.484 54.469C132.897 55.5272 132.333 56.7238 131.226 57.1373C130.118 57.5507 128.882 57.0265 128.469 55.9683L118.883 31.4218C118.456 30.3289 117.18 29.7878 116.036 30.2148C114.893 30.6419 114.31 31.8771 114.737 32.97L124.367 57.631C124.761 58.6288 124.226 59.7627 123.177 60.1545Z" fill="#FEDEA5"/>
<path d="M158.213 47.0728C157.163 47.4646 155.992 46.9678 155.601 45.9686L147.708 25.7555C147.369 24.8881 146.357 24.459 145.45 24.7979C144.542 25.1368 144.08 26.1163 144.419 26.9837L150.311 42.0724C150.658 42.9606 150.184 43.9642 149.255 44.3113C148.326 44.6583 147.289 44.2187 146.942 43.3305L143.689 35.0003C143.438 34.3584 142.69 34.0413 142.019 34.2921C141.347 34.5429 141.006 35.2667 141.256 35.9086L142.466 39.0068L139.787 40.0073L139.651 39.6603L141.968 38.7954L140.893 36.0441C140.568 35.2115 141.012 34.2706 141.883 33.9452C142.754 33.6198 143.727 34.032 144.052 34.8647L147.305 43.1949C147.577 43.8923 148.39 44.2368 149.12 43.9643C149.849 43.6918 150.22 42.9054 149.948 42.208L144.056 27.1193C143.642 26.0611 144.207 24.8644 145.314 24.451C146.422 24.0375 147.658 24.5617 148.071 25.6199L155.965 45.833C156.28 46.6414 157.227 47.043 158.077 46.7258C158.927 46.4086 159.355 45.4932 159.04 44.6848L149.409 20.0238C148.908 18.7401 149.593 17.2877 150.936 16.7861C152.28 16.2845 153.78 16.9208 154.282 18.2045L163.867 42.751C164.206 43.6184 165.218 44.0475 166.126 43.7086C167.033 43.3696 167.495 42.3901 167.157 41.5228L159.518 21.9619C159.038 20.7337 159.694 19.3441 160.979 18.8641C162.264 18.3842 163.7 18.993 164.18 20.2212L169.815 34.6507C170.109 35.4036 170.991 35.7778 171.779 35.4836C172.567 35.1894 172.97 34.3354 172.676 33.5825L169.612 25.738C169.259 24.8325 169.741 23.8096 170.692 23.4544C171.64 23.1005 172.697 23.5487 173.05 24.4542L173.981 26.8377L176.661 25.8372L176.796 26.1842L173.754 27.3202L172.687 24.5898C172.408 23.8751 171.576 23.522 170.828 23.8013C170.08 24.0806 169.698 24.8912 169.975 25.6024L173.039 33.4469C173.407 34.3906 172.902 35.4618 171.914 35.8305C170.927 36.1993 169.82 35.73 169.452 34.7863L163.817 20.3568C163.412 19.3194 162.2 18.8058 161.115 19.2111C160.029 19.6164 159.476 20.7889 159.881 21.8263L167.52 41.3872C167.933 42.4454 167.369 43.642 166.261 44.0555C165.154 44.469 163.917 43.9448 163.504 42.8866L153.919 18.3401C153.492 17.2472 152.216 16.706 151.072 17.1331C149.928 17.5601 149.346 18.7953 149.772 19.8882L159.403 44.5492C159.797 45.5471 159.262 46.681 158.213 47.0728Z" fill="#FEDEA5"/>
<path d="M158.532 5.86486C158.231 5.97738 157.897 5.83576 157.784 5.54779L155.948 0.846654C155.836 0.558688 155.988 0.235404 156.29 0.122884C156.591 0.0103636 156.925 0.151989 157.038 0.439955L158.873 5.14109C158.984 5.42559 158.833 5.75234 158.532 5.86486Z" fill="#FFDB9D"/>
<path d="M156.506 5.90936C156.205 6.02188 155.871 5.88025 155.758 5.59228L154.407 2.13321C154.295 1.84525 154.447 1.52196 154.749 1.40944C155.05 1.29692 155.384 1.43855 155.497 1.72652L156.847 5.18559C156.96 5.47355 156.807 5.79684 156.506 5.90936Z" fill="#FFDB9D"/>
<path d="M154.724 6.57473C154.422 6.68725 154.088 6.54563 153.976 6.25766L152.625 2.79859C152.513 2.51062 152.665 2.18734 152.966 2.07482C153.268 1.9623 153.602 2.10392 153.714 2.39189L155.065 5.85096C155.178 6.13893 155.025 6.46221 154.724 6.57473Z" fill="#FFDB9D"/>
<path d="M160.315 5.19894C160.013 5.31146 159.679 5.16983 159.567 4.88187L157.731 0.18073C157.619 -0.107237 157.771 -0.430521 158.072 -0.54304C158.374 -0.65556 158.708 -0.513935 158.82 -0.225969L160.656 4.47517C160.767 4.75966 160.612 5.08777 160.315 5.19894Z" fill="#FFDB9D"/>
<path d="M162.415 5.36032C162.114 5.47284 161.78 5.33121 161.667 5.04324L159.185 -1.31283C159.073 -1.6008 159.225 -1.92408 159.527 -2.0366C159.828 -2.14912 160.162 -2.0075 160.274 -1.71953L162.756 4.63655C162.869 4.92451 162.716 5.2478 162.415 5.36032Z" fill="#FFDB9D"/>
<path d="M164.708 5.99984C164.407 6.11236 164.073 5.97074 163.96 5.68277L160.461 -3.27887C160.348 -3.56683 160.501 -3.89012 160.802 -4.00264C161.103 -4.11516 161.437 -3.97353 161.55 -3.68556L165.049 5.27608C165.16 5.56057 165.009 5.88732 164.708 5.99984Z" fill="#FFDB9D"/>
<path d="M172.789 0.541009C172.488 0.653528 172.154 0.511903 172.042 0.223937L170.206 -4.4772C170.093 -4.76517 170.246 -5.08845 170.547 -5.20097C170.848 -5.31349 171.182 -5.17186 171.295 -4.8839L173.131 -0.18276C173.242 0.101736 173.087 0.429845 172.789 0.541009Z" fill="#FFDB9D"/>
<path d="M171.006 1.20702C170.705 1.31954 170.371 1.17792 170.258 0.889952L168.422 -3.81118C168.31 -4.09915 168.462 -4.42243 168.764 -4.53495C169.065 -4.64747 169.399 -4.50585 169.512 -4.21788L171.347 0.483254C171.459 0.767751 171.307 1.0945 171.006 1.20702Z" fill="#FFDB9D"/>
<path d="M169.546 2.6983C169.245 2.81082 168.911 2.66919 168.799 2.38123L166.317 -3.97485C166.204 -4.26282 166.357 -4.5861 166.658 -4.69862C166.959 -4.81114 167.293 -4.66951 167.406 -4.38155L169.888 1.97453C170 2.26249 169.848 2.58578 169.546 2.6983Z" fill="#FFDB9D"/>
<path d="M168.272 4.66852C167.971 4.78104 167.637 4.63941 167.525 4.35144L164.025 -4.61019C163.913 -4.89816 164.065 -5.22144 164.366 -5.33396C164.668 -5.44648 165.002 -5.30486 165.114 -5.01689L168.614 3.94475C168.725 4.22924 168.574 4.556 168.272 4.66852Z" fill="#FFDB9D"/>
<path d="M167.137 6.98858C166.835 7.1011 166.501 6.95948 166.389 6.67151L161.595 -5.60348C161.483 -5.89145 161.635 -6.21473 161.937 -6.32725C162.238 -6.43977 162.572 -6.29815 162.685 -6.01018L167.478 6.26481C167.59 6.55278 167.438 6.87606 167.137 6.98858Z" fill="#FFDB9D"/>
<path d="M57.6518 29.9733C56.4618 28.2789 54.1649 27.5743 52.1244 28.3361C50.0695 29.1034 48.8288 31.1569 49.1292 33.2152C47.1318 34.3109 46.2031 36.6732 47.0146 38.7514C47.8668 40.9337 50.281 42.0876 52.6346 41.4353L52.3852 40.5624C50.509 41.0841 48.5806 40.1623 47.9005 38.4206C47.2177 36.672 48.0764 34.6738 49.8515 33.8718L50.1979 33.7146L50.1159 33.3557C49.7147 31.6251 50.7196 29.8307 52.455 29.1827C54.1941 28.5333 56.1677 29.2196 57.0473 30.7795L57.2652 31.1672L57.676 30.9621C57.8013 30.8994 57.9279 30.8402 58.0587 30.7914C59.9902 30.0702 62.1453 30.9868 62.8647 32.8291C63.5855 34.6749 62.5987 36.7607 60.6708 37.4805L61.0014 38.3271C63.4194 37.4242 64.6529 34.809 63.7506 32.4983C62.841 30.1585 60.0781 28.9958 57.6518 29.9733Z" fill="#4A5161"/>
<path d="M57.5269 33.904C57.4754 33.7722 57.3599 33.6682 57.2162 33.6304C57.0725 33.5927 56.9178 33.6226 56.7983 33.7109L52.6623 36.7659C52.4939 36.8885 52.4318 37.1024 52.505 37.2898L54.4926 42.3795C54.3184 42.3809 54.1378 42.4086 53.9672 42.4723C53.212 42.7543 52.8274 43.5697 53.1092 44.2914C53.391 45.013 54.2336 45.3703 54.9888 45.0883C55.704 44.8212 56.079 44.077 55.8805 43.3878L55.8951 43.3824L54.379 39.5L57.7316 37.0277L58.6096 39.2759C58.4391 39.276 58.2635 39.3058 58.0928 39.3695C57.3377 39.6515 56.9531 40.4669 57.2349 41.1886C57.5167 41.9102 58.3592 42.2675 59.1144 41.9855C59.8696 41.7035 60.2542 40.8881 59.9724 40.1664C59.9697 40.1595 59.9633 40.1539 59.9606 40.147L57.5232 33.9054L57.5269 33.904ZM57.3848 36.1395L54.0335 38.6153L53.5092 37.2726L56.8618 34.8003L57.3848 36.1395Z" fill="#4A5161"/>
<path d="M94.8207 12.0107C94.6324 11.5285 95.1189 10.7505 94.8757 10.3086C94.6247 9.8577 93.6886 9.82559 93.3805 9.41989C93.0696 9.00726 93.3318 8.13414 92.9736 7.77095C92.6092 7.40218 91.6904 7.6061 91.2836 7.28889C90.8719 6.96957 90.8938 6.06693 90.4411 5.80263C89.9885 5.53833 89.1564 5.9643 88.6728 5.75926C88.1892 5.55423 87.9694 4.68224 87.4598 4.53857C86.9553 4.39702 86.2553 5.01218 85.7298 4.93411C85.2092 4.85815 84.757 4.07293 84.2241 4.06121C83.6962 4.05162 83.1883 4.81769 82.6566 4.87309C82.1336 4.92925 81.4829 4.2857 80.9611 4.40898C80.4503 4.52818 80.1644 5.3942 79.6598 5.58264C79.1551 5.77108 78.3531 5.31523 77.8896 5.55587C77.4166 5.80404 77.3689 6.70441 76.942 7.0069C76.5079 7.3121 75.6035 7.07338 75.2201 7.42325C74.8308 7.7793 75.0289 8.65943 74.6926 9.05532C74.3541 9.45604 73.4152 9.44881 73.1333 9.88801C72.8514 10.3272 73.2818 11.1206 73.0611 11.5886C72.8403 12.0566 71.9297 12.2814 71.7724 12.7734C71.6174 13.2607 72.2467 13.9241 72.1574 14.4305C72.0704 14.9321 71.2465 15.3789 71.2261 15.8914C71.208 16.399 71.9973 16.8755 72.0468 17.3858C72.0972 17.8877 71.4176 18.5231 71.5379 19.0228C71.6577 19.5108 72.5508 19.7736 72.7391 20.2559C72.9274 20.7381 72.4408 21.5161 72.6841 21.958C72.9351 22.4089 73.8712 22.441 74.1793 22.8467C74.4902 23.2593 74.228 24.1325 74.5861 24.4956C74.9506 24.8644 75.8694 24.6605 76.2762 24.9777C76.6879 25.297 76.666 26.1997 77.1186 26.464C77.5713 26.7283 78.4034 26.3023 78.887 26.5073C79.3706 26.7124 79.5904 27.5844 80.1 27.728C80.6045 27.8696 81.3045 27.2544 81.83 27.3325C82.3506 27.4084 82.8028 28.1937 83.3357 28.2054C83.8636 28.215 84.3715 27.4489 84.9031 27.3935C85.4262 27.3373 86.0769 27.9809 86.5986 27.8576C87.1082 27.7349 87.3954 26.8724 87.9 26.684C88.4047 26.4955 89.2067 26.9514 89.6702 26.7107C90.1432 26.4626 90.1909 25.5622 90.6178 25.2597C91.0519 24.9545 91.9563 25.1932 92.3397 24.8433C92.729 24.4873 92.5309 23.6072 92.8672 23.2113C93.2057 22.8106 94.1446 22.8178 94.4265 22.3786C94.7084 21.9394 94.278 21.146 94.4987 20.678C94.7195 20.2099 95.6301 19.9852 95.7874 19.4932C95.9424 19.0059 95.3131 18.3425 95.4024 17.8361C95.4894 17.3345 96.3133 16.8877 96.3337 16.3752C96.3518 15.8676 95.5625 15.3911 95.513 14.8808C95.4626 14.3789 96.1421 13.7435 96.0219 13.2438C95.9043 12.751 95.009 12.493 94.8207 12.0107Z" fill="#4A5161"/>
<path d="M86.7316 28.0098C86.7026 28.0206 86.6722 28.028 86.6418 28.0354C86.2988 28.1157 85.953 27.9547 85.6208 27.7964C85.3711 27.679 85.1164 27.5594 84.9245 27.5794C84.7254 27.6021 84.4938 27.776 84.2694 27.9472C83.9783 28.1712 83.6727 28.4006 83.3289 28.3938C82.9802 28.3849 82.6903 28.1433 82.4154 27.9081C82.2089 27.7307 81.9924 27.5492 81.7974 27.5186C81.6024 27.4881 81.3342 27.6002 81.0732 27.7095C80.7301 27.8536 80.3761 28.0017 80.0438 27.9071C79.7115 27.8125 79.5002 27.5058 79.2979 27.2116C79.1437 26.987 78.9867 26.7554 78.8072 26.6793C78.6277 26.6032 78.341 26.6466 78.0615 26.6874C77.6918 26.742 77.3098 26.7971 77.014 26.6254C76.7181 26.4536 76.5985 26.1047 76.4829 25.7662C76.3949 25.5089 76.3042 25.2446 76.1502 25.1272C75.9998 25.0084 75.7105 24.9813 75.4321 24.9501C75.0625 24.9092 74.677 24.8702 74.4411 24.6284C74.2066 24.39 74.1832 24.021 74.1652 23.666C74.1502 23.3933 74.1325 23.1137 74.0176 22.9578C73.9054 22.8089 73.6366 22.7066 73.3827 22.6105C73.0355 22.4778 72.6761 22.3456 72.5129 22.0448C72.3537 21.7544 72.4301 21.396 72.5068 21.0493C72.5644 20.7813 72.6266 20.5037 72.5561 20.3233C72.4857 20.1428 72.2501 19.9764 72.0245 19.8141C71.7309 19.6057 71.4247 19.3861 71.3504 19.068C71.272 18.7395 71.4449 18.4046 71.6147 18.0828C71.7407 17.841 71.869 17.5943 71.8512 17.4102C71.8306 17.2191 71.6532 16.9991 71.4798 16.7895C71.2513 16.5131 71.0173 16.2228 71.0296 15.8922C71.0442 15.5568 71.3 15.2745 71.549 15.0066C71.7367 14.8053 71.9289 14.5944 71.9637 14.4065C71.9985 14.2186 71.8859 13.9625 71.7761 13.7132C71.6316 13.3856 71.4829 13.0475 71.5864 12.7267C71.6899 12.4058 72.0123 12.1979 72.3214 11.999C72.5575 11.8472 72.8009 11.6928 72.8828 11.5191C72.9648 11.3453 72.9239 11.0704 72.8858 10.8024C72.8347 10.4478 72.7832 10.0814 72.9678 9.7978C73.1511 9.51072 73.5159 9.39039 73.8699 9.27412C74.139 9.18557 74.4153 9.0943 74.5399 8.94445C74.6657 8.79806 74.6984 8.51952 74.7351 8.25138C74.7833 7.89547 74.8298 7.52432 75.085 7.29384C75.3367 7.06472 75.7209 7.03654 76.0906 7.01379C76.3745 6.99522 76.6657 6.97394 76.8297 6.86106C76.9863 6.75088 77.097 6.49092 77.2008 6.24544C77.3442 5.90963 77.4872 5.56206 77.7991 5.40189C78.1037 5.24443 78.4755 5.31232 78.835 5.38081C79.1129 5.43207 79.4008 5.48755 79.5896 5.41706C79.7784 5.34657 79.9552 5.11755 80.1275 4.89819C80.3489 4.6128 80.582 4.31504 80.9142 4.23873C81.2572 4.15836 81.603 4.31944 81.9388 4.4763C82.1885 4.59375 82.4432 4.71333 82.6351 4.69336C82.8342 4.67068 83.0658 4.49674 83.2865 4.32687C83.5776 4.10289 83.8832 3.87349 84.227 3.88028C84.5758 3.8892 84.8656 4.1308 85.1405 4.36605C85.3471 4.54336 85.5636 4.7249 85.7585 4.75545C85.9535 4.78601 86.2254 4.67257 86.4827 4.56456C86.8258 4.42053 87.1799 4.27245 87.5122 4.36701C87.8444 4.46158 88.0557 4.7683 88.2593 5.06596C88.4136 5.2906 88.5706 5.52218 88.7501 5.59828C88.9296 5.67438 89.2163 5.63093 89.4957 5.59018C89.8655 5.53561 90.2475 5.48044 90.5433 5.65221C90.8392 5.82399 90.9588 6.17289 91.0744 6.51138C91.1624 6.76872 91.2531 7.03299 91.4071 7.1504C91.5575 7.26917 91.8468 7.2963 92.1252 7.3275C92.4948 7.36839 92.8803 7.40733 93.1162 7.64921C93.3507 7.88761 93.3741 8.25653 93.3921 8.61156C93.4071 8.88425 93.4248 9.16388 93.5397 9.31973C93.6519 9.46864 93.9207 9.57102 94.1745 9.66706C94.5217 9.7998 94.8812 9.93193 95.0431 10.2293C95.2022 10.5197 95.1259 10.8781 95.0491 11.2248C94.9915 11.4928 94.9294 11.7704 94.9998 11.9508C95.0703 12.1313 95.3058 12.2977 95.5314 12.46C95.825 12.6684 96.1312 12.888 96.2055 13.2061C96.2839 13.5346 96.111 13.8695 95.9426 14.1947C95.8166 14.4366 95.6847 14.6846 95.7061 14.8674C95.7267 15.0585 95.9041 15.2785 96.0788 15.4915C96.3074 15.7679 96.5414 16.0582 96.529 16.3888C96.5144 16.7242 96.2586 17.0066 96.0096 17.2745C95.822 17.4757 95.6298 17.6866 95.595 17.8745C95.5602 18.0624 95.6727 18.3186 95.7825 18.5678C95.9271 18.8954 96.0757 19.2335 95.9722 19.5544C95.8688 19.8753 95.5464 20.0831 95.2336 20.2834C94.9975 20.4352 94.7541 20.5896 94.6722 20.7633C94.5903 20.937 94.6311 21.212 94.6692 21.48C94.7203 21.8346 94.7718 22.201 94.5886 22.4881C94.404 22.7717 94.0405 22.8955 93.6865 23.0117C93.4174 23.1003 93.141 23.1916 93.0165 23.3414C92.8906 23.4878 92.858 23.7664 92.8212 24.0345C92.773 24.3904 92.7266 24.7615 92.4713 24.992C92.2197 25.2212 91.8355 25.2493 91.4658 25.2721C91.1818 25.2906 90.8943 25.3106 90.7267 25.4248C90.57 25.535 90.4594 25.7949 90.3556 26.0404C90.2122 26.3762 90.0692 26.7238 89.7537 26.8853C89.4541 27.0449 89.0773 26.9749 88.7177 26.9064C88.4398 26.8552 88.1519 26.7997 87.9631 26.8702C87.7743 26.9407 87.5975 27.1697 87.4252 27.389C87.2257 27.6345 87.0184 27.9027 86.7316 28.0098ZM84.6552 27.2625C84.7278 27.2354 84.8031 27.2153 84.8825 27.2055C85.1855 27.1719 85.4964 27.3181 85.7923 27.4581C86.0633 27.5875 86.348 27.7197 86.5535 27.6708C86.7504 27.6211 86.9368 27.3846 87.1195 27.1494C87.3245 26.886 87.539 26.6151 87.8331 26.5053C88.1272 26.3955 88.4731 26.4611 88.8041 26.5204C89.0956 26.5745 89.4008 26.6315 89.5814 26.5402C89.768 26.4427 89.8864 26.16 90.0039 25.8855C90.1291 25.5883 90.2612 25.2766 90.51 25.1042C90.7647 24.9256 91.1135 24.9027 91.4501 24.8804C91.7499 24.8599 92.062 24.8388 92.2128 24.7029C92.3659 24.5623 92.4063 24.261 92.4435 23.9728C92.4844 23.6514 92.5263 23.3217 92.7226 23.0894C92.9189 22.8571 93.2497 22.7455 93.571 22.6414C93.8583 22.5461 94.1564 22.4467 94.2655 22.2787C94.377 22.1059 94.3316 21.8088 94.2904 21.5221C94.2442 21.2014 94.1989 20.8725 94.325 20.5988C94.4511 20.3251 94.7449 20.1399 95.0277 19.9587C95.2806 19.7967 95.5431 19.6272 95.606 19.4367C95.6653 19.2476 95.5446 18.9707 95.428 18.7041C95.2957 18.4077 95.1628 18.0995 95.2146 17.8059C95.2663 17.5123 95.4976 17.2629 95.7229 17.0198C95.9283 16.8 96.1382 16.5705 96.1431 16.3699C96.1493 16.1728 95.9579 15.9382 95.7741 15.7126C95.5673 15.4599 95.3527 15.1981 95.3233 14.8991C95.2929 14.6083 95.4499 14.3072 95.6 14.0205C95.7388 13.758 95.8808 13.4824 95.833 13.2855C95.788 13.0956 95.5411 12.9215 95.2992 12.7494C95.0283 12.5564 94.7497 12.3543 94.64 12.0733C94.5302 11.7923 94.6038 11.4587 94.6705 11.1396C94.7313 10.8585 94.7953 10.5643 94.7031 10.392C94.6045 10.2141 94.3121 10.1047 94.0284 9.99593C93.7211 9.88011 93.3988 9.75794 93.2232 9.52137C93.0413 9.27922 93.0228 8.94425 93.0048 8.62103C92.988 8.33311 92.9708 8.03343 92.8318 7.89054C92.6878 7.74553 92.375 7.7113 92.0757 7.67994C91.7419 7.64555 91.3995 7.6104 91.1608 7.42523C90.9221 7.24006 90.8111 6.92374 90.7077 6.61648C90.6129 6.34179 90.5141 6.0567 90.341 5.95436C90.1643 5.85338 89.8531 5.89802 89.5541 5.94207C89.2198 5.99139 88.8768 6.03994 88.594 5.92292C88.3148 5.80455 88.123 5.52635 87.9388 5.2572C87.7741 5.01657 87.6017 4.76688 87.4045 4.70932C87.2087 4.65524 86.9187 4.77546 86.6396 4.89161C86.3278 5.01996 86.0064 5.15584 85.7017 5.11061C85.397 5.06537 85.1411 4.84686 84.8916 4.63394C84.666 4.43988 84.4305 4.24159 84.2219 4.23999C84.0169 4.23702 83.7698 4.42468 83.5323 4.60479C83.2662 4.80752 82.9906 5.01778 82.6789 5.05067C82.3759 5.08431 82.065 4.93802 81.7691 4.79807C81.4981 4.66869 81.2134 4.53644 81.0079 4.58536C80.8096 4.63157 80.6246 4.87158 80.4419 5.10677C80.2369 5.37016 80.0238 5.64455 79.7297 5.75436C79.4356 5.86417 79.0896 5.79855 78.7573 5.7358C78.4658 5.68167 78.1606 5.62467 77.98 5.71598C77.7934 5.81347 77.675 6.0962 77.5575 6.37064C77.4323 6.66784 77.3002 6.97952 77.0514 7.15194C76.7967 7.33054 76.4479 7.35345 76.1113 7.37577C75.8115 7.39629 75.4994 7.41741 75.3486 7.55322C75.1955 7.69386 75.1551 7.99518 75.1179 8.28338C75.077 8.60476 75.0351 8.93443 74.8388 9.16675C74.6425 9.39907 74.3103 9.5072 73.9904 9.61473C73.7031 9.71006 73.405 9.80947 73.2959 9.97743C73.1881 10.1489 73.2298 10.4473 73.271 10.7341C73.3172 11.0547 73.3625 11.3837 73.2364 11.6574C73.1103 11.931 72.8165 12.1163 72.5337 12.2974C72.2808 12.4594 72.0183 12.629 71.9554 12.8194C71.8962 13.0085 72.0168 13.2855 72.1334 13.552C72.2621 13.8498 72.3986 14.1566 72.3468 14.4503C72.2951 14.7439 72.0638 14.9932 71.8385 15.2364C71.6331 15.4562 71.4232 15.6856 71.4183 15.8862C71.4121 16.0833 71.6035 16.318 71.7873 16.5435C71.9942 16.7962 72.2087 17.058 72.2381 17.3571C72.2685 17.6479 72.1115 17.949 71.9614 18.2356C71.8226 18.4981 71.6806 18.7738 71.7284 18.9706C71.7734 19.1605 72.0203 19.3347 72.2622 19.5067C72.5331 19.6998 72.8117 19.9018 72.9215 20.1829C73.0312 20.4639 72.9576 20.7975 72.8909 21.1166C72.8301 21.3977 72.7661 21.6919 72.8583 21.8642C72.9569 22.042 73.2506 22.155 73.533 22.2602C73.8403 22.376 74.1626 22.4982 74.3382 22.7348C74.5201 22.9769 74.5386 23.3119 74.5566 23.6351C74.5734 23.923 74.5906 24.2227 74.7296 24.3656C74.8736 24.5106 75.1865 24.5449 75.4857 24.5762C75.8195 24.6106 76.1619 24.6458 76.4006 24.8309C76.6393 25.0161 76.7503 25.3324 76.8537 25.6397C76.9485 25.9144 77.0473 26.1995 77.2204 26.3018C77.3985 26.4062 77.7083 26.3581 78.0073 26.3141C78.3416 26.2648 78.6846 26.2162 78.9674 26.3332C79.2502 26.4503 79.4384 26.7298 79.6226 26.999C79.7873 27.2396 79.9597 27.4893 80.1569 27.5468C80.3527 27.6009 80.6427 27.4807 80.9218 27.3646C81.2323 27.2327 81.555 27.1003 81.8597 27.1456C82.1644 27.1908 82.4203 27.4093 82.6698 27.6222C82.8954 27.8163 83.1309 28.0146 83.3395 28.0162C83.5445 28.0191 83.7879 27.8328 84.0291 27.6514C84.2284 27.5014 84.4337 27.3452 84.6552 27.2625Z" fill="#4A5161"/>
<path d="M79.0277 21.7867C78.8897 21.8382 78.7256 21.812 78.616 21.7019C78.1197 21.2193 77.6825 20.675 77.3184 20.0834C75.0808 16.4307 76.1275 11.8141 79.6464 9.78857C83.1652 7.76307 87.8468 9.08796 90.0844 12.7406C90.2124 12.9512 90.3345 13.168 90.4407 13.3868C90.5334 13.5708 90.4495 13.7929 90.2566 13.8848C90.0587 13.9746 89.8339 13.8996 89.7412 13.7155C89.6431 13.5176 89.5328 13.3203 89.4152 13.1257C87.3943 9.8254 83.1892 8.6128 80.0367 10.426C76.8879 12.2378 75.9666 16.3981 77.9875 19.6984C78.3191 20.2385 78.7178 20.7376 79.167 21.1741C79.316 21.3212 79.3161 21.5558 79.1607 21.7012C79.1266 21.7418 79.0785 21.7677 79.0277 21.7867Z" fill="white"/>
<path d="M79.0944 21.9603C78.8802 22.0403 78.6368 21.9921 78.4765 21.8372C77.9675 21.3435 77.5212 20.7866 77.1517 20.1812C76.0471 18.3754 75.6828 16.2813 76.1369 14.291C76.5884 12.2937 77.8008 10.6365 79.5513 9.63304C81.3005 8.62609 83.3786 8.38681 85.4046 8.96208C87.4255 9.53524 89.1473 10.8443 90.2518 12.6501C90.3812 12.8641 90.506 13.0879 90.6172 13.3087C90.7537 13.5837 90.6311 13.9197 90.3393 14.0565C90.0402 14.196 89.7034 14.0793 89.5655 13.8008C89.4701 13.6098 89.3648 13.4146 89.2499 13.2269C87.285 10.017 83.1951 8.833 80.1375 10.5909C77.0799 12.3487 76.1924 16.3931 78.1586 19.6065C78.4825 20.1375 78.8708 20.6206 79.3123 21.0481C79.5351 21.267 79.5309 21.6184 79.3046 21.8381C79.2415 21.8895 79.1707 21.9318 79.0944 21.9603ZM80.7707 9.46394C80.4186 9.59544 80.0736 9.75605 79.7445 9.94653C78.0901 10.8982 76.9432 12.4674 76.5137 14.361C76.0833 16.2629 76.4306 18.2601 77.4867 19.9846C77.8418 20.5636 78.2677 21.1002 78.7549 21.5703C78.8274 21.6386 78.9539 21.6431 79.0284 21.5675C79.1043 21.4955 79.1072 21.3751 79.0298 21.3047C78.5679 20.857 78.1601 20.3453 77.8195 19.7927C75.7438 16.4056 76.6952 12.1306 79.9353 10.2648C83.1768 8.40255 87.5043 9.641 89.5763 13.0295C89.6989 13.2262 89.8083 13.4319 89.9078 13.6333C89.9529 13.7277 90.0658 13.7611 90.1698 13.7183C90.2156 13.6972 90.251 13.6601 90.2652 13.6111C90.2843 13.5642 90.2812 13.5137 90.26 13.4699C90.1565 13.2581 90.0357 13.0448 89.9104 12.8412C88.8529 11.1132 87.2082 9.86287 85.2815 9.31811C83.7501 8.88017 82.183 8.93659 80.7707 9.46394Z" fill="#263238"/>
<path d="M122.876 62.6322C122.876 62.6322 136.278 53.6686 139.249 47.7889C139.249 47.7889 140.49 54.8784 144.267 57.4437C148.043 60.0089 161.286 65.5831 163.703 66.7992C166.121 68.0154 170.99 71.1826 171.911 70.7075C172.835 70.231 173.871 65.074 174.264 63.5993C174.659 62.1281 175.846 60.8422 175.322 58.7876C174.797 56.7296 173.54 57.0679 173.283 57.8276C173.027 58.5873 171.231 61.329 169.839 62.3774C168.447 63.4258 166.956 64.6029 166.956 64.6029C166.956 64.6029 161.201 61.0511 156.038 56.352C150.875 51.6529 143.612 41.9179 141.787 40.0789C139.96 38.2447 138.237 38.0931 136.422 38.7709C134.606 39.4487 128.797 41.6178 120.302 49.6915C111.807 57.7652 113.796 61.793 115.353 62.9368C116.908 64.0854 119.827 64.4545 122.876 62.6322Z" fill="#4592D0"/>
<path d="M171.947 70.8999C171.192 71.1818 169.134 70.066 166.108 68.3457C165.177 67.8149 164.294 67.3134 163.612 66.9719C162.929 66.6305 161.381 65.9364 159.42 65.0586C154.425 62.8251 146.876 59.4504 144.158 57.6031C140.92 55.4052 139.536 50.0621 139.164 48.3526C135.775 54.1937 123.517 62.4321 122.986 62.7892C122.983 62.7905 122.979 62.7919 122.977 62.7967C119.869 64.649 116.851 64.2812 115.235 63.0955C114.833 62.8004 113.889 61.9284 113.789 60.2009C113.675 58.2277 114.692 54.7792 120.17 49.5692C128.695 41.4646 134.46 39.3118 136.356 38.6041C138.458 37.8192 140.232 38.25 141.93 39.9573C142.545 40.5743 143.755 42.0627 145.289 43.9466C148.433 47.8096 152.739 53.095 156.174 56.2249C160.861 60.4934 166.103 63.8476 166.947 64.3791C167.319 64.0852 168.561 63.1124 169.721 62.2379C171.087 61.2072 172.86 58.482 173.1 57.7762C173.247 57.3435 173.652 57.0492 174.088 57.0574C174.39 57.0638 175.129 57.2411 175.514 58.7474C175.897 60.2501 175.414 61.3367 174.945 62.3826C174.752 62.8162 174.569 63.2223 174.454 63.651C174.38 63.9293 174.28 64.3443 174.163 64.8332C173.46 67.7949 172.763 70.4842 172.001 70.8761C171.984 70.8863 171.966 70.8931 171.947 70.8999ZM139.181 47.6187C139.21 47.6078 139.246 47.6026 139.276 47.607C139.359 47.6159 139.425 47.6787 139.439 47.757C139.45 47.8283 140.713 54.8025 144.378 57.2942C147.069 59.124 154.598 62.4902 159.583 64.7195C161.549 65.5994 163.106 66.2942 163.795 66.6413C164.484 66.9883 165.371 67.4919 166.307 68.0249C168.279 69.1449 171.265 70.8365 171.823 70.5489C172.491 70.2039 173.366 66.522 173.787 64.7549C173.906 64.2611 174.005 63.8427 174.079 63.5644C174.201 63.1095 174.399 62.6696 174.587 62.2456C175.032 61.2528 175.488 60.2276 175.136 58.8448C174.911 57.9707 174.513 57.4432 174.073 57.4329C173.812 57.4267 173.562 57.6158 173.469 57.889C173.211 58.6452 171.402 61.4394 169.96 62.5303C168.585 63.5685 167.096 64.7407 167.081 64.7544C167.014 64.8072 166.925 64.8127 166.853 64.7679C166.794 64.7342 161.023 61.1526 155.906 56.4961C152.448 53.3508 148.135 48.0481 144.981 44.1808C143.455 42.306 142.248 40.8245 141.645 40.2187C140.044 38.6104 138.455 38.2177 136.487 38.9524C134.61 39.6533 128.903 41.7844 120.435 49.832C115.058 54.9405 114.06 58.2749 114.169 60.1741C114.259 61.7465 115.106 62.5314 115.468 62.7977C116.979 63.9072 119.817 64.239 122.766 62.4817C123.069 62.2772 136.174 53.4482 139.073 47.7147C139.097 47.6699 139.138 47.635 139.181 47.6187ZM122.876 62.6355L122.88 62.6341L122.876 62.6355Z" fill="#263238"/>
<path d="M175.324 58.7906C174.799 56.7326 173.541 57.0709 173.285 57.8306C173.028 58.5903 171.232 61.3319 169.841 62.3804C168.449 63.4288 166.957 64.6059 166.957 64.6059C166.957 64.6059 162.474 61.8394 157.873 57.9603C157.332 60.3684 156.068 61.9692 155.083 62.8977C158.953 64.657 162.555 66.2219 163.705 66.8022C166.123 68.0184 170.991 71.1856 171.912 70.7105C172.837 70.234 173.872 65.077 174.266 63.6023C174.664 62.1297 175.852 60.8473 175.324 58.7906Z" fill="#FEDEA5"/>
<path d="M171.948 70.8995C171.193 71.1815 169.135 70.0656 166.108 68.3453C165.177 67.8145 164.295 67.313 163.612 66.9715C162.93 66.6301 161.377 65.9339 159.411 65.054C158.08 64.4578 156.559 63.7813 154.999 63.0678C154.943 63.041 154.903 62.9923 154.892 62.9327C154.882 62.8732 154.904 62.8131 154.949 62.7685C155.9 61.8689 157.151 60.3005 157.684 57.9269C157.7 57.8613 157.751 57.8105 157.813 57.7874C157.879 57.7665 157.951 57.7795 158.002 57.8242C162.131 61.3032 166.209 63.9151 166.943 64.3801C167.315 64.0862 168.558 63.1134 169.718 62.2389C171.084 61.2082 172.857 58.483 173.097 57.7771C173.244 57.3445 173.649 57.0501 174.085 57.0583C174.387 57.0648 175.126 57.242 175.51 58.7483C175.893 60.2511 175.411 61.3377 174.942 62.3835C174.749 62.8172 174.566 63.2233 174.451 63.652C174.377 63.9302 174.277 64.3452 174.16 64.8341C173.457 67.7959 172.76 70.4851 171.997 70.877C171.984 70.8859 171.966 70.8927 171.948 70.8995ZM155.414 62.8413C156.89 63.5106 158.317 64.1504 159.581 64.7122C161.552 65.5942 163.109 66.289 163.798 66.6361C164.486 66.9831 165.374 67.4867 166.31 68.0197C168.282 69.1397 171.268 70.8313 171.826 70.5436C172.494 70.1987 173.369 66.5167 173.79 64.7496C173.909 64.2559 174.007 63.8374 174.082 63.5592C174.204 63.1043 174.402 62.6644 174.59 62.2404C175.035 61.2476 175.491 60.2224 175.138 58.8395C174.913 57.9654 174.516 57.438 174.075 57.4277C173.815 57.4215 173.564 57.6105 173.471 57.8838C173.213 58.64 171.405 61.4341 169.963 62.5251C168.588 63.5633 167.099 64.7355 167.083 64.7492C167.017 64.802 166.927 64.8075 166.856 64.7627C166.812 64.7354 162.47 62.0433 157.994 58.3042C157.437 60.448 156.33 61.9268 155.414 62.8413Z" fill="#263238"/>
<path d="M87.0883 25.3408C87.0883 25.3408 89.9056 27.8786 90.4804 28.8287C91.0553 29.7788 90.0453 30.8357 88.9025 31.5526C87.7598 32.2695 85.5459 32.321 84.4227 35.1654C83.2995 38.0097 82.1196 49.0288 81.9703 50.7343C81.8245 52.4385 82.9959 53.3607 84.8128 52.2927C86.6296 51.2247 89.2781 42.6667 89.2781 42.6667C89.2781 42.6667 98.692 47.79 100.118 49.0982C101.545 50.4097 102.335 53.2197 103.253 56.0812C104.167 58.944 105.31 63.1722 109.258 65.4827C113.205 67.7933 119.154 66.6416 122.87 62.6301C126.585 58.6234 128.479 48.8682 125.005 46.4803C121.533 44.0876 115.934 44.3572 113.237 41.8702C110.539 39.3831 110.403 37.5017 109.18 34.3688C107.957 31.2358 105.653 27.4685 105.653 27.4685C105.653 27.4685 112.6 22.8869 120.983 18.4332C123.897 16.8839 120.678 14.2773 118.642 14.2623C116.088 14.2419 106.631 18.9024 103.853 19.6614C99.8433 20.761 98.1677 22.2652 97.5135 23.1893C96.8593 24.1133 96.039 25.3896 95.0298 25.671C94.0206 25.9524 91.1734 21.772 91.1734 21.772C91.1734 21.772 89.4019 24.7671 87.0883 25.3408Z" fill="#F37630"/>
<path d="M118.072 66.055C115.025 67.1924 111.698 67.1308 109.158 65.6425C105.367 63.4245 104.129 59.4979 103.225 56.6276L102.833 55.3904C102.022 52.823 101.252 50.3951 99.9876 49.2335C98.7137 48.0594 90.8007 43.7113 89.3982 42.943C88.9542 44.3412 86.6274 51.4433 84.9149 52.4485C84.0106 52.977 83.18 53.0765 82.5805 52.7239C81.9924 52.379 81.6993 51.6496 81.7802 50.717C81.9079 49.2223 83.0963 38.0013 84.2418 35.0969C85.1113 32.8919 86.6026 32.3112 87.7976 31.8451C88.1738 31.7007 88.5233 31.5622 88.798 31.3921C89.3087 31.0702 90.9284 29.9446 90.3115 28.9188C89.7588 28.0041 86.9818 25.495 86.9515 25.4705C86.9007 25.4259 86.8809 25.3538 86.8969 25.2882C86.9165 25.2212 86.9674 25.1704 87.0391 25.1516C89.2456 24.602 90.9889 21.705 91.0075 21.6781C91.0398 21.6223 91.1047 21.5862 91.1696 21.5818C91.2358 21.581 91.3006 21.6084 91.3382 21.662C92.7 23.658 94.4365 25.6333 94.982 25.4853C95.8346 25.2504 96.5852 24.1791 97.1903 23.321L97.358 23.0795C97.9622 22.2298 99.5999 20.6284 103.805 19.4757C104.846 19.1904 106.903 18.3228 109.081 17.4022C112.803 15.8334 117.022 14.0555 118.648 14.0645C120.016 14.0744 121.969 15.2177 122.296 16.5347C122.437 17.0982 122.339 17.9138 121.075 18.5848C113.467 22.6259 106.97 26.8249 105.912 27.5141C106.353 28.2481 108.284 31.5304 109.362 34.2921C109.63 34.979 109.842 35.5957 110.049 36.1901C110.774 38.2926 111.298 39.8144 113.376 41.726C114.747 42.9908 116.895 43.5248 119.167 44.0916C121.264 44.6162 123.43 45.1552 125.121 46.3208C126.133 47.0162 126.771 48.3522 126.966 50.1835C127.403 54.2859 125.632 59.9243 123.015 62.7461C121.629 64.2574 119.901 65.3717 118.072 66.055ZM89.2149 42.4947C89.2693 42.4743 89.3296 42.4796 89.3808 42.5042C89.7665 42.7141 98.8301 47.6542 100.257 48.9658C101.595 50.1957 102.377 52.6667 103.203 55.2839L103.595 56.5211C104.481 59.3346 105.697 63.1821 109.363 65.3273C113.273 67.6161 119.146 66.3773 122.729 62.5149C125.242 59.8078 127.004 54.1887 126.582 50.2435C126.396 48.5202 125.814 47.2746 124.892 46.6407C123.259 45.5171 121.126 44.986 119.065 44.4713C116.742 43.8917 114.548 43.3435 113.105 42.0138C110.962 40.0395 110.397 38.4018 109.682 36.3271C109.477 35.7361 109.266 35.1229 109.001 34.4429C107.796 31.3585 105.512 27.6079 105.49 27.5725C105.44 27.4877 105.464 27.3793 105.551 27.3232C105.62 27.2774 112.601 22.687 120.897 18.2777C121.738 17.8324 122.084 17.2816 121.927 16.6446C121.64 15.4954 119.853 14.4654 118.647 14.4547C117.103 14.4428 112.741 16.282 109.238 17.761C106.952 18.7258 104.977 19.5588 103.909 19.8501C99.8211 20.9712 98.2529 22.4949 97.6779 23.302L97.5087 23.54C96.87 24.4504 96.0762 25.5816 95.0852 25.8562C94.0906 26.1322 91.9194 23.1822 91.1823 22.1257C90.7153 22.8367 89.2983 24.8009 87.4591 25.4281C88.1601 26.0727 90.1585 27.9304 90.6447 28.7387C91.1766 29.6214 90.5661 30.7319 89.0024 31.7133C88.6978 31.9026 88.3265 32.0491 87.9371 32.2025C86.8098 32.6393 85.4092 33.1861 84.6003 35.2374C83.4694 38.1045 82.291 49.266 82.1607 50.7538C82.0927 51.5385 82.3175 52.1462 82.7802 52.4148C83.2541 52.691 83.94 52.5939 84.7123 52.1425C86.1006 51.33 88.182 45.5597 89.0908 42.6245C89.1154 42.5596 89.1568 42.5164 89.2149 42.4947Z" fill="#263238"/>
<path d="M108.015 18.0621C107.769 18.1661 107.526 18.2687 107.289 18.3651C107.813 19.8551 108.958 22.2023 111.287 23.9483C111.517 23.811 111.756 23.6662 111.994 23.5214C109.664 21.8673 108.524 19.5022 108.015 18.0621Z" fill="#263238"/>
<path d="M112.174 40.7592C112.006 40.5635 111.85 40.3672 111.708 40.1738C106.67 43.3907 103.351 48.526 101.701 51.5787C101.83 51.8765 101.951 52.1853 102.073 52.5093C103.549 49.6406 106.905 44.0981 112.174 40.7592Z" fill="#263238"/>
<path d="M99.0384 48.3076C99.2849 48.47 99.5064 48.6218 99.6867 48.7532C100.721 46.5979 103.591 41.7497 110.126 36.9961C110.039 36.754 109.953 36.5001 109.866 36.2462C103.134 41.0578 100.164 45.971 99.0384 48.3076Z" fill="#263238"/>
<path d="M89.1255 38.7594C90.376 38.1374 96.2394 34.9144 103.098 25.973C104.322 27.0306 105.347 27.7171 105.438 27.7787C105.545 27.8501 105.683 27.8622 105.799 27.8188C105.817 27.8121 105.837 27.8004 105.854 27.7902C105.734 27.5886 105.663 27.4719 105.663 27.4719C105.663 27.4719 105.776 27.398 105.984 27.2606C105.957 27.223 105.928 27.1903 105.888 27.1616C105.842 27.1308 101.575 24.2795 100.035 21.1456C99.7948 21.2751 99.5679 21.4076 99.3654 21.5389C99.6737 22.1473 100.069 22.7432 100.513 23.3049C95.5431 30.6067 89.1781 34.1005 87.426 34.9614C86.8922 34.1271 86.3617 33.4824 85.9452 33.0337C85.7522 33.1893 85.5623 33.3635 85.381 33.5704C85.7391 33.9654 86.194 34.523 86.6581 35.2322C86.0337 34.9009 85.3528 34.7019 84.6908 34.5834C84.5994 34.7646 84.507 34.9542 84.4263 35.1632C84.4095 35.2052 84.394 35.2508 84.3771 35.2928C85.61 35.4884 86.924 35.9877 87.699 37.1413C87.9796 37.764 88.232 38.4529 88.4303 39.2058C87.5508 38.4449 86.0153 37.5275 83.7764 37.6002C83.7275 37.8371 83.679 38.0858 83.6319 38.338C87.0266 38.1358 88.5838 40.4405 88.6748 40.5774C88.6929 40.6025 88.7132 40.6227 88.7373 40.6416C88.8001 41.0475 88.8461 41.4636 88.8708 41.8996C87.8609 41.263 85.7989 40.2758 83.2298 40.6746C83.1912 40.9275 83.1491 41.1817 83.1119 41.4381C86.1231 40.8504 88.3647 42.4146 88.9005 42.8386C88.9049 43.159 88.914 43.4697 88.9216 43.7769C89.1504 43.0951 89.284 42.6596 89.284 42.6596C89.284 42.6596 89.4268 42.7375 89.6746 42.8716C89.6743 42.7962 89.6717 42.7256 89.6714 42.6502C89.6624 41.2104 89.4501 39.9103 89.1255 38.7594ZM101.009 23.9147C101.498 24.4754 102.018 24.9969 102.53 25.4657C96.0124 33.9815 90.2926 37.3059 88.8963 38.034C88.7821 37.699 88.6574 37.3798 88.5296 37.0737C88.5242 37.028 88.5089 36.9781 88.484 36.9357C88.4736 36.9197 88.4632 36.9037 88.4514 36.8842C88.2467 36.424 88.0298 35.9962 87.8068 35.6063C89.6802 34.6723 96.0135 31.1506 101.009 23.9147Z" fill="#263238"/>
<path d="M115.239 43.1006C114.973 42.9851 114.719 42.8656 114.474 42.7302C108.829 46.8099 105.181 52.1039 103.148 55.741C103.184 55.8547 103.22 55.9684 103.256 56.0822C103.323 56.2957 103.394 56.5197 103.465 56.7437C105.401 53.1267 109.163 47.377 115.239 43.1006Z" fill="#263238"/>
<path d="M108.888 33.6421C108.791 33.4158 108.689 33.1875 108.588 32.9591C99.4558 36.9095 96.6447 43.1868 95.785 46.3224C96.017 46.4584 96.244 46.5923 96.4696 46.7227C97.1978 43.8469 99.7863 37.5852 108.888 33.6421Z" fill="#263238"/>
<path d="M112.789 16.0729C112.542 16.1733 112.294 16.2738 112.042 16.3757C112.404 17.9302 113.201 19.9619 114.929 21.7975C115.156 21.665 115.388 21.5346 115.622 21.3995C113.899 19.6062 113.131 17.5753 112.789 16.0729Z" fill="#263238"/>
<path d="M102.884 19.9543C103.841 21.6164 105.513 24.0652 107.927 26.0181C108.144 25.8814 108.374 25.7358 108.615 25.5861C106.279 23.7473 104.621 21.3651 103.65 19.7201C103.389 19.7977 103.132 19.8738 102.884 19.9543Z" fill="#263238"/>
<path d="M107.093 29.9831C106.969 29.7511 106.847 29.5343 106.732 29.3266C96.6558 34.4804 93.0292 40.7362 91.7647 44.0388C91.989 44.1658 92.2219 44.2935 92.4625 44.4302C93.6601 41.3076 97.1855 35.0698 107.093 29.9831Z" fill="#263238"/>
<path d="M122.875 62.6321C125.949 59.3177 127.774 52.0692 126.344 48.3134C126.043 47.6151 125.62 47.0453 125.066 46.6598C124.598 46.3339 124.091 46.0062 123.563 45.6749C121.873 44.9064 119.916 44.4963 118.083 44.0201C111.199 49.8938 107.049 58.0902 105.308 61.3242C106.193 62.9062 107.418 64.4044 109.263 65.4847C113.21 67.7953 119.159 66.6436 122.875 62.6321Z" fill="#4592D0"/>
<path d="M118.072 66.0552C115.026 67.1926 111.699 67.131 109.158 65.6427C107.498 64.6725 106.18 63.2884 105.135 61.4124C105.106 61.3596 105.105 61.2925 105.134 61.2381L105.459 60.6318C107.4 56.9968 111.438 49.4387 117.954 43.8811C118.004 43.8386 118.068 43.8225 118.134 43.8417C118.472 43.9301 118.812 44.0136 119.158 44.0993C120.68 44.4811 122.256 44.8745 123.647 45.5078C124.253 45.886 124.748 46.206 125.179 46.5103C125.739 46.9013 126.191 47.4838 126.52 48.2397C127.957 52.0163 126.186 59.3365 123.016 62.758C121.63 64.2576 119.902 65.3719 118.072 66.0552ZM105.527 61.3179C106.531 63.0898 107.788 64.4014 109.366 65.3226C113.276 67.6115 119.149 66.3727 122.732 62.5102C125.826 59.1726 127.556 52.043 126.162 48.3774C125.864 47.6895 125.454 47.1627 124.951 46.8101C124.522 46.5128 124.036 46.1936 123.457 45.8294C122.117 45.2207 120.563 44.831 119.056 44.4555C118.746 44.3763 118.438 44.3006 118.132 44.2201C111.719 49.7232 107.728 57.1965 105.808 60.7915L105.527 61.3179Z" fill="#4592D0"/>
<path d="M78.9953 20.336C78.8419 20.4013 78.7002 20.486 78.5717 20.5936C77.5285 21.4482 77.7149 23.3106 78.9902 24.7546C80.2618 26.1999 82.1382 26.6799 83.1828 25.8287C83.4031 25.6471 83.5654 25.4235 83.6774 25.167L78.9953 20.336Z" fill="white"/>
<path d="M82.7356 26.295C82.2672 26.4699 81.7121 26.4864 81.1164 26.3351C80.289 26.1233 79.4798 25.6065 78.837 24.8765C78.1955 24.15 77.7996 23.2961 77.7153 22.4729C77.6287 21.6226 77.8893 20.9052 78.4443 20.4515C78.586 20.335 78.7445 20.24 78.916 20.168C78.9923 20.1395 79.0798 20.1506 79.1359 20.2091L83.813 25.038C83.8628 25.0909 83.8768 25.1692 83.8485 25.2354C83.7183 25.5305 83.5361 25.7775 83.3026 25.968C83.1323 26.1071 82.9425 26.2177 82.7356 26.295ZM78.9503 20.5647C78.8577 20.6152 78.7751 20.6699 78.6965 20.735C78.2428 21.1071 78.0331 21.7102 78.1063 22.4302C78.1817 23.1772 78.5505 23.9618 79.1408 24.6319C79.7311 25.302 80.4751 25.7795 81.2281 25.9714C81.9575 26.1562 82.609 26.0561 83.0591 25.6853C83.2162 25.555 83.3489 25.3942 83.4486 25.2019L78.9503 20.5647Z" fill="#263238"/>
<path d="M78.994 20.3367C78.8405 20.4019 78.6989 20.4866 78.5704 20.5943C78.45 20.6909 78.3487 20.8043 78.2637 20.9274L83.117 25.8773C83.1397 25.8609 83.1638 25.8479 83.1851 25.828C83.4054 25.6464 83.5677 25.4228 83.6797 25.1663L78.994 20.3367Z" fill="white"/>
<path d="M83.1978 26.0331C83.1216 26.0616 83.0209 26.0594 82.9697 26.003L78.1164 21.0531C78.0539 20.989 78.0455 20.8928 78.1005 20.8205C78.2032 20.6788 78.3164 20.5531 78.4426 20.4503C78.5843 20.3338 78.7428 20.2388 78.9143 20.1668C78.9906 20.1384 79.0781 20.1494 79.1342 20.208L83.8113 25.0368C83.8611 25.0898 83.8751 25.1681 83.8468 25.2343C83.7166 25.5293 83.5343 25.7763 83.3009 25.9668C83.2818 25.9819 83.265 25.9921 83.2459 26.0072C83.2291 26.0175 83.216 26.0264 83.1978 26.0331ZM78.5135 20.9088L83.1273 25.6182C83.2577 25.494 83.3595 25.3606 83.4396 25.2034L78.945 20.5649C78.8523 20.6153 78.7697 20.67 78.6911 20.7352C78.628 20.7866 78.5676 20.8449 78.5135 20.9088Z" fill="#263238"/>
<path d="M88.5719 12.7654C88.6651 12.6312 88.7746 12.5068 88.9045 12.4026C89.9477 11.548 91.8241 12.028 93.0958 13.4733C94.371 14.9173 94.5575 16.7797 93.5179 17.633C93.2976 17.8146 93.0393 17.9309 92.7607 17.9952L88.5719 12.7654Z" fill="white"/>
<path d="M93.0819 18.0935C92.9912 18.1274 92.8977 18.1543 92.7992 18.1792C92.7262 18.1945 92.6505 18.1711 92.603 18.1133L88.4141 12.8835C88.3652 12.8223 88.3608 12.7364 88.4049 12.6683C88.5072 12.5148 88.6335 12.3802 88.7752 12.2637C89.8984 11.3474 91.9014 11.8318 93.2409 13.3551C93.8823 14.0816 94.2818 14.9343 94.3626 15.7588C94.4491 16.609 94.1921 17.3251 93.6371 17.7789C93.4764 17.9104 93.2925 18.0149 93.0819 18.0935ZM92.8325 17.7851C93.0449 17.7217 93.2315 17.6242 93.3886 17.494C93.8423 17.1218 94.052 16.5188 93.9788 15.7988C93.902 15.0482 93.5346 14.2671 92.9443 13.5971C91.742 12.2332 89.9812 11.7617 89.0224 12.5451C88.9438 12.6102 88.8716 12.6809 88.8071 12.7606L92.8325 17.7851Z" fill="#263238"/>
<path d="M93.0823 18.0937C92.9916 18.1276 92.8981 18.1546 92.7996 18.1794C92.7266 18.1948 92.6509 18.1714 92.6034 18.1136L88.4145 12.8838C88.3656 12.8225 88.3612 12.7367 88.4053 12.6685C88.5076 12.5151 88.6339 12.3804 88.7756 12.2639C88.9019 12.1611 89.0458 12.0716 89.2088 11.9988C89.2932 11.9594 89.3898 11.9829 89.4463 12.0532L93.7279 17.4671C93.7872 17.5443 93.7788 17.6508 93.7039 17.7146C93.6707 17.7468 93.6566 17.764 93.6362 17.7756C93.4768 17.9107 93.2929 18.0151 93.0823 18.0937ZM92.8329 17.7853C93.0126 17.7341 93.1692 17.6558 93.3091 17.5559L89.2335 12.403C89.159 12.4467 89.0859 12.4939 89.0228 12.5453C88.9442 12.6104 88.872 12.6811 88.8075 12.7609L92.8329 17.7853Z" fill="#263238"/>
<path d="M96.6797 24.3472C96.1979 24.9565 95.6523 25.4981 95.0366 25.6684C94.0274 25.9498 91.1802 21.7694 91.1802 21.7694C91.1802 21.7694 89.4037 24.7623 87.0901 25.336C87.0901 25.336 89.9073 27.8738 90.4822 28.8239C90.9486 29.592 90.3734 30.4309 89.5332 31.1024C90.501 32.2278 93.1639 34.6364 96.7214 32.2625C99.8312 30.191 98.0704 26.4597 96.6797 24.3472Z" fill="#FEDEA5"/>
<path d="M95.4377 33.1422C92.457 34.2552 90.2606 32.2528 89.3774 31.2269C89.3453 31.1872 89.3313 31.1408 89.3332 31.0924C89.3387 31.0426 89.3628 30.9978 89.4046 30.9663C89.9433 30.5346 90.7774 29.6984 90.3083 28.9235C89.7556 28.0088 86.9786 25.4996 86.9483 25.4752C86.8976 25.4305 86.8777 25.3584 86.8937 25.2928C86.9133 25.2259 86.9642 25.1751 87.0359 25.1563C89.2424 24.6067 90.9857 21.7096 91.0044 21.6828C91.0367 21.627 91.1016 21.5909 91.1664 21.5865C91.2326 21.5856 91.2975 21.6131 91.335 21.6667C92.6969 23.6626 94.4334 25.638 94.9788 25.49C95.4548 25.356 95.948 24.9572 96.5189 24.2351C96.5575 24.1849 96.6179 24.1584 96.6805 24.1589C96.743 24.1594 96.802 24.1931 96.8345 24.2445C98.2279 26.3639 100.082 30.2391 96.8182 32.416C96.3455 32.7396 95.8843 32.9754 95.4377 33.1422ZM89.803 31.1237C90.8339 32.2613 93.3309 34.2986 96.6082 32.1128C99.4965 30.1876 97.9575 26.7153 96.6601 24.6714C96.2711 25.1347 95.7278 25.6715 95.0852 25.8478C94.0906 26.1238 91.9194 23.1738 91.1823 22.1172C90.7153 22.8283 89.2984 24.7925 87.4591 25.4196C88.1601 26.0643 90.1585 27.9219 90.6447 28.7303C91.0785 29.4469 90.7759 30.2913 89.803 31.1237Z" fill="#FEDEA5"/>
<path d="M92.9746 24.1165C92.5323 23.6018 92.106 23.0534 91.7806 22.6144C91.5583 22.3754 91.3379 22.1198 91.1211 21.8628C90.815 22.3468 89.1727 24.8205 87.0828 25.3385C87.0828 25.3385 88.0347 26.1995 88.9453 27.1038C89.8969 27.0267 91.1755 26.764 91.9402 25.9418C92.4241 25.4232 92.7504 24.7567 92.9746 24.1165Z" fill="#263238"/>
<path d="M90.7442 26.9164C90.1415 27.1415 89.4986 27.2424 88.9629 27.2874C88.9067 27.2925 88.8482 27.2706 88.8088 27.2336C87.9109 26.3405 86.9603 25.4829 86.9527 25.4739C86.9019 25.4292 86.8821 25.3571 86.8981 25.2915C86.9177 25.2246 86.9686 25.1738 87.0403 25.1549C89.0512 24.6585 90.654 22.2433 90.9578 21.7641C90.9914 21.7118 91.0491 21.6783 91.1139 21.674C91.1788 21.6697 91.2386 21.695 91.2771 21.7403C91.5043 22.0132 91.7234 22.2653 91.929 22.4828C92.3498 23.0491 92.759 23.5642 93.1243 23.9884C93.1677 24.0357 93.1776 24.1036 93.1603 24.1657C92.885 24.9523 92.5257 25.5874 92.0926 26.0551C91.721 26.4563 91.2452 26.7294 90.7442 26.9164ZM89.0275 26.9094C89.9275 26.8278 91.1031 26.5678 91.8005 25.8184C92.1804 25.4062 92.5033 24.8483 92.7539 24.1585C92.3103 23.6403 91.8939 23.0961 91.6202 22.7253C91.4721 22.5699 91.3082 22.3846 91.1389 22.1854C90.6365 22.9336 89.246 24.8163 87.4575 25.4245C87.7913 25.7252 88.4176 26.3063 89.0275 26.9094Z" fill="#263238"/>
<path d="M78.7705 19.1273C78.7705 19.1273 81.9971 23.7465 83.4114 24.7688C84.827 25.7946 88.6456 26.2093 90.2187 25.8167C91.7918 25.4241 92.1606 23.247 92.4842 21.4764C92.8078 19.7058 92.6095 18.4203 91.5297 16.6887C90.4464 14.9584 88.1384 12.4253 86.6239 11.1462C85.6424 10.3161 82.5189 10.254 80.2673 11.7746C78.0156 13.2951 77.2695 16.5831 78.7705 19.1273Z" fill="#FEDEA5"/>
<path d="M90.4927 25.9294C90.4201 25.9565 90.3462 25.9802 90.2659 25.9982C88.5639 26.4231 84.7336 25.957 83.2966 24.9193C81.871 23.8893 78.7458 19.4232 78.6137 19.234C78.6124 19.2305 78.6074 19.2284 78.6047 19.2214C77.0814 16.6417 77.7801 13.2323 80.1598 11.6242C82.5205 10.0312 85.7369 10.15 86.755 11.0102C88.2378 12.2613 90.5793 14.8058 91.6993 16.5979C92.7605 18.2927 93.0232 19.6258 92.678 21.5118L92.6584 21.6105C92.3512 23.2955 91.9704 25.3777 90.4927 25.9294ZM78.9361 19.0261C79.0668 19.2119 82.1771 23.6399 83.5284 24.6181C84.8571 25.5809 88.5632 26.0377 90.1703 25.6364C91.5891 25.2855 91.969 23.2116 92.2757 21.5467L92.2954 21.4479C92.6286 19.638 92.3848 18.4171 91.3652 16.7863C90.2647 15.0227 87.9566 12.5213 86.4965 11.2856C85.5911 10.5225 82.5556 10.4514 80.3807 11.9234C78.159 13.4248 77.5132 16.6077 78.9361 19.0261Z" fill="#263238"/>
<path d="M85.5463 20.0957C85.5354 20.0998 85.5245 20.1038 85.5122 20.1044C85.4074 20.1237 85.3082 20.0614 85.2861 19.9623C85.283 19.9436 85.1953 19.4953 85.5107 19.0992C85.7711 18.7754 86.2146 18.59 86.8265 18.5483C86.9317 18.5408 87.0241 18.6176 87.0316 18.7222C87.0378 18.8232 86.9529 18.9146 86.8476 18.9221C86.3532 18.9556 86.006 19.0892 85.8183 19.3223C85.6106 19.5787 85.6636 19.8849 85.665 19.8884C85.6866 19.9757 85.6334 20.0632 85.5463 20.0957Z" fill="#263238"/>
<path d="M86.8745 21.9086C86.0104 22.2313 85.2399 22.1333 85.2214 22.1283C85.1153 22.1123 85.0456 22.0191 85.0602 21.9182C85.0786 21.8159 85.1766 21.7475 85.2814 21.7601C85.3961 21.7769 88.115 22.1133 88.7517 18.886C88.77 18.7838 88.8731 18.7175 88.9792 18.7335C89.0853 18.7495 89.1527 18.8476 89.1344 18.9499C88.7762 20.7811 87.7749 21.5724 86.8745 21.9086Z" fill="#263238"/>
<path d="M82.8172 20.9438C82.4069 21.097 82.094 21.0627 82.0682 21.0605C81.8587 21.0353 81.7107 20.8481 81.7387 20.6428C81.768 20.4411 81.9615 20.2973 82.1696 20.3189C82.2177 20.3248 83.078 20.3654 83.6827 18.9629C83.7664 18.7726 83.9911 18.6768 84.1878 18.7544C84.3845 18.832 84.4808 19.0465 84.397 19.2368C83.9362 20.3152 83.3073 20.7608 82.8172 20.9438Z" fill="#263238"/>
<path d="M87.4488 17.2108C87.0748 17.3504 86.6969 17.416 86.403 17.4303C86.1912 17.4418 86.0087 17.2834 86.0022 17.0751C85.9935 16.8716 86.1611 16.6938 86.3743 16.6857C86.4442 16.6835 88.093 16.5806 88.0963 15.4067C88.0948 15.2005 88.2702 15.0317 88.4847 15.0271C88.6993 15.0225 88.8722 15.1885 88.8737 15.3947C88.8725 16.3929 88.1713 16.941 87.4488 17.2108Z" fill="#263238"/>
<path d="M80.9403 19.4854C80.8459 19.5206 80.7389 19.4811 80.6964 19.3936C80.6765 19.3533 80.2074 18.3756 80.6402 17.5024C80.9041 16.9745 81.4304 16.6071 82.2122 16.4145C82.3142 16.3883 82.4207 16.448 82.4478 16.5492C82.4735 16.6469 82.4134 16.7489 82.3041 16.7778C81.6403 16.9421 81.1985 17.2383 80.9896 17.6621C80.6355 18.3747 81.0423 19.2247 81.0464 19.2351C81.0916 19.3295 81.0515 19.4399 80.9525 19.4848C80.9512 19.4813 80.9439 19.484 80.9403 19.4854Z" fill="#263238"/>
<path d="M84.4922 15.054C84.4486 15.0703 84.3996 15.0727 84.3511 15.055C84.2528 15.0162 84.2035 14.9114 84.2441 14.8127C84.2509 14.7983 84.9616 13.1773 87.0518 13.5338C87.1579 13.5498 87.2253 13.6479 87.207 13.7501C87.1887 13.8524 87.0857 13.9187 86.9795 13.9026C85.1967 13.5984 84.608 14.9352 84.6012 14.9497C84.5798 15.0014 84.5394 15.0364 84.4922 15.054Z" fill="#263238"/>
<path d="M76.5988 22.6598C76.5988 22.6598 77.3594 25.3851 77.8887 25.9627C78.4179 26.5403 81.8036 28.19 82.4782 28.6179C83.1528 29.0458 83.2725 29.0965 83.0153 31.0371C82.758 32.9778 79.4696 46.1397 80.2266 48.8664C80.9872 51.5918 82.0905 53.895 84.8153 52.2971C87.5438 50.6979 86.4785 43.0376 86.1662 38.5945C85.8538 34.1514 85.1653 28.4892 84.7344 27.3859C84.3049 26.2861 79.5082 24.9326 78.9828 24.7591C78.4611 24.5842 77.7209 23.2108 77.4242 22.451C77.1284 21.6828 76.6855 21.8482 76.5988 22.6598Z" fill="#FEDEA5"/>
<path d="M84.1779 52.8081C83.5462 53.0439 82.9728 53.0672 82.4652 52.8751C81.1675 52.3857 80.5115 50.5993 80.0431 48.9097C79.4673 46.8388 81.1499 39.0032 82.1551 34.3226C82.492 32.7458 82.7625 31.4999 82.8255 31.0112C83.0657 29.2082 82.9891 29.1612 82.3961 28.7824C82.1587 28.6325 81.6443 28.3594 81.0462 28.0421C79.7447 27.3514 78.1207 26.4949 77.7435 26.0831C77.2003 25.4909 76.4896 22.9894 76.413 22.7079C76.4085 22.6857 76.404 22.6635 76.4068 22.6387C76.4639 22.1244 76.6608 21.8084 76.9439 21.7663C77.0977 21.7446 77.3878 21.7953 77.6128 22.3712C77.9704 23.2872 78.6769 24.4465 79.0545 24.5719C79.108 24.5917 79.2109 24.6208 79.3524 24.6634C82.8678 25.74 84.6384 26.5776 84.923 27.3061C85.3768 28.4684 86.0585 34.2088 86.3664 38.5661C86.4081 39.1309 86.4565 39.7449 86.5135 40.3915C86.8907 44.8621 87.4048 50.983 84.9201 52.4395C84.6622 52.5994 84.4139 52.7199 84.1779 52.8081ZM76.7909 22.6423C77.0096 23.4154 77.6249 25.3959 78.0301 25.8369C78.3638 26.2013 80.0894 27.1153 81.2318 27.7184C81.8612 28.0519 82.3542 28.313 82.5816 28.4587C83.3655 28.9531 83.4586 29.1489 83.2037 31.0529C83.1375 31.5546 82.866 32.8089 82.5282 34.394C81.5317 39.0435 79.8606 46.8232 80.4124 48.8115C80.8335 50.316 81.4587 52.0981 82.6082 52.5275C83.1979 52.7486 83.8875 52.6183 84.7174 52.1335C86.9955 50.7979 86.4875 44.8099 86.1202 40.439C86.0655 39.7875 86.0121 39.1714 85.974 38.6052C85.6418 33.8873 84.951 28.4644 84.554 27.4479C84.3941 27.0385 83.3382 26.2839 79.2234 25.0256C79.0806 24.9796 78.9727 24.9483 78.9156 24.9299C78.2796 24.7181 77.5125 23.2117 77.2388 22.5109C77.1182 22.2021 77.0054 22.1369 76.9809 22.1381C76.9578 22.1427 76.8415 22.2498 76.7909 22.6423Z" fill="#263238"/>
<path d="M86.168 38.5894C86.137 38.1478 86.1019 37.6958 86.0641 37.2368L81.7305 37.2291C80.7909 41.7262 79.7663 47.2092 80.2284 48.8613C80.989 51.5867 82.0923 53.8899 84.8171 52.2921C87.5456 50.6928 86.4817 43.036 86.168 38.5894Z" fill="#F26F1F"/>
<path d="M84.1778 52.8084C83.546 53.0443 82.9727 53.0676 82.4651 52.8755C81.1674 52.3861 80.5113 50.5996 80.0429 48.9101C79.5619 47.1775 80.6687 41.3935 81.5456 37.1941C81.5657 37.1071 81.6442 37.042 81.7399 37.042L86.0722 37.0463C86.1715 37.045 86.254 37.1176 86.2624 37.2138C86.3002 37.6728 86.3366 38.1283 86.3677 38.5699C86.4093 39.1347 86.4578 39.7487 86.5147 40.3953C86.8919 44.8659 87.406 50.9868 84.9213 52.4433C84.6621 52.5998 84.4138 52.7203 84.1778 52.8084ZM81.8899 37.4154C81.0271 41.5658 79.9592 47.1723 80.4159 48.8105C80.837 50.315 81.4622 52.0971 82.6117 52.5265C83.2014 52.7476 83.891 52.6173 84.7209 52.1325C86.999 50.7969 86.491 44.8089 86.1237 40.438C86.069 39.7865 86.0156 39.1704 85.9775 38.6042C85.951 38.2166 85.9217 37.8221 85.8861 37.4219L81.8899 37.4154Z" fill="#263238"/>
<path d="M81.0735 40.5232C81.0685 40.5529 81.0635 40.5826 81.0584 40.6123C81.0451 40.6849 81.0305 40.7539 81.0172 40.8265C80.9875 40.9847 80.9614 41.1415 80.9303 41.2962C81.9837 41.1494 83.8186 40.9691 86.3607 40.97C86.3403 40.7153 86.3189 40.4688 86.2989 40.2259C83.9309 40.2235 82.1736 40.3788 81.0735 40.5232Z" fill="#263238"/>
<path d="M86.2397 50.0269C86.3118 49.7535 86.3721 49.4607 86.4234 49.1553C84.0158 50.106 82.057 50.3524 80.7153 50.3683C80.8183 50.632 80.9281 50.8812 81.0447 51.116C82.3533 51.0686 84.1167 50.8117 86.2397 50.0269Z" fill="#263238"/>
<path d="M80.3002 45.2682C80.2906 45.3394 80.2809 45.4106 80.2749 45.4804C80.2666 45.5551 80.2561 45.6346 80.2478 45.7092C80.234 45.8336 80.2247 45.9484 80.2131 46.068C81.6965 45.6692 84.0103 45.2345 86.6274 45.4062C86.6219 45.1578 86.6151 44.9059 86.6046 44.6554C84.0664 44.494 81.828 44.8767 80.3002 45.2682Z" fill="#263238"/>
<path d="M90.736 10.5393C90.736 10.5393 93.5877 11.2157 94.1973 11.7116C94.8083 12.2109 96.5895 15.4298 97.0474 16.0698C97.5053 16.7097 97.5623 16.8236 99.5774 16.5403C101.591 16.2535 115.223 12.833 118.071 13.5107C120.923 14.1871 123.341 15.2006 121.731 17.853C120.121 20.5055 112.131 19.6366 107.5 19.4218C102.869 19.207 96.9651 18.6606 95.8096 18.2692C94.6542 17.8777 93.1515 13.2947 92.9614 12.7972C92.7713 12.2997 91.3265 11.6147 90.5264 11.345C89.7336 11.0726 89.8981 10.6414 90.736 10.5393Z" fill="#FEDEA5"/>
<path d="M120.153 19.2159C117.547 20.1893 112.965 19.9202 109.397 19.7101C108.721 19.6724 108.082 19.6329 107.493 19.6062C102.952 19.3976 96.9655 18.8541 95.748 18.4421C94.9851 18.1823 94.074 16.499 92.8877 13.1415C92.8398 13.0084 92.8055 12.9098 92.7852 12.8578C92.6479 12.4956 91.4262 11.8387 90.4671 11.5131C89.8633 11.3092 89.8039 11.0292 89.8218 10.8834C89.8558 10.6083 90.1836 10.4144 90.7162 10.3507C90.7407 10.3495 90.7652 10.3483 90.7887 10.3554C91.0857 10.4234 93.7003 11.0572 94.3276 11.5663C94.7665 11.9232 95.6882 13.4634 96.4332 14.6998C96.7742 15.2642 97.0659 15.7555 97.2121 15.9594C97.6324 16.5458 97.6818 16.6188 99.554 16.3531C100.062 16.2788 101.354 15.9989 102.988 15.6434C107.836 14.5842 115.956 12.8128 118.124 13.3269C119.885 13.7465 121.76 14.3386 122.298 15.5769C122.586 16.2405 122.452 17.0378 121.903 17.9426C121.558 18.5087 120.949 18.9191 120.153 19.2159ZM90.3943 10.8048C90.2527 10.8577 90.2082 10.914 90.205 10.9272C90.2045 10.9472 90.276 11.0557 90.5978 11.1661C91.3308 11.4132 92.9138 12.122 93.146 12.7271C93.1663 12.7791 93.2019 12.8811 93.2512 13.0177C94.6438 16.9462 95.4499 17.9451 95.8773 18.0916C96.9421 18.4533 102.596 19.0095 107.513 19.2328C108.102 19.2594 108.745 19.2976 109.423 19.3388C113.978 19.6056 120.219 19.9705 121.565 17.7588C122.056 16.9511 122.175 16.2865 121.935 15.7243C121.461 14.6289 119.596 14.0611 118.025 13.69C115.948 13.1973 107.886 14.9554 103.067 16.0072C101.423 16.3668 100.127 16.648 99.6033 16.7242C97.6249 17.0058 97.4205 16.9191 96.9069 16.2005C96.7349 15.9626 96.455 15.4907 96.0931 14.8944C95.4409 13.8101 94.459 12.1692 94.0708 11.857C93.6016 11.4756 91.5298 10.9215 90.7228 10.7298C90.5799 10.7474 90.4742 10.775 90.3943 10.8048Z" fill="#263238"/>
<path d="M107.502 19.4203C107.045 19.4002 106.569 19.375 106.092 19.3465L106.001 15.1825C110.661 14.1938 116.349 13.0996 118.073 13.5092C120.925 14.1856 123.342 15.1991 121.732 17.8515C120.122 20.504 112.133 19.6351 107.502 19.4203Z" fill="#F26F1F"/>
<path d="M120.152 19.2164C117.546 20.1898 112.964 19.9207 109.396 19.7106C108.72 19.6728 108.08 19.6333 107.492 19.6067C107.03 19.5844 106.559 19.5614 106.078 19.5342C105.98 19.5272 105.9 19.4498 105.9 19.3543L105.809 15.1903C105.807 15.0997 105.868 15.0213 105.964 15.0013C110.316 14.076 116.312 12.8983 118.127 13.326C119.888 13.7456 121.762 14.3377 122.3 15.5761C122.588 16.2396 122.455 17.037 121.905 17.9418C121.557 18.5091 120.944 18.9209 120.152 19.2164ZM107.514 19.2367C108.102 19.2634 108.745 19.3015 109.423 19.3427C113.978 19.6096 120.22 19.9745 121.565 17.7627C122.057 16.955 122.176 16.2904 121.935 15.7282C121.462 14.6329 119.597 14.0651 118.025 13.6939C116.311 13.2885 110.498 14.4253 106.198 15.3352L106.283 19.1754C106.699 19.1952 107.111 19.2163 107.514 19.2367Z" fill="#263238"/>
<path d="M114.578 19.7274C114.841 19.7287 115.097 19.7245 115.353 19.7202L115.464 13.5169C115.295 13.5323 115.124 13.5524 114.946 13.5752C114.911 13.5805 114.87 13.5836 114.835 13.5889C114.787 13.5948 114.736 13.602 114.688 13.6078L114.578 19.7274Z" fill="#263238"/>
<path d="M110.853 14.2134C110.787 14.2261 110.718 14.2401 110.651 14.2492C110.473 14.2839 110.294 14.315 110.116 14.3496L109.961 19.5556C110.16 19.5648 110.36 19.5774 110.561 19.59C110.616 19.5932 110.675 19.595 110.735 19.6003L110.896 14.2055C110.881 14.2109 110.869 14.2115 110.853 14.2134Z" fill="#263238"/>
<path d="M119.531 13.9104C119.455 15.1516 119.303 17.4065 119.097 19.3399C119.38 19.2742 119.651 19.2009 119.9 19.1157C120.082 17.3543 120.215 15.4045 120.289 14.1881C120.05 14.0867 119.793 13.9955 119.531 13.9104Z" fill="#263238"/>
<path d="M167.654 65.6745C168.516 65.7503 169.393 66.2178 169.393 66.2178C169.393 66.2178 169.395 67.1829 168.005 69.3638C169.787 70.1136 171.447 70.9566 171.918 70.7132C172.843 70.2368 173.878 65.0797 174.271 63.6051C174.666 62.1339 175.853 60.8479 175.329 58.7934C174.804 56.7354 173.547 57.0737 173.291 57.8334C173.034 58.5931 170.807 61.595 169.417 62.6469C168.025 63.6953 166.961 64.6134 166.961 64.6134C166.961 64.6134 166.792 65.5987 167.654 65.6745Z" fill="#F37630"/>
<path d="M171.948 70.8998C171.491 71.0706 170.556 70.6802 168.987 69.9977C168.642 69.8484 168.28 69.6893 167.916 69.535C167.867 69.5138 167.826 69.4734 167.81 69.4235C167.795 69.3736 167.802 69.3155 167.829 69.2693C168.91 67.5737 169.132 66.6284 169.177 66.3292C168.921 66.2061 168.264 65.9188 167.626 65.8627C167.342 65.8377 167.125 65.7281 166.97 65.5353C166.669 65.1587 166.757 64.6052 166.764 64.5825C166.773 64.5396 166.795 64.4997 166.829 64.4709C166.839 64.4633 167.912 63.5377 169.295 62.4968C170.673 61.4572 172.857 58.4951 173.104 57.7748C173.251 57.3421 173.656 57.0478 174.092 57.056C174.394 57.0624 175.133 57.2397 175.518 58.746C175.901 60.2487 175.418 61.3353 174.949 62.3812C174.756 62.8149 174.574 63.2209 174.458 63.6496C174.384 63.9279 174.284 64.3429 174.167 64.8318C173.464 67.7935 172.767 70.4827 172.005 70.8747C171.987 70.8814 171.966 70.893 171.948 70.8998ZM168.277 69.2769C168.577 69.4038 168.868 69.5333 169.154 69.6573C170.269 70.1474 171.532 70.6974 171.823 70.5488C172.492 70.2039 173.367 66.5219 173.787 64.7548C173.907 64.2611 174.005 63.8426 174.08 63.5644C174.202 63.1094 174.4 62.6696 174.588 62.2456C175.032 61.2528 175.489 60.2276 175.136 58.8447C174.911 57.9706 174.514 57.4432 174.073 57.4329C173.813 57.4267 173.562 57.6157 173.469 57.889C173.206 58.6631 170.986 61.6942 169.53 62.7905C168.338 63.689 167.38 64.4959 167.143 64.6995C167.134 64.8261 167.131 65.1173 167.284 65.3066C167.373 65.4166 167.5 65.4764 167.673 65.4916C168.565 65.5718 169.45 66.0366 169.487 66.0583C169.55 66.0906 169.587 66.1524 169.583 66.2174C169.58 66.2541 169.569 67.2045 168.277 69.2769Z" fill="#263238"/>
<path d="M174.381 57.3149C174.997 59.8081 174.51 60.8725 172.778 64.9381C171.425 68.1107 171.116 69.8759 171.058 70.7084C171.451 70.7882 171.75 70.796 171.914 70.7149C172.838 70.2385 173.874 65.0814 174.267 63.6067C174.662 62.1355 175.849 60.8496 175.325 58.795C175.1 57.9092 174.741 57.4706 174.381 57.3149Z" fill="white"/>
<path d="M171.938 70.9042C171.738 70.9787 171.441 70.9744 171.017 70.8901C170.923 70.8735 170.858 70.7907 170.868 70.6994C170.934 69.7404 171.288 67.9507 172.601 64.8684L172.701 64.636C174.346 60.7822 174.786 59.7472 174.195 57.36C174.176 57.2914 174.206 57.2169 174.263 57.1717C174.32 57.1265 174.399 57.1167 174.469 57.1463C174.796 57.2906 175.246 57.687 175.518 58.7462C175.901 60.249 175.419 61.3356 174.949 62.3814C174.757 62.8151 174.574 63.2212 174.459 63.6499C174.384 63.9281 174.284 64.3431 174.167 64.832C173.465 67.7938 172.767 70.483 172.005 70.8749C171.985 70.8865 171.963 70.8947 171.938 70.9042ZM171.268 70.5538C171.645 70.612 171.783 70.5723 171.824 70.5491C172.492 70.2042 173.367 66.5222 173.788 64.7551C173.907 64.2614 174.006 63.8429 174.08 63.5647C174.202 63.1097 174.401 62.6699 174.589 62.2458C175.033 61.2531 175.49 60.2279 175.137 58.845C175.011 58.3514 174.848 58.0306 174.693 57.826C175.107 59.9731 174.571 61.2308 173.056 64.7778L172.956 65.0102C171.685 67.989 171.349 69.7166 171.268 70.5538Z" fill="#263238"/>
<path d="M111.719 57.0934C111.664 57.1138 111.597 57.1112 111.545 57.0748C111.457 57.0202 111.432 56.9024 111.49 56.817C111.49 56.817 111.779 56.3952 112.257 55.7036C112.316 55.6182 112.439 55.5922 112.528 55.6503C112.616 55.705 112.641 55.8228 112.579 55.9095C112.099 56.5976 111.815 57.0215 111.815 57.0215C111.787 57.0559 111.755 57.0799 111.719 57.0934Z" fill="white"/>
<path d="M110.598 58.2234C110.598 58.2234 119.147 44.9616 127.202 38.2411C135.257 31.5241 139.259 32.5463 139.876 35.8938C140.489 39.2427 140.185 50.8849 139.085 57.6562C137.985 64.4274 135.987 75.6408 135.987 75.6408C135.987 75.6408 144.067 80.7054 144.867 81.337C145.666 81.9651 142.205 83.3926 140.435 83.123C139.029 82.9088 139.102 83.0325 135.992 82.397C130.721 81.3201 130.071 80.3701 130.312 79.2187C131.088 75.5297 132.454 72.1774 131.994 68.2506C131.156 61.1178 131.02 51.5241 131.733 52.3155C131.733 52.3155 129.122 58.061 123.523 62.5367C117.92 67.0139 113.531 68.0365 109.271 65.4772" fill="#73B4EA"/>
<path d="M143.49 82.8136C142.469 83.1945 141.214 83.4325 140.398 83.3121C139.987 83.2508 139.704 83.2175 139.429 83.185C138.771 83.1086 138.147 83.0353 135.946 82.5853C130.702 81.5142 129.838 80.5286 130.119 79.1914C130.316 78.2472 130.555 77.3151 130.791 76.4162C131.485 73.72 132.14 71.1779 131.8 68.2835C131.28 63.8422 130.923 57.003 131.148 53.83C129.998 55.8378 127.525 59.5836 123.641 62.6876C117.884 67.2901 113.417 68.1987 109.157 65.6428C109.066 65.5896 109.042 65.4752 109.099 65.3864C109.156 65.2976 109.279 65.2716 109.367 65.3262C113.459 67.7853 117.788 66.8847 123.392 62.4027C127.857 58.8355 130.427 54.4132 131.253 52.8409C131.323 52.4249 131.418 52.1669 131.544 52.116C131.587 52.0998 131.734 52.049 131.873 52.2037C131.923 52.2566 131.932 52.3328 131.904 52.399C131.899 52.4086 131.791 52.6437 131.578 53.0454C131.318 55.1499 131.457 62.0988 132.179 68.2414C132.527 71.2002 131.862 73.7783 131.162 76.5042C130.93 77.4017 130.693 78.329 130.497 79.2649C130.312 80.1531 130.583 81.1134 136.029 82.2241C138.214 82.6727 138.827 82.7417 139.478 82.8208C139.756 82.852 140.045 82.8874 140.464 82.9494C141.936 83.1711 144.496 82.1953 144.773 81.6149C144.798 81.5618 144.796 81.5348 144.741 81.4915C143.96 80.8767 135.96 75.8576 135.878 75.8085C135.813 75.7693 135.781 75.6978 135.794 75.6253C135.814 75.5147 137.805 64.3359 138.893 57.6407C140.004 50.7934 140.29 39.2417 139.686 35.9371C139.471 34.7573 138.835 33.961 137.856 33.6387C136.566 33.2102 133.482 33.2605 127.327 38.3892C119.388 45.011 110.849 58.1933 110.763 58.3248C110.707 58.4136 110.589 58.4418 110.497 58.3885C110.406 58.3352 110.378 58.2222 110.435 58.1334C110.521 58.0019 119.093 44.7672 127.076 38.1092C131.746 34.215 135.62 32.5021 137.984 33.2848C139.102 33.6545 139.821 34.547 140.066 35.8667C140.676 39.1969 140.39 50.8123 139.274 57.6893C138.248 64.0114 136.413 74.3329 136.197 75.5585C137.188 76.1784 144.229 80.6055 144.989 81.2001C145.177 81.3489 145.227 81.5527 145.127 81.765C144.948 82.1261 144.292 82.514 143.49 82.8136Z" fill="#73B4EA"/>
<path d="M113.645 54.3296C113.587 54.3512 113.522 54.3438 113.468 54.3123C113.379 54.2542 113.359 54.1385 113.417 54.0532C115.22 51.5233 117.788 48.0522 119.794 45.8919C119.863 45.8143 119.989 45.8069 120.066 45.8739C120.147 45.943 120.151 46.0607 120.08 46.1348C118.089 48.2814 115.532 51.7367 113.735 54.2604C113.714 54.292 113.682 54.316 113.645 54.3296Z" fill="white"/>
<path d="M128.652 57.1313C128.601 57.1502 128.542 57.1484 128.489 57.1203C128.396 57.0719 128.363 56.9568 128.415 56.8659L130.55 53.2026C130.485 52.4632 129.947 45.0118 133.175 39.8232C133.232 39.7344 133.348 39.7027 133.44 39.756C133.531 39.8093 133.562 39.9209 133.506 40.0097C130.191 45.3381 130.932 53.1391 130.941 53.2153C130.944 53.254 130.938 53.292 130.917 53.3237L128.756 57.0366C128.73 57.0862 128.695 57.115 128.652 57.1313Z" fill="white"/>
<path d="M140.001 50.1662C139.979 50.1744 139.952 50.1804 139.926 50.1781C139.818 50.1787 139.736 50.0943 139.737 49.9906L139.782 48.1569C139.783 48.0532 139.872 47.9722 139.98 47.9717C140.088 47.9711 140.171 48.0555 140.17 48.1592L140.124 49.9929C140.126 50.0717 140.073 50.1391 140.001 50.1662Z" fill="white"/>
<path d="M140.086 46.7192C140.064 46.7274 140.038 46.7334 140.012 46.7311C139.904 46.7316 139.821 46.6473 139.822 46.5435L139.983 39.9041C139.984 39.8004 140.073 39.7194 140.181 39.7189C140.289 39.7183 140.372 39.8027 140.371 39.9064L140.21 46.5458C140.208 46.6261 140.159 46.6921 140.086 46.7192Z" fill="white"/>
<path d="M140.432 83.1292C142.199 83.3953 145.666 81.9699 144.863 81.3432C144.065 80.7151 135.983 75.6469 135.983 75.6469C135.983 75.6469 136.513 72.6783 137.177 68.8723C134.726 69.4573 133.042 69.0009 132.007 68.4492C132.402 72.2932 131.075 75.5953 130.308 79.2249C130.067 80.3762 130.717 81.3263 135.988 82.4032C139.098 83.0387 139.025 82.915 140.432 83.1292Z" fill="#FEDEA5"/>
<path d="M143.49 82.8137C142.47 83.1947 141.215 83.4327 140.398 83.3122C139.987 83.2509 139.704 83.2176 139.429 83.1851C138.771 83.1088 138.148 83.0355 135.946 82.5854C130.702 81.5143 129.839 80.5287 130.119 79.1915C130.318 78.2508 130.555 77.3236 130.787 76.426C131.466 73.7871 132.106 71.2939 131.816 68.4726C131.81 68.4034 131.842 68.3358 131.905 68.2962C131.965 68.2579 132.042 68.253 132.106 68.2887C133.057 68.7962 134.7 69.2758 137.135 68.6927C137.2 68.6766 137.264 68.6923 137.31 68.7349C137.355 68.7774 137.38 68.8399 137.366 68.9007C136.781 72.2597 136.298 74.9644 136.196 75.5551C137.187 76.175 144.228 80.6022 144.988 81.1967C145.175 81.3455 145.226 81.5493 145.126 81.7616C144.948 82.1262 144.292 82.5141 143.49 82.8137ZM132.232 68.7705C132.446 71.5131 131.823 73.9442 131.164 76.5078C130.934 77.4005 130.697 78.3278 130.5 79.2602C130.314 80.1484 130.585 81.1087 136.032 82.2195C138.216 82.668 138.83 82.737 139.481 82.816C139.759 82.8472 140.047 82.8827 140.467 82.9447C141.939 83.1664 144.499 82.1906 144.775 81.6102C144.8 81.5571 144.798 81.5301 144.744 81.4868C143.963 80.872 135.963 75.8529 135.881 75.8038C135.816 75.7646 135.784 75.6931 135.797 75.6206C135.797 75.6206 136.302 72.7922 136.94 69.1195C134.779 69.5726 133.227 69.2216 132.232 68.7705Z" fill="#263238"/>
<path d="M135.982 75.6469C135.982 75.6469 135.364 75.4803 135.119 76.633C134.875 77.7858 134.872 78.8442 134.872 78.8442L130.876 76.846C130.674 77.6289 130.475 78.4188 130.308 79.2249C130.067 80.3763 130.716 81.3263 135.987 82.4032C139.098 83.0387 139.024 82.915 140.431 83.1292C142.199 83.3953 145.665 81.9699 144.863 81.3432C144.063 80.7116 135.982 75.6469 135.982 75.6469Z" fill="#F37630"/>
<path d="M143.49 82.8135C142.47 83.1945 141.215 83.4325 140.398 83.312C139.987 83.2508 139.704 83.2174 139.429 83.1849C138.771 83.1086 138.148 83.0353 135.946 82.5853C130.702 81.5141 129.839 80.5285 130.12 79.1913C130.296 78.3542 130.507 77.5202 130.689 76.8041C130.704 76.7468 130.744 76.7001 130.797 76.6763C130.854 76.6511 130.913 76.653 130.969 76.6797L134.69 78.5382C134.709 78.1378 134.762 77.3903 134.93 76.5961C135.04 76.078 135.24 75.7288 135.527 75.5581C135.784 75.4065 136.013 75.4601 136.037 75.4672C136.055 75.4722 136.075 75.4807 136.092 75.4905C136.422 75.6971 144.19 80.5685 144.989 81.1965C145.176 81.3453 145.226 81.5491 145.126 81.7614C144.948 82.126 144.292 82.5139 143.49 82.8135ZM131.004 77.12C130.837 77.7787 130.65 78.5161 130.495 79.2579C130.309 80.1461 130.58 81.1064 136.027 82.2171C138.211 82.6657 138.825 82.7347 139.476 82.8137C139.754 82.8449 140.043 82.8804 140.462 82.9424C141.934 83.164 144.494 82.1882 144.771 81.6079C144.796 81.5548 144.793 81.5278 144.739 81.4845C143.982 80.8886 136.488 76.1854 135.909 75.8212C135.874 75.8181 135.799 75.8265 135.715 75.8778C135.588 75.957 135.412 76.1577 135.306 76.6626C135.068 77.7808 135.065 78.8275 135.064 78.8358C135.064 78.8994 135.026 78.9614 134.97 78.9983C134.912 79.0318 134.839 79.0354 134.777 79.0065L131.004 77.12Z" fill="#F37630"/>
<path d="M135.989 82.4032C139.099 83.0387 139.026 82.915 140.433 83.1292C142.024 83.3698 144.986 82.24 144.984 81.553C139.364 83.3334 133.159 80.8442 130.282 79.4101C130.149 80.4772 131.002 81.3831 135.989 82.4032Z" fill="white"/>
<path d="M143.461 82.8322C142.469 83.2023 141.249 83.4433 140.399 83.3116C139.988 83.2503 139.705 83.217 139.43 83.1844C138.772 83.1081 138.148 83.0348 135.947 82.5848C130.873 81.5454 129.944 80.5925 130.086 79.3906C130.094 79.3277 130.132 79.274 130.187 79.2454C130.246 79.2154 130.312 79.2145 130.37 79.2447C133.458 80.7829 139.454 83.1078 144.922 81.3761C144.981 81.3579 145.043 81.3667 145.093 81.3996C145.144 81.4325 145.174 81.4888 145.173 81.5489C145.173 81.7316 145.056 81.9223 144.826 82.1115C144.522 82.3644 144.027 82.6207 143.461 82.8322ZM130.464 79.7103C130.529 80.4296 131.35 81.264 136.032 82.2188C138.217 82.6673 138.83 82.7364 139.481 82.8154C139.76 82.8466 140.048 82.882 140.467 82.9441C141.643 83.1212 143.691 82.5074 144.513 81.8828C139.214 83.3128 133.571 81.2216 130.464 79.7103Z" fill="#263238"/>
</g>
<path d="M25.4246 106.769V120H23.6981V106.769H25.4246ZM29.6774 106.769V108.205H19.4544V106.769H29.6774ZM34.5572 120.182C33.8727 120.182 33.2517 120.067 32.6944 119.836C32.1431 119.6 31.6675 119.27 31.2677 118.846C30.8739 118.422 30.571 117.919 30.359 117.337C30.1469 116.756 30.0409 116.12 30.0409 115.429V115.047C30.0409 114.248 30.159 113.536 30.3953 112.912C30.6316 112.282 30.9527 111.749 31.3585 111.313C31.7644 110.876 32.2249 110.546 32.7398 110.322C33.2547 110.098 33.7879 109.986 34.3391 109.986C35.0419 109.986 35.6477 110.107 36.1566 110.349C36.6715 110.592 37.0926 110.931 37.4197 111.367C37.7468 111.797 37.9892 112.306 38.1467 112.894C38.3042 113.475 38.3829 114.112 38.3829 114.802V115.556H31.0405V114.184H36.7018V114.057C36.6776 113.621 36.5867 113.197 36.4292 112.785C36.2777 112.373 36.0354 112.034 35.7022 111.767C35.369 111.5 34.9147 111.367 34.3391 111.367C33.9575 111.367 33.6061 111.449 33.285 111.613C32.9639 111.77 32.6883 112.006 32.4581 112.321C32.2279 112.636 32.0492 113.021 31.922 113.475C31.7947 113.93 31.7311 114.454 31.7311 115.047V115.429C31.7311 115.896 31.7947 116.335 31.922 116.747C32.0552 117.153 32.2461 117.51 32.4944 117.819C32.7489 118.128 33.0548 118.37 33.4122 118.546C33.7757 118.722 34.1877 118.81 34.6481 118.81C35.2418 118.81 35.7446 118.688 36.1566 118.446C36.5685 118.204 36.929 117.88 37.2379 117.474L38.2557 118.283C38.0437 118.604 37.7741 118.91 37.4469 119.2C37.1198 119.491 36.7169 119.727 36.2384 119.909C35.7658 120.091 35.2054 120.182 34.5572 120.182ZM44.2805 118.8C44.6803 118.8 45.0499 118.719 45.3891 118.555C45.7284 118.392 46.0071 118.167 46.2252 117.883C46.4432 117.592 46.5674 117.262 46.5977 116.892H48.1971C48.1668 117.474 47.9699 118.016 47.6064 118.519C47.249 119.016 46.7795 119.418 46.1979 119.727C45.6163 120.03 44.9772 120.182 44.2805 120.182C43.5414 120.182 42.8962 120.051 42.3449 119.791C41.7997 119.53 41.3453 119.173 40.9819 118.719C40.6244 118.264 40.3548 117.743 40.1731 117.156C39.9974 116.562 39.9096 115.935 39.9096 115.275V114.893C39.9096 114.233 39.9974 113.609 40.1731 113.021C40.3548 112.427 40.6244 111.903 40.9819 111.449C41.3453 110.995 41.7997 110.637 42.3449 110.377C42.8962 110.116 43.5414 109.986 44.2805 109.986C45.0499 109.986 45.7223 110.143 46.2979 110.458C46.8734 110.767 47.3247 111.192 47.6518 111.731C47.985 112.264 48.1668 112.87 48.1971 113.548H46.5977C46.5674 113.142 46.4523 112.776 46.2524 112.449C46.0586 112.121 45.792 111.861 45.4527 111.667C45.1195 111.467 44.7288 111.367 44.2805 111.367C43.7656 111.367 43.3324 111.47 42.981 111.676C42.6357 111.876 42.3601 112.149 42.1541 112.494C41.9542 112.833 41.8088 113.212 41.7179 113.63C41.6331 114.042 41.5907 114.463 41.5907 114.893V115.275C41.5907 115.705 41.6331 116.129 41.7179 116.547C41.8027 116.965 41.9451 117.344 42.145 117.683C42.351 118.022 42.6266 118.295 42.9719 118.501C43.3233 118.701 43.7595 118.8 44.2805 118.8ZM54.0946 110.168V120H52.4044V110.168H54.0946ZM57.3933 110.168V111.531H49.1694V110.168H57.3933ZM68.7977 114.811H65.2628V113.385H68.7977C69.4822 113.385 70.0366 113.275 70.4606 113.057C70.8847 112.839 71.1937 112.536 71.3875 112.149C71.5874 111.761 71.6874 111.319 71.6874 110.822C71.6874 110.368 71.5874 109.941 71.3875 109.541C71.1937 109.141 70.8847 108.82 70.4606 108.577C70.0366 108.329 69.4822 108.205 68.7977 108.205H65.6717V120H63.9179V106.769H68.7977C69.7973 106.769 70.6424 106.942 71.333 107.287C72.0236 107.632 72.5476 108.111 72.9051 108.723C73.2625 109.329 73.4412 110.022 73.4412 110.804C73.4412 111.652 73.2625 112.376 72.9051 112.976C72.5476 113.575 72.0236 114.033 71.333 114.348C70.6424 114.657 69.7973 114.811 68.7977 114.811ZM74.8316 115.193V114.984C74.8316 114.275 74.9345 113.618 75.1405 113.012C75.3465 112.4 75.6433 111.87 76.0311 111.422C76.4188 110.967 76.8883 110.616 77.4396 110.368C77.9909 110.113 78.6088 109.986 79.2934 109.986C79.984 109.986 80.6049 110.113 81.1562 110.368C81.7136 110.616 82.1861 110.967 82.5738 111.422C82.9676 111.87 83.2675 112.4 83.4735 113.012C83.6794 113.618 83.7824 114.275 83.7824 114.984V115.193C83.7824 115.902 83.6794 116.559 83.4735 117.165C83.2675 117.771 82.9676 118.301 82.5738 118.755C82.1861 119.203 81.7166 119.555 81.1653 119.809C80.6201 120.058 80.0022 120.182 79.3115 120.182C78.6209 120.182 77.9999 120.058 77.4487 119.809C76.8974 119.555 76.4248 119.203 76.0311 118.755C75.6433 118.301 75.3465 117.771 75.1405 117.165C74.9345 116.559 74.8316 115.902 74.8316 115.193ZM76.5127 114.984V115.193C76.5127 115.684 76.5702 116.147 76.6853 116.583C76.8004 117.013 76.9731 117.395 77.2033 117.728C77.4396 118.061 77.7334 118.325 78.0848 118.519C78.4361 118.707 78.8451 118.8 79.3115 118.8C79.7719 118.8 80.1748 118.707 80.5201 118.519C80.8715 118.325 81.1623 118.061 81.3925 117.728C81.6227 117.395 81.7954 117.013 81.9105 116.583C82.0316 116.147 82.0922 115.684 82.0922 115.193V114.984C82.0922 114.499 82.0316 114.042 81.9105 113.612C81.7954 113.176 81.6197 112.791 81.3834 112.458C81.1532 112.118 80.8624 111.852 80.511 111.658C80.1657 111.464 79.7598 111.367 79.2934 111.367C78.8329 111.367 78.427 111.464 78.0757 111.658C77.7304 111.852 77.4396 112.118 77.2033 112.458C76.9731 112.791 76.8004 113.176 76.6853 113.612C76.5702 114.042 76.5127 114.499 76.5127 114.984ZM87.5718 112.058V123.78H85.8816V110.168H87.4264L87.5718 112.058ZM94.1963 115.002V115.193C94.1963 115.908 94.1115 116.571 93.9419 117.183C93.7722 117.789 93.5239 118.316 93.1967 118.764C92.8756 119.212 92.4788 119.561 92.0063 119.809C91.5338 120.058 90.9916 120.182 90.3797 120.182C89.7557 120.182 89.2044 120.079 88.7258 119.873C88.2472 119.667 87.8414 119.367 87.5082 118.973C87.175 118.579 86.9084 118.107 86.7085 117.556C86.5146 117.004 86.3813 116.383 86.3087 115.693V114.675C86.3813 113.948 86.5177 113.297 86.7176 112.721C86.9175 112.146 87.181 111.655 87.5082 111.249C87.8414 110.837 88.2442 110.525 88.7168 110.313C89.1893 110.095 89.7345 109.986 90.3524 109.986C90.9704 109.986 91.5186 110.107 91.9972 110.349C92.4758 110.586 92.8787 110.925 93.2058 111.367C93.533 111.809 93.7783 112.34 93.9419 112.957C94.1115 113.569 94.1963 114.251 94.1963 115.002ZM92.5061 115.193V115.002C92.5061 114.511 92.4546 114.051 92.3516 113.621C92.2486 113.185 92.0881 112.803 91.87 112.476C91.658 112.143 91.3854 111.882 91.0522 111.694C90.719 111.5 90.3222 111.404 89.8617 111.404C89.4377 111.404 89.0681 111.476 88.7531 111.622C88.4441 111.767 88.1806 111.964 87.9625 112.212C87.7444 112.455 87.5657 112.733 87.4264 113.048C87.2931 113.357 87.1931 113.678 87.1265 114.012V116.365C87.2477 116.789 87.4173 117.189 87.6354 117.565C87.8535 117.934 88.1443 118.234 88.5077 118.464C88.8712 118.688 89.3286 118.8 89.8799 118.8C90.3343 118.8 90.725 118.707 91.0522 118.519C91.3854 118.325 91.658 118.061 91.87 117.728C92.0881 117.395 92.2486 117.013 92.3516 116.583C92.4546 116.147 92.5061 115.684 92.5061 115.193ZM96.4863 110.168H98.1674V118.619H101.766V110.168H103.456V118.619H107.046V110.168H108.727V120H96.4863V110.168ZM117.205 118.319V113.257C117.205 112.87 117.126 112.533 116.969 112.249C116.817 111.958 116.587 111.734 116.278 111.576C115.969 111.419 115.588 111.34 115.133 111.34C114.709 111.34 114.337 111.413 114.015 111.558C113.7 111.703 113.452 111.894 113.27 112.131C113.095 112.367 113.007 112.621 113.007 112.894H111.326C111.326 112.542 111.416 112.194 111.598 111.849C111.78 111.503 112.04 111.192 112.38 110.913C112.725 110.628 113.137 110.404 113.616 110.24C114.1 110.071 114.639 109.986 115.233 109.986C115.948 109.986 116.578 110.107 117.123 110.349C117.675 110.592 118.105 110.958 118.414 111.449C118.729 111.934 118.886 112.542 118.886 113.275V117.855C118.886 118.183 118.913 118.531 118.968 118.9C119.029 119.27 119.116 119.588 119.231 119.855V120H117.478C117.393 119.806 117.326 119.549 117.278 119.228C117.229 118.9 117.205 118.598 117.205 118.319ZM117.496 114.039L117.514 115.22H115.815C115.336 115.22 114.909 115.26 114.533 115.338C114.158 115.411 113.843 115.523 113.588 115.675C113.334 115.826 113.14 116.017 113.007 116.247C112.873 116.471 112.807 116.735 112.807 117.038C112.807 117.347 112.876 117.628 113.016 117.883C113.155 118.137 113.364 118.34 113.643 118.492C113.928 118.637 114.276 118.71 114.688 118.71C115.203 118.71 115.657 118.601 116.051 118.382C116.445 118.164 116.757 117.898 116.987 117.583C117.223 117.268 117.35 116.962 117.369 116.665L118.086 117.474C118.044 117.728 117.929 118.01 117.741 118.319C117.553 118.628 117.302 118.925 116.987 119.209C116.678 119.488 116.308 119.721 115.878 119.909C115.454 120.091 114.976 120.182 114.443 120.182C113.776 120.182 113.192 120.051 112.689 119.791C112.192 119.53 111.804 119.182 111.526 118.746C111.253 118.304 111.117 117.81 111.117 117.265C111.117 116.738 111.22 116.274 111.426 115.874C111.632 115.469 111.928 115.132 112.316 114.866C112.704 114.593 113.17 114.387 113.716 114.248C114.261 114.108 114.87 114.039 115.542 114.039H117.496ZM122.666 110.168L124.82 113.748L127.001 110.168H128.973L125.756 115.02L129.073 120H127.128L124.856 116.311L122.585 120H120.631L123.939 115.02L120.731 110.168H122.666ZM136.561 118.319V113.257C136.561 112.87 136.482 112.533 136.324 112.249C136.173 111.958 135.943 111.734 135.634 111.576C135.325 111.419 134.943 111.34 134.489 111.34C134.065 111.34 133.692 111.413 133.371 111.558C133.056 111.703 132.808 111.894 132.626 112.131C132.45 112.367 132.362 112.621 132.362 112.894H130.681C130.681 112.542 130.772 112.194 130.954 111.849C131.136 111.503 131.396 111.192 131.735 110.913C132.081 110.628 132.493 110.404 132.971 110.24C133.456 110.071 133.995 109.986 134.589 109.986C135.304 109.986 135.934 110.107 136.479 110.349C137.03 110.592 137.46 110.958 137.769 111.449C138.084 111.934 138.242 112.542 138.242 113.275V117.855C138.242 118.183 138.269 118.531 138.324 118.9C138.384 119.27 138.472 119.588 138.587 119.855V120H136.833C136.748 119.806 136.682 119.549 136.633 119.228C136.585 118.9 136.561 118.598 136.561 118.319ZM136.851 114.039L136.87 115.22H135.17C134.692 115.22 134.265 115.26 133.889 115.338C133.513 115.411 133.198 115.523 132.944 115.675C132.69 115.826 132.496 116.017 132.362 116.247C132.229 116.471 132.162 116.735 132.162 117.038C132.162 117.347 132.232 117.628 132.372 117.883C132.511 118.137 132.72 118.34 132.999 118.492C133.283 118.637 133.632 118.71 134.044 118.71C134.558 118.71 135.013 118.601 135.407 118.382C135.8 118.164 136.112 117.898 136.343 117.583C136.579 117.268 136.706 116.962 136.724 116.665L137.442 117.474C137.4 117.728 137.285 118.01 137.097 118.319C136.909 118.628 136.658 118.925 136.343 119.209C136.034 119.488 135.664 119.721 135.234 119.909C134.81 120.091 134.331 120.182 133.798 120.182C133.132 120.182 132.547 120.051 132.044 119.791C131.548 119.53 131.16 119.182 130.881 118.746C130.609 118.304 130.472 117.81 130.472 117.265C130.472 116.738 130.575 116.274 130.781 115.874C130.987 115.469 131.284 115.132 131.672 114.866C132.06 114.593 132.526 114.387 133.071 114.248C133.616 114.108 134.225 114.039 134.898 114.039H136.851Z" fill="#3F414E"/>
</svg>
