<svg width="180" height="135" viewBox="0 0 180 135" fill="none" xmlns="http://www.w3.org/2000/svg">
<rect y="0.992645" width="180" height="134.007" rx="11.6316" fill="#3F414E"/>
<rect width="180" height="76.4338" rx="11.6316" fill="#4E5567"/>
<path d="M121.736 44.3433C122.626 49.7872 75.1397 48.3712 66.8232 46.281C62.0912 45.2908 67.6319 22.2553 64.6585 14.7424C62.9458 7.70854 116.326 9.56104 120.267 14.2207C123.301 17.805 120.483 36.6778 121.736 44.3433Z" fill="#FBF5EB"/>
<path d="M73.3246 31.0989C73.5118 30.1585 73.2716 29.0761 73.4058 28.5544C73.7095 27.3833 73.8614 26.7977 73.6813 26.6309C72.9503 25.9495 72.4418 29.0512 71.7531 29.0264C71.4777 28.8738 71.2446 27.9369 71.1528 27.2626C71.0433 26.457 71.3506 24.0722 70.8703 24.1148C70.4642 24.1503 70.1923 25.8857 70.2029 26.4677C70.1887 25.8608 70.4324 23.1992 69.7897 23.4228C69.32 23.586 69.3129 26.6274 69.3235 27.0319C69.3094 26.8368 69.4189 23.9196 68.9527 24.1219C68.416 24.3526 68.5254 26.9787 68.536 27.3797C68.5149 27.1349 68.6844 24.6329 68.1158 24.9062C67.7627 25.0765 67.6179 27.5004 67.6285 27.905C67.6708 29.6865 69.3341 33.9841 69.6343 34.481L72.3959 34.5378C72.3959 34.5378 72.7843 33.3915 72.8973 32.8308C73.0421 32.1245 73.254 31.4503 73.3246 31.0989Z" fill="#FDBCA0"/>
<path d="M88.0786 52.3494C88.4141 54.9259 84.8227 63.869 85.589 68.3086C93.0155 69.8772 110.531 67.0629 111.894 61.1612C112.004 57.1652 111.863 52.6937 111.94 50.032C112.138 43.0763 110.86 31.1557 99.3367 34.8465C98.747 34.7223 98.7682 33.8493 92.959 34.2468C87.3406 34.6229 87.0687 44.6484 88.0786 52.3494Z" fill="#8E97FD"/>
<path d="M68.5532 34.6656C66.2189 46.6216 73.4477 55.5789 83.5369 55.0998C97.8708 54.422 106.502 43.1047 102.582 35.2511L98.7219 35.3079C87.2837 33.2993 84.5469 41.8981 81.1038 41.5858C78.6282 41.3622 74.5424 39.1833 73.7019 34.1403C73.5183 33.0402 68.7403 33.7109 68.5532 34.6656Z" fill="#8E97FD"/>
<path d="M95.5861 35.4214C93.6721 40.0207 86.1608 42.1961 87.365 35.4036C87.7358 33.3063 84.9955 31.6454 84.7483 30.1549C84.1868 26.7622 87.5593 25.6727 88.3009 22.5816C89.4168 17.9256 91.2637 10.1962 103.783 17.4926C107.589 19.7071 95.5861 35.4214 95.5861 35.4214Z" fill="#3F414E"/>
<path d="M101.734 27L101.755 35.6095C101.314 38.0866 95.2682 38.4521 95.586 35.6308L95.5684 31.9329L101.734 27Z" fill="#F0A38B"/>
<path d="M91.6201 26.8722C91.5812 27.3974 91.5141 27.8765 91.5424 28.3911C91.5812 29.0619 91.726 29.7432 91.9803 30.382C92.6583 32.0784 94.0709 34.488 95.8401 34.5306C98.9619 34.6016 103.009 31.0599 102.507 26.4854C102.069 22.4929 98.7111 16.3712 97.4963 18.7276C95.6106 22.3865 93.4953 20.9776 92.1463 23.2382C91.8638 23.7102 91.6024 24.3064 91.6236 25.6798C91.6307 26.127 91.6448 26.5102 91.6201 26.8722Z" fill="#FDBCA0"/>
<path d="M98.0476 29.1258C98.0123 30.1018 98.768 30.9215 99.7391 30.9606C100.71 30.9961 101.526 30.2366 101.565 29.2607C101.6 28.2848 100.844 27.465 99.8733 27.4259C98.9022 27.3869 98.0864 28.1499 98.0476 29.1258Z" fill="#F4A07B"/>
<path d="M91.5424 28.3911C91.5812 29.0618 91.7331 29.7397 91.9803 30.382C92.7819 30.24 93.407 29.5551 93.4388 28.7034C93.4741 27.7275 92.7184 26.9077 91.7472 26.8686C91.7048 26.8686 91.6625 26.8686 91.6201 26.8686C91.5812 27.3974 91.5141 27.8765 91.5424 28.3911Z" fill="#F4A07B"/>
<path d="M96.8431 26.8652C96.8431 26.8652 97.5493 28.0434 99.7211 26.7091C99.9931 26.5423 98.7889 26.9149 98.0437 26.9752C97.2809 27.032 96.6524 26.6097 96.8431 26.8652Z" fill="#002869"/>
<path d="M91.9947 26.1057C92.1712 26.3967 93.7356 27.6068 94.3112 26.5351C94.4631 26.2547 93.8592 26.8438 93.1565 26.5848C92.4361 26.3222 91.8816 25.9211 91.9947 26.1057Z" fill="#002869"/>
<path d="M95.859 29.7043C95.3964 29.7255 94.683 29.612 94.5629 29.0655C94.51 28.8241 94.6336 28.6183 94.743 28.4125C95.0256 27.8837 95.2763 27.4011 95.2586 26.78C95.2551 26.6984 95.3822 26.6806 95.3858 26.7623C95.4034 27.3549 95.1986 27.8376 94.9231 28.3521C94.7607 28.6538 94.5665 28.92 94.8137 29.25C95.0397 29.5481 95.4917 29.5978 95.8413 29.58C95.9225 29.5765 95.9402 29.7007 95.859 29.7043Z" fill="#F27979"/>
<path d="M97.1864 30.9605C97.3242 30.6837 95.8657 31.6596 94.2766 30.7937C93.595 30.421 95.23 32.4297 97.1864 30.9605Z" fill="#F27979"/>
<path fill-rule="evenodd" clip-rule="evenodd" d="M0 86.366V64.446C0.845739 59.9609 2.21225 56.1807 4.07584 54.4489C4.24849 54.2873 4.42899 54.1362 4.61733 54.0132C12.4569 45.8405 20.3538 41.709 38.6724 48.3385C52.4751 45.3457 61.2512 46.7193 70.3671 48.1461C78.3366 49.3935 86.5656 50.6815 98.6399 49.1281L98.662 49.1288C98.7635 49.1321 98.8587 49.1351 98.9538 49.1351C103.243 49.222 106.126 48.555 108.763 47.945C113.485 46.8528 117.417 45.9432 127.212 49.8708C127.403 49.8795 127.817 49.7368 128.432 49.5248C131.046 48.6237 137.292 46.4702 145.531 49.3607C164.179 45.8092 170.464 49.8708 175.044 52.9314C176.932 54.404 178.426 56.9398 179.557 60.0571V93.4821C179.201 93.9477 178.813 94.273 178.396 94.436C170.445 97.5441 138.12 97.3185 107.837 97.1071C92.4766 96.9999 77.6411 96.8964 66.7785 97.2335C66.033 97.2581 65.2875 97.2792 64.5419 97.3002C51.0047 97.7044 37.962 97.9258 27.3363 97.7712C26.0728 97.7536 24.8407 97.729 23.6479 97.6974C11.9784 97.4092 3.8875 96.5798 2.38075 94.9034C1.78918 94.2446 0.75408 90.3875 0 86.366Z" fill="#3F414E"/>
<path d="M84.3288 50.925C85.7166 50.8753 87.1044 50.8292 88.4923 50.7795C89.0714 50.7582 89.075 49.8497 88.4923 49.871C87.1044 49.9207 85.7166 49.9668 84.3288 50.0165C83.7496 50.0378 83.7461 50.9463 84.3288 50.925Z" fill="#656B7B"/>
<path d="M78.9649 86.2077C77.8278 87.0062 76.6872 87.8047 75.5501 88.6032C75.0733 88.9368 75.5642 89.6998 76.0409 89.3662C77.178 88.5677 78.3187 87.7692 79.4558 86.9707C79.9325 86.6371 79.4417 85.8741 78.9649 86.2077Z" fill="#656B7B"/>
<path d="M86.7267 56.376C85.7202 58.0936 84.7102 59.8077 83.7038 61.5254C83.4107 62.0258 84.1417 62.5616 84.4348 62.0577C85.4412 60.3401 86.4512 58.626 87.4577 56.9083C87.7543 56.4115 87.0233 55.8721 86.7267 56.376Z" fill="#656B7B"/>
<path d="M88.2171 81.4486C89.16 82.7616 90.2088 83.986 91.3671 85.1145C91.7838 85.5226 92.423 84.8803 92.0063 84.4722C90.9045 83.3969 89.898 82.24 88.9975 80.9908C88.6585 80.5188 87.8746 80.973 88.2171 81.4486Z" fill="#656B7B"/>
<path d="M91.1865 66.3873C91.1865 66.3873 91.1865 69.3648 91.1865 70.9263C91.1865 71.5118 92.0906 71.5118 92.0906 70.9263C92.0906 69.3612 92.0906 67.8991 92.0906 66.3873C92.0906 65.784 91.1865 65.784 91.1865 66.3873C91.1865 65.784 91.1865 66.3873 91.1865 66.3873Z" fill="#656B7B"/>
<path d="M69.5821 75.089C68.4202 74.7589 67.2619 74.4289 66.1001 74.0988C65.5421 73.9392 65.2455 74.798 65.807 74.9577C66.9688 75.2877 68.1271 75.6178 69.289 75.9478C69.8469 76.1039 70.1435 75.2487 69.5821 75.089Z" fill="#656B7B"/>
<path d="M73.1802 54.3958C74.5539 55.2298 75.8499 56.1738 77.0683 57.2242C77.5097 57.6039 78.0076 56.8445 77.5697 56.4683C76.3514 55.4179 75.0554 54.4774 73.6817 53.6399C73.1837 53.3382 72.6788 54.0941 73.1802 54.3958Z" fill="#656B7B"/>
<path d="M14.7712 75.3269C13.9377 75.2772 13.1043 75.2311 12.2709 75.185C12.2568 74.8869 12.2497 74.5852 12.2427 74.2765C13.0761 74.3262 13.906 74.3723 14.7394 74.4184C15.315 74.4539 15.3538 75.3624 14.7712 75.3269Z" fill="#656B7B"/>
<path d="M54.1528 84.9939C55.5407 85.0435 56.9285 85.0897 58.3163 85.1394C58.8955 85.1607 58.899 86.0692 58.3163 86.0479C56.9285 85.9982 55.5407 85.952 54.1528 85.9024C53.5702 85.8811 53.5702 84.9726 54.1528 84.9939Z" fill="#656B7B"/>
<path d="M55.2022 62.842C54.1958 61.1244 53.1858 59.4103 52.1794 57.6927C51.8863 57.1923 52.6173 56.6564 52.9104 57.1603C53.9168 58.878 54.9268 60.5921 55.9332 62.3097C56.2299 62.8101 55.4989 63.346 55.2022 62.842Z" fill="#656B7B"/>
<path d="M42.6942 91.9816C42.3587 92.0065 42.0232 92.0278 41.6877 92.0491C41.0944 91.0376 40.5012 90.0298 39.9079 89.0183C39.6148 88.518 40.3458 87.9821 40.6389 88.486C41.324 89.6536 42.0091 90.8176 42.6942 91.9816Z" fill="#656B7B"/>
<path d="M65.0547 63.2644C65.0547 63.2644 65.0547 60.2869 65.0547 58.7254C65.0547 58.1398 65.9587 58.1398 65.9587 58.7254C65.9587 60.2904 65.9587 61.7526 65.9587 63.2644C65.9587 63.8712 65.0547 63.8712 65.0547 63.2644C65.0547 63.8712 65.0547 63.2644 65.0547 63.2644Z" fill="#656B7B"/>
<path d="M49.3892 67.0688C48.2274 67.3989 47.0691 67.7289 45.9072 68.059C45.3493 68.2187 45.0526 67.3598 45.6141 67.2002C46.7759 66.8701 47.9342 66.5401 49.0961 66.21C49.6505 66.0503 49.9471 66.9091 49.3892 67.0688Z" fill="#656B7B"/>
<path d="M45.9356 79.5463C47.3093 78.7123 48.6053 77.7683 49.8237 76.7178C50.2651 76.3381 50.763 77.0976 50.3251 77.4737C49.1068 78.5242 47.8108 79.4646 46.437 80.3022C45.9391 80.6038 45.4341 79.8515 45.9356 79.5463Z" fill="#656B7B"/>
<path d="M24.9452 92.5246C24.3767 92.5069 23.8222 92.482 23.2855 92.4501C22.6675 91.9852 22.0707 91.4955 21.4915 90.9809C21.0572 90.594 21.6222 89.8878 22.0565 90.2746C22.9747 91.0838 23.9353 91.8361 24.9452 92.5246Z" fill="#656B7B"/>
<path d="M35.0272 77.3213C34.3315 79.188 33.6359 81.0546 32.9402 82.9178C32.7389 83.4608 31.8631 83.2265 32.0679 82.68C32.7636 80.8133 33.4593 78.9466 34.155 77.0835C34.3598 76.5405 35.2321 76.7747 35.0272 77.3213Z" fill="#656B7B"/>
<path d="M20.76 54.6264C19.4358 54.2147 18.108 53.7995 16.7837 53.3878C16.2293 53.2139 16.4659 52.3374 17.0203 52.5113C18.3446 52.9229 19.6724 53.3381 20.9966 53.7498C21.5511 53.9237 21.3145 54.8003 20.76 54.6264Z" fill="#656B7B"/>
<path d="M30.1853 58.8034C30.7079 60.7269 31.2341 62.6468 31.7567 64.5703C31.9086 65.1274 31.0646 65.4539 30.9127 64.8896C30.3901 62.9662 29.8639 61.0462 29.3413 59.1228C29.1859 58.5656 30.0299 58.2391 30.1853 58.8034Z" fill="#656B7B"/>
<path d="M23.5605 79.1808C22.3069 80.1993 20.9755 81.1043 19.563 81.8886C19.0544 82.1725 18.6024 81.3846 19.1145 81.1007C20.4599 80.3555 21.7312 79.5037 22.9284 78.5349C23.3733 78.1694 24.0125 78.8117 23.5605 79.1808Z" fill="#656B7B"/>
<path d="M21.1375 64.1267C21.1375 64.1267 20.3606 66.9977 19.951 68.5095C19.7991 69.0738 18.9269 68.836 19.0787 68.2718C19.4884 66.7635 19.8697 65.3511 20.2653 63.8889C20.4242 63.3034 21.2929 63.5411 21.1375 64.1267C21.2929 63.5411 21.1375 64.1267 21.1375 64.1267Z" fill="#656B7B"/>
<path d="M36.4328 72.5411C37.637 72.5305 38.8447 72.5163 40.0489 72.5057C40.6281 72.4986 40.6917 73.4071 40.109 73.4106C38.9048 73.4213 37.697 73.4354 36.4928 73.4461C35.9137 73.4532 35.8501 72.5482 36.4328 72.5411Z" fill="#656B7B"/>
<path d="M45.5684 60.0988C44.0252 60.5424 42.5279 61.1102 41.08 61.8023C40.5538 62.0542 40.2748 61.1883 40.7939 60.9399C42.2418 60.2479 43.7391 59.68 45.2824 59.2364C45.8403 59.0767 46.1299 59.9391 45.5684 60.0988Z" fill="#656B7B"/>
<path d="M163.905 50.925C165.293 50.8753 166.681 50.8292 168.068 50.7795C168.648 50.7582 168.651 49.8497 168.068 49.871C166.681 49.9207 165.293 49.9668 163.905 50.0165C163.326 50.0378 163.322 50.9463 163.905 50.925Z" fill="#656B7B"/>
<path d="M158.542 86.2077C157.404 87.0062 156.264 87.8047 155.127 88.6032C154.65 88.9368 155.141 89.6998 155.618 89.3662C156.755 88.5677 157.895 87.7692 159.032 86.9707C159.509 86.6371 159.018 85.8741 158.542 86.2077Z" fill="#656B7B"/>
<path d="M166.303 56.376C165.297 58.0936 164.287 59.8077 163.28 61.5254C162.987 62.0258 163.718 62.5616 164.011 62.0577C165.018 60.3401 166.028 58.626 167.034 56.9083C167.331 56.4115 166.6 55.8721 166.303 56.376Z" fill="#656B7B"/>
<path d="M167.793 81.4486C168.736 82.7616 169.785 83.986 170.943 85.1145C171.36 85.5226 171.999 84.8803 171.582 84.4722C170.481 83.3969 169.474 82.24 168.574 80.9908C168.235 80.5188 167.451 80.973 167.793 81.4486Z" fill="#656B7B"/>
<path d="M170.763 66.3873C170.763 66.3873 170.763 69.3648 170.763 70.9263C170.763 71.5118 171.667 71.5118 171.667 70.9263C171.667 69.3612 171.667 67.8991 171.667 66.3873C171.667 65.784 170.763 65.784 170.763 66.3873C170.763 65.784 170.763 66.3873 170.763 66.3873Z" fill="#656B7B"/>
<path d="M149.158 75.089C147.996 74.7589 146.838 74.4289 145.676 74.0988C145.118 73.9392 144.822 74.798 145.383 74.9577C146.545 75.2877 147.703 75.6178 148.865 75.9478C149.423 76.1039 149.72 75.2487 149.158 75.089Z" fill="#656B7B"/>
<path d="M152.758 54.3958C154.132 55.2298 155.428 56.1738 156.646 57.2242C157.087 57.6039 157.585 56.8445 157.147 56.4683C155.929 55.4179 154.633 54.4774 153.259 53.6399C152.761 53.3382 152.256 54.0941 152.758 54.3958Z" fill="#656B7B"/>
<path d="M94.3473 75.3269C93.5139 75.2772 92.6805 75.2311 91.8471 75.185C91.833 74.8869 91.8259 74.5852 91.8188 74.2765C92.6523 74.3262 93.4821 74.3723 94.3155 74.4184C94.8912 74.4539 94.93 75.3624 94.3473 75.3269Z" fill="#656B7B"/>
<path d="M133.729 84.9939C135.117 85.0435 136.505 85.0897 137.893 85.1394C138.472 85.1607 138.476 86.0692 137.893 86.0479C136.505 85.9982 135.117 85.952 133.729 85.9024C133.147 85.8811 133.147 84.9726 133.729 84.9939Z" fill="#656B7B"/>
<path d="M134.778 62.842C133.772 61.1244 132.762 59.4103 131.756 57.6927C131.462 57.1923 132.193 56.6564 132.487 57.1603C133.493 58.878 134.503 60.5921 135.509 62.3097C135.806 62.8101 135.075 63.346 134.778 62.842Z" fill="#656B7B"/>
<path d="M122.271 91.9816C121.935 92.0065 121.6 92.0278 121.264 92.0491C120.671 91.0376 120.078 90.0298 119.485 89.0183C119.191 88.518 119.922 87.9821 120.216 88.486C120.901 89.6536 121.586 90.8176 122.271 91.9816Z" fill="#656B7B"/>
<path d="M144.631 63.2644C144.631 63.2644 144.631 60.2869 144.631 58.7254C144.631 58.1398 145.535 58.1398 145.535 58.7254C145.535 60.2904 145.535 61.7526 145.535 63.2644C145.535 63.8712 144.631 63.8712 144.631 63.2644C144.631 63.8712 144.631 63.2644 144.631 63.2644Z" fill="#656B7B"/>
<path d="M128.966 67.0688C127.804 67.3989 126.646 67.7289 125.484 68.059C124.926 68.2187 124.63 67.3598 125.191 67.2002C126.353 66.8701 127.511 66.5401 128.673 66.21C129.228 66.0503 129.524 66.9091 128.966 67.0688Z" fill="#656B7B"/>
<path d="M125.512 79.5463C126.885 78.7123 128.181 77.7683 129.4 76.7178C129.841 76.3381 130.339 77.0976 129.901 77.4737C128.683 78.5242 127.387 79.4646 126.013 80.3022C125.515 80.6038 125.01 79.8515 125.512 79.5463Z" fill="#656B7B"/>
<path d="M104.521 92.5246C103.953 92.5069 103.398 92.482 102.862 92.4501C102.244 91.9852 101.647 91.4955 101.068 90.9809C100.633 90.594 101.198 89.8878 101.633 90.2746C102.551 91.0838 103.511 91.8361 104.521 92.5246Z" fill="#656B7B"/>
<path d="M114.603 77.3213C113.908 79.188 113.212 81.0546 112.516 82.9178C112.315 83.4608 111.439 83.2265 111.644 82.68C112.34 80.8133 113.035 78.9466 113.731 77.0835C113.936 76.5405 114.808 76.7747 114.603 77.3213Z" fill="#656B7B"/>
<path d="M100.337 54.6264C99.0129 54.2147 97.6851 53.7995 96.3608 53.3878C95.8064 53.2139 96.043 52.3374 96.5974 52.5113C97.9217 52.9229 99.2495 53.3381 100.574 53.7498C101.128 53.9237 100.892 54.8003 100.337 54.6264Z" fill="#656B7B"/>
<path d="M109.762 58.8034C110.285 60.7269 110.811 62.6468 111.334 64.5703C111.486 65.1274 110.642 65.4539 110.49 64.8896C109.967 62.9662 109.441 61.0462 108.918 59.1228C108.763 58.5656 109.607 58.2391 109.762 58.8034Z" fill="#656B7B"/>
<path d="M103.137 79.1808C101.884 80.1993 100.552 81.1043 99.1396 81.8886C98.6311 82.1725 98.1791 81.3846 98.6911 81.1007C100.037 80.3555 101.308 79.5037 102.505 78.5349C102.95 78.1694 103.589 78.8117 103.137 79.1808Z" fill="#656B7B"/>
<path d="M100.715 64.1267C100.715 64.1267 99.9378 66.9977 99.5281 68.5095C99.3763 69.0738 98.504 68.836 98.6559 68.2718C99.0655 66.7635 99.4469 65.3511 99.8424 63.8889C100.001 63.3034 100.87 63.5411 100.715 64.1267C100.87 63.5411 100.715 64.1267 100.715 64.1267Z" fill="#656B7B"/>
<path d="M116.009 72.5411C117.214 72.5305 118.421 72.5163 119.626 72.5057C120.205 72.4986 120.268 73.4071 119.686 73.4106C118.481 73.4213 117.274 73.4354 116.069 73.4461C115.49 73.4532 115.427 72.5482 116.009 72.5411Z" fill="#656B7B"/>
<path d="M125.145 60.0988C123.602 60.5424 122.105 61.1102 120.657 61.8023C120.13 62.0542 119.851 61.1883 120.371 60.9399C121.818 60.2479 123.316 59.68 124.859 59.2364C125.417 59.0767 125.707 59.9391 125.145 60.0988Z" fill="#656B7B"/>
<path d="M116.213 85.0059C115.086 87.7102 108.059 91.9333 106.901 91.3122C105.004 90.2902 97.9838 80.2186 98.5665 77.8195C99.1209 75.5376 105.795 71.4139 105.795 71.4139C105.795 71.4139 112.639 68.6458 116.467 68.5783C118.572 68.5393 126.998 81.3577 125.974 84.0123C125.472 85.3005 119.398 86.1096 116.213 85.0059Z" fill="white"/>
<path d="M116.04 84.2394C115.708 87.1672 107.554 91.8197 105.954 91.1845C105.015 90.8119 97.1044 79.6543 97.6836 77.2588C98.238 74.9769 108.652 69.9198 108.652 69.9198C108.652 69.9198 114.316 68.8445 118.148 68.7735C120.253 68.7345 126.719 80.9851 125.695 83.6432C125.197 84.9314 117.827 86.3793 116.04 84.2394Z" fill="white"/>
<path d="M115.877 83.7887C114.726 87.5008 106.137 91.362 105.141 90.6912C103.528 89.5982 97.4218 79.9453 98.001 77.5463C98.5554 75.2644 108.86 70.3315 108.86 70.3315C112.017 70.1399 114.574 69.0894 118.667 68.9758C120.779 68.9155 127.435 80.2292 126.634 82.8909C126.16 84.4665 117.191 85.3431 115.877 83.7887Z" fill="white"/>
<path d="M114.186 84.7255C114.186 84.7255 114.885 86.2054 116.538 85.5631C118.328 84.8675 118.134 83.054 118.134 83.054C116.524 83.2066 115.143 83.6751 114.186 84.7255Z" fill="#E8E2E3"/>
<path d="M115.521 82.9192C114.913 83.3735 114.624 84.0797 114.666 85.0556C114.889 85.9854 106.48 89.9282 104.333 90.1198C102.893 90.2476 96.6102 77.9047 96.8644 76.439C97.0622 75.307 107.007 70.8922 107.473 69.9943C107.473 69.9943 108.959 68.8694 109.977 69.1213C110.979 69.3697 119.497 67.3043 120.5 67.2795C122.072 67.244 128.054 79.1575 128.033 81.56C128.022 82.5537 118.138 84.7043 117.799 83.8881C117.435 83.0044 115.521 82.9192 115.521 82.9192Z" fill="#8E97FD"/>
<path d="M107.052 70.0548L114.666 85.0522C115.432 84.094 116.781 83.2139 117.798 83.8882L110.464 68.9475C110.089 68.2023 106.801 69.5579 107.052 70.0548Z" fill="#4E5567"/>
<path d="M105.205 86.7767C107.222 85.9889 109.129 84.9987 110.838 83.6608C111.082 83.4727 111.354 83.8631 111.113 84.0547C109.369 85.4175 107.423 86.4254 105.371 87.2274C105.085 87.341 104.919 86.8903 105.205 86.7767Z" fill="#4E5567"/>
<path d="M104.597 84.8605C105.879 84.2607 107.281 83.7071 108.415 82.8412C108.658 82.6531 108.934 83.047 108.69 83.2351C107.528 84.1223 106.077 84.6972 104.763 85.3112C104.484 85.4389 104.322 84.9882 104.597 84.8605Z" fill="#4E5567"/>
<path d="M93.0086 57.4421C92.101 57.1547 90.9992 57.2789 90.4978 57.0872C89.3748 56.6578 88.8098 56.4413 88.6226 56.6046C87.8704 57.2611 90.8862 58.1022 90.7838 58.7871C90.6037 59.0462 89.6502 59.1811 88.9757 59.1988C88.1671 59.2201 85.8434 58.6594 85.8328 59.1456C85.8257 59.5537 87.5102 60.0115 88.0894 60.0647C87.4855 60.0115 84.8829 59.4863 85.0347 60.1499C85.1477 60.6361 88.1529 60.9697 88.5555 61.0016C88.3613 60.9945 85.4867 60.5722 85.635 61.0584C85.8045 61.6191 88.4142 61.793 88.8133 61.8249C88.5661 61.8179 86.1118 61.3813 86.3201 61.9775C86.4508 62.3466 88.8345 62.7512 89.2335 62.7867C90.9992 62.9357 95.4311 61.7362 95.9538 61.4878L96.3069 58.7339C96.3069 58.7339 95.2157 58.2229 94.6719 58.049C93.9974 57.836 93.3511 57.5486 93.0086 57.4421Z" fill="#FDBCA0"/>
<path d="M95.8718 62.4212C98.771 62.8009 112.141 69.7744 116.17 60.2918C121.806 47.0334 111.484 33.2106 102.822 34.3959L106.141 46.792C104.82 48.9817 105.58 52.7151 105.258 53.6591C104.453 56.0226 105.364 57.3392 95.7058 57.2008C94.6005 57.1902 94.9112 62.2969 95.8718 62.4212Z" fill="#8E97FD"/>
<path d="M95.9531 15.7786C95.7235 14.4655 107.307 11.0019 110.753 22.092C111.982 26.0525 121.114 25.939 116.891 33.569C115.556 35.9786 125.034 38.1292 116.81 44.3433C109.115 50.1563 97.3586 45.0637 98.418 41.0145C99.5904 36.5323 103.616 38.9206 100.982 33.2141C99.6434 30.3111 101.218 28.5828 101.543 27.6105C101.607 27.4082 101.67 27.2059 101.734 27.0001C101.928 26.308 102.009 25.6621 101.734 25.0305C100.908 23.1425 95.2715 24.2887 96.4757 19.8527C97.6128 15.6615 95.9531 15.7786 95.9531 15.7786Z" fill="#3F414E"/>
<path d="M103.317 56.8282C106.954 55.9517 104.475 48.7972 106.361 46.4727C106.467 46.3414 106.279 46.1497 106.174 46.2846C104.263 48.6375 106.509 55.7849 103.246 56.5727C103.08 56.6117 103.151 56.8708 103.317 56.8282Z" fill="#5863E3"/>
<path d="M99.9324 63.7982C103.633 65.0509 108.556 66.2327 112.285 64.5896C112.441 64.5221 112.306 64.2915 112.151 64.3589C108.5 65.9701 103.637 64.7706 100.003 63.5391C99.8406 63.4859 99.77 63.745 99.9324 63.7982Z" fill="#5863E3"/>
<path d="M109.132 19.2388C109.76 20.417 110.534 21.4036 111.604 22.2021C112.72 23.036 113.744 23.6464 114.393 24.9489C114.471 25.1015 114.704 24.9773 114.63 24.8247C114.146 23.8558 113.475 23.1957 112.607 22.5747C111.219 21.5881 110.188 20.6512 109.368 19.111C109.284 18.962 109.05 19.0862 109.132 19.2388Z" fill="#002869"/>
<path d="M87.054 32.7315C87.4037 34.0339 86.3654 35.4606 86.3372 36.7807C86.3054 38.1612 87.2942 38.7503 88.5372 38.9775C88.7032 39.0094 88.7774 38.7503 88.6079 38.7184C84.7516 38.0122 87.9122 34.8998 87.3118 32.657C87.2659 32.4973 87.0081 32.5683 87.054 32.7315Z" fill="#002869"/>
<path d="M28.634 115.611L32.1326 106.769H34.15L29.4701 117.792C29.3368 118.101 29.1884 118.401 29.0248 118.691C28.8612 118.976 28.6613 119.231 28.425 119.455C28.1888 119.679 27.895 119.858 27.5436 119.991C27.1983 120.124 26.7681 120.191 26.2532 120.191C26.1078 120.191 25.9352 120.182 25.7352 120.164C25.5353 120.151 25.4051 120.136 25.3445 120.118L25.399 118.719C25.4657 118.731 25.5959 118.743 25.7898 118.755C25.9836 118.761 26.126 118.764 26.2169 118.764C26.5622 118.764 26.8348 118.694 27.0347 118.555C27.2346 118.416 27.3952 118.24 27.5163 118.028C27.6435 117.81 27.7586 117.589 27.8616 117.365L28.634 115.611ZM25.6625 106.769L29.3428 115.011L29.779 116.638L28.3069 116.747L23.6997 106.769H25.6625ZM41.9195 110.168V111.558H37.1669V110.168H41.9195ZM43.4007 110.168V120H41.7196V110.168H43.4007ZM36.758 110.168H38.4482L38.1937 114.911C38.1513 115.644 38.0817 116.292 37.9847 116.856C37.8939 117.413 37.7666 117.892 37.6031 118.292C37.4456 118.691 37.2457 119.019 37.0033 119.273C36.7671 119.521 36.4823 119.706 36.1491 119.827C35.8159 119.942 35.4312 120 34.9951 120H34.468V118.519L34.8315 118.492C35.092 118.473 35.3131 118.413 35.4949 118.31C35.6827 118.207 35.8402 118.055 35.9674 117.855C36.0946 117.649 36.1976 117.386 36.2764 117.065C36.3612 116.744 36.4248 116.362 36.4672 115.92C36.5156 115.478 36.552 114.963 36.5762 114.375L36.758 110.168ZM48.8712 118.982L51.6064 110.168H53.4057L49.4618 121.518C49.371 121.76 49.2498 122.02 49.0983 122.299C48.953 122.584 48.7651 122.853 48.5349 123.108C48.3047 123.362 48.0261 123.568 47.6989 123.726C47.3778 123.889 46.9932 123.971 46.5449 123.971C46.4116 123.971 46.2419 123.953 46.036 123.917C45.83 123.88 45.6846 123.85 45.5998 123.826L45.5907 122.463C45.6392 122.469 45.7149 122.475 45.8179 122.481C45.9269 122.493 46.0027 122.499 46.0451 122.499C46.4267 122.499 46.7508 122.447 47.0174 122.344C47.2839 122.248 47.5081 122.081 47.6898 121.845C47.8776 121.614 48.0382 121.296 48.1715 120.891L48.8712 118.982ZM46.8629 110.168L49.4164 117.801L49.8526 119.573L48.644 120.191L45.0273 110.168H46.8629ZM62.3383 110.168V120H60.6572V110.168H62.3383ZM61.7659 114.684V116.065C61.4266 116.192 61.0813 116.308 60.7299 116.411C60.3846 116.507 60.0181 116.586 59.6304 116.647C59.2487 116.701 58.8337 116.729 58.3854 116.729C57.61 116.729 56.9375 116.595 56.3681 116.329C55.7986 116.056 55.3594 115.647 55.0504 115.102C54.7415 114.551 54.587 113.857 54.587 113.021V110.15H56.2681V113.021C56.2681 113.566 56.3499 114.009 56.5135 114.348C56.677 114.687 56.9163 114.938 57.2314 115.102C57.5464 115.26 57.9311 115.338 58.3854 115.338C58.8216 115.338 59.2305 115.311 59.6122 115.256C59.9999 115.196 60.3695 115.117 60.7208 115.02C61.0783 114.923 61.4266 114.811 61.7659 114.684ZM65.1917 110.168H66.8728V118.619H70.4714V110.168H72.1616V118.619H75.751V110.168H77.4321V120H65.1917V110.168ZM84.193 120.182C83.5084 120.182 82.8875 120.067 82.3301 119.836C81.7788 119.6 81.3033 119.27 80.9034 118.846C80.5097 118.422 80.2067 117.919 79.9947 117.337C79.7827 116.756 79.6767 116.12 79.6767 115.429V115.047C79.6767 114.248 79.7948 113.536 80.0311 112.912C80.2673 112.282 80.5884 111.749 80.9943 111.313C81.4002 110.876 81.8606 110.546 82.3756 110.322C82.8905 110.098 83.4236 109.986 83.9749 109.986C84.6776 109.986 85.2834 110.107 85.7923 110.349C86.3073 110.592 86.7283 110.931 87.0554 111.367C87.3826 111.797 87.6249 112.306 87.7824 112.894C87.9399 113.475 88.0187 114.112 88.0187 114.802V115.556H80.6763V114.184H86.3376V114.057C86.3133 113.621 86.2225 113.197 86.0649 112.785C85.9135 112.373 85.6712 112.034 85.338 111.767C85.0048 111.5 84.5504 111.367 83.9749 111.367C83.5932 111.367 83.2419 111.449 82.9208 111.613C82.5997 111.77 82.3241 112.006 82.0939 112.321C81.8636 112.636 81.6849 113.021 81.5577 113.475C81.4305 113.93 81.3669 114.454 81.3669 115.047V115.429C81.3669 115.896 81.4305 116.335 81.5577 116.747C81.691 117.153 81.8818 117.51 82.1302 117.819C82.3846 118.128 82.6906 118.37 83.048 118.546C83.4115 118.722 83.8234 118.81 84.2839 118.81C84.8776 118.81 85.3804 118.688 85.7923 118.446C86.2043 118.204 86.5647 117.88 86.8737 117.474L87.8915 118.283C87.6794 118.604 87.4098 118.91 87.0827 119.2C86.7556 119.491 86.3527 119.727 85.8741 119.909C85.4016 120.091 84.8412 120.182 84.193 120.182ZM96.6515 114.43V115.793H91.4536V114.43H96.6515ZM91.808 110.168V120H90.1269V110.168H91.808ZM98.0146 110.168V120H96.3244V110.168H98.0146ZM102.54 117.337L107.074 110.168H108.765V120H107.074V112.83L102.54 120H100.868V110.168H102.54V117.337ZM115.544 120.182C114.859 120.182 114.238 120.067 113.681 119.836C113.13 119.6 112.654 119.27 112.254 118.846C111.86 118.422 111.557 117.919 111.345 117.337C111.133 116.756 111.027 116.12 111.027 115.429V115.047C111.027 114.248 111.146 113.536 111.382 112.912C111.618 112.282 111.939 111.749 112.345 111.313C112.751 110.876 113.211 110.546 113.726 110.322C114.241 110.098 114.774 109.986 115.326 109.986C116.028 109.986 116.634 110.107 117.143 110.349C117.658 110.592 118.079 110.931 118.406 111.367C118.733 111.797 118.976 112.306 119.133 112.894C119.291 113.475 119.369 114.112 119.369 114.802V115.556H112.027V114.184H117.688V114.057C117.664 113.621 117.573 113.197 117.416 112.785C117.264 112.373 117.022 112.034 116.689 111.767C116.356 111.5 115.901 111.367 115.326 111.367C114.944 111.367 114.593 111.449 114.272 111.613C113.95 111.77 113.675 112.006 113.445 112.321C113.214 112.636 113.036 113.021 112.908 113.475C112.781 113.93 112.718 114.454 112.718 115.047V115.429C112.718 115.896 112.781 116.335 112.908 116.747C113.042 117.153 113.233 117.51 113.481 117.819C113.735 118.128 114.041 118.37 114.399 118.546C114.762 118.722 115.174 118.81 115.635 118.81C116.228 118.81 116.731 118.688 117.143 118.446C117.555 118.204 117.915 117.88 118.224 117.474L119.242 118.283C119.03 118.604 118.761 118.91 118.433 119.2C118.106 119.491 117.703 119.727 117.225 119.909C116.752 120.091 116.192 120.182 115.544 120.182ZM129.883 118.8C130.283 118.8 130.653 118.719 130.992 118.555C131.331 118.392 131.61 118.167 131.828 117.883C132.046 117.592 132.17 117.262 132.2 116.892H133.8C133.77 117.474 133.573 118.016 133.209 118.519C132.852 119.016 132.382 119.418 131.801 119.727C131.219 120.03 130.58 120.182 129.883 120.182C129.144 120.182 128.499 120.051 127.948 119.791C127.402 119.53 126.948 119.173 126.585 118.719C126.227 118.264 125.958 117.743 125.776 117.156C125.6 116.562 125.512 115.935 125.512 115.275V114.893C125.512 114.233 125.6 113.609 125.776 113.021C125.958 112.427 126.227 111.903 126.585 111.449C126.948 110.995 127.402 110.637 127.948 110.377C128.499 110.116 129.144 109.986 129.883 109.986C130.653 109.986 131.325 110.143 131.901 110.458C132.476 110.767 132.927 111.192 133.255 111.731C133.588 112.264 133.77 112.87 133.8 113.548H132.2C132.17 113.142 132.055 112.776 131.855 112.449C131.661 112.121 131.395 111.861 131.056 111.667C130.722 111.467 130.332 111.367 129.883 111.367C129.368 111.367 128.935 111.47 128.584 111.676C128.238 111.876 127.963 112.149 127.757 112.494C127.557 112.833 127.412 113.212 127.321 113.63C127.236 114.042 127.193 114.463 127.193 114.893V115.275C127.193 115.705 127.236 116.129 127.321 116.547C127.405 116.965 127.548 117.344 127.748 117.683C127.954 118.022 128.229 118.295 128.575 118.501C128.926 118.701 129.362 118.8 129.883 118.8ZM142.36 114.43V115.793H137.162V114.43H142.36ZM137.516 110.168V120H135.835V110.168H137.516ZM143.723 110.168V120H142.033V110.168H143.723ZM152.229 118.319V113.257C152.229 112.87 152.15 112.533 151.992 112.249C151.841 111.958 151.611 111.734 151.302 111.576C150.993 111.419 150.611 111.34 150.157 111.34C149.733 111.34 149.36 111.413 149.039 111.558C148.724 111.703 148.476 111.894 148.294 112.131C148.118 112.367 148.03 112.621 148.03 112.894H146.349C146.349 112.542 146.44 112.194 146.622 111.849C146.804 111.503 147.064 111.192 147.403 110.913C147.749 110.628 148.161 110.404 148.639 110.24C149.124 110.071 149.663 109.986 150.257 109.986C150.972 109.986 151.602 110.107 152.147 110.349C152.698 110.592 153.128 110.958 153.437 111.449C153.752 111.934 153.91 112.542 153.91 113.275V117.855C153.91 118.183 153.937 118.531 153.992 118.9C154.052 119.27 154.14 119.588 154.255 119.855V120H152.501C152.416 119.806 152.35 119.549 152.301 119.228C152.253 118.9 152.229 118.598 152.229 118.319ZM152.519 114.039L152.538 115.22H150.838C150.36 115.22 149.933 115.26 149.557 115.338C149.181 115.411 148.866 115.523 148.612 115.675C148.357 115.826 148.164 116.017 148.03 116.247C147.897 116.471 147.83 116.735 147.83 117.038C147.83 117.347 147.9 117.628 148.039 117.883C148.179 118.137 148.388 118.34 148.666 118.492C148.951 118.637 149.3 118.71 149.711 118.71C150.226 118.71 150.681 118.601 151.075 118.382C151.468 118.164 151.78 117.898 152.011 117.583C152.247 117.268 152.374 116.962 152.392 116.665L153.11 117.474C153.068 117.728 152.953 118.01 152.765 118.319C152.577 118.628 152.326 118.925 152.011 119.209C151.702 119.488 151.332 119.721 150.902 119.909C150.478 120.091 149.999 120.182 149.466 120.182C148.8 120.182 148.215 120.051 147.712 119.791C147.216 119.53 146.828 119.182 146.549 118.746C146.277 118.304 146.14 117.81 146.14 117.265C146.14 116.738 146.243 116.274 146.449 115.874C146.655 115.469 146.952 115.132 147.34 114.866C147.727 114.593 148.194 114.387 148.739 114.248C149.284 114.108 149.893 114.039 150.566 114.039H152.519Z" fill="#FFECCC"/>
</svg>
