<svg width="143" height="135" viewBox="0 0 143 135" fill="none" xmlns="http://www.w3.org/2000/svg">
<rect y="0.163086" width="142.348" height="134.736" rx="11.6316" fill="#3F414E"/>
<rect x="0.350098" y="0.96991" width="141.997" height="61.3169" rx="11.6316" fill="#4E5567"/>
<path d="M96.2713 35.3993C96.975 39.7045 59.4217 38.5847 52.8449 36.9317C49.1027 36.1487 53.4844 17.9317 51.133 11.9904C49.7785 6.42794 91.9929 7.89293 95.1095 11.5779C97.5084 14.4124 95.2799 29.3373 96.2713 35.3993Z" fill="#FBF5EB"/>
<path d="M57.9865 24.9255C58.1345 24.1817 57.9446 23.3258 58.0507 22.9132C58.2909 21.9871 58.411 21.524 58.2685 21.3921C57.6905 20.8532 57.2883 23.3061 56.7437 23.2865C56.5259 23.1658 56.3416 22.4249 56.269 21.8916C56.1824 21.2546 56.4254 19.3686 56.0456 19.4023C55.7244 19.4303 55.5094 20.8027 55.5177 21.263C55.5066 20.7831 55.6993 18.6782 55.191 18.855C54.8196 18.9841 54.814 21.3893 54.8224 21.7092C54.8112 21.5549 54.8978 19.2479 54.5291 19.4079C54.1046 19.5903 54.1912 21.6671 54.1996 21.9843C54.1828 21.7906 54.3169 19.812 53.8673 20.0281C53.588 20.1628 53.4735 22.0797 53.4819 22.3996C53.5154 23.8085 54.8307 27.2071 55.0681 27.6L57.252 27.6449C57.252 27.6449 57.5592 26.7384 57.6486 26.295C57.7631 25.7365 57.9306 25.2033 57.9865 24.9255Z" fill="#FDBCA0"/>
<path d="M69.654 41.7307C69.9193 43.7682 67.0791 50.8406 67.6852 54.3515C73.5582 55.592 87.4099 53.3664 88.4879 48.6992C88.5745 45.5391 88.4628 42.003 88.5242 39.8981C88.6806 34.3974 87.6697 24.9704 78.5571 27.8891C78.0907 27.7909 78.1075 27.1005 73.5135 27.4148C69.0703 27.7123 68.8553 35.6406 69.654 41.7307Z" fill="#8E97FD"/>
<path d="M54.213 27.746C52.367 37.2011 58.0837 44.2847 66.0624 43.9058C77.3979 43.3698 84.2233 34.4199 81.1234 28.2091L78.071 28.254C69.0254 26.6655 66.8611 33.4657 64.1382 33.2187C62.1805 33.0419 58.9494 31.3187 58.2847 27.3307C58.1395 26.4607 54.361 26.9911 54.213 27.746Z" fill="#8E97FD"/>
<path d="M75.5911 28.3437C74.0775 31.9809 68.1374 33.7013 69.0897 28.3297C69.3829 26.671 67.2158 25.3576 67.0203 24.1789C66.5763 21.4959 69.2433 20.6343 69.8298 18.1898C70.7123 14.5077 72.1728 8.39516 82.0729 14.1653C85.0835 15.9166 75.5911 28.3437 75.5911 28.3437Z" fill="#3F414E"/>
<path d="M80.4532 21.6839L80.4699 28.4925C80.1209 30.4514 75.3398 30.7405 75.5911 28.5093L75.5771 25.585L80.4532 21.6839Z" fill="#F0A38B"/>
<path d="M72.455 21.5829C72.4242 21.9982 72.3712 22.3771 72.3935 22.7841C72.4242 23.3145 72.5387 23.8533 72.7398 24.3585C73.276 25.7 74.3931 27.6056 75.7922 27.6393C78.261 27.6954 81.4614 24.8945 81.0648 21.277C80.7185 18.1197 78.0627 13.2785 77.102 15.142C75.6107 18.0355 73.9379 16.9213 72.8711 18.709C72.6477 19.0823 72.441 19.5538 72.4578 20.6399C72.4633 20.9935 72.4745 21.2966 72.455 21.5829Z" fill="#FDBCA0"/>
<path d="M77.5376 23.3651C77.5096 24.1369 78.1073 24.7852 78.8753 24.816C79.6433 24.8441 80.2884 24.2435 80.3191 23.4717C80.347 22.7 79.7494 22.0517 78.9814 22.0208C78.2134 21.9899 77.5683 22.5933 77.5376 23.3651Z" fill="#F4A07B"/>
<path d="M72.3935 22.784C72.4242 23.3145 72.5443 23.8505 72.7398 24.3585C73.3738 24.2462 73.8681 23.7046 73.8932 23.031C73.9211 22.2592 73.3235 21.6109 72.5555 21.5801C72.522 21.5801 72.4885 21.5801 72.455 21.5801C72.4242 21.9982 72.3712 22.3771 72.3935 22.784Z" fill="#F4A07B"/>
<path d="M76.5854 21.5774C76.5854 21.5774 77.1439 22.5091 78.8614 21.4539C79.0764 21.322 78.1241 21.6167 77.5349 21.6644C76.9316 21.7093 76.4345 21.3753 76.5854 21.5774Z" fill="#002869"/>
<path d="M72.7509 20.9767C72.8905 21.2068 74.1277 22.1638 74.5829 21.3163C74.7029 21.0946 74.2254 21.5605 73.6697 21.3556C73.0999 21.1479 72.6615 20.8308 72.7509 20.9767Z" fill="#002869"/>
<path d="M75.8069 23.8225C75.4411 23.8394 74.8769 23.7496 74.782 23.3174C74.7401 23.1265 74.8378 22.9637 74.9244 22.801C75.1478 22.3828 75.3461 22.0011 75.3321 21.51C75.3293 21.4454 75.4299 21.4314 75.4327 21.4959C75.4466 21.9646 75.2847 22.3463 75.0668 22.7533C74.9384 22.9918 74.7848 23.2023 74.9803 23.4633C75.159 23.699 75.5165 23.7383 75.7929 23.7243C75.8572 23.7215 75.8711 23.8197 75.8069 23.8225Z" fill="#F27979"/>
<path d="M76.8568 24.8159C76.9657 24.597 75.8124 25.3688 74.5557 24.684C74.0167 24.3894 75.3097 25.9778 76.8568 24.8159Z" fill="#F27979"/>
<path fill-rule="evenodd" clip-rule="evenodd" d="M0 68.6311V51.2974C0.668818 47.7503 1.74951 44.7606 3.22335 43.391C3.35988 43.2632 3.50262 43.1437 3.65156 43.0464C9.8512 36.5833 16.0963 33.3161 30.5829 38.5588C41.4983 36.192 48.4387 37.2783 55.6476 38.4067C61.95 39.3931 68.4577 40.4117 78.0063 39.1832L78.0238 39.1838C78.104 39.1864 78.1793 39.1888 78.2545 39.1888C81.6461 39.2575 83.9264 38.73 86.0119 38.2476C89.746 37.3838 92.8556 36.6645 100.602 39.7706C100.753 39.7775 101.08 39.6646 101.567 39.4969C103.633 38.7843 108.573 37.0813 115.088 39.3672C129.835 36.5586 134.806 39.7706 138.428 42.191C139.921 43.3554 141.102 45.3606 141.997 47.8257V74.2593C141.715 74.6274 141.409 74.8846 141.078 75.0135C134.791 77.4715 109.228 77.293 85.2799 77.1259C73.1322 77.0411 61.4 76.9592 52.8097 77.2258C52.2201 77.2452 51.6306 77.2619 51.041 77.2786C40.3355 77.5982 30.0211 77.7733 21.6181 77.651C20.6189 77.6371 19.6446 77.6177 18.7012 77.5926C9.47284 77.3647 3.0744 76.7088 1.88284 75.3831C1.41499 74.8621 0.596348 71.8115 0 68.6311Z" fill="#3F414E"/>
<path d="M66.6888 40.6042C67.7863 40.5649 68.8838 40.5285 69.9814 40.4892C70.4394 40.4723 70.4422 39.7539 69.9814 39.7707C68.8838 39.81 67.7863 39.8465 66.6888 39.8858C66.2308 39.9026 66.228 40.6211 66.6888 40.6042Z" fill="#656B7B"/>
<path d="M62.4467 68.5064C61.5475 69.1379 60.6454 69.7694 59.7462 70.4008C59.3692 70.6646 59.7573 71.268 60.1344 71.0042C61.0336 70.3728 61.9356 69.7413 62.8349 69.1098C63.2119 68.846 62.8237 68.2426 62.4467 68.5064Z" fill="#656B7B"/>
<path d="M68.585 44.915C67.7891 46.2733 66.9903 47.6289 66.1944 48.9872C65.9626 49.3829 66.5407 49.8067 66.7725 49.4082C67.5684 48.0499 68.3671 46.6943 69.1631 45.336C69.3976 44.9431 68.8196 44.5165 68.585 44.915Z" fill="#656B7B"/>
<path d="M69.7638 64.7428C70.5095 65.7812 71.3389 66.7495 72.2549 67.6419C72.5844 67.9647 73.0899 67.4567 72.7604 67.1339C71.889 66.2836 71.0931 65.3687 70.381 64.3808C70.1129 64.0075 69.4929 64.3667 69.7638 64.7428Z" fill="#656B7B"/>
<path d="M72.1123 52.8321C72.1123 52.8321 72.1123 55.1868 72.1123 56.4216C72.1123 56.8847 72.8272 56.8847 72.8272 56.4216C72.8272 55.184 72.8272 54.0277 72.8272 52.8321C72.8272 52.355 72.1123 52.355 72.1123 52.8321C72.1123 52.8321 72.1123 52.355 72.1123 52.8321Z" fill="#656B7B"/>
<path d="M55.0268 59.7135C54.108 59.4525 53.192 59.1915 52.2732 58.9305C51.8319 58.8042 51.5973 59.4834 52.0414 59.6097C52.9602 59.8707 53.8762 60.1317 54.795 60.3927C55.2362 60.5162 55.4708 59.8398 55.0268 59.7135Z" fill="#656B7B"/>
<path d="M57.8723 43.349C58.9586 44.0085 59.9835 44.7551 60.947 45.5858C61.2961 45.8861 61.6899 45.2855 61.3436 44.988C60.3801 44.1573 59.3552 43.4136 58.2688 42.7512C57.875 42.5127 57.4757 43.1105 57.8723 43.349Z" fill="#656B7B"/>
<path d="M11.6812 59.9017C11.0221 59.8624 10.3631 59.8259 9.70398 59.7895C9.69281 59.5537 9.68723 59.3152 9.68164 59.071C10.3407 59.1103 10.997 59.1468 11.6561 59.1833C12.1113 59.2113 12.142 59.9298 11.6812 59.9017Z" fill="#656B7B"/>
<path d="M42.8251 67.5465C43.9226 67.5858 45.0201 67.6223 46.1177 67.6616C46.5757 67.6784 46.5785 68.3969 46.1177 68.38C45.0201 68.3407 43.9226 68.3043 42.8251 68.265C42.3643 68.2481 42.3643 67.5297 42.8251 67.5465Z" fill="#656B7B"/>
<path d="M43.6548 50.0284C42.8589 48.6701 42.0602 47.3146 41.2643 45.9562C41.0325 45.5605 41.6105 45.1367 41.8423 45.5353C42.6383 46.8936 43.437 48.2491 44.2329 49.6075C44.4675 50.0032 43.8894 50.427 43.6548 50.0284Z" fill="#656B7B"/>
<path d="M33.7631 73.0726C33.4978 73.0922 33.2325 73.109 32.9672 73.1259C32.498 72.326 32.0288 71.529 31.5597 70.7291C31.3279 70.3334 31.906 69.9096 32.1378 70.3082C32.6795 71.2315 33.2213 72.152 33.7631 73.0726Z" fill="#656B7B"/>
<path d="M51.4463 50.3624C51.4463 50.3624 51.4463 48.0078 51.4463 46.7729C51.4463 46.3099 52.1612 46.3099 52.1612 46.7729C52.1612 48.0106 52.1612 49.1669 52.1612 50.3624C52.1612 50.8423 51.4463 50.8423 51.4463 50.3624C51.4463 50.3624 51.4463 50.8423 51.4463 50.3624Z" fill="#656B7B"/>
<path d="M39.058 53.3711C38.1392 53.6321 37.2232 53.8931 36.3044 54.1541C35.8632 54.2804 35.6286 53.6012 36.0726 53.4749C36.9914 53.2139 37.9074 52.9529 38.8262 52.6919C39.2647 52.5656 39.4992 53.2448 39.058 53.3711Z" fill="#656B7B"/>
<path d="M36.3268 63.2385C37.4132 62.5789 38.4381 61.8324 39.4016 61.0017C39.7507 60.7014 40.1445 61.302 39.7982 61.5995C38.8347 62.4302 37.8098 63.1739 36.7234 63.8362C36.3296 64.0748 35.9303 63.4798 36.3268 63.2385Z" fill="#656B7B"/>
<path d="M19.7272 73.502C19.2776 73.4879 18.8392 73.4683 18.4147 73.443C17.926 73.0754 17.454 72.6881 16.996 72.2811C16.6525 71.9752 17.0993 71.4167 17.4428 71.7226C18.1689 72.3625 18.9285 72.9575 19.7272 73.502Z" fill="#656B7B"/>
<path d="M27.7001 61.4789C27.1499 62.9551 26.5998 64.4313 26.0496 65.9047C25.8904 66.3341 25.1978 66.1489 25.3598 65.7167C25.91 64.2405 26.4601 62.7642 27.0103 61.2908C27.1723 60.8614 27.8621 61.0467 27.7001 61.4789Z" fill="#656B7B"/>
<path d="M16.4174 43.5314C15.3701 43.2058 14.32 42.8774 13.2728 42.5519C12.8343 42.4144 13.0214 41.7212 13.4599 41.8587C14.5071 42.1842 15.5572 42.5126 16.6045 42.8382C17.0429 42.9757 16.8558 43.6689 16.4174 43.5314Z" fill="#656B7B"/>
<path d="M23.871 46.8346C24.2843 48.3557 24.7004 49.874 25.1137 51.3951C25.2338 51.8358 24.5663 52.094 24.4463 51.6477C24.0329 50.1266 23.6168 48.6083 23.2035 47.0872C23.0806 46.6466 23.7481 46.3884 23.871 46.8346Z" fill="#656B7B"/>
<path d="M18.6322 62.9494C17.6408 63.7549 16.5879 64.4705 15.4708 65.0908C15.0687 65.3153 14.7112 64.6923 15.1162 64.4677C16.1802 63.8784 17.1855 63.2048 18.1323 62.4386C18.4842 62.1496 18.9896 62.6576 18.6322 62.9494Z" fill="#656B7B"/>
<path d="M16.7158 51.0444C16.7158 51.0444 16.1015 53.3148 15.7775 54.5104C15.6574 54.9566 14.9676 54.7686 15.0877 54.3224C15.4117 53.1296 15.7133 52.0126 16.0261 50.8564C16.1517 50.3933 16.8387 50.5813 16.7158 51.0444C16.7158 51.0444 16.8387 50.5813 16.7158 51.0444Z" fill="#656B7B"/>
<path d="M28.8115 57.6987C29.7638 57.6903 30.7189 57.679 31.6713 57.6706C32.1293 57.665 32.1795 58.3835 31.7187 58.3863C30.7664 58.3947 29.8113 58.4059 28.859 58.4143C28.401 58.4199 28.3507 57.7043 28.8115 57.6987Z" fill="#656B7B"/>
<path d="M36.0363 47.8591C34.8159 48.2099 33.6318 48.6589 32.4868 49.2062C32.0706 49.4054 31.85 48.7207 32.2605 48.5242C33.4056 47.9769 34.5897 47.5279 35.8101 47.1771C36.2513 47.0508 36.4803 47.7328 36.0363 47.8591Z" fill="#656B7B"/>
<path d="M129.619 40.6042C130.716 40.5649 131.814 40.5285 132.912 40.4892C133.37 40.4723 133.372 39.7539 132.912 39.7707C131.814 39.81 130.716 39.8465 129.619 39.8858C129.161 39.9026 129.158 40.6211 129.619 40.6042Z" fill="#656B7B"/>
<path d="M125.377 68.5064C124.478 69.1379 123.576 69.7694 122.677 70.4008C122.3 70.6646 122.688 71.268 123.065 71.0042C123.964 70.3728 124.866 69.7413 125.766 69.1098C126.143 68.846 125.754 68.2426 125.377 68.5064Z" fill="#656B7B"/>
<path d="M131.516 44.915C130.72 46.2733 129.921 47.6289 129.125 48.9872C128.893 49.3829 129.471 49.8067 129.703 49.4082C130.499 48.0499 131.298 46.6943 132.094 45.336C132.328 44.9431 131.75 44.5165 131.516 44.915Z" fill="#656B7B"/>
<path d="M132.694 64.7428C133.44 65.7812 134.269 66.7495 135.185 67.6419C135.515 67.9647 136.02 67.4567 135.691 67.1339C134.819 66.2836 134.023 65.3687 133.311 64.3808C133.043 64.0075 132.423 64.3667 132.694 64.7428Z" fill="#656B7B"/>
<path d="M135.042 52.8321C135.042 52.8321 135.042 55.1868 135.042 56.4216C135.042 56.8847 135.757 56.8847 135.757 56.4216C135.757 55.184 135.757 54.0277 135.757 52.8321C135.757 52.355 135.042 52.355 135.042 52.8321C135.042 52.8321 135.042 52.355 135.042 52.8321Z" fill="#656B7B"/>
<path d="M117.957 59.7135C117.038 59.4525 116.122 59.1915 115.203 58.9305C114.762 58.8042 114.528 59.4834 114.972 59.6097C115.89 59.8707 116.806 60.1317 117.725 60.3927C118.166 60.5162 118.401 59.8398 117.957 59.7135Z" fill="#656B7B"/>
<path d="M120.803 43.349C121.89 44.0085 122.915 44.7551 123.878 45.5858C124.227 45.8861 124.621 45.2855 124.275 44.988C123.311 44.1573 122.286 43.4136 121.2 42.7512C120.806 42.5127 120.407 43.1105 120.803 43.349Z" fill="#656B7B"/>
<path d="M74.6114 59.9017C73.9523 59.8624 73.2932 59.8259 72.6342 59.7895C72.623 59.5537 72.6174 59.3152 72.6118 59.071C73.2709 59.1103 73.9272 59.1468 74.5862 59.1833C75.0415 59.2113 75.0722 59.9298 74.6114 59.9017Z" fill="#656B7B"/>
<path d="M105.756 67.5465C106.853 67.5858 107.951 67.6223 109.048 67.6616C109.506 67.6784 109.509 68.3969 109.048 68.38C107.951 68.3407 106.853 68.3043 105.756 68.265C105.295 68.2481 105.295 67.5297 105.756 67.5465Z" fill="#656B7B"/>
<path d="M106.585 50.0284C105.789 48.6701 104.99 47.3146 104.194 45.9562C103.963 45.5605 104.541 45.1367 104.773 45.5353C105.568 46.8936 106.367 48.2491 107.163 49.6075C107.398 50.0032 106.82 50.427 106.585 50.0284Z" fill="#656B7B"/>
<path d="M96.6938 73.0726C96.4285 73.0922 96.1632 73.109 95.8978 73.1259C95.4287 72.326 94.9595 71.529 94.4903 70.7291C94.2585 70.3334 94.8366 69.9096 95.0684 70.3082C95.6102 71.2315 96.152 72.152 96.6938 73.0726Z" fill="#656B7B"/>
<path d="M114.376 50.3624C114.376 50.3624 114.376 48.0078 114.376 46.7729C114.376 46.3099 115.091 46.3099 115.091 46.7729C115.091 48.0106 115.091 49.1669 115.091 50.3624C115.091 50.8423 114.376 50.8423 114.376 50.3624C114.376 50.3624 114.376 50.8423 114.376 50.3624Z" fill="#656B7B"/>
<path d="M101.989 53.3711C101.07 53.6321 100.154 53.8931 99.2351 54.1541C98.7938 54.2804 98.5592 53.6012 99.0033 53.4749C99.9221 53.2139 100.838 52.9529 101.757 52.6919C102.195 52.5656 102.43 53.2448 101.989 53.3711Z" fill="#656B7B"/>
<path d="M99.257 63.2385C100.343 62.5789 101.368 61.8324 102.332 61.0017C102.681 60.7014 103.075 61.302 102.728 61.5995C101.765 62.4302 100.74 63.1739 99.6536 63.8362C99.2598 64.0748 98.8605 63.4798 99.257 63.2385Z" fill="#656B7B"/>
<path d="M82.6574 73.502C82.2078 73.4879 81.7693 73.4683 81.3448 73.443C80.8561 73.0754 80.3842 72.6881 79.9262 72.2811C79.5827 71.9752 80.0295 71.4167 80.373 71.7226C81.0991 72.3625 81.8587 72.9575 82.6574 73.502Z" fill="#656B7B"/>
<path d="M90.6303 61.4789C90.0801 62.9551 89.5299 64.4313 88.9798 65.9047C88.8206 66.3341 88.128 66.1489 88.29 65.7167C88.8402 64.2405 89.3903 62.7642 89.9405 61.2908C90.1024 60.8614 90.7922 61.0467 90.6303 61.4789Z" fill="#656B7B"/>
<path d="M79.3485 43.5314C78.3012 43.2058 77.2512 42.8774 76.2039 42.5519C75.7655 42.4144 75.9526 41.7212 76.391 41.8587C77.4383 42.1842 78.4884 42.5126 79.5356 42.8382C79.9741 42.9757 79.787 43.6689 79.3485 43.5314Z" fill="#656B7B"/>
<path d="M86.8021 46.8346C87.2154 48.3557 87.6315 49.874 88.0449 51.3951C88.1649 51.8358 87.4975 52.094 87.3774 51.6477C86.9641 50.1266 86.548 48.6083 86.1347 47.0872C86.0118 46.6466 86.6792 46.3884 86.8021 46.8346Z" fill="#656B7B"/>
<path d="M81.5628 62.9494C80.5714 63.7549 79.5186 64.4705 78.4015 65.0908C77.9994 65.3153 77.6419 64.6923 78.0468 64.4677C79.1108 63.8784 80.1162 63.2048 81.0629 62.4386C81.4148 62.1496 81.9203 62.6576 81.5628 62.9494Z" fill="#656B7B"/>
<path d="M79.647 51.0444C79.647 51.0444 79.0326 53.3148 78.7087 54.5104C78.5886 54.9566 77.8988 54.7686 78.0189 54.3224C78.3428 53.1296 78.6444 52.0126 78.9572 50.8564C79.0829 50.3933 79.7699 50.5813 79.647 51.0444C79.647 51.0444 79.7699 50.5813 79.647 51.0444Z" fill="#656B7B"/>
<path d="M91.7422 57.6987C92.6945 57.6903 93.6496 57.679 94.6019 57.6706C95.0599 57.665 95.1102 58.3835 94.6494 58.3863C93.6971 58.3947 92.742 58.4059 91.7897 58.4143C91.3317 58.4199 91.2814 57.7043 91.7422 57.6987Z" fill="#656B7B"/>
<path d="M98.9669 47.8591C97.7465 48.2099 96.5624 48.6589 95.4174 49.2062C95.0013 49.4054 94.7807 48.7207 95.1912 48.5242C96.3362 47.9769 97.5203 47.5279 98.7407 47.1771C99.182 47.0508 99.411 47.7328 98.9669 47.8591Z" fill="#656B7B"/>
<path d="M91.9031 67.5561C91.0122 69.6946 85.4547 73.0343 84.5387 72.5432C83.0391 71.7349 77.4872 63.7701 77.948 61.8729C78.3864 60.0684 83.6646 56.8072 83.6646 56.8072C83.6646 56.8072 89.0769 54.6182 92.1041 54.5648C93.7686 54.534 100.432 64.671 99.622 66.7703C99.2255 67.789 94.4221 68.4289 91.9031 67.5561Z" fill="white"/>
<path d="M91.7664 66.9499C91.5039 69.2652 85.0556 72.9445 83.7905 72.4422C83.0476 72.1475 76.792 63.3239 77.25 61.4295C77.6885 59.6249 85.9241 55.6257 85.9241 55.6257C85.9241 55.6257 90.4036 54.7753 93.4337 54.7192C95.0981 54.6883 100.212 64.3763 99.4016 66.4784C99.0079 67.4971 93.1795 68.6422 91.7664 66.9499Z" fill="white"/>
<path d="M91.6373 66.5935C90.7269 69.529 83.9351 72.5825 83.1476 72.0521C81.8713 71.1877 77.0427 63.554 77.5007 61.6568C77.9392 59.8523 86.0883 55.9512 86.0883 55.9512C88.5849 55.7997 90.6068 54.969 93.8436 54.8792C95.5136 54.8314 100.778 63.7785 100.144 65.8834C99.7697 67.1295 92.6762 67.8227 91.6373 66.5935Z" fill="white"/>
<path d="M90.3003 67.3343C90.3003 67.3343 90.8532 68.5046 92.1602 67.9966C93.5761 67.4466 93.4225 66.0125 93.4225 66.0125C92.1491 66.1331 91.0571 66.5036 90.3003 67.3343Z" fill="#E8E2E3"/>
<path d="M91.3559 65.9059C90.8756 66.2651 90.6466 66.8236 90.6801 67.5954C90.856 68.3307 84.2066 71.4487 82.5087 71.6002C81.3692 71.7013 76.4011 61.9403 76.6021 60.7812C76.7585 59.8859 84.6227 56.3947 84.9914 55.6846C84.9914 55.6846 86.1671 54.795 86.9714 54.9942C87.7645 55.1907 94.5005 53.5573 95.2936 53.5377C96.5364 53.5096 101.267 62.931 101.25 64.831C101.242 65.6168 93.4253 67.3175 93.1572 66.672C92.8696 65.9732 91.3559 65.9059 91.3559 65.9059Z" fill="#8E97FD"/>
<path d="M84.6587 55.7324L90.6798 67.5926C91.2858 66.8349 92.3526 66.1389 93.1569 66.6721L87.3565 54.8568C87.0604 54.2674 84.4604 55.3395 84.6587 55.7324Z" fill="#4E5567"/>
<path d="M83.1982 68.9564C84.7928 68.3334 86.3008 67.5504 87.6525 66.4923C87.8452 66.3436 88.0602 66.6523 87.8703 66.8038C86.4907 67.8815 84.952 68.6786 83.3294 69.3128C83.1032 69.4026 82.972 69.0462 83.1982 68.9564Z" fill="#4E5567"/>
<path d="M82.7175 67.441C83.7312 66.9667 84.8399 66.5289 85.7364 65.8441C85.929 65.6954 86.1469 66.0069 85.9542 66.1556C85.0354 66.8573 83.8876 67.3119 82.8487 67.7974C82.6281 67.8985 82.4996 67.542 82.7175 67.441Z" fill="#4E5567"/>
<path d="M73.5526 45.7581C72.8349 45.5308 71.9636 45.629 71.567 45.4775C70.679 45.1379 70.2321 44.9667 70.0841 45.0958C69.4893 45.615 71.8742 46.2801 71.7932 46.8218C71.6508 47.0266 70.8968 47.1333 70.3634 47.1473C69.7239 47.1642 67.8863 46.7207 67.8779 47.1052C67.8723 47.428 69.2044 47.79 69.6624 47.8321C69.1849 47.79 67.1267 47.3746 67.2467 47.8995C67.3361 48.2839 69.7127 48.5478 70.0311 48.573C69.8775 48.5674 67.6042 48.2334 67.7215 48.6179C67.8556 49.0613 69.9194 49.1989 70.2349 49.2241C70.0394 49.2185 68.0985 48.8733 68.2633 49.3448C68.3666 49.6367 70.2517 49.9566 70.5673 49.9847C71.9636 50.1026 75.4684 49.154 75.8817 48.9575L76.161 46.7797C76.161 46.7797 75.2981 46.3755 74.868 46.238C74.3346 46.0696 73.8235 45.8423 73.5526 45.7581Z" fill="#FDBCA0"/>
<path d="M75.8172 49.6956C78.11 49.9959 88.6831 55.5107 91.8696 48.0117C96.3267 37.5267 88.1637 26.5954 81.3132 27.5327L83.9383 37.3358C82.8939 39.0674 83.4943 42.0199 83.2402 42.7664C82.6034 44.6355 83.3239 45.6767 75.6859 45.5673C74.8118 45.5588 75.0576 49.5974 75.8172 49.6956Z" fill="#8E97FD"/>
<path d="M75.8816 12.8099C75.7 11.7715 84.8601 9.03234 87.5857 17.8026C88.5576 20.9347 95.7795 20.8449 92.4394 26.8788C91.3838 28.7844 98.8794 30.4852 92.3752 35.3993C86.2899 39.9963 76.9931 35.969 77.8309 32.7668C78.758 29.2222 81.9417 31.111 79.8584 26.5982C78.7999 24.3025 80.0455 22.9357 80.3024 22.1667C80.3527 22.0067 80.4029 21.8468 80.4532 21.684C80.6068 21.1367 80.671 20.6259 80.4532 20.1264C79.7997 18.6333 75.3426 19.5398 76.2949 16.0317C77.1941 12.7173 75.8816 12.8099 75.8816 12.8099Z" fill="#3F414E"/>
<path d="M81.7044 45.2726C84.5809 44.5794 82.6204 38.9215 84.1117 37.0833C84.1955 36.9794 84.0475 36.8279 83.9637 36.9345C82.4529 38.7952 84.229 44.4475 81.6486 45.0706C81.5173 45.1014 81.5732 45.3063 81.7044 45.2726Z" fill="#5863E3"/>
<path d="M79.0284 50.7846C81.9551 51.7753 85.8482 52.7099 88.7973 51.4104C88.9201 51.3571 88.814 51.1747 88.6911 51.228C85.8035 52.5022 81.9579 51.5536 79.0843 50.5797C78.9558 50.5376 78.8999 50.7425 79.0284 50.7846Z" fill="#5863E3"/>
<path d="M86.3034 15.5462C86.8005 16.478 87.4121 17.2582 88.2583 17.8897C89.1408 18.5492 89.9507 19.0319 90.4645 20.0619C90.526 20.1826 90.7103 20.0843 90.6516 19.9637C90.269 19.1975 89.7384 18.6755 89.0514 18.1843C87.9539 17.4041 87.1384 16.6632 86.4905 15.4452C86.4235 15.3273 86.2392 15.4256 86.3034 15.5462Z" fill="#002869"/>
<path d="M68.8439 26.2165C69.1203 27.2465 68.2993 28.3747 68.277 29.4187C68.2518 30.5104 69.0338 30.9763 70.0168 31.1559C70.1481 31.1812 70.2067 30.9763 70.0727 30.9511C67.023 30.3926 69.5225 27.9313 69.0477 26.1576C69.0114 26.0313 68.8076 26.0874 68.8439 26.2165Z" fill="#002869"/>
<path d="M22.634 99.6109L26.1326 90.7691H28.15L23.4701 101.792C23.3368 102.101 23.1884 102.401 23.0248 102.691C22.8612 102.976 22.6613 103.231 22.425 103.455C22.1888 103.679 21.895 103.858 21.5436 103.991C21.1983 104.124 20.7681 104.191 20.2532 104.191C20.1078 104.191 19.9352 104.182 19.7352 104.164C19.5353 104.151 19.4051 104.136 19.3445 104.118L19.399 102.719C19.4657 102.731 19.5959 102.743 19.7898 102.755C19.9836 102.761 20.126 102.764 20.2169 102.764C20.5622 102.764 20.8348 102.694 21.0347 102.555C21.2346 102.416 21.3952 102.24 21.5163 102.028C21.6435 101.81 21.7586 101.589 21.8616 101.365L22.634 99.6109ZM19.6625 90.7691L23.3428 99.0111L23.779 100.638L22.3069 100.747L17.6997 90.7691H19.6625ZM35.9195 94.1677V95.558H31.1669V94.1677H35.9195ZM37.4007 94.1677V104H35.7196V94.1677H37.4007ZM30.758 94.1677H32.4482L32.1937 98.9112C32.1513 99.6442 32.0817 100.292 31.9847 100.856C31.8939 101.413 31.7666 101.892 31.6031 102.292C31.4456 102.691 31.2457 103.019 31.0033 103.273C30.7671 103.521 30.4823 103.706 30.1491 103.827C29.8159 103.942 29.4312 104 28.9951 104H28.468V102.519L28.8315 102.492C29.092 102.473 29.3131 102.413 29.4949 102.31C29.6827 102.207 29.8402 102.055 29.9674 101.855C30.0946 101.649 30.1976 101.386 30.2764 101.065C30.3612 100.744 30.4248 100.362 30.4672 99.9199C30.5156 99.4776 30.552 98.9627 30.5762 98.375L30.758 94.1677ZM42.8712 102.982L45.6064 94.1677H47.4057L43.4618 105.518C43.371 105.76 43.2498 106.02 43.0983 106.299C42.953 106.584 42.7651 106.853 42.5349 107.108C42.3047 107.362 42.0261 107.568 41.6989 107.726C41.3778 107.889 40.9932 107.971 40.5449 107.971C40.4116 107.971 40.2419 107.953 40.036 107.917C39.83 107.88 39.6846 107.85 39.5998 107.826L39.5907 106.463C39.6392 106.469 39.7149 106.475 39.8179 106.481C39.9269 106.493 40.0027 106.499 40.0451 106.499C40.4267 106.499 40.7508 106.447 41.0174 106.344C41.2839 106.248 41.5081 106.081 41.6898 105.845C41.8776 105.614 42.0382 105.296 42.1715 104.891L42.8712 102.982ZM40.8629 94.1677L43.4164 101.801L43.8526 103.573L42.644 104.191L39.0273 94.1677H40.8629ZM56.3383 94.1677V104H54.6572V94.1677H56.3383ZM55.7659 98.684V100.065C55.4266 100.192 55.0813 100.308 54.7299 100.411C54.3846 100.507 54.0181 100.586 53.6304 100.647C53.2487 100.701 52.8337 100.729 52.3854 100.729C51.61 100.729 50.9375 100.595 50.3681 100.329C49.7986 100.056 49.3594 99.6472 49.0504 99.102C48.7415 98.5507 48.587 97.8571 48.587 97.0211V94.1495H50.2681V97.0211C50.2681 97.5663 50.3499 98.0085 50.5135 98.3478C50.677 98.687 50.9163 98.9384 51.2314 99.102C51.5464 99.2595 51.9311 99.3383 52.3854 99.3383C52.8216 99.3383 53.2305 99.311 53.6122 99.2565C53.9999 99.1959 54.3695 99.1172 54.7208 99.0202C55.0783 98.9233 55.4266 98.8112 55.7659 98.684ZM59.1917 94.1677H60.8728V102.619H64.4714V94.1677H66.1616V102.619H69.751V94.1677H71.4321V104H59.1917V94.1677ZM78.193 104.182C77.5084 104.182 76.8875 104.067 76.3301 103.836C75.7788 103.6 75.3033 103.27 74.9034 102.846C74.5097 102.422 74.2067 101.919 73.9947 101.337C73.7827 100.756 73.6767 100.12 73.6767 99.4292V99.0475C73.6767 98.2478 73.7948 97.536 74.0311 96.912C74.2673 96.282 74.5884 95.7489 74.9943 95.3127C75.4002 94.8765 75.8606 94.5463 76.3756 94.3222C76.8905 94.098 77.4236 93.9859 77.9749 93.9859C78.6776 93.9859 79.2834 94.1071 79.7923 94.3494C80.3073 94.5918 80.7283 94.931 81.0554 95.3672C81.3826 95.7973 81.6249 96.3062 81.7824 96.8938C81.9399 97.4754 82.0187 98.1115 82.0187 98.8021V99.5564H74.6763V98.1842H80.3376V98.057C80.3133 97.6208 80.2225 97.1967 80.0649 96.7848C79.9135 96.3728 79.6712 96.0336 79.338 95.767C79.0048 95.5005 78.5504 95.3672 77.9749 95.3672C77.5932 95.3672 77.2419 95.449 76.9208 95.6125C76.5997 95.7701 76.3241 96.0063 76.0939 96.3213C75.8636 96.6364 75.6849 97.0211 75.5577 97.4754C75.4305 97.9298 75.3669 98.4538 75.3669 99.0475V99.4292C75.3669 99.8956 75.4305 100.335 75.5577 100.747C75.691 101.153 75.8818 101.51 76.1302 101.819C76.3846 102.128 76.6906 102.37 77.048 102.546C77.4115 102.722 77.8234 102.81 78.2839 102.81C78.8776 102.81 79.3804 102.688 79.7923 102.446C80.2043 102.204 80.5647 101.88 80.8737 101.474L81.8915 102.283C81.6794 102.604 81.4098 102.91 81.0827 103.2C80.7556 103.491 80.3527 103.727 79.8741 103.909C79.4016 104.091 78.8412 104.182 78.193 104.182ZM90.6515 98.4296V99.7926H85.4536V98.4296H90.6515ZM85.808 94.1677V104H84.1269V94.1677H85.808ZM92.0146 94.1677V104H90.3244V94.1677H92.0146ZM96.54 101.337L101.074 94.1677H102.765V104H101.074V96.8302L96.54 104H94.8679V94.1677H96.54V101.337ZM109.544 104.182C108.859 104.182 108.238 104.067 107.681 103.836C107.13 103.6 106.654 103.27 106.254 102.846C105.86 102.422 105.557 101.919 105.345 101.337C105.133 100.756 105.027 100.12 105.027 99.4292V99.0475C105.027 98.2478 105.146 97.536 105.382 96.912C105.618 96.282 105.939 95.7489 106.345 95.3127C106.751 94.8765 107.211 94.5463 107.726 94.3222C108.241 94.098 108.774 93.9859 109.326 93.9859C110.028 93.9859 110.634 94.1071 111.143 94.3494C111.658 94.5918 112.079 94.931 112.406 95.3672C112.733 95.7973 112.976 96.3062 113.133 96.8938C113.291 97.4754 113.369 98.1115 113.369 98.8021V99.5564H106.027V98.1842H111.688V98.057C111.664 97.6208 111.573 97.1967 111.416 96.7848C111.264 96.3728 111.022 96.0336 110.689 95.767C110.356 95.5005 109.901 95.3672 109.326 95.3672C108.944 95.3672 108.593 95.449 108.272 95.6125C107.95 95.7701 107.675 96.0063 107.445 96.3213C107.214 96.6364 107.036 97.0211 106.908 97.4754C106.781 97.9298 106.718 98.4538 106.718 99.0475V99.4292C106.718 99.8956 106.781 100.335 106.908 100.747C107.042 101.153 107.233 101.51 107.481 101.819C107.735 102.128 108.041 102.37 108.399 102.546C108.762 102.722 109.174 102.81 109.635 102.81C110.228 102.81 110.731 102.688 111.143 102.446C111.555 102.204 111.915 101.88 112.224 101.474L113.242 102.283C113.03 102.604 112.761 102.91 112.433 103.2C112.106 103.491 111.703 103.727 111.225 103.909C110.752 104.091 110.192 104.182 109.544 104.182ZM22.216 122.8C22.6159 122.8 22.9854 122.719 23.3247 122.555C23.6639 122.392 23.9426 122.167 24.1607 121.883C24.3788 121.592 24.503 121.262 24.5333 120.892H26.1326C26.1023 121.474 25.9054 122.016 25.5419 122.519C25.1845 123.016 24.715 123.418 24.1334 123.727C23.5518 124.03 22.9127 124.182 22.216 124.182C21.4769 124.182 20.8318 124.051 20.2805 123.791C19.7352 123.53 19.2809 123.173 18.9174 122.719C18.56 122.264 18.2904 121.743 18.1086 121.156C17.9329 120.562 17.8451 119.935 17.8451 119.275V118.893C17.8451 118.233 17.9329 117.609 18.1086 117.021C18.2904 116.427 18.56 115.903 18.9174 115.449C19.2809 114.995 19.7352 114.637 20.2805 114.377C20.8318 114.116 21.4769 113.986 22.216 113.986C22.9854 113.986 23.6579 114.143 24.2334 114.458C24.8089 114.767 25.2602 115.192 25.5874 115.731C25.9206 116.264 26.1023 116.87 26.1326 117.548H24.5333C24.503 117.142 24.3879 116.776 24.1879 116.449C23.9941 116.121 23.7275 115.861 23.3883 115.667C23.0551 115.467 22.6643 115.367 22.216 115.367C21.7011 115.367 21.2679 115.47 20.9166 115.676C20.5713 115.876 20.2956 116.149 20.0896 116.494C19.8897 116.833 19.7443 117.212 19.6535 117.63C19.5686 118.042 19.5262 118.463 19.5262 118.893V119.275C19.5262 119.705 19.5686 120.129 19.6535 120.547C19.7383 120.965 19.8806 121.344 20.0805 121.683C20.2865 122.022 20.5622 122.295 20.9075 122.501C21.2589 122.701 21.695 122.8 22.216 122.8ZM34.6927 118.43V119.793H29.4949V118.43H34.6927ZM29.8493 114.168V124H28.1681V114.168H29.8493ZM36.0558 114.168V124H34.3656V114.168H36.0558ZM44.5614 122.319V117.257C44.5614 116.87 44.4826 116.533 44.3251 116.249C44.1737 115.958 43.9435 115.734 43.6345 115.576C43.3255 115.419 42.9439 115.34 42.4895 115.34C42.0654 115.34 41.6929 115.413 41.3718 115.558C41.0568 115.703 40.8084 115.894 40.6266 116.131C40.451 116.367 40.3631 116.621 40.3631 116.894H38.682C38.682 116.542 38.7729 116.194 38.9546 115.849C39.1363 115.503 39.3968 115.192 39.7361 114.913C40.0814 114.628 40.4934 114.404 40.9719 114.24C41.4566 114.071 41.9958 113.986 42.5895 113.986C43.3043 113.986 43.9344 114.107 44.4796 114.349C45.0309 114.592 45.461 114.958 45.77 115.449C46.085 115.934 46.2425 116.542 46.2425 117.275V121.855C46.2425 122.183 46.2698 122.531 46.3243 122.9C46.3849 123.27 46.4727 123.588 46.5878 123.855V124H44.834C44.7492 123.806 44.6825 123.549 44.6341 123.228C44.5856 122.9 44.5614 122.598 44.5614 122.319ZM44.8522 118.039L44.8703 119.22H43.171C42.6925 119.22 42.2654 119.26 41.8898 119.338C41.5141 119.411 41.1991 119.523 40.9447 119.675C40.6902 119.826 40.4964 120.017 40.3631 120.247C40.2298 120.471 40.1632 120.735 40.1632 121.038C40.1632 121.347 40.2329 121.628 40.3722 121.883C40.5115 122.137 40.7205 122.34 40.9992 122.492C41.2839 122.637 41.6323 122.71 42.0442 122.71C42.5592 122.71 43.0135 122.601 43.4073 122.382C43.8011 122.164 44.1131 121.898 44.3433 121.583C44.5796 121.268 44.7068 120.962 44.7249 120.665L45.4428 121.474C45.4004 121.728 45.2853 122.01 45.0975 122.319C44.9097 122.628 44.6583 122.925 44.3433 123.209C44.0343 123.488 43.6648 123.721 43.2347 123.909C42.8106 124.091 42.332 124.182 41.7989 124.182C41.1325 124.182 40.5479 124.051 40.0451 123.791C39.5483 123.53 39.1606 123.182 38.8819 122.746C38.6093 122.304 38.473 121.81 38.473 121.265C38.473 120.738 38.576 120.274 38.7819 119.874C38.9879 119.469 39.2848 119.132 39.6725 118.866C40.0602 118.593 40.5267 118.387 41.0719 118.248C41.6171 118.108 42.226 118.039 42.8984 118.039H44.8522Z" fill="#FFECCC"/>
</svg>
