<svg width="535" height="478" viewBox="0 0 535 478" fill="none" xmlns="http://www.w3.org/2000/svg">
<circle cx="261" cy="239" r="239" fill="#9AA2FD"/>
<circle cx="261" cy="239" r="239" fill="#949DFF"/>
<circle cx="261" cy="239" r="204.985" fill="#9AA2FD"/>
<circle cx="261" cy="239" r="204.985" fill="#99A1FF"/>
<circle cx="261.895" cy="239.895" r="171.865" fill="#9AA2FD"/>
<circle cx="261.895" cy="239.895" r="171.865" fill="#9EA6FF"/>
<path d="M347.828 53.7078C346.265 45.2912 337.629 40.9953 333.506 39.8994C343.401 37.2692 348.045 45.3789 349.13 49.7626C360.067 43.4501 367.141 47.5707 369.311 50.4201C360.978 47.7899 351.517 51.516 347.828 53.7078Z" fill="#B4BAFF"/>
<path d="M120.106 69.8202C119.169 64.5598 113.987 61.8748 111.513 61.1899C117.45 59.546 120.236 64.6146 120.887 67.3544C127.45 63.4091 131.694 65.9845 132.996 67.7654C127.996 66.1215 122.32 68.4503 120.106 69.8202Z" fill="#B4BAFF"/>
<circle cx="261.895" cy="239.895" r="137.85" fill="#A3ABFF"/>
<rect y="277" width="535" height="201" fill="#8C96FF"/>
<path d="M124.55 245.85L51.1377 277.902H468.783L397.393 245.85H124.55Z" fill="#8C96FF"/>
<path d="M235.175 186.253L221.305 208.787L247.908 240.382H274.734L299.745 208.252L284.263 186.253H235.175Z" fill="#3F4553"/>
<path d="M221.304 208.787C221.304 208.787 161.639 213.4 146.672 229.028C131.705 244.656 138.746 261.624 153.325 261.624C180.161 261.624 236.942 263.265 263.807 261.624L265.41 225.036L221.304 208.787Z" fill="#3F4553"/>
<path d="M298.2 208.01C298.2 208.01 360.682 213.4 375.649 229.028C390.616 244.656 381.991 255.009 368.996 261.624C350.707 270.938 284.787 269.394 250.598 258.079L256.921 225.036L298.2 208.01Z" fill="#3F4553"/>
<path d="M300.949 238.702L296.724 227.785L301.988 225.444C301.988 225.444 301.259 218.985 307.699 217.742C314.138 216.499 321.812 220.656 329.29 217.305C336.186 214.216 344.627 211.37 352.504 215.644C353.669 216.275 354.213 217.664 353.815 218.927L353.786 219.024C353.387 220.296 352.144 221.083 350.814 220.947C348.036 220.665 343.082 220.724 338.187 223.686C329.747 228.814 300.949 238.702 300.949 238.702Z" fill="#FEBBA0"/>
<path d="M350.104 239.323C350.104 239.323 308.408 231.913 220.576 230.766L212.097 242.266C212.097 242.266 233.95 254.757 254.464 259.273C274.977 263.79 345.792 278.009 377.417 256.107L350.104 239.323Z" fill="#3F4553"/>
<path d="M254.464 259.283C233.436 254.427 211.437 241.975 211.437 241.975L212.748 239.751" stroke="#6E758F" stroke-width="1.5925" stroke-miterlimit="10" stroke-linecap="round"/>
<path d="M220.576 230.767C220.576 230.767 317.072 228.562 342.82 243.5" stroke="#6E758F" stroke-width="1.5925" stroke-miterlimit="10" stroke-linecap="round"/>
<path d="M173.208 237.022C173.208 237.022 190.826 228.766 202.87 234.176" stroke="#6E758F" stroke-width="1.5925" stroke-miterlimit="10" stroke-linecap="round"/>
<path d="M214.127 240.363L220.567 230.553L214.127 227.066C214.127 227.066 211.874 221.423 205.56 219.675C199.238 217.936 194.741 220.743 187.543 216.819C180.91 213.196 172.712 209.709 164.534 213.352C163.33 213.886 162.669 215.226 162.97 216.518L162.99 216.615C163.291 217.917 164.466 218.791 165.797 218.762C168.584 218.694 173.528 219.14 178.171 222.482C186.184 228.251 214.127 240.363 214.127 240.363Z" fill="#FEBBA0"/>
<path d="M269.567 231.116L295.947 228.523" stroke="#6E758F" stroke-width="1.5925" stroke-miterlimit="10" stroke-linecap="round"/>
<path d="M236.019 219.684L250.734 230.339" stroke="#6E758F" stroke-width="1.5925" stroke-miterlimit="10" stroke-linecap="round"/>
<path d="M232.221 74.6839C232.843 80.7641 238.136 85.1931 244.041 84.5909C249.947 83.9887 254.23 78.569 253.608 72.4986C252.987 66.4184 247.693 61.9894 241.788 62.5916C235.892 63.1841 231.609 68.6038 232.221 74.6839Z" fill="#3F4553"/>
<path d="M254.279 79.1032C254.279 79.1032 235.514 76.2671 232.561 58.5608C229.958 42.9137 240.457 30.3746 251.967 28.2087C251.977 28.2087 279.629 70.828 254.279 79.1032Z" fill="#3F4553"/>
<path d="M254.706 29.8889C253.327 30.5687 252.016 31.4623 250.821 32.6181C240.127 42.9039 246.897 62.8731 256.474 71.8865C261.777 76.8691 269.528 79.1904 276.298 76.6457C286.195 72.9258 289.293 61.7173 287.283 51.7327C285.787 44.2928 281.659 37.2705 275.569 32.8998C269.479 28.5388 261.253 26.6934 254.706 29.8889Z" fill="#FDBCA0"/>
<path d="M252.929 65.8646C251.054 67.7197 247.791 68.4773 245.285 67.5935C242.779 66.7096 240.72 64.3494 240.069 61.6104C239.486 59.1531 240.118 56.3559 241.924 54.8504C243.731 53.3449 246.985 53.4421 248.529 55.3943L252.929 65.8646Z" fill="#FDBCA0"/>
<path d="M250.19 59.3377L252.162 94.6336C252.424 101.161 257.717 106.347 264.244 106.473C271.781 106.629 277.696 100.044 276.735 92.5648L272.753 59.7942L250.19 59.3377Z" fill="#FDBCA0"/>
<path d="M275.433 81.9196L274.938 77.0827C274.938 77.0827 265.225 80.0645 256.474 71.8767C256.474 71.8864 261.515 81.0843 275.433 81.9196Z" fill="#DF8370"/>
<path d="M246.334 54.0055C258.98 53.3547 270.519 44.8659 276.89 33.9294C276.89 33.9294 265.254 22.886 248.247 29.345C234.154 34.687 246.334 54.0055 246.334 54.0055Z" fill="#3F4553"/>
<path d="M247.723 62.1252C246.266 62.2709 244.994 61.4842 244.877 60.3672C244.79 59.5222 245.382 58.7355 246.295 58.3276" stroke="#444359" stroke-width="1.1144" stroke-miterlimit="10" stroke-linecap="round"/>
<path d="M278.104 59.3671C278.395 58.4833 278.9 57.7839 279.464 57.1235L279.736 57.9782C279.094 57.7354 278.745 57.3663 278.385 57.0069C278.046 56.6281 277.744 56.2493 277.472 55.8414C276.929 55.0353 276.472 54.1805 276.142 53.2773C276.822 53.9669 277.443 54.6759 278.094 55.3558C278.424 55.686 278.735 56.026 279.075 56.3173C279.396 56.599 279.774 56.8904 280.037 56.9584L280.823 57.1429L280.309 57.8131C279.784 58.5027 279.201 59.1437 278.395 59.6099C278.298 59.6682 278.182 59.6294 278.123 59.5419C278.094 59.474 278.094 59.4157 278.104 59.3671Z" fill="#444359"/>
<path d="M280.95 62.4557C280.562 63.2521 279.901 63.9417 279.047 64.3593C278.201 64.7964 277.153 64.8838 276.22 64.6119C275.268 64.3496 274.53 63.728 273.899 63.087C273.617 62.7373 273.335 62.378 273.102 62.0089C272.898 61.6106 272.685 61.2221 272.529 60.8142C272.889 61.0862 273.199 61.3775 273.51 61.6689L274.472 62.4654C275.152 62.9121 275.793 63.3978 276.531 63.5726C277.24 63.796 277.998 63.7863 278.745 63.5823C279.484 63.3686 280.222 62.951 280.95 62.4557Z" fill="#444359"/>
<path d="M270.78 49.7612C271.159 50.8879 271.373 52.0534 271.295 53.3063C271.247 53.9182 271.101 54.5884 270.644 55.1809C270.178 55.7831 269.391 56.0453 268.702 56.0259C267.993 56.0162 267.293 55.7054 266.818 55.2683C266.322 54.8312 265.934 54.3262 265.642 53.792C265.06 52.7138 264.69 51.5872 264.506 50.4022C264.477 50.2177 264.603 50.0429 264.788 50.004C264.962 49.9749 265.118 50.0817 265.166 50.2371L265.176 50.2565C265.506 51.3055 265.943 52.3642 266.507 53.2772C267.07 54.161 267.837 54.9769 268.741 54.9478C269.187 54.9672 269.605 54.8506 269.858 54.5301C270.139 54.2193 270.275 53.7143 270.353 53.1995C270.499 52.1602 270.402 51.0141 270.227 49.9166V49.8972C270.198 49.7418 270.314 49.5864 270.469 49.5669C270.596 49.5475 270.732 49.6349 270.78 49.7612Z" fill="#444359"/>
<path d="M284.883 47.5563C285.204 48.5082 285.379 49.4794 285.359 50.5187C285.35 51.0335 285.252 51.5968 284.922 52.131C284.602 52.6943 283.883 53.044 283.261 53.0149C282.611 53.0051 282.018 52.6652 281.639 52.267C281.251 51.8591 280.95 51.422 280.726 50.9558C280.289 50.0234 280.017 49.0715 279.881 48.0711C279.852 47.8866 279.988 47.7117 280.182 47.6826C280.348 47.6632 280.503 47.7603 280.552 47.9157L280.561 47.9351C280.843 48.8093 281.183 49.7028 281.62 50.4798C282.057 51.2374 282.649 51.9659 283.3 51.927C283.63 51.9368 283.893 51.8396 284.068 51.5677C284.262 51.2957 284.359 50.8781 284.417 50.441C284.514 49.5669 284.437 48.6053 284.33 47.6923V47.6729C284.31 47.5175 284.427 47.3718 284.582 47.3427C284.709 47.3427 284.845 47.4301 284.883 47.5563Z" fill="#444359"/>
<path d="M295.373 97.8386C295.286 91.9139 276.074 87.1741 276.074 87.1741C274.869 88.5047 272.801 90.7483 264.088 90.7483C255.755 90.7483 252.423 88.5921 251.122 87.1741H242.876C241.04 87.1741 239.36 88.223 238.593 89.8936C222.071 126.035 231.357 166.4 235.164 186.243C235.514 188.069 269.994 186.836 285.544 188.069C288.904 188.351 295.703 119.372 295.373 97.8386Z" fill="#FEE6C6"/>
<path d="M255.25 148.947C256.959 135.135 259.048 126.85 260.65 129.57C262.068 131.979 261.282 144.061 259.154 155.717C259.164 155.717 254.521 154.862 255.25 148.947Z" fill="#FEBBA0"/>
<path d="M266.536 148.947C264.826 135.135 262.738 126.85 261.136 129.57C259.718 131.979 260.504 144.061 262.631 155.717C262.622 155.717 267.264 154.862 266.536 148.947Z" fill="#FEBBA0"/>
<path d="M323.472 145.518H301.764L305.212 167.566L265.818 148.345C265.682 146.868 265.497 145.042 265.274 143.11C263.788 143.11 262.292 143.11 260.806 143.09C260.816 144.771 260.845 145.907 260.845 145.907C260.845 145.907 260.077 156.047 261.835 159.427C265.177 165.857 299.355 186.564 308.845 189.022C309.437 189.177 310.03 189.293 310.622 189.371C319.781 190.663 325.852 185.525 325.784 176.278L323.472 145.518Z" fill="#FEBBA0"/>
<path d="M256.124 143.012C255.784 145.188 255.483 147.286 255.25 148.947L216.991 166.663L218.604 145.528H196.896L194.594 176.308C194.536 185.554 200.606 190.682 209.755 189.4C210.348 189.313 210.94 189.196 211.533 189.051C221.022 186.593 252.812 169.412 259.601 159.388C261.611 156.426 260.66 146.451 260.66 146.451C260.66 146.451 260.66 145.072 260.621 143.11C259.125 143.08 257.629 143.051 256.124 143.012Z" fill="#FEBBA0"/>
<path d="M224.16 157.582C232.649 132.474 232.581 132.455 243.002 87.1842C236.029 87.6601 235.31 86.5237 229.812 89.3792C213.32 97.9458 197.79 126.083 193.215 157.582H224.16Z" fill="#FEE6C6"/>
<path d="M299.744 155.105C294.752 137.321 276.074 87.1839 276.074 87.1839C294.752 86.5526 320.238 110.902 326.338 151.851L299.744 155.105Z" fill="#FEE6C6"/>
<path d="M295.383 115.836L291.449 148.16" stroke="#EED2AD" stroke-width="1.5925" stroke-miterlimit="10" stroke-linecap="round"/>
<path d="M227.734 121.14L230.862 155.717" stroke="#EED2AD" stroke-width="1.5925" stroke-miterlimit="10" stroke-linecap="round"/>
<path d="M395.166 89.0375C349.239 75.8606 355.936 115.391 365.504 115.391C369.435 115.391 377.584 116.367 387.512 116.367H417.652C455.924 116.367 466.927 113.764 467.406 112.951C470.755 87.0853 450.502 89.5255 439.658 92.4537C441.412 82.8557 439.562 63.4647 418.129 62.6838C396.696 61.903 393.89 79.9276 395.166 89.0375Z" fill="#B4BAFF"/>
<path d="M68.0328 15.8904C48.4576 9.74117 51.3122 28.1887 55.3903 28.1887C57.0658 28.1887 60.5389 28.6442 64.7706 28.6442H77.617C93.9297 28.6442 98.6197 27.4296 98.8238 27.05C100.251 14.9794 91.6189 16.1181 86.9969 17.4846C87.7446 13.0056 86.9561 3.95641 77.8206 3.59202C68.6851 3.22762 67.489 11.6391 68.0328 15.8904Z" fill="#A6ADFB"/>
</svg>
