<svg width="478" height="278" viewBox="0 0 478 278" fill="none" xmlns="http://www.w3.org/2000/svg">
<mask id="mask0_212_118" style="mask-type:alpha" maskUnits="userSpaceOnUse" x="0" y="0" width="478" height="278">
<rect width="478" height="278" fill="#D9D9D9"/>
</mask>
<g mask="url(#mask0_212_118)">
<circle cx="239" cy="239" r="239" fill="#9AA2FD"/>
<circle cx="239" cy="239" r="239" fill="#949DFF"/>
<circle cx="239" cy="239" r="204.985" fill="#9AA2FD"/>
<circle cx="239" cy="239" r="204.985" fill="#99A1FF"/>
<circle cx="239.895" cy="239.895" r="171.865" fill="#9AA2FD"/>
<circle cx="239.895" cy="239.895" r="171.865" fill="#9EA6FF"/>
<path d="M325.828 53.7078C324.265 45.2912 315.629 40.9953 311.506 39.8994C321.401 37.2692 326.045 45.3789 327.13 49.7626C338.067 43.4501 345.141 47.5707 347.311 50.4201C338.978 47.7899 329.517 51.516 325.828 53.7078Z" fill="#B4BAFF"/>
<path d="M98.1062 69.8202C97.1688 64.5598 91.9868 61.8749 89.5129 61.1899C95.4501 59.546 98.2364 64.6146 98.8874 67.3544C105.45 63.4091 109.694 65.9845 110.996 67.7654C105.996 66.1215 100.32 68.4503 98.1062 69.8202Z" fill="#B4BAFF"/>
<circle cx="239.895" cy="239.895" r="137.85" fill="#A3ABFF"/>
<path d="M102.55 245.85L29.1377 277.902H446.783L375.393 245.85H102.55Z" fill="#8C96FF"/>
<path d="M213.175 186.253L199.305 208.787L225.908 240.382H252.734L277.745 208.252L262.263 186.253H213.175Z" fill="#3F4553"/>
<path d="M199.304 208.787C199.304 208.787 139.639 213.4 124.672 229.028C109.705 244.656 116.746 261.624 131.325 261.624C158.161 261.624 214.942 263.265 241.807 261.624L243.41 225.036L199.304 208.787Z" fill="#3F4553"/>
<path d="M276.2 208.01C276.2 208.01 338.682 213.4 353.649 229.028C368.616 244.656 359.991 255.009 346.996 261.624C328.707 270.938 262.787 269.394 228.598 258.079L234.921 225.036L276.2 208.01Z" fill="#3F4553"/>
<path d="M278.949 238.702L274.724 227.785L279.988 225.444C279.988 225.444 279.259 218.985 285.699 217.742C292.138 216.499 299.811 220.656 307.29 217.305C314.186 214.216 322.627 211.37 330.504 215.644C331.669 216.275 332.213 217.664 331.815 218.927L331.786 219.024C331.387 220.296 330.144 221.083 328.814 220.947C326.036 220.665 321.082 220.724 316.187 223.686C307.747 228.814 278.949 238.702 278.949 238.702Z" fill="#FEBBA0"/>
<path d="M328.104 239.323C328.104 239.323 286.408 231.913 198.576 230.766L190.097 242.266C190.097 242.266 211.95 254.757 232.464 259.273C252.977 263.79 323.792 278.009 355.417 256.107L328.104 239.323Z" fill="#3F4553"/>
<path d="M232.464 259.283C211.436 254.427 189.437 241.975 189.437 241.975L190.748 239.751" stroke="#6E758F" stroke-width="1.5925" stroke-miterlimit="10" stroke-linecap="round"/>
<path d="M198.576 230.767C198.576 230.767 295.072 228.562 320.82 243.5" stroke="#6E758F" stroke-width="1.5925" stroke-miterlimit="10" stroke-linecap="round"/>
<path d="M151.208 237.022C151.208 237.022 168.826 228.766 180.87 234.176" stroke="#6E758F" stroke-width="1.5925" stroke-miterlimit="10" stroke-linecap="round"/>
<path d="M192.127 240.363L198.567 230.553L192.127 227.066C192.127 227.066 189.874 221.423 183.56 219.675C177.238 217.936 172.741 220.743 165.543 216.819C158.91 213.196 150.712 209.709 142.534 213.352C141.33 213.886 140.669 215.226 140.97 216.518L140.99 216.615C141.291 217.917 142.466 218.791 143.797 218.762C146.584 218.694 151.528 219.14 156.171 222.482C164.184 228.251 192.127 240.363 192.127 240.363Z" fill="#FEBBA0"/>
<path d="M247.567 231.116L273.947 228.523" stroke="#6E758F" stroke-width="1.5925" stroke-miterlimit="10" stroke-linecap="round"/>
<path d="M214.019 219.684L228.734 230.339" stroke="#6E758F" stroke-width="1.5925" stroke-miterlimit="10" stroke-linecap="round"/>
<path d="M210.221 74.684C210.843 80.7641 216.136 85.1931 222.041 84.5909C227.947 83.9887 232.23 78.569 231.608 72.4986C230.987 66.4185 225.693 61.9895 219.788 62.5917C213.892 63.1841 209.609 68.6038 210.221 74.684Z" fill="#3F4553"/>
<path d="M232.279 79.1032C232.279 79.1032 213.514 76.2671 210.561 58.5609C207.958 42.9137 218.457 30.3747 229.967 28.2087C229.977 28.2087 257.629 70.828 232.279 79.1032Z" fill="#3F4553"/>
<path d="M232.706 29.8889C231.327 30.5688 230.016 31.4624 228.821 32.6182C218.127 42.9039 224.897 62.8732 234.474 71.8866C239.777 76.8692 247.528 79.1905 254.298 76.6458C264.195 72.9258 267.293 61.7174 265.283 51.7328C263.787 44.2928 259.659 37.2706 253.569 32.8999C247.479 28.5389 239.253 26.6935 232.706 29.8889Z" fill="#FDBCA0"/>
<path d="M230.929 65.8647C229.054 67.7198 225.791 68.4774 223.285 67.5935C220.779 66.7097 218.72 64.3495 218.069 61.6105C217.486 59.1532 218.118 56.356 219.924 54.8505C221.731 53.345 224.985 53.4422 226.529 55.3944L230.929 65.8647Z" fill="#FDBCA0"/>
<path d="M228.19 59.3378L230.162 94.6337C230.424 101.161 235.717 106.347 242.244 106.473C249.781 106.629 255.696 100.044 254.735 92.5649L250.753 59.7943L228.19 59.3378Z" fill="#FDBCA0"/>
<path d="M253.433 81.9196L252.938 77.0827C252.938 77.0827 243.225 80.0645 234.474 71.8767C234.474 71.8864 239.515 81.0843 253.433 81.9196Z" fill="#DF8370"/>
<path d="M224.334 54.0056C236.98 53.3548 248.519 44.8659 254.89 33.9295C254.89 33.9295 243.254 22.8861 226.247 29.3451C212.154 34.687 224.334 54.0056 224.334 54.0056Z" fill="#3F4553"/>
<path d="M225.723 62.1253C224.266 62.271 222.994 61.4843 222.877 60.3673C222.79 59.5223 223.382 58.7356 224.295 58.3276" stroke="#444359" stroke-width="1.1144" stroke-miterlimit="10" stroke-linecap="round"/>
<path d="M256.104 59.3672C256.395 58.4833 256.9 57.784 257.464 57.1236L257.736 57.9783C257.094 57.7355 256.745 57.3664 256.385 57.007C256.046 56.6282 255.744 56.2494 255.472 55.8415C254.929 55.0353 254.472 54.1806 254.142 53.2773C254.822 53.9669 255.443 54.676 256.094 55.3559C256.424 55.6861 256.735 56.026 257.075 56.3174C257.396 56.5991 257.774 56.8905 258.037 56.9585L258.823 57.143L258.309 57.8132C257.784 58.5028 257.201 59.1438 256.395 59.61C256.298 59.6683 256.182 59.6294 256.123 59.542C256.094 59.474 256.094 59.4158 256.104 59.3672Z" fill="#444359"/>
<path d="M258.95 62.4558C258.562 63.2522 257.901 63.9418 257.047 64.3595C256.201 64.7965 255.153 64.8839 254.22 64.612C253.268 64.3497 252.53 63.7281 251.899 63.0871C251.617 62.7374 251.335 62.3781 251.102 62.009C250.898 61.6108 250.685 61.2223 250.529 60.8143C250.889 61.0863 251.199 61.3777 251.51 61.669L252.472 62.4655C253.152 62.9123 253.793 63.3979 254.531 63.5727C255.24 63.7961 255.998 63.7864 256.745 63.5824C257.484 63.3688 258.222 62.9511 258.95 62.4558Z" fill="#444359"/>
<path d="M248.78 49.7613C249.159 50.888 249.373 52.0535 249.295 53.3064C249.247 53.9183 249.101 54.5885 248.644 55.181C248.178 55.7832 247.391 56.0454 246.702 56.026C245.993 56.0163 245.293 55.7055 244.818 55.2684C244.322 54.8313 243.934 54.3263 243.642 53.7921C243.06 52.7139 242.69 51.5873 242.506 50.4023C242.477 50.2178 242.603 50.043 242.788 50.0041C242.962 49.975 243.118 50.0818 243.166 50.2372L243.176 50.2566C243.506 51.3056 243.943 52.3643 244.507 53.2773C245.07 54.1611 245.837 54.977 246.741 54.9479C247.187 54.9673 247.605 54.8507 247.858 54.5302C248.139 54.2194 248.275 53.7144 248.353 53.1996C248.499 52.1603 248.402 51.0142 248.227 49.9167V49.8973C248.198 49.7419 248.314 49.5865 248.469 49.567C248.596 49.5476 248.732 49.635 248.78 49.7613Z" fill="#444359"/>
<path d="M262.883 47.5565C263.204 48.5083 263.379 49.4796 263.359 50.5188C263.35 51.0336 263.252 51.5969 262.922 52.1311C262.602 52.6945 261.883 53.0441 261.261 53.015C260.611 53.0053 260.018 52.6653 259.639 52.2671C259.251 51.8592 258.95 51.4221 258.726 50.9559C258.289 50.0235 258.017 49.0716 257.881 48.0712C257.852 47.8867 257.988 47.7119 258.182 47.6827C258.348 47.6633 258.503 47.7604 258.552 47.9158L258.561 47.9352C258.843 48.8094 259.183 49.703 259.62 50.48C260.057 51.2376 260.649 51.966 261.3 51.9272C261.63 51.9369 261.893 51.8397 262.068 51.5678C262.262 51.2958 262.359 50.8782 262.417 50.4411C262.514 49.567 262.437 48.6054 262.33 47.6924V47.673C262.31 47.5176 262.427 47.3719 262.582 47.3428C262.709 47.3428 262.845 47.4302 262.883 47.5565Z" fill="#444359"/>
<path d="M273.373 97.8386C273.286 91.9139 254.074 87.1741 254.074 87.1741C252.869 88.5047 250.801 90.7483 242.088 90.7483C233.755 90.7483 230.423 88.5921 229.122 87.1741H220.876C219.04 87.1741 217.36 88.223 216.593 89.8936C200.071 126.035 209.357 166.4 213.164 186.243C213.514 188.069 247.994 186.836 263.544 188.069C266.904 188.351 273.703 119.372 273.373 97.8386Z" fill="#FEE6C6"/>
<path d="M233.25 148.947C234.959 135.135 237.048 126.85 238.65 129.57C240.068 131.979 239.282 144.061 237.154 155.717C237.164 155.717 232.521 154.862 233.25 148.947Z" fill="#FEBBA0"/>
<path d="M244.536 148.947C242.826 135.135 240.738 126.85 239.136 129.57C237.718 131.979 238.504 144.061 240.631 155.717C240.622 155.717 245.264 154.862 244.536 148.947Z" fill="#FEBBA0"/>
<path d="M301.472 145.518H279.764L283.212 167.566L243.818 148.345C243.682 146.868 243.497 145.042 243.274 143.11C241.788 143.11 240.292 143.11 238.806 143.09C238.816 144.771 238.845 145.907 238.845 145.907C238.845 145.907 238.077 156.047 239.835 159.427C243.177 165.857 277.355 186.564 286.845 189.022C287.437 189.177 288.03 189.293 288.622 189.371C297.781 190.663 303.852 185.525 303.784 176.278L301.472 145.518Z" fill="#FEBBA0"/>
<path d="M234.124 143.012C233.784 145.188 233.483 147.286 233.25 148.947L194.991 166.663L196.604 145.528H174.896L172.594 176.308C172.536 185.554 178.606 190.682 187.755 189.4C188.348 189.313 188.94 189.196 189.533 189.051C199.022 186.593 230.812 169.412 237.601 159.388C239.611 156.426 238.66 146.451 238.66 146.451C238.66 146.451 238.66 145.072 238.621 143.11C237.125 143.08 235.629 143.051 234.124 143.012Z" fill="#FEBBA0"/>
<path d="M202.16 157.582C210.649 132.474 210.581 132.455 221.002 87.1842C214.029 87.6601 213.31 86.5237 207.813 89.3793C191.32 97.9459 175.79 126.084 171.215 157.582H202.16Z" fill="#FEE6C6"/>
<path d="M277.744 155.105C272.752 137.321 254.074 87.1839 254.074 87.1839C272.752 86.5525 298.238 110.902 304.338 151.851L277.744 155.105Z" fill="#FEE6C6"/>
<path d="M273.383 115.836L269.449 148.16" stroke="#EED2AD" stroke-width="1.5925" stroke-miterlimit="10" stroke-linecap="round"/>
<path d="M205.734 121.14L208.862 155.717" stroke="#EED2AD" stroke-width="1.5925" stroke-miterlimit="10" stroke-linecap="round"/>
<path d="M373.166 89.0375C327.239 75.8606 333.936 115.391 343.504 115.391C347.435 115.391 355.584 116.367 365.512 116.367H395.652C433.924 116.367 444.927 113.764 445.406 112.951C448.755 87.0854 428.502 89.5255 417.658 92.4537C419.412 82.8558 417.562 63.4647 396.129 62.6839C374.696 61.903 371.89 79.9276 373.166 89.0375Z" fill="#B4BAFF"/>
<path d="M46.0328 15.8904C26.4576 9.74119 29.3122 28.1887 33.3903 28.1887C35.0658 28.1887 38.5389 28.6442 42.7706 28.6442H55.617C71.9297 28.6442 76.6197 27.4296 76.8238 27.05C78.2512 14.9794 69.6189 16.1181 64.9969 17.4846C65.7446 13.0056 64.9561 3.95643 55.8206 3.59203C46.6851 3.22764 45.489 11.6391 46.0328 15.8904Z" fill="#A6ADFB"/>
</g>
</svg>
